<svg version="1.1" viewBox="0 0 20 20" xmlns="http://www.w3.org/2000/svg">
 <g fill="#37c8ab" stroke-width=".36953">
  <path d="m2.0258 18.571c0 0.25868 0.22172 0.4804 0.4804 0.4804h0.18477c0.25867 0 0.4804-0.22172 0.4804-0.4804v-0.29563h-1.1456z"/>
  <rect x="4.317" y="11.033" width="11.493" height="2.2911"/>
  <path d="m3.7257 8.2242c0.18477 0.22172 0.33258 0.51735 0.44344 0.77602 0.11086 0.29563 0.14781 0.59126 0.14781 0.88688v0.36953h11.493v-0.36953c0-1.2934 0.99774-2.4759 2.2911-2.6606v-3.5106c0-1.4781-1.2195-2.6976-2.6976-2.6976h-10.753c-1.4781 0-2.6976 1.2195-2.6976 2.6976v3.5106c0.036954 0 0.073907 0 0.11086 0.036954 0.66516 0.073907 1.2564 0.44344 1.6629 0.96079z"/>
  <path d="m16.918 18.571c0 0.25868 0.22172 0.4804 0.4804 0.4804h0.18477c0.25867 0 0.4804-0.22172 0.4804-0.4804v-0.29563h-1.1456z"/>
  <path d="m18.47 7.9655c-0.92384 0-1.6999 0.66516-1.8846 1.552-0.03695 0.11086-0.03695 0.25867-0.03695 0.36953v3.8062c0 0.22172-0.18477 0.36954-0.36954 0.36954h-12.269c-0.22172 0-0.36953-0.18477-0.36953-0.36954v-3.8062c0-1.0717-0.84993-1.9216-1.9216-1.9216h-1.552v9.5709h19.918v-9.5709z"/>
 </g>
</svg>
