<svg version="1.1" viewBox="0 0 20 20" xmlns="http://www.w3.org/2000/svg">
 <path d="m2.9399 18.869c-0.75392-0.57782-1.2354-1.5216-1.2354-2.5231v-12.434c0-1.761 1.4418-3.2055 3.2028-3.2055h12.638c0.24214 0 0.43749 0.19536 0.43749 0.43749v14.44c0 0.24213-0.19536 0.43749-0.43749 0.43749h-11.551c-1.2712 0-2.3113 1.0153-2.3553 2.2755 0.3632 0.23938 0.80069 0.37696 1.2685 0.37696h12.2v-1.6014c0-0.57782 0.87498-0.57782 0.87498 0v2.0416c0 0.24213-0.19536 0.43749-0.43749 0.43749h-12.638c-0.74016-1e-6 -1.4225-0.25589-1.9673-0.68238zm5.1811-17.285h-3.0322v9.9165c1.7747-2.0279 1.2767-2.0416 3.0322-0.011z" style="fill:#8080ff;stroke-width:.21913"/>
</svg>
