<svg version="1.1" viewBox="0 0 20 20" xmlns="http://www.w3.org/2000/svg">
 <path d="m16.888 19.643c-0.0014-0.01055 0.0011-0.02079-0.0017-0.0314-0.50255-1.9292-2.3656-3.1365-4.3309-2.8068-3e-5 0-5.9e-5 3.1e-5 -8.9e-5 3.1e-5 -0.56288 0.0887-1.0964-0.35764-1.0964-0.92852v-1.7847c0.3586-0.33467 0.58724-0.77721 0.6354-1.2698 0.05261-0.53527-0.10666-1.0594-0.44848-1.4754-0.05703-0.06909-0.12279-0.12667-0.18691-0.18642v-0.98876c2.3334-0.57391 4.072-2.5614 4.334-4.9471 0.54467-0.028724 0.97997-0.47655 0.97997-1.0282 0-0.5383-0.41482-0.97685-0.94085-1.0248v-1.4636c0.41209-0.046575 0.73454-0.39318 0.73454-0.81733 0-0.45624-0.37091-0.82715-0.82691-0.82715h-11.3c-0.456 0-0.82691 0.37091-0.82691 0.82715 0 0.42424 0.32258 0.77088 0.73479 0.81736v1.4636c-0.52603 0.047911-0.94109 0.48646-0.94109 1.0248 0 0.5516 0.43546 0.99936 0.97997 1.0282 0.26218 2.3857 2.001 4.3732 4.334 4.9471v0.98851c-0.35861 0.33464-0.58724 0.77718-0.6354 1.2694-0.052368 0.53576 0.10666 1.0594 0.44848 1.4754 0.056696 0.06909 0.1227 0.12687 0.18691 0.18676v1.7851c0 0.05237-0.00418 0.10376-0.012847 0.15564-0.085574 0.51104-0.57115 0.85867-1.0836 0.77285-1.968-0.32969-3.8284 0.87758-4.3309 2.8068-0.00281 0.01055-3.941e-4 0.02079-0.00175 0.0314-0.00137 0.01068-0.0063 0.0201-0.0063 0.03115 0 0.0064 0.00311 0.01162 0.00357 0.01784 0.00121 0.01708 0.00524 0.03266 0.00985 0.04886 0.00433 0.01532 0.00843 0.03008 0.015512 0.04402 0.00699 0.01382 0.016059 0.02556 0.025482 0.0378 0.010061 0.01313 0.019757 0.02563 0.032209 0.03643 0.011032 0.0096 0.023394 0.01671 0.03615 0.02437 0.015307 0.0092 0.030364 0.01733 0.047577 0.02317 0.00554 0.0019 0.00958 0.0063 0.015307 0.0074 0.020607 0.0056 0.041487 0.0081 0.062095 0.0082 1.572e-4 0 3.014e-4 8.8e-5 4.594e-4 8.8e-5h13.113c1.31e-4 0 2.63e-4 -8.8e-5 3.94e-4 -8.8e-5 0.02061-6.3e-5 0.04149-0.0025 0.06209-0.0082 0.0057-0.0012 0.0098-0.0056 0.0153-0.0074 0.01722-0.0056 0.03228-0.01394 0.04758-0.02317 0.01276-0.0077 0.02512-0.01476 0.03615-0.02437 0.01246-0.01086 0.02216-0.02336 0.03221-0.03643 0.0094-0.01232 0.01851-0.02399 0.02548-0.0378 0.0071-0.01394 0.01115-0.0287 0.01552-0.04402 0.0046-0.0162 0.0086-0.03178 0.0098-0.04886 3.94e-4 -0.0063 0.0036-0.0115 0.0036-0.01784 0-0.01106-0.0048-0.02047-0.0063-0.03115zm-1.1491-15.985c0.29624 0 0.53745 0.24097 0.53745 0.5377 0 0.29624-0.24121 0.53721-0.53745 0.53721-0.29649 0-0.5377-0.24097-0.5377-0.53721 6e-6 -0.29673 0.24122-0.5377 0.5377-0.5377zm-11.299 1.0749c-0.29649 0-0.5377-0.24097-0.5377-0.53721 0-0.29673 0.24121-0.5377 0.5377-0.5377 0.29624 0 0.53745 0.24097 0.53745 0.5377 0 0.29624-0.24121 0.53721-0.53745 0.53721zm5.6492 0.49648c-0.57018 0-1.0339-0.46351-1.0339-1.0337 0-0.57018 0.46376-1.0342 1.0339-1.0342 0.57018 0 1.0342 0.464 1.0342 1.0342 0 0.57018-0.46401 1.0337-1.0342 1.0337z" fill="#ff0" stroke-width=".49648"/>
</svg>
