<svg version="1.1" viewBox="0 0 20 20" xmlns="http://www.w3.org/2000/svg">
 <path d="m18.054 0.09895h-14.651c-0.13614 0-0.2689 0.070138-0.34506 0.18324l-1.3261 1.9604c-0.12149 0.072768-0.20353 0.20428-0.20353 0.3562v16.898c0 0.23008 0.18649 0.41657 0.41657 0.41657h13.921c0.38313 0 0.41657-0.56223 0.41657-0.79231v0.01892l1.7722-0.0013c0.11147 0.0017 0.21893-0.04171 0.29834-0.11986 0.07941-0.07829 0.11673-0.13639 0.11673-0.27104v-18.233c0-0.23008-0.18649-0.41657-0.41657-0.41657zm-5.3603 12.181v1.3379h-0.55697v-1.3379l-6.4492-2.49e-4v1.3381h-0.55697v-4.2461c0-0.15368 0.12475-0.27817 0.27842-0.27817 0.1538 0 0.27842 0.12462 0.27842 0.27817v2.0801h1.9647l1.0454-2.7123h0.46103c2.1083-0.00739 3.5353 0.93058 3.5353 2.5125-2.5e-4 0.87159-2.5e-4 1.028-2.5e-4 1.028zm-6.0194-2.6098c0.44413 0 0.80446 0.36008 0.80446 0.80421 0 0.44425-0.36021 0.80459-0.80446 0.80459-0.44438-2.5e-4 -0.80434-0.36034-0.80434-0.80459 0-0.44413 0.35996-0.80421 0.80434-0.80421zm-0.10746-0.93797c0-0.44413 0.35996-0.80408 0.80434-0.80408 0.444 0 0.80434 0.35996 0.80434 0.80408s-0.36034 0.80446-0.80434 0.80446c-0.44438-2.506e-4 -0.80434-0.36021-0.80434-0.80446zm10.758 9.4216-1.0417 0.37386v-16.179c0-0.23008-0.18649-0.41657-0.41657-0.41657h-11.872c0.33804-0.14128 0.69675-0.37436 0.36271-0.72793l-0.00338-0.021041h12.971z" fill="#f0f" stroke-width=".12525"/>
</svg>
