<svg version="1.1" viewBox="0 0 20 20" xmlns="http://www.w3.org/2000/svg">
 <g fill="#f95" stroke-width=".22326">
  <path d="m19.459 9.9831h-2.2638a0.48893 0.48893 0 0 0 0 0.97786h2.2638a0.48893 0.48893 0 1 0 0-0.97786z"/>
  <path d="m16.412 7.4425a0.4867 0.4867 0 0 0 0.25228-0.064719l1.9602-1.1319a0.49376 0.49376 0 0 0-0.49786-0.85283l-1.9602 1.1386a0.48893 0.48893 0 0 0 0.24558 0.91312z"/>
  <path d="m15.57 1.8209a0.48893 0.48893 0 0 0-0.66977 0.12726l-1.277 1.8709a0.48893 0.48893 0 1 0 0.80818 0.54698l1.2681-1.8753a0.48893 0.48893 0 0 0-0.12949-0.66977z"/>
  <path d="m5.9076 4.5781a0.48893 0.48893 0 0 0 0.4041-0.76577l-1.277-1.8709a0.48893 0.48893 0 1 0-0.80818 0.5492l1.2748 1.8753a0.48893 0.48893 0 0 0 0.40632 0.2121z"/>
  <path d="m3.7465 6.5316-1.9624-1.1386a0.48893 0.48893 0 0 0-0.48893 0.84614l1.9602 1.1319a0.48893 0.48893 0 1 0 0.48893-0.84614z"/>
  <path d="m18.615 14.604-1.9512-1.1319a0.4928 0.4928 0 1 0-0.49786 0.8506l1.9602 1.1319a0.48893 0.48893 0 0 0 0.48892-0.84614z"/>
  <path d="m3.2576 13.473-1.9602 1.1319a0.48893 0.48893 0 1 0 0.48892 0.84615l1.9602-1.1274a0.48893 0.48893 0 0 0-0.48892-0.84614z"/>
  <path d="m3.2263 10.472a0.48893 0.48893 0 0 0-0.48893-0.48893h-2.2638a0.48893 0.48893 0 1 0 0 0.97786h2.2638a0.48893 0.48893 0 0 0 0.48893-0.48892z"/>
  <path d="m9.9485 3.2765a0.48893 0.48893 0 0 0 0.48893-0.48893v-2.2638a0.48893 0.48893 0 1 0-0.97786 0v2.2638a0.48893 0.48893 0 0 0 0.48893 0.48893z"/>
  <path d="m11.893 16.388h-3.8891a0.48893 0.48893 0 0 0 0 0.97786h3.8891a0.48893 0.48893 0 1 0 0-0.97786z"/>
  <path d="m8.9394 19.304v0.26791a0.55591 0.55591 0 0 0 0.55368 0.55591h0.79032a0.55591 0.55591 0 0 0 0.55368-0.55368v-0.25898a1.2056 1.2056 0 0 0 1.1386-1.1966h-4.0655a1.2056 1.2056 0 0 0 1.0292 1.1855z"/>
  <path d="m9.9485 5.2992c-2.7148 0-4.9116 2.2593-4.9116 5.0433a5.1349 5.1349 0 0 0 0.35944 1.8932q0.044637 0.11163 0.093763 0.22325a5.0612 5.0612 0 0 0 0.84391 1.2993l1.248 1.9178h4.7375l1.248-1.9178a5.0612 5.0612 0 0 0 0.8439-1.2993q0.04911-0.1094 0.09377-0.22325a5.1349 5.1349 0 0 0 0.35943-1.8932c0-2.7862-2.2013-5.0433-4.9161-5.0433zm-0.22325 1.8575a3.264 3.264 0 0 0-1.4646 0.44651c-0.93544 0.5559-1.4221 1.5628-1.4467 2.9626a0.48893 0.48893 0 0 1-0.48893 0.48 0.48893 0.48893 0 0 1-0.48-0.49786c0.037971-2.2326 1.0917-3.3064 1.9691-3.811a4.2106 4.2106 0 0 1 1.92-0.55144 0.48893 0.48893 0 0 1 0 0.97786z"/>
 </g>
</svg>
