<svg version="1.1" viewBox="0 0 20 20" xmlns="http://www.w3.org/2000/svg">
 <g stroke-width=".22687">
  <rect x="6.3374" y=".024772" width="7.2601" height="1.815" rx=".45375" ry=".45375" fill="#0ff"/>
  <path d="m12.69 6.006v-3.2586h-5.445v3.2586a7.2618 7.2618 0 0 0-4.5166 6.4467c2.2677-0.96218 4.8451-0.33494 7.3489 0.29054 2.611 0.65404 5.0785 1.2546 7.1414 0.16128 0.0014-0.0586 0.0088-0.11571 0.0088-0.17469a7.2707 7.2707 0 0 0-4.5375-6.7238z" fill="#80e5ff"/>
  <path d="m9.8575 13.624c-2.5991-0.64945-5.0557-1.2471-7.1138-0.17444a7.2556 7.2556 0 0 0 14.37 0.52129 6.6544 6.6544 0 0 1-2.515 0.45164c-1.5456 0-3.1586-0.40322-4.741-0.79848z" fill="#f00"/>
 </g>
</svg>
