<svg version="1.1" viewBox="0 0 32 32" xmlns="http://www.w3.org/2000/svg">
 <g style="fill:#87decd">
  <g transform="matrix(1.5938 0 0 1.5938 .17802 7.1655)" style="fill-rule:evenodd;fill:#87decd">
   <g transform="translate(-340,-2684)" style="fill:#87decd">
    <g transform="translate(56,160)" style="fill:#87decd">
     <path d="m304 2529.5c0 3.038-2.462 5.5-5.5 5.5-1.493 0-2.845-0.597-3.836-1.563 0.439-0.576 0.756-1.146 1.005-1.897 0.636 0.881 1.664 1.46 2.831 1.46 1.93 0 3.5-1.57 3.5-3.5s-1.57-3.5-3.5-3.5c-1.167 0-2.195 0.579-2.832 1.46-1.267 1.754-0.029 2.865-1.668 5.196-1.009 1.436-2.662 2.344-4.5 2.344-3.038 0-5.5-2.462-5.5-5.5s2.462-5.5 5.5-5.5c1.493 0 2.845 0.597 3.836 1.563-0.439 0.576-0.756 1.146-1.004 1.897-0.637-0.881-1.665-1.46-2.832-1.46-1.93 0-3.5 1.57-3.5 3.5s1.57 3.5 3.5 3.5c1.966 0 3.5-1.638 3.5-3.5 0-3.053 2.486-5.5 5.5-5.5 3.038 0 5.5 2.462 5.5 5.5" style="fill:#87decd"/>
    </g>
   </g>
  </g>
 </g>
</svg>
