<?xml version="1.0" encoding="UTF-8" standalone="no"?>
<svg
   xmlns:dc="http://purl.org/dc/elements/1.1/"
   xmlns:cc="http://creativecommons.org/ns#"
   xmlns:rdf="http://www.w3.org/1999/02/22-rdf-syntax-ns#"
   xmlns:svg="http://www.w3.org/2000/svg"
   xmlns="http://www.w3.org/2000/svg"
   xmlns:sodipodi="http://sodipodi.sourceforge.net/DTD/sodipodi-0.dtd"
   xmlns:inkscape="http://www.inkscape.org/namespaces/inkscape"
   version="1.1"
   viewBox="0 0 32 32"
   id="svg6"
   sodipodi:docname="never.svg"
   inkscape:version="0.92.3 (2405546, 2018-03-11)">
  <metadata
     id="metadata12">
    <rdf:RDF>
      <cc:Work
         rdf:about="">
        <dc:format>image/svg+xml</dc:format>
        <dc:type
           rdf:resource="http://purl.org/dc/dcmitype/StillImage" />
        <dc:title></dc:title>
      </cc:Work>
    </rdf:RDF>
  </metadata>
  <defs
     id="defs10" />
  <sodipodi:namedview
     pagecolor="#ffffff"
     bordercolor="#666666"
     borderopacity="1"
     objecttolerance="10"
     gridtolerance="10"
     guidetolerance="10"
     inkscape:pageopacity="0"
     inkscape:pageshadow="2"
     inkscape:window-width="779"
     inkscape:window-height="480"
     id="namedview8"
     showgrid="false"
     inkscape:zoom="7.375"
     inkscape:cx="16"
     inkscape:cy="16"
     inkscape:window-x="67"
     inkscape:window-y="754"
     inkscape:window-maximized="0"
     inkscape:current-layer="svg6" />
  <g
     style="fill:#ff0000"
     id="g4">
    <path
       d="m16.104 0.53862c-8.5546 0-15.487 6.9327-15.487 15.487 0 8.5546 6.9327 15.487 15.487 15.487 8.5546 0 15.487-6.9327 15.487-15.487 0-8.5546-6.9327-15.487-15.487-15.487zm7.2924 20.585c0.60364 0.60364 0.60364 1.5853 0 2.1889-0.30487 0.30487-1.2865 0.9085-2.1889 0l-5.1035-5.0974-5.0974 5.0974c-0.30487 0.30487-1.2317 0.95728-2.1889 0-0.60364-0.60363-0.60364-1.5853 0-2.1889l5.0974-5.0974-5.0974-5.0974c-0.60364-0.60364-0.60364-1.5853 0-2.1889 0.60364-0.60364 1.5853-0.60364 2.1889 0l5.0974 5.0974 5.0974-5.0974c0.60364-0.60364 1.5853-0.60364 2.1889 0 0.60364 0.60364 0.60364 1.5853 0 2.1889l-5.0974 5.0974z"
       style="fill:#ff0000;stroke-width:0.060973"
       id="path2" />
  </g>
</svg>
