<svg version="1.1" viewBox="0 0 20 20" xmlns="http://www.w3.org/2000/svg">
 <g transform="matrix(.23303 0 0 .23303 -.81708 16.218)" style="fill:#ffaaaa">
  <path d="m45.96-68.916c-11.351 0-20.586 9.235-20.586 20.586v6.977h10.454v-6.977c0-5.587 4.545-10.133 10.132-10.133 5.588 0 10.135 4.546 10.135 10.133v6.977h10.453v-6.977c0-11.349-9.235-20.586-20.588-20.586z" style="fill:#ffaaaa"/>
  <path d="m67.609-38.243h-43.299c-4.434 0-8.027 3.594-8.027 8.028v29.31c0 8.867 7.188 16.058 16.056 16.058h27.244c8.866 0 16.056-7.188 16.056-16.058v-29.31c0-4.434-3.595-8.028-8.03-8.028zm-15.685 36.672c0.213 0.967-0.417 1.75-1.404 1.75h-9.115c-0.989 0-1.619-0.783-1.406-1.75l2.577-11.707c-1.989-1.168-3.33-3.322-3.33-5.795 0-3.709 3.007-6.716 6.716-6.716s6.716 3.007 6.716 6.716c0 2.473-1.34 4.627-3.33 5.795z" style="fill:#ffaaaa"/>
 </g>
</svg>
