<svg version="1.1" viewBox="0 0 20 20" xmlns="http://www.w3.org/2000/svg">
 <g transform="matrix(.20971 0 0 .20971 -.45961 -1.2982)" style="fill:#de8787">
  <path d="m95.5 52.5-12.6-9.7v-17.5c0-1-0.8-1.8-1.8-1.8h-6.9c-1 0-1.8 0.8-1.8 1.8v9.5l-19.2-14.9c-1.9-1.5-4.5-1.5-6.4 0l-42.3 32.6c-2.3 1.8-2.7 5.1-0.9 7.3 1.8 2.3 5.1 2.7 7.3 0.9l39.1-30 39.1 30.1c1 0.7 2.1 1.1 3.2 1.1 1.6 0 3.1-0.7 4.1-2 1.8-2.3 1.4-5.6-0.9-7.4z" style="fill:#de8787"/>
  <path d="m35.2 53.5v10.8h12.8v-12.7h-10.9c-1 0-1.9 0.8-1.9 1.9z" style="fill:#de8787"/>
  <path d="m62.9 51.6h-10.9v12.7h12.7v-10.8c0.1-1.1-0.8-1.9-1.8-1.9z" style="fill:#de8787"/>
  <path d="m52 81.2h10.8c1.1 0 1.9-0.9 1.9-1.9v-10.9h-12.7z" style="fill:#de8787"/>
  <path d="m35.2 79.2c0 1.1 0.9 1.9 1.9 1.9h10.9v-12.7h-12.8z" style="fill:#de8787"/>
 </g>
</svg>
