<svg version="1.1" viewBox="0 0 20 20" xmlns="http://www.w3.org/2000/svg">
 <g transform="matrix(.78814 0 0 .78814 .60012 .62466)" style="fill:#939dac">
  <g style="fill:#939dac">
   <path d="m23 4h0.5c0.276 0 0.5-0.224 0.5-0.5v-3c0-0.276-0.224-0.5-0.5-0.5h-23c-0.276 0-0.5 0.224-0.5 0.5v3c0 0.276 0.224 0.5 0.5 0.5h0.5v16h-0.5c-0.276 0-0.5 0.224-0.5 0.5v3c0 0.276 0.224 0.5 0.5 0.5h23c0.276 0 0.5-0.224 0.5-0.5v-3c0-0.276-0.224-0.5-0.5-0.5h-0.5zm-19.675 16h-1.325v-1.257l7.733-6.105 1.459 1.152zm18.675 0h-1.326l-10.253-8.094-0.378-0.298-8.043-6.35v-1.258h1.326l10.253 8.094 0.378 0.298 8.043 6.35zm0-14.743-7.733 6.105-1.459-1.152 7.867-6.21h1.325z" style="fill:#939dac"/>
  </g>
 </g>
</svg>
