<svg version="1.1" viewBox="0 0 20 20" xmlns="http://www.w3.org/2000/svg">
 <g transform="matrix(.22064 0 0 .22064 -.92648 -.75551)" style="fill:#9dac93">
  <path d="m36.393 59.194-5.482-15.08c-0.241-0.663-0.921-1.057-1.619-0.933l-15.786 2.801c-0.601 0.106-1.071 0.577-1.177 1.178-0.105 0.601 0.176 1.205 0.705 1.509l2.262 1.306-10.101 17.496c-0.26 0.449-0.26 1.003 0 1.453l9.491 16.439c0.259 0.449 0.739 0.726 1.258 0.726s0.998-0.277 1.257-0.726l14.838-25.721 2.262 1.306c0.529 0.305 1.193 0.246 1.66-0.145 0.468-0.392 0.64-1.035 0.432-1.609z" style="fill:#9dac93"/>
  <path d="m75.978 25.516c-0.467-0.392-1.13-0.451-1.66-0.145l-2.262 1.306-10.102-17.497c-0.259-0.449-0.738-0.726-1.258-0.726h-18.982c-0.519 0-0.998 0.277-1.258 0.726-0.259 0.45-0.259 1.003 0 1.452l14.856 25.71-2.262 1.307c-0.528 0.305-0.81 0.909-0.704 1.51s0.577 1.071 1.177 1.178l15.8 2.792c0.085 0.015 0.17 0.022 0.254 0.022 0.601 0 1.153-0.375 1.364-0.957l5.468-15.071c0.209-0.573 0.037-1.215-0.431-1.607z" style="fill:#9dac93"/>
  <path d="m38.297 12.701-13.275 22.606c-0.196 0.334-0.25 0.732-0.152 1.106s0.343 0.694 0.678 0.887l14.227 8.214c0.229 0.132 0.479 0.195 0.725 0.195 0.5 0 0.985-0.257 1.255-0.718l7.648-13.069z" style="fill:#9dac93"/>
  <path d="m94.805 68.863c-0.259-0.449-0.739-0.726-1.257-0.726l-29.694 0.01v-2.611c0-0.611-0.381-1.156-0.955-1.365-0.575-0.21-1.217-0.037-1.609 0.43l-10.32 12.288c-0.454 0.541-0.454 1.329 1e-3 1.869l10.319 12.271c0.281 0.334 0.691 0.517 1.112 0.517 0.167 0 0.334-0.028 0.497-0.088 0.573-0.209 0.955-0.754 0.955-1.364v-2.613h20.204c0.519 0 0.999-0.277 1.258-0.726l9.491-16.439c0.258-0.449 0.258-1.004-2e-3 -1.453z" style="fill:#9dac93"/>
  <path d="m70.638 65.24 22.199-8e-3 -12.94-22.799c-0.191-0.336-0.509-0.583-0.882-0.685-0.373-0.1-0.771-0.049-1.107 0.144l-14.228 8.215c-0.691 0.399-0.931 1.282-0.536 1.976z" style="fill:#9dac93"/>
  <path d="m46.307 67.059-15.141-0.089-11.094 19.23 26.215 0.193h0.011c0.383 0 0.751-0.151 1.023-0.421 0.274-0.272 0.429-0.644 0.429-1.031v-16.429c0-0.8-0.645-1.448-1.443-1.453z" style="fill:#9dac93"/>
 </g>
</svg>
