<svg version="1.1" viewBox="0 0 20 20" xmlns="http://www.w3.org/2000/svg">
 <path d="m0.69481 19.705h1.2502a0.31256 0.31256 0 0 0 0.31256-0.31256v-2.5005h5.3135v-11.877c-1.3002 2.8912-4.3352 2.5724-5.3135 2.3848v-3.6351a0.31256 0.31256 0 0 0-0.31256-0.31256h-0.31256v-1.3065a0.93768 0.93768 0 1 0-0.62512 0v1.3065h-0.31256a0.31256 0.31256 0 0 0-0.31256 0.31256v15.628a0.31256 0.31256 0 0 0 0.31256 0.31256zm0.31256-15.628h0.62512v0.62512h-0.62512zm0 1.2502h0.62512v13.753h-0.62512z" style="fill:#80e5ff;stroke-width:.31256"/>
 <path d="m19.761 1.264a0.93768 0.93768 0 1 0-1.2502 0.88142v1.3065h-0.31256a0.31256 0.31256 0 0 0-0.31256 0.31256v3.6351c-0.97831 0.18754-4.0133 0.50635-5.3135-2.3848v11.877h5.3135v2.5005a0.31256 0.31256 0 0 0 0.31256 0.31256h1.2502a0.31256 0.31256 0 0 0 0.31256-0.31256v-15.628a0.31256 0.31256 0 0 0-0.31256-0.31256h-0.31256v-1.3065a0.93768 0.93768 0 0 0 0.62512-0.88142zm-0.62512 17.816h-0.62512v-13.753h0.62512zm0-14.378h-0.62512v-0.62512h0.62512z" style="fill:#80e5ff;stroke-width:.31256"/>
</svg>
