<svg version="1.1" viewBox="0 0 20 20" xmlns="http://www.w3.org/2000/svg">
 <g fill="#ac93a7">
  <g stroke-width=".22204">
   <path d="m7.22 2.8329a3.9835 3.9835 0 0 1 1.7941 0.74384 1.5055 1.5055 0 0 1 0.19318-1.4566 5.329 5.329 0 0 0-1.088-0.44409 1.5032 1.5032 0 0 1-0.89928 1.1568z"/>
   <path d="m4.258 3.5767a3.9835 3.9835 0 0 1 1.7941-0.74384 1.5032 1.5032 0 0 1-0.88817-1.168 5.329 5.329 0 0 0-1.088 0.44409 1.5055 1.5055 0 0 1 0.18208 1.4677z"/>
   <path d="m9.8424 4.4049a3.9835 3.9835 0 0 1 0.74385 1.7941 1.5032 1.5032 0 0 1 1.168-0.88817 5.329 5.329 0 0 0-0.44409-1.088 1.4921 1.4921 0 0 1-0.89928 0.29087 1.5321 1.5321 0 0 1-0.56843-0.1088z"/>
   <path d="m7.22 10.733a1.5099 1.5099 0 0 1 0.8371 0.90372l0.44409-0.39302 0.44409-0.36638a1.5188 1.5188 0 0 1 0.071054-0.88817 3.9835 3.9835 0 0 1-1.7963 0.74384z"/>
   <path d="m2.6859 6.199a3.9835 3.9835 0 0 1 0.74385-1.7941 1.5321 1.5321 0 0 1-0.56177 0.1088 1.4921 1.4921 0 0 1-0.89484-0.30198 5.329 5.329 0 0 0-0.44409 1.088 1.5032 1.5032 0 0 1 1.1568 0.89927z"/>
   <path d="m3.4297 9.1611a3.9835 3.9835 0 0 1-0.74385-1.7941 1.5032 1.5032 0 0 1-1.1679 0.88817 5.329 5.329 0 0 0 0.44409 1.088 1.5077 1.5077 0 0 1 1.4677-0.18208z"/>
   <path d="m6.0521 10.733a3.9835 3.9835 0 0 1-1.7941-0.74384 1.5055 1.5055 0 0 1-0.19318 1.4566 5.329 5.329 0 0 0 1.088 0.44408 1.5032 1.5032 0 0 1 0.89928-1.1568z"/>
   <path d="m10.586 7.367a3.9835 3.9835 0 0 1-0.74385 1.7941 1.5077 1.5077 0 0 1 1.3922 0.14211l0.13545-0.073264a5.4179 5.4179 0 0 0 0.38414-0.96367 1.5032 1.5032 0 0 1-1.168-0.89927z"/>
   <path d="m-0.025252 16.135v3.9968h1.2501v-3.4816h-0.068834a2.9843 2.9843 0 0 1-1.1813-0.51514z"/>
   <path d="m3.7228 16.486v3.6504h1.2501v-4.0812a10.158 10.158 0 0 1-1.1591 0.40856z"/>
   <path d="m8.7233 19.44v-4.4609h-0.67945a0.16653 0.16653 0 0 1-0.093258-0.3042l0.77271-0.5218v-0.40634c-0.37525 0.3153-0.7172 0.58176-1.0569 0.81934-0.064393 0.04666-0.12879 0.0866-0.19318 0.13101v5.4401h1.1102a0.14433 0.14433 0 0 1 0-0.03105z"/>
   <path d="m12.471 11.617v-0.80824c-0.25313 0.13767-0.4996 0.28422-0.74385 0.44409a1.5099 1.5099 0 0 1-0.26423 0.35527 1.4699 1.4699 0 0 1-0.24203 0.19762v0.65281z"/>
   <path d="m16.222 12.077v-2.4558c-0.413 0.064368-0.80824 0.13989-1.1746 0.22204l-0.07549 0.019973v1.3611z"/>
   <path d="m18.72 9.392v4.3743l1.2501 0.84377v-5.2424c-0.41744 0-0.82156 0-1.2368 0.024421z"/>
   <path d="m18.72 16.602 0.70388 3.5039a0.14433 0.14433 0 0 1 0 0.03105h0.54623v-5.1581h-1.2501z"/>
   <path d="m6.4695 10.622h0.16653 0.16653v-3.4372l2.4425 2.4314a1.4744 1.4744 0 0 1 0.23537-0.23537l-2.4314-2.4425h3.4261v-0.16653-0.16653h-3.4372l2.4314-2.4203a1.4744 1.4744 0 0 1-0.23537-0.23537l-2.4425 2.4425v-3.4483h-0.16653-0.16653v3.4372l-2.4203-2.4314a1.4744 1.4744 0 0 1-0.23537 0.23537l2.4425 2.4425h-3.4483v0.16653 0.16653h3.4372l-2.4314 2.4425a1.4744 1.4744 0 0 1 0.23537 0.23537l2.4425-2.4314z"/>
   <circle cx="6.6361" cy="1.454" r="1.1657"/>
   <path d="m7.2533 12.35c0.15543-0.13545 0.31086-0.27312 0.46851-0.41522l0.057732-0.05111a1.1657 1.1657 0 1 0-1.5543 1.3167c0.32862-0.24869 0.66391-0.52846 1.0281-0.85042z"/>
   <circle cx="11.965" cy="6.783" r="1.1657"/>
   <circle cx="1.307" cy="6.783" r="1.1657"/>
   <path d="m11.228 3.8387a1.1657 1.1657 0 1 0-1.6476 0 1.1591 1.1591 0 0 0 1.6476 0z"/>
   <path d="m2.8613 9.3854a1.1657 1.1657 0 1 0 0.82378 1.9984 1.1657 1.1657 0 0 0-0.82378-1.9984z"/>
   <path d="m9.2473 10.633a15.587 15.587 0 0 1 1.6453-1.1369 1.1791 1.1791 0 0 0-0.4885-0.11102 1.1591 1.1591 0 0 0-1.1568 1.2479z"/>
   <path d="m3.6918 2.1911a1.1657 1.1657 0 1 0 0 1.6476 1.1591 1.1591 0 0 0 0-1.6476z"/>
   <path d="m16.222 7.9798c-0.44409 0.068816-0.85487 0.15321-1.2501 0.24647a14.406 14.406 0 0 0-2.5002 0.82822 13.673 13.673 0 0 0-1.2501 0.63283 16.223 16.223 0 0 0-2.498 1.8097c-0.44409 0.37747-0.84821 0.75051-1.2501 1.1102-0.80602 0.70832-1.581 1.3323-2.5002 1.7386a9.3081 9.3081 0 0 1-1.2501 0.45742 5.9952 5.9952 0 0 1-1.6609 0.25756 3.8502 3.8502 0 0 1-0.8371-0.08659 2.3337 2.3337 0 0 1-1.2501-0.64171v1.3567a1.4677 1.4677 0 0 0 0.29532 0.23981 2.2893 2.2893 0 0 0 0.38858 0.20428 2.4913 2.4913 0 0 0 0.25979 0.09326 2.5557 2.5557 0 0 0 0.30642 0.07998 3.9346 3.9346 0 0 0 0.826 0.08216 6.1284 6.1284 0 0 0 1.672-0.25313 9.912 9.912 0 0 0 1.2501-0.44409 13.283 13.283 0 0 0 2.5002-1.4011c0.45741-0.32197 0.86375-0.65281 1.2501-0.98366 0.85487-0.73496 1.5987-1.4677 2.498-2.1116 0.09548-0.06882 0.19318-0.13545 0.2931-0.20206a9.892 9.892 0 0 1 0.95701-0.56844 10.729 10.729 0 0 1 2.5002-0.90594c0.38636-0.093254 0.80158-0.17319 1.2501-0.23981a22 22 0 0 1 2.498-0.22204c0.39746-0.015526 0.81268-0.024421 1.2501-0.024421v-1.3323c-0.44409 0-0.85043 0-1.2501 0.028869a21.361 21.361 0 0 0-2.498 0.25091z"/>
  </g>
  <polygon transform="matrix(.22204 0 0 .22204 -1.1355 -.98852)" points="49.35 70.41 87.04 70.41 92.6 70.41 68.19 53.91 43.79 70.41"/>
  <polygon transform="matrix(.22204 0 0 .22204 -1.1355 -.98852)" points="63.48 94.39 68.19 81.79 72.91 94.39 90.94 94.39 86.42 71.91 49.97 71.91 45.45 94.39"/>
 </g>
</svg>
