<svg version="1.1" viewBox="0 0 20 20" xmlns="http://www.w3.org/2000/svg">
 <path d="m9.9261 0.50814c-2.3491 0-4.4976 1.2956-6.0183 3.3795-1.4225 1.9494-2.3232 4.595-2.4338 7.6254-0.30513-4.3e-5 -0.62645 0-0.9259 0-0.3098 0.03246-0.57043 0.32342-0.56877 0.6349v1.6931c6.349e-4 0.26475 0.18501 0.5191 0.43649 0.60184l0.19841 0.06611v4.4113c3.386e-5 0.33244 0.30248 0.63486 0.6349 0.6349h1.6931c0.33242-4.3e-5 0.63487-0.30247 0.6349-0.6349v-4.4112l0.19841-0.06611c0.25148-0.08275 0.43595-0.33709 0.43649-0.60184v-1.6931c-3.38e-5 -0.33243-0.30248-0.63486-0.6349-0.6349h-0.83331c0.11163-2.7837 0.95278-5.1749 2.1957-6.8781 0.21947-0.30075 0.45313-0.57698 0.69442-0.83331-0.098314 0.36663-0.15211 0.75405-0.15211 1.1508 0 2.447 1.9973 4.4443 4.4443 4.4443 2.447 0 4.4443-1.9973 4.4443-4.4443 0-0.39671-0.0538-0.78412-0.15211-1.1508 0.24129 0.25633 0.47496 0.53256 0.69442 0.83331 1.2429 1.7033 2.0841 4.0944 2.1957 6.8781-0.29633-6.4e-5 -0.60879 0-0.89944 0-0.3098 0.03246-0.57043 0.32342-0.56877 0.6349v1.6931c6.34e-4 0.26475 0.18501 0.5191 0.43649 0.60184l0.19841 0.06611v4.4113c3.4e-5 0.33244 0.30248 0.63486 0.6349 0.6349h1.6931c0.33242-4.3e-5 0.63487-0.30247 0.6349-0.6349v-4.4112l0.19841-0.06611c0.25148-0.08275 0.43595-0.33709 0.4365-0.60184v-1.6931c-3.4e-5 -0.33243-0.30248-0.63486-0.6349-0.6349h-0.85976c-0.11058-3.0304-1.0113-5.6761-2.4338-7.6254-1.5207-2.0839-3.6692-3.3795-6.0183-3.3795zm0 1.2698c1.9047-0.00275 3.1745 1.2671 3.1745 3.1745 0 1.7608-1.4138 3.1679-3.1745 3.1679-1.7608 0-3.1745-1.4072-3.1745-3.1679 0-1.9074 1.4814-3.1772 3.1745-3.1745zm-8.677 11.005h1.6931v0.42327h-1.6931zm15.661 0h1.6931v0.42327h-1.6931zm-15.026 1.6931h0.42327v0.42327h-0.42327zm15.661 0h0.42327v0.42327h-0.42327zm-15.661 1.6931h0.42327v0.42327h-0.42327zm15.661 0h0.42327v0.42327h-0.42327zm-15.661 1.6931h0.42327v0.42327h-0.42327zm15.661 0h0.42327v0.42327h-0.42327z" color="#000000" fill="#cd87de" overflow="visible" style="text-indent:0;text-transform:none"/>
</svg>
