<svg version="1.1" viewBox="0 0 20 20" xmlns="http://www.w3.org/2000/svg">
 <g fill="#e9afaf">
  <path d="m19.955 6.3232v10.785c0 0.91669-0.74248 1.6592-1.6592 1.6592h-16.592c-0.91669 0-1.6592-0.74247-1.6592-1.6592v-10.785c0-0.91669 0.74248-1.6592 1.6592-1.6592h1.2444v1.2444h2.4887v-1.2444h9.1254v1.2444h2.4887v-1.2444h1.2444c0.91669 0 1.6592 0.74247 1.6592 1.6592zm-6.2219 7.0514v-3.3183h-2.074v-2.074h-3.3183v2.074h-2.074v3.3183h2.074v2.074h3.3183v-2.074z" stroke-width=".41479"/>
  <path d="m16.637 3.8345h-1.6592c0-0.46042-0.37331-0.82958-0.82958-0.82958h-8.2958c-0.45627 0-0.82958 0.36917-0.82958 0.82958h-1.6592c0-1.373 1.1158-2.4887 2.4887-2.4887h8.2958c1.373 0 2.4887 1.1158 2.4887 2.4887z" stroke-width=".41479"/>
  <polygon transform="matrix(.41479 0 0 .41479 -3.2734 -3.217)" points="30 38 25 38 25 34 30 34 30 29 34 29 34 34 39 34 39 38 34 38 34 43 30 43"/>
 </g>
</svg>
