<svg version="1.1" viewBox="0 0 20 20" xmlns="http://www.w3.org/2000/svg">
 <path d="m19.929 15.997c0 4.7614-5.6593 4.1975-7.685 3.0489-2.4851 0.5012-9.5645 0.18795-11.757-3.0489-0.45943-0.66826-0.52208-1.5036-0.20883-2.2554 0.73091-1.6915 2.4225-5.3043 4.4064-7.2465 2.6731-2.6104 4.2602-4.6987 4.6152-5.1999 0.35501-0.5012 0.83533-1.1068 2.0048-0.91886 1.1695 0.18795 3.1116 0.85621 2.8401 1.4201-0.2506 0.58473-1.0859 1.2321-0.91886 1.3365 0.29236 0.16707 0.7518 0.083533 0.7518 0.56385 0 0.5012-0.56385 0.87709-1.6498 0.87709-0.89798 0-1.7333 0.33413-3.0489 0.43855-1.0024 0.083533-1.963 2.5686-2.4642 4.4272-0.33413 1.253-0.64738 2.5686-0.83533 3.2995-0.041766 0.20883 0.18795 0.3759 0.35501 0.2506 0.71003-0.48031 2.151-1.2739 3.5293-1.1486 1.3574 0.10442 1.9004 0.5012 2.2345 0.77268 0.33413 0.27148 0.66826 0.71003 0.87709 1.1903 0.04177 0.10442 0.14618 0.16707 0.27148 0.16707 0.04177 0 0.06265-0.02088 0.10442-0.02088 0.14618-0.06265 0.20883-0.22972 0.14618-0.35501-0.16706-0.3759-0.3759-0.68915-0.60561-0.93974 2.5686-1.7333 7.0376-1.1695 7.0376 3.3413z" fill="#f60" stroke-width=".20883"/>
</svg>
