<svg version="1.1" viewBox="0 0 20 20" xmlns="http://www.w3.org/2000/svg">
 <path d="m17.989 4.4928h-0.71316v1.2967h0.71748c0.36306 0 0.66129 0.29823 0.66129 0.66129v8.0349c0 0.4106-0.23772 0.66129-0.36306 0.66129h-2.9607v2.3772l-2.3772-2.3772h-6.1116l-1.2102 1.2102c0.17721 0.05186 0.35874 0.08645 0.54892 0.08645h6.2369l2.8267 2.8267c0.29823 0.29823 0.57485 0.44086 0.7996 0.44086 0.35442 0 0.58782-0.35442 0.58782-1.0157v-2.2519h1.6597c0.9163 0 1.6597-0.8774 1.6597-1.9579v-8.0349c0-1.0805-0.8774-1.9579-1.9623-1.9579zm-4.1406 7.8102c1.0805 0 1.9579-0.8774 1.9579-1.9579v-8.0349c0-1.0849-0.8774-1.9579-1.9579-1.9579h-11.808c-1.0805 0-1.9579 0.8774-1.9579 1.9579v8.0349c0 1.0849 0.74341 1.9579 1.6597 1.9579h1.6597v2.2519c0 1.0805 0.61807 1.3399 1.3874 0.57485l2.8267-2.8267zm-2.9261-6.5784c0.51002 0 0.92062 0.41061 0.92062 0.92062 0 0.50569-0.41061 0.92062-0.92062 0.92062-0.5057 0-0.92063-0.41061-0.92063-0.92062 0-0.50569 0.41061-0.92062 0.92063-0.92062zm-5.956 1.8412c-0.51002 0-0.92062-0.41061-0.92062-0.92062 0-0.51002 0.41493-0.92062 0.92062-0.92062 0.50569 0 0.92062 0.41061 0.92062 0.92062 0 0.51002-0.41493 0.92062-0.92062 0.92062zm2.0574-0.9163c0-0.51002 0.41493-0.92062 0.92062-0.92062 0.51002 0 0.92062 0.41061 0.92062 0.92062 0 0.50569-0.41493 0.92062-0.92062 0.92062-0.51002-0.00433-0.92062-0.41493-0.92062-0.92062z" fill="#5f8dd3" stroke-width=".43222"/>
</svg>
