<svg version="1.1" viewBox="0 0 20 20" xmlns="http://www.w3.org/2000/svg">
 <path d="m12.751-0.0020114v1.6879h1.6309l-1.7601 1.9807c-0.73434-0.5088-1.6242-0.80905-2.5833-0.80905-1.6516 0-3.0961 0.88749-3.8937 2.2084 0.35914-0.078204 0.73201-0.12057 1.1149-0.12057 0.38893 0 0.76739 0.044223 1.1319 0.12545 0.46644-0.32958 1.0339-0.52486 1.6467-0.52486 1.5783 0 2.8624 1.2834 2.8624 2.8622 0 1.5781-1.2843 2.8626-2.8624 2.8626-1.3646 0-2.5077-0.96104-2.7926-2.2421-0.6168 0.00374-1.1719 0.26767-1.5641 0.68686 0.56303 1.8734 2.3024 3.2432 4.3567 3.2432 2.5093 0 4.5503-2.0413 4.5503-4.5506 0-0.94079-0.28722-1.8162-0.7781-2.5424l1.8304-2.0524v1.7626h1.6882v-4.578z" fill="#ff0" stroke-width=".23275"/>
 <path d="m10.476 13.411c0.26604-0.2665 0.49018-0.56233 0.67987-0.87608-0.36007 0.07821-0.73341 0.12103-1.1172 0.12103-0.38893 0-0.76786-0.04399-1.1333-0.12406-0.47854 0.33912-1.0481 0.5237-1.6467 0.5237-0.7646 0-1.4833-0.29769-2.024-0.83838-1.1156-1.1161-1.1156-2.9325 0-4.0483 0.54069-0.54069 1.2594-0.83838 2.024-0.83838 0.76413 0 1.4833 0.29746 2.024 0.83838 0.39103 0.39149 0.65311 0.87655 0.76855 1.4035 0.61843-0.00374 1.1742-0.2686 1.5664-0.68825-0.21274-0.71362-0.60027-1.3679-1.1417-1.9093-0.85933-0.85886-2.0019-1.3327-3.2174-1.3327-1.2154 0-2.3585 0.47366-3.2174 1.3327-1.7743 1.7745-1.7743 4.6611-3.312e-4 6.4359 0.67708 0.67732 1.5318 1.1102 2.4579 1.2648v1.3474h-2.3238v1.6879h2.3238v2.3243h1.6882v-2.3243h2.3238v-1.6879h-2.3238v-1.3746c0.86096-0.17852 1.6533-0.60144 2.2891-1.2373z" fill="#ff0" stroke-width=".23275"/>
</svg>
