<svg version="1.1" viewBox="0 0 20 20" xmlns="http://www.w3.org/2000/svg">
 <path d="m13.789 10.118c-2.9958 0-5.7273-1.0573-6.1678-2.4892v1.8724c0-0.022028-0.11014-0.022028-0.19825-0.022028l-1.1234-0.022028c-0.79301-0.022028-1.4759 0.63881-1.4979 1.4318v0.08811l-1.1014 0.26434c-0.044056-0.066082-0.066084-0.13217-0.13217-0.19825-0.50664-0.61678-1.4538-0.74895-2.0706-0.24231l-0.85909 0.72692c-0.61678 0.50664-0.7049 1.4538-0.19825 2.0706 0.50664 0.61678 1.4538 0.74895 2.0706 0.24231l0.88112-0.7049c0.37448-0.30839 0.5507-0.79301 0.50664-1.2556l1.0573-0.24231c0.24231 0.46259 0.7049 0.79301 1.2336 0.79301l1.1014 0.02203c0.11014 0 0.28636 0 0.28636-0.02203v0.50664c0.044056 1.7402 2.8636 3.128 6.2119 3.128s6.1678-1.3878 6.1678-3.1059v-5.3969c-0.44056 1.4538-3.15 2.5552-6.1678 2.5552zm-10.728 2.5993-0.88112 0.7049c-0.37448 0.30839-0.96923 0.22028-1.2776-0.1542-0.30839-0.37448-0.28636-0.96923 0.088112-1.2997l0.88112-0.7049c0.37448-0.30839 0.9472-0.24231 1.2556 0.13217-0.46259 0.1542-0.50664 0.28636-0.48462 0.44056 0.044056 0.1542 0.13217 0.28636 0.7049 0.17622 0.022028 0.26434-0.066084 0.52867-0.28636 0.7049zm4.2955-0.81504-1.1234-0.022028c-0.28636 0-0.50664-0.1542-0.68287-0.37448 0.59476-0.17622 0.63881-0.33042 0.59476-0.48462-0.044056-0.1542-0.1542-0.28636-0.77098-0.1542 0.044056-0.46259 0.44056-0.85909 0.90315-0.85909l1.1014 0.04406c0.088112 0 0.19825 0.02203 0.19825 0.04406v1.7622c0.044056 0.04406-0.11014 0.06608-0.22028 0.04406z" fill="#b3b3b3" stroke-width=".22028"/>
 <path d="m10.088 8.9721c1.0133-0.3965 2.2909-0.63881 3.6787-0.63881s2.6434 0.24231 3.6787 0.63881c1.4538-0.57273 2.379-1.4538 2.379-2.4671 0-1.7182-2.7094-3.1059-6.0577-3.1059s-6.0577 1.3878-6.0577 3.1059c0 1.0133 0.9472 1.8944 2.379 2.4671z" fill="#b3b3b3" stroke-width=".22028"/>
</svg>
