<svg version="1.1" viewBox="0 0 25 25" xmlns="http://www.w3.org/2000/svg">
 <style/>
 <path d="m16.204 0.17857c7.315 0 9.1049 8.7158 7.315 14.319-1.1154 3.5278-2.0752 6.6406-2.9571 10.324h-6.3034c0-0.6485 0-0.31128-0.02594-0.95977 0-0.05188-0.28534-1.3489-0.36316-1.7639-0.62256-3.5797-1.9455-6.8741 0.20752-10.973 2.2568 1.738 6.0959 1.6342 8.0154-0.54474 0.18158-0.20752-0.18158-0.46692-0.33722-0.2594-1.9974 2.2049-6.3034 2.2049-8.0673-0.28534-0.80414 0.6485-1.6861 0.62256-2.3346-0.077819-1.6602 2.594-6.0959 2.5162-8.0414 0.33722-0.15564-0.20752-0.5188 0.02594-0.33722 0.2594 0.41504 0.46692 0.49286 0.62256 1.1673 1.0117 2.0233 1.1414 4.9026 0.98571 6.7444-0.3891 2.5421 4.0726 0.83008 7.341 0.20752 10.921-0.07782 0.3891-0.33722 1.6861-0.36316 1.7639-0.02594 0.31128 0 0.6485-0.02594 0.95977h0.46692-6.7444c-0.93383-3.5278-1.9195-6.9-2.9831-10.324-1.738-5.6289 0.1297-14.319 7.341-14.319 1.4267 0 2.8534 0.59662 3.7094 1.738 0.85602-1.1414 2.2827-1.738 3.7094-1.738z" fill="#fff" stroke-width=".2594"/>
</svg>
