<svg version="1.1" viewBox="0 0 25 25" xmlns="http://www.w3.org/2000/svg">
 <style/>
 <g transform="matrix(.50683 0 0 .50683 .33615 .33668)" fill="#fff" data-name="Pray open hand">
  <path d="m20.83 11.63-1.53 8.66a1.0143 1.0143 0 0 1-2-0.34l2.4-13.44a2.16 2.16 0 0 0-2.35-0.41c-0.42 2.37-0.09 0.49-1.84 10.44a1.0143 1.0143 0 0 1-2-0.34c1.83-10.41 1.34-7.6 2.23-12.61a2.15 2.15 0 0 0-2.37-0.4l-1.75 10a1.0143 1.0143 0 0 1-2-0.34l1.18-6.79a2.19 2.19 0 0 0-3.57 1.22l-1.23 7.08c2-0.8 5 2.55 3.67 5.94l-0.67 1.59a12.39 12.39 0 0 1 7.51 6.33 1 1 0 0 1-1.78 0.9 10.44 10.44 0 0 0-7.27-5.56 1 1 0 0 1-0.74-1.35c1-2.65 1.25-3 1.25-3.67 0-1.33-1-2.79-2.33-2.41-0.6 0.18-0.5 0.2-3.47 3.17a8.37 8.37 0 0 0-2.17 5.47c0 3.29 5.48 6.57 5.48 9.86 0 1.78-1.61 6.45-3.09 10.37h15.29c1.19-10.26 5.32-10 5.32-16.57v-14.61a2.2 2.2 0 0 0-2.17-2.19z"/>
  <path d="m48 24.77c0-3.86-2.46-5.74-5-8.23a1.55 1.55 0 0 0-0.71-0.41c-1.58-0.47-2.79 1.72-2.13 3.44 1.11 2.79 1.29 2.95 1 3.49-0.49 0.91-2 0.24-5 2.43-3.11 2.39-2.6 4.18-3.89 4.18a1 1 0 0 1-0.89-1.45 12.39 12.39 0 0 1 7.62-6.33 8.4 8.4 0 0 1-1-3.35c0-2.3 2-5 4-4.18l-1.23-7.08a2.19 2.19 0 0 0-3.64-1.22l1.18 6.79a1.0143 1.0143 0 1 1-2 0.34l-1.75-10a2.16 2.16 0 0 0-2.37 0.4c0.89 5 0.38 2.12 2.23 12.61a1.0143 1.0143 0 0 1-2 0.34c-1.71-10.14-1.35-8.07-1.77-10.44a2.16 2.16 0 0 0-2.35 0.41l2.37 13.49a1.0143 1.0143 0 0 1-2 0.34l-1.53-8.66a2.2 2.2 0 0 0-2.14 2.14c0 15-0.57 17.38 1.86 20.91a23.07 23.07 0 0 1 3.46 10.27h15.29c-1.48-3.92-3.09-8.59-3.09-10.37 0-3.29 5.48-6.57 5.48-9.86z"/>
 </g>
</svg>
