<svg version="1.1" viewBox="0 0 25 25" xmlns="http://www.w3.org/2000/svg">
 <style/>
 <g transform="matrix(.23557 0 0 .23557 .72172 .72172)" fill="#fff">
  <path d="m71.3 83c-9.1 0-17-4.9-21.3-12.1-4.3 7.2-12.3 12.1-21.3 12.1-4.6 0-8.9-1.3-12.6-3.5 0.8 5.3 2.4 15.9 2 20.5h63.9c-0.4-4.6 1.2-15.2 2-20.5-3.7 2.2-8.1 3.5-12.7 3.5z"/>
  <path d="m89.3 14.1c-5.8-1-14.2-0.6-17.9-1.3-6-1.1-5.1-12.8-5.1-12.8h-32.6s1 11.7-5.1 12.8c-3.7 0.7-12.1 0.3-17.9 1.3-6.9 1.2-10.7 7.5-10.7 7.5v35.5c13.2-13.1 17.4-12.8 16.1-11.4-3.4 3.4-5.2 7.8-5.2 12.6 0 9.8 8 17.8 17.8 17.8s17.8-8 17.8-17.8c0-1.9 1.6-3.5 3.5-3.5s3.5 1.6 3.5 3.5c0 9.8 8 17.8 17.8 17.8s17.8-8 17.8-17.8c0-4.8-1.9-9.2-5.2-12.6-1.4-1.4 5.6-0.2 16.1 10.1v-34.1c0-0.1-3.8-6.4-10.7-7.6zm-60.8 48.7c-1.9 0-3.5-1.6-3.5-3.5s1.6-3.5 3.5-3.5 3.5 1.6 3.5 3.5c0 2-1.5 3.5-3.5 3.5zm43 0c-1.9 0-3.5-1.6-3.5-3.5s1.6-3.5 3.5-3.5 3.5 1.6 3.5 3.5c0 2-1.6 3.5-3.5 3.5z"/>
 </g>
</svg>
