<svg version="1.1" viewBox="0 0 20 20" xmlns="http://www.w3.org/2000/svg">
 <g transform="translate(0 -291.71)" fill="#ac9393">
  <circle transform="rotate(-1.2301)" cx="5.4137" cy="294.48" r="2.4143" stroke-width=".20994"/>
  <g stroke-width=".20993">
   <path d="m16.982 309.05h-3.065c0.14695-0.65078 0.39887-1.4905 0.54582-2.0363 0.39887-1.4485 0.62979-2.2253 0.6088-2.7291-0.02099-0.44086-0.06298-1.0287-0.12596-1.6585-0.39887-5.0593-0.96568-5.3532-1.8894-5.3532-1.2176 0-2.0153 0.10497-2.5192 0.6088-0.20993 0.20993-0.41986 0.71377-0.37788 1.1756 0.06298 0.46185 0.23092 1.7424 0.23092 1.7424-0.75575 0.20993-1.5955 0.44085-2.3932 0.62979-0.58781 0.14695-0.94469 0.73476-0.79774 1.3226 0.14695 0.58781 0.73476 0.94469 1.3226 0.79774 0.83972-0.20993 1.5535-0.37788 2.1623-0.54582l0.14695 1.0706c-1.0706 0.084-2.3932 0.18893-2.7711 0.25191-0.69277 0.10497-1.3645 0.18894-3.3799 5.7311-0.25192 0.67178 0.10497 1.4275 0.77674 1.6794 0.14695 0.063 0.2939 0.084 0.44085 0.084 0.52483 0 1.0287-0.33589 1.2386-0.86072 0.56681-1.5325 1.3226-3.3589 1.7424-4.0936 0.69277-0.063 1.9733-0.16794 3.002-0.25191-0.75575 2.7291-0.94469 3.7158-0.37788 4.4715 0.27291 0.35688 0.69277 0.56681 1.1546 0.56681h4.3666c0.71376 0 1.3016-0.5878 1.3016-1.3016 0-0.71376-0.6088-1.3016-1.3436-1.3016z"/>
   <path d="m4.5124 302-0.73476 0.52483c-0.12596 0.084-0.10497 0.27291 0.041986 0.33589l2.4142 1.1126c0.18894 0.084 0.37788-0.16794 0.20993-0.3149l-1.0706-0.94468 0.79774-0.56682c0.10497-0.084 0.10497-0.23092 0-0.31489l-1.9733-1.5955c-0.062979-0.063-0.16794-0.063-0.23092 0l-0.81873 0.5878c-0.10497 0.084-0.10497 0.25192 0 0.3149z"/>
   <path d="m5.772 304.75-1.4275 0.084 0.16794-0.96568c0.020993-0.12596-0.083972-0.23093-0.20993-0.23093l-2.5192 0.25192c-0.083972 0-0.14695 0.084-0.16794 0.16794l-0.16794 1.0077c-0.020993 0.12596 0.10497 0.25192 0.23092 0.20993l1.5745-0.35688-0.16794 0.92369c-0.020993 0.14695 0.12596 0.25192 0.25192 0.20993l2.4982-0.92371c0.20993-0.084 0.14695-0.37788-0.062979-0.37788z"/>
  </g>
 </g>
</svg>
