<svg version="1.1" viewBox="0 0 20 20" xmlns="http://www.w3.org/2000/svg">
 <g transform="matrix(.066497 0 0 .066497 2.342 -1.9237)">
  <g transform="matrix(2.7794 0 0 2.7794 -145.18 -60.248)" fill="#f00" stroke-width=".85196">
   <path d="m122.44 210.81-5.7294-70.244v-17.633c-0.0119 0-0.0222 2e-3 -0.0341 2e-3h-0.0766c-2.5346-0.0298-4.351-0.71054-5.859-1.347-1.4858-0.65686-2.7356-1.3648-3.8372-1.991l-0.4456-0.25474c-2.0754-1.1834-4.2172-2.4093-6.5661-3.3312-1.0045-0.39616-1.8862-0.96613-2.6419-1.6511-0.37742-0.0179-0.75655-0.0443-1.1323-0.0443-6.4417 0.0298-10.684 2.4375-15.176 4.9865-0.74802 0.42428-1.4943 0.846-2.2449 1.2567l-0.6475 0.32458c-1.7176 0.86815-3.8585 1.9467-7.2783 2.0481h-0.12442c-0.0068 0-0.01444-8.6e-4 -0.02045-8.6e-4v17.636l-7.2672 89.108c-0.47284 5.8002 3.8458 10.881 9.6425 11.354 5.7976 0.47283 10.882-3.8424 11.355-9.6417l6.3292-77.599h5.9654l4.9584 60.8c4.0127-2.9376 8.955-4.6773 14.297-4.6773 2.2637 0 4.4532 0.31862 6.5337 0.90051z"/>
   <circle cx="93.667" cy="58.32" r="19.169"/>
   <path d="m66.429 120.05c1.3725 0.6986 2.9069 1.0036 4.2164 1.0036 0.02296 0 0.04691 0 0.07074-2e-3 3.3636-0.0979 5.2575-1.2481 7.0824-2.1453 5.2762-2.872 10.241-6.4349 18.319-6.4715 1.2779 0 2.636 0.0946 4.0996 0.31267 3.7222 0.56059 7.1931-2.0038 7.7528-5.726 0.55889-3.7256-2.0047-7.1931-5.7277-7.7529-2.1282-0.32034-4.1712-0.46687-6.1248-0.46687-8.2947-0.01618-14.82 2.6845-19.37 5.093-2.1648 1.1416-3.9352 2.2151-5.168 2.8788-0.0315-0.0563-0.06309-0.11672-0.09458-0.17808-0.20617-0.40978-0.38678-0.93373-0.51458-1.5207l1.7201-1.0777c0.9116-0.52055 1.997-1.1365 3.1846-1.761 6.7509-3.5723 13.352-5.3077 20.174-5.3077 2.1699 0 4.3263 0.16273 6.4758 0.48647 2.2364 0.33738 4.1397 1.5088 5.4602 3.1463 2.1836 0.96272 4.0971 1.9885 5.8487 2.975 0.28115 0.16017 0.55036 0.31522 0.81192 0.46432l1.7192 1.076c-0.12779 0.58615-0.30926 1.1093-0.51713 1.519-0.0315 0.0613-0.0613 0.12013-0.0928 0.17636-0.74887-0.40723-1.7269-0.96527-2.8404-1.6025-1.0096-0.56995-2.1538-1.1979-3.4223-1.8326 0.40383 1.2413 0.5427 2.5874 0.33567 3.9616-0.62023 4.1116-4.1422 7.2289-8.2657 7.3857 2.2338 0.97124 4.2658 2.1342 6.2653 3.2766 1.1544 0.65346 2.3028 1.3026 3.6438 1.8939 1.341 0.56741 2.9256 1.1732 5.1501 1.1996h0.0546c1.318 0 2.8558-0.30585 4.2283-1.0036 3.361-1.6971 5.7175-4.4737 7.1667-7.4198 1.4577-2.9733 2.118-6.1912 2.1248-9.444-0.0137-4.788-1.4509-9.8086-4.9158-13.943-3.2128-3.8994-8.4327-6.595-14.402-6.8549-0.24707-0.02726-0.49754-0.04601-0.75314-0.04601h-32.916c-0.25388 0-0.50351 0.01789-0.75057 0.04601-5.9689 0.26155-11.19 2.9572-14.401 6.8549-3.4658 4.1354-4.9056 9.1569-4.9184 13.943 0.0068 3.1863 0.64664 6.3446 2.0447 9.2668 0.02811 0.058 0.05197 0.11843 0.08008 0.17636 1.4466 2.9503 3.8083 5.7278 7.1642 7.4197z"/>
  </g>
 </g>
</svg>
