<svg version="1.1" viewBox="0 0 20 20" xmlns="http://www.w3.org/2000/svg">
 <g transform="translate(0 -291.71)">
  <g transform="matrix(.34344 0 0 .34344 -.96696 290.75)" fill="#0ff">
   <path d="m50.647 6.129 0.667 0.111c2.517 0.42 4.7 2.032 5.841 4.314 0.27 0.54 0.476 1.113 0.618 1.701l-7.99 1.776 0.434 1.953 7.783-1.73v1.906l-10.032 1.672c7e-3 -0.211 0.032-0.42 0.032-0.632v-0.828c0-2.112 0.376-4.186 1.118-6.163zm-9.251-1.962 0.348-1.16h2.923c0.645 0 1.284 0.213 1.8 0.6l2.334 1.751-1.556 4.148c-0.826 2.202-1.245 4.513-1.245 6.866v0.828c0 1.285-0.149 2.549-0.423 3.787-3.222-0.21-5.89-2.783-6.161-6.038l-0.406-4.875c0.972-1.888 1.774-3.866 2.386-5.907zm-6.396 8.675v-5.835h3.239c-0.875 2.051-1.967 4.005-3.239 5.835zm-3 3.729c-0.344-0.367-0.673-0.747-1-1.129v-8.435h2v8.434c-0.327 0.383-0.656 0.763-1 1.13zm-3-9.564v5.835c-1.272-1.831-2.364-3.784-3.239-5.835zm-23 10.08v-1.963l7.89 0.877 0.221-1.988-8.041-0.893c0.115-0.89 0.374-1.763 0.775-2.566 1.141-2.282 3.324-3.895 5.841-4.314l0.667-0.111 1.529 4.081c0.742 1.976 1.118 4.049 1.118 6.162v0.828c0 0.243 0.028 0.482 0.036 0.724zm10.755-7.58-1.556-4.149 2.335-1.751c0.515-0.387 1.154-0.6 1.799-0.6h2.923l0.348 1.16c0.612 2.04 1.414 4.018 2.388 5.907l-0.406 4.875c-0.271 3.255-2.94 5.828-6.161 6.038-0.276-1.239-0.425-2.503-0.425-3.787v-0.828c0-2.353-0.419-4.664-1.245-6.865zm2.245 31.5h7v2h-7zm25.352 10.45-1.666 0.5c-4.45 1.336-7.923 4.689-9.419 9.05h-2.533c-1.496-4.36-4.969-7.714-9.419-9.05l-1.666-0.5c-0.382-0.114-0.649-0.472-0.649-0.872 0-0.18 0.053-0.354 0.168-0.527 1.012-1.519 1.616-3.248 1.781-5.051h5.329c0.347 0.595 0.985 1 1.722 1h8c0.737 0 1.375-0.405 1.722-1h5.329c0.165 1.803 0.771 3.536 1.796 5.074 0.1 0.15 0.153 0.325 0.153 0.504 0 0.4-0.267 0.758-0.648 0.872zm-16.352-7.45v-4h8l2e-3 4zm10-3h7v2h-7zm6.581-16.893c-1.049 2.448-1.581 5.04-1.581 7.701v7.192h-5.278c-0.347-0.595-0.985-1-1.722-1h-8c-0.737 0-1.375 0.405-1.722 1h-5.278v-7.192c0-2.661-0.532-5.253-1.581-7.701-0.165-0.385-0.297-0.778-0.433-1.17 4-0.468 7.251-3.735 7.591-7.829l0.17-2.043c1.316 2.028 2.831 3.929 4.545 5.643l0.708 0.706 0.707-0.707c1.714-1.714 3.229-3.615 4.545-5.643l0.17 2.043c0.341 4.094 3.591 7.361 7.591 7.829-0.135 0.393-0.267 0.786-0.432 1.171z"/>
   <path d="m33 24.007v-1h-2v1c0 1.654-1.346 3-3 3h-3v2h3c1.641 0 3.088-0.806 4-2.031 0.912 1.225 2.359 2.031 4 2.031h3v-2h-3c-1.654 0-3-1.345-3-3z"/>
   <path d="m33 31.007v-1h-2v1c0 1.654-1.346 3-3 3h-3v2h3c1.641 0 3.088-0.806 4-2.031 0.912 1.225 2.359 2.031 4 2.031h3v-2h-3c-1.654 0-3-1.345-3-3z"/>
  </g>
 </g>
</svg>
