<svg version="1.1" viewBox="0 0 25 25" xmlns="http://www.w3.org/2000/svg">
 <style/>
 <path d="m21.156 22.423c-1.7416 0.48636-7.1989 0.07152-7.814 0.02146-1.2409-0.05722-2.7572 0.28967-4.2235 0.62583a19.007 19.007 0 0 1-4.0125 0.62584c-1.1944 0-2.2602-0.2861-3.0576-1.1444-2.0134-2.1851-0.49709-5.046 0.61153-7.1488a16.451 16.451 0 0 0 0.76173-1.5556c0.55789-1.409-0.64729-7.1774-1.5413-10.485a0.71524 0.71524 0 0 1 0.50424-0.87617l6.7948-1.173a0.71524 0.71524 0 0 1 0.82253 0.58292c0.05007 0.29682 1.2374 7.3205 1.3017 9.5413 0.13232 4.2914 6.5158 5.4144 9.9454 6.0152 1.8453 0.32186 2.4676 0.43272 2.5999 1.105 0.5865 2.9468-1.8811 3.637-2.6929 3.8659z" fill="#fff" stroke-width=".35762"/>
</svg>
