<svg version="1.1" viewBox="0 0 25 25" xmlns="http://www.w3.org/2000/svg">
 <style/>
 <g transform="matrix(.27662 0 0 .27662 -1.8471 -.95536)" fill="#fff">
  <path d="m82.07 35.66c-4.09-2.3-8.11-4.74-12.3-6.84-6.65-3.33-11.85-2.1-16.47 3.7-0.75 0.95-1 0.63-1.49-0.1-1.17-1.74-2.73-3.05-4.58-4.02-4.63-2.44-8.97-1.31-13.2 1.06-4.73 2.65-9.39 5.42-14.2 7.92-3.23 1.68-6.34 3.96-10.81 3.56 7.36 11.83 16.38 20.13 29.06 25.79 5.99 2.67 12.2 4.38 18.9 3.15 9.46-1.74 17.47-6.3 24.6-12.55 6.99-5.88 13.13-16.11 13.13-16.11-4.7-0.02-8.69-3.34-12.64-5.56zm-28.76 18.01c-12.52 0.01-32.13-8.78-31.74-8.67 6.88 1.74 15.59 1.36 22.25-1.23 7.45-2.9 11.06-2.65 18.59-0.25 6.17 1.96 14.39 2.7 20.79 1.5 0.42-0.17-17.44 8.65-29.89 8.65z" fill="#fff"/>
 </g>
</svg>
