<svg version="1.1" viewBox="0 0 20 20" xmlns="http://www.w3.org/2000/svg">
 <g transform="translate(0 -291.71)">
  <path d="m19.453 293.49h-8.2906c-0.12407-0.34797-0.39783-0.62173-0.7458-0.7458v-0.48644c0-0.22683-0.18391-0.41074-0.41074-0.41074-0.22683 0-0.41074 0.18391-0.41074 0.41074v0.48644c-0.34797 0.12407-0.62173 0.39783-0.7458 0.7458h-8.2906c-0.22683 0-0.41074 0.18391-0.41074 0.41074 0 0.22684 0.18391 0.41075 0.41074 0.41075h3.5134l-2.2565 6.0174c-0.01231 0.0411-0.020533 0.0863-0.020533 0.13145 0 4e-3 -0.00411 8e-3 -0.00411 0.0123 0 1.5855 1.2897 2.8752 2.8752 2.8752 1.5855 0 2.8752-1.2898 2.8752-2.8752 0-4e-3 -0.00411-8e-3 -0.00411-0.0123 0-0.0452-0.00822-0.0904-0.020533-0.13145l-2.2565-6.0174h3.5891c0.12407 0.34797 0.39781 0.6217 0.74578 0.74577v9.9336h-0.41075c-0.2259 0-0.41074 0.18484-0.41074 0.41074v3.6967h-3.6967c-0.2259 0-0.41074 0.18484-0.41074 0.41075v1.643c0 0.22591 0.18484 0.41075 0.41074 0.41075h9.8579c0.2259 0 0.41074-0.18484 0.41074-0.41075v-1.643c0-0.22591-0.18484-0.41075-0.41074-0.41075h-3.6967v-3.6967c0-0.2259-0.18484-0.41074-0.41074-0.41074h-0.41074v-9.9336c0.34797-0.12407 0.62173-0.39783 0.7458-0.7458h3.5891l-2.2565 6.0174c-0.01231 0.0411-0.02053 0.0863-0.02053 0.13145 0 4e-3 -0.0041 8e-3 -0.0041 0.0123 0 1.5855 1.2897 2.8752 2.8752 2.8752s2.8752-1.2898 2.8752-2.8752c0-4e-3 -0.0041-8e-3 -0.0041-0.0123 0-0.0452-0.0082-0.0904-0.02053-0.13145l-2.2565-6.0174h3.5134c0.22683 0 0.41074-0.18391 0.41074-0.41075 0-0.22683-0.18391-0.41074-0.41074-0.41074zm-16.66 6.5719 1.873-4.9906 1.873 4.9906zm10.679 0 1.873-4.9906 1.873 4.9906zm-3.4667-5.7504c-0.22643 0-0.41074-0.18432-0.41074-0.41075s0.18431-0.41074 0.41074-0.41074c0.22643 0 0.41074 0.18431 0.41074 0.41074s-0.18431 0.41075-0.41074 0.41075z" fill="#0f0" stroke-width=".41074"/>
 </g>
</svg>
