<svg version="1.1" viewBox="0 0 20 20" xmlns="http://www.w3.org/2000/svg">
 <g transform="translate(0 -291.71)" fill="#de8787">
  <path d="m6.7673 304.12c0.53229-2e-3 0.96517-0.4337 0.96765-0.96786-0.00269-0.53332-0.43515-0.96599-0.96765-0.96765-0.53519 2e-3 -0.96745 0.43433-0.96682 0.96765-0.00104 0.53416 0.43143 0.96621 0.96682 0.96786z" stroke-width=".20712"/>
  <path d="m5.0311 305.88c0.53229-2e-3 0.96496-0.43371 0.96765-0.96765-0.00269-0.53395-0.43515-0.96621-0.96765-0.96766-0.53519 1e-3 -0.96765 0.43371-0.96682 0.96766-8.285e-4 0.53415 0.43143 0.96558 0.96682 0.96765z" stroke-width=".20712"/>
  <polygon transform="matrix(.20712 0 0 .20712 -.51865 291.25)" points="19.117 49.035 12.085 49.035 12.067 99.582 19.117 99.582 19.117 90.898 82.341 90.898 82.341 99.582 89.43 99.582 89.43 84.251 19.117 84.251"/>
  <g stroke-width=".20712">
   <path d="m18.008 306.88c0-0.69467-0.58738-1.042-1.0159-1.1634l-6.757-1.8421-1.7634 2.5467h-0.6228l1.3144-1.9475c0.198-0.29328 0.12075-0.69198-0.17274-0.88999-0.29328-0.198-0.69177-0.12075-0.88978 0.17274l-1.7988 2.6648h-2.4229v1.9092h14.129z"/>
   <path d="m9.8204 302.61c-0.020712 0-0.041838-2e-3 -0.063171-7e-3 -0.163-0.0346-0.26697-0.1951-0.23239-0.3581 0.11081-0.52008 0.16714-1.0578 0.16714-1.5975-2.071e-4 -3.0749-1.8129-5.7481-4.4085-6.5012-0.1601-0.0464-0.25227-0.21374-0.20587-0.37385 0.046394-0.1601 0.21395-0.25268 0.37385-0.20587 2.852 0.82723 4.8439 3.7389 4.8441 7.0807 0 0.58221-0.06048 1.1619-0.18019 1.7234-0.03003 0.14166-0.15554 0.23901-0.29494 0.23901z"/>
   <path d="m11.515 302.34c-0.04867 0-0.09859-0.0118-0.14457-0.0371-0.14602-0.0804-0.19987-0.26324-0.11992-0.40968 0.2328-0.42479 0.51572-0.82681 0.8411-1.1951 1.008-1.1406 2.3684-1.8881 3.8294-2.1047 0.16507-0.024 0.31834 0.0895 0.34299 0.25434 0.02402 0.16466-0.08968 0.31834-0.25455 0.34257-1.3206 0.19573-2.5517 0.87321-3.4659 1.9076-0.29576 0.3345-0.55259 0.69944-0.76385 1.0851-0.05489 0.10004-0.15803 0.157-0.2647 0.157z"/>
   <path d="m11.619 300.04c-0.03604 0-0.07291-7e-3 -0.10812-0.0203-0.15575-0.0598-0.23321-0.23445-0.17336-0.39 0.1512-0.39352 0.25952-0.80983 0.32082-1.2371 0.22037-1.5269-0.17895-3.0854-1.0954-4.2759-0.10169-0.13214-0.07705-0.32165 0.05509-0.42335 0.13193-0.1019 0.32145-0.0768 0.42293 0.0551 1.0153 1.3191 1.4581 3.0432 1.2152 4.7301-0.06794 0.47182-0.18765 0.93203-0.35521 1.3678-0.04619 0.12013-0.16052 0.19365-0.28189 0.19365z"/>
  </g>
  <g transform="matrix(.20712 0 0 .20712 -.51865 291.25)">
   <path d="m26.611 24.106c-0.805 0-1.457-0.653-1.457-1.458v-6.133c0-0.805 0.652-1.457 1.457-1.457s1.457 0.652 1.457 1.457v6.133c-1e-3 0.806-0.652 1.458-1.457 1.458z"/>
   <path d="m17.693 17.118c-0.579 0-1.125-0.346-1.354-0.916-0.299-0.747 0.064-1.595 0.811-1.894l5.936-2.375c0.749-0.297 1.595 0.065 1.894 0.812 0.299 0.748-0.065 1.596-0.812 1.894l-5.935 2.375c-0.177 0.07-0.36 0.104-0.54 0.104z"/>
   <path d="m24.633 11.001c-0.414 0-0.824-0.175-1.113-0.517l-4.352-5.144c-0.52-0.614-0.443-1.534 0.171-2.053s1.534-0.443 2.053 0.171l4.353 5.145c0.52 0.614 0.443 1.534-0.171 2.053-0.274 0.232-0.608 0.345-0.941 0.345z"/>
   <path d="m29.181 9.912c-0.296 0-0.597-0.09-0.856-0.278-0.65-0.474-0.794-1.385-0.321-2.036l3.167-4.352c0.473-0.651 1.382-0.795 2.036-0.321 0.649 0.474 0.793 1.385 0.321 2.036l-3.167 4.352c-0.285 0.392-0.729 0.599-1.18 0.599z"/>
  </g>
  <g stroke-width=".20712">
   <path d="m9.219 294.98c-0.08906 0-0.17709-0.0392-0.23674-0.11454-0.10356-0.13048-0.081604-0.32041 0.049087-0.42376l0.71538-0.56647c0.13028-0.10356 0.32041-0.0816 0.42418 0.0493 0.10356 0.13048 0.0814 0.32041-0.04929 0.42376l-0.71559 0.56646c-0.0553 0.0439-0.12137 0.0652-0.18703 0.0652z"/>
   <path d="m10.811 293.15c-0.0205 0-0.04142-2e-3 -0.06214-6e-3 -0.16321-0.0344-0.2678-0.19448-0.23342-0.35769l0.2067-0.98174c0.03418-0.163 0.19366-0.26759 0.35748-0.23321 0.16321 0.0344 0.2676 0.19448 0.23321 0.35748l-0.2067 0.98174c-0.02982 0.14229-0.15534 0.23984-0.29514 0.23984z"/>
   <path d="m11.476 293.8c-0.16445 0-0.29846-0.13131-0.30156-0.29618-0.0033-0.16652 0.12966-0.30425 0.29618-0.30715l0.81832-0.0149c0.17087 7e-3 0.30446 0.12945 0.30736 0.29618 0.0031 0.16652-0.12924 0.30426-0.29618 0.30716l-0.81853 0.0149h-0.0056z"/>
   <path d="m16.22 298.38c-0.09382 0-0.1862-0.0435-0.24523-0.12572l-0.60437-0.83986c-0.09735-0.13546-0.06628-0.32393 0.06897-0.42128 0.13504-0.0973 0.32393-0.0665 0.42086 0.069l0.60437 0.84007c0.09735 0.13525 0.06669 0.32372-0.06876 0.42107-0.05302 0.0383-0.11495 0.0568-0.17584 0.0568z"/>
   <path d="m10.131 293.48c-0.08492 0.0392-0.18744 0.0385-0.27526-0.0112l-0.85684-0.4801c-0.14519-0.0822-0.19635-0.26614-0.11391-0.41113 0.082019-0.14498 0.26635-0.19614 0.41134-0.11391l0.85705 0.47989c0.14498 0.0822 0.19573 0.26635 0.1135 0.41133-0.0321 0.057-0.08036 0.0996-0.13587 0.1251z"/>
   <path d="m17.089 298.36c-0.06255 0-0.12531-0.0193-0.17936-0.059-0.1338-0.0992-0.16217-0.2881-0.06317-0.42211l0.59111-0.79905c0.099-0.1338 0.28789-0.16259 0.42169-0.0634 0.13421 0.0992 0.16259 0.2881 0.06379 0.4221l-0.59111 0.79927c-0.05965 0.08-0.15078 0.1222-0.24295 0.1222z"/>
   <path d="m18.391 299.46c-0.02423 0-0.04909-3e-3 -0.07373-9e-3l-1.1025-0.27588c-0.16176-0.0404-0.25993-0.20422-0.21975-0.36619 0.04059-0.16155 0.20401-0.25972 0.36618-0.21933l1.1027 0.27588c0.16155 0.0406 0.25993 0.20442 0.21975 0.36618-0.03438 0.1367-0.15762 0.22845-0.29266 0.22845z"/>
   <path d="m16.673 300.67h-0.0017c-0.16673-8.3e-4 -0.30073-0.1367-0.29991-0.30322l0.0046-0.90738c1e-3 -0.16673 0.12821-0.30177 0.30343-0.30032 0.16673 8.2e-4 0.30073 0.13669 0.30011 0.30322l-5e-3 0.90758c-6.21e-4 0.16611-0.13566 0.30012-0.30156 0.30012z"/>
  </g>
 </g>
</svg>
