<svg version="1.1" viewBox="0 0 20 20" xmlns="http://www.w3.org/2000/svg">
 <g transform="translate(0 -291.71)" fill="#caf" stroke-width=".26534">
  <ellipse cx="12.661" cy="294.5" rx=".55666" ry=".58518"/>
  <ellipse cx="14.961" cy="293.24" rx=".55641" ry=".58491"/>
  <ellipse cx="17.299" cy="294.5" rx=".55641" ry=".58491"/>
  <ellipse cx="12.661" cy="297.02" rx=".55666" ry=".58518"/>
  <ellipse cx="17.299" cy="297.02" rx=".55641" ry=".58491"/>
  <ellipse cx="14.961" cy="295.77" rx=".55641" ry=".58491"/>
  <ellipse cx="19.438" cy="295.77" rx=".55666" ry=".58518"/>
  <ellipse cx="14.961" cy="298.3" rx=".55641" ry=".58491"/>
  <ellipse cx="12.661" cy="306.45" rx=".55666" ry=".58518"/>
  <ellipse cx="14.961" cy="305.19" rx=".55641" ry=".58491"/>
  <ellipse cx="17.299" cy="306.45" rx=".55641" ry=".58491"/>
  <ellipse cx="12.661" cy="308.97" rx=".55666" ry=".58518"/>
  <ellipse cx="17.299" cy="308.97" rx=".55641" ry=".58491"/>
  <ellipse cx="14.961" cy="307.72" rx=".55641" ry=".58491"/>
  <ellipse cx="19.438" cy="307.72" rx=".55666" ry=".58518"/>
  <ellipse cx="14.961" cy="310.25" rx=".55641" ry=".58491"/>
  <path d="m19.894 301.55-3.7357-2.5742c-0.06832-0.0471-0.15554-0.0509-0.22774-0.0103-0.07194 0.0408-0.11672 0.11997-0.11672 0.20594v1.1698h-14.544c-0.73627 0-1.3354 0.62952-1.3354 1.4035 0 0.76528 0.58591 1.3896 1.311 1.4035 0.00802 1e-3 0.016045 1e-3 0.024327 1e-3h14.544v1.1706c0 0.086 0.04477 0.16514 0.11672 0.20622 0.03313 0.0185 0.06962 0.0283 0.10585 0.0283 0.04244 0 0.08514-0.0133 0.12189-0.0389l3.7357-2.5741c0.06289-0.0433 0.10067-0.11699 0.10067-0.19588-2.59e-4 -0.0786-0.03804-0.15235-0.10093-0.1956z"/>
  <rect x="9.0616" y="291.66" width="2.2264" height="8.205"/>
  <rect x="9.0616" y="303.61" width="2.2264" height="8.2056"/>
 </g>
</svg>
