<svg version="1.1" viewBox="0 0 25 25" xmlns="http://www.w3.org/2000/svg">
 <style/>
 <path d="m12.5 17.665c-2.4332 0-4.4063 0.98579-4.4063 2.2042 0 2.4323 1.9731 4.4057 4.4063 4.4057 2.4326 0 4.406-1.9734 4.406-4.4057 0-1.2184-1.9734-2.2042-4.406-2.2042zm6.5982-15.855h0.0093c-1.7444-0.67416-4.0608-1.0852-6.603-1.0852-2.5422 0-4.8586 0.41132-6.6032 1.0852-2.1721 2.1536-3.5489 5.149-3.5489 7.8345 0 3.2935 2.0719 5.2735 5.1433 6.2114v-7.4486c0-0.33049 0.26823-0.59872 0.59872-0.59872s0.59872 0.26823 0.59872 0.59872v8.9278c0.98549-0.54244 2.3075-0.86754 3.8069-0.86754 1.5001 0 2.8224 0.3257 3.8078 0.86814v-8.9284c0-0.33049 0.26822-0.59872 0.59872-0.59872 0.33049 0 0.59872 0.26823 0.59872 0.59872v7.448c3.0708-0.93819 5.1421-2.9178 5.1421-6.2111-2.99e-4 -2.6852-1.3773-5.6806-3.5492-7.8342z" fill="#fff" stroke-width=".29936"/>
</svg>
