<svg version="1.1" viewBox="0 0 20 20" xmlns="http://www.w3.org/2000/svg">
 <g transform="translate(0 -291.71)" fill="#87de87">
  <g stroke-width=".21049">
   <path d="m8.2312 296.73 0.13808 0.14229 0.12272 0.11535 0.00442 3e-3 0.031363-1e-3 0.15071-5e-3 0.18397-0.0903 0.13345-0.15892 0.051149-0.17345 8e-3 -0.0274-0.00253-0.0202-0.022944-0.18565-0.10546-0.17618-0.1665-0.11619-0.19891-0.0364-0.19765 0.0495-0.1625 0.12756-0.09851 0.18375-0.013892 0.16756-0.00168 0.0196c-4.21e-4 3e-3 -0.0021 6e-3 -0.00253 0.01l0.027364 0.035z"/>
   <path d="m9.0586 301.95-0.055359-0.14798-0.14671-0.16229-0.22754-0.18628-0.22965-0.0964-0.22333 0.0131h-0.00126l-0.00989 4.2e-4h-0.00442c-0.044624 0-0.081881-0.0349-0.083986-0.08-6.315e-4 -0.0139 0.00295-0.0267 0.00842-0.0387l-6.315e-4 -0.0137-0.046308-0.0918-0.079566-0.0652-0.045256-0.0126-0.036415 0.0303-2.105e-4 2.1e-4 -0.1444 0.12335-0.12482 0.10903 0.020418 0.0756 0.06441 0.0802 0.091143 0.0474 0.062305 4e-3c0.00653 4.3e-4 0.012209 3e-3 0.018313 5e-3 0.00442 1e-3 0.00905 2e-3 0.013261 4e-3 0.00484 2e-3 0.00884 7e-3 0.013261 0.01 0.00421 3e-3 0.00884 5e-3 0.012419 9e-3 0.00337 4e-3 0.00526 8e-3 0.00779 0.0128 0.00316 5e-3 0.00695 9e-3 0.00884 0.0149 0.00232 6e-3 0.0021 0.0124 0.00295 0.0187 6.315e-4 4e-3 0.00232 9e-3 0.0021 0.0135v0.00142l-0.010735 0.22902 0.096615 0.23238 0.18208 0.22207 0.15724 0.13977 0.18713 0.0716 0.22754-0.0143 0.16713-0.0564 0.010735-0.0103 0.020628-0.0206 0.021891-0.0219 0.018313-0.0185 0.052833-0.16502 0.016629-0.22839z"/>
   <path d="m7.6223 301.1c0-2.1e-4 2.105e-4 -4.2e-4 2.105e-4 -4.2e-4l0.14503-0.12377c2.105e-4 0 4.21e-4 -2.1e-4 6.315e-4 -2.1e-4s2.105e-4 -2.1e-4 2.105e-4 -2.1e-4l0.12419-0.10356c2.105e-4 -2.1e-4 4.21e-4 -2.1e-4 6.315e-4 -4.2e-4 4.21e-4 -2.1e-4 6.315e-4 -6.4e-4 8.42e-4 -8.5e-4l0.032205-0.0257-0.20649-0.29342c-8.42e-4 -1e-3 -0.00105-3e-3 -0.00168-4e-3 -6.315e-4 -1e-3 -0.00168-1e-3 -0.0021-2e-3l-0.20165-0.34205-0.20502-0.29343-0.20355-0.27153-0.26922-0.25049-0.26564-0.24375-0.039362-0.0213-0.00337-2e-3c-0.00653-4e-3 -0.011367-9e-3 -0.016629-0.0135-2.105e-4 0-4.21e-4 -2.1e-4 -4.21e-4 -2.1e-4 -0.027153-0.0253-0.036415-0.0655-0.018523-0.0998 0.00821-0.0158 0.02126-0.0263 0.035783-0.0341l0.12714-0.12272c8.42e-4 -8.4e-4 0.0021-1e-3 0.00295-2e-3 8.42e-4 -8.5e-4 0.00126-2e-3 0.0021-3e-3l0.29216-0.23996c0.00105-8.4e-4 0.00232-8.4e-4 0.00337-2e-3 0.00105-8.5e-4 0.00147-2e-3 0.00253-3e-3l0.4092-0.28017 0.32647-0.27511h2.105e-4l0.2789-0.23385 0.31553-0.31658 0.15997-0.32942-0.06441-0.0512c-0.00147-1e-3 -0.00189-3e-3 -0.00316-4e-3 -6.314e-4 -6.3e-4 -0.00147-2.1e-4 -0.0021-8.4e-4l-0.12735-0.11956c-4.21e-4 -4.2e-4 -6.314e-4 -1e-3 -0.00105-1e-3 -4.21e-4 -4.3e-4 -0.00126-6.4e-4 -0.00168-1e-3l-0.13998-0.14418c-6.315e-4 -6.3e-4 -6.315e-4 -1e-3 -0.00105-2e-3 -4.21e-4 -4.2e-4 -0.00105-6.3e-4 -0.00147-1e-3l-0.12482-0.14019c-6.315e-4 -8.4e-4 -8.42e-4 -2e-3 -0.00147-3e-3 -6.314e-4 -6.3e-4 -0.00147-8.4e-4 -0.00189-1e-3l-0.083355-0.10608-0.35342 0.16376-0.32037 0.29869-0.24859 0.2749-0.27469 0.30458-0.30142 0.40246c-8.419e-4 1e-3 -0.00189 1e-3 -0.00253 2e-3 -0.00105 1e-3 -0.00126 3e-3 -0.0021 4e-3l-0.25512 0.28648c-4.209e-4 6.3e-4 -0.00126 8.4e-4 -0.00168 1e-3 -4.21e-4 6.3e-4 -6.315e-4 1e-3 -0.00105 2e-3l-0.18123 0.18502 0.00105 4e-3 0.014103 0.0204 2.105e-4 2.2e-4 0.053886 0.0783 0.11745 0.13619 0.13514 0.13513 0.018102 0.0154 2.105e-4 2.1e-4 0.070725 0.0602c0.035573 0.0301 0.039783 0.0831 0.00968 0.1185-0.016629 0.0196-0.040414 0.0297-0.0642 0.0297-0.019365 0-0.03873-7e-3 -0.054517-0.02l-0.022944-0.0196-0.050518 0.0331-0.050307 0.04c-0.015576 0.0124-0.0341 0.0183-0.052412 0.0183-0.024627 0-0.049255-0.0107-0.065884-0.0316-0.029048-0.0362-0.022944-0.0892 0.013261-0.11829l0.052623-0.0421c0.00126-1e-3 0.00274-1e-3 0.00379-2e-3 0.00105-8.4e-4 0.00168-2e-3 0.00274-3e-3l0.018734-0.0122-0.086302-0.0861c-6.314e-4 -6.3e-4 -0.00105-2e-3 -0.00168-3e-3 -6.315e-4 -8.4e-4 -0.00189-1e-3 -0.00253-2e-3l-0.12166-0.14124c-0.00126-1e-3 -0.00147-3e-3 -0.00253-5e-3 -8.42e-4 -1e-3 -0.0021-1e-3 -0.00295-3e-3l-0.029048-0.0421-0.032416 3e-3 -0.11135 0.0612-0.077461 0.1023-0.029469 0.12545 0.023786 0.12735 0.07283 0.10651 0.075777 0.0469 0.044203-0.052c0.00105-1e-3 0.00274-2e-3 0.00379-3e-3s0.00147-3e-3 0.00274-4e-3l0.04694-0.044c0.033889-0.0316 0.087354-0.0299 0.11893 4e-3 0.031574 0.0339 0.02989 0.0871-4e-3 0.11892l-0.043361 0.0406-0.067357 0.0791-8e-3 0.0181 0.064831 0.22859 0.19828 0.30984 2.105e-4 2.1e-4 0.19597 0.30311 0.23764 0.26185 0.25217 0.25428 0.30479 0.26837c8.419e-4 8.4e-4 0.00105 2e-3 0.00189 3e-3 8.419e-4 8.4e-4 0.00189 1e-3 0.00253 2e-3l0.26164 0.26543 0.090932-0.0819c2.104e-4 0 4.209e-4 -2.1e-4 4.209e-4 -2.1e-4 2.105e-4 0 2.105e-4 -4.2e-4 4.21e-4 -4.2e-4l0.13745-0.11956c2.105e-4 -2.1e-4 4.21e-4 0 4.21e-4 -2.1e-4z"/>
   <path d="m10.59 302.14c8.42e-4 -6e-3 0.0017-0.012 0.0044-0.0173 6.31e-4 -1e-3 4.21e-4 -3e-3 0.0013-5e-3l0.0762-0.1545-0.58959 0.0295 0.09977 0.18081c8.42e-4 2e-3 8.42e-4 3e-3 0.0015 5e-3 0.0023 5e-3 0.0034 0.0103 0.0048 0.0156 0.0013 5e-3 0.0027 0.0111 0.0029 0.0168 0 2e-3 8.42e-4 3e-3 8.42e-4 5e-3l-0.0051 0.25175 0.05915 0.0545c0.0023 2e-3 0.0036 5e-3 0.0057 8e-3 0.0021 2e-3 0.0051 4e-3 0.0069 7e-3l0.08988 0.1324c0.0015 2e-3 0.0015 4e-3 0.0027 7e-3 0.0013 2e-3 0.0032 3e-3 4e-3 5e-3l0.04947 0.10693 0.03705-0.0996c0.0017-4e-3 0.0048-8e-3 0.0072-0.0118 0.0025-4e-3 0.0038-9e-3 0.0072-0.0131l0.15429-0.18397c-8.42e-4 -3e-3 -0.0013-5e-3 -0.0017-8e-3 0-2e-3 -0.0013-4e-3 -0.0013-5e-3l-0.02084-0.305c-2.1e-4 -2e-3 8.42e-4 -4e-3 8.42e-4 -5e-3 0-5e-3 0.0011-0.01 0.0023-0.0147z"/>
   <path d="m10.212 305.54c0.0032-1e-3 0.0055-4e-3 0.0088-4e-3l0.22502-0.0596c0.0034-8.4e-4 0.0065 0 0.0099-8.4e-4 0.0038-4.2e-4 0.0069-2e-3 0.01095-2e-3l0.21175-3e-3h8.42e-4c0.0051 0 0.0099 2e-3 0.01473 3e-3 0.0042 8.4e-4 0.0086 0 0.01305 2e-3l0.02736 0.01-0.15282-0.44624c-0.0013-4e-3 -8.42e-4 -8e-3 -0.0017-0.0122-2.1e-4 -1e-3 -0.0019-2e-3 -0.0021-4e-3l-0.08335-0.61568v-6.4e-4l-0.07872-0.61126v-8.5e-4s-2.11e-4 -2.1e-4 -2.11e-4 -4.2e-4l-0.05873-0.52412-0.03031-0.17576-0.0181-0.10546-0.10314-0.2227-0.08062-0.11829-0.07999-0.0739c-2.1e-4 0-2.1e-4 -2.2e-4 -2.1e-4 -4.3e-4l-0.051781-0.0476-0.13177-0.0507-0.19218-4e-3 -0.21112 0.0482-0.17787 0.0892-0.1063 0.10608-0.017471 0.0427-0.055149 0.13577-0.033468 0.14061 0.035994 0.24291v2.1e-4l0.047571 0.28079 0.16418 0.5035 0.27869 0.55106c8.42e-4 2e-3 8.42e-4 4e-3 0.00147 6e-3 8.419e-4 1e-3 0.00232 3e-3 0.00295 5e-3l0.20376 0.59043c6.315e-4 1e-3 2.105e-4 3e-3 6.315e-4 4e-3 4.21e-4 2e-3 0.00147 3e-3 0.00189 4e-3l0.11682 0.51149 0.066515-0.0695c0.00295-3e-3 0.00695-5e-3 0.010314-7e-3 0.00358-3e-3 0.0061-6e-3 0.010314-9e-3l0.19386-0.10482c0.0029-1e-3 0.0063-1e-3 0.0097-3e-3z"/>
  </g>
  <polygon transform="matrix(.21049 0 0 .21049 -.10384 291.34)" points="47.964 69.52 47.959 69.352 47.931 69.473"/>
  <polygon transform="matrix(.21049 0 0 .21049 -.10384 291.34)" points="60.098 25.796 60.096 25.702 59.934 24.851 59.468 24.151 58.77 23.681 57.926 23.515 57.635 23.521 56.686 23.738 55.979 24.294 55.579 25.108 55.557 26.133 55.555 26.134 55.562 26.365 55.879 27.142 56.477 27.741 57.244 28.061 58.12 28.05 58.121 28.05 58.243 28.046 58.45 27.807 58.451 27.807 59.01 27.14 59.602 26.418"/>
  <g stroke-width=".21049">
   <path d="m10.741 298.76h-0.0042l-0.32942-0.017h-0.0021l-0.38267-0.0301h-4.21e-4 -0.0015l-0.35994-0.0373c-2.105e-4 0-2.105e-4 -2.1e-4 -4.21e-4 -2.1e-4h-0.00232l-0.051781-7e-3 -0.18523 0.29216-0.0021 0.0131-0.014103 0.42098 0.13282 0.25933 1.421-0.0701 0.08251-0.12945 0.01368-0.42982-0.13724-0.26375z"/>
   <path d="m9.2936 297.98v2e-3c0 6.3e-4 6.315e-4 1e-3 6.315e-4 2e-3l0.053886 0.30732c2.105e-4 1e-3 0 2e-3 0 3e-3s8.42e-4 2e-3 8.42e-4 3e-3l0.015576 0.1604 0.054938 0.0131 0.15597 0.0217h4.21e-4l0.10482 0.0145 0.35573 0.0366 0.38225 0.0301 0.32521 0.0168 0.19344 6.3e-4 0.0442-0.16566c4.21e-4 -1e-3 0.0015-2e-3 0.0019-4e-3 4.21e-4 -1e-3 2.1e-4 -3e-3 6.31e-4 -4e-3l0.10904-0.29468c0-2.1e-4 4.21e-4 -4.3e-4 4.21e-4 -6.4e-4 4.21e-4 -4.2e-4 0-8.4e-4 4.21e-4 -1e-3l0.15029-0.37804 0.10335-0.43172 0.04399-0.39151 0.02421-0.37973-0.03705-0.39804-0.15303-0.27153-0.19492-0.17113-0.27701-0.0972c-0.0065-2e-3 -0.012-7e-3 -0.01747-0.0105-0.0027-2e-3 -0.0063-1e-3 -0.0088-3e-3 -0.02884-0.0234-0.03747-0.0608-0.02505-0.0933v-4.2e-4c4.21e-4 -1e-3 0.0013-2e-3 0.0017-3e-3 0.0034-7e-3 0.0061-0.0145 0.01158-0.0211l0.0015-2e-3c2.1e-4 -2.1e-4 4.21e-4 -2.1e-4 6.31e-4 -4.2e-4 2.11e-4 -2.1e-4 2.11e-4 -4.2e-4 4.21e-4 -6.3e-4l0.12987-0.15177 0.04441-0.23343-0.06946-0.2006h-0.066511l-0.30479-1e-3h-4.21e-4l-0.31216-2e-3h-4.21e-4l-0.07851-8.4e-4 -0.03999 0.0463-0.041888 0.22733 0.078514 0.22417 0.02379 0.0206c2.11e-4 0 2.11e-4 2.1e-4 2.11e-4 2.1e-4l0.0023 2e-3c0.0053 4e-3 0.0082 0.01 0.01221 0.0152 4.21e-4 4.2e-4 8.42e-4 8.4e-4 0.0011 1e-3 0.02168 0.0303 0.02252 0.0718-0.0025 0.10188-0.01663 0.02-0.04062 0.0303-0.06462 0.0303-0.0017 0-0.0029-2e-3 -0.0046-2e-3l-0.24417 0.0423-0.023996 8e-3 -0.22502 0.14187-0.19555 0.24438-0.10146 0.38688-0.013471 0.13114 0.00358 0.0284v2.1e-4c8.42e-4 7e-3 -8.419e-4 0.0141-0.00168 0.0213-6.315e-4 4e-3 0 8e-3 -0.00105 0.0122v4.2e-4l-0.010735 0.0366-0.014945 0.14755-0.020207 0.39362 0.031574 0.44393z"/>
   <path d="m10.141 294.71 0.31195 2e-3 0.30458 1e-3h0.24964l0.12714-6.3e-4 0.0522-0.37447c0-1e-3 8.42e-4 -2e-3 0.0013-4e-3 0-1e-3 -4.21e-4 -2e-3 0-3e-3l0.09577-0.44267v-2.1e-4l0.09619-0.44055 0.0703-0.4292-0.06125-0.4174-0.20965-0.35152-0.35342-0.20755-0.40856-0.096-0.40941 0.0918-0.35615 0.20439-0.21302 0.34921-0.065673 0.41698 0.065884 0.43088 0.091143 0.44034 0.091143 0.44351c2.105e-4 1e-3 0 2e-3 0 3e-3 2.105e-4 1e-3 8.42e-4 2e-3 0.00105 3e-3l0.047992 0.37405 0.00884 2.1e-4 0.18965 3e-3 0.15471 2e-3z"/>
   <path d="m12.792 300.6-0.03368-0.0259c-0.01263 8e-3 -0.02547 0.0156-0.04105 0.0156-0.0038 0-0.0067-2.1e-4 -0.01031-6.3e-4l-0.01937-2e-3 -0.04631 0.0156h-2.1e-4l-0.02063 7e-3 -0.06546 0.0558-0.04694 0.0785-0.01684 0.0817-0.0021 0.01c-4.21e-4 2e-3 -0.0029 3e-3 -0.0038 5e-3 -0.0023 6e-3 -0.0055 0.0105-0.0091 0.0154-0.01473 0.0265-0.03915 0.0463-0.06988 0.0463-0.0053 0-0.01137-4.2e-4 -0.01684-2e-3 -0.0099-2e-3 -0.01852-6e-3 -0.02631-0.0112l-0.1425-0.01-0.01031-4.2e-4 -0.2227 0.0945-0.23344 0.18334-0.1023 0.10629c0 2.2e-4 -4.21e-4 2.2e-4 -4.21e-4 2.2e-4l-0.05347 0.0556-0.07283 0.17682 0.01074 0.22186 0.04063 0.1726 0.0017 3e-3 0.01284 0.0156 0.01537 0.016 0.01221 0.0105 0.16124 0.0627 0.03873 3e-3 0.16692 0.012 0.02063-3e-3 0.19407-0.0745 0.15408-0.12903 0.18208-0.20986 0.10082-0.22775 0.0013-0.22017v-2e-3c0-1e-3 8.42e-4 -3e-3 8.42e-4 -4e-3 2.1e-4 -1e-3 -4.21e-4 -2e-3 -2.11e-4 -3e-3 2.11e-4 -2e-3 0.0015-4e-3 0.0019-6e-3 0.0044-0.0293 0.02021-0.0541 0.0482-0.064 0.01053-5e-3 0.02168-7e-3 0.03368-7e-3 0.0078 0 0.01452 3e-3 0.02168 4e-3l0.0032 4.2e-4 0.07283-8e-3 0.06778-0.0389 0.05789-0.069 0.0057-0.0158c0-2.1e-4 4.21e-4 -4.2e-4 4.21e-4 -6.3e-4l0.02673-0.0682c8.42e-4 -0.0175 0.0078-0.0328 0.0181-0.0461l-0.07978-0.0972z"/>
   <path d="m10.811 305.74 0.0044-0.0196-0.03347-0.049-0.0261-9e-3c0.0082 6e-3 0.01579 0.0135 0.02147 0.0234l4e-3 6e-3z"/>
   <path d="m11.683 302.82c-0.0027 0-0.0044 1e-3 -0.0072 1e-3l-0.14945 4.2e-4h-2.1e-4c-0.0034 0-0.0061-4.2e-4 -0.0091-8.5e-4l-0.2126-0.0227c-4.21e-4 0-8.41e-4 -4.2e-4 -0.0013-4.2e-4 -0.0017-2.1e-4 -0.0032-2.1e-4 -0.0044-4.2e-4l-0.23344-0.0413c-4.21e-4 -2.1e-4 -0.0013-6.3e-4 -0.0019-6.3e-4 -0.0013-4.2e-4 -0.0027-2.1e-4 -4e-3 -6.3e-4l-0.20839-0.052c-0.0013-2.1e-4 -0.0021-1e-3 -0.0034-1e-3 -0.0017-6.4e-4 -0.0036-4.3e-4 -0.0053-1e-3l-0.14187-0.052c-0.0025-8.4e-4 -0.0042-3e-3 -0.0063-4e-3l-0.09977 0.11851-0.09241 0.24754-0.0072 0.0612 0.02884 0.1665c2.1e-4 1e-3 -2.11e-4 2e-3 0 3e-3 0 4.2e-4 6.31e-4 1e-3 6.31e-4 2e-3l0.05894 0.52644v2.1e-4l0.07809 0.60895c0 4.2e-4 4.21e-4 4.2e-4 4.21e-4 4.2e-4l0.08251 0.60769 0.17808 0.52118 0.06273 0.17092c8.42e-4 2e-3 4.21e-4 4e-3 8.42e-4 6e-3 8.42e-4 2e-3 0.0021 4e-3 0.0025 7e-3 8.42e-4 4e-3 0 7e-3 0 0.0103 6.31e-4 5e-3 8.42e-4 0.0101 0 0.0147 0 3e-3 0 5e-3 -4.21e-4 8e-3v2e-3l-0.03031 0.12882c-2.1e-4 1e-3 -0.0017 2e-3 -0.0021 3e-3 -0.0036 0.0131-0.0093 0.0255-0.01915 0.036l-0.04357 0.0459 0.0027 0.10609c0.0044 3e-3 0.0088 4e-3 0.01305 8e-3 0.0044 4e-3 0.0074 9e-3 0.01116 0.0131 0.0027 4e-3 0.0061 6e-3 0.0082 0.01l0.04715 0.0871 0.01431-0.077v-2.1e-4l0.1103-0.66052c4.21e-4 -2e-3 0.0013-3e-3 0.0017-4e-3 4.21e-4 -1e-3 0-3e-3 4.21e-4 -4e-3l0.17913-0.66221c4.21e-4 -2e-3 0.0017-3e-3 0.0023-4e-3 8.42e-4 -2e-3 4.21e-4 -3e-3 0.0013-5e-3l0.25617-0.62558 0.14313-0.56622 0.03578-0.31047 0.02589-0.2688-0.06209-0.15661c-2.1e-4 -2.1e-4 -4.21e-4 2.1e-4 -6.31e-4 2.1e-4z"/>
   <path d="m11.733 302.16-0.17723-0.069c-0.0027-1e-3 -0.0044-3e-3 -0.0069-4e-3 -0.0017-1e-3 -0.0036-6.3e-4 -0.0053-2e-3l-0.01431-9e-3c-0.0034-2e-3 -0.0046-4e-3 -0.0078-7e-3 -8.42e-4 -1e-3 -0.0027-4.2e-4 -0.0038-2e-3l-0.02021-0.0168c-0.0013-1e-3 -0.0017-2e-3 -0.0025-3e-3 -0.0013-1e-3 -0.0027-2e-3 -0.0038-3e-3l-0.02147-0.0219c-8.42e-4 -8.4e-4 -8.42e-4 -2e-3 -0.0017-3e-3 -8.42e-4 -8.4e-4 -0.0021-8.4e-4 -0.0027-2e-3l-0.01831-0.0219c-0.0015-1e-3 -0.0017-4e-3 -0.0029-5e-3 -0.0013-1e-3 -0.0025-2e-3 -0.0034-3e-3l-0.012-0.0183c-0.0038-6e-3 -0.0048-0.0126-0.0074-0.0192-6.32e-4 -2e-3 -0.0025-2e-3 -0.0034-4e-3l-0.0029-0.0107v-2e-3c0-4.2e-4 -4.21e-4 -4.2e-4 -4.21e-4 -8.4e-4l-0.03536-0.14945c-0.02126-0.0246-0.02673-0.06-0.01242-0.0907l-0.0099-0.20797c0-4.2e-4 2.11e-4 -8.4e-4 2.11e-4 -1e-3 -2.11e-4 -6e-3 0.0017-0.0116 0.0027-0.0173 8.42e-4 -5e-3 0.0011-0.0109 0.0034-0.016v-1e-3l0.08588-0.20881c0.0017-5e-3 0.0053-8e-3 8e-3 -0.0122 0.0032-5e-3 0.0048-0.0101 0.0091-0.0143l0.03957-0.041-0.02105-0.36415-0.06041-0.35573-0.15008-0.46034-0.1204-0.2547-0.03789 2e-3 -0.1044 5e-3 -1.5193 0.0749-0.074093 4e-3 -0.036626 2e-3 -0.094721 0.26543-0.1044 0.4736-0.025259 0.35805 0.017471 0.42077 0.082723 0.31869 0.089669 0.13303 0.00168 3e-3c4.21e-4 8.4e-4 6.315e-4 2e-3 0.00105 3e-3 2.105e-4 6.3e-4 0.00105 1e-3 0.00126 2e-3 0.00105 2e-3 0.00105 4e-3 0.00189 6e-3 0.018523 0.037 0.00863 0.0827-0.026522 0.10651-0.00421 3e-3 -0.00905 2e-3 -0.013471 4e-3l-0.073041 0.0402c2.105e-4 4.2e-4 2.105e-4 1e-3 2.105e-4 1e-3 8.42e-4 6e-3 0.00253 0.0118 0.0021 0.0175 0 6.3e-4 2.105e-4 1e-3 2.105e-4 1e-3l-0.018523 0.25701c-2.105e-4 4e-3 -0.0021 7e-3 -0.00274 0.0103-6.315e-4 3e-3 0 6e-3 -0.00105 9e-3l-0.061884 0.19323c-2.105e-4 1e-3 -0.00147 2e-3 -0.00189 3e-3 -2.105e-4 1e-3 -0.00105 2e-3 -0.00147 3e-3 -8.419e-4 2e-3 -0.0021 4e-3 -0.00295 5e-3 -0.00274 5e-3 -0.00442 0.0112-0.00842 0.0158-0.00105 1e-3 -0.00253 2e-3 -0.00358 3e-3 -0.00147 1e-3 -0.00189 4e-3 -0.00337 5e-3 -0.0021 2e-3 -0.00505 3e-3 -0.00716 5e-3 -0.00211 3e-3 -0.00316 6e-3 -0.00568 8e-3l-0.019155 0.0194c-2.105e-4 0-2.105e-4 0-2.105e-4 4.2e-4h-2.105e-4l-0.022733 0.0225c-2.105e-4 0-2.105e-4 0-2.105e-4 2.2e-4 -2.105e-4 0-2.105e-4 2.1e-4 -2.105e-4 2.1e-4l-0.00253 3e-3 0.00737 0.013 0.084618-0.0844c0.00358-4e-3 0.00821-5e-3 0.012208-8e-3 0.00337-3e-3 0.00589-6e-3 0.00968-7e-3l0.19912-0.10019c0.00337-2e-3 0.00695-2e-3 0.010314-3e-3 0.00316-8.4e-4 0.00547-3e-3 0.00863-4e-3l0.23133-0.0528c0.00274-6.4e-4 0.00547 2.1e-4 0.00821-2.1e-4 0.00358-4.3e-4 0.00674-2e-3 0.010525-2e-3 6.315e-4 0 0.00126 0 0.00189 2.1e-4l0.2126 4e-3 2.105e-4 4.2e-4h0.00442c0.00463 0 0.00842 2e-3 0.01284 3e-3 0.00526 1e-3 0.010314 6.3e-4 0.015366 3e-3l0.11303 0.0434 0.0023-0.11346-0.1265-0.22943-0.00737-4e-3 -0.00337 4.2e-4 -0.1385 7e-3h-0.00442c-0.044414 0-0.081671-0.0349-0.083986-0.08-0.00253-0.0465 0.033258-0.0861 0.079776-0.0884l0.1385-7e-3h4.21e-4 2.104e-4l0.028416-1e-3h2.105e-4l0.23028-0.012 0.45656-0.0221 0.22207-0.0107h4.21e-4 6.31e-4l0.1886-0.01h4.21e-4c6.31e-4 0 8.42e-4 -2.1e-4 0.0011-2.1e-4l0.02273-8.4e-4 0.26122-0.0128c0.05494-2e-3 0.08588 0.0337 0.0882 0.08 0.0025 0.0463-0.03326 0.0859-0.07999 0.0882l-0.26248 0.0128c-0.0015 0-0.0029 2.1e-4 -0.0042 2.1e-4h-4.21e-4l-0.0181 6.4e-4 -0.15008 8e-3 -0.10798 0.21849 0.01831 0.26038 0.01937 0.0291c4.21e-4 2.1e-4 4.21e-4 2.1e-4 4.21e-4 4.2e-4l0.02547 0.0385c0.0027 4e-3 0.0034 8e-3 0.0051 0.0124l0.07304 0.0267 0.19934 0.0497 0.22733 0.04 0.20481 0.0219h0.03873c0.0048-6e-3 0.01052-0.013 0.01768-0.0177l0.04757-0.0318 0.11661-0.23344-0.01389-0.20649c0-4.2e-4 -0.0013 0-0.0021-4.2e-4z"/>
   <path d="m15.144 298.84h-4.21e-4l-0.03894-0.0501-0.08904-0.0499-0.07915-0.01c-6.32e-4 6.3e-4 -6.32e-4 2e-3 -0.0013 2e-3l-0.10314 0.13408c-4.21e-4 6.4e-4 -0.0011 8.5e-4 -0.0015 1e-3 -4.21e-4 4.2e-4 -6.32e-4 1e-3 -0.0013 2e-3l-0.0581 0.069c0.0061 0.0234 0.0036 0.0488-0.01179 0.0701-0.01642 0.0231-0.04231 0.0354-0.06862 0.0354-0.0029 0-0.0053-3e-3 -0.0082-3e-3l-0.01074 0.0118c-0.01663 0.0183-0.03957 0.0274-0.06209 0.0274-0.02063 0-0.04084-7e-3 -0.05704-0.0221-0.0341-0.0314-0.03641-0.0846-0.0048-0.11893l0.02757-0.0301 0.02105-0.0248c2.11e-4 0 2.11e-4 -2.1e-4 2.11e-4 -2.1e-4l0.10251-0.12104 0.10104-0.13176 0.02063-0.0316v-2.1e-4l0.0013-2e-3c2.11e-4 0 2.11e-4 -2.1e-4 2.11e-4 -2.1e-4l0.01031-0.0158-0.18965-0.16987c-4.21e-4 -4.2e-4 -8.42e-4 -1e-3 -0.0013-1e-3 -2.11e-4 -2.1e-4 -6.32e-4 0-8.42e-4 -2.1e-4l-0.27953-0.26522c-0.0011-1e-3 -0.0013-2e-3 -0.0021-3e-3 -8.42e-4 -8.4e-4 -0.0019-1e-3 -0.0027-2e-3l-0.33531-0.3751-0.30184-0.28374c-2.11e-4 -2.1e-4 -2.11e-4 -4.2e-4 -4.21e-4 -6.3e-4l-0.27048-0.25385-0.34647-0.27448-0.37615-0.14251-0.04568 0.0598c-4.21e-4 2.1e-4 -4.21e-4 2.1e-4 -4.21e-4 4.2e-4 -4.21e-4 4.3e-4 -4.21e-4 8.5e-4 -8.42e-4 1e-3l-0.10651 0.13324s0 2.1e-4 -4.21e-4 2.1e-4v4.2e-4l-0.12524 0.15282c-2.11e-4 0-2.11e-4 2.1e-4 -4.21e-4 2.1e-4 0 2.1e-4 -2.11e-4 4.2e-4 -2.11e-4 4.2e-4l-0.11914 0.14229-4.21e-4 2.1e-4c0 2.1e-4 0 4.2e-4 -4.21e-4 6.3e-4l-0.08967 0.10356c-2.11e-4 4.2e-4 -6.32e-4 4.2e-4 -8.42e-4 6.3e-4l0.19849 0.33237 0.34247 0.29258 0.29721 0.21134v2.1e-4l0.34857 0.24922 0.43172 0.24712c0.0013 6.3e-4 0.0017 2e-3 0.0029 2e-3 0.0013 8.4e-4 0.0025 8.4e-4 0.0038 2e-3l0.31153 0.21638c0.0013 8.4e-4 0.0017 2e-3 0.0029 3e-3 0.0011 8.4e-4 0.0025 1e-3 0.0038 2e-3l0.0069 6e-3c0.012 6e-3 0.02357 0.0143 0.03136 0.0267 0.02526 0.0392 0.01705 0.089-0.02189 0.11408l-0.0065 4e-3h-4.21e-4v2.1e-4l-0.22354 0.14082h-4.21e-4l-0.29006 0.18713-0.24375 0.21449-0.23912 0.23491-0.24922 0.27974c-8.42e-4 6.3e-4 -0.0017 8.4e-4 -0.0021 1e-3 -0.0011 6.3e-4 -0.0013 2e-3 -0.0019 2e-3l-0.19155 0.18923 0.0061 3e-3c0.0032 1e-3 0.0046 4e-3 0.0074 5e-3 0.0027 1e-3 0.0055 2e-3 8e-3 4e-3l0.12714 0.0973c0.0015 1e-3 0.0023 3e-3 0.0036 4e-3 0.0015 1e-3 0.0032 2e-3 0.0044 3e-3l0.13345 0.13051c0.0013 1e-3 0.0017 3e-3 0.0029 4e-3 0.0011 1e-3 0.0027 2e-3 0.0038 3e-3l0.11303 0.13787c0.0015 2e-3 0.0017 4e-3 0.0029 5e-3 0.0013 2e-3 0.0034 3e-3 0.0044 5e-3l0.05915 0.0996 0.24922-0.17344c0.0011-6.3e-4 0.0023-6.3e-4 0.0038-1e-3 0.0013-8.4e-4 0.0017-2e-3 0.0029-3e-3l0.32879-0.18587 0.28037-0.19196 0.25701-0.18503 0.23196-0.25153c0-2.1e-4 0-4.2e-4 2.1e-4 -4.2e-4l0.22586-0.24775 0.1084-0.20186 6.32e-4 -9e-3v-2.1e-4 -6.4e-4l0.0034-0.0343-0.0341-0.0897-0.07662-0.1143-0.04041-0.0423c-0.032-0.0335-0.03073-0.0867 0.0029-0.11893 0.03326-0.032 0.08714-0.0309 0.11872 3e-3l0.04568 0.0476c0.0017 2e-3 0.0025 4e-3 4e-3 6e-3s0.0036 3e-3 0.0051 5e-3l0.08609 0.12903c0.0019 3e-3 0.0023 6e-3 0.0036 8e-3 0.0013 3e-3 0.0042 5e-3 0.0053 9e-3l0.03221 0.0844 0.03073-0.0139 0.07072-0.0758 0.02842-0.0602 0.03726-0.11471-0.01663-0.10167z"/>
   <path d="m10.16 305.94 0.0044 0.15008 0.03221 0.0539 0.14208-0.044h0.0027c0.0011-4.2e-4 0.0017-1e-3 0.0025-1e-3l0.17786-0.0427c8.42e-4 -4.2e-4 0.0019 0 0.0027-4.2e-4 0.0011 0 0.0019-8.5e-4 0.0029-8.5e-4l0.16082-0.0278c0.0013-2.1e-4 0.0029 4.2e-4 0.0044 2.1e-4 0.0017-2.1e-4 0.0032-1e-3 0.0044-1e-3l0.0301-2e-3 -0.0025-0.10019-0.08357-0.13535c-0.0261-0.0251-0.03473-0.0646-0.01726-0.0983 0.01516-0.0293 0.04504-0.0453 0.07578-0.0448l-0.03389-0.012-0.18671 2e-3 -0.20481 0.0545-0.17324 0.0943-0.02736 0.0286c0.01852-4e-3 0.0381-2e-3 0.05578 8e-3 0.04083 0.0219 0.0562 0.0732 0.0341 0.11429z"/>
   <path d="m11.89 310.66 4.21e-4 -2.1e-4v-2.1e-4l0.08062-0.0838 0.02905-0.12209-0.03305-0.11682-0.06209-0.0583-0.02905-0.0272-0.01768 5e-3 -0.15282 0.0583-0.1324 0.06-0.05052 0.0286-0.0038 0.0141-0.01094 0.0472 0.03536 0.12272 0.08041 0.0768v4.2e-4h2.1e-4l0.02168 0.0206c0.03326 0.032 0.03452 0.0855 0.0023 0.11871-0.01642 0.0173-0.03894 0.0259-0.06062 0.0259-0.0093 0-0.01852-2e-3 -0.02736-5e-3l-0.12882 0.27385-0.0061 0.0206-8.42e-4 0.0267v4.2e-4 0.0345l0.14271 0.52581 0.11556 0.0408 0.23301 0.0126 0.24164-0.0217 0.06146-0.0257-0.0036-0.0419-0.02105-0.13156-0.02189-0.1044v-4.2e-4l-0.02336-0.10272-0.02189-0.0859-0.03199-0.11935-0.016-0.0558-0.11956-0.25554c-0.0082 3e-3 -0.01642 5e-3 -0.02505 5e-3 -0.02084 0-0.04147-8e-3 -0.05767-0.0229-0.03389-0.032-0.03536-0.0852-0.0036-0.11914z"/>
   <path d="m10.498 308.42c-4.21e-4 -8.5e-4 -0.0013-1e-3 -0.0017-2e-3l-0.23007-0.60348c-2.1e-4 -4.2e-4 -2.1e-4 -8.4e-4 -2.1e-4 -1e-3 -2.11e-4 -4.2e-4 -6.32e-4 -4.2e-4 -6.32e-4 -8.4e-4l-0.19765-0.5658c-0.0011-3e-3 -4.21e-4 -5e-3 -0.0011-8e-3 -4.21e-4 -1e-3 -0.0019-2e-3 -0.0021-3e-3l-0.0682-0.33384-0.15071 0.35784-0.1305 0.59674-0.090301 0.58474v4.3e-4l-0.099773 0.62831-0.099562 0.66558c0 8.4e-4 -0.00105 1e-3 -0.00105 2e-3 -2.105e-4 1e-3 2.105e-4 3e-3 -2.105e-4 5e-3l-0.17071 0.71462 0.00484 0.0101 0.054517 0.0394 0.014524 0.0103 0.12672 0.0575 0.14924 0.0448 0.13135 0.0198 0.070094-5e-3 0.00337-3e-3 0.22102-0.70978c0-2.1e-4 2.11e-4 -2.1e-4 2.11e-4 -6.3e-4l0.22859-0.71125c2.11e-4 -8.4e-4 8.42e-4 -1e-3 0.0011-2e-3 2.1e-4 -4.2e-4 0-1e-3 2.1e-4 -2e-3l0.21049-0.56033 0.0522-0.17134-0.02336-0.0507c-4.21e-4 -1e-3 -2.11e-4 -2e-3 -6.32e-4 -3e-3z"/>
   <path d="m9.3794 310.92 0.065673-0.0305c0.00316-1e-3 0.00631-1e-3 0.00947-2e-3s0.00547-3e-3 0.00884-4e-3l0.055991-0.0114c0.014524-3e-3 0.028416-1e-3 0.041677 3e-3 0.00274 2.1e-4 0.00526-4.2e-4 8e-3 0l0.14124 0.0314 0.054938-0.0695 0.00463-0.0366-0.032416 3e-3c-0.00168 0-0.00379 2.1e-4 -0.00568 2.1e-4h-2.105e-4c-4e-3 0-0.00821-4.2e-4 -0.012419-1e-3l-0.14734-0.0223c-0.00147-2.2e-4 -0.00253-1e-3 -0.00379-1e-3 -0.00274-4.2e-4 -0.00526-2.1e-4 -0.00779-1e-3l-0.15934-0.0476c-0.00189-8.4e-4 -0.00358-3e-3 -0.00547-3e-3 -0.00168-8.4e-4 -0.00358-4.2e-4 -0.00526-1e-3l-0.08588-0.0394-0.010314 0.0833 0.041888 0.11156 0.0021 5e-3z"/>
  </g>
  <polygon transform="matrix(.21049 0 0 .21049 -.10384 291.34)" points="44.239 94.676 43.785 95.885 43.78 95.893 43.778 95.904 43.734 96.006 43.801 95.999 43.803 95.998 45.013 95.859 45.014 95.859 46.204 95.721 46.212 95.718 47.048 95.615 47.823 95.507 47.821 95.493 47.712 95.188 46.913 93.868 46.696 93.82 46.693 93.82 45.793 93.619 45.654 93.646 45.165 93.871 45.16 93.874 45.159 93.874 44.543 94.156 44.47 94.206 44.365 94.371"/>
  <path d="m10.868 306.33-0.07304-0.13576-0.08377 5e-3 -0.1545 0.0267-0.17176 0.041-0.15198 0.0469-0.03957 0.0164c-2.11e-4 0-4.21e-4 0-6.32e-4 2.1e-4l-0.03789 0.0156c-2.11e-4 0-4.21e-4 2.1e-4 -6.31e-4 4.2e-4l-0.01663 7e-3 -4.21e-4 0.21659v0.00221l-4.21e-4 0.1806 0.09093 0.44477 0.19513 0.55864 0.22986 0.60222 0.0341 0.0745c0 2.1e-4 4.21e-4 2.1e-4 4.21e-4 4.2e-4l0.21996 0.48014c0 6.3e-4 0 1e-3 4.21e-4 2e-3 4.21e-4 6.3e-4 8.42e-4 1e-3 0.0013 2e-3l0.28543 0.70978c0 2.1e-4 0 4.2e-4 2.11e-4 6.3e-4v2.1e-4l0.2467 0.62937 0.05157-0.0293c0.0015-8.4e-4 0.0027-8.4e-4 4e-3 -1e-3 0.0011-8.4e-4 0.0019-2e-3 0.0029-2e-3l0.13977-0.0636c8.42e-4 -4.2e-4 0.0017-2.1e-4 0.0023-6.3e-4 0.0011-2.1e-4 0.0015-1e-3 0.0027-1e-3l0.15492-0.0594c8.42e-4 -4.2e-4 0.0021-2.1e-4 0.0029-4.2e-4 8.42e-4 -4.2e-4 0.0013-1e-3 0.0023-1e-3l0.13998-0.0438c0.0017-4.2e-4 0.0032 0 0.0044-4.2e-4 0.0017-4.2e-4 0.0029-1e-3 0.0044-2e-3l0.03557-7e-3 -0.20418-0.64116c-4.21e-4 -2e-3 0-3e-3 -4.21e-4 -5e-3 -4.21e-4 -8.4e-4 -0.0013-1e-3 -0.0013-2e-3l-0.15303-0.67104s-2.1e-4 0-2.1e-4 -4.2e-4l-0.15008-0.63484v-2.2e-4l-0.13682-0.58895-0.17871-0.60137-0.19534-0.38394z" stroke-width=".21049"/>
 </g>
</svg>
