<svg version="1.1" viewBox="0 0 20 20" xmlns="http://www.w3.org/2000/svg">
 <g transform="translate(0 -291.71)" fill="#ffe680">
  <path d="m19.642 296.79-4.5514-4.5514c-0.36299-0.36299-0.94936-0.36299-1.3124 0l-13.403 13.403c-0.36299 0.36299-0.36299 0.94936 0 1.3124l4.5514 4.5514c0.36299 0.36299 0.94937 0.36299 1.3124 0l13.403-13.403c0.36299-0.363 0.36299-0.94937 0-1.3124zm-9.6333 9.6612c-0.19546 0.19546-0.53053 0.19546-0.72599 0l-3.8533-3.8533c-0.19546-0.19546-0.19546-0.53053 0-0.72598l4.5793-4.5793c0.19546-0.19545 0.53053-0.19545 0.72598 0l3.8254 3.8254c0.19546 0.19546 0.19546 0.53053 0 0.72598z" stroke-width=".27923"/>
  <g transform="matrix(.27923 0 0 .27923 -.043428 291.82)">
   <circle cx="48.6" cy="34.4" r="1.4"/>
   <circle cx="43.9" cy="39.1" r="1.4"/>
   <circle cx="39.1" cy="43.9" r="1.4"/>
   <circle cx="34.4" cy="48.6" r="1.4"/>
   <circle cx="41.3" cy="27.1" r="1.4"/>
   <circle cx="36.5" cy="31.8" r="1.4"/>
   <circle cx="31.8" cy="36.5" r="1.4"/>
   <circle cx="27.1" cy="41.3" r="1.4"/>
   <circle cx="42.6" cy="33.1" r="1.4"/>
   <circle cx="37.8" cy="37.8" r="1.4"/>
   <circle cx="33.1" cy="42.6" r="1.4"/>
   <circle cx="35.2" cy="25.8" r="1.4"/>
   <circle cx="30.5" cy="30.5" r="1.4"/>
   <circle cx="25.8" cy="35.2" r="1.4"/>
  </g>
 </g>
</svg>
