<svg version="1.1" viewBox="0 0 20 20" xmlns="http://www.w3.org/2000/svg">
 <g transform="matrix(.74241 0 0 .74241 -8.1558 -27.424)" fill="#ff0" stroke-width=".26458">
  <path d="m35.243 54.007c1.4491-0.73025 2.0267-2.499 1.2975-3.942-0.72655-1.4438-2.4953-2.0246-3.9452-1.2904-1.4454 0.73422-2.0227 2.4993-1.2935 3.9426 0.73237 1.443 2.4998 2.0241 3.9412 1.2898z"/>
  <path d="m35.936 55.399h-5.8333l-0.04419-4.9803c-0.04471-1.8677-0.31829-3.2335-1.1856-4.3712-0.7829-1.0316-1.5698-2.2789-4.9186-3.3253-4.9932-1.5629-8.9516 1.0234-9.4266 1.3203-1.5333 0.96335-1.9979 2.9856-1.0377 4.5217 0.16484 0.26141 0.36777 0.47916 0.58473 0.67522 0.02619 0.03439 0.03492 0.07646 0.06535 0.10742l5.2636 5.7486h-6.4299c-0.96494 0-1.7484 0.78211-1.7484 1.7465 0 0.96943 0.78343 1.7515 1.7484 1.7515h10.405c0.69427 0 1.3211-0.41037 1.6018-1.0459 0.19658-0.44476 0.18309-0.9361 4e-3 -1.3705-0.01879-0.3556-0.0934-0.71041-0.29395-1.0303l-3.9095-6.3082c0.48578-0.01693 0.99616 0.02937 1.5039 0.19658 1.4819 0.47308 2.5392 1.46 2.5411 1.46 0 0 0.17992 0.17515 0.26723 0.26564l1.7103 6.5257c0.01349 0.05556 0.04736 0.09499 0.06429 0.14499 0.03069 0.0807 0.0635 0.15875 0.10504 0.22992 0.06112 0.11694 0.1315 0.21828 0.21564 0.31327 0.05292 0.05927 0.09896 0.11906 0.15981 0.17066 0.10425 0.09393 0.2204 0.16272 0.34158 0.22622 0.06191 0.03413 0.11562 0.07303 0.18177 0.09816 0.19553 0.07699 0.40296 0.12435 0.62336 0.12435h7.4411c0.96467 0 1.7478-0.58976 1.7478-1.5544 0-0.96652-0.7829-1.6407-1.7478-1.6407z"/>
 </g>
</svg>
