<svg version="1.1" viewBox="0 0 25 25" xmlns="http://www.w3.org/2000/svg">
 <style/>
 <path d="m17.31 11.407c-2.1264 2.6567-6.0036 3.0862-8.6603 0.95979-0.35427-0.28294-0.67685-0.60552-0.95979-0.95979-0.1387-0.16961-0.38835-0.19418-0.55796-0.054687-0.16644 0.13632-0.19338 0.38043-0.061027 0.55004 1.2332 1.5399 3.0624 2.4847 5.0328 2.5964v7.7211h-8.0167c-0.15296 0-0.29325-0.08797-0.35824-0.22667-2.816-5.9553-3.0846-12.801-0.74421-18.96 0.058649-0.15376 0.20607-0.2552 0.37013-0.2552h18.291c0.16485 0 0.31227 0.10145 0.37092 0.2552 2.3404 6.159 2.071 13.004-0.74421 18.96-0.06578 0.1387-0.20527 0.22667-0.35824 0.22667h-8.0175v-7.7211c1.9695-0.11254 3.7995-1.0565 5.0328-2.5964 0.13553-0.17278 0.10541-0.42164-0.06658-0.55638-0.1704-0.13474-0.41609-0.10779-0.55241 0.06024z" fill="#fff" stroke-width=".79256" connector-curvature="0"/>
</svg>
