<svg version="1.1" viewBox="0 0 20 20" xmlns="http://www.w3.org/2000/svg">
 <g id="bgs">
  <path d="m0 0.037879h20v20h-20v-20z" style="fill:#2d5016"/>
  <path d="m20 20.038c-5.7771-0.86865-11.554-1.7373-17.331-2.606-0.88959-5.798-1.7792-11.596-2.6688-17.394 5.8399 0.85819 11.68 1.7164 17.52 2.5746 0.82679 5.8085 1.6536 11.617 2.4804 17.425z" style="fill-rule:evenodd;fill:#ffffff"/>
  <g transform="matrix(.32942 0 0 .32942 1.8519 2.2469)" style="fill:#008000">
   <path d="m30.5 1h-25c-2.5 0-4.5 2-4.5 4.5v37c0 2.5 2 4.5 4.5 4.5h25c2.5 0 4.5-2 4.5-4.5v-37c0-2.5-2-4.5-4.5-4.5zm-17.5 38.1c0 1.1-0.9 1.9-1.9 1.9h-2.2c-1 0-1.9-0.9-1.9-1.9v-2.1c0-1.1 0.9-2 1.9-2h2.1c1.1 0 1.9 0.9 1.9 1.9v2.2zm0-8c0 1.1-0.9 1.9-1.9 1.9h-2.2c-1 0-1.9-0.9-1.9-1.9v-2.1c0-1.1 0.9-2 1.9-2h2.1c1.1 0 1.9 0.9 1.9 1.9v2.2zm0-8c0 1.1-0.9 1.9-1.9 1.9h-2.2c-1 0-1.9-0.9-1.9-1.9v-2.1c0-1.1 0.9-2 1.9-2h2.1c1.1 0 1.9 0.9 1.9 1.9v2.2zm8 16c0 1.1-0.9 1.9-1.9 1.9h-2.1c-1.1 0-1.9-0.9-1.9-1.9v-2.1c0-1.1 0.9-1.9 1.9-1.9h2.1c1.1 0 1.9 0.9 1.9 1.9zm0-8c0 1.1-0.9 1.9-1.9 1.9h-2.1c-1.1 0-1.9-0.9-1.9-1.9v-2.1c0-1.1 0.9-1.9 1.9-1.9h2.1c1.1 0 1.9 0.9 1.9 1.9zm0-8c0 1.1-0.9 1.9-1.9 1.9h-2.1c-1.1 0-1.9-0.9-1.9-1.9v-2.1c0-1.1 0.9-1.9 1.9-1.9h2.1c1.1 0 1.9 0.9 1.9 1.9zm8 16c0 1.1-0.9 1.9-1.9 1.9h-2.1c-1.1 0-1.9-0.9-1.9-1.9v-2.1c0-1.1 0.9-1.9 1.9-1.9h2.1c1.1 0 1.9 0.9 1.9 1.9zm0-8c0 1.1-0.9 1.9-1.9 1.9h-2.1c-1.1 0-1.9-0.9-1.9-1.9v-2.1c0-1.1 0.9-1.9 1.9-1.9h2.1c1.1 0 1.9 0.9 1.9 1.9zm0-8c0 1.1-0.9 1.9-1.9 1.9h-2.1c-1.1 0-1.9-0.9-1.9-1.9v-2.1c0-1.1 0.9-1.9 1.9-1.9h2.1c1.1 0 1.9 0.9 1.9 1.9zm2-11.5c0 1.9-1.5 3.4-3.4 3.4h-19.2c-1.9 0-3.4-1.5-3.4-3.4v-3.2c0-1.9 1.5-3.4 3.4-3.4h19.2c1.9 0 3.4 1.5 3.4 3.4z" style="fill:#008000"/>
   <path d="m39 40.5 3.7-1.5c0.2-0.1 0.4-0.1 0.6 0l3.7 1.5v-29.5h-8z" style="fill:#008000"/>
   <rect x="39" y="8" width="8" height="1" style="fill:#008000"/>
   <path d="m45.8 2.2c-1.5-1.5-4.1-1.5-5.7 0-0.7 0.7-1.1 1.7-1.1 2.8v1h8v-1c0-1.1-0.4-2.1-1.2-2.8z" style="fill:#008000"/>
   <path d="m39.7 42.4 2.5 4.1c0.2 0.3 0.5 0.5 0.9 0.5s0.7-0.2 0.9-0.5l2.5-4.1-3.5-1.3z" style="fill:#008000"/>
  </g>
 </g>
</svg>
