<?xml version="1.0" encoding="UTF-8" standalone="no"?>
<svg
   xmlns:dc="http://purl.org/dc/elements/1.1/"
   xmlns:cc="http://creativecommons.org/ns#"
   xmlns:rdf="http://www.w3.org/1999/02/22-rdf-syntax-ns#"
   xmlns:svg="http://www.w3.org/2000/svg"
   xmlns="http://www.w3.org/2000/svg"
   xmlns:sodipodi="http://sodipodi.sourceforge.net/DTD/sodipodi-0.dtd"
   xmlns:inkscape="http://www.inkscape.org/namespaces/inkscape"
   width="20"
   height="20"
   viewBox="0 0 20 20"
   version="1.1"
   id="svg838"
   inkscape:version="1.0.1 (3bc2e813f5, 2020-09-07)"
   sodipodi:docname="gender_herm.svg">
  <defs
     id="defs832" />
  <sodipodi:namedview
     id="base"
     pagecolor="#ffffff"
     bordercolor="#666666"
     borderopacity="1.0"
     inkscape:pageopacity="0.0"
     inkscape:pageshadow="2"
     inkscape:zoom="22.4"
     inkscape:cx="11.042348"
     inkscape:cy="5.5862502"
     inkscape:document-units="mm"
     inkscape:current-layer="layer1"
     inkscape:document-rotation="0"
     showgrid="false"
     units="px"
     inkscape:window-width="1298"
     inkscape:window-height="1040"
     inkscape:window-x="52"
     inkscape:window-y="0"
     inkscape:window-maximized="0"
     inkscape:pagecheckerboard="true" />
  <metadata
     id="metadata835">
    <rdf:RDF>
      <cc:Work
         rdf:about="">
        <dc:format>image/svg+xml</dc:format>
        <dc:type
           rdf:resource="http://purl.org/dc/dcmitype/StillImage" />
        <dc:title></dc:title>
      </cc:Work>
    </rdf:RDF>
  </metadata>
  <g
     inkscape:label="Layer 1"
     inkscape:groupmode="layer"
     id="layer1">
    <rect
       style="opacity:1;fill:#ffd42a;fill-opacity:1;stroke:none;stroke-width:1.98922;stroke-miterlimit:4;stroke-dasharray:none;stroke-opacity:1"
       id="rect1494-5"
       width="19.999998"
       height="20"
       x="5.7367436e-07"
       y="0" />
    <path
       style="opacity:1;fill:#ffffff;fill-opacity:1;fill-rule:evenodd;stroke:none;stroke-width:0.99461px;stroke-linecap:butt;stroke-linejoin:miter;stroke-opacity:1"
       d="M 20,19.999998 2.668761,17.394038 0,1.4652797e-6 17.519625,2.5745688 Z"
       id="path1496-3"
       inkscape:connector-curvature="0"
       inkscape:export-xdpi="119.35343"
       inkscape:export-ydpi="119.35343" />
    <path
       id="path1551"
       d="m 14.956059,8.464036 c 0,-1.761248 -0.921585,-3.317699 -2.314198,-4.198314 1.187819,-0.75775 2.04796,-2.0069974 2.273239,-3.481531 h -1.556451 c -0.34817,1.5359698 -1.720286,2.703303 -3.358651,2.703303 0,0 0,0 0,0 0,0 0,0 0,0 -1.638365,0 -3.010496,-1.1673332 -3.338169,-2.703303 H 5.0849 c 0.204813,1.4540523 1.064939,2.723781 2.273231,3.481531 -1.392609,0.880615 -2.31419,2.437066 -2.31419,4.198314 0,2.498506 1.843166,4.566943 4.239273,4.915098 v 1.61788 H 6.661829 v 1.59741 h 2.641867 v 2.621385 h 1.597406 v -2.641863 h 2.641867 v -1.59741 H 10.88062 v -1.638364 c 2.314194,-0.409595 4.075439,-2.43707 4.075439,-4.874136 z m -8.376148,0 c 0,-1.884125 1.535966,-3.420091 3.420087,-3.420091 0,0 0,0 0,0 0,0 0,0 0,0 1.884121,0 3.420091,1.535966 3.420091,3.420091 0,1.884117 -1.53597,3.420087 -3.420091,3.420087 -1.884121,0 -3.420087,-1.53597 -3.420087,-3.420087 z"
       inkscape:connector-curvature="0"
       style="fill:#000000;stroke-width:0.204796" />
  </g>
</svg>
