<svg version="1.1" viewBox="0 0 20 20" xmlns="http://www.w3.org/2000/svg">
 <defs>
  <clipPath id="clipPath826">
   <path d="m-2.4433 21.901 24.125-23.5-0.125 24.125z" fill="none" stroke="#000" stroke-width="1px"/>
  </clipPath>
 </defs>
 <g id="bgs">
  <path d="m0 0.037879h20v20h-20v-20z" fill="#008000"/>
  <path d="m20 20.038c-5.7771-0.86865-11.554-1.7373-17.331-2.606-0.88959-5.798-1.7792-11.596-2.6688-17.394 5.8399 0.85819 11.68 1.7164 17.52 2.5746 0.82679 5.8085 1.6536 11.617 2.4804 17.425z" fill="#0f0" fill-rule="evenodd"/>
  <g clip-path="url(#clipPath826)">
   <path d="m0 0.037879h20v20h-20v-20z" fill="#a00"/>
   <path d="m20 20.038c-5.7771-0.86865-11.554-1.7373-17.331-2.606-0.88959-5.798-1.7792-11.596-2.6688-17.394 5.8399 0.85819 11.68 1.7164 17.52 2.5746 0.82679 5.8085 1.6536 11.617 2.4804 17.425z" fill="#ff8080" fill-rule="evenodd"/>
  </g>
 </g>
</svg>
