<svg version="1.1" viewBox="0 0 20 20" xmlns="http://www.w3.org/2000/svg">
 <path d="m20.056 5.3177-3.0591 9.5283c-0.05017 0.13373-0.16716 0.23403-0.31761 0.23403h-13.273c-0.15045 0-0.26746-0.1003-0.31761-0.23403l-3.0591-9.5283c-0.05017-0.18388 0.033419-0.36776 0.21731-0.41791 0.16716-0.050149 0.36776 0.03344 0.41791 0.21731l1.0531 3.2597c0.01674 0.01672 0.050169 0.03344 0.066869 0.050149 0.56835 0.50149 1.4209 0.50149 1.9725 0 0.8191-0.73552 2.0561-0.73552 2.8752 0 0.56836 0.50149 1.4209 0.50149 1.9725 0 0.8191-0.73552 2.0561-0.73552 2.8752 0 0.56835 0.50149 1.4209 0.50149 1.9725 0 0.8191-0.73552 2.0561-0.73552 2.8752 0 0.56835 0.50149 1.4209 0.50149 1.9725 0 0.01674-0.01672 0.05017-0.03344 0.06686-0.050149l1.0531-3.2597c0.05017-0.16716 0.25074-0.26746 0.41791-0.21731 0.18388 0.050149 0.26746 0.23403 0.21731 0.41791z" fill="#0ff" stroke-width=".16716" style="fill:#000000"/>
</svg>
