<svg version="1.1" viewBox="0 0 20 20" xmlns="http://www.w3.org/2000/svg">
 <path d="m19.935 13.522c-0.37879-0.79545-1.2424-3.4432-1.25-3.4697a11.867 11.867 0 0 1-0.53409-2.2727 0.56439 0.56439 0 0 0-0.31439-0.48863c-0.32576-0.25379-0.98863-0.55303-2.3409-0.87499l-0.32197-0.071968a2.1288 2.1288 0 0 0-1.3333-0.82575v-0.094702a1.2576 1.2576 0 0 0-2-1.0151 3.2462 3.2462 0 0 0-4.8333 1.2311 2.0265 2.0265 0 0 0-0.65151-0.10605 2.0985 2.0985 0 0 0-1.6742 0.8409l-0.16288 0.037883c-1.3523 0.32197-2.0151 0.62121-2.3409 0.87499a0.56439 0.56439 0 0 0-0.31439 0.48863 11.864 11.864 0 0 1-0.53409 2.2727c0 0.02652-0.91287 2.7272-1.2576 3.4886a0.56818 0.56818 0 0 0 0 0.5c0.84469 1.5757 6.6401 1.9962 9.9355 1.9962s9.0908-0.42045 9.9204-1.9962a0.56818 0.56818 0 0 0 0.0076-0.51515zm-13.576-7.2234a1.322 1.322 0 0 1 0.66287 0.1856l0.40151 0.23106 0.14394-0.43939a2.4924 2.4924 0 0 1 4.0416-1.0682l0.31439 0.28409 0.24621-0.34848a0.49621 0.49621 0 0 1 0.40909-0.21212 0.5 0.5 0 0 1 0.5 0.5 0.49242 0.49242 0 0 1-0.07197 0.25379l-0.37879 0.62878 0.73106-0.056821h0.0947a1.375 1.375 0 0 1 1.3295 1.0417l0.07954 0.30681 0.37878-0.026519a0.5 0.5 0 0 1 0.48864 0.5 0.48106 0.48106 0 0 1-0.026519 0.125 21.174 21.174 0 0 1-5.6818 0.64393 24.132 24.132 0 0 1-4.7803-0.42045l-0.045449-0.098481-0.071968-0.18561a1.3371 1.3371 0 0 1 1.25-1.8295zm-2.2727 1.8257 0.24242 0.075759-0.23485-0.071968zm-0.26136-0.090909h-0.018946l0.15151 0.05303-0.075759-0.026519zm0.045449-0.25757-0.060604 0.018946zm-0.15909 0.21591h-0.034084l-0.17424-0.10228zm12.735-0.10228h0.04546z" fill="#f00" stroke-width=".37878" style="fill:#000000"/>
</svg>
