<svg version="1.1" viewBox="0 0 20 20" xmlns="http://www.w3.org/2000/svg">
 <path d="m15.591 13.085c-1.7013 0-3.0809 1.3788-3.0809 3.081 0 0.27127 0.04659 0.52962 0.11229 0.78029h-10.186c-0.6832 0-0.91481 0.30865-0.91481 1.0882 0 1.2207 1.7885 2.0583 2.7675 2.0583h7.2302c0.75434 0 1.981-0.49986 2.5076-1.2864 0.4601 0.273 0.99041 0.44035 1.5645 0.44035 1.702 0 3.0809-1.3796 3.0809-3.0808 0-1.7022-1.3788-3.081-3.0809-3.081zm0 4.5964c-0.83539 0-1.5156-0.68008-1.5156-1.5154 0-0.83559 0.68018-1.5157 1.5156-1.5157 0.8353 0 1.5155 0.68008 1.5155 1.5157 0 0.83525-0.68018 1.5154-1.5155 1.5154z" fill="#c87137" stroke-width=".049511" style="fill:#000000"/>
 <path d="m10.437 6.6137h-0.72459c0.54724-0.49565 0.89798-1.2038 0.89798-1.9982 0-0.96081-0.47085-1.4606-0.88664-1.9016-0.45312-0.48144-0.84441-0.89728-0.84441-2.054 0-0.18537-0.087882-0.35999-0.23631-0.47085-0.14977-0.11115-0.34152-0.14522-0.51882-0.091248-1.9963 0.59764-2.9264 3.0492-2.9264 4.5177 0 0.79445 0.34994 1.5026 0.89718 1.9982h-0.7237c-0.85911 0-1.784 0.6374-1.784 2.0372v3.1199c0 0.26142 0.17289 0.4907 0.42347 0.56333 0.13848 0.04119 0.27974 0.02436 0.40371-0.03144v3.4761h6.9795v-2.9449c0.45931-0.17958 0.70998-0.54571 0.7949-0.78955 0.02139-0.061 0.03208-0.12605 0.03208-0.19185v-3.3216c-5e-5 -1.0569-0.80024-1.9172-1.7839-1.9172zm-2.6491-5.0377c0.19418 1.0007 0.69478 1.5315 1.0814 1.9428 0.3539 0.37524 0.56715 0.6018 0.56715 1.0967 0 0.43064-0.18037 0.81886-0.46699 1.0975 8.113e-4 -0.016835 0.00456-0.032134 0.00456-0.048918 0-0.59071-0.47916-1.0705-1.0707-1.0705-0.59086 0-1.0701 0.47976-1.0701 1.0705 0 0.016784 0.00375 0.032083 0.00467 0.048523-0.28662-0.2786-0.46619-0.66646-0.46619-1.0971 0-0.81787 0.47293-2.3063 1.4162-3.0395zm3.259 10.117c-0.0412 0.03916-0.11546 0.07575-0.24622 0.07575-0.27513 0-0.91709-0.15665-2.1323-1.2061-0.67562-0.58279-1.3856-0.87837-2.1102-0.87837-0.71761 0-1.3259 0.29107-1.7969 0.63696v-1.6708c0-0.32246 0.079564-0.86327 0.60997-0.86327h5.0658c0.33623 0 0.60987 0.33355 0.60987 0.74326z" fill="#f60" stroke-width=".049511" style="fill:#000000"/>
</svg>
