<svg version="1.1" viewBox="0 0 20 20" xmlns="http://www.w3.org/2000/svg">
 <g fill="#2a7fff" stroke-width=".34609" style="fill:#000000">
  <path d="m12.279 3.7695c-0.85451-0.079256-1.6474-0.44992-2.2621-1.0642l-0.16059-0.16093-0.16059 0.16093c-0.61432 0.61432-1.4076 0.98533-2.2621 1.0642v1.0542c0 1.3356 1.0867 2.4227 2.4227 2.4227 1.3359 0 2.4227-1.0871 2.4227-2.4227z" style="fill:#000000"/>
  <path d="m8.1255 7.4118c-0.83409-0.55963-1.3844-1.5107-1.3844-2.5881v-1.7305h0.34609c0.80017 0 1.5526-0.31148 2.1188-0.87735l0.64996-0.65031 0.64996 0.65031c0.56621 0.56586 1.3186 0.87735 2.1188 0.87735h0.34609v1.7305c0 1.0777-0.55029 2.0288-1.3844 2.5881v1.2947l2.0766 0.51914v-5.4402c0-2.0991-1.708-3.807-3.807-3.807-2.0991 0-3.807 1.708-3.807 3.807v5.4402l2.0766-0.51914z" style="fill:#000000"/>
  <path d="m5.3568 12.784c0-1.3356 1.0867-2.4227 2.4227-2.4227v0.69219c-0.95418 0-1.7305 0.77629-1.7305 1.7305s0.77629 1.7305 1.7305 1.7305c0.95418 0 1.7305-0.77629 1.7305-1.7305h0.69219c0 0.95418 0.77629 1.7305 1.7305 1.7305s1.7305-0.77629 1.7305-1.7305-0.77629-1.7305-1.7305-1.7305v-0.69219c1.3359 0 2.4227 1.0871 2.4227 2.4227 0 0.3717-0.08687 0.72299-0.23707 1.0383h0.92926v-2.9961c0-0.31841-0.21562-0.59459-0.52433-0.67177l-3.6288-0.90711v-1.4903c-0.32533 0.1156-0.67384 0.1817-1.0383 0.1817-0.36444 0-0.71295-0.066104-1.0383-0.1817v1.4903l-3.6288 0.90677c-0.30872 0.077525-0.52433 0.35371-0.52433 0.67211v2.9961h0.92926c-0.1502-0.31529-0.23707-0.66658-0.23707-1.0383zm6.5758-0.34609c0.19104 0 0.34609 0.15505 0.34609 0.34609s-0.15505 0.34609-0.34609 0.34609-0.34609-0.15505-0.34609-0.34609 0.15505-0.34609 0.34609-0.34609zm-2.4227-2.0766h0.69219v1.7305h-0.69219zm-1.3844 2.4227c0 0.19104-0.15505 0.34609-0.34609 0.34609s-0.34609-0.15505-0.34609-0.34609 0.15505-0.34609 0.34609-0.34609 0.34609 0.15505 0.34609 0.34609z" style="fill:#000000"/>
  <rect x="2.2419" y="18.667" width="15.228" height="1.3844" style="fill:#000000"/>
  <rect x="1.5497" y="17.283" width="16.613" height=".69219" style="fill:#000000"/>
  <path d="m9.856 14.025c-0.42396 0.70603-1.1947 1.1812-2.0766 1.1812-0.43054 0-0.83478-0.11421-1.1854-0.31218 0.26788 0.52745 0.43262 1.1061 0.47899 1.6966h5.5659c0.04638-0.59044 0.21112-1.1691 0.47899-1.6966-0.35059 0.19796-0.75448 0.31218-1.1854 0.31218-0.88185 0-1.6526-0.47519-2.0766-1.1812z" style="fill:#000000"/>
 </g>
</svg>
