<svg version="1.1" viewBox="0 0 20 20" xmlns="http://www.w3.org/2000/svg">
 <path class="fil0" d="m17.352 3.2117c-0.65435 0.54965-1.2302 1.1778-1.7013 1.8845l0.99461 0.57583-0.602 0.99461-0.96844-0.54965c-0.18322 0.31409-0.31409 0.68052-0.41878 1.0208l1.0731 0.28791-0.28791 1.1517-1.0993-0.28791c-0.07852 0.34026-0.1047 0.73287-0.13087 1.0993h1.1255v1.1778h-1.1255c0.02617 0.36644 0.05235 0.73287 0.13087 1.0993l1.0993-0.28791 0.28791 1.1255-1.0731 0.28791c0.1047 0.36644 0.23557 0.7067 0.41878 1.047l0.96844-0.57583 0.602 1.0208-0.99461 0.57583c0.47113 0.68052 1.047 1.3087 1.7013 1.8584 3.5858-3.8738 3.5858-9.6059 0-13.506zm-2.6959 12.223-1.047 0.602-0.602-1.0208 1.047-0.602c-0.20939-0.41878-0.39261-0.86374-0.54966-1.3087l-1.1517 0.31409-0.31409-1.1255 1.1778-0.31409c-0.1047-0.47113-0.15704-0.94226-0.18322-1.4134h-1.2302v-1.1778h1.2302c0.02617-0.47113 0.07852-0.94226 0.18322-1.4134l-1.1778-0.31409 0.31409-1.1255 1.1517 0.31409c0.15704-0.47113 0.34026-0.88992 0.54966-1.3349l-1.047-0.602 0.602-0.99461 1.047 0.602c0.49731-0.78522 1.1517-1.4919 1.8584-2.1201-3.7952-3.2194-9.1347-3.2194-12.904 0.026174 0.7067 0.602 1.3349 1.3087 1.8584 2.0939l1.047-0.602 0.57583 0.99461-1.0208 0.602c0.20939 0.41878 0.39261 0.86374 0.54965 1.3349l1.1517-0.31409 0.31409 1.1255-1.1778 0.31409c0.078522 0.47113 0.15704 0.94226 0.18322 1.4134h1.204v1.1778h-1.1778c-0.052348 0.47113-0.1047 0.94226-0.20939 1.4134l1.1778 0.31409-0.31409 1.1255-1.1517-0.31409c-0.15704 0.47113-0.34026 0.88992-0.54965 1.3349l1.0208 0.57583-0.57583 1.0208-1.0208-0.602c-0.52348 0.78522-1.1517 1.4919-1.8845 2.1201 3.7952 3.2194 9.1086 3.2194 12.904-0.02617-0.7067-0.602-1.361-1.3087-1.8584-2.0939zm-10.182-0.57583-0.99461-0.57583 0.57583-1.0208 0.99461 0.57583c0.18322-0.34026 0.31409-0.68052 0.44496-1.0208l-1.1255-0.31409 0.31409-1.1255 1.0993 0.28791c0.078522-0.36644 0.13087-0.73287 0.15704-1.0993h-1.1517v-1.1778h1.1255c-0.026174-0.36644-0.078522-0.75905-0.13087-1.0993l-1.0993 0.28791-0.31409-1.1255 1.0993-0.31409c-0.1047-0.34026-0.26174-0.7067-0.41878-1.047l-0.99461 0.57583-0.57583-0.99461 0.96844-0.57583c-0.44496-0.7067-1.047-1.3349-1.6751-1.8584-3.612 3.8738-3.612 9.6059 0 13.506 0.65435-0.54965 1.2302-1.1778 1.7013-1.8845z" clip-rule="evenodd" fill="#ff7f2a" fill-rule="evenodd" image-rendering="optimizeQuality" shape-rendering="geometricPrecision" stroke-width=".026174" style="fill:#000000"/>
</svg>
