<svg version="1.1" viewBox="0 0 20 20" xmlns="http://www.w3.org/2000/svg">
 <path d="m1.7536 7.5225v11.542h1.1399v0.59013c0 0.16462 0.13356 0.29817 0.29817 0.29817h0.9908c0.16462 0 0.29817-0.13356 0.29817-0.29817v-0.59013h11.691v0.59013c0 0.16462 0.13356 0.29817 0.29817 0.29817h0.9908c0.16462 0 0.29817-0.13356 0.29817-0.29817v-0.59013h0.50627v-11.542l-8.2556-5.2025zm1.0933 0.84171h0.97837l-0.97837 0.97837zm0 1.7952 1.7952-1.7952h0.84792l-2.6432 2.6432zm0 1.6679 3.4631-3.4631h0.84792l-4.3111 4.3111zm0 1.6648 5.1279-5.1279h0.84792l-5.9758 5.9758zm0 1.6648 6.7927-6.7927h0.85103l-7.6437 7.6437zm8.2276 2.814h-1.0436l1.0436-1.0467zm0-1.8667-1.8636 1.8667h-0.84482l2.7084-2.7115zm0-1.6648-3.5315 3.5315h-0.84482l4.3763-4.3794zm0-1.6648-5.1962 5.1962h-0.84482l6.0411-6.0442zm0-1.6648-6.861 6.861h-0.84792l7.709-7.7121zm0-1.6648-8.2276 8.2276v-0.85103l8.2276-8.2276zm6.097 8.4854h-5.5162v-9.5756h5.5162zm-6.42-13.856c0.15219-0.23916 0.469-0.26711 0.65536-0.080754 0.05591 0.052801 0.09007 0.11803 0.10871 0.18636 0.01553 0.052801 0.0528 0.090072 0.1056 0.1056 0.06833 0.018634 0.13045 0.052801 0.18325 0.1056 0.18946 0.18946 0.16151 0.50938-0.08075 0.65846-0.13356 0.08386-0.3106 0.077649-0.44415-0.00932-0.02795-0.018634-0.04969-0.040375-0.07144-0.062119l-0.81065 0.81376 0.81065 0.81065c0-0.0031 0.0031-0.00621 0.0031-0.00621 0.18636-0.18636 0.50627-0.16151 0.65536 0.080754 0.08386 0.13045 0.08386 0.31059-0.0062 0.44104-0.05901 0.093178-0.14598 0.15219-0.23916 0.17704-0.0528 0.015528-0.09318 0.055907-0.10871 0.10871-0.02485 0.093178-0.08075 0.17704-0.17393 0.23916-0.13045 0.086966-0.30749 0.090072-0.44104 0.00932-0.24228-0.15219-0.27024-0.47211-0.083878-0.65846 0.0031-0.0031 0.0031-0.0031 0.0062-0.00621l-0.81065-0.81065-0.81065 0.81065 0.00621 0.00621c0.18637 0.18636 0.15842 0.50627-0.083845 0.65846-0.13356 0.080755-0.31059 0.077649-0.44104-0.0093196-0.093178-0.062119-0.14909-0.14598-0.17393-0.23916-0.015528-0.052801-0.055907-0.093178-0.10871-0.10871-0.093178-0.024847-0.18014-0.08386-0.23916-0.17704-0.090072-0.13045-0.090072-0.31059-0.006213-0.44104 0.14909-0.24226 0.469-0.26711 0.65535-0.080754 0 0 0.0031 0.0031 0.0031 0.00621l0.81375-0.81065-0.81376-0.81376c-0.021741 0.021741-0.043481 0.043481-0.071437 0.062119-0.13356 0.086967-0.31059 0.093178-0.44415 0.0093193-0.24226-0.14909-0.27022-0.469-0.080755-0.65846 0.052801-0.052801 0.11492-0.086966 0.18325-0.1056 0.052801-0.015533 0.090072-0.052801 0.1056-0.1056 0.018634-0.068331 0.052801-0.13356 0.10871-0.18636 0.18636-0.18636 0.50316-0.1584 0.65535 0.080754 0.08386 0.13356 0.080754 0.31059-0.00621 0.44415-0.018634 0.027954-0.040375 0.052801-0.062119 0.074543l0.81065 0.81065 0.81065-0.81065c-0.02174-0.021741-0.04349-0.046588-0.06212-0.074543-0.08697-0.13356-0.09007-0.31059-0.0062-0.44415z" fill="#ccc" stroke-width=".31059" style="fill:#000000"/>
 <path d="m19.677 6.3096-9.6676-6.0923-9.6676 6.0923c-0.27394 0.17052-0.35252 0.53018-0.18201 0.79761 0.17052 0.27177 0.52584 0.35284 0.79761 0.18232l9.052-5.7053 9.052 5.7053c0.26556 0.16896 0.62554 0.09411 0.79761-0.18201 0.17052-0.26898 0.08945-0.6274-0.18201-0.79792z" fill="#ff8080" stroke-width=".31059" style="fill:#000000"/>
</svg>
