<svg version="1.1" viewBox="0 0 20 20" xmlns="http://www.w3.org/2000/svg">
 <path d="m1.513 3.7669c-0.24783 0.00153-0.47973 0.020055-0.62997 0.020055-0.64797 0-0.89879 0.25082-0.89879 0.89879v10.347c0 0.43895 0.14632 0.8988 0.60616 0.8988h1.5259c0.27173 0 0.56436-0.29263 0.56436-0.54346v-2.1947h14.59c0 0.50165-0.08361 2.132 0.12542 2.4456 0.08361 0.12541 0.29263 0.29263 0.48075 0.29263h1.5259c0.27173 0 0.56436-0.29263 0.56436-0.54346v-4.2431c0-0.37624-0.31353-0.64797-0.68977-0.64797h-16.596v-6.1243c0-0.5317-0.6224-0.60895-1.1676-0.6053zm1.8992 1.9012v4.0968h3.7624c0-0.27173 0.10451-0.54346-0.0209-1.2123-0.06271-0.27173-0.12541-0.43895-0.20902-0.68977-0.41804-1.1914-1.7767-2.1947-3.2816-2.1947zm4.0968 1.6304c0.0209 0.14631 0.08361 0.27173 0.14631 0.41804 0.14632 0.37624 0.29263 1.0451 0.29263 1.4632 0 0.25082-0.04181 0.31353-0.04181 0.58526h11.371v-1.8812c0-0.48075-0.50165-0.58526-0.9406-0.58526z" clip-rule="evenodd" fill="#ffb380" fill-rule="evenodd" image-rendering="optimizeQuality" shape-rendering="geometricPrecision" style="fill:#000000"/>
</svg>
