<svg version="1.1" viewBox="0 0 20 20" xmlns="http://www.w3.org/2000/svg">
 <g fill="#5f5" style="fill:#000000">
  <g stroke-width=".15681" style="fill:#000000">
   <circle cx="19.712" cy="6.1948" r=".31363" style="fill:#000000"/>
   <circle cx="19.712" cy="8.8607" r=".31363" style="fill:#000000"/>
   <circle cx="19.712" cy="11.526" r=".31363" style="fill:#000000"/>
   <circle cx="19.712" cy="14.192" r=".31363" style="fill:#000000"/>
   <circle cx="19.712" cy="4.3131" r=".31363" style="fill:#000000"/>
   <circle cx="19.712" cy="16.231" r=".31363" style="fill:#000000"/>
  </g>
  <polygon transform="matrix(.15681 0 0 .15681 -.0467 -.23449)" points="78.39 41 76 39.4 73.61 41 76 42.6" style="fill:#000000"/>
  <g stroke-width=".15681" style="fill:#000000">
   <path d="m18.457 11.213h-1.427l-0.25874-0.47044a0.31363 0.31363 0 0 0-0.27442-0.15681h-0.78406a0.31363 0.31363 0 0 0-0.27442 0.15681l-0.39203 0.70566a0.31363 0.31363 0 0 0 0 0.30422l0.39203 0.70565a0.31363 0.31363 0 0 0 0.27442 0.15682h0.78406a0.31363 0.31363 0 0 0 0.27442-0.15682l0.34656-0.62725h1.3392a0.31363 0.31363 0 0 0 0-0.62725zm-2.1452 0.78407h-0.41399l-0.21797-0.39203 0.21797-0.39203h0.41399l0.21797 0.39203z" style="fill:#000000"/>
   <path d="m18.457 8.547h-1.427l-0.25874-0.47044a0.31363 0.31363 0 0 0-0.27442-0.15682h-0.78406a0.31363 0.31363 0 0 0-0.27442 0.15682l-0.39203 0.70565a0.31363 0.31363 0 0 0 0 0.30422l0.39203 0.70566a0.31363 0.31363 0 0 0 0.27442 0.15681h0.78406a0.31363 0.31363 0 0 0 0.27442-0.15681l0.34656-0.62726h1.3392a0.31363 0.31363 0 0 0 0-0.62725zm-2.1452 0.78406h-0.41399l-0.21797-0.39203 0.21797-0.39203h0.41399l0.21797 0.39203z" style="fill:#000000"/>
   <path d="m18.457 13.879h-1.427l-0.25874-0.47044a0.31363 0.31363 0 0 0-0.27442-0.15681h-0.78406a0.31363 0.31363 0 0 0-0.27442 0.15681l-0.39203 0.70566a0.31363 0.31363 0 0 0 0 0.30422l0.39203 0.70566a0.31363 0.31363 0 0 0 0.27442 0.15681h0.78406a0.31363 0.31363 0 0 0 0.27442-0.15681l0.34656-0.62725h1.3392a0.31363 0.31363 0 0 0 0-0.62726zm-2.1452 0.78407h-0.41399l-0.21797-0.39203 0.21797-0.39203h0.41399l0.21797 0.39203z" style="fill:#000000"/>
   <path d="m18.457 5.8812h-1.427l-0.25874-0.47044a0.31363 0.31363 0 0 0-0.27442-0.15681h-0.78406a0.31363 0.31363 0 0 0-0.27442 0.15681l-0.39203 0.70565a0.31363 0.31363 0 0 0 0 0.30422l0.39203 0.70565a0.31363 0.31363 0 0 0 0.27442 0.15681h0.78406a0.31363 0.31363 0 0 0 0.27442-0.15681l0.34656-0.62725h1.3392a0.31363 0.31363 0 0 0 0-0.62726zm-2.1452 0.78407h-0.41399l-0.21797-0.39203 0.21797-0.39203h0.41399l0.21797 0.39203z" style="fill:#000000"/>
   <path d="m18.457 3.9995h-14.328a2.1954 2.1954 0 0 0-4.1759 0.94088v9.4087a2.1954 2.1954 0 0 0 2.1954 2.1954h16.309a0.31363 0.31363 0 0 0 0-0.62726h-2.7442a0.94088 0.94088 0 0 1-0.82327-0.48455l-0.39203-0.70566a0.93147 0.93147 0 0 1 0-0.91265l0.39046-0.70566a0.8907 0.8907 0 0 1 0.11918-0.17093 0.8907 0.8907 0 0 1-0.12231-0.17093l-0.39203-0.70566a0.93147 0.93147 0 0 1 0-0.91265l0.39046-0.70566a0.8907 0.8907 0 0 1 0.12388-0.17093 0.8907 0.8907 0 0 1-0.12231-0.17092l-0.39203-0.70566a0.93147 0.93147 0 0 1 0-0.91265l0.39046-0.70566a0.8907 0.8907 0 0 1 0.12388-0.17092 0.8907 0.8907 0 0 1-0.12231-0.17093l-0.39203-0.70565a0.93147 0.93147 0 0 1 0-0.91265l0.39046-0.70565a0.94088 0.94088 0 0 1 0.82954-0.48456h2.7442a0.31363 0.31363 0 0 0 0-0.62725zm-16.309 11.918a1.5681 1.5681 0 1 1 1.5681-1.5681 1.5681 1.5681 0 0 1-1.5681 1.5681zm1.5681-3.1018a2.1954 2.1954 0 0 0-3.1363 0v-7.8751a1.5681 1.5681 0 0 1 3.1363 0zm7.0393-6.8809 0.94088-0.62726a0.31363 0.31363 0 0 1 0.34812 0l0.94088 0.62726a0.31363 0.31363 0 0 1 0 0.52061l-0.94088 0.62726a0.31363 0.31363 0 0 1-0.34812 0l-0.94088-0.62726a0.31363 0.31363 0 0 1 0-0.52061zm-4.3908 0 0.94088-0.62726a0.31363 0.31363 0 0 1 0.34812 0l0.94088 0.62726a0.31363 0.31363 0 0 1 0 0.52061l-0.94088 0.62726a0.31363 0.31363 0 0 1-0.34812 0l-0.94088-0.62726a0.31363 0.31363 0 0 1 0-0.52061zm2.2299 8.6749-0.94088 0.62725a0.31363 0.31363 0 0 1-0.34812 0l-0.94088-0.62725a0.31363 0.31363 0 0 1 0-0.52062l0.94088-0.62725a0.31363 0.31363 0 0 1 0.34812 0l0.94088 0.62725a0.31363 0.31363 0 0 1 0 0.52062zm4.3908 0-0.94088 0.62725a0.31363 0.31363 0 0 1-0.34812 0l-0.94088-0.62725a0.31363 0.31363 0 0 1 0-0.52062l0.94088-0.62725a0.31363 0.31363 0 0 1 0.34812 0l0.94088 0.62725a0.31363 0.31363 0 0 1 0 0.52062zm0.71663-4.0771-3.8419 2.8226a0.31363 0.31363 0 0 1-0.37008 0l-3.8419-2.8226a0.31363 0.31363 0 0 1 0-0.50494l3.8419-2.8226a0.31363 0.31363 0 0 1 0.37008 0l3.8419 2.8226a0.31363 0.31363 0 0 1 0 0.50494z" style="fill:#000000"/>
  </g>
  <polygon transform="matrix(.15681 0 0 .15681 -.0467 -.23449)" points="73.61 93 76 94.6 78.39 93 76 91.4" style="fill:#000000"/>
  <polygon transform="matrix(.15681 0 0 .15681 -.0467 -.23449)" points="45.61 93 48 94.6 50.39 93 48 91.4" style="fill:#000000"/>
  <polygon transform="matrix(.15681 0 0 .15681 -.0467 -.23449)" points="50.39 41 48 39.4 45.61 41 48 42.6" style="fill:#000000"/>
  <path d="m11.28 10.024-1.4113-1.0977a0.31363 0.31363 0 0 0-0.38576 0l-1.4113 1.0977a0.31363 0.31363 0 0 0 0 0.49553l1.4113 1.0977a0.31363 0.31363 0 0 0 0.38576 0l1.4113-1.0977a0.31363 0.31363 0 0 0 0-0.49553zm-1.6042 0.94872-0.90011-0.70096 0.90011-0.70095 0.90011 0.70095z" stroke-width=".15681" style="fill:#000000"/>
 </g>
</svg>
