<svg version="1.1" viewBox="0 0 20 20" xmlns="http://www.w3.org/2000/svg">
 <g transform="matrix(.59354 0 0 .59354 -25.703 -37.86)" fill="#916f8a" style="fill:#000000">
  <g stroke-width=".26458" style="fill:#000000">
   <path d="m76.088 69.086h-11.906v1.5875c0 1.1668-1.0557 2.1167-2.3521 2.1167h-3.2332c-1.2965 0-2.3522-0.94985-2.3522-2.1167v-1.5875h-11.906a1.058 1.058 0 0 0-1.0583 1.0583v20.108a1.058 1.058 0 0 0 1.0583 1.0583h7.9692a2.0487 2.0487 0 0 1-0.29633-1.0583v-1.5875a2.1625 2.1625 0 0 1 2.2013-2.1167h12.002a2.1625 2.1625 0 0 1 2.2013 2.1167v1.5875a2.0487 2.0487 0 0 1-0.29634 1.0583h7.9692a1.058 1.058 0 0 0 1.0583-1.0583v-20.108a1.058 1.058 0 0 0-1.0583-1.0583zm-12.427 4.6672a0.53047 0.53047 0 0 1 0.61648-0.42598 1.6844 1.6844 0 0 1 1.3705 1.2859 1.9633 1.9633 0 0 1 2.0743 0.40217 0.52867 0.52867 0 0 1-0.73025 0.76465c-0.60061-0.57415-1.4658 0.07144-1.4737 0.07673a0.52919 0.52919 0 0 1-0.84931-0.44185c0.0397-0.93133-0.39688-1.0107-0.58209-1.0451a0.53047 0.53047 0 0 1-0.42598-0.61648zm-6.7098 1.6378a0.52864 0.52864 0 0 1-0.14817 0.7329l-1.0001 0.6641a0.52946 0.52946 0 0 1-0.58738-0.88106l1.0001-0.6641a0.53178 0.53178 0 0 1 0.73554 0.14817zm-3.1432-0.55562 0.67204-0.9816a0.52913 0.52913 0 0 1 0.87313 0.59796l-0.6694 0.9816a0.52955 0.52955 0 0 1-0.43921 0.23019 0.51559 0.51559 0 0 1-0.29633-0.0926 0.53086 0.53086 0 0 1-0.14023-0.73554zm-1.741-0.46831 0.23813-1.1536a0.52928 0.52928 0 0 1 1.0372 0.21167l-0.23812 1.1536a0.53083 0.53083 0 0 1-0.51858 0.42333 0.47932 0.47932 0 0 1-0.10584-0.01058 0.53016 0.53016 0 0 1-0.41275-0.62442zm3.085 4.019a0.52954 0.52954 0 1 1-1.0372 0.21431 2.5159 2.5159 0 0 0-2.9369-1.9711 2.4251 2.4251 0 0 0-1.561 1.0478 2.491 2.491 0 0 0-0.36248 1.8865 0.53253 0.53253 0 0 1-0.51858 0.635 0.52584 0.52584 0 0 1-0.51594-0.42333 3.5286 3.5286 0 0 1 0.51594-2.6829 3.4634 3.4634 0 0 1 2.2331-1.5002 3.5764 3.5764 0 0 1 4.1831 2.794zm-4.7572-5.5668a0.52907 0.52907 0 0 1 0.62706 0.4101l0.27781 1.352a0.53016 0.53016 0 0 1-0.41275 0.62442 0.47946 0.47946 0 0 1-0.10583 0.01058 0.52896 0.52896 0 0 1-0.51859-0.42069l-0.27781-1.352a0.52839 0.52839 0 0 1 0.41011-0.62442zm-2.2648 0.93398a0.5325 0.5325 0 0 1 0.73554 0.13492l0.67205 0.97367a0.53064 0.53064 0 0 1-0.87313 0.60325l-0.6694-0.97367a0.53088 0.53088 0 0 1 0.13494-0.73817zm-1.7568 1.7277a0.53028 0.53028 0 0 1 0.73289-0.15875l1.0028 0.64823a0.52901 0.52901 0 0 1-0.28575 0.97367 0.51429 0.51429 0 0 1-0.28575-0.08467l-1.0054-0.64558a0.5303 0.5303 0 0 1-0.15875-0.7329zm-0.96838 2.3707a0.52794 0.52794 0 0 1 0.60855-0.43392l1.1906 0.19579a0.53032 0.53032 0 0 1-0.0873 1.053 0.48686 0.48686 0 0 1-0.0873-0.0079l-1.1906-0.19844a0.52794 0.52794 0 0 1-0.43392-0.60854zm8.9614 4.4556-1.4684-1.0239-5.6144 3.8497a0.51764 0.51764 0 0 1-0.29898 0.0926 0.52496 0.52496 0 0 1-0.43657-0.23019 0.53028 0.53028 0 0 1 0.13759-0.73554l5.9161-4.0561a0.53015 0.53015 0 0 1 0.6006 0.0026l1.4552 1.0134 5.8129-4.355a0.52792 0.52792 0 0 1 0.63764 0.0026l3.4846 2.6405-0.80963 0.71438-2.9977-2.2728-5.7997 4.3471a0.53257 0.53257 0 0 1-0.61913 0.01058zm18.963 2.9871a0.52996 0.52996 0 0 1-0.74348 0.08996l-6.059-4.7625-3.3893 2.9951a0.52571 0.52571 0 0 1-0.65617 0.0344l-0.78052-0.55562-3.2782 2.5479a0.53128 0.53128 0 0 1-0.74348-0.0926 0.53034 0.53034 0 0 1 0.0926-0.74348l3.5904-2.7887a0.52 0.52 0 0 1 0.62971-0.01323l0.762 0.53975 3.4025-3.0083a0.52784 0.52784 0 0 1 0.67734-0.01852l6.4082 5.0324a0.53226 0.53226 0 0 1 0.0873 0.74348zm1.0716-4.2571a0.52778 0.52778 0 0 1-0.42862 0.2196h-0.79375v1.8997l-1.0583-0.83079v-1.0689h-0.79375a0.53036 0.53036 0 0 1-0.50271-0.69585l1.3229-3.9688a0.52984 0.52984 0 0 1 1.0054 0l1.3229 3.9688a0.52778 0.52778 0 0 1-0.0741 0.47625z" style="fill:#000000"/>
   <path d="m61.007 63.794h-1.5875a0.79608 0.79608 0 0 0-0.79375 0.79375v3.4396h-0.0291a1.5652 1.5652 0 0 0-0.50271 0.08467 1.1519 1.1519 0 0 0-0.7329 0.6641 0.86965 0.86965 0 0 0-0.0582 0.30956v1.5875c0 0.57414 0.59266 1.0583 1.2938 1.0583h3.2332c0.70114 0 1.2938-0.48419 1.2938-1.0583v-1.5875a0.86965 0.86965 0 0 0-0.0582-0.30956 1.1519 1.1519 0 0 0-0.73289-0.6641 1.5652 1.5652 0 0 0-0.50271-0.08467h-0.0291v-3.4396a0.79608 0.79608 0 0 0-0.79375-0.79375zm-1.3229 1.0583h1.0583v3.175h-1.0583zm2.1458 4.2333a0.40452 0.40452 0 0 1 0.23548 0.0635v1.4605a0.40452 0.40452 0 0 1-0.23548 0.0635h-3.2332a0.40452 0.40452 0 0 1-0.23548-0.0635v-1.4605a0.40452 0.40452 0 0 1 0.23548-0.0635z" style="fill:#000000"/>
   <path d="m51.069 97.28a0.7825 0.7825 0 0 0 0.67469 0.381h1.5161a0.78746 0.78746 0 0 0 0.69321-0.4101l2.8866-4.8816 0.62706-1.0583h1.1589v4.7625a0.79609 0.79609 0 0 0 0.79375 0.79375h1.5875a0.79609 0.79609 0 0 0 0.79375-0.79375v-4.7625h1.1589l0.62706 1.0583 2.8866 4.8816a0.78746 0.78746 0 0 0 0.69321 0.4101h1.5161a0.7825 0.7825 0 0 0 0.67468-0.381 0.80028 0.80028 0 0 0 0.0132-0.80433l-3.138-5.1673a1.0988 1.0988 0 0 0 1.1245-1.0557v-1.5875a1.1039 1.1039 0 0 0-1.143-1.0583h-12.002a1.1039 1.1039 0 0 0-1.143 1.0583v1.5875a1.0905 1.0905 0 0 0 1.0319 1.0478l-3.0586 5.1991a0.78991 0.78991 0 0 0 0.0265 0.78052zm9.6732-1.4711h-1.0583v-4.4979h1.0583zm7.4771 0.79375h-0.89958l-2.503-4.2333-0.62706-1.0583h0.81492zm-14.092-7.9137c0.0132-0.01058 12.158-0.01058 12.171 0v1.5399c-0.0132 0.01058-12.158 0.01058-12.171 0zm1.1933 2.622h0.91546l-0.62707 1.0583-2.503 4.2333h-0.89958z" style="fill:#000000"/>
  </g>
  <polygon transform="matrix(.26458 0 0 .26458 43.28 63.794)" points="108.77 62 113.23 62 111 55.32" style="fill:#000000"/>
 </g>
</svg>
