<svg version="1.1" viewBox="0 0 20 20" xmlns="http://www.w3.org/2000/svg">
 <g transform="translate(0 -27.778)" fill="#f59" stroke-width=".41864">
  <path d="m2.4127 37.867c0.17583-0.82471 0.096286-1.6243-0.24281-2.4658-0.18001-0.4605-0.083728-0.96705 0.247-1.3229 0.25118-0.25537 0.5819-0.3977 0.921-0.3977 0.13396 0 0.26374 0.02093 0.39352 0.06279 0.7075 0.23444 1.415 0.35584 2.1183 0.35584s1.4108-0.1214 2.1141-0.35584c0.13396-0.04187 0.26374-0.06279 0.3977-0.06279 0.3391 0 0.66982 0.14234 0.90844 0.38515 0.34328 0.3684 0.43957 0.87495 0.25955 1.3313-0.3391 0.84564-0.41864 1.6494-0.24281 2.47h1.4987c0.17583-0.82471 0.09628-1.6243-0.24281-2.4658-0.18001-0.4605-0.08373-0.96705 0.247-1.3229 0.25118-0.25537 0.5819-0.3977 0.921-0.3977 0.13396 0 0.26374 0.02093 0.39352 0.06279 0.7075 0.23444 1.415 0.35584 2.1183 0.35584 0.70331 0 1.4108-0.1214 2.1141-0.35584 0.13396-0.04187 0.26374-0.06279 0.3977-0.06279 0.3391 0 0.66982 0.14234 0.90844 0.38515 0.34328 0.3684 0.43957 0.87495 0.25955 1.3313-0.3391 0.84564-0.41864 1.6494-0.24281 2.47h1.168c0.14234 0 0.28467 0.01675 0.41864 0.04187v-6.74c0-0.4605-0.37677-0.83727-0.83727-0.83727h-16.745c-0.4605 0-0.83727 0.37677-0.83727 0.83727v6.74c0.13396-0.02512 0.2763-0.04187 0.41864-0.04187z"/>
  <path d="m17.04 34.648c-0.11303-0.11722-0.28467-0.15908-0.43957-0.10885-1.5783 0.52748-3.1774 0.52748-4.7557 0-0.1549-0.05024-0.32654-0.0084-0.43957 0.10885-0.11303 0.1214-0.14234 0.29304-0.08373 0.44375 0.37677 0.93774 0.47724 1.8504 0.31398 2.7756h5.1743c-0.16327-0.92518-0.06279-1.8378 0.31398-2.7756 0.05861-0.15071 0.0293-0.32235-0.08373-0.44375z"/>
  <path d="m8.6671 34.648c-0.11303-0.11722-0.28467-0.15908-0.43957-0.10885-1.5783 0.52748-3.1774 0.52748-4.7557 0-0.1549-0.05024-0.32654-0.0084-0.43957 0.10885-0.11303 0.1214-0.14234 0.29304-0.083728 0.44375 0.37677 0.93774 0.47725 1.8504 0.31398 2.7756h5.1743c-0.16327-0.92518-0.062796-1.8378 0.31398-2.7756 0.058609-0.15071 0.029305-0.32235-0.083727-0.44375z"/>
  <path d="m18.827 38.705h-17.583c-0.69075 0-1.2559 0.56516-1.2559 1.2559v4.1864c0 0.23025 0.18839 0.41864 0.41864 0.41864h2.5118v1.2559c0 0.23025 0.18839 0.41864 0.41864 0.41864h1.6745c0.23025 0 0.41864-0.18839 0.41864-0.41864v-1.2559h9.21v1.2559c0 0.23025 0.18839 0.41864 0.41864 0.41864h1.6745c0.23025 0 0.41864-0.18839 0.41864-0.41864v-1.2559h2.5118c0.23025 0 0.41864-0.18839 0.41864-0.41864v-4.1864c0-0.69075-0.56516-1.2559-1.2559-1.2559z"/>
 </g>
</svg>
