<svg version="1.1" viewBox="0 0 20 20" xmlns="http://www.w3.org/2000/svg">
 <g transform="matrix(.31717 0 0 .31717 .096988 -.39136)" style="fill:#9d93ac">
  <path d="m10.29 19.72a1 1 0 0 0 1.42 0 1 1 0 0 0 0-1.41c-1-0.94-1-1.64 0-2.59a3.48 3.48 0 0 0 0-5.41 1.0041 1.0041 0 1 0-1.42 1.42c1 0.94 1 1.64 0 2.58a3.48 3.48 0 0 0 0 5.41z" style="fill:#9d93ac"/>
  <path d="m2.29 19.72a1 1 0 0 0 1.42 0 1 1 0 0 0 0-1.41c-1-0.94-1-1.64 0-2.59a3.48 3.48 0 0 0 0-5.41 1.0041 1.0041 0 1 0-1.42 1.42c1 0.94 1 1.64 0 2.58a3.48 3.48 0 0 0 0 5.41z" style="fill:#9d93ac"/>
  <path d="m18.29 19.72a1 1 0 0 0 1.42 0 1 1 0 0 0 0-1.41c-0.95-0.94-0.95-1.64 0-2.59a3.48 3.48 0 0 0 0-5.41 1.0041 1.0041 0 1 0-1.42 1.42c0.95 0.94 0.95 1.64 0 2.58a3.48 3.48 0 0 0 0 5.41z" style="fill:#9d93ac"/>
  <path d="m62.07 8c-0.22 0-22.15-1.26-27.22 17.3-1.32 5.27-3 8.7-4.54 9.16-0.19 0.06-0.75 0.23-1.69-0.61a5.14 5.14 0 0 1-1.62-3.85v-1.76a5.07 5.07 0 0 0-5-5.24h-16a5 5 0 0 0-5 5v12.28a15.74 15.74 0 0 0 15.72 15.72h8a10.83 10.83 0 0 0 4.09-0.79c4.4-1.78 12.13-7.14 14.56-23 3.08-20 17.9-18.33 18.52-18.25a1 1 0 0 0 1.11-0.96v-4a1 1 0 0 0-0.93-1zm-47.23 43.85a11.8 11.8 0 0 1-9.84-10.78 1.0021 1.0021 0 0 1 2-0.13 9.8 9.8 0 0 0 8.14 8.94 1.0127 1.0127 0 1 1-0.32 2z" style="fill:#9d93ac"/>
 </g>
</svg>
