<svg version="1.1" viewBox="0 0 20 20" xmlns="http://www.w3.org/2000/svg">
 <g transform="translate(0 -27.778)">
  <path d="m20.038 30.556a0.62488 0.62488 0 0 0-0.62488-0.58426h-3.8368v-0.67799a0.62488 0.62488 0 0 0-0.62488-0.62488h-9.8231a0.62488 0.62488 0 0 0-0.62488 0.62488v0.67799h-3.8368a0.62488 0.62488 0 0 0-0.62488 0.58426v0.2812a7.6079 7.6079 0 0 0 3.8899 6.6924l1.984 1.1185a5.4458 5.4458 0 0 0 2.3745 1.5403v2.1058h-1.9121a0.62488 0.62488 0 0 0-0.62488 0.62488v3.0525a0.62488 0.62488 0 0 0 0.62488 0.62488h7.3236a0.62488 0.62488 0 0 0 0.62488-0.62488v-3.0525a0.62488 0.62488 0 0 0-0.62488-0.62488h-1.9121v-2.1058a5.4458 5.4458 0 0 0 2.3745-1.5403l1.984-1.1185a7.6079 7.6079 0 0 0 3.8899-6.6924v-0.2812zm-15.491 5.8864a6.3613 6.3613 0 0 1-3.2556-5.2209h3.2119v3.7774a5.4927 5.4927 0 0 0 0.22496 1.5622zm10.985 0-0.18121 0.1031a5.4927 5.4927 0 0 0 0.22496-1.5622v-3.7618h3.2119a6.3613 6.3613 0 0 1-3.2556 5.2209z" fill="#ffd42a" stroke-width=".31244"/>
 </g>
</svg>
