<svg version="1.1" viewBox="0 0 20 20" xmlns="http://www.w3.org/2000/svg">
 <g transform="translate(0 -27.778)">
  <path d="m15.561 40.126v1.1116h-2.2232v-1.1116h-6.6696v1.1116h-2.2232v-1.1116h-4.4464v3.8906c0 1.5351 1.2439 2.779 2.779 2.779h14.451c1.5351 0 2.779-1.2439 2.779-2.779v-3.8906zm-11.116-2.2232v-1.1116h2.2232v1.1116h6.6696v-1.1116h2.2232v1.1116h4.4464v-1.6674c0-1.5351-1.2439-2.779-2.779-2.779h-2.779v-1.6674c0-1.5285-1.2506-2.779-2.779-2.779h-3.3348c-1.5285 0-2.779 1.2506-2.779 2.779v1.6674h-2.779c-1.5351 0-2.779 1.2439-2.779 2.779v1.6674zm3.3348-6.1138c0-0.30125 0.25456-0.5558 0.5558-0.5558h3.3348c0.30125 0 0.5558 0.25456 0.5558 0.5558v1.6674h-4.4464z" fill="#59f" fill-rule="evenodd"/>
 </g>
</svg>
