<svg version="1.1" viewBox="-.1 0 20 20" xmlns="http://www.w3.org/2000/svg">
 <path d="m0.21567 20.02s-2.5877-20.071 9.7829-19.881c12.371 0.1893 9.278 17.672 9.9092 19.818 0.63116 2.1459-19.692 0.0631-19.692 0.0631z" fill="#800000" fill-rule="evenodd"/>
 <g stroke-width=".34579">
  <path d="m13.032 7.9663v-0.82365l-0.34579-0.17267-0.34579 0.17267v0.82365a0.34579 0.34579 0 0 1-0.34579 0.3461h-1.3831a0.34579 0.34579 0 0 1-0.34579-0.3461v-0.82365l-0.34579-0.17267-0.34579 0.17267v0.82365a0.34579 0.34579 0 0 1-0.34579 0.3461h-1.3831a0.34579 0.34579 0 0 1-0.34579-0.3461v-0.82365l-0.34579-0.17267-0.34579 0.17267v0.82365a0.34579 0.34579 0 0 1-0.34579 0.3461h-1.0373v11.757h2.0747v-3.1121a2.4205 2.4205 0 0 1 4.841 0v3.1121h2.0747v-11.757h-1.0374a0.34579 0.34579 0 0 1-0.34578-0.3461zm-3.8036 5.1867a0.34579 0.34579 0 0 1-0.34579 0.3461h-2.0747a0.34579 0.34579 0 0 1-0.34579-0.3461v-2.7662a0.34579 0.34579 0 0 1 0.34579-0.3461h2.0747a0.34579 0.34579 0 0 1 0.34579 0.3461zm4.1494 0a0.34579 0.34579 0 0 1-0.34579 0.3461h-2.0747a0.34579 0.34579 0 0 1-0.34579-0.3461v-2.7662a0.34579 0.34579 0 0 1 0.34579-0.3461h2.0747a0.34579 0.34579 0 0 1 0.34579 0.3461z" fill="#808080"/>
  <path d="m19.256 11.77a0.34579 0.34579 0 0 1-0.34579 0.3461h-1.0374a0.34579 0.34579 0 0 1-0.34579-0.3461v-1.0374h-0.34579v1.0374a0.34579 0.34579 0 0 1-0.34579 0.3461h-1.0373a0.34579 0.34579 0 0 1-0.34579-0.3461v-1.0374h-0.34579v9.3362h4.4952v-9.3362h-0.34578zm-2.4205 3.8037h-0.69157v-2.0747h0.69157zm2.0747 0h-0.69157v-2.0747h0.69157z" fill="#aca793"/>
  <path d="m10.266 15.262v4.8064h1.3831v-3.1121a1.732 1.732 0 0 0-1.3831-1.6943zm0.69157 2.7317h-0.34579v-0.69156h0.34579z" fill="#ac9393"/>
  <rect x="7.1538" y="10.733" width="1.3831" height="2.0747" fill="#a793ac"/>
  <rect x="11.303" y="10.733" width="1.3831" height="2.0747" fill="#a793ac"/>
  <path d="m4.3875 11.77a0.34579 0.34579 0 0 1-0.34579 0.3461h-1.0374a0.34579 0.34579 0 0 1-0.34578-0.3461v-1.0374h-0.34579v1.0374a0.34579 0.34579 0 0 1-0.34578 0.3461h-1.0374a0.34579 0.34579 0 0 1-0.34578-0.3461v-1.0374h-0.34579v9.3362h4.4952v-9.3362h-0.34579zm-2.7663 3.8037h-0.69157v-2.0747h0.69157zm2.0747 0h-0.69157v-2.0747h0.69157z" fill="#aca793"/>
  <path d="m8.1911 16.957v3.1121h1.3831v-4.8064a1.732 1.732 0 0 0-1.3831 1.6943zm0.69157 0.34572h0.34579v0.69156h-0.34579z" fill="#ac9393"/>
 </g>
 <polygon transform="matrix(.34579 0 0 .34579 -1.1451 -.67839)" points="31 2 31 5 25 5 25 2 23 2 23 5 24.618 10 39.382 10 41 5 41 2 39 2 39 5 33 5 33 2" fill="#808080"/>
 <path d="m11.649 7.6205v-0.6916a0.34579 0.34579 0 0 1 0.19122-0.30945l0.50035-0.24975v-2.8984h-4.841v2.8984l0.50035 0.24975a0.34579 0.34579 0 0 1 0.19122 0.30945v0.6916h0.69157v-0.6916a0.34579 0.34579 0 0 1 0.19122-0.30945l0.69157-0.34572a0.34579 0.34579 0 0 1 0.30913 0l0.69157 0.34572a0.34579 0.34579 0 0 1 0.19122 0.30945v0.6916zm-2.7663-2.4206h-0.69157v-0.69152h0.69157zm1.3831 0h-0.69157v-0.69152h0.69157zm0.69157-0.69152h0.69157v0.69152h-0.69157z" fill="#ac9d93" stroke-width=".34579"/>
</svg>
