<svg version="1.1" viewBox="0 0 20 20" xmlns="http://www.w3.org/2000/svg">
 <path d="m13.05 15.85h-10.022c-0.38712 0-0.33414-0.40763-0.33414-0.66742v-6.0136h-2.004c-0.3649 0-0.66827-0.30252-0.66827-0.66827 0-0.15639 0.052983-0.31277 0.15724-0.42814l3.3405-4.0079c0.12477-0.14613 0.31277-0.22988 0.51189-0.22988 0.19741 0 0.38626 0.083748 0.51103 0.22988l3.3405 4.0079c0.10426 0.11537 0.15639 0.27175 0.15639 0.42814 0 0.36576-0.30252 0.66827-0.66742 0.66827h-2.0057v4.0079h6.0136c0.09315 0 0.19826 0.04273 0.26235 0.11537l1.6707 2.0048c0.03846 0.06238 0.07178 0.14613 0.07178 0.21962-8.55e-4 0.1769-0.15724 0.33328-0.33414 0.33328zm6.8579-4.2481-3.3397 4.0079c-0.12477 0.14613-0.31363 0.23928-0.51445 0.23928-0.19826 0-0.38541-0.09315-0.50932-0.23928l-3.3414-4.0079c-0.1034-0.11537-0.15724-0.27175-0.15724-0.42814 0-0.36661 0.30337-0.66913 0.66742-0.66913h2.0031v-4.0079h-6.011c-0.092293 0-0.19911-0.041874-0.26064-0.12477l-1.6698-2.004c-0.041874-0.052129-0.072638-0.13673-0.072638-0.20937 0-0.17775 0.15724-0.33499 0.33414-0.33499h10.022c0.3837 0 0.33243 0.40763 0.33243 0.66827v6.0127h2.0048c0.36576 0 0.66742 0.30252 0.66742 0.66913 0 0.15639-0.05384 0.31363-0.15553 0.42814z" fill="#93ac93" stroke-width=".85457"/>
</svg>
