<svg version="1.1" viewBox="0 0 20 20" xmlns="http://www.w3.org/2000/svg">
 <path d="m18.619 12.231c-0.06279-0.18836-0.1465-0.33486-0.27208-0.43951 0.10464-0.29301 0.08372-0.58601-0.08372-0.85809-0.25115-0.35579-0.71159-0.69066-1.5906-0.12557-0.35579 0.23022-0.58601 0.62787-0.69066 0.89995-0.08372 0.20929-0.25115 0.37672-0.43951 0.46044l-5.7136 2.8463-5.6927-2.8463c-0.20929-0.10464-0.35579-0.27208-0.43951-0.46044-0.12557-0.27208-0.33486-0.66973-0.69066-0.89995-0.87902-0.56508-1.3395-0.25115-1.5906 0.12557-0.16743 0.25115-0.20929 0.56508-0.083716 0.85809-0.10464 0.10464-0.20929 0.25115-0.27208 0.43951-0.10464 0.27208-0.083716 0.54415 0.020929 0.75344 0.10464 0.23022 0.33486 0.41858 0.62787 0.5023 0.23022 0.08372 0.56508 0.06279 0.96273-0.04186 0.23022-0.06279 0.46044-0.04186 0.66973 0.06279l4.7509 2.365-2.1138 1.0464c-0.20929 0.10464-0.43951 0.12557-0.66973 0.06279-0.27208-0.08372-0.69066-0.12557-1.0883 0.02093-0.96273 0.35579-1.0046 0.9418-0.85809 1.3395 0.10464 0.29301 0.33486 0.5023 0.62787 0.58601 0.020929 0.16743 0.083716 0.31394 0.18836 0.48137 0.16743 0.23022 0.37672 0.39765 0.62787 0.43951 0.062787 0 0.10464 0.02093 0.16743 0.02093 0.20929 0 0.41858-0.06279 0.62787-0.20929 0.20929-0.1465 0.37672-0.39765 0.5023-0.75344 0.083716-0.23022 0.25115-0.43951 0.48137-0.54415l3.244-1.5906 3.2649 1.6325c0.20929 0.10464 0.37672 0.29301 0.48137 0.54415 0.12557 0.35579 0.29301 0.60694 0.5023 0.75344s0.41858 0.20929 0.62787 0.20929c0.06279 0 0.10464 0 0.16743-0.02093 0.25115-0.04186 0.46044-0.20929 0.62787-0.43951 0.10464-0.16743 0.16743-0.31394 0.18836-0.48137 0.29301-0.08372 0.52322-0.29301 0.62787-0.58601 0.1465-0.41858 0.12557-0.98366-0.85809-1.3395-0.39765-0.1465-0.81623-0.08372-1.1092-0.02093-0.23022 0.06279-0.46044 0.04186-0.66973-0.06279l-2.1138-1.0464 4.7509-2.3859c0.20929-0.10464 0.46044-0.12557 0.66973-0.06279 0.39765 0.10464 0.73252 0.12557 0.96273 0.04186 0.29301-0.10464 0.5023-0.27208 0.62787-0.5023 0.12557-0.25115 0.12557-0.5023 0.04186-0.77437z" fill="#ff2a2a" stroke-width=".20929"/>
 <path d="m6.1662 9.95c0.20929 0.16743 0.35579 0.37672 0.37672 0.6488l0.083716 0.7953c0.041858 0.48137 0.39765 0.89995 0.85809 1.0255 1.5278 0.39765 3.1394 0.39765 4.6672 0 0.48137-0.12557 0.81623-0.52322 0.85809-1.0255l0.08372-0.7953c0.02093-0.25115 0.16743-0.48137 0.37672-0.6488 1.2557-0.96273 2.072-2.5324 2.072-4.6462 0-3.7672-2.5533-5.2741-5.7136-5.2741s-5.7136 1.5069-5.7136 5.2741c0 2.1138 0.7953 3.6835 2.051 4.6462zm4.6253-3.6207c0.08372-0.73252 0.60694-1.2767 1.5487-1.1511s1.3185 0.77437 1.2139 1.486c-0.08372 0.73252-0.48137 1.2557-1.5487 1.1511s-1.3185-0.75344-1.2139-1.486zm-1.8627 3.3905 0.60694-1.4232c0.10464-0.25115 0.48137-0.25115 0.58601 0l0.60694 1.4232c0.12557 0.29301-0.08372 0.62787-0.41858 0.62787h-0.98366c-0.31394-0.020929-0.52322-0.33486-0.39765-0.62787zm-1.6115-4.5207c0.9418-0.12557 1.465 0.41858 1.5487 1.1511s-0.1465 1.3813-1.2139 1.486-1.465-0.41858-1.5487-1.1511 0.27208-1.3604 1.2139-1.486z" fill="#ff2a2a" stroke-width=".20929"/>
</svg>
