<svg version="1.1" viewBox="0 0 20 20" xmlns="http://www.w3.org/2000/svg">
 <path d="m17.056 0.089549c-1.6055 0-2.9117 1.3062-2.9117 2.9117 0 1.6055 1.3062 2.9117 2.9117 2.9117 1.6055 0 2.9117-1.3062 2.9117-2.9117 0-1.6055-1.3062-2.9117-2.9117-2.9117z" fill="#f60" stroke-width=".039214"/>
 <path d="m24.32 9.1199s-7.3687-3.1301-11.499-2.8661c-4.1302 0.26398-6.1953 1.3953-6.1953 1.3953s-3.3323-0.98051-5.5852-0.52797c-2.2529 0.45254-5.5383 3.8089-5.5383 3.8089l0.75095 12.407 30.601-1.2445z" fill="#decd87" fill-rule="evenodd"/>
 <path d="m6.1779 6.6283v2.5041c0.40979-0.12568 0.82852-0.26446 1.2549-0.41826v-0.65648h0.050193c0.98228 0 1.7814-0.79915 1.7814-1.7814 0-0.34654-0.28093-0.62743-0.62743-0.62743-0.3465 0-0.62743 0.28089-0.62743 0.62743 0 0.29034-0.23619 0.52657-0.52657 0.52657h-0.050193v-2.4677c0-0.34653-0.28093-0.62743-0.62743-0.62743-0.3465 0-0.62743 0.28089-0.62743 0.62743v1.0373c-0.27325-0.018943-0.4899-0.24674-0.4899-0.52469 0-0.34653-0.28093-0.62743-0.62743-0.62743-0.3465 0-0.62743 0.28089-0.62743 0.62743-3.96e-5 0.96996 0.77938 1.7608 1.7448 1.7805z" fill="#93ac93" stroke-width=".039214"/>
 <path d="m19.05 20.167c-0.55135-1.7925-1.4865-3.6603-2.6969-5.3666-1.148-1.6183-2.4867-3.0212-3.937-4.135 0.56649 1.3609 1.1665 2.9663 1.6354 4.6185 0.5448 1.9196 0.81185 3.555 0.80005 4.8831h4.1984z" fill="#806600" stroke-width=".039214"/>
 <path d="m4.8401 13.768c1.0993-0.44312 2.319-0.3683 3.3462 0.20517 1.2863 0.71809 2.9511 1.8977 4.2413 3.005 0.3643 0.31266 0.67433 0.59684 0.93804 0.85601-0.12443-0.68303-0.29858-1.4214-0.52155-2.2071-0.66417-2.3401-1.6034-4.5916-2.3163-6.1477-0.65606-0.14278-1.3424-0.092467-1.9801 0.15697-2.9502 1.1542-5.5617 1.5876-7.4686 1.9041-0.16894 0.02804-0.33148 0.05502-0.48735 0.08137-0.034587 0.0058-0.069566 0.0088-0.10466 0.0088h-0.62743v3.2177c1.6884-0.24216 4.0587-0.70885 4.9804-1.0803z" fill="#806600" stroke-width=".039214"/>
 <path d="m11.443 17.788c-1.1996-1.0096-2.7179-2.0769-3.8681-2.719-0.2394-0.13364-0.49461-0.22615-0.75664-0.27897-0.27387 1.2287-1.1364 2.5457-1.6828 3.289-0.559 0.76048-1.1854 1.4725-1.8304 2.0887h10.213c3.9e-5 -0.03349 0.0021-0.06721 0.0077-0.10121-0.0349-0.1856-0.46155-0.91432-2.0823-2.2784z" fill="#806600" stroke-width=".039214"/>
 <path d="m4.1241 17.335c0.66339-0.90248 1.1425-1.7722 1.3723-2.4705-0.06286 0.02012-0.12541 0.04172-0.18729 0.06666-1.0687 0.43065-3.6513 0.93812-5.4495 1.1845v3.4237c0 0.34654 0.28093 0.62743 0.62743 0.62743h0.88177c0.93957-0.69848 1.9391-1.7216 2.7552-2.8319z" fill="#806600" stroke-width=".039214"/>
 <path d="m0.5395 11.628c-0.017411 0.0015-0.034901 0.0022-0.05239 0.0022 0.01745 0 0.03494-7.45e-4 0.05239-0.0022z" fill="#806600" stroke-width=".039214"/>
 <path d="m0.43452 10.375c0.14117-0.02376 0.2876-0.04812 0.43916-0.07325 1.5891-0.26376 3.6822-0.61155 6.0307-1.4036-1.0399-0.55343-1.7365-1.0218-2.239-1.5034-0.78829-0.75562-1.9867-0.89605-2.9144-0.34136-0.45104 0.26968-0.90299 0.44524-1.3817 0.5368-0.29571 0.056547-0.50959 0.31513-0.50959 0.61621v2.1685z" fill="#806600" stroke-width=".039214"/>
 <path d="m19.347 10.734c8e-3 -3.14e-4 0.01588-4.71e-4 0.02384-4.71e-4h0.59724v-3.3913c0-0.25893-0.15905-0.4912-0.40038-0.58492-0.24132-0.093604-0.51547-0.029489-0.69017 0.16164-1.2558 1.374-3.0864 2.2189-5.4423 2.5134 1.6073 0.73982 3.6785 1.386 5.9117 1.3016z" fill="#806600" stroke-width=".039214"/>
 <path d="m17.376 14.075c1.1182 1.5763 2.0172 3.2886 2.6214 4.9715v-7.0577h-0.61562c-0.14486 0.0054-0.28924 8e-3 -0.43265 8e-3 -1.3496 0-2.6316-0.23125-3.7935-0.57523 0.79476 0.80534 1.5398 1.6942 2.2203 2.6536z" fill="#806600" stroke-width=".039214"/>
</svg>
