<svg version="1.1" viewBox="0 0 20 20" xmlns="http://www.w3.org/2000/svg">
 <path d="m14.06 5.5664c-0.37446-0.14353-1.1417-0.68133-1.6189-0.93737-0.47736-0.25522-1.1691-0.38221-1.9252-0.03328-0.18519 0.085345-0.38222 0.18866-0.58516 0.30381l-0.34465-0.33934c-0.018784-0.023684-0.47654-0.57741-1.2338-0.38262-0.34526 0.088816-0.65499 0.26216-0.95472 0.42917-0.25236 0.14088-0.49084 0.27421-0.72074 0.33913-0.087795 0.024093-0.17008 0.049206-0.24746 0.072074-0.39406 0.11658-0.63192 0.186-0.93961 0.12679-0.29932-0.057577-0.42979-0.10515-0.42979-0.10515-0.12843-0.050023-0.27441 0.0042877-0.33934 0.12536l-2.4303 4.5676c-0.047777 0.089224-0.041652 0.19866 0.015926 0.28196 0.01858 0.02654 0.45796 0.66316 0.86039 1.0254 0.69134 0.62212 1.086 0.83977 1.1023 0.84855l0.017763 0.01245c-0.11924 0.29422-0.059619 0.64438 0.17886 0.88387 0.28258 0.28217 0.71951 0.313 1.0374 0.09555-0.31565 0.33301-0.31218 0.85774 0.013884 1.1834 0.33178 0.3324 0.86978 0.3324 1.2014 0l0.043489-0.04349c-0.26726 0.33505-0.24971 0.82282 0.060436 1.1334 0.3326 0.3326 0.87244 0.3326 1.2057 0l0.4598-0.4598c-0.23766 0.3083-0.21847 0.74952 0.064111 1.0319 0.30626 0.30688 0.80343 0.30688 1.1103 0l0.60701-0.60722 0.86978 0.66786c0.02675 0.02348 0.25644 0.22439 0.60293 0.22439 0.01838 0 0.03634-1e-3 0.05451-0.0029 0.2887-0.01674 0.5576-0.16865 0.80057-0.44959 0.21745-0.25216 0.30197-0.52003 0.31341-0.76361 0.11924 0.04757 0.27952 0.09821 0.46552 0.09821 0.23235 0 0.50288-0.07861 0.77198-0.33954 0.22296-0.21581 0.31239-0.45878 0.32648-0.69338 0.15599 0.0735 0.34689 0.12883 0.56107 0.12883 0.22296 0 0.4696-0.0586 0.724-0.21683 0.35118-0.21724 0.56087-0.47879 0.62314-0.77872 0.10536-0.40937-0.16681-0.88693-0.34853-1.1464 0.19458-0.16171 0.42713-0.36854 0.63294-0.58904 0.63335-0.68092 0.90286-1.2787 0.90286-1.2787l-2.4536-4.668s-0.61334 0.42591-1.0562 0.25542zm1.8208 7.2553c-0.03287 0.14292-0.1958 0.35547-0.40835 0.48716-0.51186 0.31708-0.89469-0.01368-0.93206-0.0488l-0.83528-0.81792-2e-3 2e-3 -1.1142-1.186c-0.10311-0.10964-0.27625-0.11475-0.38569-0.01205-0.10964 0.1025-0.11454 0.27584-0.01205 0.38487l1.573 1.6755c0.0537 0.07371 0.3471 0.5233 0.0039 0.8561-0.27931 0.26971-0.50574 0.19805-0.75259 0.08412-0.07473-0.03451-0.2301-0.16844-0.38079-0.31525l-1.4598-1.5548c-0.10311-0.11005-0.27604-0.11495-0.38548-0.01225-0.11025 0.10229-0.11495 0.27564-0.01245 0.3863l1.261 1.3408c0.0059 0.0082 0.0086 0.01817 0.01572 0.02593 0.03022 0.03287 0.11107 0.11842 0.21275 0.21704l0.01041 0.01103-0.01246 0.0082c0.0024 0.0041 0.27645 0.43387-0.08106 0.84855-0.34873 0.40426-0.60966 0.23868-0.68092 0.17763l-0.87856-0.68113c0.14292-0.29258 0.09617-0.65499-0.14741-0.89837-0.28196-0.28176-0.72298-0.30136-1.0307-0.06534l0.27849-0.27849c0.3324-0.33301 0.3324-0.87244 0-1.2059-0.33301-0.3328-0.87305-0.3328-1.2063 0l-0.40651 0.40651c0.264-0.33342 0.24623-0.81772-0.062069-1.1262-0.33178-0.33036-0.86999-0.33036-1.201 0l-0.43836 0.43857c0.13863-0.30157 0.086366-0.66826-0.16191-0.91634-0.31892-0.31912-0.83548-0.31912-1.1542 0l-0.45638 0.41939-0.1078-0.063498c-0.003471-0.001838-0.35445-0.19642-0.99923-0.77525-0.25134-0.22643-0.53555-0.59782-0.6799-0.79546l2.2473-4.2211c0.076157 0.019192 0.17171 0.040631 0.28932 0.06309 0.43775 0.083916 0.7726-0.014905 1.1963-0.14006 0.075749-0.022255 0.15538-0.045531 0.24072-0.069215 0.29197-0.082691 0.57006-0.23786 0.83936-0.38854 0.2691-0.14986 0.5476-0.30545 0.82466-0.37731 0.41202-0.10535 0.6652 0.18743 0.67582 0.19948l0.27543 0.28911c-1.3369 0.83814-2.74 1.9917-2.74 1.9917s-0.73299 0.51084-0.32403 1.0907c0.4253 0.60211 1.0225 0.18662 1.0225 0.18662l2.5554-1.397s0.42182-0.1613 0.64744-0.13639c0.30688 0.034301 0.4941 0.23848 0.4941 0.23848l4.392 4.8724c0.24276 0.25685 0.42611 0.64152 0.39385 0.78138z" fill="#ffb380" stroke-width=".20417"/>
 <path d="m19.993 9.1053-2.7057-5.0439c-0.071665-0.13312-0.23664-0.18274-0.36935-0.11168l-1.0462 0.55229c-0.13251 0.071257-0.18253 0.23684-0.11148 0.36935l2.7065 5.0441c0.07126 0.13333 0.23643 0.18274 0.36935 0.11209l1.0458-0.5525c0.13251-0.071665 0.18253-0.23684 0.11107-0.36976z" fill="#ffb380" stroke-width=".20417"/>
 <path d="m4.1299 4.2252-1.0427-0.55903c-0.13312-0.069828-0.2983-0.018784-0.36854 0.11413l-2.6702 5.0635c-0.07044 0.13333-0.019192 0.29789 0.11373 0.36874l1.0427 0.55862c0.13333 0.070032 0.29809 0.018784 0.36833-0.11475l2.6704-5.0625c0.07044-0.13373 0.019397-0.2983-0.11373-0.36874z" fill="#ffb380" stroke-width=".20417"/>
</svg>
