<svg version="1.1" viewBox="0 0 20 20" xmlns="http://www.w3.org/2000/svg">
 <path d="m1.3835 19.222s-1.3018-2.0696-1.4353-4.039c-0.13352-1.9694 0.56746-6.3422 0.56746-6.3422s-0.63422-5.7747 1.4353-7.644c2.0695-1.8693 6.1085-0.46733 6.1085-0.46733s0.73436-0.63422 4.5063-0.83448c3.7719-0.20012 5.3741 2.8373 5.3741 2.8373s1.9026 0 2.4367 1.9694c0.53408 1.9694-0.6676 7.7775-0.6676 7.7775s0.80112 2.0028 0.93464 3.6718-1.8359 3.2712-1.8359 3.2712l-13.619 0.56746z" fill="#676c53" fill-rule="evenodd"/>
 <path d="m1.9343 18.604 2.0893-2.0893 2.8689 0.65483 1.3409 1.9646 1.4968 0.59248 1.9957-0.59248 2.1828-1.871 2.3387-0.49891 2.7441 2.0893s-3.2431 0.99786-3.6172 0.96669c-0.3742-0.02987-5.0205 0.18705-5.0205 0.18705l-8.17-0.2494z" fill="#ff2a2a" fill-rule="evenodd"/>
 <path d="m3.1427 12.242 0.0441 4.5643 1.323-0.26471-0.1764-3.6603 2.1388-0.19862 0.1323 4.2777 1.1025 0.63944 0.6615-11.797-4.873 0.26471z" fill="#916f6f" fill-rule="evenodd"/>
 <path d="m17.299 8.3915v-3.5361h-0.63177v1.6273c-0.40181-0.41588-0.96092-0.67379-1.5794-0.67379h-0.94766v0.31847c0 1.229 0.9922 2.2288 2.2112 2.2288h0.31588v3.5378c-0.4018-0.41438-0.96092-0.67226-1.5794-0.67226h-0.94766v0.31847c0 1.2287 0.9922 2.2288 2.2112 2.2288h0.31588v2.3655c-0.1949-0.08662-0.40844-0.13665-0.63177-0.13665-0.34337 0-0.67536 0.11574-0.94766 0.32444-0.27229-0.2087-0.60429-0.32444-0.94766-0.32444-0.63777 0-1.2032 0.38687-1.448 0.96602-0.04517 0.0037-0.0875 0.01867-0.13141 0.02614v-1.3115h0.31589c0.8709 0 1.5794-0.71415 1.5794-1.592v-0.31848h-0.94766c-0.35695 0-0.68294 0.1247-0.94766 0.32668v-2.858c0.9524-0.47506 1.5794-1.4576 1.5794-2.5628 0-0.931-0.45172-1.8002-1.1963-2.3348 0.163-0.36738 0.2486-0.76575 0.2486-1.1679 0-1.5799-1.2752-2.8656-2.843-2.8656-0.15447 0-0.3102 0.014934-0.46561 0.039949-0.38443-1.1472-1.4708-1.9502-2.6932-1.9502-1.2225 0-2.3088 0.80301-2.6932 1.9502-0.15542-0.026135-0.31115-0.039949-0.46562-0.039949-1.5677 0-2.843 1.2857-2.843 2.8656 0 0.40214 0.085605 0.80043 0.2486 1.1676-0.74454 0.53461-1.1963 1.4038-1.1963 2.3348 0 1.2389 0.78624 2.325 1.937 2.7134 0.083394 0.49895 0.29219 0.94918 0.59007 1.3207v0.77688c-0.40181-0.41304-0.96092-0.67096-1.5794-0.67096h-0.94766v0.31847c0 1.2287 0.9922 2.2288 2.2112 2.2288h0.31589v1.2736h0.00853c-0.075497 0.10118-0.14246 0.20982-0.19301 0.3293-0.72401 0.0855-1.2996 0.66547-1.3842 1.3953-0.5746 0.24679-0.9584 0.81668-0.9584 1.4595v0.31847h19.585v-0.31847c0-0.64284-0.3838-1.2128-0.9584-1.4595-0.08466-0.7298-0.6602-1.3099-1.3842-1.3953-0.05054-0.11947-0.11751-0.22812-0.193-0.3293h0.0085v-1.592h0.31588c1.219 0 2.2112-1.0001 2.2112-2.2288v-0.31847h-0.94764c-0.6185 0-1.1776 0.25799-1.5794 0.67215v-2.901h0.31588c1.219 0 2.2112-0.99977 2.2112-2.2288v-0.31847h-0.94766c-0.6185 0-1.1776 0.25799-1.5794 0.67215zm-7.5813 1.2383c0-0.87783 0.70853-1.592 1.5794-1.592h0.94766v0.31847c0 0.87783-0.70853 1.592-1.5794 1.592h-0.94766zm-3.7906-6.6864h0.94766c0.8709 0 1.5794 0.71415 1.5794 1.592v0.31847h-0.94766c-0.8709 0-1.5794-0.71419-1.5794-1.592zm-2.5271 12.099v-1.7541c0.19522 0.13105 0.40654 0.2382 0.63177 0.31735v2.3918c-0.22333 0-0.43687 0.05003-0.63177 0.13665v-0.7734zm-0.31589 3.8208h-0.63177v-0.63679h0.63177zm1.2635-0.95519h-0.63177v-0.63679h0.63177zm0.63177-1.586c-0.09761-0.07467-0.20501-0.13291-0.31588-0.18294v-2.3893c0.10393 0.0112 0.2088 0.01867 0.31588 0.01867 0.44666 0 0.87437-0.10416 1.2635-0.2998v2.565c-0.10298-0.0224-0.20754-0.03734-0.31589-0.03734-0.34337 0-0.67536 0.11574-0.94766 0.32444zm2.2112 2.5412h-0.63177v-0.63679h0.63177zm-0.32505-2.5472h0.00915v-5.5446l-2.9355-2.9589 0.50099-0.50496 2.4345 2.4539v-3.3158h0.63177v10.545c-0.043906-0.0075-0.086237-0.0224-0.13141-0.02614-0.11088-0.26247-0.28998-0.48237-0.50952-0.64762zm2.8199 3.184c-0.10298-0.50784-0.44887-0.93578-0.92649-1.1411-0.051489-0.44481-0.28683-0.83232-0.62577-1.0877h0.00504v-3.8046c0.39075 0.19564 0.82351 0.30204 1.2635 0.30204 0.45393 0 0.88258-0.10678 1.2635-0.29607v2.8516c-0.26471-0.20198-0.59071-0.32668-0.94766-0.32668h-0.94764v0.31847c0 0.87783 0.70853 1.592 1.5794 1.592h0.31589v0.95519h5e-3c-0.14025 0.1863-0.24134 0.40248-0.28904 0.63679zm1.6224-1.1411c-0.0038 0.0016-0.0069 0.0037-0.01075 0.0037v-5.3221c0.25745-0.23185 0.47193-0.51101 0.63177-0.82593v5.0591c-0.3361 0.25537-0.56986 0.64097-0.62103 1.0835zm2.2005 0.50433h-0.63177v-0.63679h0.63177zm2.843-0.95519h-0.63177v-0.63679h0.63177zm1.2635 0.31847v0.63679h-0.63177v-0.63679z" fill="#8dd35f" stroke-width=".31714"/>
 <path d="m14.14 3.2617h0.94766v-0.31847c0-0.87783-0.70853-1.592-1.5794-1.592h-0.94766v0.31847c0 0.87783 0.70853 1.592 1.5794 1.592z" fill="#93ac93" stroke-width=".31714"/>
 <path d="m18.878 0.39612c-0.8709 0-1.5794 0.71419-1.5794 1.592v0.31847h0.94766c0.8709 0 1.5794-0.71419 1.5794-1.592v-0.31847z" fill="#93ac93" stroke-width=".31714"/>
</svg>
