<svg version="1.1" viewBox="0 0 20 20" xmlns="http://www.w3.org/2000/svg">
 <path d="m19.787 10.922h-3.2356v1.9047h-0.76696v-7.0104c0-0.13243-0.04794-0.18517-0.16777-0.18517h-0.98267c-0.11984 0-0.16777 0.052743-0.16777 0.18517v1.2698h-1.2942v-1.2698c0-0.13243-0.04794-0.18517-0.16778-0.18517h-0.98267c-0.11984 0-0.16778 0.052743-0.16778 0.18517v1.2698h-1.2942v-1.2698c0-0.052743 0-0.079683-0.02398-0.10586-0.02398-0.026561-0.04794-0.052743-0.09587-0.052743-0.04794 0-0.0719-0.026561-0.09587-0.026561h-0.11984-0.09587v-1.5079c0.33555-0.079683 0.64712-0.13243 0.91077-0.13243 0.11984 0 0.31158 0.026561 0.57522 0.079683 0.23968 0.052743 0.43142 0.079683 0.55125 0.079683 0.19174 0 0.38348-0.026561 0.62316-0.079683 0.23968-0.052743 0.35951-0.13243 0.35951-0.23791v-2.3544c0-0.13243-0.04794-0.18517-0.16778-0.18517-0.04794 0-0.16777 0.026561-0.38348 0.079683-0.21571 0.052743-0.35951 0.079304-0.47935 0.079304-0.11984 0-0.28761-0.026561-0.55125-0.079304-0.26364-0.052743-0.45538-0.079683-0.59919-0.079683-0.26364 0-0.55125 0.026561-0.83886 0.10586v-0.18517c0.21571-0.10586 0.33555-0.29103 0.33555-0.55554 0-0.18517-0.04794-0.31759-0.16777-0.44972-0.11984-0.13243-0.23968-0.18517-0.38348-0.18517-0.14381 0-0.28761 0.052743-0.38348 0.18517-0.11984 0.13243-0.16778 0.26485-0.16778 0.44972 0 0.26485 0.11984 0.44976 0.33555 0.55554v4.3914h-0.09587-0.11984c-0.023981 0-0.047939 0-0.09587 0.026561-0.047939 0-0.071909 0.026561-0.095871 0.052743-0.023981 0.026561-0.023981 0.052743-0.023981 0.10586v1.2698h-1.2942v-1.2433c0-0.13243-0.047939-0.18517-0.16777-0.18517h-0.98267c-0.11984 0-0.16777 0.052743-0.16777 0.18517v1.2698h-1.2942v-1.2698c0-0.13243-0.047939-0.18517-0.16778-0.18517h-0.98267c-0.11984 0-0.16777 0.052743-0.16777 0.18517v7.0368h-0.67109v-1.9047h-3.2356v1.9047h1.3182v7.1956h6.5192v-3.5978c0-0.60848 0.19174-1.1111 0.57522-1.5344 0.38348-0.42323 0.83886-0.63492 1.3901-0.63492 0.55125 0 1.0066 0.21135 1.3901 0.63492 0.38348 0.42327 0.57522 0.92588 0.57522 1.5344v3.5978h6.5192v-7.1956h1.3901v-1.9311zm-11.816-1.6666v1.6666h-1.2942v-1.6666zm3.9067 1.6666v-1.6666h1.2942v1.6666z" fill="#b3b3b3" stroke-width=".2518"/>
</svg>
