<svg version="1.1" viewBox="0 0 20 20" xmlns="http://www.w3.org/2000/svg">
 <defs>
  <style>.cls-1{fill-rule:evenodd;}</style>
 </defs>
 <g transform="matrix(.21499 0 0 .21499 .72686 .31595)" style="fill:#ac9393">
  <path class="cls-1" transform="translate(-7.89,-5)" d="m76.71 79.21v15.79l-11.71-9a42.15 42.15 0 0 1-57.11-39.14 42.11 42.11 0 0 1 84.22 0 41.67 41.67 0 0 1-15.4 32.35zm-4.78-5 0.79-3.65-3.72-0.82-0.79 3.64zm-35.67 4.2 3.11-1.46-1.51-3.21-3.12 1.46zm-13.51-14.14 3-1a6.63 6.63 0 0 1-0.12-4.25 4.42 4.42 0 0 1 2.37-2.47 4.58 4.58 0 0 1 3.64-0.19 4.36 4.36 0 0 1 2.6 2.31 3.75 3.75 0 0 1 0.37 1.88 10.82 10.82 0 0 1-0.88 2.93 22.75 22.75 0 0 0-1 2.89 7.26 7.26 0 0 0-0.22 2.35 9.19 9.19 0 0 0 0.9 3.08c0.09 0.19 0.22 0.47 0.41 0.84l2.63-1.23a12.37 12.37 0 0 1-0.92-2.56 4.21 4.21 0 0 1 0-1.62 15.53 15.53 0 0 1 0.89-2.62 14.13 14.13 0 0 0 1.22-4.35 6.39 6.39 0 0 0-0.62-3.1 6.51 6.51 0 0 0-4-3.52 8 8 0 0 0-6.07 0.61 7.8 7.8 0 0 0-4.15 4 8.46 8.46 0 0 0-0.05 6.02zm-2.75-33.37a9.73 9.73 0 0 1 3.93-4 11.27 11.27 0 0 1 5.59-1.41 10.71 10.71 0 0 1 4.91 1.12 7.93 7.93 0 0 1 3.34 3 7.62 7.62 0 0 1 1.12 4 7.83 7.83 0 0 1-0.89 3.52 7.25 7.25 0 0 1-2.37 2.76 3.52 3.52 0 0 1-1.82 0.78 0.87 0.87 0 0 1-0.64-0.25 0.8 0.8 0 0 1-0.27-0.6c0-0.13 0.13-0.79 0.39-2l1.89-8.62h-2.32l-0.44 2a5.22 5.22 0 0 0-1.78-1.78 4.37 4.37 0 0 0-2.18-0.58 5.66 5.66 0 0 0-3.08 1 7.92 7.92 0 0 0-2.65 3.07 8.83 8.83 0 0 0-1.07 4.09 6.72 6.72 0 0 0 0.69 3 4.81 4.81 0 0 0 1.79 2.06 4.18 4.18 0 0 0 4.38 0.08 7.36 7.36 0 0 0 1.91-1.55 3.43 3.43 0 0 0 0.24 1.11 1.81 1.81 0 0 0 0.82 0.77 3.37 3.37 0 0 0 1.46 0.27 7 7 0 0 0 5.22-2.6 9.64 9.64 0 0 0 1.4-11.44 9.67 9.67 0 0 0-4.08-3.89 12.79 12.79 0 0 0-5.84-1.3 13.07 13.07 0 0 0-7.13 1.85 12.05 12.05 0 0 0-4.52 5.41 14.12 14.12 0 0 0-1.31 6 12.59 12.59 0 0 0 1.08 5.23 9.85 9.85 0 0 0 2.61 3.39 11.43 11.43 0 0 0 4.18 2.2 18.69 18.69 0 0 0 5.37 0.73 15.89 15.89 0 0 0 5.39-0.81 12.41 12.41 0 0 0 3.87-2.22 9 9 0 0 0 2.29-2.75h-2.37a9 9 0 0 1-3.47 2.75 13.12 13.12 0 0 1-5.75 1.13 15.13 15.13 0 0 1-5.89-1.11 8.25 8.25 0 0 1-4-3.31 10.2 10.2 0 0 1-1.4-5.43 11.83 11.83 0 0 1 1.4-5.67zm30-18.65h-4.33v6.28l1.06 15h2.27l1-15zm-4.18 24.37v4h4v-4zm5.57 16.17a5.21 5.21 0 0 0-2.22 3.59 5.56 5.56 0 0 0 0.2 2.36 14.78 14.78 0 0 0 1.68 3.39 12 12 0 0 0-4.68 2.61 6.57 6.57 0 0 0-2 3.89 7.31 7.31 0 0 0 6.46 8.24 8.29 8.29 0 0 0 3.78-0.3 10 10 0 0 0 3.49-2 17.51 17.51 0 0 0 3.13 4l2.3-2.11a17.37 17.37 0 0 1-3.15-4.28 17.82 17.82 0 0 0 2.86-5l-2.92-1.11a14.42 14.42 0 0 1-1.63 3.24l-3.43-6.2c3.22-1.22 5-3 5.33-5.31a5.05 5.05 0 0 0-1-3.91 5.42 5.42 0 0 0-3.74-2.11 5.79 5.79 0 0 0-4.46 1.01zm23.36-17.32h-4.84l1.3-6.33h3.54v-2.6h-3l1.51-7.48h-2.64l-1.52 7.48h-5.49l1.52-7.48h-2.62l-1.51 7.48h-5.28v2.6h4.75l-1.29 6.33h-3.46v2.6h2.94l-1.52 7.42h2.62l1.52-7.42h5.47l-1.5 7.42h2.62l1.51-7.42h5.37zm-1 11.79-1.25 5.74-2 14.05 2.06 0.44 3.91-13.59 1.25-5.78zm-12-11.79 1.29-6.33h5.49l-1.31 6.33zm-4.62 19.82a2.86 2.86 0 0 1 0.47 2.15 3.47 3.47 0 0 1-0.84 1.84 7.91 7.91 0 0 1-2.76 1.72l-1-1.79a6 6 0 0 1-0.65-1.45 2.85 2.85 0 0 1-0.11-1.24 2.7 2.7 0 0 1 3.13-2.3 2.57 2.57 0 0 1 1.76 1.07zm-0.52 16.63a6.88 6.88 0 0 1-2.55 1.85 5.22 5.22 0 0 1-2.83 0.45 3.78 3.78 0 0 1-3-2.07 5.41 5.41 0 0 1-0.7-3.25 4.53 4.53 0 0 1 1.18-2.35 10.56 10.56 0 0 1 3.57-2.23zm-26.61-32.73a5.34 5.34 0 0 1-1.56 1.28 3.24 3.24 0 0 1-1.54 0.43 2.52 2.52 0 0 1-1.95-1 4 4 0 0 1-0.85-2.74 8.06 8.06 0 0 1 0.42-2.43 7.39 7.39 0 0 1 1.11-2.25 4.92 4.92 0 0 1 1.43-1.34 3.17 3.17 0 0 1 1.58-0.42 2.8 2.8 0 0 1 2.16 1 3.84 3.84 0 0 1 0.88 2.71 7.74 7.74 0 0 1-0.48 2.57 6.79 6.79 0 0 1-1.2 2.19z" style="fill-rule:evenodd;fill:#ac9393"/>
 </g>
</svg>
