<svg version="1.1" viewBox="0 0 20 20" xmlns="http://www.w3.org/2000/svg">
 <path d="m10.981 7.0445s3.9582-0.34128 5.4609 6.278c0 0 0.88715 3.7536-0.23898 5.3573 0 0-0.54587 1.2932-3.2757 1.2932h-6.2789c-1.0816 0-2.1248-0.45239-2.8264-1.2756-0.49561-0.58247-0.87613-1.4039-0.82498-2.5428 0.1023-2.2774 1.5874-3.6156 2.3224-4.1408a6.9297 6.9297 0 0 0 1.0939-0.96608c0.43079-0.47356 0.94403-1.1023 1.1557-1.6147 0.64817-1.5697 2.3638-2.3885 3.4119-2.3885z" fill="#0ff" stroke-width=".044093"/>
 <path d="m9.7092 4.932a2.1663 2.1663 0 0 0-0.036156 0.59878 0.57938 0.57938 0 0 0 0.60628 0.53529c0.56086-0.026014 1.489-0.011016 2.2898 0.27823a0.58467 0.58467 0 0 0 0.74209-0.31747l0.0075-0.017195a0.5763 0.5763 0 0 0-0.1023-0.61157c-0.34657-0.38008-1.1693-0.95726-2.9542-0.91934a0.57674 0.57674 0 0 0-0.55293 0.45328z" fill="#0ff" stroke-width=".044093"/>
 <path d="m8.2881 1.2595a3.4543 3.4543 0 0 1 1.9013-0.56483 0.39199 0.39199 0 0 1 0.39243 0.39375v2.1676a0.39243 0.39243 0 0 1-0.3113 0.38361l-0.36377 0.076281a0.38714 0.38714 0 0 1-0.25354-0.031747c-0.32276-0.1605-1.1579-0.68873-1.5261-1.9873a0.39419 0.39419 0 0 1 0.16094-0.4374z" fill="#0ff" stroke-width=".044093"/>
 <path d="m11.633 0.76826-0.21517 2.3991a0.44093 0.44093 0 0 0 0.34701 0.47047 3.7766 3.7766 0 0 1 1.4617 0.67639 0.44093 0.44093 0 0 0 0.56571-0.037038c0.42021-0.40081 1.3087-1.1323 2.501-1.4881a0.76546 0.76546 0 0 0 0.35892-1.2346c-0.65081-0.74958-1.9106-1.6169-4.2329-1.5305a0.81925 0.81925 0 0 0-0.78618 0.74429z" fill="#0ff" stroke-width=".044093"/>
 <path d="m6.4366 3.5135a7.7401 7.7401 0 0 1 2.1606 1.1023 0.50839 0.50839 0 0 1 0.20195 0.45857 3.9865 3.9865 0 0 0-0.0044096 0.72357 0.50883 0.50883 0 0 1-0.23105 0.46959 5.5447 5.5447 0 0 0-1.1094 0.94712 0.47973 0.47973 0 0 1-0.72401-0.0044163 0.47753 0.47753 0 0 1-0.023369-0.59482 2.1954 2.1954 0 0 1 0.6614-0.59437 0.38008 0.38008 0 0 0 0.18651-0.29278 0.38096 0.38096 0 0 0-0.1874-0.36597 4.5826 4.5826 0 0 0-1.2835-0.50751 0.67947 0.67947 0 0 1-0.53882-0.7024c0-0.015432 0-0.031307 0.00353-0.04762a0.67815 0.67815 0 0 1 0.88803-0.59129z" fill="#0ff" stroke-width=".044093"/>
</svg>
