<svg version="1.1" viewBox="0 0 20 20" xmlns="http://www.w3.org/2000/svg">
 <path d="m17.466 10.068c-0.1624-0.1858-0.3518-0.3466-0.5624-0.4774l-3.0898-2.6236 4.628-6.8764-6.2466 5.5022-0.3246-0.2758 0.2728-1.2832s0.1712-0.8052 0.17-0.8076l-1e-3 2e-4c-0.2884-0.5162-1.4932-0.4732-2.7514 0.1128-0.9326 0.4346-1.6362 1.0476-1.8714 1.5696-2.5876 0.8268-4.9624 3.5716-5.9286 7.2376-0.7848 2.9788-0.4616 5.888 0.676 7.9442h12.818c0.047-0.2376 0.0728-0.4828 0.0728-0.7342 0-0.6098-0.1478-1.2244-0.4376-1.762-0.1404-0.2604-0.3108-0.5094-0.5068-0.731-0.249-0.2816-0.548-0.5118-0.8206-0.7692-0.557-0.526-1.3136-1.1408-1.5872-1.8788-0.1954-0.527-0.1898-1.0874-0.0812-1.6374 0 0 1.6664 0.5714 1.6676 0.5706 0.4516 0.634 1.1912 1.0492 2.0292 1.0492 1.3764 0 2.492-1.1156 2.492-2.492 0-0.624-0.2308-1.1928-0.6086-1.6308z" style="fill:#ffb380;stroke-width:.2"/>
</svg>
