<svg version="1.1" viewBox="0 0 20 20" xmlns="http://www.w3.org/2000/svg">
 <path d="m7.928 11.573c0-1.3427 2.7037-2.4312 6.0388-2.4312 3.3351 0 6.0388 1.0885 6.0388 2.4312s-2.7037 2.4311-6.0388 2.4311c-3.335 0-6.0388-1.0884-6.0388-2.4311zm6.0388 3.5879c-3.335 0-6.0388-1.0884-6.0388-2.4312v1.1567c0 1.3428 2.7037 2.4312 6.0388 2.4312 3.3351 0 6.0388-1.0884 6.0388-2.4312v-1.1567c0 1.3427-2.7037 2.4312-6.0388 2.4312zm0 2.3789c-3.335 0-6.0388-1.0884-6.0388-2.4311v1.1567c0 1.3428 2.7037 2.4312 6.0388 2.4312 3.3351 0 6.0388-1.0884 6.0388-2.4312v-1.1567c0 1.3427-2.7037 2.4311-6.0388 2.4311zm-7.8944-10.829c3.335 0 6.0388-1.0884 6.0388-2.4312 0-1.3427-2.7037-2.4312-6.0388-2.4312-3.3351 0-6.0388 1.0884-6.0388 2.4312 0 1.3428 2.7037 2.4312 6.0388 2.4312zm0 1.1567c-3.3351 0-6.0388-1.0884-6.0388-2.4312v1.1567c0 1.3428 2.7037 2.4312 6.0388 2.4312 3.335 0 6.0388-1.0884 6.0388-2.4312v-1.1567c0 1.3427-2.7037 2.4312-6.0388 2.4312zm0 3.5357c0.35618 0 0.70493-0.01146 1.0443-0.03821 0.039044-0.33973 0.18552-0.77298 0.59419-1.2109-0.52108 0.05885-1.0705 0.09057-1.6385 0.09057-3.3351 0-6.0388-1.0884-6.0388-2.4312v1.1568c0 1.3427 2.7037 2.4312 6.0388 2.4312zm0 2.3267c0.3521 0 0.69678-0.01146 1.0321-0.03821v-1.1569c-0.33556 0.02293-0.68023 0.03822-1.0321 0.03822-3.3351 0-6.0388-1.0884-6.0388-2.4312v1.1568c0 1.3427 2.7037 2.4312 6.0388 2.4312zm1.0323 1.379v-0.25795c-0.33557 0.02293-0.68024 0.03822-1.0321 0.03822-3.335 0-6.0388-1.0885-6.0388-2.4312v1.1568c0 1.3427 2.7037 2.4312 6.0388 2.4312 0.35187 0 0.69679-0.01147 1.0321-0.03439z" fill="#ffe680" stroke-width=".23969"/>
</svg>
