<svg version="1.1" viewBox="0 0 20 20" xmlns="http://www.w3.org/2000/svg">
 <circle cx="6.929" cy="1.6629" r="1.6036" fill="#ff0" stroke-width=".21519"/>
 <path d="m13.966 3.6207h-1.4211v1.5866h1.4209c1.0252 0.00301 1.0252-1.5866 2.15e-4 -1.5866z" fill="#ff0" stroke-width=".21519"/>
 <path d="m12.151 3.6207h-3.2828v0.00151h-0.10824l-3.7409-0.00151c-1.2074 0-1.9643 0.98515-1.9643 2.2135v5.238c0 1.0176 1.345 1.0176 1.345 0v-5.0986h0.42823l-0.00215 12.998c0 0.52744 0.42845 0.9561 0.95632 0.9561 0.52916 0 0.95761-0.42866 0.95761-0.9561v-7.3221h0.4263l-0.00323 7.3219c0 0.52744 0.42802 0.9561 0.95675 0.9561 0.52765 0 0.9561-0.42866 0.9561-0.9561l0.0038737-12.998v-0.76608h3.0714z" fill="#ff0" stroke-width=".21519"/>
 <path d="m16.621 11.105-2.2339-4.2942c-0.053582-0.10307-0.15408-0.17323-0.2692-0.18829l-1.5752-0.20379v-1.2124h-0.38885v1.1623l-0.5326-0.068889c-0.14375-0.018544-0.28707 0.053761-0.357 0.18248l-1.2021 2.209c-0.05681 0.10437-0.05767 0.22983-0.0026 0.33506l2.2834 4.3441c0.04411 0.0835 0.11922 0.14611 0.2096 0.17409 0.03401 0.01033 0.0693 0.0157 0.10437 0.0157 0.05745 0 0.11448-0.01423 0.16634-0.04156l3.6488-1.936c0.17258-0.09167 0.23886-0.30471 0.14891-0.47751zm-3.8156 1.6195-2.0297-3.8606 0.9957-1.8291 0.38218 0.049532v0.61889c-0.20852 0.083708-0.35614 0.28685-0.35614 0.52529 0 0.31289 0.25371 0.5666 0.5666 0.5666 0.3131 0 0.56682-0.25372 0.56682-0.5666 0-0.25049-0.16333-0.4603-0.38842-0.53518v-0.55885l1.3004 0.16828 1.986 3.8175z" fill="#ff0" stroke-width=".21519"/>
</svg>
