<svg version="1.1" viewBox="0 0 20 20" xmlns="http://www.w3.org/2000/svg">
 <path class="fil0" d="m19.022 2.7274h-18.21v11.988h18.21zm-4.3457 7.3638c1.0129 0.02133 1.8275 0.84912 1.8275 1.867 0 1.0308-0.83648 1.8673-1.8673 1.8673-1.0313 0-1.8675-0.83648-1.8675-1.8673 0-0.38941 0.11927-0.75091 0.3228-1.0498-0.64375-0.59346-1.5729-0.8744-2.4989-1.154-1.7988-0.54344-3.5897-1.085-4.2114-3.1282l-0.19747 0.29805c-0.59215 0.89546-1.9536-0.0052659-1.3612-0.9002l1.273-1.9247c0.24829-0.37572 0.75486-0.47893 1.1308-0.23038l1.9244 1.2733c0.8952 0.59215-0.0055292 1.9536-0.90073 1.3615l-0.17588-0.11664c0.54054 1.065 1.7633 1.4342 2.9905 1.8049 1.3712 0.41416 2.748 0.83069 3.6113 1.8991zm-5.9449 0.54739h2.3059c0.30463 0 0.55292 0.24829 0.55292 0.55292v2.3059c0 0.3041-0.24829 0.55239-0.55292 0.55239h-2.3059c-0.3041 0-0.55265-0.24828-0.55265-0.55239v-2.3059c0-0.30463 0.24855-0.55292 0.55265-0.55292zm0.92864 0.67666 0.22512 0.22512 0.22433-0.22485c0.53133-0.53185 1.3362 0.27251 0.80436 0.80462l-0.22459 0.22433 0.22433 0.22433c0.53212 0.53212-0.27251 1.3365-0.80436 0.8041l-0.22406-0.22406-0.22485 0.22433c-0.53238 0.53185-1.3365-0.27198-0.8041-0.8041l0.22433-0.22459-0.22459-0.22485c-0.53212-0.53159 0.27225-1.336 0.8041-0.80436zm3.496-7.2877h2.3059c0.3041 0 0.55265 0.24829 0.55265 0.55239v2.3059c0 0.3041-0.24855 0.55265-0.55265 0.55265h-2.3059c-0.30437 0-0.55292-0.24855-0.55292-0.55265v-2.3059c0-0.3041 0.24855-0.55239 0.55292-0.55239zm0.92864 0.67614 0.22485 0.22512 0.22433-0.22459c0.53159-0.53212 1.336 0.27225 0.80436 0.80436l-0.22485 0.22433 0.22459 0.22433c0.53185 0.53212-0.27198 1.3365-0.8041 0.80462l-0.22433-0.22459-0.22485 0.22459c-0.53212 0.53185-1.3365-0.27198-0.8041-0.8041l0.22432-0.22485-0.22459-0.22459c-0.53212-0.53185 0.27225-1.3362 0.80436-0.80462zm-10.356 2.9602h2.3059c0.3041 0 0.55239 0.24829 0.55239 0.55265v2.3059c0 0.3041-0.24829 0.55239-0.55239 0.55239h-2.3059c-0.30463 0-0.55292-0.24828-0.55292-0.55239v-2.3059c0-0.30437 0.24829-0.55265 0.55292-0.55265zm-0.12138 1.7965c-0.38467-0.4447 0.29252-1.0305 0.67719-0.58583l0.34491 0.39942 0.89651-0.77356c0.4447-0.38493 1.0305 0.29305 0.58583 0.67666l-1.2362 1.0671c-0.18746 0.16192-0.46998 0.14112-0.6319-0.04608zm6.7343 10.281c0.85254 0.15482 0.74012 1.4226-0.12849 1.4226h-0.59215c-0.8686 0-0.98103-1.2678-0.12822-1.4226v-1.901h0.84886zm-9.5294-2.6706h18.21v-1.2965h-18.21zm5.0131-15.402h8.1834v-1.6595h-8.1834z" clip-rule="evenodd" fill="#f95" fill-rule="evenodd" image-rendering="optimizeQuality" shape-rendering="geometricPrecision" stroke-width=".026329"/>
</svg>
