<svg version="1.1" viewBox="0 0 20 20" xmlns="http://www.w3.org/2000/svg">
 <path d="m0.8731 0.79091a2.8042 2.8042 0 0 0-0.28872 0.32589 0.17288 0.17288 0 0 0 0.1811 0.27315h0.004322a3.2009 3.2009 0 0 1 3.6872 1.9078l0.013831 0.033713a0.72006 0.72006 0 0 0 0.66733 0.44172h11.088a0.87738 0.87738 0 0 0 0.44734-0.81298c-0.036306-0.63621-0.18715-1.4846-0.67122-2.1667a1.8974 1.8974 0 0 0-1.5521-0.7823h-11.581c-0.7421-0.0017316-1.4652 0.26883-1.9964 0.7797z" fill="#87de87" stroke-width=".043221"/>
 <path d="m19.281 13.571c-0.63189-1.4963-2.3076-5.2889-4.3143-8.4428a1.0373 1.0373 0 0 0-0.87782-0.47543h-8.9506a1.5961 1.5961 0 0 1-1.4933-0.99408l-0.010806-0.026364c-0.43221-1.0408-1.5745-1.6363-2.6607-1.3831h-0.00994a1.2244 1.2244 0 0 0-0.95086 1.2966c0.016424 0.17288 0.043221 0.35873 0.07823 0.5515a2.7769 2.7769 0 0 0 0.35917 0.92493c0.43869 0.72092 1.438 2.4014 2.5241 4.4898 0.98241 1.6022 3.0903 5.2254 3.1365 6.8955 0.017288 0.62627-0.17634 1.1017-0.59256 1.4531a1.2534 1.2534 0 0 1-0.80434 0.29866c-0.27834 0-0.6133-0.09336-0.99408-0.36997a0.44128 0.44128 0 1 1 0.51865-0.71401c0.45036 0.33021 0.62713 0.18066 0.70234 0.11713 0.15387-0.12966 0.29433-0.31162 0.2818-0.76112v-0.0074a1.049 1.049 0 0 0-1.0727-1.0156h-0.01945a1.8291 1.8291 0 0 0-1.3649 0.64831 2.2907 2.2907 0 0 0-0.3194 0.5113c-0.64313 1.4176 0.24549 3.0462 1.782 3.3699a6.7766 6.7766 0 0 0 1.4021 0.13182h10.88s4.058 0.18066 3.3431-4.5036a8.3961 8.3961 0 0 0-0.57224-1.9951zm-6.7731 2.7852a0.77798 0.77798 0 1 1 0.77798-0.77798 0.77798 0.77798 0 0 1-0.77798 0.77798zm0.70536-5.7765c-0.09811 0.20962-0.2161 0.4374-0.35268 0.67468a3.781 3.781 0 0 0-0.52513 1.852c0 0.08082 0 0.16294 0.0056 0.2455a0.44863 0.44863 0 0 1-0.83114 0.26192c-0.22172-0.35528-0.50093-1.0667-0.20357-2.1472a2.7393 2.7393 0 0 1 0.204-0.51217c0.1556-0.30687 0.44085-0.96555 0.38899-1.6013a1.1121 1.1121 0 0 0-0.61934-0.92666 1.0325 1.0325 0 0 0-0.52427-0.095518 1.0922 1.0922 0 0 0-0.64399 0.28785 2.1727 2.1727 0 0 0-0.59472 0.88819c-0.12491 0.35312-0.62152 0.36695-0.77495 0.025068a1.9575 1.9575 0 0 1-0.1409-1.2206 2.1299 2.1299 0 0 1 1.7638-1.6705c0.44431-0.065695 0.99408-0.01297 1.6091 0.32329 0.11151 0.060508 0.2161 0.12448 0.31249 0.19017 1.1099 0.75507 1.4941 2.2107 0.92666 3.4253z" fill="#87de87" stroke-width=".043221"/>
</svg>
