<svg version="1.1" viewBox="0 0 20 20" xmlns="http://www.w3.org/2000/svg">
 <path d="m10.618 6.5109c-2e-3 -0.00112-0.0038-0.00247-0.0059-0.0036-6.75e-4 -4.5e-4 -0.0016-6.75e-4 -0.0023-0.00113 0.0045-0.012599 0.0085-0.024748 0.01305-0.037347-0.0045 0.012599-9e-3 0.024523-0.0135 0.037122-0.0027-0.00157-0.0056-0.0027-0.0083-0.00405 3.8326-11.933-11.932-4.4952-0.52556 0.10372-0.0076 9e-3 -0.01462 0.018449-0.0216 0.027898-10.536-3.2609-5.5485 9.0812-1.1122 3.1772-0.055121 0.24681-0.10732 0.50554-0.15434 0.77687-0.38022 2.192-0.49631 5.6118 1.1094 9.4538 0.06952 0.16581 0.23016 0.26593 0.39957 0.26593 0.05557 0 0.11227-0.0108 0.16671-0.03352 0.22048-0.09224 0.32465-0.3458 0.2324-0.56628-1.5189-3.6342-1.4154-6.8654-1.0612-8.9361 0.058946-0.34535 0.12689-0.67068 0.19934-0.9744-0.65358 7.9194 11.596 1.2968 1.0027-2.8904 4.5e-4 -0.0081 6.75e-4 -0.016199 6.75e-4 -0.024298 11.924 3.7934 4.3678-12.088-0.21891-0.37145z" style="fill:#5555ff;stroke-width:.22498"/>
</svg>
