<svg version="1.1" viewBox="0 0 20 20" xmlns="http://www.w3.org/2000/svg">
 <path d="m-1.3575 10.178s4.0534 1.0798 6.5785 1.3124c2.5251 0.23257 4.3358 1.9935 4.3358 1.9935l11.011-2.7934 1.4648 10.618-25.749-0.6645z" fill="#acf" fill-rule="evenodd"/>
 <path d="m8.3604 8.7936h-1.0063c0.18868-1.0035 1.0063-1.7993 1.9811-1.7993 1.3836 0 2.3585 1.4879 1.9182 2.9412z" fill="#f60" stroke-width=".32986"/>
 <path d="m20.09 8.1362v4.1868c-3.9937 0.0346-7.6729 0.62283-10.692 1.7301-0.15723-0.13841-0.34591-0.24221-0.53459-0.38062l3.4276-2.7335 1.0377-0.79584c0.12578 0 3.8993-0.34602 3.9937-0.38062z" fill="#ac9d93" stroke-width=".32986"/>
 <path d="m8.266 13.292c-2.2327-1.4187-5.0314-2.4567-8.3018-2.4913v-2.9412l3.8679 1.6263c0.094341 0.034584 4.3081 0.034584 4.4025 0.034584l3.1761 1.2803z" fill="#ac9d93" stroke-width=".32986"/>
 <path d="m-0.035802 16.337c4.1195 0 6.2893 2.2837 7.61 3.737h-2.1698c-1.1006-1.0381-2.4528-2.0069-5.4402-2.0761z" fill="#2c5aa0" stroke-width=".32986"/>
 <path d="m10.907 20.074h-2.4214c-1.2579-1.3149-3.4905-4.4636-8.5219-4.4636v-1.6955c5.849 0.0346 9.9685 4.3598 10.943 6.1591z" fill="#2c5aa0" stroke-width=".32986"/>
 <path d="m-0.035802 18.724c2.2327 0.06921 3.4591 0.62283 4.4025 1.3495h-4.4025z" fill="#2c5aa0" stroke-width=".32986"/>
 <path d="m11.788 16.164c2.3585-0.69204 5.2201-1.1073 8.3018-1.1073v1.2803c-2.7358 0.0346-5.2515 0.38062-7.2641 1.0035-0.31446-0.38062-0.66037-0.79584-1.0377-1.1765z" fill="#2c5aa0" stroke-width=".32986"/>
 <path d="m13.297 17.928c1.9182-0.55363 4.2452-0.86504 6.7924-0.86504v1.2803c-2.2956 0.0346-4.4654 0.34602-5.8805 0.86504-0.25157-0.38062-0.53459-0.83044-0.91194-1.2803z" fill="#2c5aa0" stroke-width=".32986"/>
 <path d="m14.555 19.832c1.3522-0.48442 3.3648-0.76124 5.5345-0.76124v1.0035h-5.3773c-0.06289-0.06921-0.09434-0.17301-0.15723-0.24221z" fill="#2c5aa0" stroke-width=".32986"/>
 <path d="m10.058 14.572c2.8616-0.96885 6.3207-1.5225 10.031-1.5225v1.2803c-3.3333 0.0346-6.3836 0.44982-8.8678 1.2803-0.37736-0.34602-0.75471-0.69204-1.1635-1.0381z" fill="#2c5aa0" stroke-width=".32986"/>
 <path d="m13.958 20.074h-2.2956c-0.8176-1.9031-5.2515-6.8166-11.698-6.8512v-1.6955c5.9119 0.03458 11.541 4.1176 13.994 8.5466z" fill="#2c5aa0" stroke-width=".32986"/>
 <path d="m7.1968 7.4095-1.195-1.3149c-0.12579-0.13841-0.12579-0.38062 0-0.51903 0.12579-0.13841 0.34591-0.13841 0.47169 0l1.195 1.3149c0.31446 0.34602-0.15723 0.83044-0.47169 0.51903z" fill="#d4aa00" stroke-width=".32986"/>
 <path d="m9.3352 4.0877c0.18868 0 0.31446 0.17301 0.31446 0.34602v1.8339c0 0.20761-0.15723 0.34602-0.31446 0.34602-0.18868 0-0.31446-0.17301-0.31446-0.34602v-1.8339c-0.031429-0.20761 0.12579-0.34602 0.31446-0.34602z" fill="#d4aa00" stroke-width=".32986"/>
 <path d="m6.9767 7.7555c0.4088 0.17301 0.15723 0.83044-0.25157 0.65743l-0.72326-0.31142c-0.15723-0.069205-0.25157-0.27682-0.18868-0.48442 0.062893-0.17301 0.25157-0.27682 0.4088-0.20761z" fill="#d4aa00" stroke-width=".32986"/>
 <path d="m10.058 6.3715 0.28301-0.79584c0.06289-0.17301 0.25157-0.27682 0.4088-0.20761 0.15723 0.069205 0.25157 0.27682 0.18868 0.48443l-0.28302 0.79584c-0.062893 0.20761-0.28302 0.27682-0.4088 0.20761-0.18868-0.1038-0.25157-0.31141-0.18868-0.48443z" fill="#d4aa00" stroke-width=".32986"/>
 <path d="m12.826 7.6171c0.06289 0.17301 0 0.38062-0.18868 0.48442l-0.72326 0.31141c-0.15723 0.069205-0.34591 0-0.44025-0.20761-0.06289-0.17301 0-0.38062 0.18868-0.44982l0.72326-0.31141c0.15723-0.069205 0.37736 0 0.44025 0.17301z" fill="#d4aa00" stroke-width=".32986"/>
 <path d="m8.0144 6.6483-0.28301-0.79584c-0.062893-0.17301 0-0.38062 0.18868-0.48443 0.15723-0.069205 0.34591 0 0.44025 0.20761l0.28301 0.79584c0.12579 0.44982-0.47169 0.69204-0.62893 0.27681z" fill="#d4aa00" stroke-width=".32986"/>
 <path d="m11.002 6.8905 1.195-1.3149c0.12578-0.13841 0.34591-0.13841 0.47169 0s0.12579 0.38062 0 0.51903l-1.195 1.3149c-0.12579 0.13841-0.34591 0.13841-0.47169 0-0.15723-0.13841-0.15723-0.38062 0-0.51903z" fill="#d4aa00" stroke-width=".32986"/>
 <path d="m14.65 4.6414c0.56603 0 1.0692 0.31141 1.3836 0.79584 0.31446-0.48443 0.8176-0.79584 1.3836-0.79584 0.18868 0 0.31446 0.17301 0.31446 0.34602s-0.15723 0.34602-0.31446 0.34602c-0.59748 0-1.0692 0.51903-1.0692 1.1765 0 0.48442-0.66037 0.48442-0.66037 0 0-0.65743-0.47169-1.1765-1.0692-1.1765-0.18868 0-0.31446-0.17301-0.31446-0.34602s0.15723-0.34602 0.34591-0.34602z" fill="#ccc" stroke-width=".32986"/>
 <path d="m11.379 2.6345c0-0.20761 0.15723-0.34602 0.31446-0.34602 0.56603 0 1.0692 0.31142 1.3836 0.79584 0.31446-0.48442 0.8176-0.79584 1.3836-0.79584 0.18868 0 0.31446 0.17301 0.31446 0.34602 0 0.20761-0.15723 0.34602-0.31446 0.34602-0.59748 0-1.0692 0.51903-1.0692 1.1765 0 0.48442-0.66037 0.48442-0.66037 0 0-0.65743-0.47169-1.1765-1.0692-1.1765-0.12578 0-0.28301-0.17301-0.28302-0.34602z" fill="#ccc" stroke-width=".32986"/>
 <path d="m6.3792 2.5999c0.56603 0 1.0692 0.31142 1.3836 0.79584 0.31446-0.48442 0.8176-0.79584 1.3836-0.79584 0.18868 0 0.31446 0.17301 0.31446 0.34602 0 0.20761-0.15723 0.34602-0.31446 0.34602-0.59748 0-1.0692 0.51903-1.0692 1.1765 0 0.20761-0.15723 0.34602-0.31446 0.34602-0.18868 0-0.31446-0.17301-0.31446-0.34602 0-0.65743-0.47169-1.1765-1.0692-1.1765-0.18868 0-0.31446-0.17301-0.31446-0.34602-0.031429-0.20761 0.12579-0.34602 0.31446-0.34602z" fill="#ccc" stroke-width=".32986"/>
 <path d="m3.1088 0.55836c0-0.20761 0.15723-0.34602 0.31446-0.34602 0.56603 0 1.0692 0.31142 1.3836 0.79584 0.31446-0.48442 0.8176-0.79584 1.3836-0.79584 0.18868 0 0.31446 0.17301 0.31446 0.34602 0 0.20761-0.15723 0.34602-0.31446 0.34602-0.59748 0-1.0692 0.51903-1.0692 1.1765 0 0.20761-0.15723 0.34602-0.31446 0.34602-0.18868 0-0.31446-0.17301-0.31446-0.34602 0-0.65743-0.47169-1.1765-1.0692-1.1765-0.15723 0.034602-0.31446-0.13841-0.31446-0.34602z" fill="#ccc" stroke-width=".32986"/>
 <path d="m0.59312 2.9459c0-0.20761 0.15723-0.34602 0.31446-0.34602 0.56603 0 1.0692 0.31142 1.3836 0.79584 0.31446-0.48442 0.8176-0.79584 1.3836-0.79584 0.18868 0 0.31446 0.17301 0.31446 0.34602 0 0.20761-0.15723 0.34602-0.31446 0.34602-0.59748 0-1.0692 0.51903-1.0692 1.1765 0 0.20761-0.15723 0.34602-0.31446 0.34602-0.18868 0-0.31446-0.17301-0.31446-0.34602 0-0.65743-0.47169-1.1765-1.0692-1.1765-0.18868 0-0.31446-0.13841-0.31446-0.34602z" fill="#ccc" stroke-width=".32986"/>
</svg>
