<svg version="1.1" viewBox="0 0 20 20" xmlns="http://www.w3.org/2000/svg">
 <rect x="5.8324" y="2.6" width="7.6253" height="14.687" fill="#f00"/>
 <style type="text/css">.st0{fill-rule:evenodd;clip-rule:evenodd;}</style>
 <path d="m17.813 15.153c0.92977-1.48 1.4694-3.2298 1.4694-5.1067 0-5.3106-4.3051-9.6157-9.6156-9.6157-5.3106 0-9.6157 4.3051-9.6157 9.6157 0 5.3106 4.3051 9.6157 9.6157 9.6157 2.0272 0 3.9069-0.62889 5.4575-1.7001l4.8767 1.9049zm-8.1462 0.77767c-0.44135 0-0.79911-0.35776-0.79911-0.79911 0-0.44135 0.35776-0.79911 0.79911-0.79911 0.44132 0 0.79911 0.35776 0.79911 0.79911 0 0.44135-0.3578 0.79911-0.79911 0.79911zm1.7678-9.7005-0.96868 6.3418c0 0.44135-0.35776 0.79914-0.79911 0.79914-0.44135 0-0.79911-0.35779-0.79911-0.79914l-0.96871-6.3418h9.105e-4c-0.047429-0.16332-0.074183-0.33545-0.074183-0.51406 0-1.0168 0.82428-1.8411 1.8411-1.8411 1.0168 0 1.8411 0.82431 1.8411 1.8411 0 0.17862-0.02674 0.35075-0.07418 0.51406z" fill="#fd5" stroke-width=".29368"/>
</svg>
