<svg version="1.1" viewBox="0 0 20 20" xmlns="http://www.w3.org/2000/svg">
 <g>
  <path d="m7.299 0.064004c-1.285 0-2.3267 1.0417-2.3267 2.3267 0 1.285 1.0417 2.3267 2.3267 2.3267 1.285 0 2.3267-1.0417 2.3267-2.3267 0-1.285-1.0417-2.3267-2.3267-2.3267zm-2.8669 3.7483c-0.71331 0.010944-1.2588 0.67969-1.5315 1.2722-0.31099 0.67581-1.4172 3.1012-1.4886 7.4054-0.00891 0.54088-0.054292 1.2076 0.60309 1.4989 0.15728 0.10124 0.34457 0.16008 0.5463 0.16008h4.4268l0.35359 1.3299v-3.5961-0.31364h-2.8413c-0.099101-1.5221 0.22201-2.9587 0.5811-4.0391l1.4892 1.4891c0.089975 0.089943 0.19278 0.15903 0.30201 0.20801 0.17742 0.15593 0.41006 0.25035 0.6659 0.25035h3.3402c0.5585 0 1.0083-0.44983 1.0083-1.0084 0-0.55856-0.4498-1.0079-1.0083-1.0079h-3.0145l-1.9503-1.9507c0.087159-0.80028-0.44439-1.5352-1.2331-1.6757l-0.022458-0.00371c-0.07732-0.013757-0.15289-0.019746-0.22661-0.018606zm8.6943 0.9721-0.34846 0.30944 1.1977 1.0717-0.8492-1.3811zm-0.91957 0.068401-2.1335 2.3849h0.289 0.06096 0.45558c0.57286 0 1.0565 0.39433 1.1931 0.92556l1.7049-1.9056-1.57-1.4049zm2.0252 1.4295c-0.16049 0.15798-0.36568 0.035363-0.36568 0.035363l-1.7743 1.9833c0.0075 0.061115 0.01105 0.12386 0.01105 0.18752 0 0.063179-0.0039 0.12501-0.01105 0.18568l2.14-2.3918zm1.236 0.074918c-0.09461 0.00934-0.24472 0.052795-0.209 0.21499l0.81113 2.9163h2.4365l-0.85295-3.0652c-0.01034-0.03671-0.04859-0.066084-0.08566-0.066084h-2.1zm0.60634 0.57377h1.2317l0.20897 0.74454h-1.2318zm-16.016 0.20009v7.4012 1.0084 4.5752h1.1912v-4.3644h4.2588v4.3644h1.1912v-4.5752-1.0084c0-0.11666-0.094146-0.21033-0.21079-0.21033h-5.2393v-7.1909h-1.1912zm15.025 0.63752c-0.04128 0-0.07447 0.033224-0.07447 0.074447v0.53561c0 0.041252 0.03315 0.074454 0.07447 0.074454h0.51426l-0.19546-0.68451h-0.31876zm3.1061 0 0.19546 0.68451h0.83808c0.04121 0 0.07443-0.033224 0.07443-0.074454v-0.53561c0-0.041245-0.03315-0.074447-0.07443-0.074447zm-3.4039 0.80363c-0.04128 0-0.0745 0.033188-0.0745 0.074461v0.76735c0 0.041241 0.03315 0.074447 0.0745 0.074447h1.1075l-0.26148-0.91625zm3.6334 0 0.26151 0.91625h0.24472c0.04132 0 0.0745-0.033224 0.0745-0.074447v-0.76735c0-0.041248-0.03315-0.074461-0.0745-0.074461zm-13.164 1.0754c-0.11504 0-0.20758 0.093668-0.20758 0.21034v1.1275c0 0.11666 0.092471 0.2108 0.20758 0.2108h2.41v8.9196h1.1913v-8.9196h7.4454v8.9196h1.1912v-8.9196h2.4099c0.11511 0 0.20758-0.09414 0.20758-0.2108v-1.1275c0-0.11667-0.0924-0.21034-0.20758-0.21034h-14.648zm3.9238 2.7083v7.7451c0.13885 0.02388 0.28518 0.01918 0.43084-0.01954l0.54441-0.14472c0.53992-0.14353 0.85933-0.69381 0.71577-1.2336l-1.6687-6.2751c-0.00642-0.02445-0.014259-0.04858-0.022458-0.07212z" color="#000000" fill="#f59" opacity=".99"/>
 </g>
</svg>
