<svg version="1.1" viewBox="0 0 20 20" xmlns="http://www.w3.org/2000/svg">
 <g fill="#ff80e5" stroke-width=".31484">
  <path d="m0.8908 3.6016 1.3223 0.40929 0.40929 1.3223c0.031484 0.12593 0.15742 0.22039 0.31484 0.22039s0.25187-0.094451 0.28335-0.22039l0.40929-1.3223 1.3223-0.40929c0.12593-0.031484 0.22039-0.15742 0.22039-0.28335 0-0.12593-0.094451-0.25187-0.22039-0.31484l-1.3223-0.40929-0.40929-1.3223c-0.031484-0.12593-0.15742-0.22038-0.28335-0.22038-0.12593 0-0.25187 0.094451-0.31484 0.22038l-0.44077 1.3223-1.2908 0.40929c-0.12593 0.031484-0.22039 0.15742-0.22039 0.31484 0 0.12593 0.062967 0.25187 0.22039 0.28335z"/>
  <path d="m19.781 15.691-1.3223-0.40929-0.40929-1.3223c-0.03148-0.12593-0.15742-0.22038-0.31484-0.22038-0.12593 0-0.25187 0.09445-0.28335 0.22038l-0.40929 1.3223-1.3223 0.40929c-0.12594 0.03148-0.22038 0.15742-0.22038 0.31484 0 0.12593 0.09445 0.25187 0.22038 0.31484l1.3223 0.40929 0.40929 1.3223c0.03148 0.12594 0.15742 0.22038 0.28335 0.22038s0.25187-0.09445 0.31484-0.22038l0.40929-1.3223 1.3223-0.40929c0.12593-0.03148 0.22038-0.15742 0.22038-0.31484 0-0.15742-0.09445-0.28335-0.22038-0.31484z"/>
  <path d="m15.751 4.3257 1.3223 0.40929 0.40929 1.3223c0.03148 0.12593 0.15742 0.22038 0.28335 0.22038 0.12593 0 0.25187-0.094451 0.31484-0.22038l0.40929-1.3223 1.3223-0.40929c0.12594-0.031484 0.22038-0.15742 0.22038-0.31484 0-0.12593-0.09445-0.25187-0.22038-0.31484l-1.3223-0.40929-0.40929-1.3223c-0.031483-0.12593-0.15742-0.22039-0.31484-0.22039-0.12594 0-0.25187 0.094451-0.28335 0.22039l-0.40929 1.3223-1.3223 0.40929c-0.12593 0.031484-0.22038 0.15742-0.22038 0.31484-0.03148 0.15742 0.06297 0.28335 0.22038 0.31484z"/>
  <path d="m4.291 14.117-1.3223-0.40929-0.40929-1.3223c-0.031484-0.12593-0.15742-0.22038-0.31484-0.22038-0.12593 0-0.25187 0.09445-0.31484 0.22038l-0.40929 1.3223-1.2593 0.40929c-0.12593 0.03148-0.22039 0.15742-0.22039 0.31484 0 0.12593 0.094451 0.25187 0.22039 0.31484l1.3223 0.40929 0.40929 1.3223c0.031484 0.12594 0.15742 0.22038 0.31484 0.22038 0.12593 0 0.25187-0.09445 0.31484-0.22038l0.40929-1.3223 1.3223-0.40929c0.12593-0.031483 0.22039-0.15742 0.22039-0.31484-0.062967-0.15742-0.12593-0.28335-0.28335-0.31484z"/>
  <path d="m5.1726 12.732v5.2578c0 0.09445 0.062967 0.22038 0.15742 0.25187 1.7001 1.039 3.3687 1.5427 4.9744 1.5427 1.6371 0 3.2113-0.53522 4.754-1.5742 0.09445-0.06297 0.12593-0.15742 0.12593-0.25187v-5.2263c-1.3853 0.53522-3.1169 0.81857-5.0059 0.81857-1.889 0-3.6206-0.28335-5.0059-0.81857z"/>
 </g>
 <g stroke-width=".31484">
  <path d="m6.9671 7.7889c-1.1334 0.40929-1.826 1.039-1.826 1.7001 0 0.40929 0.28335 0.81857 0.81857 1.1964 0.12593-0.1889 0.31484-0.3778 0.50374-0.50374 0-0.78709 0.12593-1.7001 0.50374-2.3928z" fill="#c837ab"/>
  <path d="m8.1635 7.1277c0 0.15742-0.094451 0.22039-0.12593 0.28335-1.3538 1.4797-0.62967 3.1169-1.1334 3.2743-0.12593 0.03148-0.28335 0.15742-0.3778 0.31484 1.9835 0.97599 5.2578 0.97599 7.2727 0.03148-0.31484-0.47225-0.66116-0.28335-0.62967-0.66116 0-1.1019-0.06297-2.0779-0.91302-2.9909-0.3778-0.3778 0.12593-0.3778 0.40929-1.5112v-0.031484c0.22038-0.97599 0.1889-2.1094 0.25187-2.6131-0.12593-1.9205-0.66116-2.928-0.91302-2.928-0.09445 0-0.1889 0.12593-0.25187 0.1889-0.62967 0.91303-0.88154 3.904-0.28335 5.73 0.09445 0.25187-0.1889 0.50374-0.40929 0.40929-0.66116-0.25187-1.2593-0.25187-1.952 0.031484-0.25187 0.094451-0.50374-0.12593-0.40929-0.40929 0.62967-1.7946 0.3778-4.8485-0.25187-5.7615-0.031484-0.062967-0.15742-0.1889-0.25187-0.1889-0.12593 0-0.28335 0.1889-0.44077 0.50374-0.47225 1.1019-0.66116 3.6521 0.031484 5.6985 0.1889 0.3778 0.3778 0.50374 0.3778 0.62967zm3.5262 1.4482h0.12593c0.15742 0 0.31484 0.12593 0.31484 0.31484s-0.15742 0.31484-0.31484 0.31484h-0.12593c-0.1889 0-0.31484-0.12593-0.31484-0.31484s0.12593-0.31484 0.31484-0.31484zm-2.6131 1.4797c0.094451-0.12593 0.31484-0.15742 0.44077-0.03148 0.031484 0.03148 0.72412 0.5667 1.5427 0 0.15742-0.09445 0.34632-0.062967 0.44077 0.09445 0.09445 0.12593 0.06297 0.34632-0.09445 0.44077-0.40929 0.28335-0.78709 0.3778-1.1649 0.3778-0.53522 0-0.94451-0.22038-1.1649-0.40929-0.094451-0.15742-0.12593-0.34632 0-0.47225zm-0.69264-1.4797h0.12593c0.15742 0 0.31484 0.12593 0.31484 0.31484s-0.15742 0.31484-0.31484 0.31484h-0.12593c-0.1889 0-0.31484-0.12593-0.31484-0.31484s0.15742-0.31484 0.31484-0.31484z" fill="#b3b3b3"/>
  <path d="m13.768 10.182c0.1889 0.12594 0.40929 0.31484 0.5667 0.53522 0.5667-0.3778 0.88154-0.81857 0.88154-1.2593 0-0.66116-0.78709-1.3538-1.9835-1.7631 0.31484 0.66116 0.53522 1.2279 0.53522 2.4872z" fill="#c837ab"/>
  <path d="m2.5909 9.489c0 1.8575 3.4632 3.4632 7.5875 3.4632 4.0929 0 7.5875-1.5742 7.5875-3.4632 0-1.3538-1.8575-2.6131-4.6281-3.1798-0.06297 0.22039-0.15742 0.40929-0.25187 0.59819 0 0-0.03148 0.031484-0.03148 0.062967 1.8575 0.50374 2.9909 1.4482 2.9909 2.5187 0 0.3778-0.12593 0.72412-0.3778 1.0704-0.25187 0.34632-0.62967 0.62967-1.1019 0.91302-2.2668 1.2279-6.2652 1.1964-8.4376-0.06297-0.91303-0.50373-1.3853-1.1964-1.3853-1.889 0-1.0704 1.0704-1.9835 2.8335-2.4872-0.094451-0.1889-0.1889-0.40929-0.28335-0.62967-2.7076 0.50374-4.5022 1.7316-4.5022 3.0854z" fill="#ff80e5"/>
 </g>
</svg>
