<svg version="1.1" viewBox="0 0 20 20" xmlns="http://www.w3.org/2000/svg">
 <path d="m19.793 11.753h-0.40414v-3.6372a0.40414 0.40414 0 0 0-0.80828 0v2.0207h-1.2124v-0.80828a0.40414 0.40414 0 0 0-0.80828 0v0.80828h-1.2124v-1.2124a0.40414 0.40414 0 0 0-0.80828 0v3.6372h-1.2124v-0.80828a0.40414 0.40414 0 0 0-0.80828 0v0.80828h-1.2124v-1.6166a0.40414 0.40414 0 0 0-0.80828 0v3.2331h-0.40414a0.40414 0.40414 0 0 0-0.40414 0.40414v5.2538a0.40414 0.40414 0 0 0 0.40414 0.40414h9.6993a0.40414 0.40414 0 0 0 0.40414-0.40414v-7.6786a0.40414 0.40414 0 0 0-0.40414-0.40414zm-7.2745 2.4248h-1.2124v-0.80828h1.2124zm2.0207 0h-1.2124v-0.80828h1.2124zm2.0207-2.4248h-1.2124v-0.80828h1.2124zm2.0207 0h-1.2124v-0.80828h1.2124z" fill="#ac9393" stroke-width=".40414"/>
 <path d="m13.731 9.7322v-1.6166a0.40414 0.40414 0 0 0-0.40414-0.40414h-2.4248v-2.4248h7.6786a0.40414 0.40414 0 0 0 0.40414-0.40414v-0.80828a0.40414 0.40414 0 0 0-0.21823-0.35968l-2.3561-1.2124a0.40414 0.40414 0 0 0-0.1859-0.044455h-10.39l-1.463-2.243a0.40414 0.40414 0 0 0-0.33948-0.18186h-0.80828a0.40414 0.40414 0 0 0-0.40414 0.40414v2.0207h-1.2447a0.40414 0.40414 0 0 0-0.29098 0.12124l-1.1801 1.2124a0.40414 0.40414 0 0 0-0.11316 0.2829v0.80828a0.40414 0.40414 0 0 0 0.40414 0.40414h2.4248v12.124h-0.80828a0.40414 0.40414 0 0 0-0.40414 0.40414v2.0207a0.40414 0.40414 0 0 0 0.40414 0.40414h4.8497a0.40414 0.40414 0 0 0 0.40414-0.40414v-2.0207a0.40414 0.40414 0 0 0-0.40414-0.40414h-0.80828v-12.124h4.0414v2.4248h-2.4248a0.40414 0.40414 0 0 0-0.40414 0.40414v1.6166a0.40414 0.40414 0 0 0 0.40414 0.40414h5.6579a0.40414 0.40414 0 0 0 0.40414-0.40414zm-8.6526-4.4455-1.4509 1.4509v-1.4509zm0 4.8497-1.4509 1.4509v-2.9017zm-1.4509-9.2952h0.1859l1.0548 1.6166h-1.2407zm0 12.694 1.4509 1.4509-1.4509 1.4509zm1.6166 3.8757h-1.4509l1.4509-1.4509zm0-3.3988-1.4509-1.4509 1.4509-1.4509zm0-4.8497-1.4509-1.4509 1.4509-1.4509z" fill="#ac9393" stroke-width=".40414"/>
</svg>
