<svg version="1.1" viewBox="0 0 20 20" xmlns="http://www.w3.org/2000/svg">
 <path d="m2.1867 5.2534 2.4741-4.4377 1.296-0.43198 1.2174 0.8247 3.8879 7.8543 1.6887-4.202 1.7279-1.7279 1.2567 0.31417 1.8065 2.3955 1.1781 4.7126-10.014 1.0211z" fill="#fff" fill-rule="evenodd"/>
 <g>
  <path d="m23.532 18.402c-0.13308-0.2988-12.235-3.3176-20.684-1.5257-0.2974-0.46115-0.62368-0.96588-0.88909-1.3756h0.46631c0.36051 0 0.65267-0.15658 0.80126-0.4291 0.14859-0.27287 0.12088-0.60228-0.073813-0.90504l-2.0666-3.2029c0.23749-0.0578 0.42673-0.19581 0.53702-0.39796 0.14881-0.27287 0.12088-0.60228-0.0736-0.90504 0 0-1.1179-1.733-1.119-1.733 1.489-2.9932 2.8871-5.7286 3.3227-6.3363l0.32628-0.45569c1.0473-1.4635 2.3-1.4635 3.3484 0l0.32649 0.45569c0.2192 0.3058 0.66732 1.1522 1.2409 2.299 0.57233 1.1468 1.2697 2.5931 1.9856 4.1026 0.84726-1.7202 1.5791-3.1366 1.9096-3.5987l0.32735-0.45677c1.0473-1.4635 2.3-1.4635 3.3473 0l0.32756 0.45677c1.0463 1.4633 6.6387 14.006 6.6395 14.008zm-6.3709-11.162c0.35302 0.22664 0.48995 0.10474 0.30499-0.27182 0 0-0.96397-1.9523-1.1961-2.2764l-0.23214-0.32507c-0.74777-1.043-1.64-1.043-2.3877 0l-0.23214 0.32507c-0.23214 0.32402-1.2399 2.2829-1.2399 2.2829-0.19256 0.37334-0.05884 0.49527 0.29643 0.27147l0.64839-0.40759c0.35516-0.22383 0.86748-0.14537 1.1404 0.17444l0.11554 0.13486c0.27279 0.31981 0.70926 0.31246 0.96921-0.017514l0.08152-0.10158c0.26081-0.32857 0.76264-0.41187 1.1158-0.1853zm-9.1293-2.7814c0.3542 0.22664 0.48995 0.10474 0.30488-0.27147 0 0-0.96386-1.9523-1.196-2.2765l-0.23214-0.32507c-0.7467-1.043-1.64-1.043-2.3877 0l-0.23214 0.32507c-0.23214 0.32402-1.2399 2.2829-1.2399 2.2829-0.19149 0.37334-0.058944 0.49531 0.29643 0.27182l0.64839-0.40756c0.35516-0.22383 0.86748-0.14537 1.1404 0.17444l0.11554 0.13486c0.27279 0.31981 0.70915 0.31246 0.97018-0.017514l0.080233-0.10158c0.26092-0.32857 0.76382-0.41187 1.1159-0.1853z" fill="#afc6e9" stroke-width=".10698"/>
  <path d="m23.114 22.098-5.5443-8.8543-27.721 1.986 2.1515 9.1853" fill="#afc6e9" fill-rule="evenodd"/>
 </g>
 <path d="m8.1459 20.979c0.15441 0.2396 0.047627 0.43513-0.23769 0.43513h-3.2298v2.7883h-1.8366v-2.7883h-3.133c-0.28523 0-0.39228-0.19581-0.23787-0.43513 0 0 1.8632-2.8889 1.9309-2.9931h-1.2361c-0.28523 0-0.39228-0.19546-0.23787-0.43513l2.2042-3.4154h-0.59706c-0.28422 0-0.39118-0.19546-0.23678-0.43516l2.2289-3.4547c0.15432-0.2396 0.40764-0.2396 0.56223 0l2.2287 3.4547c0.1545 0.2396 0.047535 0.43516-0.23778 0.43516h-0.59605l2.2039 3.4154c0.15441 0.2396 0.047627 0.43513-0.23769 0.43513h-1.2368c0.068201 0.10404 1.9323 2.9931 1.9323 2.9931z" fill="#ac93a7" stroke-width=".091419"/>
 <path d="m5.3519 19.493c0.17592 0.27288 0.054265 0.4958-0.27082 0.4958h-3.68v3.1769h-2.0926v-3.1769h-3.5697c-0.32498 0-0.44695-0.22313-0.27103-0.4958 0 0 2.1229-3.2916 2.2-3.4102h-1.4084c-0.32498 0-0.44695-0.22278-0.27103-0.4958l2.5114-3.8914h-0.68027c-0.32384 0-0.4457-0.22278-0.26978-0.4958l2.5395-3.9362c0.17582-0.27287 0.46445-0.27287 0.64059 0l2.5393 3.9362c0.17603 0.27287 0.054162 0.4958-0.27092 0.4958h-0.67913l2.5111 3.8914c0.17592 0.27287 0.054265 0.4958-0.27082 0.4958h-1.4092c0.077706 0.1184 2.2016 3.4102 2.2016 3.4102z" fill="#93ac93" stroke-width=".10416"/>
</svg>
