<svg version="1.1" viewBox="0 0 20 20" xmlns="http://www.w3.org/2000/svg">
 <g fill="#fff" stroke-width=".59094">
  <circle cx="9.8824" cy="3.689" r="3.6278"/>
  <path d="m-0.064816 12.367-0.015955 7.9765c0 0.02246-0.0059094 0.73985 0.42961 1.1866 0.23756 0.24347 0.57498 0.36756 1.0052 0.36756l0.30315-0.001181 0.22396-12.58c-1.7137 1.1937-1.9341 2.9399-1.946 3.0504z"/>
  <path d="m9.8156 21.835c0.23401-0.3587-0.18378-1.9217-0.72094-3.155l-2.7863-10.455c-1.8993 0.13828-3.2188 0.53125-3.7117 0.70144l-0.23224 12.942h7.3631c0.066185 0 0.076231-0.01655 0.08805-0.03309z"/>
  <path d="m11.209 21.868c0.82081 0 1.488-0.66658 1.488-1.4892 0-0.82022-0.66658-1.4874-1.488-1.4874h-1.2652c0.3126 0.78772 0.77176 2.1546 0.59566 2.9783z"/>
  <path d="m15.697 8.4212v0.00177c-1.5979-0.60984-8.6619-0.24996-8.6619-0.24996l2.6545 9.9774h1.5199c1.2102 0 2.1947 0.98391 2.1947 2.1941 0 1.2102-0.9845 2.1959-2.1947 2.1959h-6.1581l-0.00177 3.2578h-0.017728l0.00768 21.914c0 1.7196 1.1653 2.5676 2.3478 2.5777 1.2132 0.01182 2.4441-0.86158 2.4441-2.5777l-0.022456-20.7c0-0.23992 0.28838-0.52889 0.52948-0.52889 0.23933 0 0.52771 0.28838 0.52771 0.52889l0.01241 20.7c0 1.693 1.2049 2.5653 2.4104 2.5777 1.2049 0.01241 2.4087-0.83322 2.4087-2.5777l-0.0059-21.447h0.04728l-0.0053-11.389c0.0041-0.21274 0.25883-0.46861 0.47275-0.46861 0.2151 0 0.47393 0.25942 0.47393 0.47334l3e-3 10.571c0 1.1771 0.83204 1.7651 1.6629 1.7651 0.83204 0 1.6623-0.58798 1.6599-1.7651v-11.935c-0.0012-2.4045-1.6954-4.7594-4.3091-5.0968z"/>
 </g>
</svg>
