<?xml version="1.0" encoding="UTF-8" standalone="no"?>
<svg
   xmlns:dc="http://purl.org/dc/elements/1.1/"
   xmlns:cc="http://creativecommons.org/ns#"
   xmlns:rdf="http://www.w3.org/1999/02/22-rdf-syntax-ns#"
   xmlns:svg="http://www.w3.org/2000/svg"
   xmlns="http://www.w3.org/2000/svg"
   xmlns:sodipodi="http://sodipodi.sourceforge.net/DTD/sodipodi-0.dtd"
   xmlns:inkscape="http://www.inkscape.org/namespaces/inkscape"
   width="25"
   height="25"
   viewBox="0 0 25 25"
   version="1.1"
   id="svg3100"
   inkscape:version="1.0.1 (3bc2e813f5, 2020-09-07)"
   sodipodi:docname="arms.svg">
  <style
     id="style3663"></style>
  <defs
     id="defs3094" />
  <sodipodi:namedview
     id="base"
     pagecolor="#ffffff"
     bordercolor="#666666"
     borderopacity="1.0"
     inkscape:pageopacity="0.0"
     inkscape:pageshadow="2"
     inkscape:zoom="2.8"
     inkscape:cx="-21.697616"
     inkscape:cy="-37.555916"
     inkscape:document-units="mm"
     inkscape:current-layer="layer1"
     inkscape:document-rotation="0"
     showgrid="false"
     units="px"
     viewbox-width="25"
     inkscape:pagecheckerboard="true"
     inkscape:window-width="1326"
     inkscape:window-height="1040"
     inkscape:window-x="208"
     inkscape:window-y="0"
     inkscape:window-maximized="0" />
  <metadata
     id="metadata3097">
    <rdf:RDF>
      <cc:Work
         rdf:about="">
        <dc:format>image/svg+xml</dc:format>
        <dc:type
           rdf:resource="http://purl.org/dc/dcmitype/StillImage" />
        <dc:title />
      </cc:Work>
    </rdf:RDF>
  </metadata>
  <g
     inkscape:label="Layer 1"
     inkscape:groupmode="layer"
     id="layer1">
    <g
       data-name="Pray open hand"
       id="g8"
       transform="matrix(0.50682726,0,0,0.50682726,0.33614572,0.33667537)">
      <path
         d="m 20.83,11.63 -1.53,8.66 a 1.0143471,1.0143471 0 0 1 -2,-0.34 L 19.7,6.51 A 2.16,2.16 0 0 0 17.35,6.1 c -0.42,2.37 -0.09,0.49 -1.84,10.44 a 1.0143471,1.0143471 0 0 1 -2,-0.34 C 15.34,5.79 14.85,8.6 15.74,3.59 a 2.15,2.15 0 0 0 -2.37,-0.4 l -1.75,10 a 1.0143471,1.0143471 0 0 1 -2,-0.34 L 10.8,6.06 A 2.19,2.19 0 0 0 7.23,7.28 L 6,14.36 c 2,-0.8 5,2.55 3.67,5.94 L 9,21.89 a 12.39,12.39 0 0 1 7.51,6.33 1,1 0 0 1 -1.78,0.9 10.44,10.44 0 0 0 -7.27,-5.56 1,1 0 0 1 -0.74,-1.35 c 1,-2.65 1.25,-3 1.25,-3.67 0,-1.33 -1,-2.79 -2.33,-2.41 -0.6,0.18 -0.5,0.2 -3.47,3.17 A 8.37,8.37 0 0 0 0,24.77 c 0,3.29 5.48,6.57 5.48,9.86 0,1.78 -1.61,6.45 -3.09,10.37 H 17.68 C 18.87,34.74 23,35 23,28.43 V 13.82 a 2.2,2.2 0 0 0 -2.17,-2.19 z"
         id="path4" />
      <path
         d="m 48,24.77 c 0,-3.86 -2.46,-5.74 -5,-8.23 a 1.55,1.55 0 0 0 -0.71,-0.41 c -1.58,-0.47 -2.79,1.72 -2.13,3.44 1.11,2.79 1.29,2.95 1,3.49 -0.49,0.91 -2,0.24 -5,2.43 -3.11,2.39 -2.6,4.18 -3.89,4.18 A 1,1 0 0 1 31.38,28.22 12.39,12.39 0 0 1 39,21.89 8.4,8.4 0 0 1 38,18.54 c 0,-2.3 2,-5 4,-4.18 L 40.77,7.28 A 2.19,2.19 0 0 0 37.13,6.06 l 1.18,6.79 a 1.0143471,1.0143471 0 1 1 -2,0.34 l -1.75,-10 a 2.16,2.16 0 0 0 -2.37,0.4 c 0.89,5 0.38,2.12 2.23,12.61 a 1.0143471,1.0143471 0 0 1 -2,0.34 C 30.71,6.4 31.07,8.47 30.65,6.1 A 2.16,2.16 0 0 0 28.3,6.51 L 30.67,20 a 1.0143471,1.0143471 0 0 1 -2,0.34 L 27.14,11.68 A 2.2,2.2 0 0 0 25,13.82 c 0,15 -0.57,17.38 1.86,20.91 A 23.07,23.07 0 0 1 30.32,45 H 45.61 C 44.13,41.08 42.52,36.41 42.52,34.63 42.52,31.34 48,28.06 48,24.77 Z"
         id="path6" />
    </g>
  </g>
</svg>
