<?xml version="1.0" encoding="UTF-8" standalone="no"?>
<svg
   xmlns:dc="http://purl.org/dc/elements/1.1/"
   xmlns:cc="http://creativecommons.org/ns#"
   xmlns:rdf="http://www.w3.org/1999/02/22-rdf-syntax-ns#"
   xmlns:svg="http://www.w3.org/2000/svg"
   xmlns="http://www.w3.org/2000/svg"
   xmlns:sodipodi="http://sodipodi.sourceforge.net/DTD/sodipodi-0.dtd"
   xmlns:inkscape="http://www.inkscape.org/namespaces/inkscape"
   width="25"
   height="25"
   viewBox="0 0 25 25"
   version="1.1"
   id="svg3100"
   inkscape:version="1.0.1 (3bc2e813f5, 2020-09-07)"
   sodipodi:docname="dick.svg">
  <style
     id="style3663"></style>
  <defs
     id="defs3094" />
  <sodipodi:namedview
     id="base"
     pagecolor="#ffffff"
     bordercolor="#666666"
     borderopacity="1.0"
     inkscape:pageopacity="0.0"
     inkscape:pageshadow="2"
     inkscape:zoom="5.6"
     inkscape:cx="16.924757"
     inkscape:cy="15.582998"
     inkscape:document-units="mm"
     inkscape:current-layer="layer1"
     inkscape:document-rotation="0"
     showgrid="false"
     units="px"
     viewbox-width="25"
     inkscape:pagecheckerboard="true"
     inkscape:window-width="1267"
     inkscape:window-height="1040"
     inkscape:window-x="208"
     inkscape:window-y="0"
     inkscape:window-maximized="0" />
  <metadata
     id="metadata3097">
    <rdf:RDF>
      <cc:Work
         rdf:about="">
        <dc:format>image/svg+xml</dc:format>
        <dc:type
           rdf:resource="http://purl.org/dc/dcmitype/StillImage" />
        <dc:title></dc:title>
      </cc:Work>
    </rdf:RDF>
  </metadata>
  <g
     inkscape:label="Layer 1"
     inkscape:groupmode="layer"
     id="layer1">
    <path
       d="m 12.50015,17.664979 c -2.433185,0 -4.4062561,0.985788 -4.4062561,2.204176 0,2.432287 1.9730711,4.405657 4.4062561,4.405657 2.432586,0 4.405956,-1.97337 4.405956,-4.405657 0,-1.218388 -1.97337,-2.204176 -4.405956,-2.204176 z M 19.098307,1.8103621 h 0.0093 C 17.363226,1.136207 15.046791,0.725188 12.50464,0.725188 9.9624888,0.725188 7.6460538,1.1365064 5.9013933,1.8103621 3.729249,3.9639461 2.3525,6.9593257 2.3525,9.64487 c 0,3.29354 2.0718591,5.273496 5.1432759,6.211386 V 8.4076215 c 0,-0.3304916 0.2682251,-0.5987167 0.5987167,-0.5987167 0.3304916,0 0.5987168,0.2682251 0.5987168,0.5987167 v 8.9277645 c 0.9854877,-0.542437 2.3074546,-0.867541 3.8069406,-0.867541 1.500084,0 2.82235,0.325702 3.807838,0.86814 V 8.4076215 c 0,-0.3304916 0.268225,-0.5987167 0.598717,-0.5987167 0.330491,0 0.598716,0.2682251 0.598716,0.5987167 V 15.855658 C 20.576239,14.917468 22.6475,12.937812 22.6475,9.64457 22.647201,6.9593257 21.270152,3.9639461 19.098307,1.8103621 Z"
       id="path2"
       style="stroke-width:0.299358" />
  </g>
</svg>
