<?xml version="1.0" encoding="UTF-8" standalone="no"?>
<svg
   xmlns:dc="http://purl.org/dc/elements/1.1/"
   xmlns:cc="http://creativecommons.org/ns#"
   xmlns:rdf="http://www.w3.org/1999/02/22-rdf-syntax-ns#"
   xmlns:svg="http://www.w3.org/2000/svg"
   xmlns="http://www.w3.org/2000/svg"
   xmlns:sodipodi="http://sodipodi.sourceforge.net/DTD/sodipodi-0.dtd"
   xmlns:inkscape="http://www.inkscape.org/namespaces/inkscape"
   width="25"
   height="25"
   viewBox="0 0 25 25"
   version="1.1"
   id="svg3100"
   inkscape:version="1.0.1 (3bc2e813f5, 2020-09-07)"
   sodipodi:docname="feet.svg">
  <style
     id="style3663"></style>
  <defs
     id="defs3094" />
  <sodipodi:namedview
     id="base"
     pagecolor="#ffffff"
     bordercolor="#666666"
     borderopacity="1.0"
     inkscape:pageopacity="0.0"
     inkscape:pageshadow="2"
     inkscape:zoom="7.9195959"
     inkscape:cx="5.4257247"
     inkscape:cy="1.1151894"
     inkscape:document-units="mm"
     inkscape:current-layer="layer1"
     inkscape:document-rotation="0"
     showgrid="false"
     units="px"
     viewbox-width="25"
     inkscape:pagecheckerboard="true"
     inkscape:window-width="1267"
     inkscape:window-height="1040"
     inkscape:window-x="208"
     inkscape:window-y="0"
     inkscape:window-maximized="0" />
  <metadata
     id="metadata3097">
    <rdf:RDF>
      <cc:Work
         rdf:about="">
        <dc:format>image/svg+xml</dc:format>
        <dc:type
           rdf:resource="http://purl.org/dc/dcmitype/StillImage" />
        <dc:title></dc:title>
      </cc:Work>
    </rdf:RDF>
  </metadata>
  <g
     inkscape:label="Layer 1"
     inkscape:groupmode="layer"
     id="layer1">
    <path
       d="m 21.155744,22.42347 c -1.741607,0.486363 -7.198883,0.07152 -7.813989,0.02146 -1.24094,-0.05722 -2.757247,0.289672 -4.2234874,0.625834 a 19.007482,19.007482 0 0 1 -4.0124919,0.625835 c -1.1944499,0 -2.2601563,-0.286096 -3.057648,-1.144383 C 0.03472923,20.367155 1.5510364,17.506198 2.6596572,15.403394 A 16.450502,16.450502 0 0 0 3.421387,13.847749 C 3.9792736,12.43873 2.7740955,6.6703257 1.8800464,3.3623445 A 0.71523922,0.71523922 0 0 1 2.3842901,2.4861765 L 9.1790629,1.3131841 A 0.71523922,0.71523922 0 0 1 10.001588,1.896104 c 0.05007,0.2968243 1.237364,7.3204734 1.301735,9.541292 0.13232,4.291434 6.51583,5.41436 9.945402,6.015161 1.845317,0.321858 2.467576,0.43272 2.599894,1.105044 0.586497,2.946786 -1.881079,3.636992 -2.692875,3.865869 z"
       id="path4"
       style="stroke-width:0.35762" />
  </g>
</svg>
