<?xml version="1.0" encoding="UTF-8" standalone="no"?>
<svg
   xmlns:dc="http://purl.org/dc/elements/1.1/"
   xmlns:cc="http://creativecommons.org/ns#"
   xmlns:rdf="http://www.w3.org/1999/02/22-rdf-syntax-ns#"
   xmlns:svg="http://www.w3.org/2000/svg"
   xmlns="http://www.w3.org/2000/svg"
   xmlns:sodipodi="http://sodipodi.sourceforge.net/DTD/sodipodi-0.dtd"
   xmlns:inkscape="http://www.inkscape.org/namespaces/inkscape"
   width="25"
   height="25"
   viewBox="0 0 25 25"
   version="1.1"
   id="svg3100"
   inkscape:version="1.0.1 (3bc2e813f5, 2020-09-07)"
   sodipodi:docname="genitals.svg">
  <style
     id="style3663"></style>
  <defs
     id="defs3094" />
  <sodipodi:namedview
     id="base"
     pagecolor="#ffffff"
     bordercolor="#666666"
     borderopacity="1.0"
     inkscape:pageopacity="0.0"
     inkscape:pageshadow="2"
     inkscape:zoom="7.9195959"
     inkscape:cx="29.528636"
     inkscape:cy="24.813152"
     inkscape:document-units="mm"
     inkscape:current-layer="layer1"
     inkscape:document-rotation="0"
     showgrid="false"
     units="px"
     viewbox-width="25"
     inkscape:pagecheckerboard="true"
     inkscape:window-width="1267"
     inkscape:window-height="1040"
     inkscape:window-x="208"
     inkscape:window-y="0"
     inkscape:window-maximized="0" />
  <metadata
     id="metadata3097">
    <rdf:RDF>
      <cc:Work
         rdf:about="">
        <dc:format>image/svg+xml</dc:format>
        <dc:type
           rdf:resource="http://purl.org/dc/dcmitype/StillImage" />
        <dc:title />
      </cc:Work>
    </rdf:RDF>
  </metadata>
  <g
     inkscape:label="Layer 1"
     inkscape:groupmode="layer"
     id="layer1">
    <path
       connector-curvature="0"
       d="M 17.30978,11.407457 C 15.183343,14.064116 11.306141,14.493684 8.649482,12.367246 8.2952079,12.084303 7.9726361,11.761731 7.6896924,11.407457 7.5509944,11.237849 7.3013382,11.21328 7.1317304,11.35277 c -0.1664375,0.13632 -0.1933845,0.380429 -0.061027,0.550036 1.2332227,1.539944 3.0624496,2.484675 5.0327526,2.596426 v 7.721115 H 4.0867167 c -0.152964,0 -0.2932471,-0.08797 -0.358237,-0.226672 C 0.9125156,16.038382 0.64383791,9.1922527 2.9842663,3.0340648 3.0429157,2.8803083 3.1903318,2.7788607 3.3543916,2.7788607 H 21.645081 c 0.164852,0 0.312268,0.1014476 0.370918,0.2552041 2.340428,6.1589804 2.070958,13.0043172 -0.744214,18.9604022 -0.06578,0.138698 -0.205273,0.226672 -0.358237,0.226672 h -8.017532 v -7.721115 c 1.96951,-0.112543 3.79953,-1.056482 5.032753,-2.596425 0.135528,-0.172778 0.10541,-0.421642 -0.06658,-0.556377 -0.1704,-0.134735 -0.416094,-0.107788 -0.552414,0.06024 z"
       id="path2"
       style="stroke-width:0.79256" />
  </g>
</svg>
