<?xml version="1.0" encoding="UTF-8" standalone="no"?>
<svg
   xmlns:dc="http://purl.org/dc/elements/1.1/"
   xmlns:cc="http://creativecommons.org/ns#"
   xmlns:rdf="http://www.w3.org/1999/02/22-rdf-syntax-ns#"
   xmlns:svg="http://www.w3.org/2000/svg"
   xmlns="http://www.w3.org/2000/svg"
   xmlns:sodipodi="http://sodipodi.sourceforge.net/DTD/sodipodi-0.dtd"
   xmlns:inkscape="http://www.inkscape.org/namespaces/inkscape"
   width="25"
   height="25"
   viewBox="0 0 25 25"
   version="1.1"
   id="svg3100"
   inkscape:version="1.0.1 (3bc2e813f5, 2020-09-07)"
   sodipodi:docname="head.svg">
  <style
     id="style3663"></style>
  <defs
     id="defs3094" />
  <sodipodi:namedview
     id="base"
     pagecolor="#ffffff"
     bordercolor="#666666"
     borderopacity="1.0"
     inkscape:pageopacity="0.0"
     inkscape:pageshadow="2"
     inkscape:zoom="3.959798"
     inkscape:cx="-13.557564"
     inkscape:cy="3.7836797"
     inkscape:document-units="mm"
     inkscape:current-layer="layer1"
     inkscape:document-rotation="0"
     showgrid="false"
     units="px"
     viewbox-width="25"
     inkscape:pagecheckerboard="true"
     inkscape:window-width="1267"
     inkscape:window-height="1040"
     inkscape:window-x="208"
     inkscape:window-y="0"
     inkscape:window-maximized="0" />
  <metadata
     id="metadata3097">
    <rdf:RDF>
      <cc:Work
         rdf:about="">
        <dc:format>image/svg+xml</dc:format>
        <dc:type
           rdf:resource="http://purl.org/dc/dcmitype/StillImage" />
        <dc:title></dc:title>
      </cc:Work>
    </rdf:RDF>
  </metadata>
  <g
     inkscape:label="Layer 1"
     inkscape:groupmode="layer"
     id="layer1">
    <path
       fill-rule="evenodd"
       clip-rule="evenodd"
       stroke="#000000"
       stroke-width="0.0408035"
       stroke-miterlimit="22.9256"
       d="m 4.7623969,24.1052 h 9.2185771 0.01889 v -0.01889 c 0.642279,-4.590399 1.076761,-4.363714 4.741523,-4.25037 v 0 c 1.605695,-0.09445 1.322337,-1.662366 1.246775,-2.795798 0.510044,-0.05667 0.831183,-0.528935 0.396701,-0.925636 0.453373,0 0.585606,-0.585606 0.226686,-0.925636 0,-0.03778 0.151125,-0.09445 0.170015,-0.113343 0.472263,-0.207796 1.227884,-0.188905 1.05787,-0.963417 C 21.650527,13.299818 20.706001,12.241949 20.365972,11.297423 19.837037,9.76729 20.517096,7.6704416 19.799256,5.5169215 18.476919,1.549911 13.074228,0.26535496 9.503919,1.1721005 1.6265694,3.1744962 2.1177231,10.182882 5.310222,16.152288 6.9536979,19.212554 4.7435064,24.067419 4.7623969,24.1052 Z"
       id="path2" />
  </g>
</svg>
