<?xml version="1.0" encoding="UTF-8" standalone="no"?>
<svg
   xmlns:dc="http://purl.org/dc/elements/1.1/"
   xmlns:cc="http://creativecommons.org/ns#"
   xmlns:rdf="http://www.w3.org/1999/02/22-rdf-syntax-ns#"
   xmlns:svg="http://www.w3.org/2000/svg"
   xmlns="http://www.w3.org/2000/svg"
   xmlns:sodipodi="http://sodipodi.sourceforge.net/DTD/sodipodi-0.dtd"
   xmlns:inkscape="http://www.inkscape.org/namespaces/inkscape"
   width="25"
   height="25"
   viewBox="0 0 25 25"
   version="1.1"
   id="svg3100"
   inkscape:version="1.0.1 (3bc2e813f5, 2020-09-07)"
   sodipodi:docname="legs.svg">
  <style
     id="style3663"></style>
  <defs
     id="defs3094" />
  <sodipodi:namedview
     id="base"
     pagecolor="#ffffff"
     bordercolor="#666666"
     borderopacity="1.0"
     inkscape:pageopacity="0.0"
     inkscape:pageshadow="2"
     inkscape:zoom="15.839192"
     inkscape:cx="5.778693"
     inkscape:cy="9.1475537"
     inkscape:document-units="mm"
     inkscape:current-layer="layer1"
     inkscape:document-rotation="0"
     showgrid="false"
     units="px"
     viewbox-width="25"
     inkscape:pagecheckerboard="true"
     inkscape:window-width="1267"
     inkscape:window-height="1040"
     inkscape:window-x="208"
     inkscape:window-y="0"
     inkscape:window-maximized="0" />
  <metadata
     id="metadata3097">
    <rdf:RDF>
      <cc:Work
         rdf:about="">
        <dc:format>image/svg+xml</dc:format>
        <dc:type
           rdf:resource="http://purl.org/dc/dcmitype/StillImage" />
        <dc:title></dc:title>
      </cc:Work>
    </rdf:RDF>
  </metadata>
  <g
     inkscape:label="Layer 1"
     inkscape:groupmode="layer"
     id="layer1">
    <g
       id="g3762"
       transform="matrix(1.6820868,0,0,1.6820868,25.668522,-38.474927)">
      <path
         d="m -9.6799761,37.709444 h -1.5426809 c -0.282002,0 -0.50168,-0.11601 -0.603497,-0.315941 -0.101817,-0.199932 -0.06417,-0.445526 0.103051,-0.672609 l 0.176483,-0.240041 c 0.01049,-0.02792 0.03641,-0.130357 0.06726,-0.24251 0.07282,-0.257936 0.128968,-0.448457 0.206719,-0.578813 -0.03394,-0.294961 -0.117244,-0.662119 -0.212273,-1.079877 -0.177099,-0.779362 -0.397394,-1.747549 -0.397394,-2.742269 0,-0.604114 0.181419,-0.96325 0.341858,-1.280425 0.156736,-0.310388 0.304834,-0.603497 0.304834,-1.16565 0,-0.938567 -0.114776,-1.569832 -0.246829,-2.301063 -0.16661,-0.92314 -0.357285,-1.969077 -0.357285,-3.882002 0,-0.170312 0.138841,-0.308536 0.308536,-0.308536 h 3.0983201 c 0.1703119,0 0.3085361,0.138224 0.3085361,0.308536 v 2.776826 c 0,0.99904 -0.1703119,1.537127 -0.3356873,2.056702 -0.1437779,0.455399 -0.281385,0.886733 -0.281385,1.645732 v 1.851217 c 0,0.361604 -0.1783339,1.709907 -0.5609187,4.236201 0.048132,0.119712 0.083305,0.294961 0.1320534,0.568941 0.019746,0.112307 0.03579,0.210884 0.051217,0.257936 l 0.056154,0.108451 c 0.1209462,0.243126 0.1209462,0.494429 0,0.690658 -0.1203291,0.196074 -0.3455605,0.308536 -0.6170717,0.308536 z"
         id="path2"
         style="stroke-width:0.154268" />
      <path
         d="m -4.4348614,37.709444 h -1.5426808 c -0.2702777,0 -0.4961262,-0.112462 -0.6170723,-0.308536 -0.1201749,-0.194995 -0.1201749,-0.447378 0,-0.690041 l 0.064793,-0.130203 c 0.0074,-0.02715 0.0253,-0.125728 0.046435,-0.237418 0.053068,-0.27398 0.09071,-0.449229 0.1405382,-0.568478 -0.1036682,-0.682945 -0.5479602,-3.678985 -0.5479602,-4.236047 v -1.851217 c 0,-0.758382 -0.1371444,-1.189099 -0.281385,-1.645732 -0.164759,-0.520192 -0.335071,-1.057662 -0.335071,-2.056702 v -2.776826 c 0,-0.170312 0.1382242,-0.308536 0.3085362,-0.308536 h 3.0724031 c 0.1696949,0 0.3085362,0.138224 0.3085362,0.308536 0,1.912925 -0.1906754,2.959479 -0.357902,3.882619 -0.1325163,0.731231 -0.2462118,1.362496 -0.2462118,2.301063 0,0.56277 0.1480973,0.855262 0.304988,1.165804 0.1596674,0.317021 0.3417038,0.676157 0.3417038,1.279654 0,0.994103 -0.2190607,1.962444 -0.3966233,2.740572 -0.095029,0.418992 -0.178951,0.786767 -0.213507,1.081111 0.077134,0.13159 0.1337504,0.321494 0.2073363,0.578814 0.031471,0.11169 0.056771,0.215358 0.081916,0.264724 l 0.1618273,0.216592 c 0.1672266,0.228934 0.204868,0.474529 0.103051,0.67446 -0.1013541,0.200394 -0.3204148,0.315787 -0.6036507,0.315787 z"
         id="path4"
         style="stroke-width:0.154268" />
    </g>
  </g>
</svg>
