<?xml version="1.0" encoding="UTF-8" standalone="no"?>
<svg
   xmlns:dc="http://purl.org/dc/elements/1.1/"
   xmlns:cc="http://creativecommons.org/ns#"
   xmlns:rdf="http://www.w3.org/1999/02/22-rdf-syntax-ns#"
   xmlns:svg="http://www.w3.org/2000/svg"
   xmlns="http://www.w3.org/2000/svg"
   xmlns:sodipodi="http://sodipodi.sourceforge.net/DTD/sodipodi-0.dtd"
   xmlns:inkscape="http://www.inkscape.org/namespaces/inkscape"
   width="25"
   height="25"
   viewBox="0 0 25 25"
   version="1.1"
   id="svg3100"
   inkscape:version="1.0.1 (3bc2e813f5, 2020-09-07)"
   sodipodi:docname="neck.svg">
  <style
     id="style3663"></style>
  <defs
     id="defs3094" />
  <sodipodi:namedview
     id="base"
     pagecolor="#ffffff"
     bordercolor="#666666"
     borderopacity="1.0"
     inkscape:pageopacity="0.0"
     inkscape:pageshadow="2"
     inkscape:zoom="7.9195959"
     inkscape:cx="22.467475"
     inkscape:cy="1.3937146"
     inkscape:document-units="mm"
     inkscape:current-layer="layer1"
     inkscape:document-rotation="0"
     showgrid="false"
     units="px"
     viewbox-width="25"
     inkscape:pagecheckerboard="true"
     inkscape:window-width="1267"
     inkscape:window-height="1040"
     inkscape:window-x="208"
     inkscape:window-y="0"
     inkscape:window-maximized="0" />
  <metadata
     id="metadata3097">
    <rdf:RDF>
      <cc:Work
         rdf:about="">
        <dc:format>image/svg+xml</dc:format>
        <dc:type
           rdf:resource="http://purl.org/dc/dcmitype/StillImage" />
        <dc:title></dc:title>
      </cc:Work>
    </rdf:RDF>
  </metadata>
  <g
     inkscape:label="Layer 1"
     inkscape:groupmode="layer"
     id="layer1">
    <g
       id="g8"
       transform="matrix(0.28447528,0,0,0.28447528,-1.1547887,-1.0125761)">
      <path
         d="m 91.9338,74.9884 -2.336,-8.75 a 9.4553,9.4553 0 0 0 -7.1309,-5.48 L 66.9356,58.4493 a 6.0454,6.0454 0 0 1 -4.5039,-3.9766 l -1.731,-5.19 A 23.2017,23.2017 0 0 1 48,53.5 23.2021,23.2021 0 0 1 35.3,49.2835 l -1.6924,5.08 a 6.0812,6.0812 0 0 1 -4.4454,4.07 l -15.7266,2.34 A 9.4531,9.4531 0 0 0 6.32,66.4805 L 4.0662,74.9884 A 2,2 0 0 0 6,77.5 h 84 a 2,2 0 0 0 1.9336,-2.5117 z M 43.9394,69.985 a 1.9972,1.9972 0 0 1 -1.9375,1.5156 2.08,2.08 0 0 1 -0.4863,-0.0586 l -8,-2 a 2.000907,2.000907 0 0 1 0.9687,-3.8828 l 8,2 a 2,2 0 0 1 1.4551,2.4258 z m 18.545,-0.543 -8,2 a 2.08,2.08 0 0 1 -0.4863,0.0586 2.0007,2.0007 0 0 1 -0.4825,-3.9414 l 8,-2 a 2.000907,2.000907 0 0 1 0.9687,3.8828 z"
         id="path4" />
      <path
         d="m 48,49.5 c 11.0977,0 24,-13.1055 24,-30 a 1.9988,1.9988 0 0 0 -2,-2 H 26 a 1.9988,1.9988 0 0 0 -2,2 c 0,16.8945 12.9023,30 24,30 z"
         id="path6" />
    </g>
  </g>
</svg>
