<?xml version="1.0" encoding="UTF-8" standalone="no"?>
<svg
   xmlns:dc="http://purl.org/dc/elements/1.1/"
   xmlns:cc="http://creativecommons.org/ns#"
   xmlns:rdf="http://www.w3.org/1999/02/22-rdf-syntax-ns#"
   xmlns:svg="http://www.w3.org/2000/svg"
   xmlns="http://www.w3.org/2000/svg"
   xmlns:sodipodi="http://sodipodi.sourceforge.net/DTD/sodipodi-0.dtd"
   xmlns:inkscape="http://www.inkscape.org/namespaces/inkscape"
   width="25"
   height="25"
   viewBox="0 0 25 25"
   version="1.1"
   id="svg3100"
   inkscape:version="1.0.1 (3bc2e813f5, 2020-09-07)"
   sodipodi:docname="rear.svg">
  <style
     id="style3663"></style>
  <defs
     id="defs3094" />
  <sodipodi:namedview
     id="base"
     pagecolor="#ffffff"
     bordercolor="#666666"
     borderopacity="1.0"
     inkscape:pageopacity="0.0"
     inkscape:pageshadow="2"
     inkscape:zoom="5.6"
     inkscape:cx="14.092112"
     inkscape:cy="-4.1136375"
     inkscape:document-units="mm"
     inkscape:current-layer="layer1"
     inkscape:document-rotation="0"
     showgrid="false"
     units="px"
     viewbox-width="25"
     inkscape:pagecheckerboard="true"
     inkscape:window-width="1267"
     inkscape:window-height="1040"
     inkscape:window-x="208"
     inkscape:window-y="0"
     inkscape:window-maximized="0" />
  <metadata
     id="metadata3097">
    <rdf:RDF>
      <cc:Work
         rdf:about="">
        <dc:format>image/svg+xml</dc:format>
        <dc:type
           rdf:resource="http://purl.org/dc/dcmitype/StillImage" />
        <dc:title></dc:title>
      </cc:Work>
    </rdf:RDF>
  </metadata>
  <g
     inkscape:label="Layer 1"
     inkscape:groupmode="layer"
     id="layer1">
    <path
       d="m 16.203538,0.1785716 c 7.315037,0 9.104887,8.7157892 7.315037,14.3187964 -1.115413,3.52782 -2.075188,6.640602 -2.957142,10.32406 -1.374812,0 -5.162031,0 -6.303384,0 0,-0.648496 0,-0.311278 -0.02594,-0.959774 0,-0.05188 -0.285338,-1.348872 -0.363158,-1.76391 -0.622557,-3.579699 -1.945489,-6.87406 0.207518,-10.972556 2.256767,1.73797 6.095865,1.634211 8.015414,-0.544737 0.181579,-0.207519 -0.181579,-0.466917 -0.337218,-0.259398 -1.997369,2.204887 -6.303384,2.204887 -8.067293,-0.285339 -0.804136,0.648496 -1.686091,0.622557 -2.334587,-0.077819 -1.6601505,2.593984 -6.0958645,2.516165 -8.0413533,0.337218 -0.1556392,-0.207519 -0.5187972,0.02594 -0.3372182,0.259398 0.4150379,0.466917 0.4928575,0.622557 1.1672935,1.011654 2.0233083,1.141354 4.9026312,0.985714 6.744361,-0.389097 2.542105,4.072556 0.830075,7.340977 0.207518,10.920676 -0.07782,0.389098 -0.337217,1.68609 -0.363158,1.76391 -0.02594,0.311278 0,0.648496 -0.02594,0.959774 H 11.171207 4.4268467 C 3.4930122,21.293609 2.5072978,17.921428 1.4437638,14.497368 -0.29420583,8.868421 1.5734633,0.1785716 8.7847411,0.1785716 c 1.4266919,0 2.8533839,0.59661635 3.7093989,1.7379701 0.856015,-1.14135375 2.282707,-1.7379701 3.709398,-1.7379701 z"
       id="path2"
       style="stroke-width:0.259399" />
  </g>
</svg>
