<?xml version="1.0" encoding="UTF-8" standalone="no"?>
<svg
   xmlns:dc="http://purl.org/dc/elements/1.1/"
   xmlns:cc="http://creativecommons.org/ns#"
   xmlns:rdf="http://www.w3.org/1999/02/22-rdf-syntax-ns#"
   xmlns:svg="http://www.w3.org/2000/svg"
   xmlns="http://www.w3.org/2000/svg"
   xmlns:sodipodi="http://sodipodi.sourceforge.net/DTD/sodipodi-0.dtd"
   xmlns:inkscape="http://www.inkscape.org/namespaces/inkscape"
   width="25"
   height="25"
   viewBox="0 0 25 25"
   version="1.1"
   id="svg3100"
   inkscape:version="1.0.1 (3bc2e813f5, 2020-09-07)"
   sodipodi:docname="torso.svg">
  <style
     id="style3663"></style>
  <defs
     id="defs3094" />
  <sodipodi:namedview
     id="base"
     pagecolor="#ffffff"
     bordercolor="#666666"
     borderopacity="1.0"
     inkscape:pageopacity="0.0"
     inkscape:pageshadow="2"
     inkscape:zoom="5.6"
     inkscape:cx="14.092112"
     inkscape:cy="-4.1136375"
     inkscape:document-units="mm"
     inkscape:current-layer="layer1"
     inkscape:document-rotation="0"
     showgrid="false"
     units="px"
     viewbox-width="25"
     inkscape:pagecheckerboard="true"
     inkscape:window-width="1267"
     inkscape:window-height="1040"
     inkscape:window-x="208"
     inkscape:window-y="0"
     inkscape:window-maximized="0" />
  <metadata
     id="metadata3097">
    <rdf:RDF>
      <cc:Work
         rdf:about="">
        <dc:format>image/svg+xml</dc:format>
        <dc:type
           rdf:resource="http://purl.org/dc/dcmitype/StillImage" />
        <dc:title></dc:title>
      </cc:Work>
    </rdf:RDF>
  </metadata>
  <g
     inkscape:label="Layer 1"
     inkscape:groupmode="layer"
     id="layer1">
    <g
       stroke="none"
       stroke-width="1"
       fill="none"
       fill-rule="evenodd"
       id="g10"
       transform="matrix(0.38311688,0,0,0.38311688,-0.52597398,1.9642858)">
      <g
         transform="translate(-56,-901)"
         fill="#000000"
         fill-rule="nonzero"
         id="g8">
        <path
           d="m 64.894427,939.78885 c -0.769977,0.38499 -1.69992,0.23408 -2.308641,-0.37464 l -6,-6 C 56.210714,933.03914 56,932.53043 56,932 c 0,-6.06664 1.615937,-10.72443 4.912704,-13.83378 -0.397287,-8.01405 7.314701,-14.6219 15.533277,-12.44063 l 4.139805,-4.1398 C 80.960859,901.21071 81.469567,901 82,901 h 16 c 0.530433,0 1.039141,0.21071 1.414214,0.58579 l 4.139806,4.1398 c 8.21857,-2.18127 15.93056,4.42658 15.53328,12.44063 C 122.38406,921.27557 124,925.93336 124,932 c 0,0.53043 -0.21071,1.03914 -0.58579,1.41421 l -6,6 c -0.60872,0.60872 -1.53866,0.75963 -2.30864,0.37464 -3.43138,-1.71568 -5.66548,-3.99633 -6.90231,-6.95627 C 105.58854,939.76483 104,947.41475 104,954 c 0,1.10457 -0.89543,2 -2,2 H 78 c -1.104569,0 -2,-0.89543 -2,-2 0,-6.58525 -1.588538,-14.23517 -4.203258,-21.16742 -1.236835,2.95994 -3.470937,5.24059 -6.902315,6.95627 z M 81,932 c 3.067551,0 6.074158,-1.15636 9,-3.40443 2.925842,2.24807 5.932449,3.40443 9,3.40443 3.53389,0 6.9869,-1.53467 10.32873,-4.50518 0.82556,-0.73384 0.89993,-1.99798 0.16609,-2.82355 -0.73384,-0.82556 -1.99798,-0.89993 -2.82355,-0.16609 C 104.0131,926.868 101.46611,928 99,928 c -2.466106,0 -5.013096,-1.132 -7.671272,-3.49482 -0.757772,-0.67357 -1.899684,-0.67357 -2.657456,0 C 86.013096,926.868 83.466106,928 81,928 c -2.466106,0 -5.013096,-1.132 -7.671272,-3.49482 -0.825566,-0.73384 -2.089711,-0.65947 -2.823547,0.16609 -0.733836,0.82557 -0.659474,2.08971 0.166091,2.82355 C 74.013096,930.46533 77.466106,932 81,932 Z m 14.632456,6.10263 c -2.065002,-0.68833 -3.993781,-0.56 -5.632456,0.38744 -1.638675,-0.94744 -3.567454,-1.07577 -5.632456,-0.38744 -1.047886,0.3493 -1.614206,1.48194 -1.264911,2.52983 0.349296,1.04788 1.481936,1.6142 2.529823,1.26491 1.3051,-0.43504 2.175537,-0.26095 2.95333,0.51684 0.781049,0.78105 2.047379,0.78105 2.828428,0 0.777793,-0.77779 1.64823,-0.95188 2.95333,-0.51684 1.047887,0.34929 2.180527,-0.21703 2.529823,-1.26491 0.349295,-1.04789 -0.217025,-2.18053 -1.264911,-2.52983 z m -0.738029,9.10852 C 93.242304,946.38508 91.55153,946.51178 90,947.45747 c -1.55153,-0.94569 -3.242304,-1.07239 -4.894427,-0.24632 -0.987957,0.49397 -1.388406,1.69532 -0.894427,2.68328 0.493978,0.98795 1.695324,1.3884 2.683281,0.89442 0.496017,-0.248 0.925316,-0.14068 1.691359,0.62536 0.781049,0.78105 2.047379,0.78105 2.828428,0 0.766043,-0.76604 1.195342,-0.87336 1.691359,-0.62536 0.987957,0.49398 2.189303,0.0935 2.683281,-0.89442 0.493979,-0.98796 0.09353,-2.18931 -0.894427,-2.68328 z m 1.620502,-37.15144 c -2.429878,0.60747 -4.605949,1.90731 -6.514929,3.86396 -1.90898,-1.95665 -4.085051,-3.25649 -6.514929,-3.86396 -1.07159,-0.26789 -2.157458,0.38363 -2.425356,1.45522 -0.267898,1.07159 0.383624,2.15746 1.455214,2.42536 2.195603,0.5489 4.147758,1.94329 5.885071,4.25971 0.8,1.06667 2.4,1.06667 3.2,0 1.737313,-2.31642 3.689468,-3.71081 5.885071,-4.25971 1.07159,-0.2679 1.723112,-1.35377 1.455214,-2.42536 -0.267898,-1.07159 -1.353766,-1.72311 -2.425356,-1.45522 z"
           id="path6" />
      </g>
    </g>
  </g>
</svg>
