<?xml version="1.0" encoding="UTF-8" standalone="no"?>
<svg
   xmlns:dc="http://purl.org/dc/elements/1.1/"
   xmlns:cc="http://creativecommons.org/ns#"
   xmlns:rdf="http://www.w3.org/1999/02/22-rdf-syntax-ns#"
   xmlns:svg="http://www.w3.org/2000/svg"
   xmlns="http://www.w3.org/2000/svg"
   xmlns:sodipodi="http://sodipodi.sourceforge.net/DTD/sodipodi-0.dtd"
   xmlns:inkscape="http://www.inkscape.org/namespaces/inkscape"
   width="25"
   height="25"
   viewBox="0 0 25 25"
   version="1.1"
   id="svg3100"
   inkscape:version="1.0.1 (3bc2e813f5, 2020-09-07)"
   sodipodi:docname="weapon.svg">
  <style
     id="style3663"></style>
  <defs
     id="defs3094" />
  <sodipodi:namedview
     id="base"
     pagecolor="#ffffff"
     bordercolor="#666666"
     borderopacity="1.0"
     inkscape:pageopacity="0.0"
     inkscape:pageshadow="2"
     inkscape:zoom="11.2"
     inkscape:cx="5.4660822"
     inkscape:cy="18.747617"
     inkscape:document-units="mm"
     inkscape:current-layer="layer1"
     inkscape:document-rotation="0"
     showgrid="false"
     units="px"
     viewbox-width="25"
     inkscape:pagecheckerboard="true"
     inkscape:window-width="1326"
     inkscape:window-height="1040"
     inkscape:window-x="208"
     inkscape:window-y="0"
     inkscape:window-maximized="0" />
  <metadata
     id="metadata3097">
    <rdf:RDF>
      <cc:Work
         rdf:about="">
        <dc:format>image/svg+xml</dc:format>
        <dc:type
           rdf:resource="http://purl.org/dc/dcmitype/StillImage" />
        <dc:title />
      </cc:Work>
    </rdf:RDF>
  </metadata>
  <g
     inkscape:label="Layer 1"
     inkscape:groupmode="layer"
     id="layer1">
    <g
       id="g865"
       transform="matrix(0.0534638,0,0,0.0534638,13.932066,9.9604689)">
      <path
         d="m -197.44601,265.64 a 8.93,8.93 0 0 0 8.66,13.24 l 57.26,-5.35 a 28.09,28.09 0 0 0 19.12,-10.17 l 33.870003,-41.35 a 20.92,20.92 0 0 0 0.76,-25.56 L -106.30601,157.1 a 27.81,27.81 0 0 0 -15.8,-10.67 l -67.61,-16.85 a 6,6 0 0 0 -6.94,8.26 l 22.48,50.75 a 43.1,43.1 0 0 1 -1.75,38.43 z"
         id="path4" />
      <path
         d="m -223.78601,268.2 30.08,-51.09 a 22.74,22.74 0 0 0 0.92,-20.28 l -29.79,-67.3 a 19.82,19.82 0 0 0 -13.06,-11.13 l -19.67,-5.17 v 166 l 11.76,-1.1 c 8.31,-0.72 15.7,-2.6 19.76,-9.93 z"
         id="path6" />
      <path
         d="M 49.263993,263.13 V 158.86 a 15.59,15.59 0 0 0 -15.05,-15.58 l -100.15,-3.34 a 10,10 0 0 0 -9,15 l 23.9,41.55 a 15.49,15.49 0 0 1 0.2,15.1 l -29.25,53.94 a 8.94,8.94 0 0 0 7.86,13.2 h 105.9 a 15.59,15.59 0 0 0 15.59,-15.6 z"
         id="path8" />
      <path
         d="m 88.553993,139.91 h -15 a 5.55,5.55 0 0 0 -5.55,5.55 v 20 a 5.55,5.55 0 0 0 5.55,5.55 h 15 a 15.53,15.53 0 0 0 15.539997,-15.53 v 0 A 15.54,15.54 0 0 0 88.553993,139.91 Z"
         id="path10" />
      <path
         d="m 89.773993,196.27 h -15 a 5.55,5.55 0 0 0 -5.55,5.55 v 20 a 5.55,5.55 0 0 0 5.55,5.55 h 15 a 15.54,15.54 0 0 0 0,-31.07 z"
         id="path12" />
      <path
         d="m 89.773993,247.65 h -15 a 5.55,5.55 0 0 0 -5.55,5.55 v 20 a 5.55,5.55 0 0 0 5.55,5.55 h 15 a 15.54,15.54 0 0 0 0,-31.07 z"
         id="path14" />
      <rect
         x="-82.386009"
         y="-184.23"
         width="55.049999"
         height="208.95"
         rx="7.3699999"
         id="rect16" />
      <path
         d="m -198.91601,75.73 a 38.4,38.4 0 0 0 20.44,5.9 h 120.690003 a 6.65,6.65 0 0 1 6.65,6.65 v 16.61 a 6.66,6.66 0 0 0 6.66,6.65 h 54.62 a 6.65,6.65 0 0 0 6.65,-6.65 V 88.28 a 6.66,6.66 0 0 1 6.66,-6.65 H 144.13399 a 38.4,38.4 0 0 0 20.44,-5.9 c 11,-6.88 27.66,-19.74 36.28,-38.27 a 9.45,9.45 0 0 0 -2.54,-11.26 l -32.1,-26.53 a 9.4,9.4 0 0 0 -13.83,2 c -10.39,15.68 -36.65,46.14 -83.799997,46.14 H -102.93601 c -47.15,0 -73.41,-30.46 -83.8,-46.14 a 9.4,9.4 0 0 0 -13.83,-2 l -32.09,26.53 a 9.45,9.45 0 0 0 -2.54,11.26 c 8.62,18.53 25.31,31.39 36.28,38.27 z"
         id="path18" />
      <rect
         x="-6.9959936"
         y="-184.23"
         width="55.049999"
         height="208.95"
         rx="7.3699999"
         id="rect20" />
    </g>
  </g>
</svg>
