<svg version="1.1" viewBox="0 0 20 20" xmlns="http://www.w3.org/2000/svg">
 <path d="m12.31 0.021767c-0.80053 0-1.4633 0.6542-1.4633 1.4547 0 0.80053 0.6628 1.4547 1.4633 1.4547 0.79192 0 1.4547-0.6542 1.4547-1.4547 0-0.80053-0.6628-1.4547-1.4547-1.4547zm-3.1591 0.72306c-0.6628 0-1.2137 0.5509-1.2137 1.2223 0 0.6628 0.5509 1.2137 1.2137 1.2137 0.6628 0 1.2137-0.5509 1.2137-1.2137 0-0.67141-0.5509-1.2223-1.2137-1.2223zm7.2822 0c-0.67141 0-1.2137 0.5509-1.2137 1.2223 0 0.6628 0.5423 1.2137 1.2137 1.2137 0.6628 0 1.2137-0.5509 1.2137-1.2137 0-0.67141-0.5509-1.2223-1.2137-1.2223zm-4.1232 0.24963c0.26684 0 0.48204 0.20659 0.48204 0.48204s-0.2152 0.49065-0.48204 0.49065c-0.27545 0-0.49065-0.2152-0.49065-0.49065s0.2152-0.48204 0.49065-0.48204zm-9.219 0.24102c-0.67141 0-1.2137 0.5509-1.2137 1.2137 0 0.6628 0.54229 1.2137 1.2137 1.2137 0.6628 0 1.2137-0.5509 1.2137-1.2137 0-0.6628-0.5509-1.2137-1.2137-1.2137zm3.1505 0.48204c-0.6628 0-1.2137 0.5509-1.2137 1.2137 0 0.67141 0.5509 1.2223 1.2137 1.2223 0.6628 0 1.2137-0.5509 1.2137-1.2223 0-0.6628-0.5509-1.2137-1.2137-1.2137zm2.9095 0c0.13773 0 0.24102 0.10329 0.24102 0.24963 0 0.13773-0.10329 0.24102-0.24102 0.24102-0.13773 0-0.24102-0.10329-0.24102-0.24102 0-0.14633 0.10329-0.24963 0.24102-0.24963zm7.2822 0c0.13772 0 0.24102 0.10329 0.24102 0.24963 0 0.13773-0.1033 0.24102-0.24102 0.24102-0.14633 0-0.24963-0.10329-0.24963-0.24102 0-0.14633 0.10329-0.24963 0.24963-0.24963zm-13.342 0.49065c0.13773 0 0.24102 0.10329 0.24102 0.24102s-0.10329 0.24102-0.24102 0.24102c-0.14633 0-0.24963-0.10329-0.24963-0.24102s0.10329-0.24102 0.24963-0.24102zm3.1505 0.48204c0.13773 0 0.24102 0.10329 0.24102 0.24102 0 0.14633-0.10329 0.24963-0.24102 0.24963-0.13773 0-0.24102-0.10329-0.24102-0.24963 0-0.13773 0.10329-0.24102 0.24102-0.24102zm8.0053 0c-0.80053 0-1.4547 0.6628-1.4547 1.4633 0 0.49926 0.26684 0.94686 0.6628 1.2137h-3.3743c-0.25824 0.00861-0.47343 0.24963-0.46482 0.50786 0.00861 0.24963 0.24963 0.47343 0.50786 0.46482h0.24102v3.0214c-1.8507 0.91243-3.1505 2.7889-3.1505 4.9926 0 3.0816 2.5049 5.5865 5.5779 5.5865 3.073 0 5.5779-2.5049 5.5779-5.5865 0-2.2036-1.2998-4.0801-3.1505-4.9926v-3.0214h0.24102c0.25824 0 0.49065-0.23241 0.49065-0.49065 0-0.25824-0.23241-0.49065-0.49065-0.48204h-0.42178c0.39596-0.26684 0.6628-0.71445 0.6628-1.2137 0-0.80053-0.6542-1.4633-1.4547-1.4633zm-5.5779 0.97269c-0.6628 0-1.2137 0.5509-1.2137 1.2137 0 0.6628 0.5509 1.2137 1.2137 1.2137 0.6628 0 1.2137-0.5509 1.2137-1.2137 0-0.6628-0.5509-1.2137-1.2137-1.2137zm5.5779 0c0.27545 0 0.48204 0.2152 0.48204 0.49065 0 0.26684-0.20659 0.48204-0.48204 0.48204s-0.48204-0.2152-0.48204-0.48204c0-0.27545 0.20659-0.49065 0.48204-0.49065zm-11.93 0.73167c-0.25824 0.00861-0.47343 0.24963-0.46482 0.50786 0.00861 0.24963 0.25824 0.47343 0.50786 0.46482h0.24102v12.869c0 0.40457 0.18076 0.75749 0.49926 1.0932 0.3271 0.33571 0.82635 0.61116 1.4461 0.61116 0.61977 0 1.119-0.27545 1.4375-0.61116 0.31849-0.3357 0.49926-0.68863 0.49926-1.0932v-12.869h0.24102c0.25824 0 0.49926-0.23241 0.49926-0.49065 0-0.25824-0.24102-0.49065-0.49926-0.48204-1.5322-0.00861-3.0902 0-4.4072 0zm6.3526 0.24102c0.13773 0 0.24102 0.10329 0.24102 0.24102 0 0.13773-0.10329 0.24102-0.24102 0.24102-0.13773 0-0.24102-0.10329-0.24102-0.24102 0-0.13773 0.10329-0.24102 0.24102-0.24102zm-5.0958 0.73167h1.9368v1.4547h-1.9368zm7.7643 0.97269h2.9095v0.48204h-0.97269v0.97269h0.97269v0.48204h-0.97269v0.97269h0.97269v0.37875c0 0.19798 0.12051 0.38735 0.30128 0.45622 0.9899 0.41318 1.799 1.1448 2.2983 2.0831h-8.1086c0.49926-0.93826 1.3084-1.6699 2.2983-2.0831 0.17216-0.06886 0.30128-0.25824 0.30128-0.45622z" fill="#6f916f"/>
</svg>
