<svg version="1.1" viewBox="0 0 20 20" xmlns="http://www.w3.org/2000/svg">
 <g fill="#e9afc6" stroke-width=".21015">
  <path d="m3.0126 9.0574 6.0312-6.0312-1.7232-1.7232c-1.6602-1.6602-4.3711-1.6602-6.0312 0-1.6602 1.6602-1.6602 4.3711 0 6.0312z"/>
  <path d="m17.05 10.991-6.0522 6.0522 1.7232 1.7232c0.84059 0.84059 1.9334 1.2399 3.0261 1.2399 1.0928 0 2.1855-0.42029 3.0261-1.2399 1.6602-1.6602 1.6602-4.3711 0-6.0312z"/>
  <path d="m18.753 1.303c-1.6602-1.6602-4.3711-1.6602-6.0312 0l-11.411 11.411c-1.6602 1.6602-1.6602 4.3711 0 6.0312 1.6602 1.6602 4.3711 1.6602 6.0312 0l11.432-11.432c1.6602-1.6391 1.6602-4.35-0.021015-6.0102zm-10.991 8.9312-0.42029 0.42029c-0.10507 0.10507-0.29421 0.10507-0.39928 0l-0.42029-0.42029c-0.10507-0.10507-0.10507-0.29421 0-0.39928l0.42029-0.42029c0.10507-0.10507 0.29421-0.10507 0.39928 0l0.42029 0.42029c0.10507 0.10507 0.10507 0.27319 0 0.39928zm1.45 1.429-0.42029 0.4203c-0.10507 0.10507-0.29421 0.10507-0.39928 0l-0.42029-0.4203c-0.10507-0.10507-0.10507-0.2942 0-0.39928l0.42029-0.42029c0.10507-0.10507 0.29421-0.10507 0.39928 0l0.42029 0.42029c0.10507 0.10507 0.10507 0.29421 0 0.39928zm0-2.879-0.42029 0.42029c-0.10507 0.10507-0.29421 0.10507-0.39928 0l-0.42029-0.42029c-0.10507-0.10507-0.10507-0.29421 0-0.39928l0.42029-0.42029c0.10507-0.10507 0.29421-0.10507 0.39928 0l0.42029 0.42029c0.10507 0.10507 0.10507 0.29421 0 0.39928zm1.45 4.329-0.42029 0.42029c-0.10507 0.10507-0.29421 0.10507-0.39928 0l-0.42029-0.42029c-0.10507-0.10507-0.10507-0.29421 0-0.39928l0.42029-0.42029c0.10507-0.10507 0.29421-0.10507 0.39928 0l0.42029 0.42029c0.10507 0.10507 0.10507 0.2942 0 0.39928zm0-2.879-0.42029 0.42029c-0.10507 0.10507-0.29421 0.10507-0.39928 0l-0.42029-0.42029c-0.10507-0.10507-0.10507-0.29421 0-0.39928l0.42029-0.42029c0.10507-0.10507 0.29421-0.10507 0.39928 0l0.42029 0.42029c0.10507 0.10507 0.10507 0.27319 0 0.39928zm0-2.9-0.42029 0.42029c-0.10507 0.10507-0.29421 0.10507-0.39928 0l-0.42029-0.42029c-0.10507-0.10507-0.10507-0.29421 0-0.39928l0.42029-0.42029c0.10507-0.10507 0.29421-0.10507 0.39928 0l0.42029 0.42029c0.10507 0.10507 0.10507 0.29421 0 0.39928zm1.429 4.329-0.42029 0.4203c-0.10507 0.10507-0.29421 0.10507-0.39928 0l-0.42029-0.4203c-0.10507-0.10507-0.10507-0.2942 0-0.39928l0.42029-0.42029c0.10507-0.10507 0.29421-0.10507 0.39928 0l0.42029 0.42029c0.12609 0.10507 0.12609 0.29421 0 0.39928zm0-2.879-0.42029 0.42029c-0.10507 0.10507-0.29421 0.10507-0.39928 0l-0.42029-0.42029c-0.10507-0.10507-0.10507-0.29421 0-0.39928l0.42029-0.42029c0.10507-0.10507 0.29421-0.10507 0.39928 0l0.42029 0.42029c0.12609 0.10507 0.12609 0.29421 0 0.39928zm1.45 1.45-0.42029 0.42029c-0.10507 0.10507-0.29421 0.10507-0.39928 0l-0.42029-0.42029c-0.10507-0.10507-0.10507-0.29421 0-0.39928l0.42029-0.42029c0.10507-0.10507 0.29421-0.10507 0.39928 0l0.42029 0.42029c0.12609 0.10507 0.12609 0.27319 0 0.39928z"/>
 </g>
</svg>
