<svg xmlns="http://www.w3.org/2000/svg" viewBox="0 0 512 512" x="0px" y="0px"><title>equipment ring</title><path d="M88,348.14a14.64,14.64,0,0,0,18.41-10.9c18-80.4,88.3-142.49,88.3-142.49s62.09-70.27,142.49-88.3A14.64,14.64,0,0,0,348.14,88c-6.74-22.54-26.55-60.11-83-49.56,0,0-68.87,14.82-140.36,86.3s-86.3,140.36-86.3,140.36C27.93,321.59,65.5,341.4,88,348.14Z"></path><path d="M42,410.6c34.88,60,106.13,87.78,173.38,70.71,25.39-6.45,49.51-17.26,71.09-29.46,5.48-2.92,10.75-6.05,15.33-8.92a8.08,8.08,0,0,0-.92-14.19C293,425.11,280,417,271,406.38c-31.6-37-27.28-70.25-22.06-90.88,1.37-5.38-5.46-9.09-9.16-4.95-12.19,13.65-16.58,30.58-18.09,42.81a29.48,29.48,0,0,1-18.71,24.07c-77.2,29.14-138.18.11-164.77-17.06a8,8,0,0,0-12.28,8.2A134.85,134.85,0,0,0,42,410.6Z"></path><path d="M442.93,301.75c2.87-4.58,6-9.85,8.92-15.33,12.2-21.58,23-45.7,29.46-71.09C498.38,148.08,470.57,76.83,410.6,42a134.85,134.85,0,0,0-42-16.06,8,8,0,0,0-8.2,12.28c17.17,26.59,46.2,87.57,17.06,164.77a29.48,29.48,0,0,1-24.07,18.71c-12.23,1.51-29.16,5.9-42.81,18.09-4.14,3.7-.43,10.53,4.95,9.16,20.63-5.22,53.91-9.54,90.88,22.06,10.58,9,18.73,22.05,22.36,29.87A8.08,8.08,0,0,0,442.93,301.75Z"></path><path d="M393.79,393.79a74.38,74.38,0,1,0-105.19,0A74.38,74.38,0,0,0,393.79,393.79ZM290.33,346.48a9.67,9.67,0,1,1,13.68,0A9.67,9.67,0,0,1,290.33,346.48Zm39.26,44.7c-15-5.17-24.31-16.27-28.28-22a4.79,4.79,0,0,1,.73-6.3l6.35-5.7a5,5,0,0,1,8.22,2.52c2.52,11.11,10,20.26,16.23,26.27A3.15,3.15,0,0,1,329.59,391.18Z"></path></svg>