<svg xmlns="http://www.w3.org/2000/svg" viewBox="0 0 512 512" x="0px" y="0px"><title>equipment simple ring</title><path d="M410.6,42a134.85,134.85,0,0,0-42-16.06,8,8,0,0,0-8.21,12.28c24.3,37.63,72.4,144.09-54.25,267.94C182.26,432.76,75.8,384.66,38.17,360.36a8,8,0,0,0-12.28,8.21A134.85,134.85,0,0,0,42,410.6c34.88,60,106.13,87.78,173.38,70.71,90.4-23,164.88-101.1,164.88-101.1s78.14-74.48,101.1-164.88C498.38,148.08,470.57,76.83,410.6,42Z"></path><path d="M265.14,38.48s-68.87,14.82-140.36,86.3-86.3,140.36-86.3,140.36c-10.55,56.45,27,76.26,49.56,83a14.64,14.64,0,0,0,18.41-10.9c18-80.4,88.3-142.49,88.3-142.49s62.09-70.27,142.49-88.3A14.64,14.64,0,0,0,348.14,88C341.4,65.5,321.59,27.93,265.14,38.48Z"></path></svg>