<?xml version="1.0" encoding="UTF-8" standalone="no"?>
<svg
   xmlns:dc="http://purl.org/dc/elements/1.1/"
   xmlns:cc="http://creativecommons.org/ns#"
   xmlns:rdf="http://www.w3.org/1999/02/22-rdf-syntax-ns#"
   xmlns:svg="http://www.w3.org/2000/svg"
   xmlns="http://www.w3.org/2000/svg"
   xmlns:sodipodi="http://sodipodi.sourceforge.net/DTD/sodipodi-0.dtd"
   xmlns:inkscape="http://www.inkscape.org/namespaces/inkscape"
   version="1.1"
   x="0px"
   y="0px"
   viewBox="0 0 48 48"
   enable-background="new 0 0 48 48"
   xml:space="preserve"
   id="svg8"
   sodipodi:docname="arms_dog_mitts.svg"
   inkscape:version="1.0.1 (3bc2e813f5, 2020-09-07)"><style
     id="style839"></style><metadata
     id="metadata14"><rdf:RDF><cc:Work
         rdf:about=""><dc:format>image/svg+xml</dc:format><dc:type
           rdf:resource="http://purl.org/dc/dcmitype/StillImage" /></cc:Work></rdf:RDF></metadata><defs
     id="defs12" /><sodipodi:namedview
     pagecolor="#ffffff"
     bordercolor="#666666"
     borderopacity="1"
     objecttolerance="10"
     gridtolerance="10"
     guidetolerance="10"
     inkscape:pageopacity="0"
     inkscape:pageshadow="2"
     inkscape:window-width="1221"
     inkscape:window-height="937"
     id="namedview10"
     showgrid="false"
     inkscape:zoom="4.4270833"
     inkscape:cx="17.108197"
     inkscape:cy="3.6697228"
     inkscape:window-x="0"
     inkscape:window-y="0"
     inkscape:window-maximized="0"
     inkscape:current-layer="svg8" /><g
     id="g6"><path
       fill="#000000"
       d="M 4.3,41.8 C 3.1,40.4 3.1,38.2 3.3,36.4 3.6,34.5 4.1,32.6 3.9,30.7 3.6,28.3 2.2,26.2 1.4,23.9 0.7,21.9 0.5,19.7 0.5,17.6 c 0,-4.2 0.9,-8.8 4,-11.2 2,-1.5 4.7,-1.9 7.2,-1.9 1.9,0 4,0.1 5.6,1.3 1.908903,1.1235579 4.016847,5.81522 5.1,10.3 0.7,3.1 0.3,6.4 -1.1,9.2 -0.9,1.7 -2.1,3.2 -2.9,5 -0.8,1.8 -1.1,3.9 -1,6 0,1.2 0.2,2.4 0,3.6 -0.2,1.2 -0.7,2.4 -1.7,3 -0.7,0.4 -1.5,0.5 -2.4,0.5 -1.2,0.1 -2.4,0.1 -3.5,0.1 -2,0 -4.2,-0.1 -5.5,-1.7 z"
       id="path2"
       sodipodi:nodetypes="ccccscscccscsccsc" /><path
       fill="#000000"
       d="m 43.7,41.8 c 1.2,-1.4 1.2,-3.6 1,-5.4 -0.3,-1.9 -0.8,-3.8 -0.6,-5.7 0.3,-2.4 1.7,-4.5 2.5,-6.8 0.7,-2 0.9,-4.2 0.9,-6.3 0,-4.2 -0.9,-8.8 -4,-11.2 -2,-1.5 -4.7,-1.9 -7.2,-1.9 -1.9,0 -4,0.1 -5.6,1.3 -3.681662,2.425605 -4.122854,6.742907 -5.1,10.3 -0.7,3.1 -0.3,6.4 1.1,9.2 0.9,1.7 2.1,3.2 2.9,5 0.8,1.8 1.1,3.9 1,6 0,1.2 -0.2,2.4 0,3.6 0.2,1.2 0.7,2.4 1.7,3 0.7,0.4 1.5,0.5 2.4,0.5 1.2,0.1 2.4,0.1 3.5,0.1 2,0 4.2,-0.1 5.5,-1.7 z"
       id="path4"
       sodipodi:nodetypes="ccccscscccscsccsc" /></g></svg>
