<svg xmlns="http://www.w3.org/2000/svg" data-name="Layer 1" viewBox="0 0 48 48" x="0px" y="0px"><title>law solid icons</title><path d="M47.43,20.57a11.54,11.54,0,0,0-11-8,11.68,11.68,0,0,0-6,1.65A11.59,11.59,0,0,0,27.06,31L25.17,34.7l4,2-.53,1.61a1.64,1.64,0,0,0-1.4.77l-.89,1.42a1.24,1.24,0,0,0-.1.2l-1.35-.21a1.61,1.61,0,0,0-1.05-1.33l-1.57-.57a1.59,1.59,0,0,0-1.46.17l-.51-.41a1.55,1.55,0,0,0,.08-1.35l-.6-1.56a1.63,1.63,0,0,0-2-1l-.44-.75a1.64,1.64,0,0,0,.24-1.36l-.44-1.61a1.5,1.5,0,0,0-.34-.65l3.52-.95-1.08-4a11.56,11.56,0,0,0,3.47-11.63A11.28,11.28,0,0,0,21.15,10a11.44,11.44,0,0,0-2.57-2.72A12,12,0,0,0,15.3,5.59,11.41,11.41,0,0,0,11.59,5a11.71,11.71,0,0,0-3,.39A11.31,11.31,0,0,0,4.47,7.42a11.22,11.22,0,0,0-2.91,3.34A11.51,11.51,0,0,0,.4,19.55a11.56,11.56,0,0,0,8.79,8.34l1.09,4,3.77-1a1.59,1.59,0,0,0,0,.75l.43,1.6a1.63,1.63,0,0,0,2,1.15l.46.77a1.6,1.6,0,0,0-.17,1.49l.61,1.56a1.62,1.62,0,0,0,2.1.92h0l.68.56a1.63,1.63,0,0,0,1,2l1.57.58a1.63,1.63,0,0,0,1.93-.65l1.51.23a1.63,1.63,0,0,0,.7.94,1.73,1.73,0,0,0,.87.24,1.62,1.62,0,0,0,1.37-.75L30,40.85a1.61,1.61,0,0,0-.33-2.1l.5-1.5,4.3,2.19,1.9-3.7h0a11.56,11.56,0,0,0,10.32-6.33,11.53,11.53,0,0,0,.7-8.84Zm-38.9,2a6.77,6.77,0,0,1-3.36-3.92,6.77,6.77,0,0,1,2.94-7.87,6.78,6.78,0,0,1,3.48-1,6.75,6.75,0,0,1,6,9.8,6.74,6.74,0,0,1-9.06,2.95Zm5.41,6V26.81a1,1,0,0,1-.8-.72,1,1,0,1,1,1.9-.51,1,1,0,0,1-.33,1l.87,1.54Zm2.79,4.11a.55.55,0,0,0-.75-.2h0a.53.53,0,0,0-.18.76l.2.33a.75.75,0,0,1-.65-.56l-.43-1.59a.74.74,0,0,1,.33-.84l.43-.12a.74.74,0,0,1,.71.56l.43,1.6a.63.63,0,0,1,0,.24Zm2.91,5.15-.12-.09a.55.55,0,0,0-.79.06h0a.52.52,0,0,0-.09.52.78.78,0,0,1-.45-.44l-.6-1.54a1.29,1.29,0,0,1,0-.19l0,0a.57.57,0,0,0,.77.22h0a.58.58,0,0,0,.17-.78l-.2-.33a.78.78,0,0,1,.71.48l.59,1.54A.78.78,0,0,1,19.64,37.84Zm4,3.58a.83.83,0,0,1-.62,0l-1.55-.57a.73.73,0,0,1-.48-.54l.5.41a.56.56,0,0,0,.79,0h0a.56.56,0,0,0-.11-.8l-.59-.48a.73.73,0,0,1,.41,0l1.56.57a.78.78,0,0,1,.41.37.54.54,0,0,0-.61.46h0A.55.55,0,0,0,23.66,41.42Zm5.64-1-.89,1.41a.75.75,0,0,1-1.05.24l-.06,0a.54.54,0,0,0,.6-.45s0-.06,0-.09a.58.58,0,0,0-.5-.55l-.22,0L28,39.6a.71.71,0,0,1,.35-.3l-.1.34a.56.56,0,0,0,.33.72.51.51,0,0,0,.17,0,.58.58,0,0,0,.54-.41l.07-.24A.73.73,0,0,1,29.3,40.4Zm3.64-7.24a1,1,0,0,1-.93.54l-.38,1.72-1.5-.76,1.17-1.32a1,1,0,1,1,1.64-.18Zm9.49-6a6.77,6.77,0,0,1-2.53,2.72,6.69,6.69,0,0,1-3.48,1,6.6,6.6,0,0,1-3.05-.74,6.73,6.73,0,0,1-.43-11.78,6.83,6.83,0,0,1,3.49-1,6.75,6.75,0,0,1,6,9.8Z"></path></svg>