<svg xmlns="http://www.w3.org/2000/svg" viewBox="0 0 512 512" x="0px" y="0px"><title>equipment silmple glove armor</title><path d="M149.44,289.65a178.81,178.81,0,0,1,15.86,24.76,196.17,196.17,0,0,0,11.45,19.21,19.84,19.84,0,0,0,16.68,8.82c20.32-.56,30.72-32.28,30.72-32.28,18.28-66.27-33.57-100.33-50.19-109.35a60.19,60.19,0,0,1-26.39-27.76,66.91,66.91,0,0,1-5.13-17.57,16.19,16.19,0,0,0-16-13.84h-.07a16.13,16.13,0,0,0-15.88,13.08A164.13,164.13,0,0,0,108,178.43a148.8,148.8,0,0,0,25.18,88.49C139,275.63,144.8,283.57,149.44,289.65Z"></path><path d="M402.41,221.46a20.18,20.18,0,0,0-20.18-20.18H242a11.26,11.26,0,0,0-9.94,16.6c7.3,13.38,16.85,45.44,17.4,75,.47,25.8-8.17,50.34-30.45,63.36a69.43,69.43,0,0,1-14.8,6.49,9.51,9.51,0,0,0-6,13.71,110.84,110.84,0,0,0,21.88,30.66A28.49,28.49,0,0,0,240,415.18H353.75a33.29,33.29,0,0,0,28.73-16.47,147.17,147.17,0,0,0,19.93-74.34Z"></path><path d="M388.17,149H216.24a16,16,0,0,0,0,32H388.17a16,16,0,1,0,0-32Z"></path><path d="M230.26,128.62a5.43,5.43,0,0,0,5.43-5.43V41.65a17.72,17.72,0,1,0-35.44,0v81.54a5.43,5.43,0,0,0,5.43,5.43Z"></path><path d="M286.21,128.62a5.43,5.43,0,0,0,5.43-5.43V41.65a17.72,17.72,0,1,0-35.44,0v81.54a5.43,5.43,0,0,0,5.43,5.43Z"></path><path d="M342.46,128.62a5.43,5.43,0,0,0,5.43-5.43V41.65a17.72,17.72,0,1,0-35.43,0v81.54a5.43,5.43,0,0,0,5.43,5.43Z"></path><path d="M398.41,128.62a5.43,5.43,0,0,0,5.43-5.43V76.27a17.72,17.72,0,0,0-35.44,0v46.92a5.44,5.44,0,0,0,5.43,5.43Z"></path><path d="M353.87,435.52H231.75a27.5,27.5,0,0,0-19.57,8.09c-9.31,9.45-15.15,21.28-18.59,30.37a10.38,10.38,0,0,0,9.69,14.09H380.51a10.36,10.36,0,0,0,10.06-13,82.63,82.63,0,0,0-14.81-28.85A27.74,27.74,0,0,0,353.87,435.52Z"></path></svg>