<svg xmlns="http://www.w3.org/2000/svg" viewBox="0 0 512 512" x="0px" y="0px"><title>equipment glove armor</title><path d="M190.62,160.27H215.2a5.43,5.43,0,0,0,5.43-5.43V41.65a17.72,17.72,0,1,0-35.44,0V154.84A5.43,5.43,0,0,0,190.62,160.27Z"></path><path d="M246.4,160.27H271a5.44,5.44,0,0,0,5.43-5.43V41.65a17.72,17.72,0,0,0-35.44,0V154.84A5.43,5.43,0,0,0,246.4,160.27Z"></path><path d="M302,160.27h24.57a5.44,5.44,0,0,0,5.44-5.43V41.65a17.72,17.72,0,0,0-35.44,0V154.84A5.43,5.43,0,0,0,302,160.27Z"></path><path d="M357.77,160.27h24.57a5.43,5.43,0,0,0,5.43-5.43V85.16a17.72,17.72,0,1,0-35.44,0v69.68A5.44,5.44,0,0,0,357.77,160.27Z"></path><path d="M140.29,265a11.77,11.77,0,0,0,16.43.28c13.73-12.92,17.9-29.57,19.16-38.5a9.87,9.87,0,0,0-3.61-9.18c-.86-.68-1.66-1.37-2.42-2.06A31.06,31.06,0,0,1,160,192.66V154.72a22.71,22.71,0,0,0-45.42,0v61.11a41.82,41.82,0,0,0,3.09,16C123.78,246.56,133.51,258.15,140.29,265Z"></path><path d="M388.44,398.38H162.11V455.2a32.86,32.86,0,0,1-6,19l-2.33,3.31a6.7,6.7,0,0,0,5.48,10.57H390.68A6.7,6.7,0,0,0,396,477.29l-.78-1a32.92,32.92,0,0,1-6.79-20Zm-170.5,48.06a10.67,10.67,0,0,1-.58,1.9,11.36,11.36,0,0,1-.93,1.76,10.46,10.46,0,0,1-1.28,1.54,10.15,10.15,0,0,1-14.37,0,9.22,9.22,0,0,1-1.26-1.54,10.67,10.67,0,0,1-1-1.76,11.56,11.56,0,0,1-.58-1.9,10.52,10.52,0,0,1,0-4,12.3,12.3,0,0,1,.58-1.91,10.09,10.09,0,0,1,1-1.74,8.61,8.61,0,0,1,1.26-1.56,10.18,10.18,0,0,1,14.37,0,9.67,9.67,0,0,1,1.28,1.56,10.73,10.73,0,0,1,.93,1.74,11.3,11.3,0,0,1,.58,1.91,10.52,10.52,0,0,1,0,4Zm67,0a11.56,11.56,0,0,1-.58,1.9,11.36,11.36,0,0,1-.93,1.76,10.46,10.46,0,0,1-1.28,1.54,10.15,10.15,0,0,1-14.37,0,9.22,9.22,0,0,1-1.26-1.54,10,10,0,0,1-.95-1.76,10.67,10.67,0,0,1-.58-1.9,10.52,10.52,0,0,1,0-4,11.3,11.3,0,0,1,.58-1.91,9.46,9.46,0,0,1,.95-1.74,8.61,8.61,0,0,1,1.26-1.56,10.18,10.18,0,0,1,14.37,0,9.67,9.67,0,0,1,1.28,1.56,10.73,10.73,0,0,1,.93,1.74,12.3,12.3,0,0,1,.58,1.91,10.52,10.52,0,0,1,0,4Zm67,0a11.56,11.56,0,0,1-.58,1.9,10.67,10.67,0,0,1-.95,1.76,9.22,9.22,0,0,1-1.26,1.54,10.15,10.15,0,0,1-14.37,0,10.46,10.46,0,0,1-1.28-1.54,11.36,11.36,0,0,1-.93-1.76,10.67,10.67,0,0,1-.58-1.9,10.52,10.52,0,0,1,0-4,11.3,11.3,0,0,1,.58-1.91,10.73,10.73,0,0,1,.93-1.74,9.67,9.67,0,0,1,1.28-1.56,10.18,10.18,0,0,1,14.37,0,8.61,8.61,0,0,1,1.26,1.56,10.09,10.09,0,0,1,.95,1.74,12.3,12.3,0,0,1,.58,1.91,10.52,10.52,0,0,1,0,4Z"></path><path d="M377,180.61H211A11.43,11.43,0,0,0,199.52,192,164.16,164.16,0,0,1,167,290.81a23.71,23.71,0,0,0-4.88,14.36V378H388.44v-186A11.44,11.44,0,0,0,377,180.61Z"></path></svg>