<svg xmlns:dc="http://purl.org/dc/elements/1.1/" xmlns:cc="http://creativecommons.org/ns#" xmlns:rdf="http://www.w3.org/1999/02/22-rdf-syntax-ns#" xmlns:svg="http://www.w3.org/2000/svg" xmlns="http://www.w3.org/2000/svg" xmlns:sodipodi="http://sodipodi.sourceforge.net/DTD/sodipodi-0.dtd" xmlns:inkscape="http://www.inkscape.org/namespaces/inkscape" viewBox="0 0 12.7 12.7" version="1.1" x="0px" y="0px"><g transform="translate(0,-284.29999)"><path style="" d="m 0.58039658,286.24738 a 0.05554818,0.05554818 0 0 0 -0.0512423,0.0569 5.2150476,5.2150476 0 0 0 0.96007822,2.91002 v 5.7098 a 0.13006485,0.13006485 0 0 0 0.2601133,0 v -5.37298 a 2.7774078,2.7774078 0 0 0 1.3499882,0.87788 4.1875594,4.1875594 0 0 0 3.1289031,-0.32158 0.26004454,0.26004454 0 0 1 0.2434661,0 4.1875594,4.1875594 0 0 0 3.1289031,0.32158 2.7774078,2.7774078 0 0 0 1.3559707,-0.88498 5.2150476,5.2150476 0 0 0 1.214209,-3.23974 0.05554818,0.05554818 0 0 0 -0.09962,-0.0351 1.9924616,1.9924616 0 0 1 -2.129288,0.70516 7.6319399,7.6319399 0 0 0 -1.8769777,-0.28958 1.6949489,1.6949489 0 0 0 -1.0812911,0.35056 1.040178,1.040178 0 0 1 -1.2675322,0 1.6949489,1.6949489 0 0 0 -1.081031,-0.35056 7.6319399,7.6319399 0 0 0 -1.8772378,0.28958 1.9924616,1.9924616 0 0 1 -2.12850729,-0.70516 0.05554818,0.05554818 0 0 0 -0.0431788,-0.0218 0.05554818,0.05554818 0 0 0 -0.005202,0 z m 3.69907152,1.68515 a 1.1109631,1.1109631 0 0 1 0.5345329,0.12953 1.6156272,1.6156272 0 0 1 0.7467853,0.83877 0.05554818,0.05554818 0 0 1 -0.018208,0.0645 3.1141029,3.1141029 0 0 1 -0.4895333,0.30176 v 0 a 1.388704,1.388704 0 0 1 -1.4402474,-0.12803 2.4028463,2.4028463 0 0 1 -0.7332595,-0.88142 0.05554818,0.05554818 0 0 1 0.050462,-0.0798 2.8251868,2.8251868 0 0 0 0.977766,-0.17628 1.1109631,1.1109631 0 0 1 0.3730025,-0.0691 z m 4.0780566,0 a 1.1109631,1.1109631 0 0 1 0.4362101,0.0681 2.8251868,2.8251868 0 0 0 0.9780261,0.17628 0.05554818,0.05554818 0 0 1 0.049942,0.0798 2.4028463,2.4028463 0 0 1 -0.7332594,0.88142 1.388704,1.388704 0 0 1 -1.4402475,0.12802 3.1141029,3.1141029 0 0 1 -0.4903136,-0.30175 0.05554818,0.05554818 0 0 1 -0.018208,-0.0645 1.6156272,1.6156272 0 0 1 0.7473055,-0.83876 1.1109631,1.1109631 0 0 1 0.4710653,-0.12852 z" fill="#000000" stroke="none"></path></g></svg>