<svg xmlns="http://www.w3.org/2000/svg" data-name="Layer 1" viewBox="0 0 100 100" x="0px" y="0px"><title>Noun_Project_100Icon_10px_grid_sextoy</title><path d="M93.87,47.55a18.3,18.3,0,0,0,1.45-14.91C90.9,19.45,80.54,13,66.15,14.35c-6.33.62-11.24,3.32-16,5.93C43,24.23,36.26,28,24.43,25.07c-2.66-.65-5-.13-6.52,1.43A5.56,5.56,0,0,0,16.75,32a20.44,20.44,0,0,1,.12,6.94c-.29,2.4-3.76,8.14-8.27,12.53-4.27,4.15-5.81,9.11-4.34,14,.44,1.45,2.07,5.1,7.44,6.57A21.09,21.09,0,0,0,31.81,86.9a21.2,21.2,0,0,0,5.84-.83l.41-.12a19.83,19.83,0,0,0,7.89-4.47c.25-.22,1.69-1.69,1.81-1.83a30.31,30.31,0,0,0,2.17-2.93c1.53-2.26,3.12-4.59,5.47-5.26,2.71-.78,6.53.57,9.61,1.66.91.32,1.78.63,2.56.86.18.05,2.18.54,2.5.59a19.81,19.81,0,0,0,9.06-.38l.41-.12A21.12,21.12,0,0,0,94,48C94,47.83,93.91,47.7,93.87,47.55ZM89.12,61.67a.5.5,0,0,1,.2.68,20,20,0,0,1-1.09,1.75.5.5,0,1,1-.82-.57,19,19,0,0,0,1-1.66A.5.5,0,0,1,89.12,61.67ZM86.91,65a.5.5,0,0,1,.05.71,19.31,19.31,0,0,1-1.43,1.49.5.5,0,0,1-.68-.73,18.39,18.39,0,0,0,1.35-1.41A.5.5,0,0,1,86.91,65ZM84,67.84a.5.5,0,0,1-.1.7,17,17,0,0,1-1.73,1.13.5.5,0,1,1-.49-.87,16,16,0,0,0,1.63-1.06A.5.5,0,0,1,84,67.84Zm-3.43,2.08a.5.5,0,0,1-.28.65,13.45,13.45,0,0,1-2,.62h-.11a.5.5,0,0,1-.11-1A12.44,12.44,0,0,0,80,69.64.5.5,0,0,1,80.62,69.92Zm-7.88,1a.5.5,0,0,1-.5.44h-.06c-.66-.08-1.32-.19-2-.33a.5.5,0,1,1,.19-1c.67.13,1.31.24,1.95.31A.5.5,0,0,1,72.74,70.88ZM52.83,68.41a5.39,5.39,0,0,0-1.54,1,.5.5,0,1,1-.65-.76,6.37,6.37,0,0,1,1.83-1.15.5.5,0,0,1,.36.93ZM47.5,73.92l-.11.15L46.3,75.54a.5.5,0,0,1-.8-.6l1.08-1.47.11-.15a.5.5,0,1,1,.81.59ZM45,76.45a.5.5,0,0,1,.08.7c-.43.53-.86,1.06-1.31,1.56A.5.5,0,1,1,43,78c.44-.49.86-1,1.28-1.52A.5.5,0,0,1,45,76.45Zm-2.64,3a.5.5,0,0,1,0,.71,16.66,16.66,0,0,1-1.59,1.32.5.5,0,1,1-.59-.81,15.66,15.66,0,0,0,1.5-1.24A.5.5,0,0,1,42.35,79.48Zm-3.17,2.45a.5.5,0,0,1-.23.67,9.93,9.93,0,0,1-2,.73h-.12a.5.5,0,0,1-.12-1,8.93,8.93,0,0,0,1.78-.66A.5.5,0,0,1,39.17,81.92Zm-7.82,1.37a.5.5,0,0,1-.5.47h0a20.12,20.12,0,0,1-2-.24.5.5,0,0,1,.17-1,19.09,19.09,0,0,0,1.94.23A.5.5,0,0,1,31.35,83.29Zm57.58-38a.5.5,0,0,1-.69-.15,13.51,13.51,0,0,0-1.16-1.55.5.5,0,0,1,.75-.66,14.56,14.56,0,0,1,1.25,1.66A.5.5,0,0,1,88.93,45.33Zm-25.8-7.49a.5.5,0,0,1-.46.54l-2,.15h0a.5.5,0,0,1,0-1l2-.15A.5.5,0,0,1,63.13,37.84Zm-4,.29a.5.5,0,0,1-.47.53l-2,.12h0a.5.5,0,0,1,0-1l2-.12A.5.5,0,0,1,59.13,38.13Zm-4,.24a.5.5,0,0,1-.47.52l-2,.09h0a.5.5,0,0,1,0-1l2-.09A.5.5,0,0,1,55.13,38.37Zm-4,.18a.5.5,0,0,1-.48.52l-2,.07h0a.5.5,0,0,1,0-1l2-.07A.5.5,0,0,1,51.14,38.55Zm-7.93,1.79-1.12.76-.52.36a.5.5,0,0,1-.57-.83l.52-.35,1.14-.77a.5.5,0,1,1,.55.84Zm-3.16,1.54a.5.5,0,0,1-.14.69l-1.69,1.08a.5.5,0,0,1-.53-.85l1.67-1.07A.5.5,0,0,1,40.05,41.88ZM36.67,44a.5.5,0,0,1-.17.69l-1.73,1a.5.5,0,1,1-.5-.87l1.72-1A.5.5,0,0,1,36.67,44Zm-3.46,2a.5.5,0,0,1-.19.68l-1.76,1a.5.5,0,0,1-.48-.88l1.75-1A.5.5,0,0,1,33.22,46ZM29.71,48a.5.5,0,0,1-.2.68l-1.57.83-.21.11a.5.5,0,0,1-.47-.88l.21-.11L29,47.78A.5.5,0,0,1,29.71,48ZM26,50.59q-.86.52-1.67,1.06a.5.5,0,1,1-.56-.83q.83-.56,1.72-1.09a.5.5,0,0,1,.51.86Zm-3.27,2.22c-.53.41-1,.84-1.52,1.26a.5.5,0,0,1-.67-.75c.49-.44,1-.88,1.57-1.31a.5.5,0,0,1,.61.79ZM14.85,64.38a.5.5,0,0,1-.42-.57,14.58,14.58,0,0,1,.45-2,.5.5,0,1,1,1,.28A13.68,13.68,0,0,0,15.41,64a.5.5,0,0,1-.49.43Zm1-3.88a.5.5,0,0,1-.25-.66,16.61,16.61,0,0,1,1-1.83.5.5,0,0,1,.85.52,15.52,15.52,0,0,0-.91,1.72.5.5,0,0,1-.66.25Zm2-3.49a.5.5,0,0,1-.09-.7c.41-.53.86-1.05,1.34-1.56a.5.5,0,1,1,.73.69c-.46.48-.89,1-1.28,1.49a.5.5,0,0,1-.7.09Zm26.4-17.83a.5.5,0,0,1,.33-.62,9.09,9.09,0,0,1,2.06-.33.49.49,0,0,1,.53.46.5.5,0,0,1-.46.53,8.19,8.19,0,0,0-1.84.29l-.15,0A.5.5,0,0,1,44.22,39.18Zm20.37-2,2-.17.32,0a.51.51,0,0,1,.54.46A.5.5,0,0,1,67,38l-.31,0-2,.17h0a.5.5,0,0,1,0-1Zm3.86.2a.5.5,0,0,1,.48-.52q1,0,1.9,0H71a.5.5,0,0,1,0,1h-.14c-.6,0-1.22,0-1.85,0h0A.5.5,0,0,1,68.46,37.43Zm4,0a.5.5,0,0,1,.53-.47q1,.06,2,.17a.5.5,0,0,1-.06,1h-.06q-1-.11-2-.16A.5.5,0,0,1,72.47,37.4Zm4,.39a.5.5,0,0,1,.58-.4c.69.12,1.36.27,2,.44a.5.5,0,0,1-.13,1l-.13,0c-.62-.16-1.26-.31-1.92-.42A.5.5,0,0,1,76.47,37.79Zm3.9.95a.5.5,0,0,1,.64-.3,19.58,19.58,0,0,1,1.9.81.5.5,0,1,1-.44.9,18.58,18.58,0,0,0-1.8-.76A.5.5,0,0,1,80.37,38.74ZM84,40.41a.5.5,0,0,1,.69-.15,15.49,15.49,0,0,1,1.66,1.25.5.5,0,1,1-.65.76,14.61,14.61,0,0,0-1.55-1.17A.5.5,0,0,1,84,40.41Zm-69.24,25a.47.47,0,0,1,.5.46V66a15,15,0,0,0,.12,1.87.5.5,0,0,1-.43.56h-.06a.5.5,0,0,1-.5-.44,16,16,0,0,1-.13-2A.53.53,0,0,1,14.77,65.42Zm.38,4a.5.5,0,0,1,.61.36q.08.3.16.61.19.65.41,1.27a.5.5,0,1,1-.94.33q-.23-.65-.42-1.33-.09-.32-.17-.64A.5.5,0,0,1,15.15,69.38Zm1.26,3.81a.5.5,0,0,1,.67.24A18.08,18.08,0,0,0,18,75.15a.5.5,0,0,1-.85.52,19.18,19.18,0,0,1-1-1.81A.5.5,0,0,1,16.4,73.19Zm2,3.48a.5.5,0,0,1,.7.08,15.71,15.71,0,0,0,1.29,1.46.5.5,0,1,1-.7.71,16.83,16.83,0,0,1-1.38-1.55A.5.5,0,0,1,18.4,76.67Zm2.76,2.91a.5.5,0,0,1,.7-.09,15.25,15.25,0,0,0,1.61,1.08.5.5,0,1,1-.5.86,16.31,16.31,0,0,1-1.72-1.15A.5.5,0,0,1,21.16,79.58Zm3.4,2.13a.5.5,0,0,1,.66-.27,16.33,16.33,0,0,0,1.83.65.5.5,0,0,1-.14,1l-.14,0a17.34,17.34,0,0,1-1.95-.69A.5.5,0,0,1,24.55,81.71Zm8.3,1.09c.64,0,1.3-.06,2-.14a.5.5,0,0,1,.11,1c-.69.08-1.38.12-2,.14h0a.5.5,0,0,1,0-1ZM48,72.41a.5.5,0,0,1-.09-.7c.43-.57.86-1.1,1.28-1.59a.5.5,0,1,1,.75.66c-.41.47-.82,1-1.24,1.54a.5.5,0,0,1-.7.09Zm6.12-4.85a.5.5,0,0,1,.42-.57,13.64,13.64,0,0,1,2-.15l.07.5v.5a12.84,12.84,0,0,0-1.93.14H54.6A.5.5,0,0,1,54.11,67.55Zm4-.14a.5.5,0,0,1,.56-.43c.64.09,1.3.21,2,.37a.5.5,0,0,1-.11,1h-.11c-.69-.16-1.32-.28-1.93-.36A.5.5,0,0,1,58.11,67.42Zm6.34,2-.15,0-1.92-.57a.5.5,0,1,1,.28-1l1.93.58a.5.5,0,0,1-.15,1Zm1.44-.06a.5.5,0,0,1,.62-.34c.63.19,1.27.37,1.92.53a.5.5,0,0,1-.12,1l-.12,0c-.66-.17-1.31-.35-2-.54A.5.5,0,0,1,65.89,69.37Zm8.38,1.12c.63,0,1.27,0,1.93,0a.51.51,0,0,1,.54.47.48.48,0,0,1-.44.53l-1.1,0-1,0a.5.5,0,0,1-.48-.52A.48.48,0,0,1,74.27,70.49Zm15-10.38A18,18,0,0,0,90,58.27a.5.5,0,1,1,1,.29,19,19,0,0,1-.7,1.94.5.5,0,0,1-.92-.39ZM90.78,50a.5.5,0,0,1,.59.39,16.4,16.4,0,0,1,.27,2.05.5.5,0,0,1-.47.53h0a.5.5,0,0,1-.5-.47,15.23,15.23,0,0,0-.25-1.93A.5.5,0,0,1,90.78,50Zm.13,7h-.09a.5.5,0,0,1-.4-.58,16.2,16.2,0,0,0,.23-1.93.51.51,0,0,1,.53-.47.5.5,0,0,1,.47.53,17.29,17.29,0,0,1-.24,2.05A.5.5,0,0,1,90.91,57Zm-.39-8-.15,0a.5.5,0,0,1-.48-.35,15.82,15.82,0,0,0-.71-1.81.5.5,0,1,1,.91-.42,17.08,17.08,0,0,1,.76,1.92A.5.5,0,0,1,90.52,49ZM8.08,64.28c-1-3.41.12-6.85,3.3-10,4.94-4.81,9-11.23,9.45-14.92.2-1.64.57-5.75-.25-8.54a1.63,1.63,0,0,1,.21-1.6A2.88,2.88,0,0,1,23.48,29c13.34,3.26,21.11-1,28.63-5.16,4.59-2.53,8.92-4.92,14.43-5.46,15.83-1.55,22.32,7.62,25,15.58a14,14,0,0,1,.14,8.53c-4.13-6.93-11.77-9.81-23.56-9h0c-7.9.55-13,.71-16.38.81-7.6.23-7.72.27-12.91,3.58-2.52,1.61-6.33,4-13,7.73-10.38,5.73-15.56,13.34-15,21.77A5.33,5.33,0,0,1,8.08,64.28Z"></path></svg>