<svg xmlns:dc="http://purl.org/dc/elements/1.1/" xmlns:cc="http://creativecommons.org/ns#" xmlns:rdf="http://www.w3.org/1999/02/22-rdf-syntax-ns#" xmlns:svg="http://www.w3.org/2000/svg" xmlns="http://www.w3.org/2000/svg" xmlns:sodipodi="http://sodipodi.sourceforge.net/DTD/sodipodi-0.dtd" xmlns:inkscape="http://www.inkscape.org/namespaces/inkscape" viewBox="0 0 8.4666665 8.4666669" version="1.1" x="0px" y="0px"><g transform="translate(0,-288.53332)"><path style="" d="m 5.4722,288.93555 c -1.00195,0.48769 -1.49686,1.15344 -1.52136,1.98438 -0.39746,0.0403 -0.8233,0.12854 -1.16581,0.25011 0.20336,0.56402 0.44964,1.09758 0.74518,1.59577 0.22733,-0.91405 0.93072,-1.60349 2.07481,-1.91358 0.13552,-0.60312 0.0825,-1.24376 -0.13282,-1.91668 z" fill="#000000" fill-opacity="1" stroke="none"></path><path style="" d="m 5.85772,291.06152 c -1.30741,0.28623 -1.98869,1.02229 -2.12185,2.03398 0.0839,0.12773 0.1706,0.25343 0.26149,0.37621 l 0.4713,-0.48525 a 0.1323049,0.1323049 0 0 1 0,-0.002 c 0.19166,-0.1917 0.44487,-0.28681 0.6971,-0.28681 0.2522,0 0.50389,0.0951 0.69556,0.28681 0.37719,0.37714 0.4382,0.99074 0.0506,1.37717 l -0.54724,0.54726 c 0.24202,0.19907 0.49837,0.38766 0.7705,0.56482 l 1.36477,-1.25108 -0.50644,-0.85525 c -0.50665,-0.8554 -0.54271,-1.72344 -1.13583,-2.3058 z" fill="#000000" fill-opacity="1" stroke="none"></path><path style="" d="m 2.53543,291.26667 c -0.79423,0.33476 -1.18605,0.62965 -1.92186,1.2423 -0.12771,0.11159 -0.25209,0.22612 -0.37362,0.34365 l 3.31661,3.74241 c -0.0151,-0.0492 -0.0296,-0.0985 -0.0434,-0.14831 -0.055,-0.19893 -0.0997,-0.40237 -0.1297,-0.61288 -0.0601,-0.42101 -0.0606,-0.87102 0.0382,-1.3746 0.50786,0.66753 1.20792,1.15921 2.45049,1.15497 -1.61169,-1.08613 -2.69566,-2.57073 -3.33674,-4.34754 z" fill="#000000" fill-opacity="1" stroke="none"></path><path style="" d="m 5.16525,292.96063 c -0.18383,0 -0.3679,0.0702 -0.50903,0.21135 l -0.49556,0.51108 c 0.29847,0.3767 0.63145,0.72875 1.0015,1.05369 l 0.5643,-0.56276 c 0.27903,-0.2782 0.23577,-0.71358 -0.0527,-1.00201 -0.14108,-0.14116 -0.32464,-0.21135 -0.50848,-0.21135 z" fill="#000000" fill-opacity="1" stroke="none"></path><path style="" d="m 7.63847,294.45563 -1.49447,1.36942 0.54001,0.5395 c 0.31097,0.31094 0.81148,0.31094 1.12242,0 l 0.18706,-0.18707 c 0.31096,-0.31094 0.31096,-0.81146 0,-1.12241 z" fill="#000000" fill-opacity="1" stroke="none"></path></g></svg>