<svg xmlns="http://www.w3.org/2000/svg" xmlns:xlink="http://www.w3.org/1999/xlink" version="1.1" x="0px" y="0px" viewBox="0 0 32 32" enable-background="new 0 0 32 32" xml:space="preserve"><path d="M7.805,16.181C6.45,16.5,5.379,17.585,5.076,18.943c-0.081,0.364,0.148,0.725,0.513,0.807  c0.049,0.01,0.099,0.016,0.147,0.016c0.31,0,0.588-0.215,0.658-0.529c0.19-0.856,0.865-1.54,1.721-1.742  c0.362-0.085,0.587-0.448,0.501-0.812C8.531,16.32,8.167,16.095,7.805,16.181z"></path><path d="M27.864,15.601c-1.384-2.032-4.381-6.394-5.549-7.812c-1.541-1.873-2.952-1.763-4.395-1.542s-0.645,2.863,1.27,2.974  s2.391,1.212,3.693,2.975c0.364,0.492,0.74,1,1.066,1.443c-0.195-0.02-0.395-0.03-0.596-0.03c-2.271,0-4.253,1.244-5.313,3.083  h-4.083c-1.06-1.839-3.042-3.083-5.313-3.083c-0.201,0-0.399,0.011-0.597,0.03c0.327-0.443,0.703-0.951,1.067-1.443  c1.302-1.763,1.779-2.864,3.693-2.975s2.712-2.753,1.269-2.974c-1.442-0.221-2.853-0.331-4.395,1.542  C8.517,9.208,5.52,13.57,4.136,15.601c-1.003,1.093-1.621,2.544-1.621,4.14c0,3.381,2.751,6.131,6.132,6.131s6.131-2.75,6.131-6.131  c0-0.428-0.044-0.846-0.128-1.248h2.702c-0.084,0.402-0.129,0.82-0.129,1.248c0,3.381,2.751,6.131,6.132,6.131  s6.131-2.75,6.131-6.131C29.485,18.144,28.868,16.691,27.864,15.601z M8.646,24.071c-2.389,0-4.332-1.942-4.332-4.331  s1.943-4.332,4.332-4.332c2.388,0,4.331,1.943,4.331,4.332S11.034,24.071,8.646,24.071z M23.354,24.071  c-2.389,0-4.332-1.942-4.332-4.331s1.943-4.332,4.332-4.332s4.331,1.943,4.331,4.332S25.743,24.071,23.354,24.071z"></path><path d="M22.513,16.181c-1.354,0.319-2.426,1.404-2.729,2.763c-0.08,0.364,0.148,0.725,0.513,0.807  c0.05,0.01,0.099,0.016,0.147,0.016c0.31,0,0.588-0.215,0.658-0.529c0.19-0.856,0.865-1.54,1.721-1.742  c0.362-0.085,0.588-0.448,0.502-0.812C23.239,16.32,22.874,16.095,22.513,16.181z"></path></svg>