<svg xmlns="http://www.w3.org/2000/svg" xmlns:xlink="http://www.w3.org/1999/xlink" xml:space="preserve" version="1.1" style="shape-rendering:geometricPrecision;text-rendering:geometricPrecision;image-rendering:optimizeQuality;" viewBox="0 0 1.901 0.677" x="0px" y="0px" fill-rule="evenodd" clip-rule="evenodd"><defs><style type="text/css">
   
    .fil0 {fill:#000000}
   
  </style></defs><g><path class="fil0" d="M1.153 0.329c0.084,-0.144 0.329,-0.168 0.458,-0.054 -0.026,0.101 -0.156,0.179 -0.236,0.179 -0.081,0 -0.171,-0.037 -0.222,-0.125zm0.735 -0.189c-0.142,-0.1 -0.324,-0.143 -0.495,-0.14 -0.177,0.003 -0.343,0.054 -0.442,0.14 -0.099,-0.086 -0.266,-0.137 -0.442,-0.14 -0.172,-0.003 -0.355,0.04 -0.497,0.141 -0.008,0.006 -0.012,0.014 -0.012,0.023 0,0.13 0.07,0.252 0.169,0.345 0.109,0.102 0.253,0.168 0.377,0.168 0.083,0 0.161,-0.016 0.231,-0.045 0.064,-0.027 0.122,-0.065 0.174,-0.113 0.052,0.048 0.11,0.086 0.173,0.113 0.071,0.029 0.148,0.045 0.231,0.045 0.125,0 0.269,-0.066 0.377,-0.168 0.099,-0.093 0.169,-0.215 0.169,-0.345 0,-0.01 -0.005,-0.019 -0.013,-0.024zm-1.598 0.135c0.129,-0.114 0.375,-0.09 0.458,0.054 -0.05,0.088 -0.141,0.125 -0.221,0.125 -0.081,0 -0.21,-0.078 -0.237,-0.179z"></path></g></svg>