<?xml version="1.0" encoding="UTF-8" standalone="no"?>
<svg
   xmlns:dc="http://purl.org/dc/elements/1.1/"
   xmlns:cc="http://creativecommons.org/ns#"
   xmlns:rdf="http://www.w3.org/1999/02/22-rdf-syntax-ns#"
   xmlns:svg="http://www.w3.org/2000/svg"
   xmlns="http://www.w3.org/2000/svg"
   xmlns:sodipodi="http://sodipodi.sourceforge.net/DTD/sodipodi-0.dtd"
   xmlns:inkscape="http://www.inkscape.org/namespaces/inkscape"
   version="1.1"
   x="0px"
   y="0px"
   viewBox="0 0 100 100"
   style="enable-background:new 0 0 100 100;"
   xml:space="preserve"
   id="svg6"
   sodipodi:docname="eyes_mask_plague.svg"
   inkscape:version="1.0.1 (3bc2e813f5, 2020-09-07)"><style
     id="style837"></style><metadata
     id="metadata12"><rdf:RDF><cc:Work
         rdf:about=""><dc:format>image/svg+xml</dc:format><dc:type
           rdf:resource="http://purl.org/dc/dcmitype/StillImage" /></cc:Work></rdf:RDF></metadata><defs
     id="defs10" /><sodipodi:namedview
     pagecolor="#ffffff"
     bordercolor="#666666"
     borderopacity="1"
     objecttolerance="10"
     gridtolerance="10"
     guidetolerance="10"
     inkscape:pageopacity="0"
     inkscape:pageshadow="2"
     inkscape:window-width="1784"
     inkscape:window-height="962"
     id="namedview8"
     showgrid="false"
     inkscape:zoom="1.5026019"
     inkscape:cx="-140.92213"
     inkscape:cy="93.766404"
     inkscape:window-x="0"
     inkscape:window-y="0"
     inkscape:window-maximized="0"
     inkscape:current-layer="svg6" /><path
     id="path2"
     d="M 59.011719 24.130859 C 56.988037 24.152612 54.849609 24.275 52.599609 24.5 C 37.999609 25.9 32.699609 33.199609 32.599609 39.599609 C 32.499609 43.899609 34.8 47.7 38 49.5 C 36.7 50.4 35.099219 51.300391 33.199219 51.900391 C 17.999219 57.000391 13.1 66.600391 11.5 71.900391 C 11.5 72.000391 11.500391 71.999609 11.400391 72.099609 C 11.200391 72.999609 11.699609 73.899609 12.599609 74.099609 C 12.699609 74.099609 12.9 74.199219 13 74.199219 C 13.7 74.199219 14.399609 73.7 14.599609 73 L 14.599609 72.900391 C 14.799609 72.400391 18.699219 64.699609 48.699219 66.099609 C 62.099219 66.799609 72 63.899219 78 57.699219 C 84.6 50.999219 84.500781 42.800391 84.300781 40.400391 C 84.100781 37.400391 82.900781 33 78.800781 29.5 C 74.413281 25.84375 67.781006 24.036597 59.011719 24.130859 z M 45.400391 35.800781 C 45.300391 37.300781 44.800781 40.200781 43.300781 43.300781 C 42.100781 42.500781 41.400391 41.300391 41.400391 39.900391 C 41.400391 37.800391 43.200391 36.100781 45.400391 35.800781 z M 63.800781 37.099609 C 66.700781 37.099609 69.099609 39.500391 69.099609 42.400391 C 69.099609 45.300391 66.700781 47.699219 63.800781 47.699219 C 60.900781 47.699219 58.5 45.300391 58.5 42.400391 C 58.5 39.500391 60.900781 37.099609 63.800781 37.099609 z " /></svg>
