<?xml version="1.0" encoding="UTF-8" standalone="no"?>
<svg
   xmlns:dc="http://purl.org/dc/elements/1.1/"
   xmlns:cc="http://creativecommons.org/ns#"
   xmlns:rdf="http://www.w3.org/1999/02/22-rdf-syntax-ns#"
   xmlns:svg="http://www.w3.org/2000/svg"
   xmlns="http://www.w3.org/2000/svg"
   xmlns:sodipodi="http://sodipodi.sourceforge.net/DTD/sodipodi-0.dtd"
   xmlns:inkscape="http://www.inkscape.org/namespaces/inkscape"
   viewBox="0 0 500 500"
   version="1.1"
   x="0px"
   y="0px"
   id="svg6"
   sodipodi:docname="feet_sandals.svg"
   inkscape:version="1.0.1 (3bc2e813f5, 2020-09-07)">
  <style
     id="style837"></style>
  <metadata
     id="metadata12">
    <rdf:RDF>
      <cc:Work
         rdf:about="">
        <dc:format>image/svg+xml</dc:format>
        <dc:type
           rdf:resource="http://purl.org/dc/dcmitype/StillImage" />
      </cc:Work>
    </rdf:RDF>
  </metadata>
  <defs
     id="defs10" />
  <sodipodi:namedview
     pagecolor="#ffffff"
     bordercolor="#666666"
     borderopacity="1"
     objecttolerance="10"
     gridtolerance="10"
     guidetolerance="10"
     inkscape:pageopacity="0"
     inkscape:pageshadow="2"
     inkscape:window-width="820"
     inkscape:window-height="480"
     id="namedview8"
     showgrid="false"
     inkscape:zoom="0.60104076"
     inkscape:cx="168.14184"
     inkscape:cy="263.93167"
     inkscape:window-x="0"
     inkscape:window-y="0"
     inkscape:window-maximized="0"
     inkscape:current-layer="svg6" />
  <g
     id="g4"
     transform="matrix(-1,0,0,1,500.36463,0)">
    <path
       fill="#000000"
       opacity="1"
       d="m 213.03,156.02 c 22.66,9.32 45.31,18.65 67.97,27.99 -4.66,21.82 -10.4,43.42 -17.5,64.58 -7.87,22.78 -17.62,44.9 -28.49,66.4 23.99,1.03 47.98,1.99 71.98,3.02 10.49,-7.69 20.37,-16.84 26.62,-28.41 6.96,-13.66 7.54,-29.67 5.42,-44.6 21.61,4.09 43.3,7.83 64.86,12.1 9.45,5.6 17,15.06 19.25,25.93 0.94,4.09 -0.01,8.28 -1.06,12.24 -2.23,7.87 -5.55,15.37 -9.07,22.73 20.38,-2.71 40.73,-5.62 61.12,-8.22 3.35,-0.6 5.72,3.18 5.16,6.14 -0.68,3.71 -1.56,7.39 -2.3,11.09 -18.13,4.49 -36.4,8.49 -54.81,11.68 -14.62,2.45 -29.36,4.57 -44.22,4.62 -29.65,0.19 -59.29,-1.2 -88.9,-2.75 -48.04,-2.59 -96.07,-5.51 -144.05,-9.05 -0.18,2.49 -0.34,4.99 -0.51,7.49 -34.85,-0.79 -69.69,-1.65 -104.54,-2.53 -4.98,-0.19 -10.37,-0.84 -14.36,-4.11 -1.92,-1.51 -2.97,-3.85 -3.19,-6.25 -0.79,-6.35 -1.8,-12.75 -1.27,-19.16 0.04,-2.28 1.7,-4.34 3.96,-4.74 2.63,-0.44 5.31,-0.07 7.96,0 37.31,1.62 74.61,3.18 111.92,4.8 1.24,-11.15 0.73,-22.86 -3.78,-33.28 -2.18,-5.07 -5.68,-9.5 -10,-12.92 C 116.89,249.04 101.05,239.3 84.95,230.19 68.03,220.7 50.67,212 33.01,203.99 37,193.33 40.99,182.67 45,172.02 c 15.76,8.6 32.23,15.9 49.2,21.74 16.1,5.46 32.79,9.58 49.82,10.46 5.85,0.19 11.76,0.17 17.53,-0.92 9.68,-2.05 18.19,-7.67 25.48,-14.17 10.46,-9.47 18.92,-20.96 26,-33.11 z"
       id="path2" />
  </g>
</svg>
