<svg xmlns="http://www.w3.org/2000/svg" xmlns:xlink="http://www.w3.org/1999/xlink" version="1.1" x="0px" y="0px" viewBox="0 0 100 100" style="enable-background:new 0 0 100 100;" xml:space="preserve"><style type="text/css">
	.st0{fill:#000000;}
</style><ellipse transform="matrix(0.9815 0.1916 -0.1916 0.9815 6.2693 -5.499)" class="st0" cx="31.6" cy="29.7" rx="19.3" ry="9.9"></ellipse><polygon class="st0" points="9.5,32.8 4.5,36.2 7.9,41.2 "></polygon><path class="st0" d="M49.2,41.7c0.3-1.7,0.7-3.4,0.9-4.8c-2.3,4.2-11.4,5.8-20.8,4C19.9,39,12.1,34,11.6,29.1  c-1,4.9-2.5,13-3.3,16.9c-1,5.4,6.9,11.4,17.4,13.5c10.5,2,20.1-0.6,21.2-5.9c0-0.1,0.1-0.3,0.1-0.4c-2.7-1-4.3-3.8-3.8-6.7  C43.7,43.6,46.3,41.6,49.2,41.7z M23.9,44.9l0.6,1l-1.1,5.8l-1,0.6L23.9,44.9z M30.8,53.9l-0.6-1l1.1-5.8l1-0.7L30.8,53.9z   M27.4,49.4l3.4,5l-8.4-1.6L27.4,49.4l-3.4-5l8.4,1.6L27.4,49.4z"></path><path class="st0" d="M91.3,73.5l-3.5-1.1c-1.7-0.5-3.4,0-4.7,1.2l-3-1.9c0.6-1.4,0.7-3-0.2-4.4l-1.9-3.1c-1.4-2.2-4.4-2.8-6.6-1.5  l-2.2-3.2c0.5-0.6,0.8-1.2,1-1.9c0.5-1.5,0.3-3.2-0.8-4.5l-2.3-2.7c-1.7-1.9-4.7-2.1-6.8-0.3c-0.2,0.1-0.3,0.3-0.4,0.4l-3.2-1.5  c0-0.1,0-0.2,0.1-0.3c0.4-2.5-1.3-5-3.8-5.4l-3.5-0.7c-2.6-0.4-4.9,1.5-5.3,4c-0.4,2.5,1.3,5,3.8,5.5l3.5,0.6  c1.7,0.3,3.3-0.4,4.3-1.7l3,1.3c-0.5,1.5-0.2,3.2,0.9,4.4l2.3,2.8c0.8,1,2,1.4,3.2,1.5c0.7,0.1,1.5,0,2.2-0.3l2.4,3.5  c-1,1.5-1.1,3.4-0.1,5l1.8,3.1c1.4,2.2,4.4,2.8,6.6,1.4c0.2-0.1,0.4-0.3,0.6-0.5l3,1.9c0,0.1-0.1,0.2-0.1,0.3c-0.8,2.5,0.5,5.2,3,6  l3.5,1.2c2.5,0.8,5.2-0.8,6-3.3C95.1,77,93.8,74.2,91.3,73.5z M55.1,48.4c-1.8-0.8-2.3-0.4-2.5,0c-0.2,0.5-0.2,1,1.6,1.9  c-0.6,0.6-1.5,0.9-2.4,0.8l-3.5-0.6c-1.5-0.2-2.6-1.9-2.3-3.4c0.3-1.5,1.7-2.7,3.3-2.4l3.5,0.5C54.3,45.4,55.3,46.9,55.1,48.4z   M68.2,57.9c-1.1-1.3-1.6-1.3-2-1c-0.4,0.3-0.6,0.7,0.2,2.2c-1,0.2-2.1-0.1-2.8-0.9l-2.3-2.7c-0.6-0.7-0.7-1.5-0.5-2.3  c1.7,0.7,2.1,0.3,2.3-0.1c0.2-0.5,0.1-0.9-1.2-1.7c1.1-0.9,2.9-0.8,3.9,0.2c0,0,0.1,0.1,0.1,0.1l2.4,2.8c0.6,0.8,0.9,1.8,0.6,2.7  C68.8,57.2,68.6,57.6,68.2,57.9z M78.6,70.7c-1.6-0.9-2.1-0.7-2.4-0.2c-0.3,0.4-0.3,0.9,0.9,1.9c-1.3,0.8-3.2,0.4-3.9-0.9l-2-3.1  c-0.4-0.7-0.5-1.6-0.2-2.5c0.9,0.9,1.3,0.9,1.6,0.6c0.4-0.3,0.6-0.7-0.2-2.2c1.4-0.8,3.2-0.4,4,0.9l1.9,3.1  C78.9,69,78.9,69.9,78.6,70.7z M92.5,79c-0.5,1.5-2.2,2.5-3.7,2l-3.5-1c-1.5-0.5-2.2-2.1-1.8-3.6c1.8,1,2.3,0.8,2.6,0.3  c0.3-0.4,0.3-1-1.3-2.1c0.7-0.5,1.6-0.7,2.5-0.5l3.4,1.1C92.3,75.7,93.1,77.5,92.5,79z"></path></svg>