<svg xmlns="http://www.w3.org/2000/svg" viewBox="0 0 512 512" x="0px" y="0px"><title>equipment wizard boot</title><path d="M228.36,31.12c-7.31,16.06-23.43,52.93-33.31,86.49a12.69,12.69,0,0,0,1.53,10.56c4.11,6.21,13,17.25,30.49,29.63a14.17,14.17,0,0,0,21.46-6.7c5.06-13.74,12.92-33.16,21.43-47.26a5.16,5.16,0,0,1,9.24.84c6,15.8,19,48,31,67.83a14.22,14.22,0,0,0,13.4,6.77c22-1.94,81.77-11.71,125.25-60.88a12.68,12.68,0,0,0-.31-17l-14-15A31.7,31.7,0,0,1,426,64.72V36.46a10.57,10.57,0,0,0-12.91-10.31c-28.49,6.46-100,18.64-172.4-.82A10.54,10.54,0,0,0,228.36,31.12Z"></path><path d="M63.78,417.16c13.15,16.28,45.08,51.77,84.56,67.07a22.91,22.91,0,0,0,15.26.45c21.83-7,88.78-27.06,136.57-27a18.86,18.86,0,0,1,12.82,5,86.39,86.39,0,0,1,14.41,17.07A15.13,15.13,0,0,0,340.23,487h54.55a14.89,14.89,0,0,0,12.47-6.69c10.45-15.93,29.91-60.05-12-128.9a6.52,6.52,0,0,0-10.5-.9,94.8,94.8,0,0,1-13.67,13.22,10.17,10.17,0,0,1-14.34-1.88,10.34,10.34,0,0,1,2-14.27,77.84,77.84,0,0,0,12.24-12.24,91.35,91.35,0,0,0,16.57-32.19c7.88-27,19.89-72.22,27.26-119.39a6.61,6.61,0,0,0-9.47-7,226.87,226.87,0,0,1-79.86,22.69c-1,.09-2,.13-3.05.13a34.77,34.77,0,0,1-29.5-16.57,280.87,280.87,0,0,1-14.05-26.79,5.81,5.81,0,0,0-10.71.44c-.08.21-.16.42-.23.64C263.65,168.8,254,177.61,242.09,180c-.59.12-1.19.23-1.78.31A12.62,12.62,0,0,0,229.76,196c10.4,38.78,21.76,89,25.05,133A32.91,32.91,0,0,1,247,352.91c-13.41,15.63-42,43.64-81.9,53.88a22.71,22.71,0,0,1-17.2-2.45,75.46,75.46,0,0,1-17.66-14.11,13.09,13.09,0,0,1-1.72-15c3-5.45,7.43-12.72,12.33-17.72a12.91,12.91,0,0,1,8.73-3.78c3.17-.11,7.72-.26,12.64-.37a5,5,0,0,0,3.25-8.74c-7.05-6.3-17.86-14.6-30.46-19.72a17.13,17.13,0,0,0-17.89,3.25C104.2,339.81,77.86,366,61.71,398.91A17.08,17.08,0,0,0,63.78,417.16Z"></path></svg>