<svg xmlns="http://www.w3.org/2000/svg" viewBox="0 0 512 512" x="0px" y="0px"><title>equipment leg armor</title><path d="M203.63,57.16A13.82,13.82,0,0,0,215,68.36h221.7a13.82,13.82,0,0,0,11.4-11.2l3.05-17a13.82,13.82,0,0,0-13.61-16.27H214.19A13.83,13.83,0,0,0,200.58,40.2Z"></path><path d="M414.78,191.43l9.58-90.5a11.07,11.07,0,0,0-11-12.23H238.43a11.06,11.06,0,0,0-11,12.23l9.57,90.5a11.08,11.08,0,0,0,11,9.91H403.78A11.06,11.06,0,0,0,414.78,191.43Z"></path><path d="M252.49,221.68a11.07,11.07,0,0,0-11,12.23L246,276.76a11.06,11.06,0,0,0,11,9.9H392.25a13.86,13.86,0,0,0,13.8-12.42l4.24-40.33a11.06,11.06,0,0,0-11-12.23Z"></path><path d="M84.43,488.07h78.08a9,9,0,0,0,9-9V332a9,9,0,0,0-12.46-8.3c-43.92,18.65-89.23,57.41-98.3,137.78A23.88,23.88,0,0,0,84.43,488.07Z"></path><path d="M200.82,488.07H421.91a18.62,18.62,0,0,0,18.63-18c.86-27.69-1.77-84-29.69-146.26-.38-.86-.75-1.73-1.1-2.61A22.28,22.28,0,0,0,389.13,307H237.67a150.21,150.21,0,0,0-16,.84c-6.72.72-14.37,1.83-22.61,3.52a9,9,0,0,0-7.22,8.81V479.09A9,9,0,0,0,200.82,488.07Zm174.46-55.7a10.65,10.65,0,0,1,1.55-1.26,10.34,10.34,0,0,1,3.65-1.51,10.25,10.25,0,0,1,4,0,9.7,9.7,0,0,1,1.9.58,10.57,10.57,0,0,1,1.76.93,11.74,11.74,0,0,1,1.54,1.26,10.29,10.29,0,0,1,3,7.19,9.62,9.62,0,0,1-.2,2,9.73,9.73,0,0,1-.59,1.9,9.58,9.58,0,0,1-.93,1.76,9.74,9.74,0,0,1-1.26,1.54,9.22,9.22,0,0,1-1.54,1.26,11.42,11.42,0,0,1-1.76.94,10.4,10.4,0,0,1-1.9.57,8.9,8.9,0,0,1-2,.2,9,9,0,0,1-2-.2,9.87,9.87,0,0,1-3.65-1.51,8.54,8.54,0,0,1-1.55-1.26,9.81,9.81,0,0,1-2.2-3.3,9.7,9.7,0,0,1-.58-1.9,10.15,10.15,0,0,1,2.78-9.19Zm-71.37,5.2a10.6,10.6,0,0,1,.58-1.9,9.42,9.42,0,0,1,.94-1.74,9.56,9.56,0,0,1,1.26-1.56,11.84,11.84,0,0,1,1.55-1.26,10.57,10.57,0,0,1,1.76-.93,9.81,9.81,0,0,1,1.89-.58,10.25,10.25,0,0,1,4,0,9.7,9.7,0,0,1,1.9.58,10.57,10.57,0,0,1,1.76.93,11.12,11.12,0,0,1,1.54,1.26,9.61,9.61,0,0,1,1.27,1.56,10,10,0,0,1,.93,1.74,10.6,10.6,0,0,1,.58,1.9,10.05,10.05,0,0,1,0,4,9.7,9.7,0,0,1-.58,1.9,11,11,0,0,1-.93,1.76,10.4,10.4,0,0,1-1.27,1.54,9.85,9.85,0,0,1-1.54,1.26,11.42,11.42,0,0,1-1.76.94,9,9,0,0,1-1.9.57,8.84,8.84,0,0,1-2,.2A10.33,10.33,0,0,1,310,449a11.42,11.42,0,0,1-1.76-.94,9.86,9.86,0,0,1-2.81-2.8,10.28,10.28,0,0,1-.94-1.76,9.7,9.7,0,0,1-.58-1.9,10.05,10.05,0,0,1,0-4Zm-69.25,0a10.6,10.6,0,0,1,.58-1.9,9.7,9.7,0,0,1,.93-1.74,10.74,10.74,0,0,1,1.26-1.56,10.27,10.27,0,0,1,9.18-2.77,9.59,9.59,0,0,1,1.91.58,11,11,0,0,1,1.76.93,11.74,11.74,0,0,1,1.54,1.26,9.56,9.56,0,0,1,1.26,1.56,11.21,11.21,0,0,1,.94,1.74,11.43,11.43,0,0,1,.57,1.9,9.08,9.08,0,0,1,.2,2,10.17,10.17,0,1,1-20.34,0A10.52,10.52,0,0,1,234.66,437.57Z"></path></svg>