<svg xmlns="http://www.w3.org/2000/svg" viewBox="0 0 512 512" x="0px" y="0px"><title>equipment wing boot</title><path d="M399.25,467.07a8.29,8.29,0,0,0-10.59-9q-2.64.81-5.37,1.48a102,102,0,0,1-24.51,3c-45.37,0-85-30.13-96.35-73.26-.28-1-.53-2.06-.77-3.09a97.63,97.63,0,0,1,18.77-82.92c29.33-37.24,66.74-68.09,100.83-92.22a17.62,17.62,0,0,0,7.44-13.61c1.13-25.85,3.13-53.12,6.46-79.85a10.78,10.78,0,0,0-10.69-12.11H229.41a10.79,10.79,0,0,0-10.53,13.13c10.5,47.49,19.17,108.35,15.6,171.83,0,0-3.56,48.42-59.82,54.12,0,0-137.83,9.27-129.45,143.5h349.5S397.39,481.56,399.25,467.07Z"></path><path d="M378.1,311.51c23.19-19.63,69.46-51.89,81.42-68.91,3.46-4.93,4.89-13.18,7.05-22.14,4.16-17.36-14.69-31.11-29.84-21.67-39,24.27-98.38,63.82-140.32,117.08a77.85,77.85,0,0,0-14.94,65.71c.19.84.4,1.68.63,2.53,11,41.83,54.31,66.1,96.3,55.7,17.29-4.29,36.09-14.12,48.61-35.49a60.34,60.34,0,0,0,7.74-24.17,8.87,8.87,0,0,0-13.92-8.2c-10.29,7.19-21.06,15.2-29.74,22.73a10.17,10.17,0,0,1-13.33-15.37c12.95-11.22,29.77-23.13,43.49-32.32a71.1,71.1,0,0,0,30.2-45.21l.18-.88a10.45,10.45,0,0,0-16.91-10.1c-15.88,13.13-32.37,26.84-43.73,36.44a10.16,10.16,0,0,1-15.07-2.18A10.38,10.38,0,0,1,378.1,311.51Z"></path><path d="M397.33,23.93H209.48A12.9,12.9,0,0,0,197.27,41c3,8.84,6.89,20.85,11,35.4a12,12,0,0,0,11.53,8.74H390a12,12,0,0,0,11.75-9.75c2.32-12.15,5-24,8.06-35.19A12.9,12.9,0,0,0,397.33,23.93Z"></path></svg>