<svg version="1.1" viewBox="0 0 512 512" xmlns="http://www.w3.org/2000/svg">
 <title>equipment boot</title>
 <path d="m495.8 441.12h-138.77c-50.733 0-77.893-31.329-109.35-67.601-25.184-29.051-53.719-61.949-101.01-86.709-41.622-21.81-127.49-56.964-128.35-57.303-2.4066-0.98843-4.3835-2.8149-5.5438-5.1356-22.67-45.339-1.4612-130.47 24.174-156.11 2.6645-2.686 6.5753-3.7389 10.207-2.8364 92.569 23.164 154.69 45.103 198.38 88.788 18.437 18.437 32.645 43.47 47.676 69.964 21.343 37.577 43.384 76.432 79.612 100.58 17.733 11.818 40.145 15.815 61.799 19.747 27.311 4.9207 53.182 9.5406 66.612 29.911 9.1968 13.881 10.83 32.989 5.0067 58.382-1.0636 4.8509-5.431 8.3158-10.438 8.3158z" style="stroke-width:5.3719"/>
 <path d="m136.71 305.82c-29.653-15.541-83.394-38.447-110.25-49.701 9.5836 37.727 16.094 103.95 16.094 174.26 0 5.9091 4.8133 10.744 10.744 10.744h44.995c5.9306 0 10.744-4.8348 10.744-10.744 0-62.164 17.19-93.864 44.63-114.77-5.3934-3.3736-11.002-6.6397-16.954-9.7931z" style="stroke-width:5.3719"/>
</svg>
