<svg xmlns="http://www.w3.org/2000/svg" viewBox="0 0 512 512" x="0px" y="0px"><title>equipment silmple leg armor</title><path d="M320.37,23.93H251.62a11.82,11.82,0,0,0-11.75,13.16c3,25.95,10.82,87.19,25.55,155.93,0,0,19,75.72-1.39,126.65a11,11,0,0,0,4.4,13.34c6.51,4.16,14.3,9.59,18.2,13.09A99.53,99.53,0,0,1,302.72,365c8.07,12.12,31.45,40.16,73.91,38.55a222.58,222.58,0,0,1,36,1.44,7,7,0,0,0,7.65-8.58c-1.88-7.89-4-16.09-6.4-24.53a356.78,356.78,0,0,1-8.61-38.23,32.92,32.92,0,0,0-11.62-19.83,184.88,184.88,0,0,1-42-50.16,158.9,158.9,0,0,1-21.1-79.54v-150A10.2,10.2,0,0,0,320.37,23.93Z"></path><path d="M131.11,417.1c1.95,2.18,4.1,4.39,6.5,6.62,15.79,14.72,22.5,36.87,25,57.31a8.07,8.07,0,0,0,8,7H222a8.09,8.09,0,0,0,8.1-8.69c-1.44-18.32-6.28-38.72-19.37-50.91-13.26-12.35-20.88-24.65-25.21-35.32a6.68,6.68,0,0,0-8.85-3.62c-13.62,6-28.05,11.73-42.7,16.78A6.69,6.69,0,0,0,131.11,417.1Z"></path><path d="M361.12,23.93a10.21,10.21,0,0,0-10.21,10.2v150a138.56,138.56,0,0,0,18.36,69.35,171.57,171.57,0,0,0,21,29,5.8,5.8,0,0,0,10.09-4,349.86,349.86,0,0,1,23-128.62c.65-1.72,1.32-3.44,2-5.18,0,0,29.49-66.17,22.79-110.55a11.88,11.88,0,0,0-11.72-10.19Z"></path><path d="M203.56,383.75c3.17,8.49,9.3,18.95,21,29.84,18.32,17.07,24.42,44.13,25.94,66.93a8.09,8.09,0,0,0,8.09,7.55H419.91a13.6,13.6,0,0,0,13.55-15c-.84-8.34-2.24-19.82-4.5-33.6A16.45,16.45,0,0,0,415.3,425.9a195.19,195.19,0,0,0-37.91-2c-1.4,0-2.8.08-4.18.08-51.56,0-79.84-36.31-87.42-47.69a79,79,0,0,0-12.75-15,69.37,69.37,0,0,0-9.79-7.36,14.67,14.67,0,0,0-14.86-.35c-9.48,5.26-27,14.85-41.49,22A6.66,6.66,0,0,0,203.56,383.75Z"></path><path d="M133.83,488.07a8.12,8.12,0,0,0,8-9.37c-2.37-15.11-7.56-30.27-18.11-40.1a112.4,112.4,0,0,1-15.08-17.05,6.71,6.71,0,0,0-8.93-1.8,78.49,78.49,0,0,0-29.58,31.43,76.14,76.14,0,0,0-7.06,20.69,13.64,13.64,0,0,0,13.37,16.2Z"></path></svg>