<svg version="1.1" viewBox="0 0 512 512" xmlns="http://www.w3.org/2000/svg">
 <title>equipment wizard cover</title>
 <g transform="matrix(6.4703 0 0 6.4703 -35.147 -33.48)">
  <path d="m30.308 38.532c-1.28-0.483-3.696-0.319-3.906 0.232-0.188 0.495 1.33 2.705 2.61 3.19 1.279 0.483 2.709 0.044 3.066-0.902 0.359-0.943-0.492-2.034-1.77-2.52z"/>
  <path d="m29.588 33.563c-1.363 0.133-3.406 1.864-3.355 2.394 0.057 0.587 2.346 1.381 3.707 1.249 1.361-0.133 2.469-0.964 2.37-1.968-0.095-1.008-1.361-1.806-2.722-1.675z"/>
  <path d="m22.889 28.34c-0.969 0.281-1.33 1.617-0.947 2.932 0.383 1.313 1.968 3.145 2.534 2.98 0.509-0.15 1.36-2.691 0.979-4.007-0.385-1.311-1.596-2.19-2.566-1.905z"/>
  <path d="m22.334 36.075c0.434-0.398-0.309-2.704-1.232-3.714-0.925-1.007-2.254-1.392-2.998-0.709-0.746 0.683-0.623 2.174 0.299 3.182 0.925 1.01 3.54 1.6 3.931 1.241z"/>
  <path d="m21.838 38.187c-0.379-0.371-3.012 0.122-3.975 1.097-0.959 0.975-1.135 2.46-0.414 3.17 0.719 0.71 2.061 0.374 3.021-0.602 0.961-0.974 1.786-3.251 1.368-3.665z"/>
  <path d="m24.474 39.166c-0.56-0.184-2.21 1.589-2.64 2.887-0.431 1.299-0.118 2.646 0.84 2.963 0.961 0.319 2.203-0.515 2.633-1.813 0.429-1.3-0.33-3.871-0.833-4.037z"/>
  <path d="m40.105 50.725c-0.938-0.357-2.035 0.379-2.53 1.526s-0.354 3.358 0.194 3.565c0.492 0.188 2.712-1.118 3.208-2.27 0.496-1.148 0.071-2.467-0.872-2.821z"/>
  <path d="m34.305 50.314c-1.006 0.054-1.815 1.179-1.696 2.422 0.119 1.246 1.831 3.168 2.357 3.14 0.585-0.032 1.398-2.092 1.28-3.335-0.119-1.244-0.937-2.282-1.941-2.227z"/>
  <path d="m29.477 55.574c-1.352 0.136-2.394 1.085-2.254 2.003 0.138 0.914 1.403 1.45 2.756 1.313 1.353-0.138 3.391-1.272 3.311-1.807-0.075-0.479-2.459-1.645-3.813-1.509z"/>
  <path d="m55.148 66.408c-1.067-0.579-3.348-0.877-3.676-0.51-0.297 0.332 0.572 2.221 1.644 2.8 1.067 0.579 2.502 0.504 3.062-0.128 0.563-0.632 0.04-1.582-1.03-2.162z"/>
  <path d="m52.001 63.805c-0.092 0.442 1.838 1.424 3.133 1.563 1.296 0.141 2.523-0.277 2.679-1.032 0.155-0.758-0.82-1.566-2.117-1.706s-3.613 0.776-3.695 1.175z"/>
  <path d="m50.786 62.245c0.508-0.021 1.918-1.741 1.885-2.772-0.037-1.031-0.944-1.889-1.914-1.85-0.969 0.038-1.627 0.958-1.596 1.99 0.034 1.033 1.064 2.655 1.625 2.632z"/>
  <path d="m48.355 63.214c0.5-0.217 0.371-2.041-0.237-2.942-0.613-0.902-1.752-1.418-2.606-1.045-0.858 0.371-1.11 1.489-0.499 2.392 0.613 0.902 2.891 1.79 3.342 1.595z"/>
  <path d="m45.218 67.136c1.13-0.549 2.451-2.079 2.164-2.456-0.26-0.34-2.824-0.436-3.955 0.115-1.125 0.55-1.65 1.609-1.153 2.26 0.491 0.643 1.817 0.631 2.944 0.081z"/>
  <path d="m46.434 67.521c-0.716 0.881-0.754 1.926 0.059 2.323 0.811 0.402 2.168 7e-3 2.883-0.875 0.717-0.88 0.639-2.899 0.213-3.112-0.478-0.231-2.441 0.788-3.155 1.664z"/>
  <path d="m77.455 7.496c-3.629-1.566-7.749-1.694-11.639-1.337-0.846 0.078-1.688 0.179-2.528 0.289-0.476 0.094-0.948 0.176-1.419 0.239-14.521 4.391-32.349 9.474-39.516 11.505-1.08 0.204-2.157 0.497-3.22 0.91-9.306 3.623-13.915 14.104-10.294 23.412 2.058 5.287 6.332 9.044 11.345 10.648-0.453 1.415-0.705 2.908-0.705 4.46 0 7.563 5.78 13.874 13.479 15.374v2.676s3.979 8.333 17 8.333 16.647-7.333 16.647-8.333 0.353-11.049 0.353-11.049c0-5.441-6.058-9.953-14.022-10.87-0.892-3.247-2.879-6.084-5.568-8.173 6.404-3.07 13.461-6.575 19.346-10.022 5.686-3.33 10.366-7.088 13.525-12.622 2.92-5.121 3.645-12.667-2.784-15.44zm-27.499 49.163c6.769 0 12.253 3.565 12.253 7.963s-5.484 7.964-12.253 7.964c-6.766 0-12.251-3.564-12.251-7.964 0-4.397 5.485-7.963 12.251-7.963zm-15.133 2.946c0.01-0.136 2e-3 -0.25-0.043-0.313-0.33-0.453-2.716-0.146-3.845 0.521-1.131 0.672-1.701 1.806-1.135 2.58 0.565 0.777 2.056 0.902 3.184 0.233 0.111-0.065 0.218-0.157 0.325-0.251-0.23 0.725-0.353 1.477-0.353 2.244v3.845c-5.049-1.397-8.73-5.723-8.73-10.847 0-6.255 5.485-11.325 12.251-11.325 5.257 0 9.729 3.063 11.468 7.361-5.742 0.447-10.598 2.743-13.122 5.952zm1.656-17.699c-6.227 0-11.656 3.104-14.618 7.722-5.97-1.285-10.446-6.589-10.446-12.943 0-7.315 5.931-13.247 13.247-13.247 7.315 0 13.247 5.932 13.247 13.247 0 1.862-0.394 3.629-1.089 5.235-0.115-2e-3 -0.226-0.014-0.341-0.014zm11.339-26.027c-10.958 3.192-19.636 6.484-20.24 4.409-0.515-1.768 8.484-3.959 19.441-7.151 10.959-3.192 19.728-6.176 20.242-4.408 0.564 1.932-8.484 3.959-19.443 7.15z"/>
 </g>
</svg>
