<svg xmlns="http://www.w3.org/2000/svg" viewBox="0 0 64 64" x="0px" y="0px"><g><path d="M43,28.22l-3.507.7-1.786,1.786-1.414-1.414,2-2a.991.991,0,0,1,.511-.273l4.2-.84v-2.9l-2.757.689-.486-1.94L43,21.219V20.061c-.125,0-.251.006-.393.006A14.393,14.393,0,0,1,33,16.681v2.7l3.447,1.723a1,1,0,0,1,.5.579l1,3-1.9.632-.869-2.607L33,21.618v8.764L36.447,32.1a1.01,1.01,0,0,1,.385.34l2,3-1.664,1.11-1.853-2.779L33,32.618V54H43Z"></path><path d="M24.174,44.951a2.966,2.966,0,0,0-3.2,2.292L19.98,52.2a1.724,1.724,0,0,0,.358,1.384A.943.943,0,0,0,21,54H31V45.867l-6.142-.877A6.323,6.323,0,0,0,24.174,44.951ZM27,48h2v2H27Zm-2,4H23V50h2Z"></path><path d="M45.252,15.707a7.325,7.325,0,0,1-2.29-4.624c-.077-.575-.933-6.167-4.962-6.977V6H36V4.22c-2.9,1.233-3,7.708-3,7.78v1.689c3.668,5.152,10.76,4.329,10.835,4.319A.861.861,0,0,1,43.959,18c1.25,0,1.857-.395,2-.733C46.111,16.894,45.841,16.3,45.252,15.707Z"></path><polygon points="34.535 56 31.869 60 44.091 60 41.424 56 34.535 56"></polygon></g></svg>