<?xml version="1.0" encoding="UTF-8" standalone="no"?>
<svg
   xmlns:dc="http://purl.org/dc/elements/1.1/"
   xmlns:cc="http://creativecommons.org/ns#"
   xmlns:rdf="http://www.w3.org/1999/02/22-rdf-syntax-ns#"
   xmlns:svg="http://www.w3.org/2000/svg"
   xmlns="http://www.w3.org/2000/svg"
   xmlns:sodipodi="http://sodipodi.sourceforge.net/DTD/sodipodi-0.dtd"
   xmlns:inkscape="http://www.inkscape.org/namespaces/inkscape"
   version="1.1"
   x="0px"
   y="0px"
   viewBox="0 0 100 100"
   enable-background="new 0 0 100 100"
   xml:space="preserve"
   id="svg6"
   sodipodi:docname="genital_dickplug.svg"
   inkscape:version="1.0.1 (3bc2e813f5, 2020-09-07)"><style></style><metadata
     id="metadata12"><rdf:RDF><cc:Work
         rdf:about=""><dc:format>image/svg+xml</dc:format><dc:type
           rdf:resource="http://purl.org/dc/dcmitype/StillImage" /></cc:Work></rdf:RDF></metadata><defs
     id="defs10" /><sodipodi:namedview
     pagecolor="#ffffff"
     bordercolor="#666666"
     borderopacity="1"
     objecttolerance="10"
     gridtolerance="10"
     guidetolerance="10"
     inkscape:pageopacity="0"
     inkscape:pageshadow="2"
     inkscape:window-width="820"
     inkscape:window-height="480"
     id="namedview8"
     showgrid="false"
     inkscape:zoom="0.75130096"
     inkscape:cx="-5.6446469"
     inkscape:cy="-38.099413"
     inkscape:window-x="793"
     inkscape:window-y="428"
     inkscape:window-maximized="0"
     inkscape:current-layer="svg6" /><rect
     fill="none"
     width="100"
     height="100"
     id="rect2" /><path
     d="M 79.276586,73.143218 37.425384,31.291421 38.346192,30.371612 c 0.422242,-0.422241 0.188591,-1.34159 -0.521612,-2.052387 -0.710797,-0.710203 -1.629348,-0.943651 -2.052387,-0.521613 L 34.719562,28.850243 22.093151,16.222654 c -2.042798,-2.042202 -4.683632,-2.713368 -5.899617,-1.499383 -1.213986,1.215985 -0.54282,3.85682 1.499383,5.899618 l 12.627,12.627 -1.052833,1.051833 c -0.422039,0.423039 -0.188591,1.34159 0.521612,2.052387 0.71,0.71 1.629348,0.943651 2.052387,0.521613 l 0.919809,-0.920809 41.851,41.851 c 14.125598,11.567127 14.797014,6.874965 4.664694,-4.662695 z"
     id="path4"
     style="stroke-width:0.771172"
     sodipodi:nodetypes="cccccccccccccccc" /></svg>
