<svg xmlns="http://www.w3.org/2000/svg" viewBox="0 0 512 512" x="0px" y="0px"><title>equipment viking helm</title><path d="M398.64,84.43a5.69,5.69,0,0,0-4.57,10,102.28,102.28,0,0,1,16.6,17.11c19,24.84,23.68,58.1,11.3,86.81A74.44,74.44,0,0,1,387.09,236a8.12,8.12,0,0,0-3.36,11.21c9.6,17.06,17.34,38,20.78,63.43A7.53,7.53,0,0,0,416,316c29.27-18.36,69.06-54.86,70.72-118.18C486.69,197.85,494.68,101.56,398.64,84.43Z"></path><path d="M117.93,94.44a5.69,5.69,0,0,0-4.57-10c-96,17.13-88,113.42-88,113.42C27,261.17,66.76,297.67,96,316a7.53,7.53,0,0,0,11.46-5.41c3.44-25.44,11.18-46.37,20.78-63.43A8.12,8.12,0,0,0,124.91,236,74.44,74.44,0,0,1,90,198.36c-12.38-28.71-7.69-62,11.3-86.81A102.28,102.28,0,0,1,117.93,94.44Z"></path><path d="M136.47,352.41H189A11.86,11.86,0,0,0,200.82,341l5.11-130.47a7.89,7.89,0,0,0-12-7c-30.38,19-70.3,58.6-70.73,135.47A13.32,13.32,0,0,0,136.47,352.41Z"></path><path d="M319.27,204.25a7.89,7.89,0,0,0-12.1,6.94l4.15,129.74a11.86,11.86,0,0,0,11.85,11.48h52.36A13.33,13.33,0,0,0,388.85,339C388.42,263.1,349.49,223.55,319.27,204.25Z"></path><path d="M256.64,352.41h33.48a7.19,7.19,0,0,0,7.19-7.45l-5.75-162.22a12.36,12.36,0,0,0-12.35-11.93H234.07a12.37,12.37,0,0,0-12.36,11.93L216,345a7.2,7.2,0,0,0,7.19,7.45Z"></path><path d="M127.71,427.67H384.29a11.1,11.1,0,0,0,11.1-11.11V379.28a11.1,11.1,0,0,0-11.1-11.1H127.71a11.1,11.1,0,0,0-11.1,11.1v37.28A11.1,11.1,0,0,0,127.71,427.67ZM348,388.51a9.42,9.42,0,1,1-9.41,9.41A9.41,9.41,0,0,1,348,388.51Zm-91.95,0a9.42,9.42,0,1,1-9.41,9.41A9.41,9.41,0,0,1,256,388.51Zm-91.95,0a9.42,9.42,0,1,1-9.41,9.41A9.41,9.41,0,0,1,164.05,388.51Z"></path></svg>