<svg xmlns="http://www.w3.org/2000/svg" viewBox="0 0 512 512" x="0px" y="0px"><title>equipment wizard hat</title><path d="M456.48,61.29c11.86-8.72,8.12-27.42-6.17-30.73a254.74,254.74,0,0,0-56.26-6.71c-63.55-.19-122.26,34.29-154.87,89.43-13.93,23.55-34.28,54.87-56.31,78.54a9.22,9.22,0,0,0-1.32,10.79A192.28,192.28,0,0,0,210,241.33a5.74,5.74,0,0,0,9-.89h0a17.66,17.66,0,0,1,24.61-5.16L278,258.15a18.07,18.07,0,0,1,5.1,24.87h0a2.6,2.6,0,0,0,1.41,3.91q40.92,12,91.54,5a9.14,9.14,0,0,0,7.79-9.8q-.24-3.18-.39-6.42S369,125.63,456.48,61.29Z"></path><path d="M364.55,488s62.13,3.87,112.18-27.25c15-9.32,14.41-31.61-1.05-40.08-28.26-15.49-67.63-45.78-84.36-99.38a9.17,9.17,0,0,0-10-6.43,284,284,0,0,1-40.47,3,220.57,220.57,0,0,1-66.16-9.66,9,9,0,0,0-10.27,3.69l-3.87,6a17.64,17.64,0,0,1-24.6,5.16l-34.46-22.86a18.08,18.08,0,0,1-5.11-24.87l1.94-3a8.56,8.56,0,0,0-1.19-10.73l0-.05a213.91,213.91,0,0,1-32.72-42,9,9,0,0,0-11.89-3.41,89.63,89.63,0,0,1-47.57,9.52c-17.15-1.34-39.55-5.32-56.76-16.25C37.48,202.61,23.73,211,24.4,223.71,28.62,303.45,71.24,488,364.55,488Z"></path></svg>