<svg version="1.1" viewBox="0 0 512 512" xmlns="http://www.w3.org/2000/svg">
 <title>equipment boot</title>
 <path d="m10.144 248.02c-19.533 33.864-5.237 60.12 10.209 76.203l4.9363 5.1309v60.651c10.333-7.8202 22.24-13.676 35.385-16.348v-42.533l2.9724-4.4586c3.1139-4.6532 77.335-114.03 191.65-114.03 114.31 0 188.53 109.38 191.65 114.03l2.9724 4.4586v42.533c13.146 2.6893 25.053 8.5279 35.385 16.348v-60.651l4.9363-5.1309c15.446-16.083 29.759-42.356 10.209-76.203-11.217-19.444-30.662-32.077-53.379-34.66l-13.977-1.5923-1.5923-13.977c-2.6008-22.717-15.216-42.162-34.66-53.379-19.444-11.235-42.586-12.456-63.57-3.3262l-12.898 5.6086-8.3687-11.306c-13.588-18.383-34.253-28.91-56.705-28.91-22.452 0-43.117 10.527-56.705 28.892l-8.3687 11.306-12.898-5.6086c-20.984-9.1118-44.143-7.891-63.57 3.3439-19.444 11.217-32.059 30.679-34.678 53.397l-1.5924 13.977-13.977 1.5924c-22.7 2.5654-42.162 15.198-53.361 34.642zm450.81 2.3708 17.693 30.626-30.626 17.693-17.693-30.626zm-97.133-84.2 30.644 17.693-17.693 30.644-30.644-17.693zm-126.22-24.328h35.385v35.386h-35.385zm-90.835 24.328 17.693 30.644-30.644 17.693-17.693-30.644zm-97.133 84.2 30.626 17.693-17.693 30.626-30.626-17.693z" style="stroke-width:17.693"/>
</svg>
