<svg xmlns="http://www.w3.org/2000/svg" xmlns:xlink="http://www.w3.org/1999/xlink" version="1.1" x="0px" y="0px" viewBox="0 0 50 50" enable-background="new 0 0 50 50" xml:space="preserve"><path fill="#000000" d="M42.26,23.043c0-0.631-0.094-1.24-0.252-1.822v-5.932c0-0.109-0.009-0.219-0.027-0.324h0.015V1.684  l-6.531,10.59H14.181L8.005,2.262v12.691c-0.02,0.109-0.03,0.223-0.03,0.336v5.664c-0.208,0.66-0.322,1.361-0.322,2.09L4.11,41.393  c0,3.823,3.1,6.924,6.925,6.924H25.02c-0.043-0.166-0.071-0.373-0.071-0.604v-8.287c-1.661-0.599-4.44-5.025-4.93-7.029  c-0.377-1.541,1.287-2.873,2.873-2.873h4.227c1.588,0,3.199,1.32,2.873,2.873c-0.412,1.974-2.823,6.564-4.428,7.054v8.264  c0,0.229-0.027,0.438-0.07,0.604h13.472c3.825,0,6.925-3.102,6.925-6.924L42.26,23.043z M19.326,25.485h-4.487  c-1.981,0-3.589-1.606-3.589-3.589s1.607-3.59,3.589-3.59h4.487c1.982,0,3.589,1.607,3.589,3.59S21.309,25.485,19.326,25.485z   M35.162,25.485h-4.488c-1.98,0-3.589-1.606-3.589-3.589s1.606-3.59,3.589-3.59h4.488c1.982,0,3.589,1.607,3.589,3.59  S37.145,25.485,35.162,25.485z"></path></svg>