<svg xmlns="http://www.w3.org/2000/svg" viewBox="0 0 512 512" x="0px" y="0px"><title>equipment earring</title><path d="M343.67,31.35c-.76-.33-1.55-.65-2.34-1a54,54,0,0,0-66.88,25.43C269.1,66,266.64,78,267.16,91.32a25.69,25.69,0,0,1-7.53,19l-3.07,3.06A14.53,14.53,0,1,0,277.1,134l3.07-3.06a54.81,54.81,0,0,0,16-40.71c-.31-8.2,1-15.23,4-20.89a25.26,25.26,0,0,1,30.88-11.73c.36.14.71.28,1,.43,7.87,3.42,11.65,12.83,8.62,21.43a67.53,67.53,0,0,0-4.13,24.49,14.53,14.53,0,1,0,29-.89,38.91,38.91,0,0,1,2.5-14C376.2,66.19,365.46,40.83,343.67,31.35Z"></path><circle cx="221.61" cy="164.97" r="27.91"></circle><path d="M189,219.45a14.53,14.53,0,0,0-20.54-20.55l-38.18,38.18a14.53,14.53,0,0,0,20.55,20.55Z"></path><path d="M109.39,266.28C94,266.73,66.3,270.41,42,288.77c-17.59,13.31-21.17,28-19.79,40.16a41.94,41.94,0,0,0,36.68,36.68c12.15,1.39,26.85-2.19,40.17-19.79,18.36-24.26,22-52,22.49-67.34A11.87,11.87,0,0,0,109.39,266.28Z"></path><path d="M462.88,150.56c-.76-.33-1.55-.65-2.34-.95A54,54,0,0,0,393.66,175c-5.36,10.22-7.81,22.16-7.3,35.5a25.61,25.61,0,0,1-7.53,19l-3.06,3.06a14.53,14.53,0,1,0,20.54,20.55l3.07-3.07a54.78,54.78,0,0,0,16-40.7c-.32-8.2,1-15.23,4-20.89a25.24,25.24,0,0,1,30.87-11.73l1.05.42c7.86,3.42,11.65,12.84,8.62,21.43a67.61,67.61,0,0,0-4.13,24.5,14.53,14.53,0,0,0,29-.88,38.71,38.71,0,0,1,2.5-14C495.41,185.39,484.67,160,462.88,150.56Z"></path><path d="M321.08,264.44a27.91,27.91,0,1,0,39.47,0A27.91,27.91,0,0,0,321.08,264.44Z"></path><path d="M287.63,318.11l-38.18,38.18A14.52,14.52,0,1,0,270,376.83l38.18-38.18a14.52,14.52,0,0,0-20.54-20.54Z"></path><path d="M228.59,385.49c-15.38.45-43.08,4.12-67.34,22.49-17.6,13.31-21.17,28-19.79,40.16a41.93,41.93,0,0,0,36.68,36.68C190.29,486.2,205,482.63,218.3,465c18.37-24.26,22-52,22.49-67.34A11.86,11.86,0,0,0,228.59,385.49Z"></path></svg>