<svg xmlns="http://www.w3.org/2000/svg" viewBox="0 0 512 512" x="0px" y="0px"><title>equipment helm armor</title><path d="M93.43,207.09a21.09,21.09,0,0,0,17.78,9.74H277.77a53.53,53.53,0,0,1,34,12.16h0a52,52,0,0,1,10.19,69.14L300.5,330.08a6,6,0,0,0,5,9.4H406.69a10.28,10.28,0,0,0,9.85-7.27c4.88-16,11.65-36.4,20.06-57.48a193.26,193.26,0,0,0,13.74-84c-2.23-34.71-13.47-77.84-48.72-114.51,0,0-64.87-72.74-179.88-45.22,0,0-27.37,7.22-56.83,32.1l120.61,83.74a10.17,10.17,0,0,1-11.6,16.71L125.26,60.39a12.39,12.39,0,0,0-14.82,4.32L65.11,128.92a20.89,20.89,0,0,0-2.17,20.2A407.24,407.24,0,0,0,93.43,207.09Zm217.22-30.37a10.16,10.16,0,0,1,14.15-2.56l1.51,1.05a10.17,10.17,0,0,1-11.6,16.71l-1.51-1A10.16,10.16,0,0,1,310.65,176.72ZM171.73,146.59l3-7a10.17,10.17,0,0,1,18.71,8l-3,6.95a12.13,12.13,0,0,0-.7,7.33L194,181.4a10.17,10.17,0,0,1-19.87,4.33l-4.25-19.51A32.25,32.25,0,0,1,171.73,146.59Zm-56.29-23.37,13.27-18.93A10.17,10.17,0,1,1,145.37,116L132.1,134.89a17.85,17.85,0,0,0-2,16.89l11.13,28a10.17,10.17,0,0,1-18.9,7.51l-11.14-28A38.17,38.17,0,0,1,115.44,123.22Z"></path><path d="M261.59,258.84l-.2.4a19.85,19.85,0,0,1-19.65,16.57H95.43a14.25,14.25,0,0,0-14.25,14.25v60.49a39.32,39.32,0,0,0,3.17,15.5c5.51,12.87,17.75,39.53,33.09,60.91a16,16,0,0,0,17.45,6l39.51-11.59a93.25,93.25,0,0,0,47.65-32.58l78.78-102.21a25.32,25.32,0,0,0-3.54-34.64h0A23.14,23.14,0,0,0,261.59,258.84Z"></path><path d="M397.55,359.82H283.78a6,6,0,0,0-5,2.68l-23.6,35.19-23.46,35.6a30.56,30.56,0,0,0-5,16.82v25.34a11.72,11.72,0,0,0,11.72,11.72H436.92a8,8,0,0,0,5.81-13.57A127.83,127.83,0,0,1,410.64,414a132.52,132.52,0,0,1-2.85-42.78A10.34,10.34,0,0,0,397.55,359.82ZM271.8,453.9a9.7,9.7,0,0,1-.58,1.9,9.27,9.27,0,0,1-.93,1.76A9.85,9.85,0,0,1,269,459.1a10.14,10.14,0,0,1-7.19,3,10.39,10.39,0,0,1-2-.19,11.3,11.3,0,0,1-1.91-.58,10.77,10.77,0,0,1-1.74-.94,9.13,9.13,0,0,1-1.55-1.27,9.81,9.81,0,0,1-2.2-3.3,9.7,9.7,0,0,1-.58-1.9,10.13,10.13,0,0,1,2.78-9.18,9.08,9.08,0,0,1,1.55-1.26,8.82,8.82,0,0,1,1.74-.93,10.5,10.5,0,0,1,1.91-.59,10.25,10.25,0,0,1,4,0,9.73,9.73,0,0,1,1.9.59,9.27,9.27,0,0,1,1.76.93,10.14,10.14,0,0,1,4.52,8.45A8.85,8.85,0,0,1,271.8,453.9Zm60.49,5.2a10.25,10.25,0,0,1-7.2,3,10.39,10.39,0,0,1-2-.19,10.93,10.93,0,0,1-1.9-.58,10.37,10.37,0,0,1-1.74-.94,9.61,9.61,0,0,1-1.56-1.27,10,10,0,0,1-2.77-9.16,9.88,9.88,0,0,1,.58-1.92,10.88,10.88,0,0,1,.93-1.75,11.84,11.84,0,0,1,1.26-1.55,9.56,9.56,0,0,1,1.56-1.26,8.54,8.54,0,0,1,1.74-.93,11.91,11.91,0,0,1,1.9-.59,10.1,10.1,0,0,1,10.45,4.33,10.88,10.88,0,0,1,.93,1.75,9.88,9.88,0,0,1,.58,1.92,10.13,10.13,0,0,1,.2,2A10.26,10.26,0,0,1,332.29,459.1Zm63.25,0a9.91,9.91,0,0,1-1.54,1.27,11.42,11.42,0,0,1-1.76.94,10.43,10.43,0,0,1-1.9.58,10.17,10.17,0,0,1-2,.19,10.29,10.29,0,0,1-2-.19,10.43,10.43,0,0,1-1.9-.58,11.42,11.42,0,0,1-1.76-.94,10.48,10.48,0,0,1-1.55-1.27,9.85,9.85,0,0,1-1.26-1.54,10.57,10.57,0,0,1-.93-1.76,10.46,10.46,0,0,1-.59-1.9,10.25,10.25,0,0,1,2.78-9.18,10.41,10.41,0,0,1,1.55-1.26,9.27,9.27,0,0,1,1.76-.93,9.73,9.73,0,0,1,1.9-.59,10.2,10.2,0,0,1,4,0,9.73,9.73,0,0,1,1.9.59,9.27,9.27,0,0,1,1.76.93,9.85,9.85,0,0,1,1.54,1.26,10.14,10.14,0,0,1,0,14.38Z"></path></svg>