<svg xmlns="http://www.w3.org/2000/svg" viewBox="0 0 512 512" x="0px" y="0px"><title>equipment belt</title><path d="M309.56,199.35A16.31,16.31,0,0,0,293.26,183H211.74a23.14,23.14,0,0,0-23.14,23.14V263a23.14,23.14,0,0,0,23.14,23.14h81.52a16.3,16.3,0,0,0,16.3-16.3V267.2a7.1,7.1,0,0,0-7.1-7.1H225.68a9.2,9.2,0,0,1-9.21-9.2V218.27a9.21,9.21,0,0,1,9.21-9.21h76.78a7.1,7.1,0,0,0,7.1-7.1Z"></path><rect x="263.63" y="223.74" width="45.93" height="21.69" rx="10.27"></rect><path d="M38.35,272H153.88a14.38,14.38,0,0,0,14.38-14.38V204.39a7.26,7.26,0,0,0-7.27-7.26H38.35A14.38,14.38,0,0,0,24,211.51v46.15A14.38,14.38,0,0,0,38.35,272Z"></path><path d="M482.09,270.28a3.13,3.13,0,0,0,5.94-1.37V204.39a7.26,7.26,0,0,0-7.26-7.26H414.13a5,5,0,0,0-2.63,9.36,273.19,273.19,0,0,1,62.65,52.15A54.12,54.12,0,0,1,482.09,270.28Z"></path><path d="M336.8,198.47a5.73,5.73,0,0,0-6.9,5.61v63a5.71,5.71,0,0,0,4.73,5.64c12.39,2.12,46.47,8.29,72.79,43.52,11.13,14.89,32.83,16.83,47.41,5.31h0A34,34,0,0,0,459,272.21C435.94,246.46,394.94,210.84,336.8,198.47Zm43.12,50.16a10.27,10.27,0,0,1-.57,1.91,11.89,11.89,0,0,1-.94,1.76,10.4,10.4,0,0,1-1.27,1.54,8.83,8.83,0,0,1-1.54,1.26,10.67,10.67,0,0,1-1.76,1,12,12,0,0,1-1.9.58,10.18,10.18,0,0,1-12.16-10,10.3,10.3,0,0,1,3-7.2,10.65,10.65,0,0,1,1.55-1.26,10.1,10.1,0,0,1,1.75-.93,10.93,10.93,0,0,1,1.9-.58,10.12,10.12,0,0,1,5.88.58,10.57,10.57,0,0,1,1.76.93,11.12,11.12,0,0,1,1.54,1.26,10.3,10.3,0,0,1,3,7.2A9.44,9.44,0,0,1,379.92,248.63Zm46.17,35.06a9.59,9.59,0,0,1-.58,1.91,10.47,10.47,0,0,1-.93,1.75,9.46,9.46,0,0,1-1.27,1.54,10.16,10.16,0,0,1-14.38,0,10,10,0,0,1-1.26-1.54,9.18,9.18,0,0,1-.93-1.75,9.59,9.59,0,0,1-.58-1.91,9.44,9.44,0,0,1,0-4,9.59,9.59,0,0,1,.58-1.91,8.89,8.89,0,0,1,.93-1.75,11.17,11.17,0,0,1,1.26-1.56,10.16,10.16,0,0,1,14.38,0,10.56,10.56,0,0,1,1.27,1.56,10.1,10.1,0,0,1,.93,1.75,9.59,9.59,0,0,1,.58,1.91,9.9,9.9,0,0,1,0,4Z"></path></svg>