<svg version="1.1" viewBox="0 0 512 512" xmlns="http://www.w3.org/2000/svg">
 <title>equipment shirt</title>
 <path d="m500.05 448.46c-3.0193-11.438-5.9805-22.935-8.9998-34.373-7.1998-27.348-14.342-54.637-21.483-81.985-8.7095-33.212-17.419-66.482-26.128-99.694-7.4901-28.567-14.98-57.134-22.47-85.759-3.3677-12.89-6.445-25.954-10.103-38.844v-49.934c0-0.69676-0.0581-1.3355-0.11612-2.0322v-0.05806c-1.5096-15.677-14.458-26.186-30.251-26.477-1.3935 0-2.729 0.11613-4.1225 0.11613h-195.61c-16.258 0-32.457-0.23225-48.715-0.11613-10.393 0.05806-20.612 4.4709-26.07 13.645-4.0644 6.8514-4.0644 14.051-4.0644 21.599v39.076c-0.0581 0.11613-0.11612 0.29032-0.11612 0.40645-3.0193 11.438-5.9805 22.935-8.9998 34.373-7.1418 27.348-14.342 54.637-21.483 81.985-8.7095 33.212-17.419 66.482-26.128 99.694-7.4901 28.567-14.98 57.134-22.47 85.759-3.5999 13.703-7.4321 27.406-10.8 41.225-0.05806 0.23225-0.11613 0.4645-0.17419 0.69676-0.05806 0.17418-0.11613 0.40644-0.17419 0.58063-0.69676 2.729-0.69676 5.574-0.11613 8.303 1.5096 6.3289 6.1547 11.555 12.367 13.296 1.4516 0.40644 2.9612 0.75482 4.5289 0.75482h82.74c0.6387-3.4838 1.2774-6.6773 1.9161-9.9288 4.2386-22.18 8.5353-44.476 12.774-66.656 4.9354-25.78 9.8707-51.618 14.806-77.398 4.0644-21.251 8.1288-42.502 12.193-63.753 1.6838-8.8836 3.4257-17.767 5.1096-26.651 1.2193-6.3869 8.5353-9.4062 14.284-8.1288 6.445 1.4516 9.232 8.3611 8.1288 14.284 0 0.17419-0.0581 0.29031-0.0581 0.4645-1.9742 10.8-4.1225 21.599-6.2128 32.399-4.2386 22.18-8.5353 44.418-12.774 66.598-4.9354 25.78-9.8707 51.56-14.806 77.34-4.0644 21.251-8.1288 42.502-12.251 63.753-0.75482 3.9483-1.5096 7.9546-2.2645 11.903 6.6192 0.0581 13.238 0.34837 19.8 0.34837h91.856c0-5.2257 0.11612-10.045 0.11612-14.922v-182.2c0-6.5031 5.3418-11.322 11.613-11.613 6.2708-0.29032 11.613 5.516 11.613 11.613v0.34837c0.23225 8.4192 0 16.896 0 25.316v171.46h112.76c-1.1613-6.3869-2.2064-12.367-3.3677-18.406-4.2386-22.296-8.5353-44.651-12.832-66.947-4.9354-25.664-9.8707-51.386-14.748-77.05-4.0644-21.309-8.1869-42.618-12.251-63.927-1.6838-8.8837-3.3677-17.767-5.1096-26.651-1.2193-6.3869 1.7419-12.251 8.1288-14.284 5.6321-1.8 13.122 2.1483 14.284 8.1288 0 0.17419 0.0581 0.29032 0.0581 0.4645 2.4967 10.742 4.1806 21.716 6.2128 32.515 4.2967 22.296 8.5353 44.592 12.832 66.831 4.9354 25.664 9.8707 51.328 14.748 76.992 4.0644 21.309 8.1869 42.734 12.251 64.044 0.23225 1.1613 0.4645 1.9742 0.69676 3.716h64.218c5.9224 0 11.845-0.0581 17.767-0.11613 0.23225 0 0.52256-0.0581 0.75482-0.0581 11.38 0.0581 19.625-11.148 16.722-22.064zm-293.04-356.86h-54.579c-1.858 0-3.716-0.17419-5.5741-0.17419-3.3677 0-6.7353-0.17419-10.103-0.23225v-27.174c0.29032 0 0.52257 0.29032 0.81288 0.29032h69.443zm63.289 0h-28.451v-27.29h28.451zm105.67 0h-70.837v-27.29h45.463c8.4772 0 16.954-0.40644 25.432-0.29032v27.58z" style="stroke-width:.58063"/>
</svg>
