<svg xmlns="http://www.w3.org/2000/svg" viewBox="0 0 512 512" x="0px" y="0px"><title>equipment waist armor</title><path d="M32.91,303H103.8a7.21,7.21,0,0,0,6.77-4.74A181.21,181.21,0,0,1,125,267.56a7.22,7.22,0,0,0-6.18-10.95h-86a9,9,0,0,0-9,9c0,8.2,0,20.26,0,28.46A9,9,0,0,0,32.91,303Z"></path><path d="M93.69,323.37H32.92a9,9,0,0,0-9,9v59.11a15.34,15.34,0,0,0,15.34,15.34H76.78a15.36,15.36,0,0,0,15.3-14.24,421.83,421.83,0,0,1,8.66-60.42A7.21,7.21,0,0,0,93.69,323.37Z"></path><path d="M35.2,236.27H148.52a10.5,10.5,0,0,0,6-1.92l.1-.07a16.81,16.81,0,0,0,7.11-13.73v-58a6.54,6.54,0,0,0-6.54-6.54H71.56a26.71,26.71,0,0,0-20.71,9.63c-14.78,18.07-21.51,41.48-24.54,60.3A9,9,0,0,0,35.2,236.27Z"></path><path d="M51.92,135.64H190a5.29,5.29,0,0,0,5.29-5.29V70.89A5.29,5.29,0,0,0,190,65.6H52.67A13.23,13.23,0,0,0,39.44,78.83v43.61A13.22,13.22,0,0,0,51.92,135.64Zm76.25-37a10.29,10.29,0,0,1,.58-1.91,11.31,11.31,0,0,1,.94-1.75A9,9,0,0,1,131,93.44a10.16,10.16,0,0,1,14.38,0A10,10,0,0,1,146.61,95a10.47,10.47,0,0,1,.93,1.75,9.59,9.59,0,0,1,.58,1.91,9.9,9.9,0,0,1,0,4,9.59,9.59,0,0,1-.58,1.91,10.47,10.47,0,0,1-.93,1.75,10,10,0,0,1-1.27,1.54,8.6,8.6,0,0,1-1.55,1.27A9.83,9.83,0,0,1,142,110a10.93,10.93,0,0,1-1.9.58,10.47,10.47,0,0,1-2,.19,10.17,10.17,0,0,1-2-.19,10.43,10.43,0,0,1-1.9-.58,9.92,9.92,0,0,1-1.76-.94,10.44,10.44,0,0,1-2.81-2.81,11.31,11.31,0,0,1-.94-1.75,10.29,10.29,0,0,1-.58-1.91,10.41,10.41,0,0,1,0-4ZM73.6,93.42a11.74,11.74,0,0,1,1.54-1.26,10.57,10.57,0,0,1,1.76-.93,10.43,10.43,0,0,1,1.9-.58,10.15,10.15,0,0,1,12,11.95,9.59,9.59,0,0,1-.58,1.91,10.47,10.47,0,0,1-.93,1.75A11.23,11.23,0,0,1,88,107.82a10,10,0,0,1-9.18,2.77,10.43,10.43,0,0,1-1.9-.58,9.92,9.92,0,0,1-1.76-.94,10.26,10.26,0,0,1-1.54-1.25,9.36,9.36,0,0,1-1.26-1.56,9.88,9.88,0,0,1-1-1.75,11.11,11.11,0,0,1-.58-1.91,10.23,10.23,0,0,1,2.79-9.18Z"></path><path d="M223.49,135.64h65a7.86,7.86,0,0,0,7.87-7.86V73.46a7.86,7.86,0,0,0-7.87-7.86h-65a7.87,7.87,0,0,0-7.87,7.86v54.32A7.87,7.87,0,0,0,223.49,135.64Z"></path><path d="M330.05,389.26V168.34A12.36,12.36,0,0,0,317.69,156H194.31a12.37,12.37,0,0,0-12.37,12.36V389.26a32.27,32.27,0,0,0,16.22,28l44.62,25.62a26.55,26.55,0,0,0,26.44,0l44.62-25.62A32.26,32.26,0,0,0,330.05,389.26Z"></path><path d="M479.11,256.61H393.16A7.22,7.22,0,0,0,387,267.56a181.23,181.23,0,0,1,14.44,30.73A7.22,7.22,0,0,0,408.2,303h79.87l0-37.42A9,9,0,0,0,479.11,256.61Z"></path><path d="M440.44,156H356.73a6.51,6.51,0,0,0-6.52,6.51v63.24a7.14,7.14,0,0,0,3.4,6.08,29.76,29.76,0,0,0,15.69,4.46H476.79a9,9,0,0,0,8.89-10.36c-3-18.82-9.75-42.23-24.54-60.3A26.7,26.7,0,0,0,440.44,156Z"></path><path d="M479.08,323.37H418.3a7.21,7.21,0,0,0-7.05,8.78,420.42,420.42,0,0,1,8.66,60.42,15.37,15.37,0,0,0,15.3,14.24h37.52a15.34,15.34,0,0,0,15.34-15.34V332.36A9,9,0,0,0,479.08,323.37Z"></path><path d="M322,135.64H460.07a13.23,13.23,0,0,0,12.49-13.2V78.83A13.23,13.23,0,0,0,459.32,65.6H322a5.29,5.29,0,0,0-5.29,5.29v59.46A5.29,5.29,0,0,0,322,135.64ZM424,93.42a11.21,11.21,0,0,1,1.55-1.26,10.34,10.34,0,0,1,3.65-1.51,10.12,10.12,0,0,1,5.88.58,10.57,10.57,0,0,1,1.76.93,11.12,11.12,0,0,1,1.54,1.26,10.16,10.16,0,0,1,2.21,11.09,11.31,11.31,0,0,1-.94,1.75,9.46,9.46,0,0,1-1.27,1.54,8.89,8.89,0,0,1-1.54,1.27,9.92,9.92,0,0,1-1.76.94,9.93,9.93,0,0,1-3.89.77,10.47,10.47,0,0,1-2-.19,10.93,10.93,0,0,1-1.9-.58,10.19,10.19,0,0,1-1.75-.94A9,9,0,0,1,424,107.8a10,10,0,0,1-1.26-1.54,9.18,9.18,0,0,1-.93-1.75,10.32,10.32,0,0,1-.59-1.91,10.13,10.13,0,0,1-.2-2A10.29,10.29,0,0,1,424,93.42Zm-57.36,0A10.17,10.17,0,0,1,384,100.61a9.46,9.46,0,0,1-.19,2,10.29,10.29,0,0,1-.58,1.91,11.31,11.31,0,0,1-.94,1.75,9.42,9.42,0,0,1-1.27,1.56,9.71,9.71,0,0,1-1.53,1.25,10.15,10.15,0,0,1-12.85-1.25,11.94,11.94,0,0,1-1.26-1.56,10.47,10.47,0,0,1-.93-1.75,9.59,9.59,0,0,1-.58-1.91,10,10,0,0,1,2.77-9.18Z"></path></svg>