<svg xmlns="http://www.w3.org/2000/svg" viewBox="0 0 64 64" x="0px" y="0px"><g><path d="M50,24a3,3,0,0,0-3-3H36v6H47A3,3,0,0,0,50,24Zm-4-1h2v2H46Z"></path><rect x="36" y="29" width="2" height="2"></rect><path d="M6,24a1,1,0,0,1,1-1h5v2H8v2H34V21H7a3,3,0,0,0-3,3V40H6Zm24-1h2v2H30Zm-4,0h2v2H26Zm-4,0h2v2H22Zm-4,0h2v2H18Z"></path><rect x="36" y="17" width="2" height="2"></rect><path d="M53,43a6,6,0,0,1-.09,1H59a1,1,0,0,0,1-1V42H52.91A6,6,0,0,1,53,43Z"></path><path d="M4,42v1a1,1,0,0,0,1,1h6.09a5.6,5.6,0,0,1,0-2Z"></path><path d="M47,39a3.964,3.964,0,0,0-3.18,1.6,1,1,0,0,1-.8.4H20.978a1,1,0,0,1-.8-.4A3.964,3.964,0,0,0,17,39a4,4,0,0,0,0,8,3.964,3.964,0,0,0,3.18-1.6,1,1,0,0,1,.8-.4H43.022a1,1,0,0,1,.8.4A3.964,3.964,0,0,0,47,47a4,4,0,0,0,0-8Z"></path><path d="M57,21H50.974a4.9,4.9,0,0,1,0,6H56V25H54V23h3a1,1,0,0,1,1,1V40h2V24A3,3,0,0,0,57,21Z"></path></g></svg>