<?xml version="1.0" encoding="UTF-8" standalone="no"?>
<svg
   xmlns:dc="http://purl.org/dc/elements/1.1/"
   xmlns:cc="http://creativecommons.org/ns#"
   xmlns:rdf="http://www.w3.org/1999/02/22-rdf-syntax-ns#"
   xmlns:svg="http://www.w3.org/2000/svg"
   xmlns="http://www.w3.org/2000/svg"
   xmlns:sodipodi="http://sodipodi.sourceforge.net/DTD/sodipodi-0.dtd"
   xmlns:inkscape="http://www.inkscape.org/namespaces/inkscape"
   data-name="Layer 1"
   viewBox="0 0 100 100"
   x="0px"
   y="0px"
   version="1.1"
   id="svg14"
   sodipodi:docname="mouth_gag_ball.svg"
   inkscape:version="1.0.1 (3bc2e813f5, 2020-09-07)">
  <style
     id="style845"></style>
  <metadata
     id="metadata20">
    <rdf:RDF>
      <cc:Work
         rdf:about="">
        <dc:format>image/svg+xml</dc:format>
        <dc:type
           rdf:resource="http://purl.org/dc/dcmitype/StillImage" />
      </cc:Work>
    </rdf:RDF>
  </metadata>
  <defs
     id="defs18" />
  <sodipodi:namedview
     pagecolor="#ffffff"
     bordercolor="#666666"
     borderopacity="1"
     objecttolerance="10"
     gridtolerance="10"
     guidetolerance="10"
     inkscape:pageopacity="0"
     inkscape:pageshadow="2"
     inkscape:window-width="1904"
     inkscape:window-height="882"
     id="namedview16"
     showgrid="false"
     inkscape:zoom="2.125"
     inkscape:cx="-41.386753"
     inkscape:cy="-17.733469"
     inkscape:window-x="-6"
     inkscape:window-y="0"
     inkscape:window-maximized="0"
     inkscape:current-layer="svg14" />
  <title
     id="title2">Noun_Project_100Icon_10px_grid_sextoy</title>
  <path
     id="path4"
     style="fill:#000000"
     d="M 74.919922 18.914062 C 65.206433 18.994226 54.574687 21.63375 46.070312 24.390625 C 33.170313 28.530625 20.000781 34.629297 13.300781 39.529297 A 3.22 3.22 0 0 0 12.339844 38 A 2.26 2.26 0 0 0 10.339844 37.580078 C 8.6998427 37.930078 6.8298438 40.940781 6.3398438 42.800781 A 4.53 4.53 0 0 0 6.4609375 44.919922 L 6.5390625 45.269531 C 6.3090625 45.809531 6.1292187 46.400234 5.9492188 46.990234 C 5.7692188 47.580234 5.6795312 47.879297 5.5195312 48.279297 C 1.5195312 58.839297 2.5203906 67.010547 8.6503906 72.560547 L 8.6992188 72.560547 L 12.330078 76.470703 A 11.35 11.35 0 0 0 20.830078 80.220703 C 21.200078 80.220703 21.590469 80.220156 21.980469 80.160156 A 0.49 0.49 0 0 0 22.240234 80.240234 L 22.349609 80.240234 A 10.93 10.93 0 0 1 24.410156 80.039062 A 13.17 13.17 0 0 0 25.929688 79.919922 L 26.929688 80.839844 A 0.5 0.5 0 0 0 27.160156 80.960938 L 27.419922 81.019531 A 3.2 3.2 0 0 0 28.140625 81.099609 A 3.64 3.64 0 0 0 28.910156 81.019531 A 4.37 4.37 0 0 0 30.339844 80.419922 L 30.439453 80.349609 C 31.139453 79.769609 37.350547 74.669685 38.310547 73.429688 A 3.67 3.67 0 0 0 38.980469 71.640625 A 23.52 23.52 0 0 0 42.310547 69.199219 A 33.3 33.3 0 0 1 51.310547 65.199219 A 16.1 16.1 0 0 0 78.410156 50.509766 C 78.410156 50.429766 78.409609 50.359297 78.349609 50.279297 A 25.21 25.21 0 0 0 89.810547 43 L 89.960938 42.830078 A 7.49 7.49 0 0 1 91.380859 42 A 4.28 4.28 0 0 0 93.080078 40.720703 A 2.54 2.54 0 0 0 93.509766 40.580078 C 94.049766 40.330078 94.689141 39.780547 96.119141 36.060547 L 96.210938 35.820312 A 3.19 3.19 0 0 0 96.609375 35.619141 A 0.48 0.48 0 0 0 96.730469 35.480469 L 96.789062 35.400391 A 0.5 0.5 0 0 0 96.789062 35.099609 L 96.830078 35 L 94.390625 23.640625 A 0.49 0.49 0 0 0 94.320312 23.480469 A 0.53 0.53 0 0 0 94.169922 23.320312 A 2.39 2.39 0 0 0 93.169922 22.619141 A 2.25 2.25 0 0 0 90.720703 21.720703 L 90.460938 21.800781 C 90.170935 21.690781 89.859766 21.569922 89.509766 21.419922 C 88.909766 21.159922 88.289922 20.940703 87.669922 20.720703 L 87.519531 20.619141 A 0.49 0.49 0 0 0 87.310547 20.619141 C 83.560547 19.369141 79.335144 18.877625 74.919922 18.914062 z M 88.060547 22.359375 L 88.160156 22.460938 C 88.380156 22.680937 88.619141 22.920625 88.869141 23.140625 A 7.17 7.17 0 0 0 88.400391 23.949219 L 88.060547 22.359375 z M 90.640625 26.230469 L 91.710938 31.230469 A 1.51 1.51 0 0 0 91.240234 30.800781 C 90.930234 29.420781 90.660781 28.279531 90.550781 27.769531 A 7.66 7.66 0 0 1 90.410156 26.990234 C 90.480156 26.710234 90.560625 26.460469 90.640625 26.230469 z M 75.501953 30.453125 C 80.196016 30.514648 84.464219 31.162891 88.199219 32.400391 C 88.149219 32.550391 88.100781 32.709141 88.050781 32.869141 A 8.4 8.4 0 0 1 87.359375 34.589844 A 30 30 0 0 1 75.060547 43.589844 A 16.09 16.09 0 0 0 46.839844 56.900391 C 44.419844 57.830391 42.110625 58.730703 39.390625 59.970703 A 35.41 35.41 0 0 1 35.779297 61.269531 C 35.119297 61.479531 34.480859 61.690391 33.880859 61.900391 A 14.15 14.15 0 0 0 29.140625 59.800781 C 25.930625 59.130781 23.190625 61.449297 23.140625 61.529297 C 23.090625 61.609297 17.399922 66.050938 16.419922 67.210938 C 15.209922 68.640938 15.889297 70.449531 17.029297 71.519531 L 17.419922 71.890625 A 2.43 2.43 0 0 1 16.830078 72.179688 A 9.63 9.63 0 0 1 10.699219 72.279297 C 9.5092176 71.379297 8.8696094 70.400391 8.3496094 67.400391 L 8.3808594 67.410156 A 17.92 17.92 0 0 1 9.140625 59.410156 A 0.48 0.48 0 0 0 9.140625 59.320312 C 9.140625 59.210313 9.2007031 59.119766 9.2207031 59.009766 C 9.3607031 58.579766 9.5003906 58.159531 9.6503906 57.769531 A 6.26 6.26 0 0 1 10.050781 57 A 2.48 2.48 0 0 0 11.210938 57.300781 A 2.51 2.51 0 0 0 12.269531 57.070312 C 12.719531 56.860312 13.220234 56.63 14.740234 52.5 A 3.5 3.5 0 0 0 15.740234 51.25 A 4.05 4.05 0 0 1 16.640625 50.099609 A 167.38 167.38 0 0 1 49 35 C 58.675 31.875 67.678516 30.350586 75.501953 30.453125 z M 92.669922 35.050781 L 92.810547 35.150391 A 2.74 2.74 0 0 0 93.220703 35.480469 L 92.919922 36.199219 L 92.769531 35.5 L 92.669922 35.050781 z M 10.589844 40.900391 L 10.630859 40.900391 L 10.699219 41.230469 A 1.76 1.76 0 0 0 10.169922 42.419922 A 0.49 0.49 0 0 0 10.169922 42.519531 L 12 51.369141 C 11.81 51.869141 11.640703 52.369531 11.470703 52.769531 L 9.7402344 44.609375 A 1.42 1.42 0 0 0 9.2207031 43.800781 A 2.23 2.23 0 0 1 9.2207031 43.490234 A 7.52 7.52 0 0 1 10.589844 40.900391 z M 67.427734 47.621094 A 2.1600001 2.1600001 0 0 1 69.505859 49.324219 A 2.1600001 2.1600001 0 0 1 67.851562 51.892578 A 2.1600001 2.1600001 0 0 1 65.283203 50.238281 A 2.1600001 2.1600001 0 0 1 66.9375 47.669922 A 2.1600001 2.1600001 0 0 1 67.427734 47.621094 z M 75.185547 51.931641 A 2.1600001 2.1600001 0 0 1 77.263672 53.634766 A 2.1600001 2.1600001 0 0 1 75.609375 56.203125 A 2.1600001 2.1600001 0 0 1 73.041016 54.548828 A 2.1600001 2.1600001 0 0 1 74.695312 51.980469 A 2.1600001 2.1600001 0 0 1 75.185547 51.931641 z M 63.191406 56.308594 A 2.1600001 2.1600001 0 0 1 65.267578 58.011719 A 2.1600001 2.1600001 0 0 1 63.613281 60.580078 A 2.1600001 2.1600001 0 0 1 61.046875 58.925781 A 2.1600001 2.1600001 0 0 1 62.701172 56.357422 A 2.1600001 2.1600001 0 0 1 63.068359 56.310547 A 2.1600001 2.1600001 0 0 1 63.191406 56.308594 z M 71.53125 60.744141 A 2.1600001 2.1600001 0 0 1 73.609375 62.447266 A 2.1600001 2.1600001 0 0 1 71.955078 65.015625 A 2.1600001 2.1600001 0 0 1 69.386719 63.361328 A 2.1600001 2.1600001 0 0 1 71.041016 60.792969 A 2.1600001 2.1600001 0 0 1 71.408203 60.746094 A 2.1600001 2.1600001 0 0 1 71.53125 60.744141 z M 36.519531 62.099609 C 36.099531 62.426276 35.700312 62.720469 35.320312 62.980469 L 34.900391 62.630859 L 36.119141 62.230469 L 36.519531 62.099609 z M 27.886719 62.601562 C 28.106152 62.595957 28.329531 62.613906 28.550781 62.660156 A 9.82 9.82 0 0 1 30.839844 63.480469 A 2.05 2.05 0 0 0 30.439453 64.009766 A 1.46 1.46 0 0 0 30.330078 65.009766 A 1.54 1.54 0 0 0 30.330078 65.169922 L 32.5 71.589844 A 0.49 0.49 0 0 0 32.619141 71.779297 A 3.59 3.59 0 0 0 34.699219 72.779297 C 33.999219 73.509297 32.910547 74.459609 31.560547 75.599609 L 22 66.160156 C 23 65.320156 24.099219 64.459063 24.949219 63.789062 C 24.949219 63.789062 26.350684 62.640802 27.886719 62.601562 z M 31.75 64 C 32 64.14 32.240703 64.300938 32.470703 64.460938 A 2 2 0 0 1 31.320312 64.509766 A 0.5 0.5 0 0 1 31.320312 64.460938 A 1.45 1.45 0 0 1 31.75 64 z M 19.699219 68.039062 L 28.570312 76.789062 L 21.779297 70.189453 A 0.51 0.51 0 0 0 21.589844 70.080078 A 0.42 0.42 0 0 0 21.439453 70.080078 A 5.38 5.38 0 0 0 20 70.330078 L 19 69.400391 A 2 2 0 0 1 18.699219 68.990234 C 18.849219 68.830234 19.149219 68.549065 19.699219 68.039062 z " />
  <path
     d="m 94.92,35.02 a 2.48,2.48 0 0 1 -1,-0.24 1.61,1.61 0 0 1 -0.32,-0.3 2.65,2.65 0 0 0 -0.27,-0.26 l -2,-9.27 a 4.22,4.22 0 0 0 2.23,-0.14 l 2.16,10.08 A 1.87,1.87 0 0 1 94.94,35 Z"
     id="path984" />
  <path
     d="m 90.92,41.09 a 10.67,10.67 0 0 0 -1.19,0.68 L 88.27,35 A 7.85,7.85 0 0 1 90,33.85 6.37,6.37 0 0 0 91.21,33.06 L 92.47,39 c 0.12,1.18 -0.42,1.51 -1.55,2.09 z"
     id="path980" />
  <path
     d="M 78.09,49.32 A 16,16 0 0 0 75.67,44.43 31.08,31.08 0 0 0 87.45,36 l 1.42,6.59 a 24.16,24.16 0 0 1 -10.78,6.73 z"
     id="path978" />
  <path
     d="M 42.23,68.08 39.56,61 39.81,60.9 c 2.64,-1.2 4.9,-2.09 7.25,-3 a 16,16 0 0 0 3.41,6.55 34.23,34.23 0 0 0 -8.24,3.63 z"
     id="path976" />
  <path
     d="m 33.46,71.17 -1.88,-5.59 c 1.62,0.09 4,-1.27 7.13,-4 l 2.67,7.1 c -2.46,2.04 -5.83,4.32 -7.92,2.5 z"
     id="path974" />
  <path
     d="m 24.37,79.06 a 13.05,13.05 0 0 0 -2,0.17 l -5.76,-5.94 c 0.29,0 0.61,-0.07 0.93,-0.1 a 4.83,4.83 0 0 0 4,-1.86 L 28,77.62 C 27,79 25.85,79 24.37,79.06 Z"
     id="path972" />
  <path
     d="M 13.06,75.83 10.8,73.4 a 10.09,10.09 0 0 0 4.68,0.13 L 21,79.26 a 10.22,10.22 0 0 1 -7.94,-3.43 z"
     id="path970" />
  <path
     d="m 8.22,70.69 c -4.58,-5 -5.28,-12.1 -2.1,-21.05 l 2.06,9.5 A 18.87,18.87 0 0 0 7.4,67.58 14.13,14.13 0 0 0 8.24,70.7 Z"
     id="path958" />
  <path
     d="M 8.72,46.1 9,45.94 l 1.62,7.51 a 1.74,1.74 0 0 1 -0.56,1.89 7.52,7.52 0 0 0 -1.29,2 l -2,-9.36 a 3.49,3.49 0 0 1 1.92,-1.89 z"
     id="path956" />
  <path
     d="m 13.63,41.3 a 12.51,12.51 0 0 1 1.19,-1.55 l 1.93,8.94 a 6.21,6.21 0 0 0 -2,2.13 2.4,2.4 0 0 1 -0.78,1 A 0.61,0.61 0 0 1 13.4,51.87 0.66,0.66 0 0 1 13,51.4 l -1.73,-8 v 0 c 0.95,-0.06 1.61,-1.01 2.37,-2.1 z"
     id="path952" />
  <path
     d="m 46.36,25.3 c 12.19,-4 28.75,-7.66 40.49,-3.82 l 0.9,4.16 c -0.08,0.26 -0.14,0.48 -0.18,0.64 a 4.51,4.51 0 0 0 0.12,2.12 c 0.11,0.52 0.38,1.66 0.69,3 C 78.23,28.07 64.3,29 48.67,34 a 170,170 0 0 0 -31,14.22 l -2,-9.16 C 22.73,34.49 34.65,29.1 46.36,25.3 Z"
     id="path950" />
</svg>
