<?xml version="1.0" encoding="UTF-8" standalone="no"?>
<svg
   xmlns:dc="http://purl.org/dc/elements/1.1/"
   xmlns:cc="http://creativecommons.org/ns#"
   xmlns:rdf="http://www.w3.org/1999/02/22-rdf-syntax-ns#"
   xmlns:svg="http://www.w3.org/2000/svg"
   xmlns="http://www.w3.org/2000/svg"
   xmlns:sodipodi="http://sodipodi.sourceforge.net/DTD/sodipodi-0.dtd"
   xmlns:inkscape="http://www.inkscape.org/namespaces/inkscape"
   xml:space="preserve"
   version="1.1"
   style="shape-rendering:geometricPrecision;text-rendering:geometricPrecision;image-rendering:optimizeQuality;"
   viewBox="0 0 60000 60000"
   x="0px"
   y="0px"
   fill-rule="evenodd"
   clip-rule="evenodd"
   id="svg10"
   sodipodi:docname="mouth_bandana.svg"
   inkscape:version="1.0.1 (3bc2e813f5, 2020-09-07)"><style
     id="style839"></style><metadata
     id="metadata14"><rdf:RDF><cc:Work
         rdf:about=""><dc:format>image/svg+xml</dc:format><dc:type
           rdf:resource="http://purl.org/dc/dcmitype/StillImage" /></cc:Work></rdf:RDF></metadata><sodipodi:namedview
     pagecolor="#ffffff"
     bordercolor="#666666"
     borderopacity="1"
     objecttolerance="10"
     gridtolerance="10"
     guidetolerance="10"
     inkscape:pageopacity="0"
     inkscape:pageshadow="2"
     inkscape:window-width="1623"
     inkscape:window-height="1008"
     id="namedview12"
     showgrid="false"
     inkscape:zoom="0.01"
     inkscape:cx="24044.513"
     inkscape:cy="31353.835"
     inkscape:window-x="0"
     inkscape:window-y="0"
     inkscape:window-maximized="0"
     inkscape:current-layer="g8" /><defs
     id="defs4"><style
       type="text/css"
       id="style2">
   
    .fil0 {fill:#000000;fill-rule:nonzero}
   
  </style></defs><g
     id="g8"
     style="fill:#000000"><path
       style="fill:#000000"
       d="m 32998,19338 c 4029,-302 8099,-1217 10994,-3028 2133,-1334 3623,-3161 3965,-5596 -531,465 -1120,933 -1729,1415 -1060,839 -2181,1727 -3122,2725 -151,161 -404,168 -564,17 -161,-151 -168,-404 -17,-564 974,-1032 2123,-1942 3210,-2803 2303,-1824 4305,-3409 3440,-5333 -19,-43 -30,-88 -34,-132 -160,-1064 22,-2113 570,-3078 356,-628 865,-1218 1534,-1750 -1362,-27 -2559,111 -3547,436 -1145,377 -2005,1006 -2506,1922 -642,1171 -769,1193 -1614,1333 -184,31 -413,69 -722,141 -1862,436 -2772,2737 -3748,5205 -1220,3085 -2537,6413 -5985,7174 67,244 103,507 103,779 0,411 -83,799 -228,1137 z"
       id="path853" /><path
       style="fill:#000000"
       d="m 30544,17108 c -4,7 -9,13 -13,20 -184,284 -295,659 -295,1074 0,459 136,870 357,1163 196,261 458,422 738,422 280,0 542,-161 738,-422 220,-292 357,-703 357,-1163 0,-459 -136,-870 -357,-1163 -196,-261 -458,-422 -738,-422 -280,0 -542,161 -738,422 -17,22 -33,45 -49,69 z"
       id="path849" /><path
       style="fill:#000000"
       d="m 29459,18574 c -15,-121 -23,-246 -23,-372 0,-380 71,-741 196,-1060 -2972,-1002 -4760,-3534 -6436,-5909 -2274,-3220 -4328,-6130 -8966,-3913 -10,5 -20,9 -30,13 v 1 c -2341,892 -3410,2667 -4480,4442 -472,783 -943,1566 -1526,2290 611,80 1430,-458 2286,-1103 9,-7 18,-14 28,-21 168,-127 338,-258 508,-389 703,-543 1405,-1086 2078,-1404 199,-94 437,-9 531,191 94,199 9,437 -191,531 -597,282 -1264,797 -1932,1313 l -97,75 c 1397,923 2489,946 3729,971 481,10 983,20 1527,77 124,13 187,19 246,25 780,75 1372,133 1994,700 2348,2143 4785,2510 7222,2877 1109,167 2218,334 3335,664 z"
       id="path847" /><path
       style="fill:#000000"
       d="m 31851,58303 c 1295,-2765 3982,-4665 6621,-6529 3374,-2384 6663,-4709 6534,-8672 -759,749 -1478,1496 -2059,2232 -136,173 -387,202 -559,66 -173,-136 -202,-387 -66,-559 766,-970 1730,-1928 2716,-2885 8,-9 17,-17 26,-25 112,-109 225,-218 338,-327 1323,-1280 2645,-2560 3494,-3819 408,-605 674,-1185 826,-1789 154,-610 195,-1251 154,-1975 -17,-298 -43,-580 -69,-864 -51,-553 -102,-1111 -90,-1661 -158,207 -315,411 -469,611 -731,948 -1394,1808 -1734,2473 -100,196 -340,274 -536,173 -196,-100 -274,-340 -173,-536 376,-735 1059,-1621 1812,-2598 504,-654 1042,-1351 1531,-2061 130,-261 295,-517 504,-767 1032,-1659 1648,-3326 831,-4615 -61,-95 -115,-171 -171,-249 -174,-241 -357,-494 -471,-808 -1614,2310 -3745,4049 -5900,5807 -1250,1020 -2507,2046 -3666,3190 -157,154 -410,152 -564,-5 -154,-157 -152,-410 5,-564 1183,-1167 2457,-2207 3722,-3240 2302,-1878 4576,-3735 6162,-6271 428,-685 743,-1567 734,-2542 -7,-792 -228,-1651 -776,-2523 -3,-4 -6,-9 -8,-13 -985,-1610 -2388,-1070 -3792,-530 -813,313 -1626,626 -2429,615 -2981,1833 -7092,2768 -11159,3084 702,1351 2829,1969 4908,2574 2079,605 4115,1197 4936,2556 1586,-1484 3210,-3216 4876,-5168 143,-167 395,-187 563,-44 167,143 187,395 44,563 -6008,7041 -11544,11295 -16774,11483 -4207,151 -8169,-2309 -11959,-8036 -18,-22 -33,-45 -46,-71 -938,-1425 -1866,-3050 -2784,-4887 -98,-197 -19,-436 178,-534 197,-98 436,-19 534,178 865,1730 1735,3265 2613,4617 1496,-326 2898,-1220 4270,-2095 1391,-887 2753,-1756 4207,-2060 -902,-227 -1814,-365 -2727,-502 -1990,-300 -3979,-599 -5955,-1805 -1632,-201 -2753,31 -3494,523 -621,413 -981,1021 -1156,1713 -184,727 -169,1545 -38,2335 261,1576 951,2997 1442,3345 179,128 221,377 94,556 -128,179 -377,221 -556,94 -623,-443 -1474,-2094 -1767,-3867 -43,-260 -75,-524 -93,-788 -2209,-60 -2980,529 -3031,1456 -57,1031 633,2517 1340,4041 579,1248 1169,2520 1409,3669 2,10 4,19 6,29 108,530 141,1034 62,1497 -36,217 -242,364 -459,328 -217,-36 -364,-242 -328,-459 31,-181 39,-373 28,-575 -282,255 -488,531 -624,826 -444,963 -168,2173 574,3478 783,1375 2076,2839 3606,4234 12,11 24,22 36,33 7,6 14,12 21,19 3584,3253 8393,6092 11007,6581 217,41 359,249 319,466 -41,217 -249,359 -466,319 -2614,-489 -7277,-3178 -10896,-6329 -236,1489 239,2778 1043,3859 291,391 626,756 986,1095 18,14 35,30 50,46 1423,1318 3230,2222 4382,2683 205,82 304,314 222,519 -82,205 -314,304 -519,222 -991,-396 -2442,-1106 -3767,-2118 830,2579 3747,4609 6614,6604 2265,1576 4499,3130 5754,4974 z"
       id="path845" /><path
       style="fill:#000000"
       d="m 16493,8426 c -128,50 -273,-14 -322,-143 -50,-128 14,-273 143,-322 970,-377 1870,-173 2644,283 1182,696 2062,1988 2425,2632 67,120 25,271 -95,339 -120,67 -271,25 -339,-95 -340,-601 -1159,-1807 -2244,-2446 -654,-385 -1409,-560 -2212,-248 z"
       id="path843" /></g></svg>
