<?xml version="1.0" encoding="UTF-8" standalone="no"?>
<svg
   xmlns:dc="http://purl.org/dc/elements/1.1/"
   xmlns:cc="http://creativecommons.org/ns#"
   xmlns:rdf="http://www.w3.org/1999/02/22-rdf-syntax-ns#"
   xmlns:svg="http://www.w3.org/2000/svg"
   xmlns="http://www.w3.org/2000/svg"
   xmlns:sodipodi="http://sodipodi.sourceforge.net/DTD/sodipodi-0.dtd"
   xmlns:inkscape="http://www.inkscape.org/namespaces/inkscape"
   version="1.1"
   x="0px"
   y="0px"
   viewBox="0 0 100 100"
   style="enable-background:new 0 0 100 100;"
   xml:space="preserve"
   id="svg20"
   sodipodi:docname="mouth_gag_dildo.svg"
   inkscape:version="1.0.1 (3bc2e813f5, 2020-09-07)"><style
     id="style2"></style><metadata
     id="metadata26"><rdf:RDF><cc:Work
         rdf:about=""><dc:format>image/svg+xml</dc:format><dc:type
           rdf:resource="http://purl.org/dc/dcmitype/StillImage" /></cc:Work></rdf:RDF></metadata><defs
     id="defs24" /><sodipodi:namedview
     pagecolor="#ffffff"
     bordercolor="#666666"
     borderopacity="1"
     objecttolerance="10"
     gridtolerance="10"
     guidetolerance="10"
     inkscape:pageopacity="0"
     inkscape:pageshadow="2"
     inkscape:window-width="1920"
     inkscape:window-height="1017"
     id="namedview22"
     showgrid="false"
     inkscape:zoom="2.125"
     inkscape:cx="75.72512"
     inkscape:cy="-33.80023"
     inkscape:window-x="-8"
     inkscape:window-y="-8"
     inkscape:window-maximized="1"
     inkscape:current-layer="svg20"
     inkscape:document-rotation="0"
     showguides="false" /><path
     id="path2"
     style="fill:#000000"
     d="M 6.5683594 44.505859 C 6.6901817 45.058831 6.7970498 45.604558 6.8515625 46.154297 C 7.0785625 48.417297 7.1493906 50.697703 7.2753906 52.970703 C 7.4163906 55.494703 8.0653281 57.842578 9.6113281 59.892578 C 9.7463281 60.071578 9.9052656 60.267562 9.9472656 60.476562 C 10.314266 62.314563 10.657156 64.157531 11.035156 66.144531 C 9.6171572 64.096531 10.319281 61.302875 8.4882812 59.671875 C 8.6652815 60.695875 8.9174375 61.769422 9.0234375 62.857422 C 9.2374375 65.052422 9.6902035 67.153125 11.533203 68.578125 C 12.412203 69.258125 12.928016 70.084125 13.291016 71.078125 C 13.435016 71.473125 13.603406 71.866516 13.816406 72.228516 C 14.567406 73.506516 15.622641 74.326969 17.181641 74.042969 C 18.806641 73.746969 20.092625 72.891625 20.640625 71.265625 C 20.837625 70.682625 21.112547 70.610312 21.435547 70.945312 C 22.348547 71.895314 23.284156 72.848828 24.035156 73.923828 C 24.906156 75.170828 26.634953 76.136547 28.126953 75.935547 C 28.969953 75.821547 29.656531 75.453203 29.769531 74.533203 C 29.905531 73.433203 29.64875 72.430937 28.71875 71.585938 C 28.69675 71.769937 28.673687 71.8535 28.679688 71.9375 C 28.834688 74.0595 28.326047 74.451436 26.373047 73.648438 C 25.939047 73.470438 25.540594 73.163609 25.183594 72.849609 C 24.304594 72.078609 23.970953 70.883172 22.876953 70.201172 C 22.103953 69.719172 21.640078 68.720828 21.080078 67.923828 C 20.770078 67.480828 20.422187 66.423766 20.492188 66.384766 C 20.951186 66.913766 21.410141 67.442656 21.869141 67.972656 C 21.909141 67.947656 21.728641 67.034656 21.556641 66.472656 C 22.966641 66.882656 23.716844 66.099609 24.464844 65.224609 C 25.630844 67.785609 26.75375 70.250922 27.96875 72.919922 C 28.17775 72.246922 28.332719 71.741062 28.511719 71.164062 C 28.898719 71.329065 29.299109 71.461156 29.662109 71.660156 C 23.523947 58.558562 18.444685 51.754279 10.892578 56.84375 C 11.324578 57.51675 11.136328 57.891656 10.486328 58.347656 C 10.272328 57.997656 10.067766 57.683469 9.8847656 57.355469 C 8.4697656 54.817469 8.088125 52.0215 7.828125 49.1875 C 7.6844886 47.61865 7.5449268 46.043481 7.0761719 44.505859 L 6.5683594 44.505859 z M 15.636719 55.625 C 16.073781 55.596078 16.255859 55.897062 16.255859 55.976562 C 15.274859 56.888562 14.240078 57.748562 13.330078 58.726562 C 12.457078 59.662562 12.189734 60.767547 12.677734 62.060547 C 13.653734 64.646547 14.555078 67.260047 15.455078 69.873047 C 15.665078 70.482047 15.897391 70.853734 16.650391 70.802734 C 17.348391 70.754734 18.059812 70.901656 18.882812 70.972656 C 18.188813 72.033656 17.321391 72.376047 16.150391 72.373047 C 14.986391 72.370047 14.468328 71.804406 14.111328 70.816406 C 13.108328 68.034406 12.075344 65.262094 11.027344 62.496094 C 10.387344 60.808094 10.733859 59.318953 12.005859 58.126953 C 12.947859 57.244953 13.953328 56.367203 15.111328 55.783203 C 15.316328 55.679953 15.491031 55.634641 15.636719 55.625 z M 16.851562 56.623047 C 17.123938 56.633672 17.393578 56.785 17.642578 57.0625 C 19.263578 58.8675 20.928125 60.639437 22.453125 62.523438 C 23.303125 63.573437 22.981656 64.589109 21.847656 65.037109 C 20.411656 62.477109 18.677953 60.233891 16.501953 58.337891 C 16.124953 58.007891 15.438922 57.695344 16.044922 57.027344 C 16.303422 56.742344 16.579187 56.612422 16.851562 56.623047 z M 14.132812 60.689453 C 15.175812 61.106453 16.196313 61.514672 17.445312 62.013672 C 15.488312 62.102672 14.187812 61.561453 14.132812 60.689453 z M 14.285156 63.148438 C 15.668156 63.266438 17.050984 63.227406 18.333984 63.566406 C 18.889984 63.713406 19.488766 64.57975 19.634766 65.21875 C 19.950766 66.60375 19.988437 68.0535 20.148438 69.5625 C 19.018438 69.4795 17.696859 69.399531 16.380859 69.269531 C 16.188859 69.249531 15.919375 69.012313 15.859375 68.820312 C 15.326375 67.122313 14.829078 65.412125 14.330078 63.703125 C 14.287078 63.553125 14.303156 63.387437 14.285156 63.148438 z " /><path
     style="fill:#000000"
     d="m 40.898438,37.316406 c 1.351624,-0.05837 2.746031,0.342875 3.832031,1.171875 3.288,2.509 4.997219,5.770922 4.324219,9.919922 -0.54,3.328 -2.552204,5.811063 -5.408204,7.539063 -1.597,0.966 -3.161343,2.05264 -5.152343,2.18164 -2.954,0.192 -4.804438,-1.076453 -5.523438,-3.939453 -0.236,-0.94 -0.407828,-1.895484 -0.673828,-3.146484 -0.999,1.438 -0.852453,2.781156 -0.689453,4.160156 -1.356,-0.825 -2.112063,-4.412031 -1.164063,-5.832031 1.133,-1.699 2.024672,-3.558485 3.138672,-5.271485 1.164,-1.791 2.323094,-3.622218 3.746094,-5.199218 0.9095,-1.0085 2.218688,-1.52561 3.570313,-1.583985 z"
     id="path858" /><path
     style="fill:#000000"
     d="m 51.060547,34.28125 c 0.353125,0.03963 0.707672,0.159813 1.076172,0.320312 4.059,1.768001 6.002547,5.052282 6.560547,9.238282 0.268,2.013 -0.05597,4.038234 -1.042969,5.865234 -0.256,0.475 -0.733891,1.023344 -1.212891,1.152344 -2.15,0.58 -4.335515,1.022156 -6.603515,1.535156 2.498,-6.751 0.48175,-11.662078 -5.90625,-15.205078 2.182,-0.991 4.115546,-1.882141 6.060547,-2.744141 0.362999,-0.161 0.715234,-0.201734 1.068359,-0.162109 z"
     id="path856" /><path
     style="fill:#000000"
     d="m 38.990234,18.054688 c 1.911125,0.03487 3.809766,0.531968 5.697266,1.480468 2.586,1.299 5.125016,2.679063 7.291016,4.664063 2.378,2.18 5.198672,3.702265 8.138672,4.947265 6.313999,2.675 11.336765,6.95311 15.509765,12.28711 2.402,3.07 4.875594,6.117062 6.933594,9.414062 3.063,4.907 3.190484,10.172235 0.646484,15.365235 -0.585,1.192 -1.689875,2.247531 -2.796875,3.019531 -0.62,0.433 -1.76,0.303969 -2.625,0.167969 -2.661,-0.417 -4.963,-1.738954 -7.125,-3.251953 -1.621,-1.135001 -3.197047,-2.374141 -4.623047,-3.744141 -3.682,-3.537 -7.75189,-6.539078 -12.08789,-9.205078 -0.051,-0.032 -0.07908,-0.09978 -0.330078,-0.425781 0.692,0 1.210203,-0.111469 1.658203,0.01953 1.744,0.51 2.882422,0.175765 3.857422,-1.365235 1.43,-2.258 1.48889,-4.727859 0.96289,-7.255859 -0.137,-0.661 -0.32814,-1.31275 -0.49414,-1.96875 0.062,-0.034 0.123547,-0.06756 0.185546,-0.101563 0.454001,0.615001 0.908985,1.228657 1.458985,1.972657 -0.469,-5.219 -4.642969,-9.972375 -9.667969,-11.234375 -1.695,-0.426 -3.366062,-0.940125 -5.164062,-1.328125 1.004,0.67 2.0085,1.340922 3.0625,2.044922 -0.696,0.216 -1.430297,0.31625 -2.029297,0.65625 -1.259,0.713 -2.438969,1.563078 -3.667969,2.330078 -0.271,0.169 -0.664156,0.390547 -0.910156,0.310547 -2.466,-0.803 -4.456813,0.05278 -6.257813,1.675781 -0.188,0.169 -0.401484,0.30789 -0.771484,0.587891 -1.002,-1.231001 -2.155969,-2.328391 -2.917969,-3.650391 -1.755,-3.045 -3.321078,-6.213828 -4.080078,-9.673828 -0.308,-1.404 -0.266875,-2.894656 -0.296875,-4.347657 -0.015,-0.734999 0.392562,-1.056203 1.226563,-1.158203 1.172,-0.143 2.375359,-0.443453 3.443359,-0.939453 1.939,-0.9 3.862312,-1.327843 5.773437,-1.292968 z"
     id="path851" /><path
     d="m 92.398,71.331 c 0.06,0.639 0.061,1.373 -0.193,1.937 -1.659,3.678 -4.552,6.195 -7.948,8.213 -8.228,4.889 -16.897,5.276 -25.901,2.627 -5.025,-1.478 -9.773,-3.573 -14.34,-6.107 -4.875,-2.705 -9.899,-5.083 -15.162,-6.941 -0.26,-0.092 -0.598,-0.258 -0.693,-0.478 -0.801,-1.867 -1.555,-3.754 -2.43,-5.898 1.03,0.249 1.777,0.428 2.523,0.61 5.979,1.458 11.526,4.06 17.153,6.458 4.105,1.749 8.272,3.334 12.704,4.07 0.854,0.142 1.719,0.217 2.579,0.322 0.009,-0.053 -1.446,-0.4 -2.13,-0.66 C 54.276,73.86 49.941,72.35 45.75,70.51 39.098,67.589 32.487,64.606 25.286,63.247 24.956,63.185 24.67,62.89 24.364,62.704 c 0.056,-0.119 0.113,-0.238 0.169,-0.357 1.459,0.405 2.946,0.729 4.373,1.227 7.373,2.573 14.735,5.18 22.094,7.795 4.447,1.581 8.858,3.297 13.579,3.9 7.413,0.947 13.976,-1.042 19.674,-5.864 0.893,-0.756 1.684,-1.631 2.559,-2.409 2.992,-2.659 4.05,-6.09 4.034,-9.962 -0.001,-0.326 0.072,-1.071 0.145,-1.173 1.373,2.145 1.764,4.432 1.388,6.9 -0.231,1.51 -0.503,3.035 -0.504,4.553 0,1.338 0.397,2.672 0.523,4.017 z"
     id="path875" /><path
     d="m 79.798,70.951 c -1.106,0.794 -1.645,0.747 -2.916,-0.226 0.993,0.077 1.897,0.147 2.916,0.226 z"
     id="path859" /><path
     d="m 10.139,36.955 c 2.736,-9.781 10.337,-15.725 16.557,-17.966 0.029,0.398 0.055,0.77 0.078,1.092 -0.988,0.561 -1.937,1.051 -2.834,1.623 -0.901,0.574 -1.75,1.228 -2.802,1.976 0.3,0 0.376,0.02 0.437,-0.003 1.633,-0.614 3.254,-1.265 4.902,-1.836 0.725,-0.251 1.172,-0.439 1.226,-1.415 0.083,-1.517 1.035,-2.696 2.192,-3.671 1.612,-1.36 3.523,-2.065 5.542,-2.524 2.414,-0.548 4.842,-0.531 7.278,-0.158 2.754,0.422 4.915,2.019 7.027,3.645 4.543,3.498 9.381,6.451 14.817,8.349 7.205,2.516 12.743,7.181 16.784,13.532 2.491,3.915 4.551,8.107 6.751,12.204 0.659,1.228 -0.469,2.951 -2.093,3.234 0.891,0.96 1.87,0.803 2.91,0.446 0,0.774 0.014,1.451 -0.003,2.128 -0.047,1.886 -0.079,3.772 -0.184,5.655 -0.024,0.437 -0.209,0.958 -0.502,1.268 -0.814,0.86 -1.725,1.629 -2.673,2.378 0.694,-3.283 0.576,-6.526 0.005,-9.739 -0.27,-1.52 -0.718,-3.051 -1.352,-4.457 -2.116,-4.692 -4.513,-9.212 -7.8,-13.246 -3.648,-4.477 -8.166,-7.695 -13.384,-10.025 -1.069,-0.477 -2.133,-0.974 -3.227,-1.389 -3.488,-1.322 -6.457,-3.485 -9.365,-5.741 -2.66,-2.064 -5.406,-3.973 -8.656,-5.006 -2.762,-0.878 -5.507,-0.867 -8.214,0.246 -0.903,0.372 -1.787,0.798 -2.709,1.11 -2.091,0.707 -2.954,2.289 -3.262,4.331 -0.328,2.172 -0.059,4.281 0.581,6.36 0.094,0.308 0.171,0.621 0.279,1.015 -2.261,0.256 -4.393,0.85 -6.245,2.087 -5.317,3.551 -8.689,8.327 -8.65,14.939 0.02,3.224 1.389,5.898 4.374,7.493 1.172,0.626 2.074,1.481 2.532,2.826 -1.3,-1.026 -2.6,-2.05 -3.898,-3.078 -0.306,-0.242 -0.569,-0.557 -0.905,-0.739 -1.429,-0.773 -1.987,-2.112 -2.545,-3.535 -2.216,-5.651 -1.936,-11.259 0.112,-16.868 0.056,-0.153 0.113,-0.305 0.164,-0.459 0.007,-0.022 -0.017,-0.054 -0.115,-0.344 -3.633,7.798 -3.39,15.254 0.629,22.689 -0.385,0.25 -0.727,0.472 -1.294,0.841 C 9.384,50.026 8.262,43.666 10.139,36.955 Z"
     id="path855" /><path
     d="M74.554,75.675c6.163,0.056,15.474-6.332,16.109-11.065C86.793,70.506,80.476,72.72,74.554,75.675z"
     id="path4" /><path
     d="M73.45,79.122c-0.542-0.123-1.276,0.067-1.754,0.383c-0.321,0.213-0.342,0.879-0.497,1.343  c0.092,0.061,1.368-1.291,3.412-0.596C74.229,79.855,73.9,79.224,73.45,79.122z"
     id="path6" /><path
     d="M57.21,78.157c-0.127,0.103-0.406,0.328-0.686,0.553c0.182,0.214,0.343,0.451,0.551,0.637  c0.333,0.297,0.682,0.583,1.053,0.829c0.192,0.128,0.569,0.288,0.649,0.211c0.182-0.174,0.317-0.486,0.318-0.742  C59.097,78.907,58.23,78.152,57.21,78.157z"
     id="path8" /><path
     d="M31.025,68.217c-0.303,0.065-0.51,0.579-0.76,0.894c0.07,0.088,1.521,1.16,2.334,1.394c0.368-0.733,0.296-1.45-0.281-1.963  C32.013,68.271,31.424,68.131,31.025,68.217z"
     id="path10" /><path
     d="M67.854,79.523c-0.671-0.363-1.339-0.363-1.835,0.266c1.004,0.152,1.84,0.584,2.599,1.572  C69.013,80.443,68.552,79.9,67.854,79.523z"
     id="path12" /><path
     d="M49.773,76.969c0.424,0.215,0.76,0.341,1.044,0.543c0.284,0.201,0.506,0.487,0.772,0.715c0.196,0.167,0.42,0.301,0.631,0.45  c0.089-0.312,0.321-0.666,0.243-0.927C52.179,76.805,50.809,76.377,49.773,76.969z"
     id="path14" /><path
     d="M40.587,73.024c0.596,0.688,1.156,1.334,1.768,2.038c0.663-0.707,0.357-1.311-0.089-1.832  C41.755,72.632,41.136,72.577,40.587,73.024z"
     id="path16" /><path
     d="M62.997,79.193c-0.622-0.183-1.171-0.105-1.435,0.486c0.791,0.43,1.47,0.798,2.199,1.194  C64.035,80.029,63.796,79.427,62.997,79.193z"
     id="path18" /></svg>
