<svg xmlns="http://www.w3.org/2000/svg" viewBox="0 0 512 512" x="0px" y="0px"><title>equipment necklace</title><path d="M397.12,26.8c-.9.27-1.8.55-2.7.85-20.58,6.81-41.71,11.68-63.25,13.5-5.1.43-10.42.83-15.84,1.17a360.31,360.31,0,0,1-64.68-1.76C215,36.36,121.07,32,62.2,90.9a94.62,94.62,0,0,0-6.41,7C4,159.33,17,253.84,82.85,298.81a189.35,189.35,0,0,0,27.75,15.73,21,21,0,0,0,29.68-20c0-.56-.06-1.14-.11-1.72A21.31,21.31,0,0,0,130,276.59c-17.79-10.72-62-43.17-51.14-95.69,0,0,15.59-74.94,110.8-93.75a203.35,203.35,0,0,1,42.86-3.61c18.35.3,52.09,1.28,77.05,4.49a189.87,189.87,0,0,0,46.86.42c14.23-1.71,30.65-5.16,44.94-12,7.57-3.62,16.35-4,23.86-.24a31.3,31.3,0,0,1,6.52,4.4,28.14,28.14,0,0,1,9,16.49c3.6,20.66-8.24,90.23-55,156.92,0,0-42.65,61.87-168.06,71.07-9,.66-17,6.2-19.34,15.17-.06.21-.11.43-.16.64a21,21,0,0,0,15.9,25.66c33.05,6.8,115.6,13.31,174.78-42.52,0,0,74.9-62.79,95.71-177.42a252.83,252.83,0,0,0,3.28-52.31C485.63,47.14,441.17,13.67,397.12,26.8Z"></path><path d="M166.49,324.66a20.13,20.13,0,0,0-28.27,3.41l-15,19.12a51.82,51.82,0,0,0-54.36,18L38.12,404.31A51.78,51.78,0,0,0,46.88,477h0a51.78,51.78,0,0,0,72.7-8.75l30.72-39.13a51.79,51.79,0,0,0,4.58-57.08l15-19.12A20.15,20.15,0,0,0,166.49,324.66Z"></path></svg>