<svg xmlns="http://www.w3.org/2000/svg" xmlns:xlink="http://www.w3.org/1999/xlink" version="1.1" x="0px" y="0px" viewBox="0 0 100 100" enable-background="new 0 0 100 100" xml:space="preserve"><g><g><path d="M30.922,51.047c-9.39-2.383-15.589-6.472-15.589-11.118v18.619c0,4.242,5.169,8.019,13.213,10.457    c-1.041-2.207-1.592-4.633-1.592-7.141C26.954,57.839,28.392,54.031,30.922,51.047z"></path><path d="M30.548,46.394c5.331-1.324,12.005-2.113,19.254-2.113s13.923,0.789,19.254,2.113c7.498-1.861,12.335-4.784,12.335-8.072    c0-5.627-14.143-10.187-31.589-10.187s-31.589,4.56-31.589,10.187C18.213,41.609,23.05,44.532,30.548,46.394z"></path><path d="M50,53.246c-5.245,0-10.214-0.449-14.67-1.251c-2.887,2.446-4.571,6.032-4.571,9.869c0,3.151,1.136,6.13,3.19,8.486    c4.8,0.966,10.258,1.515,16.051,1.515c19.146,0,34.667-5.963,34.667-13.317V39.929C84.667,47.284,69.146,53.246,50,53.246z     M40.304,64.711c-1.451,0-2.628-1.153-2.628-2.576s1.177-2.576,2.628-2.576s2.628,1.153,2.628,2.576S41.755,64.711,40.304,64.711z     M52.356,65.657c-1.45,0-2.627-1.153-2.627-2.577c0-1.423,1.177-2.576,2.627-2.576c1.451,0,2.628,1.153,2.628,2.576    C54.984,64.504,53.808,65.657,52.356,65.657z M64.773,64.294c-1.451,0-2.627-1.152-2.627-2.576c0-1.423,1.176-2.576,2.627-2.576    s2.627,1.153,2.627,2.576C67.4,63.142,66.225,64.294,64.773,64.294z"></path></g></g></svg>