<svg xmlns="http://www.w3.org/2000/svg" viewBox="0 0 512 512" x="0px" y="0px"><title>equipment wizard cover</title><path d="M82.13,434c4.47-55.81,28-137.38,113.81-213.34A53.71,53.71,0,0,0,214.29,177c-.81-11.72-5.59-24.91-18.83-37.16,0,0-37.74-22.62-12.58-56.54S277.8,59.57,277.8,59.57s31,3.2,49.84,24a39.42,39.42,0,0,1,.76,51.91c-9.79,11.47-27.24,23.13-58.15,25.84-29.42,2.57-47.11,33.41-33.91,59.55C264.19,276,299.27,359.59,310.76,448.6c4.39,34,44.15,50.84,72.05,30.52,43.86-32,94.46-83.61,104.81-156.15A47.12,47.12,0,0,0,473,282.23c-18-17-43.45-48.46-37.41-85.82,2.79-17.26,1.11-30.51-2.58-40.59a9,9,0,0,0-16.32-1.39l-.09.15c-11.63,20-34.92,44.49-79.86,47.59l-.73,0A10.25,10.25,0,0,1,325.76,192a10.45,10.45,0,0,1,9.81-10.19c25.16-1.82,43.51-17.56,55.15-31.81,16.59-20.33,19.37-48.62,5.9-71.08C385.07,59.67,361.05,39.51,312.11,29c0,0-121.23-23.75-170.4,32.79,0,0-23.32,18.26-19.81,57.43a13.72,13.72,0,0,1-8.05,13.82c-11.44,5.09-28.92,16.66-27.72,39.46a15.58,15.58,0,0,1-3.2,10.52C64.3,206.83-12.84,316.66,45.18,440.47,53.58,458.39,80.56,453.7,82.13,434Z"></path></svg>