<svg xmlns="http://www.w3.org/2000/svg" viewBox="0 0 512 512" x="0px" y="0px"><title>equipment wizard hood</title><path d="M438.62,325.32c-.43-.84-.88-1.7-1.35-2.56a46.65,46.65,0,0,0-3.45-5.37c-8.47-11.47-42-52.63-102.57-76.58a99.57,99.57,0,0,1-43.1-32.12c-10.53-13.9-18.44-31.35-10-47.15,8.72-16.43,23.58-24.94,36.3-29.34A23.82,23.82,0,0,0,328,99.41c-14.83-30.82-49.78-76-127.27-76,0,0-84.61-2.21-81.51,83.43,0,0,.67,42.51,24.69,73.17a65.71,65.71,0,0,1,12.42,54.77c-6.71,30.27-24.6,74.85-71.13,122.12a60.71,60.71,0,0,0-6.75,77c9.66,14,23.51,30.44,43.37,48.55,13.77,12.54,36,4.71,39-13.67,7.56-46,20.59-122.36,33-181.9,1.72-8.21,13.33-8.52,15.48-.41,9.12,34.4,24.51,96.5,41.32,181.69a20.93,20.93,0,0,0,35.78,10.3c18.38-19.57,42.77-44.18,63.48-60.47a85.93,85.93,0,0,1,45.59-18.18l.8-.07C432.85,396.77,455.38,358,438.62,325.32ZM219.12,158.87c-8.27,15.73-28.75,20.13-43.39,10-10.94-7.53-22.76-22-24.88-49.66-4-52,24.05-57.29,24.05-57.29s40.47-8.21,49.85,52.79C224.75,114.76,228.91,140.26,219.12,158.87Z"></path></svg>