<svg xmlns="http://www.w3.org/2000/svg" viewBox="0 0 68 58" x="0px" y="0px"><path fill="#000000" d="M568,463 L568,456 L572,456 L572,463 L576,463 C576,459.686292 578.686292,457 582,457 C585.313708,457 588,459.686292 588,463 C588,464.522487 587.428396,465.930657 586.47253,467 C587.428396,468.069343 588,469.477513 588,471 C588,474.313708 585.313708,477 582,477 C578.686292,477 576,474.313708 576,471 L564,471 C564,474.313708 561.313708,477 558,477 C554.686292,477 552,474.313708 552,471 C552,469.477513 552.571604,468.069343 553.52747,467 C552.571604,465.930657 552,464.522487 552,463 C552,459.686292 554.686292,457 558,457 C561.313708,457 564,459.686292 564,463 L568,463 Z M536.968045,427.155652 C540.584294,422.077442 553.921186,419 570,419 C586.078999,419 599.416012,422.077512 603.03208,427.155827 L600.723406,430.89788 C599.925201,432.234424 597.959072,433.480948 595.091516,434.544894 C589.384763,432.356889 580.115486,431 570,431 C559.884507,431 550.615224,432.356891 544.908472,434.544899 C542.040929,433.480949 540.074799,432.234424 539.276594,430.89788 L538.553144,429.724736 L536.968045,427.155652 Z M603.299043,432.436091 L604,431.3 L604,444 C604,450.751108 588.892828,453 570,453 C551.107172,453 536,450.751108 536,444 L536,431.3 L536.700957,432.436091 C539.857221,437.721057 553.310493,440.955908 569.664509,440.999553 C569.77626,440.999834 570.22374,440.999834 570.33545,440.999502 C586.689507,440.955908 600.142779,437.721057 603.299043,432.436091 Z" transform="translate(-536 -419)"></path></svg>