<svg xmlns="http://www.w3.org/2000/svg" xmlns:xlink="http://www.w3.org/1999/xlink" version="1.1" x="0px" y="0px" viewBox="0 0 100 100" enable-background="new 0 0 100 100" xml:space="preserve"><path d="M85.264,43.359c0-1.147-0.678-2.119-1.619-2.492c-0.029-0.082-0.068-0.165-0.127-0.248c0-0.001-0.002-0.002-0.002-0.003  c-0.012-0.047-0.004-0.087-0.023-0.137c-2.08-5.265-0.516-10.519-1.248-15.941c-0.457-3.388-1.904-5.873-3.541-8.412  c0.074-0.181,0.129-0.371,0.146-0.572c0.043-0.52-0.119-1.025-0.457-1.423l-3.289-3.887c-0.67-0.792-1.873-0.976-2.824-0.17  c-0.396,0.336-0.641,0.809-0.684,1.329c-0.045,0.521,0.117,1.026,0.455,1.425l3.289,3.886c0.373,0.44,0.916,0.692,1.494,0.692  c0.146,0,0.291-0.023,0.436-0.058c0.234,0.327,0.467,0.652,0.703,0.981c2.029,2.839,2.377,6.073,2.453,9.461  c0.068,3.163-0.238,6.159,0.129,9.149c-1.895-2.103-3.953-4.046-5.996-6.047c-1.918-1.88-3.59-3.915-4.994-6.207  c-0.602-0.979-0.965-1.977-1.223-2.986c0.16-0.095,0.313-0.205,0.443-0.345c0.355-0.382,0.541-0.879,0.523-1.399l-0.176-5.09  c-0.037-1.058-0.893-1.886-1.951-1.886l-0.162,0.004c-1.076,0.037-1.922,0.942-1.885,2.02l0.178,5.088  c0.025,0.802,0.525,1.47,1.227,1.749c0.516,2.319,1.361,4.493,3.346,6.874c3.639,4.361,8.182,7.85,11.547,12.439  c-0.654,0.479-1.084,1.289-1.084,2.206c0,0.556,0.16,1.072,0.43,1.5c-0.27,0.428-0.43,0.944-0.43,1.5  c0,0.552,0.164,1.057,0.432,1.482c-0.016,0.039-0.021,0.08-0.027,0.122c-0.828,0.429-1.404,1.338-1.404,2.396  c0,0.585,0.18,1.121,0.477,1.563c-0.867,0.41-1.477,1.348-1.477,2.438c0,0.779,0.32,1.471,0.816,1.957  c-0.002,0.029-0.004,0.057-0.002,0.088c-0.494,0.486-0.814,1.176-0.814,1.955c0,0.27,0.049,0.527,0.117,0.773  c-0.672,0.475-1.117,1.295-1.117,2.227c0,0.584,0.18,1.121,0.477,1.563c-0.867,0.41-1.477,1.348-1.477,2.438  c0,0.584,0.18,1.121,0.477,1.563c-0.867,0.41-1.477,1.348-1.477,2.438c0,0.584,0.18,1.121,0.477,1.563  c-0.697,0.33-1.221,1.002-1.402,1.816c-1.172,0.203-2.074,1.295-2.074,2.621c0,0.131,0.018,0.258,0.035,0.383  c-0.98,0.186-1.758,1.002-1.973,2.045c-0.193-0.053-0.395-0.09-0.604-0.09c-1.174,0-2.156,0.896-2.398,2.09  c-0.195-0.053-0.395-0.09-0.602-0.09c-1.34,0-2.428,1.166-2.455,2.609c-0.424-0.375-0.957-0.609-1.545-0.609  c-1.176,0-2.156,0.896-2.398,2.09c-0.195-0.053-0.395-0.09-0.602-0.09c-0.859,0-1.615,0.48-2.055,1.205  c-0.291-0.131-0.611-0.205-0.945-0.205c-1.059,0-1.955,0.73-2.301,1.746c-0.441-0.459-1.039-0.746-1.699-0.746  c-0.615,0-1.17,0.254-1.602,0.658c-0.438-0.738-1.197-1.23-2.066-1.23c-0.66,0-1.258,0.287-1.701,0.746  c-0.346-1.016-1.242-1.746-2.3-1.746c-0.335,0-0.654,0.074-0.946,0.205c-0.439-0.725-1.194-1.205-2.054-1.205  c-0.208,0-0.407,0.037-0.602,0.09c-0.243-1.193-1.224-2.09-2.398-2.09c-0.589,0-1.122,0.234-1.546,0.609  c-0.026-1.443-1.115-2.609-2.454-2.609c-0.208,0-0.408,0.037-0.602,0.09c-0.243-1.193-1.225-2.09-2.398-2.09  c-0.21,0-0.41,0.037-0.604,0.09c-0.214-1.043-0.992-1.859-1.973-2.045c0.018-0.125,0.036-0.252,0.036-0.383  c0-1.326-0.902-2.418-2.074-2.621c-0.182-0.814-0.706-1.486-1.403-1.816c0.297-0.441,0.478-0.979,0.478-1.563  c0-1.09-0.609-2.027-1.478-2.438c0.297-0.441,0.478-0.979,0.478-1.563c0-1.09-0.609-2.027-1.478-2.438  c0.297-0.441,0.478-0.979,0.478-1.563c0-0.932-0.446-1.752-1.118-2.227c0.069-0.246,0.118-0.504,0.118-0.773  c0-0.779-0.32-1.469-0.814-1.955c0.002-0.031,0-0.059-0.002-0.088c0.495-0.486,0.816-1.178,0.816-1.957  c0-1.09-0.609-2.027-1.478-2.438c0.297-0.44,0.478-0.977,0.478-1.562c0-1.058-0.577-1.967-1.404-2.396  c-0.006-0.042-0.013-0.083-0.027-0.122c0.267-0.425,0.432-0.93,0.432-1.482c0-0.556-0.16-1.072-0.431-1.5  c0.271-0.428,0.431-0.944,0.431-1.5c0-0.917-0.431-1.727-1.084-2.206c3.365-4.59,7.908-8.078,11.546-12.439  c1.985-2.381,2.83-4.555,3.347-6.874c0.701-0.278,1.2-0.947,1.226-1.749l0.178-5.088c0.037-1.078-0.809-1.983-1.886-2.02  l-0.162-0.004c-1.057,0-1.914,0.829-1.95,1.886l-0.176,5.09c-0.019,0.52,0.167,1.018,0.522,1.399c0.131,0.14,0.283,0.25,0.443,0.345  c-0.257,1.01-0.621,2.007-1.222,2.986c-1.405,2.292-3.076,4.327-4.995,6.207c-2.042,2-4.102,3.944-5.995,6.047  c0.367-2.99,0.06-5.986,0.129-9.149c0.075-3.389,0.423-6.623,2.453-9.461c0.235-0.329,0.469-0.654,0.703-0.981  c0.144,0.035,0.289,0.058,0.436,0.058c0.577,0,1.121-0.252,1.493-0.692l3.29-3.886c0.337-0.399,0.499-0.905,0.455-1.425  c-0.044-0.52-0.287-0.992-0.685-1.329c-0.95-0.806-2.154-0.623-2.823,0.17l-3.29,3.887c-0.337,0.397-0.499,0.903-0.456,1.423  c0.017,0.201,0.071,0.391,0.146,0.572c-1.637,2.54-3.083,5.024-3.541,8.412c-0.732,5.422,0.833,10.676-1.247,15.941  c-0.02,0.049-0.012,0.09-0.023,0.137c-0.001,0.001-0.002,0.002-0.003,0.003c-0.059,0.083-0.097,0.166-0.126,0.248  c-0.942,0.373-1.62,1.345-1.62,2.492c0,0.556,0.159,1.072,0.43,1.5c-0.271,0.428-0.43,0.944-0.43,1.5  c0,1.09,0.609,2.027,1.478,2.438c-0.297,0.44-0.478,0.977-0.478,1.562c0,1.089,0.609,2.026,1.478,2.438  c-0.297,0.439-0.478,0.977-0.478,1.563c0,0.801,0.335,1.512,0.854,2c-0.519,0.488-0.854,1.199-0.854,2  c0,0.932,0.446,1.75,1.118,2.227c-0.069,0.246-0.118,0.502-0.118,0.773c0,1.09,0.609,2.025,1.478,2.438  c-0.297,0.439-0.478,0.977-0.478,1.563c0,1.09,0.609,2.025,1.478,2.438c-0.297,0.439-0.478,0.977-0.478,1.563  c0,1.09,0.609,2.025,1.478,2.438c-0.297,0.439-0.478,0.977-0.478,1.563c0,1.324,0.901,2.418,2.074,2.619  c0.228,1.023,0.997,1.82,1.961,2.002c-0.017,0.125-0.035,0.25-0.035,0.379c0,1.467,1.103,2.662,2.458,2.662  c0.209,0,0.408-0.037,0.603-0.092c0.242,1.193,1.224,2.092,2.397,2.092c0.209,0,0.408-0.037,0.603-0.092  c0.242,1.193,1.224,2.092,2.397,2.092c0.589,0,1.123-0.234,1.547-0.609c0.026,1.441,1.114,2.609,2.453,2.609  c0.209,0,0.409-0.037,0.603-0.09c0.242,1.193,1.224,2.09,2.397,2.09c0.335,0,0.655-0.074,0.946-0.207  c0.439,0.725,1.195,1.207,2.054,1.207c0.661,0,1.259-0.287,1.7-0.748c0.347,1.018,1.242,1.748,2.3,1.748  c0.613,0,1.17-0.254,1.602-0.658c0.438,0.736,1.197,1.23,2.066,1.23c1.057,0,1.953-0.73,2.299-1.748  c0.441,0.461,1.039,0.748,1.701,0.748c0.857,0,1.613-0.482,2.053-1.207c0.291,0.133,0.611,0.207,0.947,0.207  c1.174,0,2.154-0.896,2.396-2.09c0.193,0.053,0.395,0.09,0.604,0.09c1.338,0,2.426-1.168,2.453-2.609  c0.424,0.375,0.957,0.609,1.547,0.609c1.174,0,2.154-0.898,2.396-2.092c0.195,0.055,0.395,0.092,0.604,0.092  c1.174,0,2.154-0.898,2.396-2.092c0.195,0.055,0.395,0.092,0.604,0.092c1.355,0,2.457-1.195,2.457-2.662  c0-0.129-0.018-0.254-0.035-0.379c0.965-0.182,1.734-0.979,1.961-2.002c1.174-0.201,2.074-1.295,2.074-2.619  c0-0.586-0.18-1.123-0.477-1.563c0.867-0.412,1.477-1.348,1.477-2.438c0-0.586-0.18-1.123-0.477-1.563  c0.867-0.412,1.477-1.348,1.477-2.438c0-0.586-0.18-1.123-0.477-1.563c0.867-0.412,1.477-1.348,1.477-2.438  c0-0.271-0.049-0.527-0.117-0.773c0.672-0.477,1.117-1.295,1.117-2.227c0-0.801-0.334-1.512-0.854-2c0.52-0.488,0.854-1.199,0.854-2  c0-0.586-0.18-1.123-0.477-1.563c0.867-0.412,1.477-1.348,1.477-2.438c0-0.585-0.18-1.122-0.477-1.562  c0.867-0.411,1.477-1.348,1.477-2.438c0-0.556-0.158-1.072-0.43-1.5C85.105,44.432,85.264,43.916,85.264,43.359z M18.418,41.059  c0.347,0.461,1.141,0.643,1.632,0.116c0.478,0.34,0.797,0.933,0.797,1.611c0,0.329-0.081,0.633-0.212,0.903  c-0.416-0.349-0.932-0.565-1.497-0.565c-0.529,0-1.017,0.186-1.418,0.495c-0.04-0.01-0.076-0.025-0.123-0.025h-0.001  c-0.104-0.246-0.166-0.518-0.166-0.808C17.43,42.021,17.836,41.364,18.418,41.059z M20.185,44.287  c-0.29,0.254-0.65,0.412-1.047,0.412c-0.396,0-0.756-0.158-1.046-0.412c0.29-0.254,0.65-0.412,1.046-0.412  C19.535,43.875,19.895,44.032,20.185,44.287z M17.43,45.787c0-0.328,0.081-0.633,0.212-0.903c0.416,0.349,0.931,0.565,1.496,0.565  s1.081-0.216,1.497-0.565c0.131,0.271,0.212,0.575,0.212,0.903c0,0.532-0.195,1.013-0.51,1.36c-0.067-0.006-0.131-0.022-0.199-0.022  c-0.488,0-0.941,0.16-1.324,0.426c-0.031-0.005-0.057-0.019-0.092-0.019c-0.07,0-0.131,0.016-0.186,0.038  C17.892,47.296,17.43,46.603,17.43,45.787z M18.43,49.787c0-0.497,0.175-0.947,0.454-1.287c0.047-0.016,0.086-0.038,0.123-0.065  c0.044,0.002,0.086,0.014,0.131,0.014c0.534,0,1.026-0.19,1.43-0.505c0.734,0.215,1.279,0.956,1.279,1.843  c0,0.532-0.195,1.012-0.51,1.359c-0.066-0.006-0.131-0.021-0.199-0.021c-0.521,0-1.002,0.179-1.4,0.479  c-0.033-0.007-0.061-0.021-0.099-0.021c-0.016,0-0.025,0.007-0.04,0.008C18.922,51.337,18.43,50.629,18.43,49.787z M19.43,53.787  c0-0.48,0.164-0.914,0.427-1.252c0.054-0.025,0.1-0.061,0.137-0.102c0.049,0.002,0.096,0.016,0.145,0.016  c0.534,0,1.026-0.191,1.43-0.507c0.733,0.216,1.279,0.956,1.279,1.845c0,0.633-0.28,1.191-0.706,1.539  c-0.017,0.006-0.036,0.006-0.051,0.012c-0.294-0.135-0.614-0.213-0.952-0.213c-0.342,0-0.666,0.076-0.962,0.213  c-0.013-0.004-0.024-0.006-0.037-0.008C19.711,54.982,19.43,54.422,19.43,53.787z M19.43,57.787c0-0.598,0.251-1.125,0.636-1.477  c0.076-0.002,0.145-0.016,0.203-0.043c0.271,0.113,0.563,0.182,0.869,0.182c0.334,0,0.65-0.078,0.941-0.211  c0.022,0.012,0.051,0.016,0.076,0.023c0.417,0.35,0.691,0.898,0.691,1.525c0,0.143-0.017,0.281-0.043,0.414  c-0.018,0.006-0.038,0.01-0.054,0.018c-0.197-0.057-0.399-0.094-0.612-0.094c-0.846,0-1.593,0.465-2.035,1.172  C19.697,58.947,19.43,58.404,19.43,57.787z M22.505,58.922c-0.312,0.469-0.806,0.777-1.367,0.777c-0.126,0-0.248-0.018-0.367-0.047  c0.312-0.469,0.807-0.777,1.367-0.777C22.265,58.875,22.387,58.893,22.505,58.922z M20.43,60.787c0-0.154,0.021-0.303,0.052-0.447  c0.21,0.064,0.428,0.109,0.656,0.109c0.846,0,1.594-0.467,2.036-1.172c0.406,0.35,0.673,0.893,0.673,1.51  c0,0.531-0.195,1.012-0.51,1.359c-0.066-0.006-0.131-0.021-0.199-0.021c-0.534,0-1.025,0.189-1.43,0.506  C20.976,62.416,20.43,61.674,20.43,60.787z M21.43,64.787c0-0.533,0.195-1.014,0.51-1.359c0.066,0.006,0.13,0.021,0.198,0.021  c0.493,0,0.951-0.162,1.336-0.434c0.056,0.021,0.115,0.037,0.186,0.037c0.054,0,0.097-0.016,0.142-0.027  c0.614,0.289,1.046,0.969,1.046,1.762c0,0.494-0.173,0.941-0.449,1.281c-0.047,0.018-0.084,0.043-0.119,0.072  c-0.048-0.004-0.093-0.016-0.141-0.016c-0.534,0-1.025,0.189-1.43,0.506C21.976,66.416,21.43,65.674,21.43,64.787z M22.43,68.787  c0-0.533,0.195-1.014,0.51-1.359c0.066,0.006,0.13,0.021,0.198,0.021c0.495,0,0.955-0.162,1.342-0.438  c0.033,0.006,0.06,0.02,0.097,0.02c0.06,0,0.106-0.016,0.155-0.031c0.649,0.271,1.115,0.967,1.115,1.787  c0,0.531-0.195,1.012-0.51,1.359c-0.066-0.006-0.131-0.021-0.199-0.021c-0.534,0-1.025,0.189-1.43,0.506  C22.976,70.416,22.43,69.674,22.43,68.787z M24.695,74.625c-0.726-0.219-1.265-0.957-1.265-1.838c0-0.441,0.139-0.842,0.363-1.166  c0.139-0.018,0.243-0.082,0.312-0.176c0.011,0,0.021,0.004,0.033,0.004c0.534,0,1.026-0.191,1.43-0.506  c0.554,0.162,0.999,0.625,1.185,1.223C25.629,72.361,24.766,73.375,24.695,74.625z M25.441,74.664  c0.051-0.883,0.633-1.602,1.396-1.756C26.786,73.791,26.204,74.51,25.441,74.664z M26.961,76.576  c-0.045,0.018-0.082,0.041-0.116,0.07c-0.612-0.123-1.116-0.594-1.315-1.24c1.12-0.197,1.981-1.209,2.053-2.459  c0.726,0.221,1.265,0.957,1.265,1.84c0,0.127-0.013,0.252-0.034,0.373C28.002,75.277,27.322,75.818,26.961,76.576z M29.711,79.451  c-0.039,0.047-0.069,0.102-0.089,0.16c-0.154,0.051-0.314,0.088-0.484,0.088c-0.941,0-1.708-0.857-1.708-1.912  c0-0.129,0.013-0.254,0.034-0.375c0.845-0.121,1.553-0.703,1.9-1.512c0.763,0.113,1.363,0.789,1.462,1.643  C30.223,77.959,29.806,78.648,29.711,79.451z M32.711,81.451c-0.039,0.047-0.069,0.102-0.089,0.16  c-0.154,0.051-0.314,0.088-0.484,0.088c-0.846,0-1.545-0.693-1.68-1.6c0.027-0.037,0.052-0.076,0.067-0.119  c0.597-0.443,0.994-1.166,1.053-1.992c0.176-0.068,0.362-0.113,0.56-0.113c0.868,0,1.579,0.73,1.687,1.67  C33.222,79.959,32.806,80.65,32.711,81.451z M35.138,83.699c-0.846,0-1.545-0.693-1.68-1.6c0.027-0.037,0.052-0.076,0.067-0.119  c0.597-0.443,0.994-1.166,1.052-1.992c0.176-0.068,0.363-0.113,0.56-0.113c0.942,0,1.709,0.857,1.709,1.912  S36.081,83.699,35.138,83.699z M39.721,85.348c-0.075,0.074-0.118,0.172-0.135,0.275c-0.144,0.045-0.292,0.076-0.448,0.076  c-0.942,0-1.708-0.857-1.708-1.912s0.766-1.912,1.708-1.912c0.868,0,1.579,0.73,1.687,1.67  C40.249,83.941,39.838,84.59,39.721,85.348z M42.788,87.521c-0.004,0.012-0.003,0.023-0.006,0.033  c-0.199,0.092-0.416,0.145-0.644,0.145c-0.868,0-1.579-0.73-1.687-1.67c0.637-0.439,1.066-1.182,1.127-2.041  c0.176-0.068,0.362-0.113,0.56-0.113c0.602,0,1.129,0.352,1.434,0.877c-0.54,0.49-0.892,1.215-0.892,2.035  C42.68,87.043,42.725,87.287,42.788,87.521z M43.45,86.998c-0.008-0.07-0.02-0.139-0.02-0.211c0-0.463,0.153-0.881,0.398-1.213  c0.006,0.07,0.019,0.141,0.019,0.213C43.847,86.248,43.694,86.668,43.45,86.998z M46.84,86.869  c-0.074,0.217-0.119,0.445-0.139,0.684c-0.026,0.068-0.061,0.131-0.094,0.193c-0.039,0.047-0.07,0.102-0.09,0.158  c-0.311,0.479-0.812,0.795-1.38,0.795c-0.601,0-1.128-0.352-1.433-0.879c0.54-0.488,0.892-1.213,0.892-2.033  c0-0.268-0.048-0.521-0.116-0.766c0.203-0.094,0.424-0.146,0.657-0.146c0.942,0,1.709,0.857,1.709,1.912  C46.847,86.814,46.84,86.842,46.84,86.869z M49.139,89.699c-0.943,0-1.708-0.857-1.708-1.912c0-0.029,0.006-0.055,0.008-0.084  c0.073-0.215,0.117-0.445,0.137-0.682c0.266-0.674,0.865-1.146,1.564-1.146c0.695,0,1.293,0.469,1.559,1.137  c-0.217,0.396-0.35,0.854-0.35,1.348c0,0.229,0.035,0.447,0.086,0.66C50.119,89.432,49.658,89.699,49.139,89.699z M52.807,90.271  c-0.695,0-1.293-0.469-1.561-1.137c0.219-0.398,0.352-0.855,0.352-1.348c0-0.23-0.035-0.449-0.086-0.662  c0.313-0.412,0.773-0.678,1.295-0.678c0.697,0,1.297,0.473,1.563,1.146c0.02,0.236,0.064,0.467,0.137,0.682  c0.002,0.029,0.008,0.055,0.008,0.084C54.514,89.414,53.748,90.271,52.807,90.271z M56.807,89.271c-0.568,0-1.07-0.316-1.381-0.795  c-0.02-0.057-0.051-0.111-0.09-0.158c-0.033-0.063-0.066-0.125-0.094-0.193c-0.02-0.238-0.064-0.467-0.139-0.684  c0-0.027-0.006-0.055-0.006-0.082c0-1.055,0.766-1.912,1.709-1.912c0.232,0,0.453,0.053,0.656,0.146  c-0.068,0.244-0.115,0.498-0.115,0.766c0,0.82,0.352,1.545,0.891,2.033C57.934,88.92,57.406,89.271,56.807,89.271z M58.494,87.57  c-0.244-0.33-0.396-0.75-0.396-1.211c0-0.072,0.012-0.143,0.018-0.213c0.246,0.332,0.398,0.75,0.398,1.213  C58.514,87.432,58.502,87.5,58.494,87.57z M59.807,88.271c-0.229,0-0.445-0.053-0.645-0.145c-0.002-0.01-0.002-0.021-0.006-0.033  c0.063-0.234,0.107-0.479,0.107-0.734c0-0.82-0.352-1.545-0.891-2.035c0.305-0.525,0.832-0.877,1.434-0.877  c0.197,0,0.383,0.045,0.559,0.113c0.061,0.859,0.49,1.602,1.127,2.041C61.385,87.541,60.674,88.271,59.807,88.271z M62.807,86.271  c-0.156,0-0.305-0.031-0.449-0.076c-0.016-0.104-0.059-0.201-0.135-0.275c-0.117-0.758-0.527-1.406-1.104-1.803  c0.107-0.939,0.818-1.67,1.688-1.67c0.941,0,1.707,0.857,1.707,1.912S63.748,86.271,62.807,86.271z M66.807,84.271  c-0.943,0-1.709-0.857-1.709-1.912s0.766-1.912,1.709-1.912c0.197,0,0.383,0.045,0.559,0.113c0.059,0.826,0.457,1.549,1.053,1.992  c0.016,0.043,0.041,0.082,0.068,0.119C68.352,83.578,67.652,84.271,66.807,84.271z M69.807,82.271c-0.17,0-0.33-0.037-0.484-0.088  c-0.02-0.059-0.051-0.113-0.09-0.16c-0.094-0.801-0.51-1.492-1.113-1.906c0.107-0.939,0.818-1.67,1.688-1.67  c0.197,0,0.383,0.045,0.559,0.113c0.059,0.826,0.457,1.549,1.053,1.992c0.016,0.043,0.041,0.082,0.068,0.119  C71.352,81.578,70.652,82.271,69.807,82.271z M72.807,80.271c-0.17,0-0.33-0.037-0.484-0.088c-0.02-0.059-0.051-0.113-0.09-0.16  c-0.094-0.803-0.512-1.492-1.115-1.908c0.1-0.854,0.699-1.529,1.463-1.643c0.348,0.809,1.055,1.391,1.9,1.512  c0.021,0.121,0.033,0.246,0.033,0.375C74.514,79.414,73.748,80.271,72.807,80.271z M75.1,77.219  c-0.035-0.029-0.072-0.053-0.117-0.07c-0.359-0.758-1.041-1.299-1.852-1.416c-0.021-0.121-0.033-0.246-0.033-0.373  c0-0.883,0.539-1.619,1.264-1.84c0.072,1.25,0.934,2.262,2.053,2.459C76.215,76.625,75.711,77.096,75.1,77.219z M75.107,73.48  c0.764,0.154,1.346,0.873,1.396,1.756C75.74,75.082,75.158,74.363,75.107,73.48z M77.25,75.197c-0.072-1.25-0.936-2.264-2.059-2.459  c0.186-0.598,0.631-1.061,1.186-1.223c0.402,0.314,0.895,0.506,1.43,0.506c0.012,0,0.021-0.004,0.033-0.004  c0.068,0.094,0.172,0.158,0.311,0.176c0.225,0.324,0.363,0.725,0.363,1.166C78.514,74.24,77.975,74.979,77.25,75.197z   M78.236,71.203c-0.404-0.316-0.896-0.506-1.43-0.506c-0.068,0-0.133,0.016-0.199,0.021c-0.314-0.348-0.51-0.828-0.51-1.359  c0-0.82,0.465-1.516,1.115-1.787c0.049,0.016,0.096,0.031,0.154,0.031c0.037,0,0.064-0.014,0.098-0.02  c0.387,0.275,0.846,0.438,1.342,0.438c0.068,0,0.131-0.016,0.197-0.021c0.314,0.346,0.51,0.826,0.51,1.359  C79.514,70.246,78.969,70.988,78.236,71.203z M79.236,67.203c-0.404-0.316-0.896-0.506-1.43-0.506c-0.049,0-0.094,0.012-0.141,0.016  c-0.035-0.029-0.072-0.055-0.119-0.072c-0.277-0.34-0.449-0.787-0.449-1.281c0-0.793,0.432-1.473,1.045-1.762  c0.045,0.012,0.088,0.027,0.143,0.027c0.07,0,0.129-0.016,0.186-0.037c0.385,0.271,0.842,0.434,1.336,0.434  c0.068,0,0.131-0.016,0.197-0.021c0.314,0.346,0.51,0.826,0.51,1.359C80.514,66.246,79.969,66.988,79.236,67.203z M80.236,63.203  c-0.404-0.316-0.896-0.506-1.43-0.506c-0.068,0-0.133,0.016-0.199,0.021c-0.314-0.348-0.51-0.828-0.51-1.359  c0-0.617,0.266-1.16,0.672-1.51c0.443,0.705,1.191,1.172,2.037,1.172c0.229,0,0.445-0.045,0.656-0.109  c0.031,0.145,0.051,0.293,0.051,0.447C81.514,62.246,80.969,62.988,80.236,63.203z M79.439,59.494  c0.117-0.029,0.24-0.047,0.367-0.047c0.561,0,1.055,0.309,1.367,0.777c-0.119,0.029-0.242,0.047-0.367,0.047  C80.244,60.271,79.75,59.963,79.439,59.494z M82.514,58.359c0,0.617-0.266,1.16-0.672,1.51c-0.443-0.707-1.189-1.172-2.035-1.172  c-0.213,0-0.416,0.037-0.613,0.094c-0.016-0.008-0.035-0.012-0.053-0.018c-0.027-0.133-0.043-0.271-0.043-0.414  c0-0.627,0.273-1.176,0.691-1.525c0.025-0.008,0.053-0.012,0.076-0.023c0.291,0.133,0.607,0.211,0.941,0.211  c0.307,0,0.598-0.068,0.869-0.182c0.059,0.027,0.127,0.041,0.203,0.043C82.264,57.234,82.514,57.762,82.514,58.359z M81.805,55.902  c-0.012,0.002-0.023,0.004-0.037,0.008c-0.295-0.137-0.619-0.213-0.961-0.213c-0.338,0-0.658,0.078-0.953,0.213  c-0.014-0.006-0.033-0.006-0.051-0.012c-0.426-0.348-0.705-0.906-0.705-1.539c0-0.889,0.545-1.629,1.279-1.844  c0.402,0.314,0.895,0.506,1.43,0.506c0.049,0,0.096-0.014,0.145-0.016c0.037,0.041,0.082,0.076,0.137,0.102  c0.262,0.338,0.426,0.771,0.426,1.252C82.514,54.994,82.232,55.555,81.805,55.902z M82.346,52.164  c-0.016-0.002-0.025-0.008-0.041-0.008c-0.037,0-0.064,0.014-0.098,0.02c-0.398-0.301-0.881-0.479-1.4-0.479  c-0.068,0-0.133,0.016-0.199,0.021c-0.314-0.348-0.51-0.828-0.51-1.359c0-0.887,0.545-1.628,1.279-1.843  c0.402,0.315,0.895,0.505,1.43,0.505c0.045,0,0.086-0.012,0.131-0.014c0.037,0.027,0.076,0.049,0.123,0.065  c0.279,0.34,0.453,0.79,0.453,1.287C83.514,51.201,83.021,51.91,82.346,52.164z M83.408,48.143  c-0.055-0.021-0.115-0.038-0.186-0.038c-0.035,0-0.061,0.013-0.092,0.019c-0.383-0.267-0.836-0.426-1.324-0.426  c-0.068,0-0.133,0.016-0.199,0.022c-0.314-0.347-0.51-0.828-0.51-1.36c0-0.329,0.08-0.633,0.211-0.903  c0.416,0.349,0.932,0.565,1.498,0.565c0.564,0,1.08-0.216,1.496-0.565c0.131,0.27,0.211,0.575,0.211,0.903  C84.514,47.176,84.053,47.869,83.408,48.143z M81.76,44.859c0.289-0.254,0.65-0.412,1.047-0.412c0.395,0,0.756,0.158,1.045,0.412  c-0.289,0.254-0.65,0.412-1.045,0.412C82.41,45.271,82.049,45.114,81.76,44.859z M84.348,44.167L84.348,44.167  c-0.047,0-0.084,0.015-0.123,0.025c-0.402-0.309-0.889-0.495-1.418-0.495c-0.566,0-1.082,0.216-1.498,0.565  c-0.131-0.271-0.211-0.575-0.211-0.903c0-0.678,0.318-1.271,0.797-1.611c0.49,0.526,1.285,0.345,1.631-0.116  c0.582,0.305,0.988,0.962,0.988,1.728C84.514,43.649,84.451,43.921,84.348,44.167z"></path></svg>