<svg xmlns="http://www.w3.org/2000/svg" data-name="Layer 1" viewBox="0 0 100 100" x="0px" y="0px"><title>Noun_Project_100Icon_10px_grid_sextoy</title><path d="M37.35,55.39l-8,10c-.73.9-.8,2.26-.2,3.84a11.65,11.65,0,0,0,3.63,4.73c3.4,2.74,7.57,3.45,9.11,1.55l8.05-10A31.71,31.71,0,0,1,37.35,55.39Z"></path><path d="M52.35,87.69l.63-.78,0,0C52.75,87.16,52.56,87.43,52.35,87.69Z"></path><path d="M42.1,92c-5.85,0-12.45-2.62-18.12-7.2a31.51,31.51,0,0,1-10.24-14C12,65.65,12.49,61,15.16,57.66c.21-.26.44-.5.68-.74l-.05,0-.63.78L13.23,60C7.84,66.72,11.8,78.9,22.05,87.17c5.67,4.58,12.27,7.2,18.12,7.2,4.37,0,8-1.53,10.26-4.3l1.92-2.38C50.11,90.47,46.47,92,42.1,92Z"></path><path d="M24.6,84c5.68,4.59,12.11,7,17.5,7,3.95,0,7.34-1.28,9.48-3.93C55.34,82.4,54.13,74.81,49.2,68l-6.57,8.14a4.35,4.35,0,0,1-3.52,1.47,11.73,11.73,0,0,1-7-2.87,12.67,12.67,0,0,1-3.94-5.16c-.73-1.93-.6-3.64.36-4.83l6.57-8.14a24.69,24.69,0,0,0-9.71-2.22c-3.94,0-7.33,1.28-9.47,3.93C10.88,64.55,14.76,76.07,24.6,84Z"></path><path d="M82.37,6.62a5.75,5.75,0,0,0-3.24,1l-40.07,27A11.26,11.26,0,0,0,34.12,46c.92,4.92,4.25,10.31,9.48,14.53,5,4,10.62,6.13,15.47,6.21h.18a11.43,11.43,0,0,0,10.56-7.23l18-44.85A5.83,5.83,0,0,0,82.37,6.62ZM66,62.09H66A39.51,39.51,0,0,1,49,54.36c-6.7-5.41-10.51-12.43-11.44-15.83a.5.5,0,0,1,1-.26c.9,3.28,4.59,10.06,11.11,15.32A38.44,38.44,0,0,0,66.14,61.1a.5.5,0,0,1-.09,1ZM85,17.62a4.38,4.38,0,0,1-1.15.15,7.05,7.05,0,0,1-4.29-1.67c-1.89-1.52-2.9-3.66-2.58-5.45a.5.5,0,0,1,1,.18c-.25,1.41.64,3.21,2.22,4.49a5.47,5.47,0,0,0,4.55,1.33.5.5,0,0,1,.26,1Z"></path></svg>