<svg xmlns="http://www.w3.org/2000/svg" viewBox="0 0 512 512" x="0px" y="0px"><path d="M206.079,369.843C194.842,305.355,135.414,256,64,256H56.237C112.5,287.4,162.724,325.557,206.079,369.843Z"></path><path d="M448,256c-71.414,0-130.842,49.355-142.079,113.843C349.276,325.557,399.5,287.4,455.763,256Z"></path><path d="M223.781,384h64.438C292.616,303.894,362.6,240,448,240h30.938L465.03,128.736C432.22,131.979,307.158,144,256,144S79.78,131.979,46.97,128.736L33.062,240H64C149.4,240,219.384,303.894,223.781,384Z"></path></svg>