<?xml version="1.0" encoding="UTF-8" standalone="no"?>
<svg
   xmlns:dc="http://purl.org/dc/elements/1.1/"
   xmlns:cc="http://creativecommons.org/ns#"
   xmlns:rdf="http://www.w3.org/1999/02/22-rdf-syntax-ns#"
   xmlns:svg="http://www.w3.org/2000/svg"
   xmlns="http://www.w3.org/2000/svg"
   xmlns:sodipodi="http://sodipodi.sourceforge.net/DTD/sodipodi-0.dtd"
   xmlns:inkscape="http://www.inkscape.org/namespaces/inkscape"
   viewBox="0 0 64 64"
   x="0px"
   y="0px"
   version="1.1"
   id="svg20"
   sodipodi:docname="rear_pony_tailplug.svg"
   inkscape:version="1.0.1 (3bc2e813f5, 2020-09-07)">
  <style
     id="style851"></style>
  <metadata
     id="metadata26">
    <rdf:RDF>
      <cc:Work
         rdf:about="">
        <dc:format>image/svg+xml</dc:format>
        <dc:type
           rdf:resource="http://purl.org/dc/dcmitype/StillImage" />
      </cc:Work>
    </rdf:RDF>
  </metadata>
  <defs
     id="defs24" />
  <sodipodi:namedview
     pagecolor="#ffffff"
     bordercolor="#666666"
     borderopacity="1"
     objecttolerance="10"
     gridtolerance="10"
     guidetolerance="10"
     inkscape:pageopacity="0"
     inkscape:pageshadow="2"
     inkscape:window-width="1555"
     inkscape:window-height="894"
     id="namedview22"
     showgrid="false"
     inkscape:zoom="1.6601563"
     inkscape:cx="12.772484"
     inkscape:cy="28.220781"
     inkscape:window-x="0"
     inkscape:window-y="0"
     inkscape:window-maximized="0"
     inkscape:current-layer="g18"
     inkscape:document-rotation="0" />
  <g
     id="g18">
    <g
       id="g845"
       transform="rotate(180,31.212927,32)">
      <path
         d="M 24.586,16 H 19 a 1,1 0 0 0 -1,1 v 35 l 2,-1.5 V 19 a 1,1 0 0 1 1.515,-0.857 l 4.33,2.6 L 27.586,19 Z"
         id="path2" />
      <polygon
         points="22,47.233 24.864,45.516 22,32.912 "
         id="polygon4" />
      <polygon
         points="7,47.233 7,32.912 4.136,45.516 "
         id="polygon6" />
      <path
         d="m 18,10 h 9 a 1,1 0 0 1 0.707,0.293 L 32,14.586 33.586,13 l -5,-5 H 18 A 9.01,9.01 0 0 0 9,17 V 50.5 L 11,52 V 17 a 7.009,7.009 0 0 1 7,-7 z"
         id="path8" />
      <path
         d="m 25,14 a 1,1 0 0 1 0.707,0.293 L 29,17.586 30.586,16 l -4,-4 H 18 a 5.006,5.006 0 0 0 -5,5 v 39 h 3 V 17 a 3,3 0 0 1 3,-3 z"
         id="path10" />
      <rect
         x="26.636"
         y="17.879"
         width="10.728"
         height="2.243"
         transform="rotate(-45,31.999754,18.999268)"
         id="rect12" />
      <path
         d="M 36.638892,18.615385 31.615385,23.692133 52,42.586 c 2.874698,0.707947 4.605103,-0.445678 3.586,-3.586 z"
         id="path14"
         sodipodi:nodetypes="ccccc" />
    </g>
  </g>
</svg>
