<svg xmlns="http://www.w3.org/2000/svg" viewBox="0 0 512 512" x="0px" y="0px"><title>equipment body armor</title><path d="M42.79,146.62H82.27a16.27,16.27,0,0,0,10.7-4l75.95-66.35A16.24,16.24,0,0,0,174.48,64V44a10.65,10.65,0,0,0-10.65-10.65H42.5A10.66,10.66,0,0,0,31.84,44v91.66A10.94,10.94,0,0,0,42.79,146.62Z"></path><path d="M343.08,76.26,419,142.61a16.27,16.27,0,0,0,10.7,4h39.48a10.94,10.94,0,0,0,11-10.94V44A10.66,10.66,0,0,0,469.5,33.37H348.17A10.65,10.65,0,0,0,337.52,44V64A16.24,16.24,0,0,0,343.08,76.26Z"></path><path d="M94.49,177.18l12.36,46.52a25,25,0,0,0,9.63,13.94L129,246.56l37.51,19.78a19.21,19.21,0,0,0,16.39.73l57.21-23.93a54.72,54.72,0,0,1,15.94-4,54.72,54.72,0,0,1,15.94,4l57.21,23.93a19.21,19.21,0,0,0,16.39-.73l37.51-19.78,12.47-8.92a25,25,0,0,0,9.63-13.94l12.36-46.52a14.57,14.57,0,0,0-3.78-14.06L308.91,71.48a11.27,11.27,0,0,0-15.05-1.11L256,99.77l-37.86-29.4a11.27,11.27,0,0,0-15,1.11L98.27,163.12A14.57,14.57,0,0,0,94.49,177.18Z"></path><path d="M149.66,389.62H362.34c5.49,0,10-4.7,10.19-10.63,1.11-35.36,3.92-70.06,6.36-96.56.55-6-5.35-10.17-10.21-7.24l-21.55,11.53a20.85,20.85,0,0,1-20.57.66l-54.8-25.7A51.77,51.77,0,0,0,256,256.45a51.77,51.77,0,0,0-15.76,5.23l-54.8,25.7a20.85,20.85,0,0,1-20.57-.66l-21.55-11.53c-4.86-2.93-10.76,1.25-10.21,7.24,2.44,26.5,5.25,61.2,6.36,96.56C139.66,384.92,144.17,389.62,149.66,389.62Z"></path><path d="M121.91,420.59l-17.7,41.7A11.75,11.75,0,0,0,115,478.63H397a11.75,11.75,0,0,0,10.82-16.34l-17.7-41.7a25.28,25.28,0,0,0-23.29-15.41H145.2a25.28,25.28,0,0,0-23.29,15.41Zm205.63,21.14a11.87,11.87,0,0,1,.58-1.9,11.1,11.1,0,0,1,.93-1.74,9.67,9.67,0,0,1,1.28-1.56,10.15,10.15,0,0,1,14.37,0,8.61,8.61,0,0,1,1.26,1.56,9.15,9.15,0,0,1,1,1.74,10.93,10.93,0,0,1,.58,1.9,10.52,10.52,0,0,1,0,4,10.77,10.77,0,0,1-.58,1.91,9.88,9.88,0,0,1-1,1.75,8.48,8.48,0,0,1-1.26,1.54,10.15,10.15,0,0,1-14.37,0,9.52,9.52,0,0,1-1.28-1.54,12.18,12.18,0,0,1-.93-1.75,11.67,11.67,0,0,1-.58-1.91,10.52,10.52,0,0,1,0-4Zm-81.51,0a10.93,10.93,0,0,1,.58-1.9,10.63,10.63,0,0,1,2.21-3.3,10.14,10.14,0,0,1,14.36,0,10.18,10.18,0,0,1,2.21,3.3,10.93,10.93,0,0,1,.58,1.9,10.52,10.52,0,0,1,0,4,10.77,10.77,0,0,1-.58,1.91,10.47,10.47,0,0,1-.93,1.75,9.52,9.52,0,0,1-1.28,1.54,10.14,10.14,0,0,1-14.36,0,9,9,0,0,1-1.27-1.54,9.83,9.83,0,0,1-.94-1.75,10.77,10.77,0,0,1-.58-1.91,10.52,10.52,0,0,1,0-4Zm-81.52,0a10.93,10.93,0,0,1,.58-1.9,9.15,9.15,0,0,1,.95-1.74,8.61,8.61,0,0,1,1.26-1.56,10.15,10.15,0,0,1,14.37,0,9.67,9.67,0,0,1,1.28,1.56,11.1,11.1,0,0,1,.93,1.74,11.87,11.87,0,0,1,.58,1.9,10.52,10.52,0,0,1,0,4,11.67,11.67,0,0,1-.58,1.91,12.18,12.18,0,0,1-.93,1.75,9.52,9.52,0,0,1-1.28,1.54,10.15,10.15,0,0,1-14.37,0,8.48,8.48,0,0,1-1.26-1.54,9.88,9.88,0,0,1-.95-1.75,10.77,10.77,0,0,1-.58-1.91,10.52,10.52,0,0,1,0-4Z"></path></svg>