<svg version="1.1" viewBox="0 0 512 512" xmlns="http://www.w3.org/2000/svg">
 <title>equipment shirt</title>
 <g transform="matrix(8.4062 0 0 8.4062 -3.0721 -14.196)">
  <rect x="23" y="33" width="18" height="2"/>
  <path d="m22.735 23h18.531l4.543-14.54c0.127-0.407 0.191-0.828 0.191-1.254 0-2.319-1.887-4.206-4.206-4.206h-0.853c-0.499 4.493-4.316 8-8.941 8s-8.442-3.507-8.941-8h-0.853c-2.319 0-4.206 1.887-4.206 4.206 0 0.426 0.064 0.847 0.191 1.253zm2.265-10h14v8h-14z"/>
  <rect x="27" y="15" width="10" height="4"/>
  <path d="m32 9c3.519 0 6.432-2.614 6.92-6h-13.84c0.488 3.386 3.401 6 6.92 6z"/>
  <path d="m52.393 49.04c-1.598 1.632-8.552 7.96-20.393 7.96s-18.795-6.328-20.393-7.96c-1.467 0.195-2.607 1.44-2.607 2.96 0 1.654 1.346 3 3 3 0.241 0 0.5-0.042 0.816-0.131l1.029-0.291 0.222 1.046c0.291 1.377 1.525 2.376 2.933 2.376 0.602 0 1.182-0.178 1.679-0.514l1.075-0.728 0.43 1.226c0.421 1.205 1.553 2.016 2.816 2.016 0.888 0 1.538-0.395 1.928-0.726l0.901-0.765 0.604 1.016c0.552 0.923 1.511 1.475 2.567 1.475 0.864 0 1.662-0.369 2.247-1.038l0.753-0.861 0.753 0.861c0.585 0.669 1.383 1.038 2.247 1.038 1.056 0 2.015-0.552 2.566-1.475l0.604-1.016 0.901 0.765c0.391 0.331 1.041 0.726 1.929 0.726 1.263 0 2.395-0.811 2.816-2.016l0.43-1.226 1.075 0.728c0.497 0.336 1.077 0.514 1.679 0.514 1.408 0 2.642-0.999 2.933-2.376l0.222-1.046 1.029 0.291c0.316 0.089 0.575 0.131 0.816 0.131 1.654 0 3-1.346 3-3 0-1.52-1.14-2.765-2.607-2.96z"/>
  <path d="m50.824 47.777-9.491-22.777h-18.666l-9.49 22.775c1.67 1.623 8.203 7.225 18.823 7.225 10.658 0 17.162-5.599 18.824-7.223zm-10.515 3.932-0.617-1.902c0.648-0.21 1.294-0.451 1.918-0.717l0.781 1.842c-0.678 0.287-1.378 0.548-2.082 0.777zm5.781-10.094 2.354 5.65-0.599 0.47c-1.33 1.042-2.815 1.959-4.413 2.725l-0.865-1.803c1.229-0.59 2.383-1.274 3.439-2.04l-1.763-4.232zm-25.09-1.615v-9h22v9c0 6.065-4.935 11-11 11s-11-4.935-11-11z"/>
  <path d="m41 40v-3h-18v3c0 4.963 4.037 9 9 9s9-4.037 9-9z"/>
 </g>
</svg>
