<svg xmlns="http://www.w3.org/2000/svg" viewBox="0 0 512 512" x="0px" y="0px"><title>equipment silmple body armor</title><path d="M62.84,33,48.18,41.74a15.53,15.53,0,0,0-7.27,16.45C51.16,108,81.2,150,120.12,169.47a7.79,7.79,0,0,0,11.11-5.27A273.34,273.34,0,0,0,136,135.65a7.66,7.66,0,0,0-3.72-7.42c-42.08-25-58-74.83-62.39-92.33A4.75,4.75,0,0,0,62.84,33Z"></path><path d="M91,231.12a8.25,8.25,0,0,0,11.15-1.93A113.68,113.68,0,0,0,114,208.8a12.21,12.21,0,0,0-3.94-14.89c-16.37-12-47.92-37.72-68.66-70.93a6.22,6.22,0,0,0-11.26,1.54c-3.19,11-5.45,20.61-6.86,27.28a25.54,25.54,0,0,0,3.26,18.85C43.74,198.12,77.11,221.94,91,231.12Z"></path><path d="M347.72,26.12a14.6,14.6,0,0,0-18.36,2.42C318.48,40.26,295,59,256,59s-62.48-18.73-73.36-30.45a14.6,14.6,0,0,0-18.36-2.42L114.92,56.55a13.53,13.53,0,0,0-4.65,18.24c21.92,38.29,71.86,54.1,93.92,59.39a28.68,28.68,0,0,0,19.88-2.47l21.8-11.33a22,22,0,0,1,20.26,0l21.8,11.33a28.68,28.68,0,0,0,19.88,2.47c22.06-5.29,72-21.1,93.92-59.39a13.53,13.53,0,0,0-4.65-18.24Z"></path><path d="M356.15,143.67a6,6,0,0,0-8.59-4.57C333,146.19,315.74,151,305.28,153.46a25.47,25.47,0,0,1-17.63-2.15l-21.57-11.14a22,22,0,0,0-20.17,0L224.38,151.3a25.56,25.56,0,0,1-17.68,2.16c-10.46-2.5-27.74-7.28-42.26-14.36a6,6,0,0,0-8.59,4.57c-2.89,22.74-13.95,85-51.34,126.27a12.42,12.42,0,0,0-.25,16.34c11.33,13.31,31.94,41.51,38.34,76.54a18.91,18.91,0,0,0,10,13.52c14.82,7.5,46.58,22.34,80.55,30.49a98,98,0,0,0,45.62,0c34-8.15,65.73-23,80.55-30.49a18.91,18.91,0,0,0,10-13.52c6.4-35,27-63.23,38.34-76.54a12.42,12.42,0,0,0-.25-16.34C370.1,228.62,359,166.41,356.15,143.67Z"></path><path d="M471.09,58.19a15.53,15.53,0,0,0-7.27-16.45L449.16,33a4.75,4.75,0,0,0-7,2.9c-4.42,17.5-20.31,67.32-62.39,92.33a7.66,7.66,0,0,0-3.72,7.42,273.34,273.34,0,0,0,4.76,28.55,7.79,7.79,0,0,0,11.11,5.27C430.8,150,460.84,108,471.09,58.19Z"></path><path d="M481.86,124.52A6.22,6.22,0,0,0,470.6,123c-20.74,33.21-52.29,58.93-68.66,70.93A12.21,12.21,0,0,0,398,208.8a113.68,113.68,0,0,0,11.85,20.39A8.25,8.25,0,0,0,421,231.12c13.89-9.18,47.26-33,64.46-60.47a25.54,25.54,0,0,0,3.26-18.85C487.31,145.13,485.05,135.47,481.86,124.52Z"></path><path d="M187.6,487.44a14.08,14.08,0,0,0,15.55-5.12c7.87-10.84,25.06-28.71,52.85-28.71s45,17.87,52.85,28.71a14.08,14.08,0,0,0,15.55,5.12,270.48,270.48,0,0,0,77.93-38.39,9,9,0,0,0,1.41-13.41,133.45,133.45,0,0,1-24.43-38.09,8.28,8.28,0,0,0-11.69-4c-32.76,18.5-84.24,31-103.76,35.29a36.56,36.56,0,0,1-15.72,0c-19.52-4.31-71-16.79-103.76-35.29a8.28,8.28,0,0,0-11.69,4,133.45,133.45,0,0,1-24.43,38.09,9,9,0,0,0,1.41,13.41A270.48,270.48,0,0,0,187.6,487.44Z"></path></svg>