<svg xmlns="http://www.w3.org/2000/svg" viewBox="0 0 512 512" x="0px" y="0px"><title>equipment shirt</title><path d="M334.41,27.08a20.1,20.1,0,0,0-21.24,6.6L273.36,67.21a10.39,10.39,0,0,0-2.25,13.54A10.17,10.17,0,0,0,286.19,83l8.79-7.4c-4,9-8.23,18-12.38,26.49L257.31,88.92l-.09,0-65.94-34.3-.6-1.53a22.55,22.55,0,0,0-30.86-12.15C132.2,54.26,87.24,79,70.24,105.47c-20.43,31.78-38.26,89.85-44.35,111a18.37,18.37,0,0,0,2.78,16c15.25,20.73,43.37,33,65.4,39.8a9.81,9.81,0,0,0,12.71-9.1c.67-25.73-.43-50.89-1.51-64.91a10.17,10.17,0,1,1,20.28-1.56c.58,7.5,3.66,51.2.33,92,.94,42.15-10.08,92.26-15,112.26a24.85,24.85,0,0,0,2.82,18.65c17.4,29.08,48.54,45.63,77.24,55a230.39,230.39,0,0,0,94.94,9.91c66.92-6.79,98.87-21.69,116.9-35.57a24.72,24.72,0,0,0,7.25-30.12c-19.65-41.74-21.29-114.44-21.42-126.28A718.46,718.46,0,0,0,375,188.23a10.17,10.17,0,0,1,19.84-4.47,703.92,703.92,0,0,1,12.26,82.14,9.81,9.81,0,0,0,14.87,7.47,431.36,431.36,0,0,0,58.64-43.32,18.64,18.64,0,0,0,6.12-16.45C469.23,80.63,375.15,39,334.41,27.08ZM203.75,84l30.71,16-16.27,13.7C212.72,103.14,207.92,93.15,203.75,84ZM260,146.44a13.28,13.28,0,0,1-23.06.64q-4.64-7.67-8.83-15.15L254,110.12l19.59,10.19C268.54,130.22,263.86,139.15,260,146.44Z"></path></svg>