<svg xmlns:cc="http://creativecommons.org/ns#" xmlns:dc="http://purl.org/dc/elements/1.1/" xmlns:rdf="http://www.w3.org/1999/02/22-rdf-syntax-ns#" xmlns:svg="http://www.w3.org/2000/svg" xmlns="http://www.w3.org/2000/svg" xmlns:xlink="http://www.w3.org/1999/xlink" version="1.1" x="0px" y="0px" viewBox="0 0 78.8 75.7" style="enable-background:new 0 0 78.8 75.7;" xml:space="preserve"><path d="M16.6,11.6c0,0-5.4,8.8-6.4,10.3c-0.8,1.2,0.4,2.1,1.6,2.6c1.3,0.6,14,5,17.6,9c2.2,2.5,4,5.6,4.2,9.1  c0.2,3.7-0.5,7.7-2.2,11c-1.7,3.1-5.1,5.5-8.5,6.2c-3.3,0.7-8.6-0.9-8.8-5c-0.1-1.4,0.8-2.7,1.9-3.5s2.5-1.2,3.8-1.5  c4.1-1,8.2-1.5,12.4-1.8c0.5-1.9,0.7-3.8,0.6-5.8c0-0.3-5.2,0.6-5.7,0.7c-1.9,0.5-3.8,1.2-5.6,2.1c-3.3,1.7-6,3.9-7.8,7.1  c-0.3,0.5-1.9,4,0,7.4c1.9,3.5,6,7.2,18.6,7.2S53.1,67,57,65.4c3.9-1.6,8.7-5.3,8.3-10c-0.4-4.2-4-7.4-7.4-9.4  c-3.8-2.3-8.1-3.6-12.5-3.9c-0.1,1.8,0.1,3.6,0.4,5.4c0,0.1,0.1,0.3,0.1,0.4C46,48,46.2,48,46.3,48c2.8,0.4,5.7,0.7,8.5,1.1  c2.6,0.3,5.4,0.8,7.5,2.5c0.7,0.6,1.3,1.3,1.6,2.1c1,3-2.5,5.3-5,5.8c-2.5,0.5-5.2-0.1-7.4-1.1c-4.8-2.1-6.3-8.5-6.8-13.2  c-0.4-3.6,0.2-7.1,2.4-10c2-2.6,4.9-4.5,7.8-6c3.8-1.9,7.9-3.6,12-4.8c2.2-0.7,1-2.5,0.3-3.6c-0.7-1.1-5-8.1-5.7-9.2  c-0.3-0.6-0.5-1.2-2.7-0.4c-2.8,1-13.9,3.8-19.4,3.5c-5.5-0.2-18-2.9-20.5-3.8C18.5,10.9,17.3,10.3,16.6,11.6z"></path></svg>