<svg version="1.1" viewBox="0 0 512 512" xmlns="http://www.w3.org/2000/svg">
 <g transform="matrix(7.8027 0 0 7.8027 -138.04 -143.18)" style="fill-rule:evenodd;fill:none">
  <g style="fill:#000000">
   <path d="m19.661 77.268-1.144 0.6091-0.72395 1.1153-0.11242 1.1843 0.11664 0.85774 0.62957 0.72005 0.72262 0.57084 0.79246 0.17891 0.92175-0.04691 0.78169-0.22998 0.70037-0.74519 0.51339-0.82335 0.10862-0.87616 0.04667-0.5697 4.8265-4.4148 3.3017-3.3551 4.4862-4.4011 0.20028 1.2328-0.78196 0.80094 0.35331 0.65662 0.65103-0.23226 0.89148 0.92316 1.1272 0.58405 0.98941-0.08938 0.96244 0.02529 1.4247 1.5166 0.42584 0.0065 0.59613 0.96584-0.14879 0.76645 0.35286 0.43669 0.75898 0.09023 1.7826 0.36114-0.12896-1.8892 0.10609-0.81386-0.5937-0.68609-0.89841 0.31983-1.8227-1.412 1.6745-1.1151 0.72213-1.4977 0.4732-1.5985-0.26289-1.4875-0.59469-1.2956 1.355 0.1022 1.452-0.90172 0.16291-0.45252 1.9405-0.39431-0.44253-0.64529 1.7998-1.0298 1.1339-1.6305-1.3514 0.0029 2.3076-1.9332 0.74414-1.83-1.1202 0.13454 2.2643-2.1823-1.5583 0.01909 2.0912-1.7353 0.41024-1.3311 9.1999-9.0448 15.583-15.301 1.2359-1.5699 1.181-1.8781 0.90414-2.9696-2.7997 0.87049-2.2854 1.2399-1.5198 1.2213-9.2612 8.9403-15.11 14.6-3.1504 1.5198-1.0958 1.0155 0.26746-1.8147-1.7598 2.0298-0.6462-1.1004-1.2448 1.7298-0.47826-1.2796-1.6644 2.4566-0.69307-1.1931-0.66887 1.7936-0.83287-0.93377-0.57196 1.9921-0.92944-0.49342-0.17419 2.1393-1.0365 0.01694 0.23381 1.9028-0.52417 1.0067-1.8541-0.82011-1.1993-0.01544-1.9726 0.89499-1.4116 1.34-0.27962 0.72914-1.4892-1.6575 0.2598-1.3235-0.55759-0.74075-0.53628 0.12762-2.147-0.48814 0.20318 2.0105-0.16504 0.7467 0.2927 0.44571 0.56522 0.22853 0.64476-0.23237 2.1275 2.2712 0.11274 1.0817 0.31787 2.0742s0.69882 0.84794 1.1371 1.1775c0.17851 0.13422-0.22933 0.84082 0.03749 0.95962 0.25877 0.11521 1.1951-0.3553 1.1951-0.3553l0.71934 0.1745-7.1728 6.7599-5.0821 4.955zm20.037-16.141c-0.95912-0.9932-0.77047-2.7314 0.42137-3.8823 1.044-1.0082 2.5115-1.2314 3.5042-0.60361l22.092-21.334s1.3729-0.87 1.4925-0.7462c0.112 0.11598-0.79784 1.4655-0.79784 1.4655l-22.092 21.334c0.59274 1.0139 0.3185 2.4728-0.72553 3.481-1.1918 1.1509-2.9355 1.2788-3.8947 0.28563z"/>
  </g>
 </g>
</svg>
