<svg version="1.1" viewBox="0 0 512 512" xmlns="http://www.w3.org/2000/svg">
 <path d="m49.518 500.47a28.299 28.299 0 0 0 4.9873-6.7244 327.83 327.83 0 0 1 50.433 4.6063c41.467 6.7245 61.562-29.195 66.393-49.133a11.377 11.377 0 0 0-22.112-5.3683c-0.36983 1.5242-9.3694 37.108-40.627 32.031-13.247-2.1518-24.724-3.3622-34.295-4.1019a4.7519 4.7519 0 0 1-2.8019-8.3159l81.669-71.907 36.447 36.447a5.9736 5.9736 0 0 0 9.8962-2.3087c6.4106-19.355 17.315-66.471-16.004-99.881-33.32-33.409-80.492-22.516-99.847-16.015a5.9736 5.9736 0 0 0-2.3087 9.8962l36.447 36.447-84.179 95.588a28.758 28.758 0 1 0 15.903 48.741z" stroke-width="1.1207"/>
 <path d="m183.5 296.67a102.82 102.82 0 0 1 29.139 29.139 8.5961 8.5961 0 0 0 13.651 1.0423l280.07-316.4c4.4269-5.0097-2.5217-11.958-7.5314-7.5314l-316.45 280.06a8.5961 8.5961 0 0 0 1.1207 13.684z" stroke-width="1.1207"/>
</svg>
