<svg version="1.1" viewBox="0 0 512 512" xmlns="http://www.w3.org/2000/svg">
 <title>weapon great axe</title>
 <g transform="matrix(5.6259 0 0 5.6259 -19.601 -29.903)">
  <path d="m44.285 7.1426-8.0352 16.072c5.9533 8.2115 11.822 15.071 18.215 21.963l18.75-9.4629c-0.42581-9.9112-7.1811-25.09-28.93-28.572zm-28.928 8.5723c4.0106 6.7262 7.0563 13.452 9.6426 20.178 16.709 12.939 31.343 27.954 45.627 43.318l7.4551-6.9727c-14.834-14.808-29.475-29.77-42.547-45.988-7.5803-3.2272-14.013-6.8361-20.178-10.535zm7.5 21.25-16.785 8.9277c1.7309 23.566 23.366 27.562 28.393 28.393l9.2852-18.75c-6.5116-6.6432-13.429-12.879-20.893-18.57zm57.273 37.316-7.4121 7.1973c0.81882 0.88437 1.635 1.7713 2.4531 2.6562l7.6582-7.1641c-0.90022-0.89607-1.7994-1.7929-2.6992-2.6895zm4.7461 4.7266-7.6133 7.3926c2.0427 2.2117 4.0873 4.4217 6.1289 6.6348l8.0352-7.5c-2.1807-2.1784-4.366-4.3528-6.5508-6.5273z" style="fill:#000000"/>
 </g>
</svg>
