<svg version="1.1" viewBox="0 0 512 512" xmlns="http://www.w3.org/2000/svg">
 <g stroke-width="1.121">
  <path d="m222.89 226.81a4.2263 4.2263 0 0 1-5.437-5.0783l2.6905-10.403a10.437 10.437 0 0 1 6.7262-7.2643l3.8339-1.278-23.609-22.028-29.147 112.4 16.188 15.112a4.2375 4.2375 0 0 1-1.5358 7.1186l-9.2598 3.0941a10.414 10.414 0 0 1-10.414-2.242l-0.77352-0.71749-7.8472 30.402 106.73-35.716 6.9953-26.972a4.2487 4.2487 0 0 1 6.9953-2.0403l7.1298 6.659a10.448 10.448 0 0 1 2.982 10.235l-1.121 4.4842 32.106-10.751-78.473-73.226z"/>
  <path d="m497.83 157.82-147.75-137.89a74.134 74.134 0 0 0-104.77 3.5312l-4.7756 5.1232-17.78 19.125-207.64 222.49a56.186 56.186 0 0 0 2.8138 79.403l154 143.71a56.198 56.198 0 0 0 79.425-2.6793l187.1-200.53a56.198 56.198 0 0 0-2.8026-79.414l-137.97-128.73a27.813 27.813 0 1 1 37.947-40.671l139.41 130.04a27.017 27.017 0 0 1 1.3452 38.115l-1.2444 1.334a13.598 13.598 0 0 0 0.68385 19.226 13.609 13.609 0 0 0 19.237-0.65021l5.1119-5.4819a46.781 46.781 0 0 0-2.343-66.051zm-187.21 20.694a10.594 10.594 0 0 1 8.632 0.72868 10.28 10.28 0 0 1 4.8541 11.491l-15.47 59.83 44.46 41.478a10.538 10.538 0 0 1 3.3631 6.5468 10.269 10.269 0 0 1-6.9393 10.863l-117.07 39.158 23.934 22.297 1.0538-4.047a10.47 10.47 0 0 1 6.8495-7.3428l10.302-3.4416a4.2936 4.2936 0 0 1 5.5043 5.1456l-8.1499 31.535a10.257 10.257 0 0 1-10.358 7.6791 10.571 10.571 0 0 1-6.7262-2.9483l-44.46-41.478-58.608 19.573a10.291 10.291 0 0 1-13.206-12.331l29.887-115.56-32.51 10.84 2.3654 2.2421a10.571 10.571 0 0 1 3.0156 10.358l-2.4663 9.5512a4.2824 4.2824 0 0 1-7.0737 2.0515l-22.421-20.941a10.257 10.257 0 0 1-2.3093-11.838 10.683 10.683 0 0 1 6.3899-5.5155l61.085-20.481 16.233-62.778a10.257 10.257 0 0 1 10.347-7.6791 10.583 10.583 0 0 1 6.7262 2.9483l83.719 78.125 7.9482-30.75-2.0403 0.6838a10.56 10.56 0 0 1-10.538-2.2981l-7.2194-6.7262a4.2824 4.2824 0 0 1 1.5582-7.1971z"/>
  <path d="m328.62 57.849a10.683 10.683 0 0 0-14.573 15.616l127.39 118.89a10.683 10.683 0 1 0 14.573-15.616z"/>
 </g>
</svg>
