<svg version="1.1" viewBox="0 0 512 512" xmlns="http://www.w3.org/2000/svg">
 <g transform="matrix(-7.4234 0 0 -7.4234 631.55 632.73)" style="fill-rule:evenodd;fill:none">
  <g style="fill:#000000">
   <path d="m81.566 21.208 0.90085-0.6477 0.15493-2.0993 1.6712-0.50035-0.03751 2.6541-0.45395 0.9105-1.2288 1.1087-0.67935 0.1854-2.6115 0.26151-12.039 11.89 0.95712 1.8607-1.7164 0.39714-0.02071 2.275 2.6987-1.8223-0.17705 6.7113-0.51911 0.77021-4.1929 1.5059-0.74072-0.14138-0.22009 0.74321-4.6761 3.9107-1.8009 4.1575-3.271 2.4373-1.5208 0.27116-0.8911 0.05822-0.72391 2.1587-4.8074 4.7042-3.4145 4.6623-0.25402 0.47281-1.028 0.30997-0.17304 0.6851 0.45395 0.33772h0.69605l0.50111-0.05811-1.8773 2.491-2.2808 1.8114-4.7279 3.7846-3.1842 1.975-1.3948 0.11753-0.2228 0.63804-3.562 1.4089-3.5109 1.3439-1.8857 0.08955 1.8669-2.3873 4.3492-4.8568 1.2095-0.29891 1.7699-0.99702 0.56887-1.2153-2.2059 0.04142-1.1487 0.30151-1.564 2.058-1.3463 0.70711-4.7799 4.61-1.3161 1.8211 0.4456-7.341 1.3561-1.9056-0.36808-1.2153 3.0816-6.9005 1.5058-0.98011 0.25446-1.3628 4.1845-4.6507 0.63002-0.31257 1.3645 0.71546 1.5582-0.16209 3.9856-3.7957 5.4058-4.9107 2.6488-5.821 3.2001-1.2982 2.7647-2.7452 3.3962-5.3256 1.2025-0.78441 0.09197-0.49832 0.04366-0.23655-0.8873-0.0142 0.8873-2.9455 0.68326-0.23343 2.643-0.2047 1.2843-1.1514 4.23-0.03014-2.8865 3.0609 0.28091 0.71415 1.0546-0.15233 0.16198-0.28796 1.8585-0.15374 0.32938-1.7854 1.947 0.96861 0.47195-0.74451 4.4836-4.5074 6.591-6.9078 0.2614-1.7279 0.75286-1.6138 1.0655-1.1985 1.1585-0.59663 0.36808 0.55077-0.20209 0.84274-0.82333 1.3367 0.08131 0.95896 0.30737 0.59663 0.6284 0.59934z"/>
  </g>
 </g>
</svg>
