<svg version="1.1" viewBox="0 0 512 512" xmlns="http://www.w3.org/2000/svg">
 <g stroke-width="1.1244">
  <path d="m477.23 509.67 18.553-18.553a6.7465 6.7465 0 0 0 0.24738-9.2315l-95.643-106.09a5.712 5.712 0 0 0-8.287-0.21376l-30.359 30.359a5.712 5.712 0 0 0 0.21363 8.287l106.1 95.677a6.7465 6.7465 0 0 0 9.1752-0.23628z"/>
  <path d="m19.794 491.12 18.553 18.553a6.7465 6.7465 0 0 0 9.2202 0.23629l106.09-95.643a5.712 5.712 0 0 0 0.21376-8.287l-30.359-30.359a5.712 5.712 0 0 0-8.287 0.21377l-95.677 106.05a6.7465 6.7465 0 0 0 0.24734 9.2315z"/>
  <path d="m27.069 2.4707a5.4084 5.4084 0 0 0-9.209 4.4077c4.0029 37.106 22.398 139.8 106.64 256.68a34.261 34.261 0 0 0 16.169 12.211c6.353 2.2488 15.607 5.802 26.986 10.57a11.357 11.357 0 0 0 12.369-2.4287l56.648-56.659a10.727 10.727 0 0 0 0-15.18z"/>
  <path d="m289.17 396.35 20.487 20.487a5.6221 5.6221 0 0 0 7.9496 0l79.294-79.283a5.6221 5.6221 0 0 0 0-7.9496l-20.498-20.509a5.6221 5.6221 0 0 0-7.9496 0l-17.339 17.383-8.9953-8.9166a10.952 10.952 0 0 0-12.369-2.1814c-13.988 6.6116-29.516 14.617-45.775 23.95a6.1056 6.1056 0 0 0-0.42727 10.3c8.5231 5.9369 17.057 12.222 25.502 18.89l-19.868 19.868a5.6221 5.6221 0 0 0-0.0111 7.9609z"/>
  <path d="m488.51 2.4707-324.05 324.01-17.339-17.383a5.6221 5.6221 0 0 0-7.9496 0l-20.498 20.498a5.6221 5.6221 0 0 0 0 7.9496l79.294 79.283a5.6221 5.6221 0 0 0 7.9496 0l20.498-20.476a5.6221 5.6221 0 0 0 0-7.9609l-19.88-19.868c68.117-53.803 142.33-83.364 168.38-92.753a34.283 34.283 0 0 0 16.158-12.211c84.23-116.87 102.64-219.56 106.64-256.67a5.4197 5.4197 0 0 0-9.209-4.419z"/>
 </g>
</svg>
