<svg version="1.1" viewBox="0 0 512 512" xmlns="http://www.w3.org/2000/svg">
 <g stroke-width="1.1361">
  <path d="m241.27 150.08-59.691 9.1684a3.84 3.84 0 0 0-0.18176 7.5664l59.736 12.031a5.067 5.067 0 0 0 6.0327-5.3851 99.977 99.977 0 0 1-0.0795-17.973 5.067 5.067 0 0 0-5.8169-5.4079z"/>
  <path d="m350.72 328.4 9.1684-59.691a5.0557 5.0557 0 0 0-5.3851-5.8396 99.852 99.852 0 0 1-17.962-0.091 5.0784 5.0784 0 0 0-5.4192 6.0668l12.031 59.725a3.84 3.84 0 0 0 7.5664-0.17047z"/>
  <path d="m350.82 64.978a5.0897 5.0897 0 0 0 5.2942-6.0554l-11.202-55.669a3.84 3.84 0 0 0-7.5665 0.17047l-8.6344 56.214a5.0557 5.0557 0 0 0 5.5328 5.8964 100.98 100.98 0 0 1 16.576-0.55671z"/>
  <path d="m506.66 165.06-55.612-11.202a5.0784 5.0784 0 0 0-6.0441 5.2943 99.739 99.739 0 0 1-0.55671 16.576 5.0557 5.0557 0 0 0 5.8282 5.5328l56.214-8.6344a3.84 3.84 0 0 0 0.17047-7.5664z"/>
  <path d="m103.66 364.74-93.433 93.433a33.202 33.202 0 0 0 46.955 46.955l93.422-93.433a15.281 15.281 0 0 0 1.0793-20.45l123.17-125.16a19.553 19.553 0 0 0-27.676-27.63l-123.12 125.21a15.281 15.281 0 0 0-20.393 1.0793z"/>
  <path d="m221.34 41.79a3.84 3.84 0 0 0-5.0102 5.6805l62.77 78.948a76.71 76.71 0 0 0 105.02 104.16l78.812 62.656a3.84 3.84 0 0 0 5.6805-5.0102l-54.431-89.184a76.846 76.846 0 0 0-0.56804-71.097l60.782-87.06a3.84 3.84 0 0 0-5.3511-5.3511l-87.048 60.816a76.869 76.869 0 0 0-71.711-0.26107z"/>
 </g>
</svg>
