<svg version="1.1" viewBox="0 0 512 512" xmlns="http://www.w3.org/2000/svg">
 <g stroke-width="1.1315">
  <path d="m119.81 370.39a8.6223 8.6223 0 0 0-12.187 0l-104.8 104.8a9.6521 9.6521 0 0 0 0 13.646l1.1315 1.1315 16.453 16.453 1.1315 1.1316a9.6521 9.6521 0 0 0 13.646 0l104.8-104.8a8.6223 8.6223 0 0 0 0-12.187l-1.8444-1.8444 181.23-181.25a6.2122 6.2122 0 0 0 0.12445-8.6563q-1.9236-2.0142-3.9151-4.0283c-1.3352-1.3239-2.6818-2.6365-4.0283-3.9151a6.2122 6.2122 0 0 0-8.6563 0.12445l-181.24 181.24z"/>
  <path d="m348.51 27.545c-11.553-9.1994-21.624-18.263-28.141-24.351a10.727 10.727 0 0 0-15.208 0.56576l-81.89 88.634a10.75 10.75 0 0 0 0.29419 14.891l28.289 28.289a6.3027 6.3027 0 0 0 9.1542-0.24891l88.26-98.523a6.3253 6.3253 0 0 0-0.75813-9.256z"/>
  <path d="m374.88 258.54 28.289 28.289a10.75 10.75 0 0 0 14.891 0.29423l88.577-81.89a10.727 10.727 0 0 0 0.56576-15.208c-6.0877-6.5177-15.151-16.588-24.351-28.141a6.3253 6.3253 0 0 0-9.1655-0.78079l-98.523 88.26a6.3027 6.3027 0 0 0-0.28268 9.1768z"/>
  <path d="m285.67 144.7c21.884 15.774 43.383 36.605 43.383 36.605s20.832 21.499 36.605 43.383a3.3946 3.3946 0 0 0 5.0693 0.55443l77.126-69.692a3.3946 3.3946 0 0 0-0.36223-5.3409c-14.212-9.7313-32.668-23.559-48.226-39.117-15.559-15.559-29.42-34.014-39.117-48.226a3.3946 3.3946 0 0 0-5.3409-0.36224l-69.692 77.126a3.3946 3.3946 0 0 0 0.55447 5.0693z"/>
  <path d="m408.66 101.71s6.6082 7.0495 12.447 10.184a3.1909 3.1909 0 0 0 3.802-0.5318l5.1825-5.1712a6.3253 6.3253 0 0 0 0-8.9618l-8.4639-8.4753-8.4752-8.4639a6.3253 6.3253 0 0 0-8.9618 0l-5.1712 5.1825a3.1909 3.1909 0 0 0-0.53181 3.802c3.1231 5.8275 10.173 12.436 10.173 12.436z"/>
 </g>
</svg>
