<svg version="1.1" viewBox="0 0 512 512" xmlns="http://www.w3.org/2000/svg">
 <g stroke-width="1.1253">
  <path d="m194.22 202.72 17.138 2.5206a10.623 10.623 0 0 0 11.084-5.8177c34.355-70.341 142.91-171.85 167.28-194.16a2.9482 2.9482 0 0 0-2.048-5.1313c-16.17 0.46133-38.789 12.479-38.789 12.479-42.119 22.686-112.43 83.271-131.41 99.925a13.233 13.233 0 0 0-4.5011 10.544c1.6992 39.092-12.626 61.294-21.808 71.399a4.9625 4.9625 0 0 0 3.0495 8.2371z"/>
  <path d="m425.45 109.81c8.8447-14.527 17.757-29.257 24.756-40.825a6.3804 6.3804 0 0 0-8.7659-8.7659c-11.557 6.9655-26.298 15.878-40.825 24.756a430.87 430.87 0 0 0-109.74 96.471c-16.53 20.311-32.498 43.087-36.763 59.539a12.603 12.603 0 0 0 15.326 15.383c16.452-4.2649 39.227-20.255 59.539-36.763a430.87 430.87 0 0 0 96.471-109.79z"/>
  <path d="m505.13 120.67c-22.303 24.385-123.78 132.93-194.16 167.28a10.623 10.623 0 0 0-5.8177 11.084l2.5206 17.138a4.9625 4.9625 0 0 0 8.2371 2.9932c10.128-9.1823 32.307-23.507 71.399-21.808a13.233 13.233 0 0 0 10.544-4.4449c16.632-18.984 77.239-89.291 99.925-131.41 0 0 12.018-22.618 12.479-38.789a2.9482 2.9482 0 0 0-5.1313-2.048z"/>
  <path d="m238.18 272.21c-30.867-30.855-56.118-47.701-70.42-55.893a12.176 12.176 0 0 0-17.352 6.0878c-1.7667 4.3998-3.7472 8.8785-5.8965 13.402a10.128 10.128 0 0 0 4.1973 13.2 300.25 300.25 0 0 1 64.197 48.477 300.25 300.25 0 0 1 48.477 64.141 10.128 10.128 0 0 0 13.2 4.1973c4.5011-2.1493 9.0023-4.1298 13.402-5.8965a12.176 12.176 0 0 0 6.0878-17.352c-8.1921-14.19-25.038-39.497-55.893-70.364z"/>
  <path d="m106.48 510.32a10.645 10.645 0 0 0 8.4284-3.0495l16.553-16.553a6.099 6.099 0 0 0 1.0353-1.5079 6.3241 6.3241 0 0 0-3.6009-8.766c-14.032-4.8724-33.86-15.957-58.425-40.51-24.565-24.554-35.649-44.392-40.51-58.425a6.3241 6.3241 0 0 0-8.766-3.6009 6.099 6.099 0 0 0-1.5079 1.0353l-16.598 16.542a10.645 10.645 0 0 0-3.0495 8.4284c2.9032 34.884 37.134 69.295 37.134 69.295s34.467 34.209 69.306 37.112z"/>
  <path d="m145.83 454.42a62.116 62.116 0 0 1 9.3174-9.2836c11.129-9.0923 44.584-35.739 81.538-58.436a14.91 14.91 0 0 0 4.9625-20.255 281.62 281.62 0 0 0-42.468-55.139 280.97 280.97 0 0 0-55.139-42.491 14.899 14.899 0 0 0-20.255 4.9738c-22.708 36.977-49.377 70.443-58.515 81.572a62.048 62.048 0 0 1-9.2948 9.1823c-1.0015 0.81021-2.003 1.5529-2.982 2.2506a9.9137 9.9137 0 0 0-3.3758 11.872c4.5011 11.05 14.122 27.142 34.535 47.543 20.413 20.401 36.504 30.068 47.509 34.591a9.9025 9.9025 0 0 0 11.872-3.3758c0.74269-1.0015 1.4854-2.003 2.2956-3.0045z"/>
 </g>
</svg>
