<svg version="1.1" viewBox="0 0 512 512" xmlns="http://www.w3.org/2000/svg">
 <path d="m428.82 260.8a3.0966 3.0966 0 0 0 5.8678-0.98735 178.97 178.97 0 0 0-0.67317-36.284 104.13 104.13 0 0 0-24.907-56.098c-37.148-42.926-78.537-62.56-106.74-71.469a23.92 23.92 0 0 0-19.129 1.9971 23.314 23.314 0 0 0-11.489 15.449c-0.48244 2.2439-0.94245 4.3644-1.38 6.44a10.849 10.849 0 0 0 7.7752 12.544c81.398 23.741 126.13 76.585 150.68 128.41z" stroke-width="1.122"/>
 <path d="m428.89 72.228a148.26 148.26 0 0 0-68.383-36.879c-45.709-10.849-104.34-26.377-131.44-33.659a12.678 12.678 0 0 0-16.01 10.984c-6.7317 79.199-37.922 153.25-58.723 195a222.46 222.46 0 0 1-37.485 53.686c-34.691 36.688-65.073 78.223-81.275 101.38a168.61 168.61 0 0 0-24.593 52.182c-8.5157 31.415-10.513 62.83-10.894 80.321a14.047 14.047 0 0 0 14.193 14.204h12.398a14.024 14.024 0 0 0 14.125-15.034c-6.8552-86.548 57.871-152.22 97.229-183.78a198.41 198.41 0 0 0 50.421-60.227l32.099-59.228a210.41 210.41 0 0 0 12.543-27.757l8.482-23.079a108.29 108.29 0 0 0 4.6898-16.829c0.86391-4.4878 1.8849-9.5142 3.0629-14.888a46.112 46.112 0 0 1 22.439-30.147 47.605 47.605 0 0 1 37.619-3.9156c31.033 9.8059 76.551 31.347 117.19 78.313a126.35 126.35 0 0 1 30.192 68.058c2.457 20.913 2.6029 48.57-6.283 76.517a42.971 42.971 0 0 0-0.85268 23.034 337.59 337.59 0 0 1 8.0556 49.534c0.54978 6.4849 9.3347 8.3025 12.588 2.6366 84.517-147.1 9.0093-252.17-41.389-300.43z" stroke-width="1.122"/>
</svg>
