<svg version="1.1" viewBox="0 0 512 512" xmlns="http://www.w3.org/2000/svg">
 <g transform="matrix(10.396 0 0 10.396 -6.8698 -4.0495)">
  <path d="m34.661 24.704c3.9-2.38 5.42-7.32 3.54-11.49-2.21-4.89-8-6.71-12.55-4.31-0.47 0.25-0.65 0.84-0.4 1.31s0.83 0.65 1.3 0.4c3.65-1.93 8.17-0.4 9.89 3.4 1.48 3.28 0.28 7.16-2.79 9.04-3.5601 2.17-8.15 0.89-10.08-2.76-3.05-5.77-0.84-12.94 4.93-15.99 5.76-3.05 12.94-0.84 15.99 4.93 3.39 6.42 0.22 13.27-6.17 16.65l-18.04 9.53 0.9 1.71 18.05-9.53c7.79-4.12 10.62-12.35 6.97-19.26-3.55-6.71-11.9-9.29-18.61-5.7401-6.71 3.55-9.28 11.9-5.73 18.61 2.4 4.54 8.22 6.3 12.8 3.5z"/>
  <path d="m5.8406 48.724c0.13 0.25 0.46 0.35 0.71 0.22l1.7-0.9c0.26-0.14 0.36-0.46 0.22-0.72l-0.41-0.78 10.61-5.65 0.42 0.79c0.14 0.26 0.45 0.36 0.71 0.22l1.7-0.9c0.26-0.13 0.36-0.45 0.22-0.71l-3.56-6.73c-0.13-0.26-0.45-0.36-0.71-0.22l-1.7 0.9c-0.26 0.14-0.35 0.46-0.22 0.71l0.42 0.79-10.62 5.64-0.42-0.78c-0.13-0.26-0.45-0.36-0.71-0.22l-1.7 0.89c-0.26 0.14-0.35 0.46-0.22 0.72z"/>
 </g>
</svg>
