<svg version="1.1" viewBox="0 0 512 512" xmlns="http://www.w3.org/2000/svg">
 <path d="m10.802 502.13a12.143 12.143 0 0 0 13.642 3.6117c22.978-8.7217 87.497-37.582 144.85-80.508l26.646 35.547a7.2122 7.2122 0 0 0 10.064 1.4536l18.092-13.519a7.2234 7.2234 0 0 0 1.4536-10.064l-77.366-103.37a7.2346 7.2346 0 0 0-10.064-1.4536l-18.036 13.496a7.2346 7.2346 0 0 0-1.4536 10.064l25.002 33.4c-27.854 20.451-77.769 54.131-135.99 80.094a12.3 12.3 0 0 0-6.3177 16.705 77.154 77.154 0 0 0 9.4821 14.547z" stroke-width="1.1182"/>
 <path d="m503.93 10.263a2.2363 2.2363 0 0 0-4.1372-0.57028c-16.046 30.414-103.45 184.88-302.14 345.16a6.4407 6.4407 0 0 0-1.1182 8.8895l17.891 23.672a6.4071 6.4071 0 0 0 8.9454 1.297c55.908-41.506 204.62-160.93 276-305.58a81.269 81.269 0 0 0 8.7664-39.136 199.9 199.9 0 0 0-4.2043-33.724z" stroke-width="1.1182"/>
</svg>
