<svg version="1.1" viewBox="0 0 512 512" xmlns="http://www.w3.org/2000/svg">
 <g stroke-width="1.1286">
  <path d="m357.39 154.11-33.293-33.293a17.391 17.391 0 0 0-24.603 0 17.402 17.402 0 0 0 0 24.591 18.418 18.418 0 0 1 0.79 25.223l-107.91 120.37a21.973 21.973 0 0 1-24.242 5.8573 13.001 13.001 0 0 0-15.157 4.5143l-8.8028 12.098a12.99 12.99 0 0 0 1.3204 16.838l17.854 17.865 17.865 17.854a12.99 12.99 0 0 0 16.838 1.3204l12.098-8.8028a13.001 13.001 0 0 0 4.5142-15.157 21.973 21.973 0 0 1 5.8573-24.242l120.35-107.91a18.418 18.418 0 0 1 25.223 0.78996 17.402 17.402 0 0 0 24.591 0 17.369 17.369 0 0 0 0-24.591z"/>
  <path d="m502.06 1.362-119.39 40.459a14.028 14.028 0 0 0-8.6336 8.3288l-21.578 57.241a11.286 11.286 0 0 0 2.5844 11.985l37.107 37.107a11.286 11.286 0 0 0 11.963 2.5619l57.241-21.601a14.028 14.028 0 0 0 8.3288-8.6335l40.47-119.37a6.3764 6.3764 0 0 0-8.0918-8.0805z"/>
  <path d="m58.041 481.81 2.2571-6.5005a31.6 31.6 0 0 1 8.6222-13.035l83.514-75.84a11.286 11.286 0 0 0 0.40628-16.375l-11.421-11.444a11.286 11.286 0 0 0-16.375 0.4065l-75.84 83.514a31.6 31.6 0 0 1-13.035 8.6222l-6.5005 2.2571a31.6 31.6 0 0 0-19.863 20.63l-9.3107 30.471a5.1463 5.1463 0 0 0 6.4328 6.4328l30.471-9.3106a31.6 31.6 0 0 0 20.641-19.829z"/>
 </g>
</svg>
