<svg version="1.1" viewBox="0 0 512 512" xmlns="http://www.w3.org/2000/svg">
 <g stroke-width="1.1299">
  <path d="m359.8 340.54a70.654 70.654 0 0 0 17.028-32.881 693.86 693.86 0 0 0 15.005-165.1 8.5535 8.5535 0 0 0-9.627-8.1806c-62.078 7.8304-103.16-15.751-123.16-31.638a8.5422 8.5422 0 0 0-10.678 0c-17.243 13.762-50.225 33.208-98.88 33.208a192.96 192.96 0 0 1-24.259-1.5593 8.5422 8.5422 0 0 0-9.5705 8.2033 693.77 693.77 0 0 0 15.005 165.09 70.699 70.699 0 0 0 17.028 32.881c17.254 18.802 50.655 51.095 92.778 71.852a30.09 30.09 0 0 0 26.508 0c42.158-20.779 75.569-53.073 92.823-71.875z"/>
  <path d="m262.71 4.3549a12.192 12.192 0 0 0-17.875 0c-56.756 61.366-133.25 50.01-176.91 36.158a4.5762 4.5762 0 0 0-5.0508 7.0959c17.073 23.197 33.355 43.502 42.937 55.14a21.469 21.469 0 0 0 12.779 7.5705c82.925 14.791 124.71-33.321 126.55-35.457a11.424 11.424 0 0 1 8.6326-4.0451 11.367 11.367 0 0 1 8.7117 4.079c1.774 2.1017 43.559 50.203 126.48 35.423a21.469 21.469 0 0 0 12.779-7.5705c9.5366-11.638 25.819-31.943 42.937-55.14a4.5875 4.5875 0 0 0-5.062-7.0959c-43.66 13.853-120.16 25.209-176.91-36.158z"/>
  <path d="m236.4 435.58c-48.259-22.248-86.225-58.756-105.4-79.682a93.298 93.298 0 0 1-22.497-43.468c-17.751-82.484-16.734-151.14-15.152-179.91a21.751 21.751 0 0 0-4.9039-14.994c-10.361-12.61-28.644-35.367-47.457-61.298a4.5197 4.5197 0 0 0-8.2598 2.6892c0.36159 83.321 15.661 229.71 21.469 282.37a65.999 65.999 0 0 0 16.519 36.869c44.926 50.078 123.16 106.37 161.16 132.47a6.7795 6.7795 0 0 0 10.587-5.5818v-60.044a10.361 10.361 0 0 0-6.0677-9.4236z"/>
  <path d="m466.59 56.23c-18.858 25.988-37.141 48.688-47.457 61.298a21.751 21.751 0 0 0-4.9151 14.994c1.5819 28.768 2.5988 97.4-15.152 179.91a93.298 93.298 0 0 1-22.497 43.468c-19.209 20.904-57.14 57.434-105.4 79.682a10.361 10.361 0 0 0-6.0112 9.4236v60.01a6.7795 6.7795 0 0 0 10.587 5.5818c37.909-26.101 116.2-82.394 161.13-132.44a65.999 65.999 0 0 0 16.508-36.836c5.8078-52.654 21.118-199.05 21.469-282.37a4.5197 4.5197 0 0 0-8.2598-2.7231z"/>
 </g>
</svg>
