<svg version="1.1" viewBox="0 0 512 512" xmlns="http://www.w3.org/2000/svg">
 <g stroke-width="1.1286">
  <path d="m367.47 22.849a85.156 85.156 0 0 0-27.358 52.98 23.137 23.137 0 0 1-6.5913 13.622l-17.336 17.381a8.7809 8.7809 0 0 0 0 12.415l9.4468 9.4468a8.7694 8.7694 0 0 0 12.415 0l0.82392-0.82387a7.9004 7.9004 0 0 1 12.415 1.5801l0.0904 0.14674a7.9004 7.9004 0 0 1-1.2189 9.6157l-14.266 14.266a8.7694 8.7694 0 0 0 0 12.415l9.4468 9.4468a8.7694 8.7694 0 0 0 12.415 0l14.266-14.266a7.9004 7.9004 0 0 1 9.6157-1.2189l0.14674 0.0904a7.9004 7.9004 0 0 1 1.5801 12.415l-0.82387 0.82391a8.7694 8.7694 0 0 0 0 12.415l9.4468 9.4468a8.792 8.792 0 0 0 12.415 0l17.369-17.381a22.956 22.956 0 0 1 13.544-6.5798 85.514 85.514 0 0 0 49.84-145.75c-32.155-31.805-84.251-32.933-117.68-2.4829zm33.701 105.73a13.148 13.148 0 1 1 0-18.589 13.137 13.137 0 0 1 0 18.589zm12.629-55.304c-8.0698 10.293-21.907 12.9-30.902 5.835-8.995-7.0652-9.7513-21.117-1.6816-31.41 8.0697-10.293 21.873-12.844 30.902-5.7898 9.0291 7.0537 9.7624 21.128 1.6816 31.41zm49.661 56.622c-10.282 8.0698-24.345 7.3246-31.41-1.6816-7.0652-9.0065-4.458-22.832 5.835-30.902 10.293-8.0698 24.345-7.325 31.41 1.6704 7.0652 8.995 4.4018 22.889-5.8802 30.958z"/>
  <path d="m366.28 215.96a12.81 12.81 0 0 0-17.832 3.1489l-3.194 4.5144a35.8 35.8 0 0 1-32.437 15.146l-20.541-1.7945 32.471-32.482a12.799 12.799 0 1 0-18.058-18.058l-32.482 32.471-1.7945-20.541a35.8 35.8 0 0 1 15.112-32.403l4.5144-3.194a12.81 12.81 0 0 0-14.672-20.981l-4.5144 3.194a61.511 61.511 0 0 0-25.958 55.62l2.1895 24.897a36.489 36.489 0 0 1-10.587 29.074l-35.744 35.755a12.799 12.799 0 1 0 18.058 18.058l35.8-35.71a36.477 36.477 0 0 1 29.118-10.587l24.943 2.1896a61.511 61.511 0 0 0 55.62-25.958l3.194-4.5144a12.81 12.81 0 0 0-3.2053-17.844z"/>
  <path d="m146.15 326.73a27.087 27.087 0 0 0-6.7718 26.985l-104.5 104.49a27.087 27.087 0 1 0 18.058 18.058l104.49-104.49a27.087 27.087 0 1 0-11.286-45.088z"/>
 </g>
</svg>
