<svg version="1.1" viewBox="0 0 512 512" xmlns="http://www.w3.org/2000/svg">
 <path d="m255.3 99.858c-85.886 0-155.77 69.863-155.77 155.77 0 85.908 69.863 155.77 155.77 155.77s155.77-69.862 155.77-155.77c0-85.908-69.885-155.77-155.77-155.77zm0 224.97a69.198 69.198 0 1 1 69.198-69.198 69.209 69.209 0 0 1-69.198 69.198z" stroke-width="1.1268"/>
 <path d="m255.3 0.42755c-140.94 0-255.2 114.26-255.2 255.2 0 140.94 114.26 255.2 255.2 255.2s255.2-114.26 255.2-255.2c0-140.94-114.26-255.2-255.2-255.2zm-207.33 257.71a11.809 11.809 0 0 1-0.64229 2.0959 10.446 10.446 0 0 1-1.0254 1.9156 12.113 12.113 0 0 1-1.386 1.7128 11.268 11.268 0 0 1-7.8877 3.2678 11.877 11.877 0 0 1-2.186-0.21421 10.953 10.953 0 0 1-2.0959-0.64232 10.637 10.637 0 0 1-1.9381-1.0254 13.33 13.33 0 0 1-1.6902-1.386 10.716 10.716 0 0 1-1.4311-1.7128 10.446 10.446 0 0 1-1.0254-1.9156 11.178 11.178 0 0 1-0.64229-6.4679 11.268 11.268 0 0 1 0.64229-2.0959 10.637 10.637 0 0 1 1.0254-1.9381 11.099 11.099 0 0 1 3.0537-3.1212 10.637 10.637 0 0 1 1.9381-1.0254 11.809 11.809 0 0 1 2.0959-0.64232 11.268 11.268 0 0 1 10.141 3.0537 13.33 13.33 0 0 1 1.386 1.6902 10.637 10.637 0 0 1 1.0254 1.9381 11.539 11.539 0 0 1 0.64229 2.0959 10.716 10.716 0 0 1 0 4.372zm196.37-222.7a10.986 10.986 0 0 1 0.63102-2.0959 11.82 11.82 0 0 1 1.0367-1.9381 10.141 10.141 0 0 1 1.4085-1.7015 11.268 11.268 0 0 1 10.074-3.0537 11.865 11.865 0 0 1 2.0959 0.63103 13.24 13.24 0 0 1 1.9381 1.0254 11.268 11.268 0 0 1 4.9692 9.2962 11.009 11.009 0 0 1-0.21409 2.1973 11.122 11.122 0 0 1-0.63102 2.0846 11.482 11.482 0 0 1-1.0479 1.9381 9.4652 9.4652 0 0 1-1.386 1.6902 10.04 10.04 0 0 1-1.6902 1.3972 12.294 12.294 0 0 1-1.9381 1.0367 10.986 10.986 0 0 1-2.0959 0.63103 10.75 10.75 0 0 1-2.1635 0.21422 11.155 11.155 0 0 1-7.8877-3.279 10.04 10.04 0 0 1-1.3972-1.6902 12.294 12.294 0 0 1-1.0367-1.9381 11.46 11.46 0 0 1-0.85638-4.2819 10.851 10.851 0 0 1 0.19156-2.1635zm21.928 441.05a10.986 10.986 0 0 1-0.63102 2.0959 11.482 11.482 0 0 1-1.0479 1.9381 9.4652 9.4652 0 0 1-1.386 1.6902 11.155 11.155 0 0 1-7.8877 3.2903 11.009 11.009 0 0 1-2.1973-0.22529 10.378 10.378 0 0 1-2.0846-0.64232 10.682 10.682 0 0 1-1.9381-1.0366 9.4652 9.4652 0 0 1-1.6902-1.386 11.178 11.178 0 0 1-3.2903-7.8877 11.009 11.009 0 0 1 0.22538-2.1973 10.344 10.344 0 0 1 0.63101-2.0846 12.688 12.688 0 0 1 1.0254-1.9381 11.268 11.268 0 0 1 3.0987-3.0988 13.24 13.24 0 0 1 1.9381-1.0254 12.068 12.068 0 0 1 2.0846-0.64227 11.358 11.358 0 0 1 4.3608 0 11.888 11.888 0 0 1 2.0959 0.64227 12.688 12.688 0 0 1 1.9381 1.0254 11.91 11.91 0 0 1 1.679 1.3409 10.491 10.491 0 0 1 1.386 1.7127 11.065 11.065 0 0 1 1.893 6.22 10.84 10.84 0 0 1-0.20285 2.2086zm-10.964-42.718c-98.224 0-178.14-79.914-178.14-178.14s79.914-178.14 178.14-178.14c98.224 0 178.14 79.914 178.14 178.14s-79.914 178.14-178.14 178.14zm210.43-185.72a10.953 10.953 0 0 1 3.6283-2.4114 11.268 11.268 0 0 1 2.0959-0.64228 10.581 10.581 0 0 1 4.372 0 11.268 11.268 0 0 1 2.0959 0.64228 10.536 10.536 0 0 1 1.9268 1.0254 11.155 11.155 0 0 1 1.7015 1.386 11.64 11.64 0 0 1 1.386 1.6902 11.381 11.381 0 0 1 1.0254 1.9381 10.671 10.671 0 0 1 0.63103 2.0959 11.268 11.268 0 0 1-0.63103 6.4679 11.178 11.178 0 0 1-1.0254 1.9156 10.716 10.716 0 0 1-1.386 1.7128 12.677 12.677 0 0 1-1.7015 1.386 11.426 11.426 0 0 1-4.0227 1.6677 11.268 11.268 0 0 1-4.372 0 10.479 10.479 0 0 1-2.0959-0.64231 10.637 10.637 0 0 1-1.9381-1.0254 11.91 11.91 0 0 1-1.6902-1.386 10.716 10.716 0 0 1-1.386-1.7128 10.446 10.446 0 0 1-1.0254-1.9156 11.268 11.268 0 0 1-0.86765-4.2819 11.268 11.268 0 0 1 3.279-7.9102z" stroke-width="1.1268"/>
</svg>
