<svg version="1.1" viewBox="0 0 512 512" xmlns="http://www.w3.org/2000/svg">
 <path d="m453.68 171.82h-105.11c-4.3626-0.27787-10.832-1.7617-12.699-4.1125-0.21675-0.2612-0.53352-0.66134-0.25009-2.0007 1.456-6.919 15.466-20.868 21.441-26.826l3.1011-3.1066c6.6634-6.7857 9.62-13.588 8.7919-20.224-0.7058-5.6519-4.257-10.67-9.9756-14.138-6.3022-3.8235-12.515-5.7631-18.484-5.7631-12.143 0-18.812 7.7582-20.329 9.7589-2.8899 3.3845-52.796 61.038-103.94 66.406h-156.83c-26.909 0-58.987 18.484-58.987 106.54 0 88.052 32.078 106.54 58.987 106.54h394.28c26.909 0 58.981-18.484 58.981-106.54 6e-3 -88.052-32.078-106.53-58.981-106.53zm-391.6 185.21c-27.043 0-40.753-26.47-40.753-78.671 0-52.212 13.71-78.688 40.753-78.688 11.671 0 20.846 4.9572 27.521 14.755l-33.917 60.332c-1.8506 3.2845-0.90587 7.4359 2.1841 9.6033 1.2727 0.88919 2.7454 1.3282 4.207 1.3282 2.0674 0 4.1181-0.87252 5.5575-2.5509l32.789-38.063c1.595 9.5977 2.4119 20.668 2.4119 33.273 6e-3 52.212-13.71 78.683-40.753 78.683z" stroke-width="5.5575"/>
</svg>
