<svg version="1.1" viewBox="0 0 512 512" xmlns="http://www.w3.org/2000/svg">
 <g stroke-width="1.119">
  <path d="m464.81 317.01a3.178 3.178 0 0 0 5.002-0.14549l14.446-19.683a4.7558 4.7558 0 0 0-6.479-6.77l-20.612 13.697a3.178 3.178 0 0 0-0.23515 5.1027 62.496 62.496 0 0 1 7.8778 7.7995z"/>
  <path d="m370.06 317.01a62.496 62.496 0 0 1 7.833-7.8331 3.178 3.178 0 0 0-0.23515-5.1027l-20.612-13.697a4.7558 4.7558 0 0 0-6.4678 6.77l14.435 19.683a3.178 3.178 0 0 0 5.0467 0.1789z"/>
  <path d="m477.78 420.03a4.7558 4.7558 0 0 0 6.479-6.77l-13.148-17.848a3.178 3.178 0 0 0-5.0579-0.0782 61.545 61.545 0 0 1-7.0498 7.5309 3.1668 3.1668 0 0 0 0.35823 4.9908z"/>
  <path d="m357.09 420.03 18.452-12.197a3.1668 3.1668 0 0 0 0.35822-4.9908 60.762 60.762 0 0 1-7.0609-7.5309 3.178 3.178 0 0 0-5.0579 0.0782l-13.137 17.904a4.7558 4.7558 0 0 0 6.4455 6.7364z"/>
  <path d="m56.314 455.51 92.072-92.027a15.028 15.028 0 0 0 1.0519-20.142l268.2-268.99a19.247 19.247 0 1 0-27.225-27.214l-268.24 269.04a15.039 15.039 0 0 0-20.142 1.063l-91.971 92.027a32.699 32.699 0 0 0 46.248 46.237z"/>
  <path d="m500.46 348.24-36.927-4.2187a47.893 47.893 0 0 0-92.363 0.38064l-36.793 4.2074c-7.7547 0.88401-8.4373 11.884-0.85045 13.719l38.281 9.2766a48.005 48.005 0 0 0 31.713 31.142l7.0721 39.848c1.3652 7.6876 12.387 7.6876 13.753 0l7.0721-39.848a47.994 47.994 0 0 0 31.78-31.545l38.147-9.243c7.5532-1.8352 6.8707-12.835-0.88406-13.719z"/>
  <path d="m417.44 144.82a11.112 11.112 0 0 0 11.101-11.112v-12.925a11.112 11.112 0 1 0-22.212 0v12.925a11.112 11.112 0 0 0 11.112 11.112z"/>
  <path d="m406.33 273.11a11.112 11.112 0 1 0 22.212 0v-95.977a11.112 11.112 0 0 0-22.212 0z"/>
 </g>
</svg>
