<svg version="1.1" viewBox="0 0 512 512" xmlns="http://www.w3.org/2000/svg">
 <path d="m117.67 422.3a119.87 119.87 0 0 1 28.486-20.013l7.2805-3.6459a6.0084 6.0084 0 0 0 1.5447-9.6202l-29.031-29.031a6.0084 6.0084 0 0 0-9.6089 1.556l-3.6573 7.2691a119.89 119.89 0 0 1-19.967 28.497l-51.281 54.314a23.92 23.92 0 0 1-18.991 7.4508l-12.108-0.8064a9.8587 9.8587 0 0 0-6.6671 1.9422 9.5294 9.5294 0 0 0-0.98815 14.334l18.934 18.922 18.661 18.673a9.8247 9.8247 0 0 0 11.358 1.9876 9.5407 9.5407 0 0 0 5.1225-9.0864l-0.84049-12.471a23.988 23.988 0 0 1 7.4508-19.002z" stroke-width="1.1358"/>
 <path d="m227.07 405.5 37.595-75.349a68.375 68.375 0 0 1 8.2686-12.789l239.98-308.3c3.5892-4.6114-2.3511-10.563-6.9624-6.9738l-308.3 239.98a69.011 69.011 0 0 1-12.789 8.28l-75.36 37.584a12.766 12.766 0 0 0-3.3165 20.444l100.45 100.45a12.755 12.755 0 0 0 20.433-3.3279z" stroke-width="1.1358"/>
</svg>
