<svg version="1.1" viewBox="0 0 512 512" xmlns="http://www.w3.org/2000/svg">
 <path d="m143.03 393.38-22.238-22.238a5.1138 5.1138 0 0 0-7.5137 0.30263l-76.841 86.62a25.434 25.434 0 1 0 18.481 18.481l87.809-75.686a5.1362 5.1362 0 0 0 0.3028-7.48z" stroke-width="1.1214"/>
 <path d="m491.02 1.4823c-20.915 16.452-70.124 45.374-146.48 32.97a15.936 15.936 0 0 0-17.293 9.5211c-17.517 41.718-81.226 184.91-172.84 291.33-19.681-29.987-13.85-54.547-9.835-64.707a12.72 12.72 0 0 0-23.662-9.3416c-6.4707 16.384-16.754 59.638 27.386 107.25l14.837 16.07a51.766 51.766 0 0 1 13.121 45.273 59.436 59.436 0 0 1-3.2185 10.53 60.827 60.827 0 0 1-73.6 35.886 12.72 12.72 0 0 0-6.9978 24.459 86.351 86.351 0 0 0 39.598 2.0298c28.642-5.1923 53.369-25.378 64.55-52.708a85.757 85.757 0 0 0 4.5755-15.083 77.021 77.021 0 0 0-16.452-64.326c48.727-25.95 245.45-142.48 313.42-364.23a4.4858 4.4858 0 0 0-7.11-4.9232z" stroke-width="1.1214"/>
</svg>
