<svg version="1.1" viewBox="0 0 512 512" xmlns="http://www.w3.org/2000/svg">
 <title>weapon great axe</title>
 <g transform="matrix(5.1679 0 0 5.1679 -4.1633 -3.1466)">
  <path d="m75.8 18.9-5.2 5.1 5.4 5.4 5.1-5.1c1-1 1-2.7 0-3.7l-1.7-1.7c-1-1.1-2.6-1.1-3.6 0z"/>
  <path d="m93 21.4c-0.1-0.2-0.3-0.3-0.5-0.3s-0.5 0.1-0.5 0.4c-0.6 2.7-2.5 8.2-7.9 10.9-1.1 0.5-2.3 0.8-3.4 0.8-2 0-4.1-0.8-5.6-2.3l-6.1-6.1c-2.4-2.4-3-6-1.5-9 2.7-5.4 8.2-7.2 10.9-7.9 0.5-0.1 0.6-0.8 0.1-1-1.9-0.8-5.4-2-9.9-2-5.9 0-13.6 2-21.5 9.6l-0.8 0.8c-13.3 14-9.5 27-7.6 31.4 0.1 0.2 0.3 0.3 0.5 0.3s0.5-0.1 0.5-0.4c0.6-2.7 2.5-8.2 7.9-10.9 1.1-0.5 2.3-0.8 3.4-0.8 2 0 4.1 0.8 5.6 2.3l6.1 6.1c2.4 2.4 3 6 1.5 9-2.7 5.4-8.2 7.2-10.9 7.9-0.5 0.1-0.6 0.8-0.1 1 1.9 0.8 5.4 2 9.9 2 5.9 0 13.6-2 21.5-9.6l0.8-0.8c13.3-13.9 9.5-27 7.6-31.4zm-25.4 14.4c-0.9 0.9-2.5 0.9-3.4 0s-0.9-2.5 0-3.4 2.5-0.9 3.4 0c0.9 1 0.9 2.5 0 3.4z"/>
  <path d="m23.2 70.7c-0.3-0.3-0.7-0.5-1.1-0.5s-0.8 0.2-1.1 0.5c-0.6 0.6-0.6 1.6 0 2.2l0.4 0.4-12.5 12.4 5.4 5.4 12.4-12.4 0.2 0.2c0.3 0.3 0.7 0.5 1.1 0.5s0.8-0.2 1.1-0.5c0.6-0.6 0.6-1.6 0-2.2z"/>
  <rect transform="matrix(.7071 -.7071 .7071 .7071 -27.792 47.067)" x="21" y="53.3" width="43.9" height="7.6"/>
  <path d="m7.7 86.9-2 2c-1 1-1 2.7 0 3.7l1.7 1.7c1 1 2.7 1 3.7 0l2-2z"/>
 </g>
</svg>
