<svg version="1.1" viewBox="0 0 512 512" xmlns="http://www.w3.org/2000/svg">
 <title>weapon staff</title>
 <g transform="matrix(1.6178 0 0 1.6178 3.9162 27.134)" data-name="Layer 2">
  <g data-name="Layer 2">
   <path d="m303.07 9.36c-7.56-9.42-22.32-12.53-35-5.6a39.43 39.43 0 0 0-5.36 3.13 41.3 41.3 0 0 0-5.46 4.55c9.35-3.83 19.92-9.44 29-5.52 9.54 3.45 14.77 14.36 10.43 25.87-2.25 4.64-6.25 9.39-11.57 10.63a13.69 13.69 0 0 1-2.57 0.41c0.23-0.93 0.43-1.86 0.58-2.8a11.14 11.14 0 0 0 7.88-4.28 19.73 19.73 0 0 0 3.88-15.09c-1.68-8-7.63-12.55-15.84-12.48-15.04-0.4-27.34 12.51-32.67 26.26a22.39 22.39 0 0 0-3.09 4.56 26.69 26.69 0 0 0-2.1 5.73 24.67 24.67 0 0 0-0.92 6 314.27 314.27 0 0 1-26.45 22.91c-1.19 1.16-2.4 2.32-4 3.83a227.45 227.45 0 0 1-18.27 15.8 51.06 51.06 0 0 0-12.14 11c-1.51 1.67-3 3.31-4.59 4.94-1.3 1.35-3.29 3.17-4.68 4.46-1 0.75-3 2.55-6.07 5.48a261.84 261.84 0 0 1-19.56 20.09c-0.85 0.79-1.83 1.69-3 2.73a310.62 310.62 0 0 0-43.29 41c-1.64 1.86-3.26 3.74-5 5.67-19.51 11.9-37.9 25.61-53.63 44-2 2.07-3.82 3.94-4.51 4.61-5.49 5.4-11.07 10.75-16.48 16.23-1.36 1.4-2.74 2.8-4.11 4.2q-6.19 6.32-12.41 12.66a12.07 12.07 0 0 0-1.73 3.24 5.16 5.16 0 0 0 0.51 4.79l4 4.9c0.48 0.6 4.81 0 5.35 0.34 1.14-0.46 2.27-0.93 3.4-1.41 1.72-0.85 3.14-1.53 4.54-2.21a35.77 35.77 0 0 0 10.14-6.23c1.28-1 4.49-3.39 6.27-4.71 16.11-16.26 32.7-31.61 50.15-45l3.51-2.69c18.15-17.36 36.1-33.77 55.79-48.36 1.05-0.74 3.44-3 4.69-4.09 8.43-6.28 16.78-12.76 25.14-19.2 1.49-1.37 3.91-3.86 5.29-5.16 7.49-9 13.73-19.72 22.19-26.85 9.56-8.12 21-13 31.49-20.24 2-1.9 3.83-3.71 5.7-5.5q11.18-10.68 22.84-20.59a29.84 29.84 0 0 0 15.56-4.16c2.64-1.43 4.05-2 5.5-2.73a39.5 39.5 0 0 0 14.34-9.15 43.19 43.19 0 0 0 4.55-5.33c10.26-12.85 9.62-29.9 1.78-40.64z"/>
  </g>
 </g>
</svg>
