<svg
   xmlns="http://www.w3.org/2000/svg"
   viewBox="0 0 512 512"
   x="0px"
   y="0px">
  <path
     d="M 509.68331,1.0626468 C 458.86352,15.68204 419.87847,30.997594 369.05868,45.616987 l -215.81009,267.326043 18.1002,18.1002 251.31433,-242.960388 -243.65655,251.314318 18.1002,18.10021 268.0222,-215.81009 C 479.74837,90.867488 494.36776,51.882441 509.68331,1.0626468 Z M 104.51728,282.31192 c -8.353935,-8.35394 -20.884843,-8.35394 -28.54262,0 -7.657777,7.65777 -7.657777,20.18868 0,27.84646 l 43.85818,43.85818 -82.147066,83.53938 35.50424,34.80808 83.539386,-81.4509 43.85818,43.85818 c 7.65778,7.65778 20.18868,7.65778 27.84646,0 7.65778,-7.65778 7.65778,-20.88485 0,-28.54263 C 187.36051,365.15514 145.59082,323.38545 104.51728,282.31192 Z M 18.889412,427.80968 c -4.176969,-3.4808 -10.4424231,-3.4808 -14.6193925,0 -3.48080776,4.17697 -3.48080776,10.44243 0,14.6194 l 64.0468635,63.3507 c 3.480808,4.17697 10.442423,4.17697 13.923231,0 4.17697,-3.48081 4.17697,-10.44243 0,-13.92323 C 61.355267,470.27554 40.470421,449.39069 18.889412,427.80968 Z"
     />
</svg>
