<svg version="1.1" viewBox="0 0 512 512" xmlns="http://www.w3.org/2000/svg">
 <path d="m317.92 256.81a5.1396 5.1396 0 0 0 4.2379 8.7463 199.28 199.28 0 0 1 27.276-1.206 42.469 42.469 0 0 0 31.198-12.398l72.62-71.786c33.16-32.821 53.887-76.283 56.84-122.61 1.0707-16.726-0.13504-34.298-5.2185-51.441a8.025 8.025 0 0 0-13.311-3.3813l-436.68 432.09-3.9674-3.9336a15.881 15.881 0 0 0-22.283 0 15.486 15.486 0 0 0 0 22.058l30.432 30.128a15.87 15.87 0 0 0 22.294 0 15.475 15.475 0 0 0 0-22.046l-1.3751-1.3412 280.82-278.1a11.654 11.654 0 1 1 16.219 16.738z" stroke-width="1.1271"/>
 <path d="m41.861 503.93 2.4233-2.3895a5.6355 5.6355 0 0 0 0-8.0475l-26.171-25.912a5.7933 5.7933 0 0 0-8.1265 0l-2.4233 2.3895a23.827 23.827 0 0 0 0 33.937 24.447 24.447 0 0 0 34.298 0.0213z" stroke-width="1.1271"/>
</svg>
