<?xml version="1.0" encoding="UTF-8" standalone="no"?>
<svg
   xmlns:dc="http://purl.org/dc/elements/1.1/"
   xmlns:cc="http://creativecommons.org/ns#"
   xmlns:rdf="http://www.w3.org/1999/02/22-rdf-syntax-ns#"
   xmlns:svg="http://www.w3.org/2000/svg"
   xmlns="http://www.w3.org/2000/svg"
   xmlns:sodipodi="http://sodipodi.sourceforge.net/DTD/sodipodi-0.dtd"
   xmlns:inkscape="http://www.inkscape.org/namespaces/inkscape"
   width="25"
   height="25"
   viewBox="0 0 25 25"
   version="1.1"
   id="svg3100"
   inkscape:version="1.0.1 (3bc2e813f5, 2020-09-07)"
   sodipodi:docname="nipples.svg">
  <style
     id="style3663"></style>
  <defs
     id="defs3094" />
  <sodipodi:namedview
     id="base"
     pagecolor="#ffffff"
     bordercolor="#666666"
     borderopacity="1.0"
     inkscape:pageopacity="0.0"
     inkscape:pageshadow="2"
     inkscape:zoom="7.9195959"
     inkscape:cx="14.254697"
     inkscape:cy="-2.1321305"
     inkscape:document-units="mm"
     inkscape:current-layer="layer1"
     inkscape:document-rotation="0"
     showgrid="false"
     units="px"
     viewbox-width="25"
     inkscape:pagecheckerboard="true"
     inkscape:window-width="1267"
     inkscape:window-height="1040"
     inkscape:window-x="208"
     inkscape:window-y="0"
     inkscape:window-maximized="0" />
  <metadata
     id="metadata3097">
    <rdf:RDF>
      <cc:Work
         rdf:about="">
        <dc:format>image/svg+xml</dc:format>
        <dc:type
           rdf:resource="http://purl.org/dc/dcmitype/StillImage" />
        <dc:title></dc:title>
      </cc:Work>
    </rdf:RDF>
  </metadata>
  <g
     inkscape:label="Layer 1"
     inkscape:groupmode="layer"
     id="layer1">
    <g
       id="g6"
       transform="matrix(0.2355656,0,0,0.2355656,0.72172,0.72172)">
      <path
         d="M 71.3,83 C 62.2,83 54.3,78.1 50,70.9 45.7,78.1 37.7,83 28.7,83 c -4.6,0 -8.9,-1.3 -12.6,-3.5 0.8,5.3 2.4,15.9 2,20.5 H 82 C 81.6,95.4 83.2,84.8 84,79.5 80.3,81.7 75.9,83 71.3,83 Z"
         id="path2" />
      <path
         d="M 89.3,14.1 C 83.5,13.1 75.1,13.5 71.4,12.8 65.4,11.7 66.3,0 66.3,0 H 33.7 c 0,0 1,11.7 -5.1,12.8 -3.7,0.7 -12.1,0.3 -17.9,1.3 C 3.8,15.3 0,21.6 0,21.6 V 57.1 C 13.2,44 17.4,44.3 16.1,45.7 c -3.4,3.4 -5.2,7.8 -5.2,12.6 0,9.8 8,17.8 17.8,17.8 9.8,0 17.8,-8 17.8,-17.8 0,-1.9 1.6,-3.5 3.5,-3.5 1.9,0 3.5,1.6 3.5,3.5 0,9.8 8,17.8 17.8,17.8 9.8,0 17.8,-8 17.8,-17.8 0,-4.8 -1.9,-9.2 -5.2,-12.6 -1.4,-1.4 5.6,-0.2 16.1,10.1 V 21.7 c 0,-0.1 -3.8,-6.4 -10.7,-7.6 z M 28.5,62.8 c -1.9,0 -3.5,-1.6 -3.5,-3.5 0,-1.9 1.6,-3.5 3.5,-3.5 1.9,0 3.5,1.6 3.5,3.5 0,2 -1.5,3.5 -3.5,3.5 z m 43,0 c -1.9,0 -3.5,-1.6 -3.5,-3.5 0,-1.9 1.6,-3.5 3.5,-3.5 1.9,0 3.5,1.6 3.5,3.5 0,2 -1.6,3.5 -3.5,3.5 z"
         id="path4" />
    </g>
  </g>
</svg>
