<?xml version="1.0" encoding="UTF-8" standalone="no"?>
<svg
   xmlns:dc="http://purl.org/dc/elements/1.1/"
   xmlns:cc="http://creativecommons.org/ns#"
   xmlns:rdf="http://www.w3.org/1999/02/22-rdf-syntax-ns#"
   xmlns:svg="http://www.w3.org/2000/svg"
   xmlns="http://www.w3.org/2000/svg"
   xmlns:sodipodi="http://sodipodi.sourceforge.net/DTD/sodipodi-0.dtd"
   xmlns:inkscape="http://www.inkscape.org/namespaces/inkscape"
   width="25"
   height="25"
   viewBox="0 0 25 25"
   version="1.1"
   id="svg3100"
   inkscape:version="1.0.1 (3bc2e813f5, 2020-09-07)"
   sodipodi:docname="mouth.svg">
  <style
     id="style3663"></style>
  <defs
     id="defs3094" />
  <sodipodi:namedview
     id="base"
     pagecolor="#ffffff"
     bordercolor="#666666"
     borderopacity="1.0"
     inkscape:pageopacity="0.0"
     inkscape:pageshadow="2"
     inkscape:zoom="7.9195959"
     inkscape:cx="22.467475"
     inkscape:cy="1.3937146"
     inkscape:document-units="mm"
     inkscape:current-layer="layer1"
     inkscape:document-rotation="0"
     showgrid="false"
     units="px"
     viewbox-width="25"
     inkscape:pagecheckerboard="true"
     inkscape:window-width="1267"
     inkscape:window-height="1040"
     inkscape:window-x="208"
     inkscape:window-y="0"
     inkscape:window-maximized="0" />
  <metadata
     id="metadata3097">
    <rdf:RDF>
      <cc:Work
         rdf:about="">
        <dc:format>image/svg+xml</dc:format>
        <dc:type
           rdf:resource="http://purl.org/dc/dcmitype/StillImage" />
        <dc:title></dc:title>
      </cc:Work>
    </rdf:RDF>
  </metadata>
  <g
     inkscape:label="Layer 1"
     inkscape:groupmode="layer"
     id="layer1">
    <g
       id="g4"
       transform="matrix(0.27662323,0,0,0.27662323,-1.8470637,-0.95536331)">
      <path
         d="m 82.07,35.66 c -4.09,-2.3 -8.11,-4.74 -12.3,-6.84 -6.65,-3.33 -11.85,-2.1 -16.47,3.7 -0.75,0.95 -1,0.63 -1.49,-0.1 -1.17,-1.74 -2.73,-3.05 -4.58,-4.02 -4.63,-2.44 -8.97,-1.31 -13.2,1.06 -4.73,2.65 -9.39,5.42 -14.2,7.92 -3.23,1.68 -6.34,3.96 -10.81,3.56 7.36,11.83 16.38,20.13 29.06,25.79 5.99,2.67 12.2,4.38 18.9,3.15 9.46,-1.74 17.47,-6.3 24.6,-12.55 C 88.57,51.45 94.71,41.22 94.71,41.22 90.01,41.2 86.02,37.88 82.07,35.66 Z M 53.31,53.67 C 40.79,53.68 21.18,44.89 21.57,45 c 6.88,1.74 15.59,1.36 22.25,-1.23 7.45,-2.9 11.06,-2.65 18.59,-0.25 6.17,1.96 14.39,2.7 20.79,1.5 0.42,-0.17 -17.44,8.65 -29.89,8.65 z"
         id="path2" />
    </g>
  </g>
</svg>
