<svg version="1.1" viewBox="0 0 20 20" xmlns="http://www.w3.org/2000/svg">
 <path d="m5.4479-10.31s-2.6377-2.3074-4.6409-2.2973l0.81035 1.6032s-4.0159-0.93311-5.6962-0.32025l0.57825 1.006-3.8518 1.465c3.8535-16.149-13.347-13.837-17.954-9.3394 0 0 8.7276-0.23305 6.8652 3.5088 1.2974-0.33199 4.2524 0.40986 2.8967 3.5657 0 0 4.7712-0.49218 4.507 5.6995 0 0-1.5681-3.0535-3.3197-3.7291-3.9351-2.1147-10.658-0.1157-11.777 7.1743 0 0 2.6273-3.3529 5.2945-1.6291 0 0 2.8098-2.2425 4.4831 0.46504 1.126-0.73821 2.1278-1.0568 3.2224 0.24684 0 0-3.3593 3.4198-3.383 6.8483l2.3328-1.7972s-1.5433 5.8024 0.38278 9.5913l1.3081-1.7723s-0.21959 4.3511 3.6232 6.1273l-0.04333-2.7872s1.6095 4.9703 6.5305 5.2024c-1.5074-0.90691-1.3036-1.4431-1.4095-2.2415 0 0 3.9138 4.2042 10.932 1.3757l-1.693-0.28504s4.7303-2.2201 6.1871-4.9496l0.27541 2.2201c1.2174-2.5492 1.95-5.3027 2.1604-8.1198l1.9366 2.8453-1.4491-6.7809-4.6162 5.3155 3.3865-1.6393c-0.64387 1.8991-1.1208 3.0211-3.6953 5.0142l0.93609 0.42192c-1.3482 0.67627-4.6391 2.4842-7.2921 1.4788l0.98839 1.7145c-1.2958 1.1079-6.5721-0.8098-7.7333-5.2191l2.1558 0.42503s-2.6153-2.9242-1.6608-5.024l1.446-8.4148s1.1728-4.5698 6.3454-1.6247z" stroke-width=".4866"/>
</svg>
