<svg version="1.1" viewBox="0 0 20 20" xmlns="http://www.w3.org/2000/svg">
 <g transform="translate(0 -291.71)">
  <path d="m19.836 299.11c-0.11817-0.11795-0.27254-0.17704-0.42733-0.17813l4.37e-4 -9.9e-4h-0.45306c-0.68918 0-1.2495-0.56055-1.2495-1.25 0-0.33031 0.12929-0.63032 0.33947-0.85402l1.8306-1.8303c0.17464-0.1742 0.22675-0.43671 0.13234-0.66454-0.09484-0.22784-0.31701-0.37632-0.56316-0.37632h-9.1319c-0.8091 0-1.546 0.3144-2.0961 0.82676l-8.722e-4 -8.7e-4 -0.040553 0.0403c-0.025945 0.0248-0.0508 0.0499-0.076091 0.0761l-7.0115 7.0161 2.18e-4 4.5e-4c-0.62879 0.5636-1.0247 1.3818-1.0247 2.2915 0 1.6976 1.3808 3.0783 3.0785 3.0783h0.16723v2.0841l1.6897-0.74217 1.6895 0.74173v-2.0837h5.585c0.16134 0 0.31614-0.0641 0.43082-0.17835l7.1714-7.1716-0.0054-5e-3c0.19928-0.23983 0.18947-0.59478-0.03488-0.81935zm-2.8487 1.9862v3e-3l-4.9662 4.9658h-5.3319v-1.3836h-3.3792v1.3836h-0.16723c-1.0252 0-1.8596-0.83373-1.8596-1.8589 0-1.0258 0.83439-1.8598 1.8596-1.8598h9.1314c0.16134 0 0.31614-0.0639 0.43082-0.17878l3.865-3.8641c0.2032 0.77923 0.77705 1.4082 1.5229 1.6877z" fill="#ccc" stroke-width=".21803"/>
 </g>
</svg>
