<svg version="1.1" viewBox="0 0 20 20" xmlns="http://www.w3.org/2000/svg">
 <g transform="matrix(.33445 0 0 .33445 -.62108 -.35812)" style="fill:#ff7f2a">
  <path d="m29.352 61.383c-0.058-0.061-0.116-0.122-0.17-0.185-0.091-0.107-0.176-0.219-0.257-0.334-0.027-0.037-0.053-0.074-0.079-0.112-0.088-0.132-0.171-0.267-0.246-0.407-0.012-0.023-0.024-0.047-0.036-0.07-0.338-0.653-0.537-1.388-0.554-2.17-0.328-0.067-0.665-0.105-1.01-0.105-0.861 0-1.679 0.219-2.401 0.602l-0.16-0.057c-1.309-1.567-3.275-2.545-5.439-2.545-3.462 0-6.417 2.503-6.986 5.918l-0.014 0.082h18.031c-0.16-0.119-0.311-0.249-0.456-0.385-0.078-0.074-0.15-0.154-0.223-0.232z" style="fill:#ff7f2a"/>
  <path d="m12.998 42.51c-1.101-0.964-2.511-1.51-3.998-1.51-2.605 0-4.857 1.629-5.715 4h7.993c0.364-0.982 0.958-1.83 1.72-2.49z" style="fill:#ff7f2a"/>
  <path d="m13.476 45h7.048c-0.73-1.214-2.047-2-3.524-2s-2.793 0.786-3.524 2z" style="fill:#ff7f2a"/>
  <path d="m3 24v1h10v-1c0-2.757-2.243-5-5-5s-5 2.243-5 5z" style="fill:#ff7f2a"/>
  <path d="m51.614 20.557c-0.936-0.983-2.233-1.557-3.614-1.557-2.757 0-5 2.243-5 5v1h6.071c0.257-1.789 1.198-3.357 2.543-4.443z" style="fill:#ff7f2a"/>
  <path d="m56 21c-2.415 0-4.435 1.721-4.899 4h9.799c-0.465-2.279-2.485-4-4.9-4z" style="fill:#ff7f2a"/>
  <path d="m 9,39 c 2.188,0 4.252,0.885 5.768,2.435 C 15.466,41.162 16.215,41 17,41 c 1.518,0 2.916,0.568 4,1.507 V 27 H 3 V 41.681 C 4.489,40.017 6.633,39 9,39 Z" style="fill:#ff7f2a"/>
  <path d="m20.899 25c-0.465-2.279-2.484-4-4.899-4-0.533 0-1.058 0.095-1.56 0.26 0.36 0.842 0.56 1.768 0.56 2.74v1z" style="fill:#ff7f2a"/>
  <path d="m57 39c-1.477 0-2.793 0.786-3.524 2h7.048c-0.73-1.214-2.047-2-3.524-2z" style="fill:#ff7f2a"/>
  <path d="m58 55h-9v-3c0-1.654-1.346-3-3-3h-5v-26c0-1.654-1.346-3-3-3h-12c-1.654 0-3 1.346-3 3v25c0 1.654 1.346 3 3 3h4v7c0 1.654 1.346 3 3 3h28v-3c0-1.654-1.346-3-3-3zm-27-7h-2v-3c0-0.551-0.449-1-1-1-1.654 0-3-1.346-3-3v-3h2v3c0 0.551 0.449 1 1 1 1.654 0 3 1.346 3 3zm5-14h-2c-0.551 0-1 0.449-1 1s0.449 1 1 1c1.654 0 3 1.346 3 3v3h-2v-3c0-0.551-0.449-1-1-1-1.654 0-3-1.346-3-3s1.346-3 3-3h2c0.551 0 1-0.449 1-1s-0.449-1-1-1h-2c-1.654 0-3-1.346-3-3v-3h2v3c0 0.551 0.449 1 1 1h2c1.654 0 3 1.346 3 3s-1.346 3-3 3z" style="fill:#ff7f2a"/>
  <path d="m52.998 38.509c-1.1-0.964-2.506-1.509-3.998-1.509-2.605 0-4.857 1.629-5.715 4h7.993c0.364-0.982 0.958-1.83 1.72-2.491z" style="fill:#ff7f2a"/>
  <path d="m43 37.667c1.487-1.649 3.631-2.667 6-2.667 2.196 0 4.257 0.881 5.773 2.433 0.696-0.272 1.444-0.433 2.227-0.433 1.518 0 2.916 0.568 4 1.507v-11.507h-18z" style="fill:#ff7f2a"/>
  <path d="m5 11.823v5.862c0.622-0.297 1.294-0.503 2-0.605v-5.257c0.404-0.131 0.784-0.332 1.128-0.603l-5e-3 0.015c0.358 1.762 1.47 3.134 2.877 3.59v2.853c0.752 0.359 1.424 0.853 2 1.443v-4.298c1.722-0.558 3-2.496 3-4.823 0-2.761-1.791-5-4-5-0.781 0-1.51 0.28-2.125 0.763l-8e-3 0.023c-0.435-2.172-1.995-3.786-3.867-3.786-2.209 0-4 2.239-4 5 0 2.327 1.278 4.266 3 4.823z" style="fill:#ff7f2a"/>
  <path d="m49 13.823v3.259c0.695 0.102 1.368 0.309 2 0.611v-3.87c0.911-0.295 1.693-0.972 2.231-1.897l2e-3 0.019c0.707 0.972 1.673 1.663 2.767 1.93v5.125c0.694 0 1.36 0.125 2 0.318v-5.438c2.282-0.556 4-2.977 4-5.88 0-3.314-2.239-6-5-6-1.914 0-3.576 1.29-4.417 3.185l3e-3 0.03c-0.699-0.747-1.594-1.215-2.586-1.215-2.209 0-4 2.239-4 5 0 2.327 1.278 4.266 3 4.823z" style="fill:#ff7f2a"/>
  <path d="M 32,7 C 35.638,7 40.011,7.683 44.006,8.855 44.018,8.161 44.115,7.491 44.289,6.86 40.191,5.686 35.733,5 32,5 27.577,5 22.147,5.966 17.602,7.515 17.806,8.14 17.936,8.806 17.978,9.501 22.374,7.964 27.689,7 32,7 Z" style="fill:#ff7f2a"/>
  <path d="m45.097 13.022c-0.417-0.689-0.726-1.47-0.908-2.311-3.736-0.936-8.448-1.711-12.189-1.711-4.154 0-9.883 1.243-14.142 2.498-0.16 0.852-0.453 1.647-0.853 2.353 4.167-1.343 10.55-2.851 14.995-2.851 4.073 0 9.353 0.963 13.097 2.022z" style="fill:#ff7f2a"/>
  <path d="M 16.804,5.823 C 21.532,4.063 27.148,3 32,3 36.071,3 40.783,3.77 45.027,5.088 45.398,4.447 45.862,3.888 46.39,3.422 41.764,1.897 36.508,1 32,1 26.677,1 20.48,2.224 15.39,4.229 c 0.544,0.437 1.019,0.978 1.414,1.594 z" style="fill:#ff7f2a"/>
 </g>
</svg>
