<svg version="1.1" viewBox="0 0 20 20" xmlns="http://www.w3.org/2000/svg">
 <g transform="translate(0 -291.71)" fill="#deaa87" stroke-width=".22987">
  <path d="m6.4135 311.13c0.12574 0.35859 0.46226 0.58295 0.82201 0.58295 0.09562 0 0.19309-0.0159 0.28848-0.0494 0.45399-0.1593 0.69282-0.65628 0.53352-1.1105l-6.0772-17.32c-0.1593-0.45398-0.65627-0.69305-1.1105-0.53352-0.45376 0.15953-0.69259 0.6565-0.53352 1.1105z"/>
  <path d="m5.8761 301.3c0.04781 0.12505 0.1678 0.2078 0.30182 0.2078h9.3542c0.22642 0 0.38273-0.22688 0.30182-0.43859l-0.431-1.1273-2.224-5.8177c-0.0018-5e-3 -0.0055-9e-3 -0.0076-0.0133-0.01149-0.28113 0.15677-0.54869 0.43606-0.64662 0.34181-0.11999 0.71719 0.0602 0.83741 0.40273l1.8435 5.2582c0.02529 0.0722 0.03448 0.14551 0.03448 0.21769h3.1434c0.22642 0 0.38273-0.22688 0.30182-0.43859l-2.655-6.945c-0.04781-0.12505-0.1678-0.2078-0.30182-0.2078h-6.1106c-0.22642 0-0.38273 0.22688-0.30182 0.43859l0.65995 1.7263h-7.536c-0.22642 0-0.38273 0.22688-0.30182 0.43859z"/>
 </g>
</svg>
