<svg version="1.1" viewBox="0 0 20 20" xmlns="http://www.w3.org/2000/svg">
 <g transform="translate(0 -291.71)" fill="#0f0" stroke-width=".20913">
  <path d="m18.897 303.74c-0.04183-0.25096-0.18821-0.46008-0.41825-0.58556l-4.0361-2.0076c-0.54373 1.1084-1.2548 2.4886-2.2167 4.1616-0.46008 0.79468-1.2757 1.2757-2.1958 1.2757-0.92016 0-1.7567-0.481-2.2167-1.2757-0.87833-1.5057-1.5475-2.7605-2.0494-3.8061l-2.2586 0.37643c-0.25095 0.0418-0.46008 0.20913-0.56464 0.41825l-1.7148 3.8688c-0.1673 0.35552-0.020913 0.79468 0.31369 0.96198l8.3023 4.559c0.10456 0.0627 0.23004 0.0837 0.35551 0.0837 0.04183 0 0.10456 0 0.14639-0.0209l7.0894-1.4639c0.23004-0.0418 0.41825-0.18821 0.52282-0.39734 0.10456-0.20912 0.10456-0.43916 0.02091-0.64829l-1.3802-3.0951 2.0704-1.7776c0.18821-0.12548 0.27186-0.37643 0.23004-0.62738z"/>
  <path d="m10.929 304.58c1.2966-2.2586 3.5551-6.4202 3.5551-8.1768 0-2.4677-2.0076-4.4544-4.4544-4.4544-2.4468 0-4.4544 2.0076-4.4544 4.4544 0 1.7567 2.2586 5.9183 3.5551 8.1768 0.39734 0.69012 1.4011 0.69012 1.7985 0zm-2.9696-8.1978c0-1.1502 0.94107-2.0704 2.0704-2.0704 1.1293 0 2.0704 0.94107 2.0704 2.0704 0 1.1502-0.94107 2.0704-2.0704 2.0704-1.1293 0-2.0704-0.92016-2.0704-2.0704z"/>
 </g>
</svg>
