<svg version="1.1" viewBox="0 0 512 512" xmlns="http://www.w3.org/2000/svg">
 <g transform="translate(0 -161.53)">
  <g fill="#fff">
   <g>
    <rect x="7.1429" y="345.68" width="148.36" height="148.36"/>
    <rect x="182.16" y="267.1" width="148.36" height="148.36"/>
    <rect x="356.54" y="345.68" width="148.36" height="148.36"/>
    <rect x="182.25" y="439.35" width="148.36" height="148.36"/>
   </g>
   <path d="m151.22 409.41-42.223-42.374c-5.4677-5.4677-14.125-5.4677-19.592 0s-5.4677 14.125 0 19.592l18.681 18.681h-83.23c-7.594 0-13.821 6.2271-13.821 13.821 0 7.594 6.2271 13.821 13.821 13.821h83.23l-18.529 18.681c-5.4677 5.4677-5.4677 14.125 0 19.592 2.7338 2.7338 6.2271 4.1008 9.7203 4.1008 3.4932 0 7.1384-1.3669 9.7203-4.1008l42.223-42.223c2.582-2.582 4.1007-6.0752 4.1007-9.7203s-1.5188-7.2902-4.1007-9.8722z" stroke-width="1.5188"/>
  </g>
  <rect transform="scale(-1)" x="-330.61" y="-587.72" width="148.36" height="148.36" fill="#f00"/>
  <path d="m186.53 523.98 42.223 42.374c5.4677 5.4677 14.125 5.4677 19.592 0s5.4677-14.125 0-19.592l-18.681-18.681h83.23c7.594 0 13.821-6.2271 13.821-13.821 0-7.594-6.2271-13.821-13.821-13.821h-83.23l18.529-18.681c5.4677-5.4677 5.4677-14.125 0-19.592-2.7338-2.7338-6.2271-4.1008-9.7203-4.1008s-7.1384 1.3669-9.7203 4.1008l-42.223 42.223c-2.582 2.582-4.1007 6.0752-4.1007 9.7203s1.5188 7.2902 4.1007 9.8722z" stroke-width="1.5188"/>
  <g fill="#fff">
   <rect transform="scale(-1)" x="-504.91" y="-494.04" width="148.36" height="148.36"/>
   <path d="m360.83 430.31 42.223 42.374c5.4677 5.4677 14.125 5.4677 19.592 0s5.4677-14.125 0-19.592l-18.681-18.681h83.23c7.594 0 13.821-6.2271 13.821-13.821 0-7.594-6.2271-13.821-13.821-13.821h-83.23l18.529-18.681c5.4677-5.4677 5.4677-14.125 0-19.592-2.7338-2.7338-6.2271-4.1008-9.7203-4.1008s-7.1384 1.3669-9.7203 4.1008l-42.223 42.223c-2.582 2.582-4.1007 6.0752-4.1007 9.7203s1.5188 7.2902 4.1007 9.8722z" stroke-width="1.5188"/>
   <rect transform="scale(-1)" x="-330.52" y="-415.47" width="148.36" height="148.36"/>
   <path d="m186.45 351.74 42.223 42.374c5.4677 5.4677 14.125 5.4677 19.592 0s5.4677-14.125 0-19.592l-18.681-18.681h83.23c7.594 0 13.821-6.2271 13.821-13.821 0-7.594-6.2271-13.821-13.821-13.821h-83.23l18.529-18.681c5.4677-5.4677 5.4677-14.125 0-19.592-2.7338-2.7338-6.2271-4.1008-9.7203-4.1008s-7.1384 1.3669-9.7203 4.1008l-42.223 42.223c-2.582 2.582-4.1007 6.0752-4.1007 9.7203s1.5188 7.2902 4.1007 9.8722z" stroke-width="1.5188"/>
  </g>
 </g>
</svg>
