<svg width="50.611mm" height="8.9319mm" version="1.1" viewBox="0 0 50.611 8.9319" xmlns="http://www.w3.org/2000/svg">
 <defs>
  <mask id="mask917" maskUnits="userSpaceOnUse">
   <rect x="-.17655" y=".082321" width="50.611" height="8.8863" style="fill:#b3ff80"/>
  </mask>
  <mask id="mask921" maskUnits="userSpaceOnUse">
   <rect x="-.17655" y=".082321" width="50.611" height="8.8863" style="fill:#b3ff80"/>
  </mask>
  <mask id="mask929" maskUnits="userSpaceOnUse">
   <rect x="-.17656" y=".082321" width="50.611" height="8.8863" style="fill:#b3ff80"/>
  </mask>
 </defs>
 <path id="XMLID_409_" transform="translate(.17655 -.03676)" d="m-25.814-29.982v42.397h113v-42.397zm100.93 27.022c-0.09685 1.0556-0.34707 2.2713-1.9856 2.8553-0.68607 0.24227-1.5094 0.33312-2.3004 0.45426-2.2035 0.33745-4.2375 0.93015-6.2554 1.5185l0.04841-0.35043c0.01623-0.11681-0.28249-0.15575-0.37128-0.051915-0.59728 0.70085-0.58114 1.6137-1.7596 2.042-0.57307 0.21199-1.3156 0.2466-1.9291 0.42397-1.0009 0.28553-1.6062 0.91284-2.6878 1.1032-0.54079 0.095177-1.1219 0.064893-1.6869 0.11248-1.7596 0.14277-3.0994 0.98639-4.859 1.1335l-0.04035-0.30284c-0.024219-0.13844-0.36322-0.19036-0.5085-0.069227-0.13722 0.11681-0.30671 0.22497-0.49236 0.32447-0.088786-0.20333-0.16142-0.41099-0.21793-0.61865-0.048437-0.19468-0.54886-0.22929-0.68608-0.047589-0.03228-0.76575-0.07266-1.5272-0.13722-2.2886-8e-3 -0.14277-0.3955-0.1644-0.46008-0.021634-0.452 1.0296-0.69414 2.0896-0.69414 3.1452 0 0.37206-0.08073 0.83497-0.75064 0.96476-0.37128 0.069216-0.791 0-1.0574-0.16007-0.226-0.13844-0.339-0.29851-0.37128-0.46724-0.03228-0.15575-0.34707-0.23362-0.58922-0.14709-0.95243 0.33745-2.4134 0.30284-3.6079 0.16007-1.5416-0.1817-3.3416-0.41532-4.5684 0.12546-1.2591 0.55809-3.2689 0.16007-4.8025 0.45426-0.64572 0.12113-1.2026 0.36773-1.8645 0.45426-0.53272 0.069216-1.0816 0.034608-1.6304 0.043266-1.0816 0.021638-2.1309 0.22497-3.2124 0.21631-1.8726-0.012981-3.6886-0.64894-5.5047-0.40667-0.34707 0.047589-0.78293 0.10816-0.9605-0.099501-0.02422-0.030285-0.03228-0.060569-0.04842-0.090854l-0.18565-0.63163c-0.02422-0.08652-0.25828-0.082197-0.27443 0l-0.18564 0.73979c-0.71836-0.20766-1.4448-0.41965-2.1631-0.62731-1.1865-0.3461-2.5667-0.86958-2.373-1.5921-0.40357-0.10816-0.81522 0.15142-0.89593 0.38504-0.09686 0.27255-0.03228 0.58837-0.52465 0.74844-0.226 0.07355-0.5085 0.082197-0.76678 0.038931-0.32286-0.056246-0.54079-0.38504-0.71836-0.6922-0.096859-0.15574-0.50043-0.1644-0.61343-0.012981-0.226 0.29851-0.565 0.59702-0.85557 0.56674-0.17757-0.017304-0.34707-0.064893-0.50043-0.12114-1.3399-0.48886-1.6304-1.4623-1.808-2.3232-0.2825-1.3757-0.565-2.5222-0.8475-3.8071-8e-3 -0.047589-0.13722-0.043264-0.13722 0.00433 0.03228 1.4579-0.25022 2.7645-0.83943 4.27-0.06457 0.17305-0.339 0.30716-0.66993 0.31149-0.37128 0.00435-0.50043-0.14277-0.59729-0.28121-0.22599-0.32014-0.39549-0.65326-0.51656-0.99071-0.04035 0.11681-0.1372 0.23362-0.26636 0.3288-0.27443 0.20766-0.66993 0.3634-0.91207 0.57972-0.04035 0.038942-0.09685 0.077873-0.16142 0.10384-0.49235 0.20766-0.94436-0.19036-1.0009-0.48887-0.13722-0.77873 0.02422-1.6007-0.35514-2.3362-0.12916-0.25525-0.83136-0.19901-0.81522 0.069219 0 0.030284 8e-3 0.060568 8e-3 0.090852 0.105 0.83497 0.03237 1.7219-0.79899 2.4314-0.38744 0.32879-1.2107 0.61865-1.7838 0.37638-0.452-0.19037-0.37129-0.57107-0.61343-0.85228-0.20986-0.23794-0.64571-0.39369-0.97665-0.58837-0.41164-0.2466-0.65379-0.56674-0.87979-0.8739-0.791-1.0643-1.582-2.1285-2.3649-3.1885-0.71029-0.9561 1.1381-2.042 1.7192-3.0241 0.50043-0.84795 0.42779-1.7738 1.0331-2.6001 0.23407-0.31149 0.55693-0.60568 0.72643-0.93014 0.25828-0.50185 0.12914-1.0296 0.20178-1.5488 0.064572-0.47589 0.38743-0.99504 1.1139-1.2503 0.032295-0.1817 0.46007-0.31149 0.79907-0.25525 0.36321 0.06057 0.58922 0.26823 0.62957 0.47156 0.040354 0.20333-0.048433 0.40667-0.12914 0.60568-0.24214 0.57972-0.37129 1.1681-0.38743 1.7608-0.00803 0.16007 0.41971 0.19036 0.49236 0.034609 0.25829-0.5278 0.48429-1.0643 0.678-1.6007 0.36322-0.97774 0.70222-2.0377 1.808-2.8034 0.24214-0.16873 0.74257-0.08652 0.76679 0.12546l0.14528 1.233c8e-3 0.04759 0.13722 0.04759 0.14528 0 0.10495-0.63596 0.29864-1.2633 0.58922-1.8819 0.05651-0.12979 0.14528-0.26823 0.27443-0.38936 0.20986-0.20333 0.78293-0.12546 0.80715 0.10384l0.14528 1.6959c8e-3 0.12546 0.339 0.13844 0.38743 0.0173 0.20985-0.54944 0.43586-1.0945 0.74257-1.6267 0.07266-0.13411 0.44393-0.09518 0.42779 0.03894-0.11301 1.2287-0.14528 2.4573-0.09685 3.686 8e-3 0.14709 0.3955 0.1644 0.452 0.02163 0.37129-0.99504 0.42779-2.029 0.452-3.05 8e-3 -0.44128 0.04844-0.93015 0.44393-1.3022 0.12106-0.11248 0.44393-0.07787 0.47622 0.05191 0.20985 0.86092 0.0565 1.7392-0.17758 2.6087-0.02422 0.0822 0.20986 0.10816 0.25021 0.02595 0.452-0.86093 0.42779-1.7954 0.47622-2.6953 0.0565-1.1292 0.2825-2.3319 1.582-3.2187l0.32286 0.32014c0.01623-0.26823 0.26636-0.53213 0.65379-0.70085-0.08879 0.84362-0.07266 1.6872 0.04842 2.5309 0.01623 0.10816 0.30671 0.10816 0.33093 0.0043 0.18564-0.98639-0.03228-2.0247 0.8475-2.8856 0.12106 0.80901 0.1695 1.618 0.16144 2.427 0 0.12979 0.33093 0.15575 0.40358 0.03461 0.54079-0.92149 0.08879-2.0766 1.3076-2.7991l0.49236 5.9875c8e-3 0.12979 0.36321 0.14709 0.41164 0.0173 0.565-1.644 0.89593-3.3139 0.97665-4.9838 0.02422-0.51482 0.03228-1.0383 0.29864-1.5315l0.25022 0.84362c0.04035 0.12546 0.37128 0.13411 0.42778 0.01298l0.83943-1.7565 0.19372 1.6872c8e-3 0.06489 0.18564 0.07355 0.20986 0.0087l0.62958-1.5272c0.23407 0.31149 0.32286 0.65326 0.25829 0.98639l0.94436-1.8819 0.14528 2.2843c8e-3 0.08653 0.23408 0.09518 0.26636 0.0087l0.74257-2.1977-8e-3 1.856c0.01623-0.22929 0.12106-0.45858 0.31478-0.66192l-0.07266 1.4147c0 0.07787 0.20985 0.09518 0.24214 0.0173 0.29865-0.73114 0.61343-1.4753 0.89593-2.1934l-0.15336 2.877c-8e-3 0.15142 0.40358 0.17738 0.46008 0.03028 0.38743-1.0123 0.36321-2.0766 0.50043-3.1149 0.01623-0.11248 0.06457-0.24227 0.14528-0.35475 0.15336-0.21199 0.74257-0.15142 0.7345 0.07355-8e-3 0.37206 0.07266 0.74412 0.24214 1.1032 0.06457 0.12979 0.40357 0.12979 0.46814 0.0043l0.41972-0.8566c0.08879-0.17738 0.565-0.1817 0.65379-0.0043 0.26636 0.50185 0.15336 1.0816 0.2825 1.6223 0.02422 0.11248 0.33093 0.10816 0.34707-0.0043 0.12106-0.57539 0.31478-1.1465 0.58115-1.7089 0.09685-0.19901 0.61343-0.21199 0.74257-0.02163 0.14528 0.21631 0.15336 0.48454 0.14528 0.72248-0.02422 0.6922 0.08071 1.3801 0.31479 2.0593 0.05651 0.16007 0.49236 0.16007 0.54079 0 0.2825-0.89121 0.46814-1.7911 0.54886-2.6953 0.04035-0.46291 0.07266-0.94745 0.2825-1.3931 0.10493-0.22496 0.71836-0.16872 0.68607 0.06057-8e-3 0.04327-0.01623 0.09086-0.02422 0.13411-0.01623 0.09518 0.23407 0.12979 0.29057 0.03894 0.29864-0.44128 0.29864-0.98639 0.65378-1.3758 0.16952-0.1817 0.678-0.12546 0.69414 0.07787l0.0565 0.77872 0.76679-1.0686c0.08073-0.11681 0.38743-0.12546 0.50043-0.0173 0.21793 0.21631 0.19372 0.5278 0.15336 0.7917-0.08073 0.60568 8e-3 1.2157 0.25022 1.8084 0.04841 0.11248 0.34707 0.10816 0.37936-0.0043 0.40358-1.1767-0.10492-2.4833 1.0735-3.4956l0.06457 0.74412c8e-3 0.07355 0.20179 0.0822 0.23407 0.0087 0.19373-0.48022 0.46008-0.95178 0.81522-1.406 0.34707 0.3461 0.50043 0.73979 0.452 1.1292 0.18564-0.46291 0.41165-0.91717 0.66993-1.3714 0.04035-0.06489 0.14528-0.11681 0.27443-0.11681 0.23407-0.0043 0.29057 0.15142 0.29057 0.2639v1.4839c0 0.11681 0.30671 0.13411 0.36321 0.02163 0.38743-0.84795 0.71836-1.6829 0.95243-2.5611 0.02422-0.09518 0.16142-0.17738 0.339-0.19035 0.30672-0.02163 0.42779 0.17305 0.46008 0.32447 0.0565 0.26823 0.11301 0.53645 0.1695 0.80468 0.79907-0.58404 0.23407-1.4493 0.85557-2.0896 0.0565-0.05623 0.11301-0.10816 0.20985-0.14277 0.20179-0.07355 0.49236-0.03894 0.678 0.04759 0.18564 0.08653 0.29057 0.21199 0.38743 0.32879 0.04035-0.0995 0.31479-0.11681 0.46007-0.04759 0.14528 0.06489 0.17758 0.17305 0.20179 0.27256 0.2825 1.3238 0.23407 2.665 0.55693 3.9802 8e-3 0.04327 0.12912 0.03894 0.12912-0.0043-0.01623-0.93015 0.17758-1.856 0.58115-2.7602 0.07266 0.28553 0.12106 0.57106 0.13722 0.8566 8e-3 0.12979 0.35514 0.14709 0.40357 0.02163 0.49236-1.1767-0.30672-2.5222 0.38743-3.6989 0.06457 0.74844 0.08879 1.4969 0.08879 2.241 0 0.08652 0.226 0.0995 0.25828 0.0173l0.91208-2.2583c-0.08073 0.58837-0.16142 1.1724-0.24215 1.7608 0.13722-0.81334 0.61344-1.605 1.3883-2.3059 0.04035 0.71383 0.12106 1.4363 0.18564 2.1588 0.01623 0.18603 0.52464 0.19468 0.55693 0.0087 0.17758-0.8739 0.02422-1.7911 0.565-2.626 0.50043 0.09518 0.5085 0.46291 0.47622 0.74412-0.08879 0.68787 0.08879 1.3887 0.51657 2.042-0.01623-0.5278 0.1695-1.0556 0.53272-1.5445l0.48428 1.458 0.66186-1.2762c0.43586 0.30717 0.33093 0.73546 0.2825 1.1205-0.02422 0.21631 0 0.45858 0.14528 0.66192 0.12914 0.18603 0.63765 0.15574 0.69415-0.03894l0.55693-1.9425c0.19372 0.35908 0.339 0.72681 0.42778 1.0945 0.24215-0.41965 0.61343-0.82199 1.0977-1.1767l0.23407 1.8906c0.66186-0.50184 1.0654-1.1032 1.1704-1.7175 0.452 0.51482 0.8475 1.0383 1.1946 1.5748 0.12106 0.18603 0.6215 0.19036 0.74258 0.0043 0.19372-0.28986 0.42778-0.57107 0.69414-0.84362 0.43586 0.0822 0.53272 0.38071 0.565 0.62731l0.16142 1.2287c0.01623 0.0995 0.27443 0.10384 0.30672 0.0087 0.10493-0.3461 0.24214-0.68787 0.41164-1.0253 0.44393 0.34177 0.71029 0.7571 0.7345 1.1724 0.38743-0.32447 0.565-0.72248 0.48429-1.1032 0.13723 0.62731 0.27443 1.2546 0.41165 1.8819 1.0654-0.5105 0.35514-1.4753 0.83136-2.1977 0.52464 0.80901 0.79907 1.6656 0.83136 2.5222 0.35514-0.19901 0.54078-0.48454 0.47622-0.7571 0.63764 0.15574 0.7345 0.60568 0.74257 0.98206 0.01623 0.47156 0.03228 0.94312 0.04841 1.419 8e-3 0.1644 0.43586 0.19468 0.52465 0.03894 0.37936-0.68787 0.0565-1.5445 0.70222-2.1977 0.35514 0.46291 0.55693 0.96043 0.59729 1.4623 8e-3 0.10816 0.29057 0.12546 0.34707 0.02163 0.09685-0.20334 0.19372-0.40667 0.27443-0.61433 0.02422 1.4017 0.0565 2.8121 0.54079 4.1878 0.08879 0.25092 0.74257 0.27256 0.88786 0.03029 0.53272-0.90851-0.21793-2.1415 0.85558-2.9592 1.5255 1.047 0.87172 2.5438 1.3156 3.859 0.04841 0.14709 0.44392 0.15142 0.50042 0.0043 0.46815-1.1162 0.66993-2.267 0.59729-3.4091 0.53272 0.0995 0.678 0.45426 0.75064 0.75277 0.44393 1.9555 0.89593 3.9109 1.3399 5.8664 0.2825 1.2373 0.41972 2.3924 0.81522 3.6211 0.8475 2.6087 0.6215 5.2607 0.38743 7.8911z" mask="url(#mask929)" style="fill:#782121;stroke-width:.059092"/>
 <path id="XMLID_404_" transform="translate(.17655 -.03676)" d="m-2.2803-23.675v33.469h58.276v-33.469zm54.559 15.594c-0.06244 0.66597-0.2664 1.3183-0.37047 1.9808-0.37463 2.3155 0.42042 4.6959-0.07493 6.9978-0.09158-0.31762-0.18732-0.48496-0.20397-0.80941-0.01249-0.26297-0.0083-0.5396-0.08325-0.79233-0.02081-0.075135-0.15402-0.06489-0.15818 0.013661-0.01249 0.28688-0.04995 0.57376-0.11655 0.85722-0.35798 1.5403-0.15818 3.1318-0.31219 4.6959-0.0083 0.10246-0.1998 0.095626-0.19564-0.010245 0-0.030737 0.0042-0.061474 0.0083-0.092211 0.10823-0.74452 0.14569-1.4925 0.10406-2.2404-0.01249-0.29029-0.04163-0.58742-0.14985-0.86064-0.02913-0.071719-0.15818-0.054643-0.15818 0.020491 0.01251 0.66938-0.09155 1.3388-0.31217 1.9808-0.02914-0.59766-0.05411-1.1953-0.07909-1.793-0.0042-0.07172-0.12904-0.07855-0.14569-0.010245-0.31219 1.3251-0.32468 2.6878-0.33716 4.0402-0.12904 0.095626-0.27473-0.10929-0.27473-0.25273l-0.01249-1.7042c0-0.044398-0.07493-0.051229-0.08742-0.00683-0.31219 1.2329-0.47869 2.4931-0.49534 3.7533 0 0.15027-0.0042 0.30737-0.0666 0.45081-0.11239 0.25614-0.40793 0.43032-0.65768 0.60108-0.07493 0.051229-0.17483 0.075135-0.27057 0.054644-0.14151-0.030738-0.15816-0.12636-0.17065-0.21516-0.070766-0.48838-0.14569-0.98017-0.21645-1.4685-0.01665-0.10587-0.1998-0.12295-0.24143-0.020491-0.02914 0.07855-0.04579 0.16735-0.05411 0.24931-0.06244 0.54985-0.12488 1.0997-0.18731 1.6496-0.01249 0.12295-0.12488 0.2254-0.27473 0.23565-0.24559 0.020492-0.32884-0.23223-0.33717-0.42007l-0.09991-1.9877c-0.0083-0.13661-0.24559-0.14685-0.27473-0.013661-0.06244 0.28688-0.09574 0.57376-0.0999 0.86405-0.0083 0.584 0.09158 1.209-0.29138 1.7076-0.02497 0.034152-0.0666 0.064889-0.11655 0.075135-0.20813 0.058059-0.2997-0.21174-0.27473-0.38933 0.12071-0.89479 0.10406-1.7998-0.04995-2.6912-0.01665-0.08538-0.1665-0.08538-0.17899 0l-0.31635 2.1618c-0.041623 0.28688-0.20813 0.65914-0.55778 0.62498-0.31635-0.030737-0.40377-0.36884-0.40793-0.63182l-0.20813-8.1897c-0.0042-0.15368-0.27473-0.17418-0.31219-0.023907-0.02497 0.099041-0.03746 0.2015-0.04579 0.29712-0.07909 1.2705-0.10406 2.5409-0.07493 3.8148 0.02914 1.2124 0.0999 2.4555-0.38712 3.5996-0.15401-0.030737-0.21645-0.18442-0.24559-0.31079-0.29554-1.2978-0.15818-2.6468-0.47037-3.9377-0.01665-0.06489-0.1332-0.058058-0.13736 0.00683-0.08325 1.5539-0.24559 3.1078-0.49118 4.6515-0.16234 0.051229-0.32468-0.044397-0.42042-0.16393-0.095738-0.12295-0.12071-0.2698-0.14153-0.41324-0.14153-0.99724-0.28722-1.9979-0.24975-2.9986 0.01249-0.37909 0.03746-0.78892-0.08325-1.1441-0.05411-0.15368-0.32884-0.11953-0.32884 0.040983 0.01249 1.1031 0.02498 2.2096 0.03329 3.3128 0.0042 0.61815-0.01249 1.2944-0.50367 1.7657-0.41625-0.17076-0.54113-0.59766-0.62438-0.97334-0.1332-0.61474-0.27056-1.2261-0.40377-1.8408-0.03746-0.16735-0.333-0.16052-0.35798 0.00683-0.01249 0.075135-0.01249 0.15027-0.01249 0.21857v1.8032l-0.18731-0.84698c-0.0083-0.040983-0.08325-0.037567-0.08742 0.00341-0.02913 0.2698-0.10406 0.53961-0.22478 0.79233-0.09158-0.15368-0.14985-0.32103-0.17066-0.49179-0.01665-0.10587-0.19564-0.12295-0.23727-0.020491-0.07909 0.18784-0.12904 0.38933-0.14153 0.58742-0.0083 0.10587-0.08325 0.19808-0.20396 0.23223-0.24143 0.068304-0.3663-0.16052-0.40377-0.33811-0.05411-0.25614-0.07909-0.5157-0.07493-0.77525 0-0.08538-0.11655-0.13319-0.1998-0.081965-0.27889 0.16735-0.34966 0.54644-0.32884 0.85722 0.02498 0.38592 0.05411 0.8538-0.35798 1.0553-0.02498 0.013661-0.05411 0.020491-0.08325 0.017076-0.07909-0.00683-0.0999-0.068304-0.11239-0.12295-0.07076-0.2937-0.13737-0.58741-0.19564-0.88112-0.02081-0.1127-0.22062-0.11953-0.25392-0.0068344-0.12071 0.39617-0.0042 0.8982-0.39544 1.1441l-0.61606-2.4726c-0.03329-0.13661-0.27889-0.12636-0.29554 0.010245-0.04162 0.33128-0.0083 0.6728-0.02082 1.0075-0.02082 0.52594-0.20397 1.1202-0.76591 1.3729-0.05411 0.023907-0.11239 0.044398-0.17066 0.044398-0.07493 0-0.14153-0.030737-0.20397-0.061474-0.49951-0.28005-0.61606-0.84356-0.60357-1.3422 0.0083-0.36543 0.05828-0.74793-0.02081-1.1031-0.02498-0.1127-0.22062-0.11953-0.25392-0.00683-0.16234 0.54644-0.29138 1.1031-0.38296 1.6632-0.01249 0.081965-0.1332 0.11612-0.20813 0.061474-0.17482-0.12978-0.24142-0.37226-0.27056-0.57717-0.066601-0.44398-0.12904-0.89137-0.19564-1.3354-0.00832-0.064889-0.12488-0.068304-0.13736-0.003413-0.11239 0.53619-0.24559 1.0655-0.39128 1.5949-0.041623 0.15027-0.091576 0.31078-0.22062 0.42349-0.28722 0.24931-0.83251 0.12978-1.0864-0.14344-0.25392-0.27322-0.29554-0.63523-0.34133-0.97334-0.08325-0.63523-0.20813-1.267-0.3663-1.892-0.02082-0.088796-0.17483-0.088796-0.1998 0l-0.19148 0.75818c-0.13736-0.10929-0.2331-0.25273-0.28305-0.40641-0.0125-0.047813-0.09574-0.044398-0.10823 0.00341-0.25392 1.1202 0.10406 2.3087-0.17899 3.4323-0.47037-0.43032-0.34133-1.1304-0.49951-1.711-0.03746-0.13319-0.27473-0.11953-0.29138 0.017076-0.0333 0.3142-0.04995 0.6284-0.04995 0.9426 0 0.10587-0.19148 0.1127-0.1998 0.00683v-0.085381c0.02914-0.46447-0.01249-0.92894-0.12488-1.3832-0.02082-0.07855-0.15818-0.07172-0.1665 0.00683l-0.1332 1.3149c-0.0083 0.095626-0.18315 0.099041-0.19564 0-0.09158-0.75476 0.04579-1.5505-0.29138-2.2233-0.04162-0.081965-0.18732-0.058058-0.19148 0.030737l-0.08741 2.7185c-0.07077-0.2459-0.10406-0.49862-0.10406-0.74793 0-0.058058-0.10823-0.061474-0.11239-0.00341-0.02082 0.30054 0.08325 0.64548-0.21645 0.80258-0.1665 0.08538-0.37463 0.06489-0.52864-0.034152-0.27889-0.18101-0.32884-0.46447-0.3663-0.73427 0.04162 0.2015-0.14153 0.39958-0.3663 0.48838-0.22478 0.088796-0.48286 0.095626-0.73261 0.10246-0.22062 0.00341-0.44123 0.010245-0.66185 0.013661-0.12904 0.00341-0.26224 0.00341-0.37463-0.044398-0.20397-0.088796-0.25808-0.30054-0.29138-0.48838l-0.22894-1.2978c-0.01249-0.068304-0.12488-0.081965-0.15818-0.017076-0.16234 0.31762-0.25808 0.66255-0.27889 1.0075-0.0083 0.17759-0.05411 0.41324-0.27057 0.43715-0.49951-0.52253-0.62855-1.2056-0.7118-1.8715-0.0083-0.061474-0.10823-0.07172-0.13736-0.017076-0.15402 0.3142-0.20397 0.65914-0.14985 0.99383l-0.22062-1.1202c-0.01665-0.081965-0.16234-0.081965-0.17483 0.00341l-0.18732 1.2739c-0.037463 0.26639-0.10823 0.57376-0.39128 0.70695-0.19564 0.092211-0.44123 0.075135-0.65768 0.030737-0.82835-0.17076-1.5235-0.72061-1.7608-1.3934-0.17066-0.48496-0.11655-1.0143-0.24975-1.5027-0.037462-0.13319-0.2664-0.14344-0.32468-0.013661-0.26224 0.584 0.13737 1.3832-0.24559 1.9672-0.27057-0.23907-0.30387-0.59425-0.32468-0.91869l-0.10406-1.6632c-0.01249-0.20833-0.39128-0.2015-0.39128 0.00683 0 0.023907 0 0.051229 0.0042 0.07855 0.04995 0.59766 0.07077 1.2397-0.31219 1.752l-0.27472-1.1168c-0.02913-0.10929-0.20813-0.13661-0.27473-0.037567-0.4329 0.61132-0.45788 1.4071-0.91576 2.0218-0.02082 0.027322-0.04162 0.047813-0.07493 0.064889-0.14989 0.081961-0.29974-0.044402-0.37883-0.16052-0.72845-1.069-0.29554-2.4043-0.55778-3.6065-0.0333-0.14344-0.27473-0.1571-0.32884-0.017076-0.14985 0.37567-0.26224 0.76159-0.33717 1.1509-0.06244-0.6728-0.09157-1.3456-0.08741-2.0184 0-0.17418-0.28306-0.22199-0.37463-0.068304-0.04579 0.08538-0.08325 0.17418-0.11655 0.25956-0.58276 1.5232-0.75342 3.1522-0.49951 4.7369 0.012488 0.07855 0.024975 0.16393-0.045791 0.2254-0.033303 0.030737-0.091576 0.044398-0.13736 0.027321-0.058279-0.020492-0.062439-0.061474-0.066598-0.10246l-0.22478-1.711c-0.0083196-0.061474-0.11655-0.064889-0.12904-0.003413l-0.27473 1.3456c-0.095739-0.76159-0.14153-1.5266-0.13736-2.295 0-0.095626-0.16234-0.12636-0.21229-0.040983-0.21645 0.3825-0.24975 0.83331-0.23726 1.2636 0.016648 0.54302 0.083252 1.1031-0.14153 1.612-0.66185-0.25273-1.0157-0.85722-1.1614-1.4446-0.10823-0.4269-0.1332-0.86405-0.22062-1.291-0.012492-0.068304-0.13737-0.061474-0.13737 0.0068309-0.012492 0.58059-0.033299 1.1578-0.0666 1.7383-0.012492 0.19125-0.35798 0.19808-0.37463 0.00683v-0.00683l-0.18732-2.056c-0.012492-0.11953-0.22062-0.12978-0.24559-0.013661-0.091576 0.3825-0.1332 0.77525-0.12904 1.1646-0.47037-0.56351-0.20813-1.3114-0.26224-2.0047-0.0083225-0.12636-0.22894-0.15368-0.27889-0.030737-0.21229 0.50887-0.27889 1.0621-0.18731 1.5949-0.31636-0.18784-0.36214-0.55327-0.37879-0.8743-0.024975-0.46788-0.049951-0.93919-0.074926-1.4071-0.0041691-0.099041-0.17899-0.10587-0.19564-0.0068309-0.10823 0.61815 0.062438 1.2875-0.041627 1.9091-0.029138 0.16735-0.30803 0.19808-0.38712 0.040983-0.14153-0.28346-0.22894-0.58742-0.31636-0.88796-0.42458-1.4617-0.84916-2.9234-1.1947-4.3954-0.045788-0.19808-0.39961-0.18784-0.42874 0.010246-0.029137 0.20491 0.00417 0.43032 0.037464 0.63523 0.14153 0.84697 0.041625 1.7213-0.29554 2.5307-0.32052-0.027322-0.45788-0.34152-0.50367-0.60108-0.2331-1.3661 0.18731-2.7902-0.25392-4.1256-0.012492-0.037567-0.037462-0.075135-0.070763-0.10246-0.091576-0.075135-0.18315-0.037567-0.24559 0.010246-0.20397 0.15368-0.20397 0.41324-0.1998 0.64206 0.020812 0.93235-0.14153 1.8647-0.47869 2.7527-0.11239 0.00341-0.22478-0.061474-0.25808-0.15027-0.21645-0.56351-0.070763-1.1885-0.037462-1.7793 0.029138-0.46788 0.058275-0.93919 0.008322-1.4071-0.054112-0.52594-0.20396-1.0451-0.24143-1.5744-0.045788-0.6967 0.10823-1.39 0.21645-2.0833 0.43707-2.8005 0.10406-5.6419 0.21645-8.4663-0.17899 0.7411-0.28305 1.4925-0.32052 2.2506-0.1332-1.1304-0.17899-2.2711-0.1332-3.405 0.041626-1.0826-0.39961-2.1413-0.42042-3.2274 0-0.05123 0-0.10587 0.037462-0.14686 0.091577-0.10246 0.39128-0.09563 0.45372 0.10929 0.070763 0.23224 0.054113 0.47813 0.095738 0.7172l0.20397 1.1885c0.012492 0.0683 0.1332 0.06489 0.14153-0.0034v-0.01707c0.041626-0.67621 0.058276-1.3524 0.041626-2.0286-0.008322-0.39958-0.024975-0.79916 0.033299-1.1953 0.049951-0.33469 0.15401-0.66255 0.1998-0.99724 0.074926-0.36543 0.049951-0.76501 0.24143-1.1168 0.024975-0.04782 0.10406-0.09563 0.13736-0.05123-0.087413 0.41324 0.008322 0.83673 0.066602 1.2534 0.0666 0.47813 0.079087 0.95626 0.041626 1.4378-0.012492 0.15027-0.020812 0.31761 0.058276 0.44398 0.020812 0.03073 0.079087 0.02391 0.08325-0.01366 0.15401-0.92211 0.18315-1.8545 0.19148-2.7834 0.004168-0.23907 0.008322-0.48838 0.12071-0.70354 0.029138-0.05123 0.12071-0.04782 0.14153 0.0068 0.10406 0.26639 0.1665 0.54644 0.18315 0.82648 0.01665 0.25614 0 0.52594 0.10406 0.76159 0.00832 0.02391 0.049951 0.0205 0.054112-0.0034l0.29138-1.5164c0.00832-0.03757 0.049951-0.06148 0.091576-0.04782 0.095739 0.02731 0.14153 0.15027 0.14569 0.25614 0.00832 0.44739-0.062438 0.8982 0.029138 1.3388 0.00417 0.0205 0.037464 0.0205 0.041625 0l0.22062-1.0792c0.012492-0.06148 0.062438-0.11612 0.1332-0.13661 0.17899-0.05464 0.28305 0.14685 0.29554 0.29371 0.14153 1.3729 0.18732 2.7561 0.13737 4.1324-0.012492 0.31762-0.029139 0.64206 0.062438 0.95285 0.012492 0.04439 0.029138 0.09221 0.091577 0.10587 0.049951 0.01025 0.10406-0.0068 0.1332-0.04098 0.062439-0.06489 0.054113-0.14685 0.049951-0.22199-0.012492-0.30395 0.087415-0.60449 0.16234-0.90503 0.3663-1.4685 0.12071-3.0191 0.63271-4.4569 0.012492-0.03757 0.033299-0.08196 0.095739-0.08538 0.054113-0.0034 0.099901 0.02391 0.12071 0.06489 0.61606 1.2022 0.54113 2.5546 0.49118 3.8558-0.00417 0.13319-0.00832 0.27322 0.020812 0.403 0.016652 0.06148 0.12488 0.06148 0.13737 0 0.045788-0.18784 0.091576-0.37567 0.13736-0.56351 0.079089-0.32444 0.15818-0.64548 0.19564-0.97334 0.091576-0.7616-0.029139-1.5573 0.24143-2.2848 0.00832-0.0205 0.045788-0.01708 0.045788 0.0068-0.020812 0.81282 0.020812 1.6291 0.12904 2.4385 0.00832 0.05806 0.10823 0.05806 0.11655 0v-0.0034c0.095739-0.70012 0.19148-1.3968 0.29138-2.0969 0-0.01366 0.020812-0.01708 0.029137-0.0068 0.17067 0.18101 0.17899 0.43373 0.17899 0.66597-0.00417 1.3968 0.041626 2.7936 0.14153 4.1871 0.012492 0.16735 0.024975 0.33469 0.045788 0.50204 0.012492 0.09904 0.18731 0.09563 0.1998-0.0034 0.020812-0.20491 0.00417-0.42349 0.12488-0.58059 0.029139-0.03757 0.095739-0.02391 0.10406 0.0205l0.40793 2.459c0.00416 0.0205 0.00832 0.04098 0.012488 0.05806 0.020816 0.07514 0.15401 0.07172 0.1665-0.0068 0.27473-1.7862 0.37463-3.5894 0.30387-5.3858 0-0.04439 0.074926-0.05123 0.087413-0.01025 0.13736 0.46447 0.18315 0.94602 0.1332 1.4241-0.033303 0.31078 0.087414 0.60449 0.12071 0.90845 0.00416 0.0444 0.083251 0.0444 0.091578 0 0.00416-0.02732 0.00832-0.05123 0.012488-0.07855 0.1998-1.6325-0.012488-3.2957 0.37047-4.9043 0.00832-0.04098 0.049951-0.07855 0.099902-0.08196 0.09574-0.01025 0.12904 0.08879 0.1332 0.16393l0.15401 2.78c0.00416 0.04782 0.091576 0.05464 0.099902 0.0034 0.049951-0.24931 0.070767-0.66938 0.079086-0.92211 0.016648-0.54985 0.10823-1.1134 0.40377-1.6086 0.24559-0.11612 0.27057-0.403 0.34966-0.62498 0.10406-0.29712 0.36214-0.54302 0.59941-0.78209 0.0333-0.03415 0.09574-0.05123 0.14569-0.03757 0.06244 0.01708 0.0666 0.05806 0.0666 0.09904 0.02082 0.40641 0.03746 0.81624 0.05828 1.2226 0 0.02391 0.04162 0.02391 0.04579 0l0.14569-1.0587c0.01249-0.09904 0.02914-0.20491 0.12904-0.2698 0.04995-0.03415 0.11655-0.04782 0.17483-0.03073 0.08325 0.02391 0.0999 0.08538 0.11239 0.14344 0.10823 0.4952 0.21645 0.99383 0.24559 1.4993 0.01249 0.23224 0.01249 0.46789 0.07493 0.69329 0.02497 0.09563 0.19564 0.08879 0.20813-0.01025v-0.0034c0.04162-0.36884-0.0042-0.73769 0.0042-1.1065 0.0042-0.30737 0.04995-0.62157 0.19148-0.90162 0.05828-0.1127 0.2331-0.15369 0.34966-0.07514 0.14985 0.09904 0.24143 0.26297 0.27057 0.43373 0.34966 2.1448 0.37463 4.3134 0.39544 6.4753 0 0.09563 0.16234 0.12295 0.20396 0.03415v-0.0034c0.02498-0.04439 0.0333-0.09563 0.02914-0.14344-0.07077-0.95284 0.22478-1.892 0.30387-2.8415 0.04995-0.63865 0.02914-1.3388 0.44956-1.8579 0.08325-0.10246 0.2664-0.10929 0.35382-0.01026 0.15402 0.16393 0.19564 0.42007 0.24559 0.63523 0.10406 0.43373 0.35798 0.83673 0.45788 1.2705 0.07493 0.32444 0.05828 0.65572 0.04995 0.98358-0.0333 1.2226-0.01249 2.4487 0.07077 3.6679 0.0042 0.04782 0.0083 0.10246 0.05411 0.13661 0.02914 0.02391 0.07493 0.03073 0.10823 0.01366 0.03329-0.01708 0.03329-0.04098 0.03329-0.06489 0.05411-1.2226 0.02498-2.4419-0.02498-3.6645-0.0042-0.05806 0.10823-0.06489 0.11239-0.0068 0.09158 0.87088-0.04162 1.7623 0.08741 2.6365 0.0042 0.03415 0.01249 0.07172 0.06244 0.0888 0.04579 0.01708 0.09574 0.0034 0.12904-0.02391 0.05828-0.05123 0.06244-0.12295 0.05411-0.19125-0.02082-0.30054-0.0999-0.60108-0.09574-0.90162 0.0083-0.36884 0.13736-0.72744 0.20397-1.0929 0.08325-0.46447 0.0666-0.93918 0.07493-1.4105 0.02082-0.8299 0.14153-1.6564 0.25808-2.4794 0.02498-0.16735 0.04995-0.33128 0.09574-0.49521 0.02498-0.08196 0.10406-0.18442 0.19564-0.15027-0.02498 0.24248-0.01665 1.4617 0.01665 2.1789 0.0042 0.05123 0.09574 0.05123 0.09574 0 0.02498-0.584 0.02498-1.489 0.02498-1.571 0.0083-0.65231 0.13736-1.3012 0.38712-1.9194 0.02498-0.05806 0.05828-0.12636 0.13736-0.13319 0.05411-0.0068 0.10406 0.01708 0.13736 0.05464 0.05411 0.06489 0.04162 0.14344 0.0333 0.21857-0.04995 0.39958-0.07909 1.3866-0.04163 2.056 0.0042 0.09904 0.17899 0.10246 0.19148 0.0068 0.04995-0.35518 0.07909-0.78892 0.08741-0.86747 0.04162-0.49179 0.17483-0.98017 0.39544-1.4412 0.04579-0.09221 0.14985-0.1571 0.27473-0.16052 0.17899-0.0068 0.36631 0.01025 0.46204 0.11612 0.04579 0.05123 0.07077 0.1127 0.09157 0.17418 0.22062 0.63864 0.10406 2.7493 0.05411 3.8421 0 0.04098 0.07077 0.04439 0.07909 0.0068l0.55778-2.6058c0.01665-0.05123 0.07077-0.09221 0.1332-0.09221 0.11239-0.0034 0.13736 0.10587 0.13736 0.18784v0.67621c0 0.02391 0.04579 0.02731 0.04995 0.0034 0.0333-0.11953 0.0666-0.23907 0.10823-0.35518 0.04162-0.11953 0.25391-0.09904 0.25808 0.02732v0.0034l0.02082 0.85381c0 0.0683 0.11655 0.08196 0.14569 0.01707 0.02498-0.06148 0.03746-0.12636 0.04995-0.19125 0.02082-0.09221 0.07909-0.19467 0.17066-0.24248 0.05411-0.02732 0.12488 0.0068 0.12488 0.05806 0.01665 0.7411 0.10406 1.4788 0.25808 2.2096 0.01665 0.08538 0.17067 0.08196 0.17899-0.0068 0.0042-0.02391 0.0042-0.04439 0.0042-0.0683-0.0042-0.38592-0.0083-0.77184-0.01665-1.1578-0.0042-0.25273 0.0083-0.53961 0.1998-0.72744 0.03746-0.03757 0.10822-0.03757 0.14985-0.0034 0.1998 0.18101 0.24975 0.45081 0.25392 0.70012 0 0.23565-0.02498 0.48155 0.04162 0.70695 0.0083 0.02731 0.05828 0.02391 0.06244-0.0034l0.18315-1.2978c0.05828-0.40641 0.11655-0.81965 0.31219-1.1919 0.02914-0.05806 0.57027-0.7411 0.57027-0.7411 0.02081-0.05464 0.11239-0.05806 0.13736-0.0034 0.07077 0.14344 0.07493 0.31078 0.07493 0.46788 0.0042 0.53619 0 1.069-0.0125 1.6052-0.0042 0.25273-0.01249 0.51228 0.07493 0.75135 0.0042 0.01366 0.0333 0.01025 0.0333-0.0034 0-0.27322 0.04579-0.54644 0.13736-0.80941 0.0125-0.03757 0.07909-0.03757 0.09158 0l0.11655 0.31079c0.01249 0.03416 0.07493 0.03073 0.07909-0.0068 0.02914-0.24931 0.08742-0.49521 0.17899-0.73086 0.01666-0.03757 0.03746-0.08196 0.09574-0.08196 0.04995 0.0034 0.08742 0.03416 0.09158 0.07514 0.02498 0.15368 0.0999 0.63523 0.15818 1.0007 0.0083 0.05123 0.09574 0.04782 0.0999-0.0034 0.07909-0.93236 0.22478-1.8613 0.44123-2.78 0.0666-0.28346 0.14569-0.57376 0.333-0.81282 0.0125-0.01708 0.04162-0.01025 0.04162 0.01025l0.02914 0.63182c0 0.0205 0.02498 0.03073 0.04579 0.0205 0.21229-0.10587 0.09574-0.46447 0.22894-0.63182 0.03329-0.04098 0.11239-0.02391 0.11239 0.02731l-0.01665 2.0799c0 0.17076 0 0.35177 0.06244 0.51228 0.02081 0.04782 0.10823 0.03757 0.10823-0.01366 0.0333-0.5396 0.15402-1.0724 0.34966-1.5881 0.01665-0.04782 0.10406-0.0444 0.11655 0.0068l0.0333 0.58742c0.0042 0.05806 0.10406 0.06148 0.11655 0.0068 0.03746-0.19467 0.07077-0.40641 0.08741-0.45081 0.02082-0.05123 0.11239-0.03415 0.10406 0.0205 0 0.01026-0.0042 0.02391-0.0083 0.03415-0.14153 0.64548-0.12071 1.3149 0.0666 1.9501 0.02498 0.08196 0.1665 0.08538 0.19148 0.0034 0.08741-0.2698 0.04995-0.57376 0.05828-0.86064 0.01249-0.45422 0.14985-0.90845 0.40377-1.3149 0.02081-0.03757 0.05828-0.06489 0.10406-0.08196 0.17066-0.05464 0.2664 0.14002 0.27889 0.28346l0.09574 1.2056c0.0042 0.0683 0.12071 0.07855 0.14569 0.01366 0.07493-0.19125 0.08325-0.40641 0.10823-0.61132 0.02498-0.21516 0.07493-0.44739 0.21645-0.62498 0.05828-0.07172 0.19564-0.05123 0.22062 0.03757l0.04995 0.20491c0.02498 0.09904 0.1998 0.0888 0.20813-0.01366 0.0042-0.04439 0-0.09221-0.0042-0.1332-0.01249-0.16735 0.01665-0.33469 0.08325-0.49179 0.02498-0.06148 0.1332-0.05464 0.14985 0.01025 0.11239 0.42349 0.16234 0.85722 0.19564 1.2875 0.02498 0.29371 0.02914 0.59425 0.13736 0.87088 0.02498 0.0683 0.14153 0.07514 0.17899 0.0068 0.04995-0.09563 0.04995-0.21174 0.04995-0.31762-0.01665-0.66938 0.0666-1.3422 0.24975-1.9945 0.01249-0.05123 0.02914-0.10587 0.12072-0.12295 0.07909-0.01708 0.1665 0.0068 0.21645 0.05806 0.09574 0.09563 0.08325 0.22882 0.07077 0.34835-0.05411 0.5157-0.03746 1.0348 0.04995 1.5437 0.0125 0.07513 0.14569 0.07855 0.16234 0.0034l0.35382-1.612c0.01249-0.06489 0.12071-0.08538 0.1665-0.03073 0.12488 0.14685 0.14569 0.35518 0.15818 0.54302 0.0333 0.5157 0.10823 1.0314 0.2331 1.5368 0.0083 0.04439 0.08742 0.03757 0.08742-0.0068l0.04162-1.1953c0-0.0205 0.0333-0.0205 0.03746-0.0034 0.04995 0.21516 0.10406 0.43032 0.1665 0.64548 0.01665 0.05464 0.10822 0.04782 0.11655-0.0068l0.22062-2.278c0.0042-0.04782 0.08742-0.05464 0.0999-0.0068 0.24559 0.79575 0.09574 1.653 0.21229 2.4726 0.0083 0.05806 0.11239 0.06148 0.12488 0.0034 0.1332-0.57034 0.24975-1.1441 0.28722-1.7213 0.01665-0.30054 0.01665-0.61133 0.09574-0.90162 0.02498-0.08196 0.1665-0.08538 0.19564-0.0034 0.01665 0.05806 0.02913 0.11612 0.04162 0.17418l0.0999 0.5396c0.01249 0.07514 0.14569 0.07855 0.1665 0.0068l0.30803-1.0177c0.01249-0.04782 0.05828-0.08538 0.11655-0.09563 0.10823-0.01708 0.15402 0.07855 0.1665 0.1571 0.03746 0.24931-0.02914 0.52253 0 0.76842 0.01249 0.10929 0.20396 0.11953 0.23726 0.01025l0.27889-0.95968c0.0666 0.0444 0.12071 0.10246 0.15818 0.16735 0.05828 0.10246 0.2331 0.0888 0.26224-0.0205 0-0.0034 0.0042-0.01025 0.0042-0.01366 0.0333 0.05806 0.05828 0.12295 0.07493 0.18784 0.0083 0.04782 0.07493 0.06489 0.12071 0.03416 0.09158-0.0683 0.16234-0.15368 0.20397-0.24931 0.0083 0.11612 0.1332 0.21516 0.27057 0.22199 0.22894 0.01366 0.38712-0.18442 0.60357-0.24931 0.11239-0.03415 0.2331-0.03073 0.35382-0.02731 0.34549 0.01366 0.7451 0.04782 0.94074 0.28346 0.10823 0.13319 0.12904 0.30054 0.14153 0.46105l0.0042 0.03073c0.0083 0.1127 0.20813 0.12295 0.2331 0.01025 0.01249-0.0444 0.02082-0.09221 0.02914-0.13319 0.04995-0.23224 0.15818-0.45423 0.31635-0.64889 0.0666 0.05123 0.11655 0.11953 0.14569 0.19125 0.04162 0.10246 0.22894 0.08196 0.22478-0.02732v-0.01025c0.08325 0.09562 0.13736 0.20491 0.15402 0.32103 0.0083 0.0683 0.12071 0.08538 0.15818 0.02391 0.04579-0.0683 0.07909-0.14002 0.10822-0.21516 0.04162-0.10929 0.01249-0.19467 0.07909-0.29371 0.03746-0.04782 0.11239 0.02391 0.12071 0.07855l0.12488 0.6284c0.0083 0.04439 0.08741 0.04782 0.10406 0.0034l0.14569-0.41324c0.0083-0.03073 0.05828-0.03415 0.07493-0.0068l0.17483 0.2459c0.02082 0.03073 0.07493 0.03073 0.09574 0.0034 0.05828-0.07514 0.05828-0.18101 0.07909-0.27322 0.02497-0.11612 0.15401-0.2459 0.28305-0.19808 0.1998 0.07855-0.02081 0.40983 0.17899 0.49521 0.15402-0.15027-0.05411-0.45081 0.15402-0.55668 0.04995 0.39616 0.12488 0.79233 0.22478 1.1851 0.07493-0.01025 0.12071-0.07855 0.12488-0.14002 0.0042-0.06148-0.02497-0.12295-0.04162-0.18442-0.04995-0.17759-0.02081-0.37567 0.09158-0.53619 0.0083-0.01025 0.02913-0.01025 0.0333 0.0034 0.09574 0.26639 0.15818 0.5396 0.21229 0.81282 0.0083 0.04782 0.09157 0.05123 0.10406 0.0034l0.15402-0.57034c0.0083-0.03415 0.05828-0.05464 0.09574-0.03757 0.09158 0.04098 0.14569 0.14002 0.17483 0.22882 0.09574 0.28005 0.1665 0.57034 0.20397 0.86064 0.01665 0.1127 0.22062 0.10929 0.22894-0.0034 0.01666-0.21516 0-0.44398 0.14985-0.59083 0.02914-0.03073 0.08742-0.02391 0.10823 0.01025 0.06244 0.09904 0.10823 0.20833 0.13736 0.31762 0.02498 0.0888 0.17483 0.08538 0.19148-0.0034 0-0.0068 0.0042-0.01366 0.0042-0.0205 0.04162-0.2459 0.08325-0.48838 0.12904-0.73427 0.0083-0.03757 0.0666-0.04782 0.09157-0.01707 0.1998 0.25273 0.24975 0.57034 0.26224 0.8743 0.0083 0.17759 0.0042 0.36201 0.01249 0.5396 0.0083 0.10246 0.18732 0.1127 0.21229 0.01025 0.05828-0.27663 0.0999-0.55326 0.11655-0.83331 0.01249-0.16052 0.02082-0.33128 0.09574-0.47472 0.02913-0.05464 0.12488-0.03757 0.12488 0.0205 0.02913 1.0724 0.17899 2.1448 0.44539 3.1966 0.0083 0.03415 0.02082 0.07172 0.0666 0.08538 0.04162 0.01366 0.08741 0 0.11655-0.02731 0.04995-0.04782 0.04995-0.1127 0.04995-0.17076-0.02497-0.79574-0.0042-1.5915 0.05411-2.3872 0.0042-0.05464 0.02913-0.10587 0.07077-0.14685 0.13736-0.11954 0.33717-0.01708 0.43291 0.10246 0.14985 0.18101 0.20396 0.39958 0.25808 0.61474 0.07077 0.29029 0.13736 0.57717 0.20813 0.86746 0.0125 0.05123 0.04995 0.09563 0.10823 0.1127 0.15818 0.05123 0.24559-0.12295 0.22478-0.2459-0.02082-0.12295-0.07077-0.2698 0.05411-0.34835 0.0666-0.04098 0.15402-0.04098 0.22894-0.01366 0.12904 0.05123 0.19148 0.16052 0.24143 0.26297 0.09157 0.19808 0.17066 0.41666 0.37047 0.55668 0.14985 0.10587 0.34966 0.14686 0.50783 0.2459 0.13736 0.08196 0.2331 0.2015 0.32884 0.31762 0.53697 0.65231 0.94074 2.6707 1.3195 3.5757 0.02082 0.05123 0.11239 0.0444 0.12071-0.01025l0.39544-2.3497c0.01249 0.58058 0.02913 1.1782 0.24143 1.7281 0.02497 0.06148 0.12904 0.06489 0.15818 0.0034 0.18732-0.44056 0.15402-0.93235 0.14569-1.4071-0.01666-0.80599 0.06244-1.6154 0.22478-2.4111 0.0083-0.04439 0.08741-0.04439 0.09574 0 0.07077 0.3586 0.03329 0.72744 0.02497 1.0929-0.0083 0.29371 0.0042 0.584 0.03746 0.87771 0.0042 0.03416 0.0666 0.04098 0.07493 0.0068 0.21645-0.65914 0.34966-1.3388 0.39128-2.0184 0.01249-0.20833 0.0042-0.43715 0.01665-0.64548 0.0083-0.11953 0.03746-0.26639 0.20397-0.28346 0.03329-0.0034 0.0666 0 0.0999 0.0068 0.36214 0.07855 0.44956 0.44056 0.55362 0.73086 0.09574 0.26297 0.24975 0.51228 0.35382 0.77525 0.31636 0.80941 0.11655 1.6803-0.0083 2.5238-0.16234 1.0997-0.19148 2.2165-0.07909 3.3196 0.0666 0.66255 0.17899 1.3456-0.07077 1.9774-0.46621 1.3251 0.77424 2.7697 0.6452 4.1632z" mask="url(#mask921)" style="fill:#373e48;stroke-width:.037704"/>
 <path id="XMLID_397_" transform="translate(.17655 -.03676)" d="m0.76484-6.9373c-0.042518 0.1615-0.046383 0.323-0.054114 0.48665-0.027056 0.74935-0.23965 1.5202-0.08117 2.2653 0.10436 0.4888 0.18553 0.97976 0.23578 1.4707 0.050249 0.48019 0.08117 0.96038 0.0116 1.4406-0.054113 0.37037-0.16621 0.73643-0.23578 1.1046-0.10823 0.56847-0.11596 1.1413-0.069574 1.7119 0.04252 0.51464 0.13142 1.0271 0.26671 1.5375 0.08117-0.049527 0.088902-0.12274 0.092767-0.18949 0.034787-0.87209 0.06571-1.7442 0.1005-2.6163v-0.00216c0-0.032299 0.085036-0.034453 0.092767-0.00216 0.15075 0.73428 0.32855 1.4578 0.34401 2.1985 0.015461 0.71059 0.030921 1.419 0.042518 2.1296 0.70348-0.54694 0.19713-1.3458 0.63777-1.9617 0.023191-0.0323 0.10823-0.021533 0.10823 0.012919l-0.0116 2.0823c0 0.14212 0.019326 0.30577 0.23192 0.38329 0.26671-0.079672 0.27444-0.28639 0.26671-0.45435-0.00772-0.32084 0.073441-0.64169 0.23965-0.94746 0.00772-0.015073 0.046384-0.015073 0.054114 0 0.11982 0.26486 0.15075 0.54263 0.1005 0.81395-0.019326 0.099052-0.050249 0.20026-0.00772 0.29931 0.038652 0.096899 0.17394 0.19164 0.35174 0.20026-0.00772-0.81395 0.12369-1.6279 0.39426-2.4268 0.019326-0.058139 0.16234-0.066753 0.20486-0.01292 0.11596 0.14643 0.07344 0.33807 0.046384 0.50603-0.073441 0.43066 0.015461 0.86348 0.10823 1.292 0.24737 1.1154 0.53727 2.2265 0.86195 3.3355 0.054114 0.18088 0.11209 0.36822 0.35174 0.50818 0.11982 0.068906 0.2783 0.11197 0.44837 0.11197 0.44064-0.00215 0.64164-0.27993 0.65323-0.51249 0.0116-0.20456-0.054114-0.4242 0.092767-0.60939 0.0116-0.015073 0.050247-0.01938 0.069574-0.00431 0.28216 0.20456 0.25124 0.51464 0.34401 0.77304 0.06571 0.19164 0.56047 0.1938 0.63391 0.00215 0.057978-0.14857 0.085035-0.30361 0.10823-0.45434 0.14688-0.95607 0.23578-1.9121 0.27444-2.8725 0.019326-0.48019 0.023191-0.97114 0.24738-1.432 0.023191-0.04522 0.13915-0.040913 0.15075 0.00431 0.15075 0.64169 0.00772 1.2984 0.015461 1.9487 0.00772 0.77519 0.22805 1.5439 0.44837 2.3105 0.069574 0.24763 0.14302 0.49957 0.35561 0.72351 0.034787 0.03876 0.096627 0.066753 0.17394 0.075366 0.19713 0.01938 0.28217-0.11628 0.30536-0.21964l0.28603-1.3114c0.0039-0.017226 0.05024-0.017226 0.05412 0l0.38266 1.4384c0.02319 0.090439 0.06184 0.19164 0.25511 0.21533 0.04638 0.00431 0.09277 0.00431 0.13528 0 0.50635-0.047373 0.66096-0.39406 0.70735-0.67399 0.20486-1.2037 0.32082-2.4139 0.34015-3.624 0.0039-0.10767 0.03092-0.23686 0.13528-0.31869 0.06572-0.05168 0.20873-0.030146 0.22805 0.030147 0.28603 1.0594 0.01933 2.149 0.2783 3.2127 0.01545 0.058139 0.11209 0.10121 0.21646 0.09044 0.11982-0.012919 0.13528-0.094746 0.13142-0.15719-0.01933-0.40482-0.04252-0.8118-0.06185-1.2166-0.0039-0.055986-0.0039-0.11628 0.07345-0.15719 0.04252-0.023686 0.11209-0.032299 0.1662-0.012919 0.05412 0.017226 0.05412 0.049527 0.05797 0.077519 0.03092 0.72997 0.06572 1.4599 0.09664 2.1899 0.0077 0.18949 0.03092 0.39836 0.18553 0.56201 0.06572 0.07106 0.25898 0.049526 0.27057-0.030147 0.21259-1.2941 0.2899-2.5947 0.23192-3.8953-0.0039-0.12274-0.0039-0.25624 0.08117-0.36391 0.03865-0.049527 0.1662-0.043066 0.1894 0.00861 0.15461 0.3553 0.18167 0.72567 0.201 1.0939 0.03479 0.72351 0.03865 1.447 0.0116 2.1705-0.0077 0.21102-0.01933 0.42636 0.07345 0.63307 0.03479 0.075366 0.08503 0.14858 0.15075 0.21748 0.15461 0.1615 0.58752 0.13135 0.66096-0.047373 0.22419-0.51895 0.27057-1.0616 0.13529-1.5913-0.02319-0.088286-0.02319-0.20241 0.05412-0.27347 0.05024-0.04522 0.1778-0.027993 0.1894 0.023687l0.46384 2.1016c0.01545 0.07106 0.10823 0.1292 0.23578 0.13997 0.21259 0.017226 0.29376-0.10982 0.32855-0.21318l0.27057-0.80319c0.01545-0.047373 0.13529-0.053833 0.16621-0.00861 0.1778 0.2627 0.03865 0.5857-0.0039 0.86563-0.0116 0.075366 0.0116 0.15073 0.07731 0.21748 0.201 0.20887 0.59912 0.14427 0.78466 0.010766 0.13144-0.094746 0.18556-0.21533 0.23194-0.33161l0.19713-0.46727c0.01933-0.049526 0.14688-0.047373 0.16234 0.00431 0.03479 0.12489 0.03092 0.25409 0.0116 0.37683-0.01545 0.10551-0.03866 0.23256 0.11596 0.29716 0.06957 0.027994 0.15848 0.036606 0.24351 0.043066 0.91994 0.066753 1.8476 0.13351 2.7675 0.081826 0.42518-0.023687 0.85809-0.07106 1.2755-0.017226 0.17394 0.023687 0.38653 0.058139 0.51408-0.010766 0.05024-0.027993 0.07345-0.064599 0.09663-0.10336 0.10823-0.18734 0.19713-0.5211 0.23965-0.69983 0.01546-0.07106 0.20486-0.068906 0.21646 0.00215 0.01933 0.12274-0.05797 0.31008-0.06572 0.4242-0.0116 0.11197-0.04252 0.2261 0 0.33376 0.05797 0.14427 0.28217 0.28424 0.58366 0.21748 0.06957-0.015073 0.13142-0.040913 0.18167-0.07106 0.15461-0.099052 0.19326-0.22825 0.22419-0.35314 0.05412-0.20241 0.10823-0.40267 0.16234-0.60508 0.37493-0.1981-0.0077 0.82257 0.35561 1.053 0.03479 0.021533 0.08503 0.036606 0.13915 0.032299 0.07345-0.00431 0.09664-0.036606 0.11596-0.066753 0.32082-0.46296 0.3672-0.96684 0.41358-1.4621 0.01933-0.2261 0.04252-0.45004 0.06184-0.67614 0.31695-0.45866 0.05412 0.88932 0.32855 1.3049 0.04252 0.062446 0.09277 0.12274 0.11596 0.18734 0.01545 0.04522 0.01545 0.092593 0.03479 0.13781 0.05024 0.10121 0.22805 0.17657 0.41358 0.17657 0.18553 0 0.44064-0.049526 0.43291-0.15289-0.03865-0.39836-0.02319-0.79673-0.0039-1.1951 0.02319-0.5534 0.05024-1.1068 0.07345-1.6602 0.01545-0.37252 0.03092-0.74289 0.11596-1.1133 0.02319-0.094746 0.09276-0.21318 0.2667-0.21748 0.2667 0.15073 0.0116 1.0444 0.01545 1.5655v0.027993c0.0039 0.12489 0.34014 0.12705 0.35174 0 0.01545-0.21748 0.03479-0.4242 0.12755-0.51464 0.10823-0.017226 0.17394 0.066753 0.18167 0.1292l0.10436 0.63307c0.0077 0.040913 0.10823 0.04522 0.12756 0.00646l0.18944-0.37683c0.01933-0.040913 0.12369-0.038759 0.13915 0.00431 0.0773 0.23256-0.04639 0.4845-0.10049 0.72567-0.05798 0.25194-0.03092 0.50818-0.0077 0.76227 0.03865 0.40482 0.0773 0.8118 0.11209 1.2166 0.0077 0.096899 0.01933 0.19595 0.12369 0.27778 0.05797 0.04522 0.14688 0.079672 0.24738 0.086133 0.27057 0.015073 0.41358-0.16581 0.4561-0.31223 0.07344-0.25624 0.08504-0.5168 0.09276-0.77735l0.05032-1.6236c0-0.02584 0.06957-0.030147 0.08117-0.00431 0.16234 0.40052 0.25124 0.8118 0.24351 1.2231-0.0039 0.21533-0.03479 0.43712 0.09664 0.63953 0.09277 0.14212 0.2667 0.27347 0.28217 0.4242 0.0077 0.077519-0.02705 0.15504-0.02705 0.23256 0 0.099052 0.08117 0.20887 0.29376 0.21318 0.15461 0.00215 0.31695-0.068906 0.35561-0.15289 0.25897-0.54694 0.32855-1.1219 0.20872-1.6839-0.0039-0.015073-0.0039-0.030146-0.0077-0.04522-0.0077-0.073213 0.18553-0.081826 0.20099-0.010766 0.04252 0.20456 0.01933 0.41559 0.01933 0.62231 0 0.36606 0.07345 0.73428 0.22418 1.0917 0.01546 0.034453 0.03479 0.073213 0.08504 0.092593 0.04639 0.01938 0.10823 0.021533 0.16621 0.021533 0.17394 0.00215 0.34788 0.00215 0.51795 0.00431 0.10823 0 0.22419 0 0.31309-0.036606 0.07345-0.030147 0.10823-0.081826 0.13915-0.13135 0.10436-0.18088 0.15461-0.37037 0.14688-0.56201 0-0.027994 0.0077-0.053833 0.03092-0.077519 0.04639-0.049526 0.18167-0.0323 0.18167 0.023686l-0.0077 0.50172c0 0.049526 0 0.10121 0.03865 0.14427 0.06184 0.07106 0.20873 0.10982 0.34788 0.11628 0.14302 0.00646 0.28217-0.010766 0.42132-0.021533 0.79625-0.058139 1.6002 0.1292 2.3965 0.079672 0.11596-0.00646 0.23192-0.021533 0.32855-0.055986 0.21259-0.077519 0.26284-0.23686 0.29376-0.37898 0.15461-0.73213 0.25511-1.4707 0.49089-2.1964 0.10436-0.31869 0.23578-0.64384 0.20486-0.96253-0.0039-0.058139 0.14302-0.075365 0.18167-0.01938 0.06957 0.10767 0.0889 0.2304 0.1005 0.34453 0.0773 0.81611 0.20099 1.6301 0.3672 2.4419v0.00215c0.02319 0.10336 0.2899 0.10336 0.30922 0 0.02705-0.13781 0-0.28208-0.02319-0.4199-0.1778-1.0314-0.11982-2.0758 0.17394-3.0986 0.02319-0.075366 0.22419-0.068906 0.22805 0.00861 0.0116 0.19164-0.01545 0.38544-0.02319 0.57709-0.02706 0.70198 0.18167 1.3975 0.40199 2.0887 0.10436 0.33161 0.21259 0.66322 0.32082 0.99483 0.03092 0.096899 0.06572 0.1981 0.13528 0.28854 0.03092 0.043066 0.14302 0.030147 0.14688-0.017226 0.0039-0.40698 0.02705-0.8118 0.08117-1.2188 0.04639-0.37898 0.11596-0.76227 0.05412-1.1413-0.04638-0.25839-0.15075-0.51248-0.17394-0.77303-0.02705-0.3273 0.08504-0.6503 0.14302-0.9776 0.08504-0.51034 0.03479-1.0228 0.02705-1.5353-0.0116-0.72567 0.06184-1.4513 0.13528-2.177v-0.002154c0.0077-0.064599 0.17394-0.068906 0.19326-0.004308 0.201 0.72351 0.34401 1.4513 0.42518 2.1813 0.09276 0.84841 0.10049 1.7011 0.09276 2.5517 0 0.090439 0.0077 0.19164 0.12755 0.25194 0.11982-0.3876 0.1778-0.78165 0.1778-1.1757 0.02705-0.038759 0.11982 0.015073 0.12369 0.055986 0.15461 1.4169 0.22032 2.8338 0.17394 4.2528 0 0.015073 0.03865 0.017226 0.04252 0.00215l0.13139-0.85918v-0.00215c0.0077-0.049527 0.14302-0.047373 0.14302 0.00431 0 0.18949 0 0.37898 0.0039 0.56847 0.0039 0.14212 0.0077 0.2907 0.1005 0.4199 0.02705 0.038759 0.13142 0.034453 0.14688-0.00431 0.0116-0.023687 0.01545-0.049526 0.01545-0.073213 0.03479-0.38329 0.10823-0.76443 0.22032-1.1434 0.01933-0.07106 0.20872-0.062446 0.20872 0.00861v0.00215c0.0116 0.34668 0.01933 0.69121 0.03092 1.0379 0.0039 0.10551 0.0077 0.21318 0.02319 0.31869 0.0077 0.058139 0.15848 0.066753 0.1894 0.010767 0.01545-0.0323 0.02705-0.066753 0.02705-0.10121 0.0039-0.088286-0.02319-0.17872-0.0077-0.26701 0.01933-0.11843 0.11596-0.22825 0.16234-0.34453 0.06184-0.15289 0.03092-0.31223 0.03865-0.46942 0.0077-0.18088 0.06572-0.36176 0.17394-0.53402 0.01933-0.032299 0.10823-0.023687 0.10436 0.010766-0.03479 0.4845-0.06572 0.96899-0.1005 1.4535-0.0116 0.15289 0 0.33592 0.25897 0.41128 0.06957 0.01938 0.15461 0.01938 0.20873-0.010767 0.05798-0.030146 0.04639-0.073212 0.03479-0.11413-0.16626-0.59216 0.31304-1.1843 0.3169-1.7851v-0.00215c0-0.053832 0.14302-0.055986 0.15075-0.00215 0.05412 0.43928 0.04639 0.8807-0.02319 1.3178-0.0077 0.058139-0.01933 0.11843 0.03479 0.17227 0.03092 0.030147 0.08117 0.053832 0.13915 0.058139 0.15461 0.012919 0.24351-0.092593 0.25511-0.17657 0.0116-0.081826 0.0116-0.19595 0.13529-0.24332 0.0039-0.12489 0.0116-0.25194 0.01545-0.37683 0.0077-0.14212 0.0116-0.28424 0.06957-0.42205 0.01546-0.034453 0.10436-0.030147 0.10823 0.00431 0.01933 0.15504 0.03479 0.30792 0.05412 0.46296 0.0077 0.066753 0.01546 0.13566 0.07345 0.1938 0.08504 0.086133 0.30536 0.13997 0.44451 0.017226 0.03479-0.032299 0.05412-0.068906 0.05797-0.10551l0.10434-0.67183c0-0.00861 0.0039-0.01938 0.0116-0.02584 0.02319-0.01938 0.07731-0.015073 0.10436 0.00215 0.02705 0.017226 0.03092 0.040913 0.03865 0.062446 0.04639 0.23256 0.09664 0.46727 0.14302 0.69983 0.0039 0.023687 0.0077 0.047373 0.03092 0.066753 0.01933 0.01938 0.05412 0.034453 0.08504 0.047373 0.09664 0.040913 0.20099 0.081826 0.32082 0.096899 0.17007 0.01938 0.33628-0.047373 0.35561-0.14427 0.03479-0.17011 0.04252-0.34022 0.02319-0.51249-0.0116-0.096899-0.02319-0.20241 0.05412-0.28639 0.0116-0.015073 0.05024-0.012919 0.06572 0 0.22419 0.21964 0.03092 0.52326 0.23192 0.75151 0.01933 0.021533 0.06572 0.027993 0.10049 0.017226 0.12369-0.036606 0.20486-0.11197 0.24351-0.18734 0.04252-0.090439 0.03479-0.18518 0.04252-0.27778 0.0116-0.19164 0.08117-0.38114 0.16621-0.56847 0.23578-0.52756 0.57979-1.0444 0.70735-1.5827v-0.00215c0.0116-0.043066 0.12369-0.04522 0.13915-0.00215 0.0889 0.2907-0.05412 0.60293-0.11982 0.90439-0.05798 0.27347-0.05025 0.55125-0.03865 0.82903 0.0077 0.21964 0.01545 0.43928 0.02319 0.65891 0 0.04522 0.0039 0.092593 0.04252 0.13351 0.03865 0.040913 0.12369 0.07106 0.20099 0.055986 0.13529-0.15073 0.0889-0.33161 0.09276-0.50172 0.0116-0.22179 0.12369-0.43928 0.17007-0.66107 0.13142-0.58139 0.04252-1.1563 0.05025-1.7399 0.0039-0.35099 0.0077-0.70198 0.0116-1.053v-0.00215c0-0.047373 0.12369-0.049527 0.13142-0.00215 0.01933 0.12705 0.02705 0.25409 0.02319 0.38329-0.0039 0.11197-0.01546 0.23256 0.09664 0.3273 0.06957 0.060293 0.22419 0.10551 0.32468 0.034453 0.03092-0.021533 0.04639-0.047373 0.05024-0.073212 0.08504-0.50388 0.13915-1.0078 0.16234-1.5138 0.0039-0.066753 0.0039-0.13351 0.02705-0.20026 0.0116-0.0323 0.09664-0.0323 0.10436 0 0.06957 0.23471 0.0077 0.4845 0.10823 0.71921 0.02705-0.2261 0.05798-0.45435 0.08504-0.68045 0.02319-0.18518 0.04639-0.37252 0.12369-0.55555 0.0116-0.030147 0.09277-0.027993 0.10049 0.00431 0.01933 0.1292 0.04252 0.26055 0.04639 0.38975 0.01933 0.47588-0.16234 0.95392-0.05024 1.4276 0.02705 0.11628 0.07344 0.2304 0.13915 0.34238 0.15075-0.22179 0.05798-0.47158 0.09276-0.70844 0.03092-0.23686 0.19326-0.46512 0.21646-0.70198 0.01546-0.15073-0.02705-0.30146-0.03092-0.45435-0.0039-0.15289 0.0116-0.31008 0.15074-0.43928-0.01546-0.21318-0.03092-0.43066 0.05024-0.63953 0.03865-0.099052 0.09664-0.19595 0.13528-0.295 0.04639-0.11843 0.06957-0.23902 0.06957-0.36176 0.0077-0.20026-0.12369-0.39406-0.10049-0.59431 0.01933-0.16581 0.03479-0.33807-0.05024-0.49742-0.05412-0.099052-0.14688-0.18949-0.20099-0.28854-0.06572-0.11843-0.06957-0.24332-0.0773-0.36606-0.03479-0.59001 0.03479-1.1692 0.03479-1.7593 0-0.38975 0-0.7795-0.06184-1.1671-0.01933-0.11843-0.04252-0.23686-0.02705-0.3553 0.01545-0.10551 0.06184-0.20887 0.08117-0.31438 0.01933-0.10767 0.0077-0.21748 0.03865-0.32515 0.03865-0.11843 0.13142-0.22825 0.20873-0.34022 0.06957-0.10336 0.14688-0.20026 0.1894-0.31008-0.15848-0.2584 0-0.54048-0.03092-0.8118-0.02705-0.2261-0.1894-0.4565-0.0889-0.67614 0.05024-0.10982 0.14688-0.21533 0.15848-0.3273 0.0077-0.083979-0.03479-0.16796-0.06572-0.24978-0.201-0.50818-0.0116-1.04-0.11596-1.559-0.01547-0.077519-0.04639-0.1615-0.15848-0.20672-0.1005 0.092593-0.16234 0.20026-0.17394 0.31008-0.0116 0.10982 0.01933 0.22179-0.01933 0.32946-0.03479 0.094746-0.13142 0.18303-0.14688 0.27993-0.0116 0.066753 0 0.14858-0.07345 0.19595-0.01546 0.010769-0.04639 0.00428-0.05024-0.00861-0.06572-0.29931-0.12756-0.59862-0.12756-0.89793 0-0.3553 0.08504-0.72782-0.17394-1.0551-0.02705-0.034458-0.06957-0.073216-0.13529-0.066757-0.0039 0.092595-0.02319 0.18518-0.06572 0.27347-0.04639 0.10551-0.12369 0.20887-0.15074 0.31654-0.02705 0.10767-0.0077 0.21533-0.02319 0.323-0.01933 0.12274-0.08504 0.24117-0.0889 0.36391-0.0039 0.068907 0.0116 0.13781-0.01546 0.20456-0.03092 0.07106-0.11209 0.13997-0.09276 0.21318 0.0039 0.021533 0.01545 0.049528-0.0116 0.062446-0.02319 0.010769-0.05798 0.00428-0.07731-0.00861-0.02319-0.015071-0.02319-0.03661-0.02319-0.055984 0.01545-0.4888 0.04252-0.9776 0.07345-1.4664 0.0116-0.18088 0.02705-0.36391-0.02319-0.54263-0.02319-0.07752-0.05412-0.15289-0.0889-0.2304-0.01545-0.0323-0.03479-0.06676-0.10049-0.07537-0.03479-0.0043-0.06957 0.0022-0.09664 0.01507-0.03479 0.01723-0.05412 0.03876-0.06957 0.06245-0.0773 0.13135-0.13529 0.26701-0.15848 0.40482-0.05797 0.34453-0.0889 0.69121-0.0889 1.0379 0 0.055987-0.0039 0.11843-0.05797 0.16365-0.0116 0.010769-0.04252 0.00428-0.04252-0.00862-0.0039-0.24978-0.03092-0.49741-0.08117-0.74505-0.0077-0.034449-0.01933-0.073216-0.06957-0.094746-0.07345 0.1292-0.05024 0.26701-0.04639 0.40267 0.0116 0.28424-0.06184 0.56847-0.20872 0.83979-0.0116 0.017225-0.05412 0.017225-0.06184 0-0.01933-0.04522-0.02705-0.094746-0.03479-0.14212-0.0889-0.65676-0.12369-1.3178-0.10049-1.9767-0.04639 0.13566-0.09276 0.26916-0.13529 0.40482-0.05024 0.14858-0.10049 0.29931-0.0773 0.45004v0.00218c0.0077 0.040918-0.10436 0.047377-0.11596 0.00644-0.07345-0.24763-0.11982-0.49741-0.12756-0.7472-0.0039-0.10336-0.0039-0.21102-0.09276-0.29931-0.07345 0.04307-0.06957 0.11197-0.06572 0.17226 0.0039 0.06029-0.0077 0.1292-0.09664 0.16365-0.14688-0.08614-0.02319-0.26055-0.201-0.33161-0.12369 0.06245-0.07345 0.17226-0.08117 0.26701-0.0039 0.02584-0.02319 0.05814-0.07344 0.05168-0.03092-0.0043-0.05024-0.01938-0.04639-0.03661 0.0077-0.11413 0.05024-0.22825 0.05412-0.34453 0.0039-0.10121-0.01933-0.20456-0.04638-0.30577-0.02319-0.09905-0.04639-0.1981-0.07345-0.29716-0.11596 0.05168-0.12369 0.14858-0.13142 0.23256-0.01546 0.12489-0.09276 0.24763-0.10823 0.37252-0.02319 0.18518-0.09276-0.47158-0.16621-0.72782-0.0116-0.03661-0.03865-0.08183-0.10436-0.08398-0.01933 0.2584-0.10049 0.52541-0.14688 0.78381-0.10823 0.56848-0.22032 1.1369-0.17007 1.7076v0.00218c0.0039 0.040918-0.10823 0.045218-0.11209 0.00426-0.10049-0.55125-0.10823-1.1046-0.03092-1.6559 0.01545-0.11843 0.03865-0.23686 0.01545-0.3553-0.03092-0.14642-0.12756-0.28639-0.11982-0.43282 0-0.01507 0.0039-0.03015-0.0077-0.04307s-0.03865-0.02369-0.06185-0.01723c-0.0116 0.0043-0.01933 0.01077-0.02705 0.01723-0.1005 0.1012-0.0773 0.2261-0.09276 0.34238-0.01545 0.11843-0.08117 0.23471-0.1005 0.3553-0.02705 0.15719 0.01933 0.31654-0.0116 0.47373-0.0039 0.01507-0.0077 0.03015-0.02705 0.03876-0.02705 0.01077-0.07345 0.0022-0.0889-0.01507-0.01933-0.01723-0.01933-0.03661-0.01933-0.05599l-0.03866-0.99268c0-0.01723-0.02705-0.0323-0.05797-0.03015-0.03479 0.0043-0.03865 0.02799-0.03865 0.04737 0.03865 0.23686 0.03479 0.48019-0.13528 0.69767-0.0116 0.01507-0.03865 0.02584-0.06572 0.02369-0.05024-0.0022-0.05798-0.03015-0.06184-0.05168-0.03092-0.20026-0.05797-0.40052-0.08503-0.59862-0.0039-0.01723-0.0039-0.03445-0.02319-0.04953-0.01933-0.01507-0.05798-0.02153-0.08117-0.01077-0.01545 0.0064-0.01933 0.01938-0.02319 0.03015-0.04639 0.19595-0.06572 0.3919-0.06572 0.58785 0 0.05168 0 0.10766-0.05024 0.15288-0.04252-0.01507-0.07345-0.04953-0.05024-0.07322-0.03865-0.0969-0.06572-0.19595-0.0889-0.29285-0.0077-0.03661-0.10436-0.0323-0.10436 0.0043 0 0.07968 0.0039 0.15934-0.0039 0.23902-0.02319 0.20456-0.12756 0.40482-0.11209 0.60939 0.0039 0.0603 0.01546 0.1292-0.03092 0.18088-0.01546 0.01938-0.06572 0.01507-0.06957-0.0043-0.13142-0.4242-0.04252-0.85917-0.1005-1.2877-0.0077-0.05168-0.01933-0.10551-0.06571-0.15288-0.02319-0.02369-0.06572-0.04738-0.11596-0.0323-0.02705 0.0086-0.04252 0.02369-0.04639 0.04092-0.02705 0.14858-0.03865 0.29931-0.02705 0.44789 0.0077 0.12704 0.02319 0.26701-0.09276 0.37252-0.01546 0.01292-0.05024 0.0086-0.05024-0.0064l-0.04639-0.25409c-0.08503 0.06891-0.09277 0.15934-0.09277 0.24332 0 0.23686 0.02705 0.47588-0.04639 0.70844-0.03092 0.096898-0.0773 0.19595-0.06957 0.295 0.0039 0.023689 0.0039 0.051678-0.0039 0.077516-0.0077 0.025839-0.07731 0.025839-0.08117-0.00218-0.02319-0.21318-0.04639-0.42636-0.05797-0.63953-0.10436 0.20241-0.13915 0.41774-0.10823 0.62877 0.01545 0.088286 0.0116 0.23041-0.0116 0.31869-0.0077 0.036608-0.01545 0.077516-0.02705 0.11197-0.0077 0.021529-0.06184 0.019379-0.06572-0.00218-0.04638-0.20672-0.0773-0.33376-0.13915-0.55555-0.04638-0.1658-0.13528-0.32515-0.16621-0.49096-0.03092-0.14643-0.01546-0.29285-0.04252-0.43928-0.04252-0.2304-0.18167-0.4522-0.1894-0.6826-0.15075 0.38975-0.30149 0.78596-0.22032 1.1822 0.0039 0.01723 0 0.03446-0.0116 0.05168-0.01933 0.0323-0.10823 0.02584-0.11209-0.0086-0.03865-0.24763-0.05798-0.49526-0.05798-0.74505 0-0.07537 0.0039-0.15073-0.01545-0.2261-0.01933-0.08829-0.06572-0.17442-0.11596-0.26055-0.12369-0.2261-0.24351-0.44358-0.3672-0.66968h11.147v3.8996s0 0.54909-0.38266 1.1951c-0.38266 0.64599-0.05797 0.93454-0.17394 2.0672-0.11596 1.1326 0.5566 1.5827 0.5566 2.0672 0 0.4845-0.44064 1.3889-0.5566 1.5827-0.11596 0.1938-0.2899 1.4535 0 2.1641 0.2899 0.71059 0.17394 0.61369 0.17394 1.1305 0 0.51679 0.38266 0.96684 0.38266 0.96684v6.0293h-54.114v-21.102h33.28l-0.13529 0.04307c-0.23578 0.07752-0.09277 0.31869-0.31695 0.40698-0.14302-0.04953 0.01933-0.20241-0.13142-0.2584-0.05412-0.02153-0.13142-0.01507-0.18167 0.0086-0.10436 0.04953-0.10823 0.12274-0.10436 0.19164 0.0039 0.2261 0.0039 0.45004 0.0077 0.67614 0 0.10767 0 0.21964-0.06572 0.31869-0.01545 0.02369-0.0773 0.02153-0.0889-0.0043-0.12755-0.33807-0.20486-0.68045-0.23192-1.025-0.0039-0.0603-0.01546-0.1292-0.12369-0.15504-0.06572-0.01507-0.14302-0.0043-0.201 0.02154-0.10049 0.04737-0.11982 0.11843-0.13915 0.18734l-0.09276 0.32515c-0.0039 0.01507-0.04252 0.01938-0.05412 0.0043-0.14688-0.14858 0.01933-0.36391-0.10823-0.52326-0.0116-0.01507-0.05024-0.01723-0.06957-0.0022-0.30149 0.25409-0.31309 0.5814-0.33241 0.88932-0.0039 0.03876-0.03092 0.09044-0.10436 0.08398-0.03865-0.0043-0.06572-0.02584-0.06957-0.04953-0.0116-0.23471-0.01933-0.46942-0.03092-0.70413-0.0039-0.06029-0.02319-0.13566-0.14688-0.14427-0.05024-0.0022-0.09664 0.0086-0.13528 0.02584-0.40199 0.20241-0.1894 0.5534-0.34788 0.83118-0.0039 0.0086-0.02705 0.0064-0.02705-0.0022l-0.12756-0.77514c-0.0039-0.0323-0.01933-0.07106-0.08504-0.07106-0.03479 0-0.06571 0.01077-0.08117 0.02584-0.12369 0.12059-0.11596 0.2627-0.11209 0.40052 0.0116 0.46081-0.03092 0.92162-0.13528 1.3803-0.0077 0.036608-0.10436 0.036608-0.11209-0.00218-0.08117-0.53833-0.32855-1.0853-0.20486-1.6193 0.01933-0.07537 0.02319-0.17442-0.12369-0.20026-0.10436-0.01723-0.21259 0.01507-0.25898 0.07106-0.28603 0.35745-0.43678 0.7472-0.44451 1.1391 0 0.01077-0.02705 0.01507-0.03479 0.0043-0.1778-0.20026-0.0116-0.47804-0.23965-0.65676-0.01545-0.01292-0.05412-0.01077-0.06572 0.0043-0.19326 0.27347-0.16621 0.58139-0.15075 0.8764 0.01933 0.46727-0.0077 0.93669-0.08117 1.4018-0.0039 0.017225-0.04638 0.019379-0.05797 0.00428-0.12756-0.20026-0.15075-0.41774-0.16621-0.63092-0.01546-0.18949-0.03479-0.38114-0.05025-0.57063-0.03479-0.37037-0.06572-0.74289 0.0116-1.1111 0.01545-0.07537 0.03479-0.15289 0.02319-0.22825-0.0039-0.0323-0.08504-0.03661-0.10436-0.0064-0.13528 0.20026-0.19713 0.41774-0.1778 0.63307 0.0039 0.05168 0.0077 0.10767-0.0077 0.15935-0.01933 0.06029-0.1778 0.0646-0.19713 0.0022-0.02705-0.08614-0.03865-0.17442-0.05024-0.26055-0.03479-0.22825-0.09664-0.45435-0.16234-0.68045-0.03092-0.10336-0.07345-0.21964-0.23192-0.27778-0.06957-0.02584-0.15075-0.03661-0.23192-0.04522-0.3904-0.04738-0.84263-0.08614-1.2408-0.03876-0.21646 0.02584-0.39039 0.11197-0.46383 0.22825-0.1778 0.28208-0.27057 0.58355-0.27444 0.88286 0 0.21102 0.04252 0.43066-0.04639 0.63523-0.0116 0.02799-0.08117 0.02584-0.0889-0.0022-0.1005-0.35099-0.13915-0.70844-0.12369-1.0637 0-0.03015-0.07345-0.03446-0.08503-0.0064-0.04639 0.11197-0.05797 0.2304-0.06957 0.34453-0.04639 0.46081-0.09276 0.92162-0.13915 1.3846-0.0039 0.040918-0.10823 0.051678-0.13528 0.012919-0.06572-0.086136-0.08504-0.18518-0.09276-0.27993-0.03479-0.38114 0.02705-0.76443-0.0889-1.1391-0.05412-0.17442-0.14302-0.35099-0.08503-0.52326 0.0116-0.03661 0.03092-0.07322 0.02319-0.10982-0.01545-0.04953-0.1005-0.0969-0.19713-0.05814-0.03866 0.01507-0.05797 0.03876-0.06571 0.0646l-0.13142 0.53187c-0.0039 0.01938-0.05412 0.01938-0.05797 0l-0.17394-0.64169c-0.0039-0.01938-0.05412-0.02369-0.06572-0.0043-0.04639 0.07537-0.06184 0.15504-0.0773 0.23256-0.0889 0.41344-0.19713 0.82687-0.32855 1.2382-0.0077 0.02153-0.05797 0.02153-0.06957 0-0.03092-0.07968-0.05412-0.15934-0.06957-0.23902-0.0039-0.02369-0.06572-0.02799-0.08117-0.0064-0.05025 0.06891-0.04639 0.15288-0.04252 0.2304 0.06572 0.79242 0.03479 1.5891-0.09664 2.3794-0.0077 0.051681-0.14302 0.049528-0.14688-0.0022v-0.0022c-0.02705-0.25409 0.02705-0.51249-0.01933-0.76658-0.03092-0.16581-0.1005-0.32946-0.13915-0.49526-0.15075-0.6137 0.11982-1.2489-0.16621-1.8475-0.01933-0.04307-0.05412-0.08828-0.10049-0.12489-0.0773-0.06029-0.24351-0.04738-0.29376 0.01938-0.15848 0.21318-0.24738 0.44358-0.25511 0.67399-0.0039 0.05384-0.0039 0.11412-0.01933 0.16796-0.01933 0.05814-0.16621 0.05384-0.1778-0.0022-0.0773-0.36606-0.20486-0.72782-0.38266-1.081-0.01933-0.03446-0.03865-0.07106-0.12755-0.08183-0.05797-0.0064-0.11982 0.0022-0.16621 0.02369-0.0889 0.03876-0.11596 0.10336-0.14302 0.16365-0.19326 0.4845-0.24738 0.98622-0.52568 1.4556-0.09277 0.15719-0.21646 0.31223-0.25897 0.47588-0.04252 0.14643-0.02319 0.29716-0.01546 0.44574 0 0.038758-0.0077 0.086133-0.08503 0.094746-0.06957 0.00861-0.13529-0.023687-0.13915-0.062446-0.03865-0.37037 0-0.74074-0.0116-1.1111-0.01546-0.54694-0.13915-1.0896-0.26284-1.6322-0.0077-0.04092-0.01933-0.08183-0.04639-0.12059-0.01545-0.01938-0.06571-0.02154-0.08117-0.0022l-0.0039 0.0022c-0.04252 0.04737-0.17007 0.03445-0.18167-0.01723-0.0039-0.01077-0.0039-0.02153-0.0077-0.03445-0.01933-0.07322-0.17394-0.10982-0.2783-0.06245-0.08117 0.03661-0.14302 0.08829-0.1778 0.14427-0.06572 0.10336-0.06184 0.21533-0.11596 0.31869-0.07731 0.15288-0.27057 0.28208-0.32468 0.43928-0.04639 0.12704 0.0039 0.2584-0.02705 0.3876-0.05798 0.24548-0.39426 0.45435-0.40972 0.69982-0.0039 0.079676 0.02705 0.15935 0.01933 0.23902 0 0.010769-0.0039 0.021529-0.0077 0.032298-0.02319 0.083976-0.24351 0.079676-0.25124-0.00426-0.01546-0.12274 0.02705-0.24979 0.04639-0.37468 0.0077-0.055987-0.0039-0.12705-0.10823-0.13997-0.05024-0.0064-0.10049 0.0064-0.13142 0.02584-0.05797 0.038758-0.06184 0.088286-0.06572 0.13566-0.0039 0.083976-0.0116 0.17011-0.01545 0.25409-0.0039 0.047377-0.02319 0.10551-0.11209 0.11197-0.08117 0.00644-0.15075-0.032298-0.15075-0.079676v-0.3919c0-0.017229-0.0077-0.034449-0.02705-0.047378-0.06957-0.04953-0.1778-0.0064-0.21646 0.040918-0.03092 0.040918-0.04252 0.11413-0.09662 0.14858-0.03479 0.32946-0.10049 0.65891-0.201 0.98406-0.0116 0.03661-0.10823 0.032302-0.10823-0.00428 0-0.075366 0.01545-0.15073 0.0077-0.22394-0.0039-0.055987-0.15074-0.058137-0.16234-0.00218-0.04252 0.16796 0.0077 0.34668 0.01933 0.51895 0.03092 0.37037-0.09664 0.73859-0.22805 1.1025-0.0077 0.025841-0.03093 0.060294-0.08503 0.055989-0.03092-0.0022-0.05412-0.017225-0.06184-0.034451-0.07731-0.18088-0.15848-0.36391-0.16621-0.5491-0.0077-0.26701 0.14302-0.54263 0.0039-0.79888-0.02705 0.18949-0.06572 0.37683-0.11209 0.56632-0.01545 0.055989-0.16234 0.05814-0.1778 0.0022-0.06957-0.23256 0.02319-0.48665 0.06185-0.72782 0.0039-0.019379 0.0039-0.038758 0-0.060292-0.0077-0.058137-0.16234-0.060297-0.17394-0.00218-0.03479 0.18518-0.10049 0.51679-0.13528 0.69983-0.0077 0.036604-0.1005 0.040918-0.11596 0.00428-0.04639-0.099053-0.04639-0.20887-0.04639-0.31438 0.0039-0.31869 0.0077-0.63738 0.01546-0.95822 0-0.073216-0.0039-0.15504-0.05797-0.21748-0.02319-0.025839-0.09276-0.025839-0.11209 0.00218-0.18167 0.25194-0.2783 0.5211-0.28603 0.79242 0 0.030148-0.01546 0.07106-0.07345 0.068906-0.03092 0-0.05797-0.012918-0.06572-0.027989-0.07731-0.11413-0.06184-0.23902-0.05024-0.3596 0.04638-0.55771-0.01546-1.1176-0.18553-1.6688-0.01545-0.05168-0.03479-0.10551-0.15461-0.1292-0.0773-0.01507-0.16621-0.0086-0.23578 0.01723-0.13915 0.04953-0.19326 0.13781-0.23965 0.22394-0.16234 0.30792-0.25897 0.62877-0.21646 0.94746 0.0039 0.017229 0.0039 0.034458 0.0039 0.051678 0 0.055987-0.15074 0.055987-0.15461 0v-0.021529c-0.01545-0.38114-0.02705-0.76227-0.04252-1.1434-0.0039-0.09259-0.0077-0.18734-0.08117-0.27132-0.07344-0.08398-0.24351-0.12058-0.40972-0.10551-0.38653 0.23471-0.47543 0.57278-0.545 0.88932-0.05024 0.22825-0.1005 0.4565-0.15075 0.68475-0.0039 0.021529-0.0077 0.040918-0.01546 0.062447-0.0116 0.049528-0.14302 0.045218-0.14688-0.00426l-0.04252-0.69121c0-0.02369-0.0116-0.04953-0.03479-0.07106-0.04252-0.04522-0.16621-0.03661-0.18553 0.01507-0.13529 0.37683-0.10049 0.76658-0.11209 1.1499-0.019331 0.55986-0.088904 1.0573-0.21646 1.6128 0 0.0022-0.077305 0.030149-0.081171-0.040912-0.015455-0.20026-0.09277-0.33376-0.12755-0.53402-0.023187-0.13351-0.046385-0.27132-0.011599-0.40482 0.03092-0.11197 0.1005-0.2304 0.00769-0.33161-0.11596 0.20457-0.18553 0.41774-0.20486 0.63307 0 0.012918-0.0039 0.027995-0.0039 0.043066-0.0077 0.043066-0.12369 0.04522-0.13528 0.0022-0.088902-0.323-0.11982-0.6503-0.088902-0.9776v-0.040918c-0.00388-0.027998-0.077305-0.030148-0.088902-0.00218v0.00426c-0.023191 0.060297-0.18167 0.051678-0.1778-0.010769 0.019326-0.45866 0.042518-0.91731 0.061844-1.376 0.00388-0.07752-0.030923-0.16796-0.17394-0.17442-0.1005-0.0043-0.1894 0.03445-0.21259 0.08829-0.13915 0.30577-0.11596 0.62446-0.1005 0.93884 0.050249 1.0702 0.015461 2.1404-0.11209 3.2063-0.00772 0.062446-0.015461 0.12705-0.046384 0.18734-0.01546 0.034451-0.10823 0.032297-0.12369-0.0022-0.023191-0.049528-0.027057-0.10336-0.030921-0.15504-0.081172-0.941 0.14688-1.8928-0.16234-2.8187-0.015462-0.045218-0.038653-0.094746-0.085037-0.13135-0.042518-0.034449-0.13528-0.027989-0.16621 0.00862-0.18167 0.21102-0.16621 0.46296-0.15461 0.69983 0.015461 0.36391 0.00772 0.72567-0.030923 1.0896-0.00388 0.021533-0.034787 0.038758-0.07344 0.038758-0.038653-0.0022-0.046383-0.017231-0.054114-0.032297-0.40199-0.8118-0.1778-1.6731-0.26671-2.5151-0.00386-0.03876-0.10436-0.04522-0.12369-0.0064-0.015462 0.0323-0.019326 0.06891-0.019326 0.10336 0.00772 0.3596 0.054113 0.72782-0.07344 1.0788-0.015462 0.040918-0.11982 0.038758-0.13142-0.00218-0.13915-0.56847-0.22032-1.1391-0.24738-1.7119-0.00388-0.05168-0.00388-0.10766-0.06571-0.14858-0.030923-0.02153-0.077307-0.03661-0.12756-0.03445-0.15848 0.0043-0.16621 0.13997-0.18167 0.18303-0.023191 0.07537-0.030921 0.15504-0.030921 0.23256 0.034787 1.5525 0.07344 3.1094-0.15075 4.6576v0.00428c-0.0116 0.051676-0.14302 0.058139-0.16621 0.00646-0.057979-0.12059-0.054113-0.24763-0.054113-0.37252 0.00388-0.53833-0.038653-1.0767-0.12369-1.6128-0.046384-0.30146-0.11209-0.60508-0.12369-0.9087-0.00772-0.21964 0.00772-0.43928 0.050249-0.65676 0.00388-0.017229-0.042518-0.021529-0.050249-0.00426l-0.11209 0.22394c-0.00772 0.01507-0.01546 0.030149-0.054114 0.032299-0.038652 0.00218-0.069574-0.01507-0.069574-0.036608-0.054113-0.37683-0.034787-0.75581 0.05798-1.1305 0.01546-0.06245 0.027057-0.13566-0.015461-0.19164-0.023192-0.03015-0.1005-0.02799-0.11982 0.0043-0.17394 0.28424-0.0116 0.61154-0.1005 0.91085-0.0116 0.045218-0.13142 0.049528-0.15075 0.00426-0.015462-0.030148-0.019327-0.062447-0.019327-0.090436v-0.8807c0-0.05384-0.027056-0.12274-0.085036-0.15934-0.046384-0.02799-0.13142-0.01507-0.14688 0.02154-0.28603 0.62446-0.14688 1.2834-0.1778 1.9272-0.023191 0.49526-0.14688 0.98837-0.2667 1.4793-0.00772 0.027989-0.046383 0.051676-0.1005 0.05383-0.054114 0-0.077307-0.025841-0.092767-0.049528-0.12369-0.18518-0.11596-0.3876-0.11596-0.58355 0.00388-0.80319-0.11209-1.6064-0.35561-2.3966-0.0116-0.04091-0.027057-0.08183-0.057979-0.11843-0.023191-0.02799-0.1005-0.02369-0.11209 0.0064-0.027057 0.07106-0.050249 0.14427-0.061846 0.21964-0.00772 0.04738-0.12369 0.05814-0.15461 0.01292-0.023192-0.0323-0.030923-0.07322-0.027057-0.10767 0.0116-0.0646 0.038652-0.13566-0.00388-0.19164-0.00772-0.01077-0.038652-0.01077-0.046384 0l-0.050249 0.07537c-0.015461 0.02369-0.077305 0.01723-0.08117-0.0064l-0.030923-0.36606c-0.00388-0.0323-0.019326-0.06891-0.050249-0.09474-0.027056-0.02154-0.0889-0.01077-0.0889 0.01507-0.0116 0.60293-0.096633 1.2037-0.25124 1.8002-0.00772 0.023689-0.06571 0.023689-0.07344 0-0.13142-0.5211 0.05798-1.0702-0.25511-1.5676-0.019326-0.0323-0.046384-0.0646-0.11982-0.07106-0.038652-0.0043-0.08117 0.0022-0.11209 0.01507-0.073441 0.03015-0.1005 0.07752-0.12369 0.12489-0.44451 0.941 0.046384 1.9552-0.35174 2.9048-0.0116 0.027995-0.081172 0.025841-0.092767 0-0.17394-0.41344-0.10436-0.84625-0.1894-1.2683-0.085036-0.42205-0.32468-0.83333-0.37493-1.2575-0.007722-0.05599-0.042518-0.13351-0.15461-0.12489-0.061846 0.0043-0.11209 0.03661-0.11596 0.07106-0.034789 0.24548-0.042518 0.49311-0.054114 0.73859-0.019326 0.53617-0.038652 1.0767 0.10436 1.6064 0.07344 0.26916 0.1894 0.53833 0.16234 0.80965z" mask="url(#mask917)" style="fill:#0b1728;stroke-width:.02885"/>
</svg>
