<?xml version="1.0" encoding="UTF-8" standalone="no"?>
<svg
   xmlns:dc="http://purl.org/dc/elements/1.1/"
   xmlns:cc="http://creativecommons.org/ns#"
   xmlns:rdf="http://www.w3.org/1999/02/22-rdf-syntax-ns#"
   xmlns:svg="http://www.w3.org/2000/svg"
   xmlns="http://www.w3.org/2000/svg"
   width="53.318073mm"
   height="9.0275164mm"
   viewBox="0 0 53.318073 9.0275167"
   version="1.1"
   id="svg1320">
  <defs
     id="defs1314">
    <clipPath
       clipPathUnits="userSpaceOnUse"
       id="clipPath2579">
      <rect
         style="opacity:1;fill:#000080;fill-opacity:1;stroke:none;stroke-width:0.50122577;stroke-miterlimit:4;stroke-dasharray:none;stroke-opacity:1"
         id="rect2581"
         width="70.855751"
         height="11.926516"
         x="65.983299"
         y="285.64102" />
    </clipPath>
    <clipPath
       clipPathUnits="userSpaceOnUse"
       id="clipPath3156">
      <rect
         style="opacity:1;fill:#a0892c;fill-opacity:1;stroke:none;stroke-width:1.93824673;stroke-miterlimit:4;stroke-dasharray:none;stroke-opacity:1"
         id="rect3158"
         width="395.11032"
         height="68.794128"
         x="-697.30829"
         y="419.97354" />
    </clipPath>
  </defs>
  <metadata
     id="metadata1317">
    <rdf:RDF>
      <cc:Work
         rdf:about="">
        <dc:format>image/svg+xml</dc:format>
        <dc:type
           rdf:resource="http://purl.org/dc/dcmitype/StillImage" />
        <dc:title></dc:title>
      </cc:Work>
    </rdf:RDF>
  </metadata>
  <g
     id="layer1"
     transform="translate(-99.636688,-15.295153)">
    <g
       transform="translate(34.543998,-272.8184)"
       id="g3230"
       style="fill:#803300">
      <g
         transform="matrix(0.93886558,0,0,0.93886558,14.296604,4.3693009)"
         id="g3205"
         style="fill:#803300">
        <g
           id="g3152"
           transform="matrix(0.13650652,0,0,0.13650652,149.26012,244.77819)"
           clip-path="url(#clipPath3156)"
           style="fill:#803300">
          <path
             id="path2310-2"
             d="m -224.17774,404.81259 c 1.06892,0.75142 2.16694,1.48432 3.40783,1.92882 -0.0688,0.13493 -0.20637,0.40746 -0.27781,0.54504 0.73554,0.67204 1.56633,1.33085 2.61408,1.3626 1.35202,0.26723 3.05065,-0.28575 4.09046,0.86784 1.12977,1.43668 0.94192,3.39725 0.65088,5.09058 5.49804,-0.32279 11.00931,-0.41275 16.51,-0.69056 2.62202,-0.13229 5.24933,0.0159 7.874,0.10583 v 67.14596 c -3.25702,-0.0979 -6.51404,-0.0873 -9.76842,-0.20638 -1.70921,-0.0688 -3.43694,0.0317 -5.11969,-0.31485 -5.22552,-1.15623 -10.45898,-2.286 -15.69243,-3.40783 -4.59317,-0.889 -9.19428,-1.73567 -13.78744,-2.61409 -0.0423,-1.15623 -0.045,-2.30981 0.005,-3.46075 1.40229,-0.12171 3.26757,0.127 4.14072,-1.24619 0.32542,-1.10331 0.008,-2.27541 0.005,-3.40254 -0.16669,-2.01612 0.0106,-4.05871 -0.29636,-6.05896 -0.0979,-0.80168 -1.02923,-1.10331 -1.651,-0.65881 -0.63233,0.32015 -0.56089,1.09273 -0.51856,1.6854 0.17198,1.76212 0.0794,3.53219 0.15079,5.2996 0.005,0.67734 0.0529,1.37054 -0.10581,2.03729 -0.45773,0.45773 -1.14829,0.48948 -1.7304,0.66146 0.0714,-4.60904 0.25138,-9.21544 0.1773,-13.82183 0.12435,-1.50548 -1.84682,-1.85738 -2.921,-1.37583 -0.79375,0.25929 -1.04246,1.1377 -1.02661,1.88647 -0.0423,3.92113 0.22754,7.84225 0.0873,11.76073 -0.43127,-0.25929 -0.71173,-0.65087 -0.65881,-1.16152 -0.11906,-2.19604 0.0714,-4.40531 -0.15081,-6.59606 -0.0741,-1.09273 -2.07169,-1.15623 -2.14842,-0.0238 -0.20637,2.69875 -0.10583,5.42925 0.0582,8.128 0.0952,1.34673 1.72511,1.30704 2.71198,1.55046 0.0873,1.54252 0.10848,3.08768 0.14552,4.63285 -3.64331,0.63765 -7.2866,1.25413 -10.92993,1.88383 -4.52438,0.93134 -9.13869,1.19857 -13.7213,1.70392 -1.35731,0.17727 -2.64848,-0.37835 -3.98727,-0.42862 -1.18533,-0.0582 -2.3495,0.20108 -3.50573,0.39158 1.3335,-1.51342 3.22792,-2.26748 5.1144,-2.82575 -1.79123,-0.49213 -3.65919,-0.24342 -5.38954,0.34131 0.59529,-1.14035 1.41285,-2.14312 2.28069,-3.08769 -1.9394,0.381 -3.56659,1.651 -4.54817,3.34434 -0.44717,-0.77788 -0.87577,-1.59544 -1.55575,-2.1934 -0.63238,-0.56621 -1.46579,-0.80169 -2.24369,-1.0795 0.84669,1.02923 1.63777,2.11931 2.16958,3.35227 -1.49225,-0.51064 -3.01625,-0.95514 -4.59581,-1.06891 1.65367,0.97895 3.52163,1.9341 4.26773,3.83645 -2.09283,-0.53975 -4.22539,-1.05039 -6.40292,-0.97366 1.03453,0.39423 2.07963,0.76729 3.10621,1.19062 -3.43162,0.16669 -6.8871,-0.11377 -10.30285,0.20373 -5.40546,1.77536 -10.75798,3.73327 -16.16604,5.51921 -3.26498,0.84402 -6.57492,1.52664 -9.85573,2.31246 -2.29661,0.57679 -4.6514,0.94191 -6.88713,1.74096 -0.68789,0.18785 -1.38377,0.3466 -2.07698,0.48947 0.34134,-2.85485 0.74877,-5.73881 0.45511,-8.61483 -0.10321,-0.70908 -0.22754,-1.65894 -1.02661,-1.89971 -0.74612,-0.24341 -1.45785,0.27517 -1.87325,0.84932 -1.01864,1.29116 -1.11389,2.99243 -1.38112,4.55083 -0.43921,2.74108 -0.8599,5.48746 -1.29379,8.22854 -0.88109,0.10319 -1.76477,0.20108 -2.64057,0.29633 -0.082,-10.62302 -0.74345,-21.23281 -1.10593,-31.84789 -0.0423,-1.48696 -0.14552,-3.26496 -1.51077,-4.17777 -0.80171,-0.62177 -2.05846,-0.26723 -2.51886,0.6006 -0.5556,1.016 -0.55033,2.21192 -0.6641,3.33375 -0.5265,6.07748 -1.24619,12.14967 -1.34938,18.25625 -0.11906,4.93448 0.0741,9.87954 -0.31221,14.80608 -1.76477,0.1905 -3.51893,0.46832 -5.25727,0.81492 -0.73289,-3.58246 -1.43933,-7.19667 -1.48164,-10.86644 -0.008,-1.26206 -0.43127,-2.55852 -1.34411,-3.45545 -0.61116,-0.61384 -1.62189,-0.61119 -2.32833,-0.16934 -1.61396,0.93663 -2.61144,2.80723 -2.50825,4.67254 0.18256,3.6248 1.13771,7.14375 1.88648,10.68123 -5.24404,0.72496 -10.37696,2.09286 -15.60248,2.92894 1.20385,-1.2409 2.86017,-1.778 4.43177,-2.37331 -1.68008,-0.32544 -3.39987,-0.17198 -5.01383,0.37041 0.58473,-1.08214 1.35729,-2.03993 2.20131,-2.92893 -1.82031,0.42862 -3.39458,1.56368 -4.33385,3.18558 -0.42071,-0.73819 -0.81759,-1.51606 -1.46846,-2.07698 -0.56886,-0.50271 -1.31231,-0.71173 -2.00552,-0.96044 0.75933,0.98425 1.47902,2.00819 1.99758,3.1459 -1.40229,-0.52388 -2.84956,-0.9181 -4.34181,-1.03981 1.29381,0.75935 2.67758,1.46843 3.56925,2.72785 -3.03215,-0.91281 -5.969,-2.11667 -8.96411,-3.14325 -6.48491,-2.21192 -12.76879,-4.94771 -19.16377,-7.3951 0.34396,-1.35467 0.8599,-2.74109 0.64561,-4.15661 -0.13761,-1.00277 -0.92075,-1.71185 -1.54519,-2.43681 1.0451,-0.94192 2.38125,-1.86796 2.54267,-3.39196 0.28043,-1.09008 -0.84934,-2.24102 -0.0609,-3.21998 1.02659,-1.5875 1.59544,-3.48985 1.44463,-5.38691 -0.37306,0.13493 -0.76729,0.21696 -1.09273,0.43921 -0.7911,1.61395 -0.80169,3.48985 -1.52665,5.12762 -0.70643,0.61119 -1.83356,0.80433 -2.18545,1.78065 -0.5424,1.37054 -0.23548,2.88395 -0.15611,4.3127 -0.42333,0.2249 -0.84137,0.45244 -1.25941,0.68263 -0.39159,-1.26735 -0.4789,-2.78871 -1.59544,-3.66977 -0.74348,-0.64029 -1.97644,-0.96044 -2.80194,-0.31221 -0.8599,0.75671 -0.51065,2.16694 0.30956,2.81252 0.91811,0.71438 2.05846,1.04511 3.11679,1.4949 -0.10583,0.23018 -0.21166,0.46302 -0.3122,0.69585 -0.8599,-0.59531 -1.88384,-1.38906 -2.9845,-0.90752 -0.75142,0.20373 -1.09273,1.21973 -0.51065,1.78329 0.76994,0.74877 1.92352,0.32279 2.86544,0.25665 -0.0661,0.64823 -0.12965,1.2991 -0.18786,1.95527 -6.14891,-1.51606 -12.31106,-2.97656 -18.4732,-4.43442 -2.21192,-0.47625 -4.3868,-1.14035 -6.61988,-1.50812 -3.69358,-0.28311 -7.39775,-0.40217 -11.09663,-0.60854 0.17198,-1.62719 0.30427,-3.25967 0.51594,-4.88157 0.60854,-0.16668 1.42081,-0.10583 1.78065,-0.73818 0.5715,-0.85725 0.79639,-1.88119 1.07421,-2.8575 0.49212,-1.98967 0.98954,-4.0058 1.09272,-6.05896 0.15082,-1.06098 -1.68539,-1.21444 -1.83091,-0.2249 -0.23813,0.97631 -0.24342,1.99231 -0.32544,2.99244 -0.21167,-0.84931 -0.32015,-1.79917 -0.99219,-2.42888 -0.57414,0.15346 -0.63764,0.76994 -0.73289,1.25942 -0.21167,1.44992 -0.24607,2.93423 -0.66675,4.3471 -0.20638,-1.5875 -0.16934,-3.19087 -0.30692,-4.78366 -0.18256,-2.41036 -0.45508,-4.81806 -0.38894,-7.239 0.0503,-2.51354 0.37307,-5.0165 0.29634,-7.53269 4.33123,-1.86796 8.55662,-3.97404 12.86139,-5.90021 -0.037,-0.40481 -0.045,-0.81491 -0.14552,-1.2065 -0.29633,-0.37571 -0.74612,-0.58473 -1.12977,-0.84666 0.11906,-0.39159 0.24342,-0.78053 0.37042,-1.16946 0.30956,0.0556 0.62177,0.11377 0.93662,0.17462 -0.47095,-0.54239 -0.94191,-1.08479 -1.39964,-1.63248 0.38364,-0.10583 0.762,-0.37571 1.18004,-0.28839 0.12965,0.25929 0.254,0.52123 0.37571,0.79375 0.15081,-0.26194 0.30691,-0.51859 0.46302,-0.77259 0.18521,0.61119 0.37306,1.22502 0.56092,1.83886 0.0503,-0.254 0.15081,-0.75936 0.20108,-1.01071 0.0873,0.008 0.26194,0.0265 0.34925,0.037 0.0238,0.67733 0.15346,1.34408 0.37835,1.98438 -0.38629,0.2831 -0.76464,0.57414 -1.143,0.86518 0.51594,-0.005 1.03717,-0.0132 1.55311,-0.0899 3.10356,-0.62971 6.26004,-0.92075 9.398,-1.3388 2.43416,-0.14552 4.33916,-1.83885 6.44525,-2.87073 1.85473,-1.24883 4.1566,-1.19062 6.26798,-1.62718 3.39195,-0.74877 6.86858,-0.15611 10.29758,-0.10848 2.35479,0.005 4.70429,0.31485 7.05908,0.1905 -0.50006,-0.32279 -1.05304,-0.54504 -1.61396,-0.71702 -0.0132,-0.88371 0.127,-1.75948 0.34132,-2.61144 0.15346,0.0688 0.45773,0.20902 0.61118,0.27781 0.037,0.69321 0.12436,1.38906 0.33867,2.05317 0.17463,-1.16152 0.14288,-2.33892 0.0952,-3.50838 -0.44186,-0.14287 -0.87577,-0.2831 -1.30969,-0.42333 0.0688,-0.73819 0.0529,-1.57956 0.77258,-2.01083 0.0106,0.508 -0.0397,1.02923 0.0397,1.53723 0.24342,0.20373 0.51594,0.37835 0.78317,0.56091 0.0397,-1.06362 0.045,-2.12989 0.0609,-3.19087 0.32808,-0.0159 0.66145,-0.0265 0.99483,-0.0344 0.13758,1.06098 0.25929,2.12461 0.32808,3.19352 0.0635,0.78846 0.0609,1.64307 0.57415,2.29923 0.15081,-0.61648 0.26458,-1.24089 0.46302,-1.8415 1.00806,-0.14816 0.95779,1.17475 0.6641,1.78859 -0.36777,0.23547 -0.77787,0.39158 -1.16681,0.57679 -0.0317,0.73289 -0.0529,1.46579 -0.0714,2.20133 3.7121,0.23283 7.43479,0.20373 11.14954,0.35983 3.25702,-0.0714 6.35264,1.0848 9.49854,1.77007 -0.26988,-0.26988 -0.53446,-0.5424 -0.7964,-0.80963 0.55827,0.15081 1.11655,0.30692 1.67746,0.46567 -0.22489,-0.50536 -0.44714,-1.016 -0.64823,-1.52929 0.55034,0.39687 1.03982,0.87048 1.46579,1.40229 0.51859,-0.59531 1.14036,-1.08479 1.83886,-1.45786 -0.254,0.45244 -0.51594,0.89694 -0.78317,1.3388 0.69056,-0.0582 1.38906,-0.0714 2.08492,-0.037 -0.70908,0.38365 -1.39436,0.80698 -2.04523,1.28059 2.39448,1.24089 4.81806,2.42358 7.2099,3.66977 2.25689,1.21973 4.79954,1.72244 7.20989,2.54529 2.07963,0.71967 4.29683,1.1139 6.21771,2.23837 2.36537,1.36261 4.76515,2.66436 7.13052,4.02432 0.69056,0.40746 1.48167,0.57943 2.27806,0.64029 2.921,0.25135 5.83936,0.54504 8.76036,0.83344 2.46062,0.23812 4.92389,-0.12171 7.38981,-0.127 -0.635,-0.20902 -1.30969,-0.35719 -1.85738,-0.75142 -0.41275,-1.50813 -0.17462,-3.10356 -0.11906,-4.64079 0.48154,0.0132 0.97102,0.0344 1.46315,0.0529 0.0132,1.51342 0.005,3.02684 -0.0106,4.53761 0.22225,0.0979 0.4498,0.19314 0.68263,0.29104 0.0662,-3.27554 -0.0608,-6.55373 0.0794,-9.82662 0.52652,0.10583 1.51606,-0.2249 1.55046,0.59002 0.14287,2.62995 -0.0265,5.27314 0.0582,7.90575 0.3466,-0.17727 0.69585,-0.3519 1.05039,-0.52388 0.008,-1.43933 0.0106,-2.87602 -0.0106,-4.31006 0.35983,-0.005 0.72496,-0.008 1.09537,-0.008 -0.0661,1.50813 0.1323,3.03213 -0.10583,4.52967 -0.56092,0.49477 -1.35202,0.55562 -2.03729,0.76464 -0.003,0.43127 -0.003,0.86519 0.005,1.30175 3.70152,-0.19579 7.40833,-0.34395 11.11514,-0.50006 1.68011,-0.10848 3.45017,0.0397 5.0165,-0.70644 1.22502,-0.55298 2.48444,-1.02658 3.70946,-1.58485 1.83886,-0.86783 3.04536,-2.64583 4.8604,-3.54806 2.72256,-1.00542 5.51656,-1.84679 8.39258,-2.28865 0.85725,-0.15875 1.74096,-0.37571 2.43681,-0.94192 1.78594,-1.38906 3.58246,-2.77018 5.38163,-4.14337 1.30704,-1.09538 2.81516,-1.96056 4.0005,-3.19352 -0.28046,-1.15094 -1.25413,-1.97115 -1.78065,-3.00567 0.31221,-0.15346 0.65617,-0.23812 0.99219,-0.35983 0.21167,-0.1905 0.42333,-0.381 0.64823,-0.56886 0.20902,0.18786 0.42862,0.37836 0.65087,0.5715 -0.127,0.52123 -0.22225,1.05305 -0.21166,1.59544 0.4736,-0.6641 0.69056,-1.45521 1.02923,-2.1881 0.21695,-0.32279 0.49212,-0.35984 0.8255,-0.10584 -0.1323,0.9869 -0.7673,1.87061 -0.53182,2.91571 2.51884,-1.82033 4.8948,-3.8391 7.46655,-5.59064 1.52664,-1.04511 3.04535,-2.10079 4.572,-3.14854 1.68804,-1.19857 3.5216,-2.23044 4.99004,-3.71211 1.82033,-1.79387 3.70152,-3.52425 5.51127,-5.33135 0.48154,-0.49213 1.05304,-0.96044 1.78064,-0.99484 6.24152,-0.79904 12.47246,-1.6801 18.71134,-2.48972 -0.11642,-1.09538 -0.0609,-2.24896 -0.52388,-3.27025 -0.97631,-1.83621 -1.143,-4.02696 -2.51089,-5.66738 0.1852,-0.0106 0.55562,-0.0344 0.74083,-0.045 -0.0608,-0.45244 -0.11906,-0.90487 -0.16933,-1.35467 m 3.64066,7.53534 c -0.37041,0.85989 -0.51593,1.78594 -0.52652,2.71727 1.60867,-0.26723 3.2385,-0.40217 4.87363,-0.40217 -0.61119,-0.68791 -1.08479,-1.48696 -1.32027,-2.3786 -1.01071,0.0344 -2.01877,0.0714 -3.02684,0.0635 z"
             style="fill:#803300;stroke:#ad3059;stroke-width:0.13229166" />
          <path
             id="path2316-0"
             d="m -584.71752,441.39918 c 0.008,-0.40746 0.41805,-0.56092 0.67733,-0.79375 -0.15875,1.88118 -0.15081,3.7756 0.127,5.64621 0.29105,-0.97367 0.5133,-1.9685 0.69057,-2.96863 0.19843,-0.0238 0.59531,-0.0767 0.7964,-0.10054 -0.10054,1.60602 -0.61648,3.13531 -1.00806,4.68312 1.30703,-0.39423 2.10608,-1.57956 2.46591,-2.83633 0.26459,-0.62442 0.254,-1.43669 0.83873,-1.86796 0.41275,1.21709 -0.10848,2.52677 -0.65352,3.61686 -0.51329,1.05833 -1.66953,1.46579 -2.7014,1.8362 -0.0212,0.19315 -0.0609,0.58473 -0.082,0.77788 4.34446,-0.14023 8.67569,-0.52388 13.0175,-0.69056 3.6433,0.11112 7.27075,0.65352 10.82146,1.46843 1.91029,0.74348 3.00831,2.80459 5.00856,3.39725 1.34673,0.3863 2.71726,0.69321 4.0587,1.11125 -0.37306,6.84742 -0.0529,13.70278 -0.15081,20.55284 -1.06363,-0.89694 -1.38641,-2.28071 -2.08227,-3.42371 -0.37572,-0.67998 -1.71979,-0.58738 -1.79123,0.26194 0.0556,1.20914 0.57944,2.34156 1.08744,3.42106 0.43126,0.95515 1.40493,1.42875 2.20926,2.01612 0.45774,0.23813 0.40218,0.81757 0.55564,1.2409 -1.11125,-0.24871 -2.33098,-0.45244 -3.16972,-1.29646 -0.87576,-0.85989 -1.05568,-2.22514 -2.01876,-3.00302 -0.43656,-0.0767 -0.94986,0.0661 -1.11655,0.51858 -0.45772,1.09538 0.23019,2.31246 1.12449,2.95805 1.27793,1.00541 2.94481,1.14035 4.45821,1.55839 0.53447,0.037 0.61649,0.61384 0.82022,1.00013 -2.82311,0.30427 -5.65414,0.55033 -8.47989,0.82814 -1.27265,0.10584 -2.413,0.70909 -3.57189,1.19063 -3.85497,1.60602 -7.72317,3.17764 -11.57286,4.7916 -2.27542,1.00806 -4.77839,1.24883 -7.17286,1.8415 -2.87603,0.54769 -5.70178,1.4314 -8.6413,1.60338 -3.69623,0.28575 -7.38715,0.64029 -11.08604,0.91281 -2.98978,0.21961 -5.99016,0.27252 -8.9773,0.53711 0.037,-0.91547 0.13228,-1.87326 -0.1905,-2.74903 -0.3175,-0.70644 -1.31235,-1.35996 -2.01348,-0.77258 -1.08216,0.90487 -1.15094,2.45269 -1.38906,3.74386 -0.5821,-0.003 -1.16418,0 -1.74362,0.005 0.23813,-1.66687 0.82287,-3.32845 0.52652,-5.02972 -0.0688,-0.82021 -0.74083,-1.56105 -1.57161,-1.63778 -1.36261,0.48684 -1.62985,2.04523 -2.07435,3.2385 -0.16668,-2.02406 -0.037,-4.05077 -0.0238,-6.07483 0.17992,-7.20196 0.26988,-14.40656 0.43656,-21.60852 1.37319,-0.32544 2.78342,-0.66675 3.93171,-1.52929 1.59015,-1.18798 3.55865,-1.59808 5.3684,-2.3151 1.64042,-0.63765 3.04535,-1.72244 4.57729,-2.56646 1.88383,-1.03982 4.14867,-0.94457 6.07219,-1.8759 1.40229,-0.76464 2.66435,-1.76212 4.04548,-2.56381 0.83873,-0.50536 1.84679,-0.50536 2.794,-0.56356 2.12725,-0.082 4.25185,-0.22755 6.37646,-0.36777 -0.0873,-0.3863 -0.17463,-0.76994 -0.26459,-1.15094 -0.51858,-0.21431 -1.08214,-0.36248 -1.53458,-0.70379 -0.69321,-0.74084 -0.81756,-1.80182 -0.84138,-2.77019 1.06363,0.82021 1.09009,2.56117 2.55059,2.90248 0.23018,-2.12725 0.0556,-4.29154 0.48683,-6.40027 z"
             style="fill:#803300;stroke:#aa2d57;stroke-width:0.13229166" />
          <path
             id="path2320-6"
             d="m -449.67947,453.46682 c 2.85221,-0.68527 5.66473,-1.53987 8.50635,-2.27277 -0.33072,3.683 -0.54239,7.37923 -0.81491,11.07017 -0.25136,2.90777 0.31221,5.86581 -0.33602,8.73654 -0.71173,-0.79375 -0.65617,-1.91823 -0.73819,-2.90777 -0.11113,-1.50019 0.0767,-2.99773 0.0106,-4.49527 0.0317,-0.52917 -0.40746,-0.87313 -0.68527,-1.25413 -0.29898,0.32809 -0.58737,0.66411 -0.87841,0.99748 0.09,-1.13771 0.30427,-2.3151 -0.008,-3.43164 -0.15611,-0.91017 -1.62984,-0.63236 -1.60073,0.23548 -0.27781,1.9341 0.0529,3.89202 0.008,5.8367 0.0794,1.75419 -0.18257,3.70153 0.86783,5.23611 0.83873,1.24354 1.2991,2.68817 2.14048,3.92906 0.42598,1.11125 0.15346,2.35215 0.19844,3.51896 -4.9874,0.74612 -9.97215,1.50283 -14.9569,2.27277 -3.62479,0.69585 -7.3369,0.30427 -10.99873,0.55298 -0.90223,0.11112 -1.62719,0.71437 -2.38389,1.16417 -2.24103,1.52135 -4.92655,2.66435 -7.6835,2.40506 -2.44211,-0.16669 -4.8895,-0.24077 -7.32896,-0.42333 1.60073,-2.45269 2.39977,-5.41603 2.33627,-8.33438 -0.0317,-1.19592 -0.75936,-2.74108 -2.15636,-2.64848 -1.016,-0.0503 -1.59279,0.98161 -1.65893,1.87061 -0.33073,2.39183 -0.28046,4.9477 -1.5293,7.10406 -0.5371,1.03452 -1.47902,1.75419 -2.44739,2.36008 -0.24871,-6.9506 -0.17463,-13.91179 -0.34925,-20.86504 -0.0953,-2.13783 0.11906,-4.33388 -0.53181,-6.40556 1.9976,0.005 4.00579,-0.12965 5.99281,0.12435 1.34937,0.16404 2.68023,0.50271 4.04548,0.5424 1.05039,-0.0238 2.08756,-0.23284 3.12737,-0.37307 6.36588,-0.90487 12.73969,-1.76477 19.10557,-2.68552 -0.48419,-0.45243 -0.96838,-0.90487 -1.45257,-1.35466 0.54769,0.11112 1.10067,0.22754 1.651,0.34396 -0.26723,-0.49213 -0.52652,-0.98425 -0.76993,-1.48432 0.56885,0.36248 1.06891,0.81492 1.50018,1.33879 0.53446,-0.50006 1.10861,-0.95514 1.72244,-1.35202 -0.20108,0.4445 -0.41804,0.88371 -0.62442,1.32557 0.66675,-0.0529 1.33615,-0.10055 2.00819,-0.14288 -0.44714,0.28575 -0.89429,0.57415 -1.33879,0.86254 2.69081,-0.42068 5.37104,-0.90223 8.05127,-1.397 z"
             style="fill:#803300;stroke:#ab2e58;stroke-width:0.13229166" />
          <path
             id="path2326-8"
             d="m -548.08331,454.68391 c 1.66687,-0.0159 3.47928,-0.67998 5.03503,0.19314 1.54781,0.72231 3.00302,1.76213 4.74927,1.94204 2.79135,0.3519 5.58535,0.70644 8.3767,1.09009 2.5744,0.39423 5.18319,0.19314 7.77347,0.27781 2.48972,-0.0265 5.00062,0.23548 7.47447,-0.1561 -0.42333,-0.86255 -1.04245,-1.60073 -1.78064,-2.20398 0.55033,0.1217 1.10331,0.24341 1.65894,0.36512 -0.26988,-0.50006 -0.53446,-1.00277 -0.77788,-1.51342 0.56092,0.3863 1.06892,0.84403 1.524,1.35467 0.53975,-0.51329 1.12977,-0.96837 1.76742,-1.35996 -0.21431,0.4445 -0.43656,0.88636 -0.65617,1.33086 0.67204,-0.045 1.34408,-0.0847 2.02142,-0.11907 -0.9234,0.508 -1.85473,1.07421 -2.41036,2.00555 2.70669,-0.19844 5.39221,-0.64294 8.10155,-0.78317 2.92364,0.0476 5.8367,0.30162 8.7577,0.44979 -0.88635,1.80181 -0.73818,3.84969 -0.84667,5.79702 -0.29897,6.2865 -0.53181,12.57565 -0.73025,18.86744 -1.143,-0.48683 -2.28335,-0.97631 -3.429,-1.45521 -0.50006,-1.97114 -0.86253,-4.11956 -2.23837,-5.70442 -0.64823,-0.84666 -2.06904,-0.7911 -2.64848,0.0979 -0.63765,0.9869 -0.41275,2.23573 -0.36777,3.34698 -0.7911,-0.33867 -1.57427,-0.79904 -2.45798,-0.79904 -12.52009,0.58473 -25.04016,1.30704 -37.53379,2.35214 -0.005,-0.8202 -0.0106,-1.63777 -0.0159,-2.45268 1.21443,-0.36777 2.75961,-0.60061 3.3655,-1.87855 0.51859,-1.24618 0.65087,-2.61143 0.93399,-3.92112 0.25929,-1.75419 0.85988,-3.50308 0.64823,-5.28902 -0.22755,-0.87577 -1.63779,-0.59267 -1.68541,0.26723 -0.51064,2.51089 -0.71438,5.09852 -1.58484,7.52739 0.11377,-4.55612 0.74083,-9.09108 0.92339,-13.64191 0.14551,-1.32821 -2.12461,-1.50813 -2.29394,-0.25136 -0.33074,2.80459 -0.32014,5.63563 -0.53445,8.45079 -0.13494,1.4949 0.1852,3.07711 -0.43657,4.49792 -0.3175,-2.37331 -0.52123,-4.75985 -0.71966,-7.14375 -0.32544,-3.8391 -0.12965,-7.69673 0.037,-11.54112 z"
             style="fill:#803300;stroke:#aa2e57;stroke-width:0.13229166" />
          <path
             id="path2328-9"
             d="m -679.32193,454.55161 c 0.39159,0.003 0.94457,0.10319 0.99484,0.58473 0.20902,1.66688 -0.11642,3.35492 0.10054,5.02709 0.48948,-0.6694 0.56621,-1.49754 0.64558,-2.29394 0.27782,0.0106 0.55563,0.0265 0.83344,0.045 -0.0159,0.5715 -0.003,1.15094 -0.11377,1.71714 -0.0344,0.7329 -0.90752,0.80698 -1.41288,1.11919 0.0159,0.37571 0.0291,0.75936 0.045,1.143 1.84944,0.18256 3.69094,0.41275 5.53509,0.63236 4.72281,0.47095 9.34773,1.59014 14.01761,2.41829 3.45812,0.91016 6.81568,2.17487 10.22879,3.2385 0.79905,0.25664 1.64836,0.12171 2.45534,-0.0291 2.72521,-0.53445 5.46894,-0.96308 8.19414,-1.48166 1.79124,-0.35454 3.62216,-0.17727 5.43191,-0.15082 -0.3175,-0.28045 -0.635,-0.55827 -0.9525,-0.83608 0.56884,0.11377 1.13505,0.23019 1.70391,0.34925 -0.21432,-0.48948 -0.43391,-0.97896 -0.63765,-1.46844 0.50535,0.4154 0.99483,0.85196 1.47374,1.3044 0.51328,-0.44979 1.05303,-0.86519 1.61395,-1.25148 -0.19315,0.44185 -0.38894,0.89165 -0.58737,1.3335 1.18797,-0.21696 2.38653,-0.42862 3.52689,-0.84667 1.48961,-0.508 2.72786,-1.51077 4.12222,-2.21191 -0.97104,9.99596 -0.9631,20.05012 -1.23561,30.08048 -0.23549,-0.0159 -0.70644,-0.0476 -0.94193,-0.0635 -0.57413,-4.01109 -0.93662,-8.07773 -0.66938,-12.1285 0.16668,-2.90513 0.16668,-5.8129 0.21695,-8.72067 -0.003,-1.33085 -0.11907,-2.77813 -0.96838,-3.86821 -0.37834,-0.55827 -1.26206,-0.53975 -1.63776,0.008 -0.60325,0.7964 -0.74613,1.83093 -0.78847,2.80195 -0.0476,7.3316 0.045,14.66585 0.0741,21.99745 -6.88711,-0.57943 -13.79802,-0.85195 -20.67983,-1.46579 1.51606,-0.635 3.15647,-0.80962 4.77308,-1.01071 -2.51354,-1.12448 -5.38692,-1.16152 -7.98777,-0.32015 1.48695,-1.75947 3.64066,-2.70139 5.82877,-3.25172 -1.99232,-0.60854 -4.10104,-0.33338 -6.02192,0.38364 0.635,-1.31497 1.58222,-2.42622 2.5744,-3.48192 -2.1643,0.4498 -4.04548,1.8468 -5.09059,3.79942 -0.50535,-0.96043 -1.01864,-1.9632 -1.89177,-2.64055 -0.65616,-0.53444 -1.48431,-0.76728 -2.27276,-1.02392 0.92868,1.14829 1.81239,2.34685 2.35478,3.73327 -1.62189,-0.61913 -3.302,-1.15094 -5.05883,-1.16947 1.09273,0.65881 2.27542,1.20122 3.21998,2.07699 0.65882,0.6006 1.10596,1.37848 1.54252,2.14312 -2.37595,-0.66939 -4.81806,-1.12448 -7.28926,-1.17211 1.00542,0.41275 2.03199,0.77788 3.04799,1.16947 -12.10203,-0.64294 -24.20407,-1.31763 -36.30347,-2.0029 v -27.18858 c 1.56898,-0.44979 3.16442,-0.7964 4.74133,-1.22238 1.75684,-0.4736 3.54542,0.11642 5.30225,0.30163 2.59027,0.30691 5.16202,0.82021 7.77082,0.97896 -0.39423,-0.48948 -0.87313,-0.89694 -1.29117,-1.35732 0.0106,-0.29898 0.14552,-0.57679 0.22489,-0.8546 0.28046,0.33602 0.56092,0.67998 0.83609,1.02394 0.0503,-1.41552 0.0741,-2.83104 0.0873,-4.24657 0.0397,-0.55827 -0.0159,-1.16945 0.31485,-1.651 z"
             style="fill:#803300;stroke:#aa2d56;stroke-width:0.13229166" />
        </g>
        <path
           style="fill:#803300;fill-opacity:1;fill-rule:evenodd;stroke:none;stroke-width:0.26458332px;stroke-linecap:butt;stroke-linejoin:miter;stroke-opacity:1"
           d="m 107.96852,306.75493 c 0,0 1.23613,0.35079 1.63703,0.58465 0.40091,0.23386 1.32903,0.44716 1.32903,0.44716 v 3.71142 l -3.14687,-0.57284 z"
           id="path3196" />
      </g>
      <path
         id="path3207"
         d="m 74.702267,293.5082 0.489987,-0.20384 0.78745,1.54872 -2.296847,0.21716 z"
         style="fill:#803300;fill-rule:evenodd;stroke:none;stroke-width:0.26458332px;stroke-linecap:butt;stroke-linejoin:miter;stroke-opacity:1" />
      <path
         id="path3209"
         d="m 83.858463,292.45531 0.330275,6.9e-4 1.236711,0.89475 -0.430009,0.62201 -2.629236,-0.87005 0.47247,-0.41342"
         style="fill:#803300;fill-rule:evenodd;stroke:none;stroke-width:0.26458332px;stroke-linecap:butt;stroke-linejoin:miter;stroke-opacity:1" />
      <path
         id="path3211"
         d="m 90.803772,292.82424 0.483212,0.0207 0.540436,0.54125 -1.405599,0.0945 9.79e-4,-0.4751 z"
         style="fill:#803300;fill-rule:evenodd;stroke:none;stroke-width:0.26458332px;stroke-linecap:butt;stroke-linejoin:miter;stroke-opacity:1" />
      <path
         id="path3213"
         d="m 97.890485,292.00872 0.208121,-0.0536 2.020664,1.52552 -0.862255,2.35054 -4.358542,-0.5137 1.618213,-2.66366"
         style="fill:#803300;fill-rule:evenodd;stroke:none;stroke-width:0.26458332px;stroke-linecap:butt;stroke-linejoin:miter;stroke-opacity:1" />
      <path
         id="path3215"
         d="m 111.14235,292.99055 0.0752,-0.593 0.96885,0.28397 -0.2863,0.74022"
         style="fill:#803300;fill-rule:evenodd;stroke:none;stroke-width:0.26458332px;stroke-linecap:butt;stroke-linejoin:miter;stroke-opacity:1" />
    </g>
    <g
       id="g3118"
       transform="matrix(0.93138056,0,0,0.93138056,37.267082,-271.63875)"
       style="fill:#786721;stroke:none">
      <g
         transform="matrix(0.23527016,0,0,0.20931922,111.42008,226.84775)"
         id="g3053"
         style="fill:#786721;stroke:none">
        <g
           id="g3023"
           transform="matrix(0.45023316,0,0,0.45023316,173.18761,234.55125)"
           style="fill:#786721;stroke:none">
          <path
             id="path2318"
             d="m -549.05973,367.70824 c 0.52652,-0.57679 0.70114,0.49477 0.97896,0.80698 0.0767,2.51619 -0.24607,5.01915 -0.29634,7.53269 -0.0661,2.42094 0.20638,4.82864 0.38894,7.239 0.13758,1.59279 0.10054,3.19616 0.30692,4.78366 0.42068,-1.41287 0.45508,-2.89718 0.66675,-4.3471 0.0952,-0.48948 0.15875,-1.10596 0.73289,-1.25942 0.67204,0.62971 0.78052,1.57957 0.99219,2.42888 0.082,-1.00013 0.0873,-2.01613 0.32544,-2.99244 0.14552,-0.98954 1.98173,-0.83608 1.83091,0.2249 -0.10318,2.05316 -0.6006,4.06929 -1.09272,6.05896 -0.27782,0.97631 -0.50271,2.00025 -1.07421,2.8575 -0.35984,0.63235 -1.17211,0.5715 -1.78065,0.73818 -0.21167,1.6219 -0.34396,3.25438 -0.51594,4.88157 3.69888,0.20637 7.40304,0.32543 11.09663,0.60854 2.23308,0.36777 4.40796,1.03187 6.61987,1.50812 6.16215,1.45786 12.32429,2.91836 18.47321,4.43442 0.0582,-0.65617 0.12171,-1.30704 0.18786,-1.95527 -0.94192,0.0661 -2.0955,0.49212 -2.86544,-0.25665 -0.58209,-0.56356 -0.24077,-1.57956 0.51064,-1.78329 1.10067,-0.48154 2.12461,0.31221 2.9845,0.90752 0.10055,-0.23283 0.20638,-0.46567 0.31221,-0.69585 -1.05833,-0.44979 -2.19869,-0.78052 -3.11679,-1.4949 -0.82021,-0.64558 -1.16946,-2.05581 -0.30956,-2.81252 0.8255,-0.64823 2.05846,-0.32808 2.80194,0.31221 1.11654,0.88106 1.20385,2.40242 1.59543,3.66977 0.41804,-0.23019 0.83609,-0.45773 1.25942,-0.68263 -0.0794,-1.42875 -0.38629,-2.94216 0.1561,-4.3127 0.3519,-0.97632 1.47902,-1.16946 2.18546,-1.78065 0.72496,-1.63777 0.73554,-3.51367 1.52665,-5.12762 0.32544,-0.22225 0.71966,-0.30428 1.09273,-0.43921 0.15081,1.89706 -0.41804,3.79941 -1.44463,5.38691 -0.78846,0.97896 0.34131,2.1299 0.0609,3.21998 -0.1614,1.524 -1.49755,2.45004 -2.54265,3.39196 0.62442,0.72496 1.40758,1.43404 1.54517,2.43681 0.21431,1.41552 -0.30163,2.80194 -0.64559,4.15661 6.39498,2.44739 12.67884,5.18318 19.16377,7.3951 2.99509,1.02658 5.93196,2.23044 8.96409,3.14325 -0.89165,-1.25942 -2.27542,-1.9685 -3.56923,-2.72785 1.49225,0.12171 2.93952,0.51593 4.34181,1.03981 -0.51858,-1.13771 -1.23825,-2.16165 -1.9976,-3.1459 0.69321,0.24871 1.43668,0.45773 2.00554,0.96044 0.65087,0.56092 1.04775,1.33879 1.46844,2.07698 0.93927,-1.6219 2.51354,-2.75696 4.33387,-3.18558 -0.84402,0.889 -1.6166,1.84679 -2.20133,2.92893 1.61396,-0.54239 3.33375,-0.69585 5.01385,-0.37041 -1.57162,0.59531 -3.22792,1.13241 -4.43177,2.37331 5.22552,-0.83608 10.35844,-2.20398 15.60248,-2.92894 0.63765,2.89454 1.29381,5.79438 2.1881,8.62277 0.7329,2.33363 2.49502,4.3868 4.826,5.21759 0.95515,0.43921 2.286,0.36512 2.9263,1.30175 0.35983,1.83885 0.13758,3.7465 0.20637,5.61446 -1.52665,0.10054 -3.18029,-0.21961 -4.57729,0.55562 -4.27567,2.1934 -8.61219,4.26508 -12.89315,6.4426 -0.84137,0.44186 -1.76477,0.68792 -2.70139,0.80698 -3.03213,0.43127 -6.04309,0.98161 -9.06992,1.41817 0.64294,-0.9181 1.33615,-1.82562 2.2516,-2.49237 1.12448,-0.87313 2.50825,-1.2753 3.81,-1.79917 -1.87325,-0.51858 -3.83116,-0.27781 -5.6171,0.43127 0.58208,-1.32556 1.47108,-2.47121 2.40506,-3.56658 -0.98689,0.32808 -1.9976,0.68527 -2.79929,1.37054 -0.84137,0.66675 -1.40494,1.59014 -1.94998,2.49502 -0.51593,-0.99748 -1.02393,-2.05846 -1.91558,-2.77813 -0.57415,-0.47889 -1.31498,-0.66675 -2.00025,-0.90487 0.91281,1.17475 1.72773,2.43417 2.24102,3.84175 -1.56369,-0.71967 -3.23056,-1.21444 -4.953,-1.3044 1.32821,0.79375 2.77019,1.52136 3.7174,2.79665 0.60325,0.73025 0.86254,1.65894 1.09008,2.56117 -0.84931,0.10847 -1.73038,0.24077 -2.56117,-0.0317 -3.59833,-1.09803 -7.23106,-2.08492 -10.84262,-3.14325 -1.9394,-0.49742 -3.82323,-1.29646 -5.83936,-1.42082 -1.524,-0.12435 -3.048,-0.20108 -4.5667,-0.34396 0.71966,-1.88647 1.36525,-3.86556 1.21443,-5.91343 -0.0794,-2.34421 -1.16681,-4.46882 -1.96056,-6.62517 1.10596,-0.7964 1.8071,-1.96056 2.55852,-3.06387 0.39688,-0.67734 1.25148,-0.39423 1.86796,-0.25665 1.69598,0.46037 3.61156,1.10067 5.30225,0.29633 2.02406,-1.10066 1.91029,-4.48204 -0.1905,-5.43454 -1.45785,-0.69056 -2.794,0.59796 -4.04283,1.18004 -0.32015,-1.67481 0.10848,-3.64066 -1.10332,-5.02443 -1.47902,-1.60338 -4.20952,-1.3335 -5.74939,0.0397 -1.00806,0.87313 -1.46579,2.21721 -1.52929,3.51896 -0.14552,2.20927 -0.0132,4.42648 0.0291,6.64104 -1.13242,-0.18521 -2.31775,-0.39952 -3.44223,-0.0714 -1.09273,0.2831 -2.02935,0.93133 -2.95804,1.54516 -0.56885,-1.33879 -1.11125,-2.75166 -2.18281,-3.77825 -0.39688,-0.46831 -0.98954,-0.83079 -1.17211,-1.43139 0.14288,-1.10861 0.75936,-2.08227 0.98954,-3.16971 0.30428,-1.19063 0.31221,-2.53206 -0.31485,-3.62215 -0.74877,-1.30704 -2.65642,-1.70391 -3.88408,-0.84666 -0.57944,0.40745 -0.84138,1.1377 -0.79375,1.82827 0.0476,1.40758 0.46566,2.76489 0.73289,4.14073 -1.11654,0.39952 -2.72521,0.58472 -3.05858,1.94997 -0.24871,2.07698 0.5715,4.31007 2.1934,5.65944 1.60072,1.27265 3.65654,1.70392 5.51656,2.46592 -0.42069,3.02683 -0.39688,6.15156 0.57944,9.07785 -5.3393,0.7329 -10.69182,1.37319 -16.02582,2.12461 -4.95829,0.84137 -9.90864,1.73566 -14.87223,2.54529 3.22263,-2.79665 7.6253,-3.61421 11.77132,-3.70152 -3.09563,-1.28588 -6.49552,-1.94998 -9.84779,-1.5584 -1.40759,0.12965 -2.75696,0.5715 -4.11163,0.95515 1.43669,-1.69069 3.23056,-3.06917 5.24404,-4.0005 1.50813,-0.74084 3.14854,-1.12184 4.75986,-1.56369 -2.18017,-0.55562 -4.47146,-0.7911 -6.69396,-0.35719 -1.23561,0.20902 -2.40506,0.66411 -3.57981,1.08479 0.91016,-2.35214 2.57175,-4.2836 4.42647,-5.94783 -2.56645,0.51065 -5.01914,1.74361 -6.7945,3.69094 -0.78316,0.84402 -1.36789,1.84679 -1.95527,2.83104 -0.78052,-1.83356 -1.83356,-3.63008 -3.49514,-4.79425 -1.05304,-0.80962 -2.33892,-1.20385 -3.62479,-1.44992 1.76212,1.8124 3.28083,3.89467 4.05077,6.32884 -2.77548,-1.21973 -5.75469,-2.05846 -8.80534,-2.06904 1.84415,0.90222 3.74386,1.77006 5.29696,3.14854 1.30704,1.06891 2.29129,2.48443 2.93159,4.04283 -3.98463,-1.30175 -8.16769,-1.91294 -12.35075,-2.01083 3.51102,1.43668 7.4295,2.30187 10.30816,4.92654 -1.7436,-0.0873 -3.47927,-0.23548 -5.22023,-0.32544 -1.50018,-0.082 -2.88131,-0.72496 -4.2836,-1.19592 -3.1459,-1.08214 -6.29179,-2.16164 -9.43769,-3.24114 -1.30969,-0.41804 -2.57969,-1.05304 -3.97404,-1.11919 -6.09335,-0.11112 -12.18935,-0.21696 -18.28535,-0.26723 0.19314,-2.19339 0.40216,-4.38679 0.5371,-6.58548 0.0767,-0.54768 0.0397,-1.18533 0.43392,-1.62189 0.94191,-0.42863 2.04523,-0.48419 2.89983,-1.11125 1.09537,-0.80434 1.79387,-2.01877 2.3495,-3.23321 1.14829,-2.52413 1.58485,-5.29431 1.82562,-8.0354 0.1614,-1.98966 0.34925,-4.00843 0.0582,-5.99281 -0.12171,-0.99748 -1.00012,-1.80181 -2.01877,-1.75419 -1.3335,-0.16668 -2.45269,0.95779 -2.66964,2.20398 -0.48419,2.65113 0.11906,5.41073 -0.62177,8.02746 -0.5133,1.80975 -1.31763,3.59569 -2.69611,4.91596 -0.0265,-5.43454 0.0159,-10.86908 -0.0106,-16.30363 1.8415,-1.06627 3.89731,-2.01083 5.02973,-3.91847 2.43946,0.18256 4.88685,0.25664 7.32896,0.42333 2.75695,0.25929 5.44247,-0.88371 7.6835,-2.40506 0.7567,-0.4498 1.48166,-1.05305 2.38389,-1.16417 3.66183,-0.24871 7.37394,0.14287 10.99873,-0.55298 4.98475,-0.76994 9.9695,-1.52665 14.9569,-2.27277 -0.045,-1.16681 0.22754,-2.40771 -0.19844,-3.51896 -0.84138,-1.24089 -1.30175,-2.68552 -2.14048,-3.92906 -1.0504,-1.53458 -0.78846,-3.48192 -0.86783,-5.23611 0.045,-1.94468 -0.28575,-3.9026 -0.008,-5.8367 -0.0291,-0.86784 1.44462,-1.14565 1.60073,-0.23548 0.31221,1.11654 0.0979,2.29393 0.008,3.43164 0.29104,-0.33337 0.57943,-0.66939 0.87841,-0.99748 0.27781,0.381 0.71702,0.72496 0.68527,1.25413 0.0661,1.49754 -0.12171,2.99508 -0.0106,4.49527 0.082,0.98954 0.0265,2.11402 0.73819,2.90777 0.64823,-2.87073 0.0847,-5.82877 0.33602,-8.73654 0.27252,-3.69094 0.48419,-7.38717 0.81491,-11.07017 0.17198,-0.42598 0.31486,-0.89164 0.64559,-1.22502 z"
             style="fill:#786721;stroke:none;stroke-width:0.13229166" />
          <path
             id="path2322"
             d="m -658.41996,369.9916 c 0.37042,-0.37307 1.20385,-0.50007 1.42346,0.0873 0.42069,0.70379 0.37041,1.5531 0.381,2.34421 -0.16669,3.84439 -0.36248,7.70202 -0.037,11.54112 0.19843,2.3839 0.40216,4.77044 0.71966,7.14375 0.62177,-1.42081 0.30163,-3.00302 0.43657,-4.49792 0.21431,-2.81516 0.20372,-5.6462 0.53445,-8.45079 0.16934,-1.25677 2.43946,-1.07685 2.29394,0.25136 -0.18256,4.55083 -0.80962,9.08579 -0.92339,13.64191 0.87047,-2.42887 1.0742,-5.0165 1.58485,-7.52739 0.0476,-0.8599 1.45785,-1.143 1.6854,-0.26723 0.21166,1.78594 -0.38894,3.53483 -0.64823,5.28902 -0.28311,1.30969 -0.4154,2.67494 -0.93398,3.92112 -0.6059,1.27794 -2.15107,1.51078 -3.3655,1.87855 0.005,0.81491 0.0106,1.63248 0.0159,2.45268 12.49363,-1.0451 25.01371,-1.76741 37.53379,-2.35214 0.88371,0 1.66688,0.46037 2.45798,0.79904 0.19315,2.13519 0.44715,4.26508 0.59002,6.40556 -0.84931,-0.93133 -1.53723,-2.02141 -2.52677,-2.81252 -0.69056,-0.55827 -1.79387,-0.34925 -2.25425,0.39952 -0.73289,1.05834 -0.51329,2.413 -0.36248,3.60627 0.60061,4.49527 1.57957,8.92704 2.48973,13.36675 0.64029,2.53471 0.89694,5.32606 2.59027,7.44009 1.02923,1.35202 2.55323,2.24366 4.18307,2.66964 0.83343,0.29104 2.05581,0.49213 2.16164,1.57692 0.22225,2.20662 0.0265,4.43971 0.15611,6.65691 -1.83886,-0.0476 -3.67507,-0.16668 -5.51127,-0.1905 -3.48721,-0.0317 -6.85271,-1.19062 -10.31875,-1.35995 -3.27819,0.48154 -6.4479,1.60602 -9.77371,1.81504 -1.97644,0.28839 -4.03225,0.23812 -5.95842,0.73554 -1.6854,1.96056 -2.90248,4.29683 -4.58258,6.26533 -0.62971,0.11113 -1.27265,-0.005 -1.90236,-0.0582 -1.73037,-0.21166 -3.47398,-0.29633 -5.20435,-0.508 0.94192,-1.40229 2.11667,-2.6617 3.556,-3.56129 1.35202,-0.92868 2.95539,-1.34143 4.47146,-1.91823 -2.53736,-0.76464 -5.26786,-0.47095 -7.66234,0.62177 0.71702,-1.86266 1.93146,-3.45281 3.302,-4.87891 -2.92364,0.5371 -5.24668,2.69346 -6.53785,5.29696 -0.86254,-2.413 -2.66435,-4.68842 -5.32871,-5.11705 1.3044,1.58221 2.45269,3.3073 3.06123,5.28373 -2.08492,-1.04775 -4.36298,-1.68804 -6.69925,-1.78593 1.47902,0.86783 3.06123,1.63248 4.25979,2.89718 0.90223,0.84667 1.50813,1.94469 1.99496,3.07182 -1.79123,0.0661 -3.5851,-0.0212 -5.37633,0.0582 -1.23032,0.037 -2.159,0.9525 -3.17765,1.52665 -1.33879,0.78052 -2.6035,1.69333 -3.97669,2.413 -1.43668,0.5371 -3.00302,0.5424 -4.50056,0.8255 -1.91823,0.23283 -3.82587,0.7964 -5.77321,0.6006 -4.52702,-0.41275 -9.06462,-0.67997 -13.59164,-1.09537 0.83079,-1.21708 1.8071,-2.35744 3.05329,-3.16706 1.23825,-0.89165 2.73315,-1.27794 4.13279,-1.82827 -2.22779,-0.67469 -4.59317,-0.381 -6.71248,0.51329 0.64294,-1.62984 1.74625,-2.99773 2.89984,-4.29154 -1.17475,0.35189 -2.35744,0.78581 -3.30994,1.58485 -1.0795,0.81756 -1.80181,1.98967 -2.42888,3.16706 -0.50271,-1.17475 -1.04775,-2.38389 -2.02671,-3.24379 -0.74083,-0.72231 -1.7436,-1.04246 -2.70933,-1.32292 1.15623,1.38378 2.16165,2.90248 2.74108,4.62228 -1.87854,-0.85196 -3.8735,-1.44992 -5.94518,-1.55311 1.86002,1.00806 3.78354,2.08492 4.92918,3.937 -3.937,-1.52929 -7.80256,-3.24644 -11.70781,-4.86039 -1.28587,-0.46567 -2.66964,-0.11378 -3.99521,-0.0767 -4.03754,0.19843 -8.07773,0.44185 -12.11527,0.64823 0.045,-2.03465 0.0476,-4.07459 0.16934,-6.10659 0.0344,-0.87312 0.32014,-1.86796 1.1721,-2.27012 1.28058,-0.65352 3.02683,-0.67204 3.82323,-2.04788 0.76994,-1.43139 0.88371,-3.10091 1.15094,-4.67783 0.59531,-5.19113 1.08743,-10.39283 1.57427,-15.5919 2.98714,-0.26458 5.98752,-0.3175 8.97731,-0.5371 3.69888,-0.27252 7.38981,-0.62706 11.08604,-0.91281 2.93952,-0.17198 5.76527,-1.05569 8.64129,-1.60338 2.39448,-0.59267 4.89744,-0.83344 7.17286,-1.8415 3.84969,-1.61396 7.71789,-3.18558 11.57287,-4.7916 1.15888,-0.48154 2.29923,-1.08479 3.57188,-1.19063 2.82575,-0.27781 5.65679,-0.52387 8.47989,-0.82814 -0.20373,-0.38629 -0.28575,-0.96309 -0.82021,-1.00013 -1.51341,-0.41804 -3.18029,-0.55298 -4.45822,-1.55839 -0.8943,-0.64559 -1.58221,-1.86267 -1.12448,-2.95805 0.16668,-0.45243 0.67998,-0.59531 1.11654,-0.51858 0.96308,0.77788 1.143,2.14313 2.01877,3.00302 0.83873,0.84402 2.05846,1.04775 3.16971,1.29646 -0.15346,-0.42333 -0.0979,-1.00277 -0.55563,-1.2409 -0.80433,-0.58737 -1.778,-1.06097 -2.20927,-2.01612 -0.508,-1.0795 -1.03187,-2.21192 -1.08744,-3.42106 0.0714,-0.84932 1.41552,-0.94192 1.79123,-0.26194 0.69586,1.143 1.01865,2.52677 2.08227,3.42371 0.0979,-6.85006 -0.22225,-13.70542 0.15082,-20.55284 0.10054,-0.83608 0.003,-1.87589 0.77258,-2.42622 z"
             style="fill:#786721;stroke:none;stroke-width:0.13229166" />
          <path
             id="path2324"
             d="m -344.95221,372.0236 c 1.0742,-0.48155 3.04535,-0.12965 2.921,1.37583 0.0741,4.60639 -0.10584,9.21279 -0.17728,13.82183 0.58209,-0.17198 1.27265,-0.20373 1.73038,-0.66146 0.15875,-0.66675 0.11112,-1.35995 0.10583,-2.03729 -0.0714,-1.76741 0.0212,-3.53748 -0.15081,-5.2996 -0.0423,-0.59267 -0.11377,-1.36525 0.51858,-1.6854 0.62177,-0.4445 1.55311,-0.14287 1.651,0.65881 0.30692,2.00025 0.12965,4.04284 0.29634,6.05896 0.003,1.12713 0.32014,2.29923 -0.005,3.40254 -0.87313,1.37319 -2.73844,1.12448 -4.14073,1.24619 -0.0503,1.15094 -0.0476,2.30452 -0.005,3.46075 4.59317,0.87842 9.19428,1.72509 13.78744,2.61409 5.23346,1.12183 10.46692,2.2516 15.69244,3.40783 1.68275,0.3466 3.41048,0.24606 5.11969,0.31485 3.25437,0.11907 6.51139,0.10848 9.76841,0.20638 v 33.85343 c -6.9215,0.53975 -13.8377,1.15623 -20.77243,1.51342 0.81227,-0.63764 1.70391,-1.25148 2.2172,-2.17752 1.0213,-1.8415 0.62707,-4.2545 -0.67468,-5.85523 -0.80434,-1.00542 -2.19075,-1.4605 -3.43429,-1.143 -1.63248,0.41011 -3.07182,1.44992 -4.08517,2.77813 -1.09273,1.43933 -1.42611,3.25437 -2.02142,4.9186 -0.83608,-0.95515 -1.65364,-1.92881 -2.46062,-2.90777 1.02129,-0.6694 2.11931,-1.3679 2.66435,-2.5109 0.75936,-1.61131 0.83079,-3.50043 0.42598,-5.21758 -0.51594,-2.05581 -1.91029,-3.70681 -2.91571,-5.52979 1.42875,-0.87577 2.95804,-1.76477 3.86821,-3.22527 0.68263,-1.06363 0.65881,-2.49767 0.0291,-3.57717 -0.87841,-1.56898 -2.37066,-2.63789 -3.78618,-3.683 0.51858,-1.18533 1.28058,-2.30981 1.45785,-3.61156 0.11377,-1.30704 -1.73831,-2.28335 -2.57439,-1.12977 -0.80698,1.43404 -0.20373,3.17235 -0.59796,4.70958 -0.25136,0.67998 -1.10596,0.57415 -1.66952,0.74083 0.0926,-1.14035 0.42068,-2.33362 0.0503,-3.45016 -0.48684,-1.12183 -2.35744,-0.98161 -2.70669,0.16933 -0.36777,1.60867 0.60325,3.07446 1.32821,4.42913 -0.36777,0.25664 -0.72761,0.51593 -1.08479,0.77523 -0.55298,-0.75407 -1.04511,-1.56369 -1.71186,-2.21986 -0.41804,-0.4736 -1.19856,-0.39158 -1.64306,-0.0132 -0.25929,0.42069 -0.1614,0.98161 0.0291,1.41817 0.56886,1.12977 1.75684,1.79123 2.33627,2.91306 0.24342,0.89165 -0.0106,1.88383 0.42598,2.73315 0.3228,0.68262 0.72761,1.32556 1.09802,1.98437 -1.09802,0.25136 -2.19339,0.51065 -3.28347,0.78581 -0.60061,-0.92075 -1.05569,-1.94468 -1.75948,-2.794 -0.87048,-1.02922 -2.80459,0.0688 -2.4765,1.33615 0.2831,1.34408 1.62983,1.95527 2.43152,2.93952 0.6006,0.7964 -0.0661,1.7489 -0.3519,2.53206 -1.82033,-1.15887 -3.82852,-2.14312 -5.9981,-2.36273 -0.78317,-0.0899 -1.68011,0.14023 -2.07698,0.87313 -1.0504,2.03729 -0.17463,5.18848 2.27806,5.6806 2.28865,0.36513 4.36563,-0.99748 6.43996,-1.75154 1.0451,1.68011 1.92617,3.48986 3.28083,4.95565 0.69586,0.76464 1.53723,1.37054 2.37067,1.97908 -1.26206,0.99219 -2.51883,2.03729 -3.34169,3.44223 -4.99533,-1.16946 -10.01977,-2.21721 -15.0151,-3.38931 -0.95779,-0.23019 -1.92088,-0.44979 -2.90248,-0.47625 -5.10646,-0.0979 -10.21556,0.0423 -15.31408,-0.14288 1.58485,-1.18533 3.46604,-1.83091 5.36575,-2.3151 -2.66965,-1.016 -5.60653,-0.53446 -8.1624,0.56885 0.72496,-1.99231 2.05317,-3.65654 3.47662,-5.19641 -1.79387,0.43656 -3.50572,1.28852 -4.79954,2.62466 -0.89693,0.88371 -1.51871,1.98702 -2.12196,3.07975 -0.635,-1.5875 -1.45256,-3.18029 -2.84162,-4.23598 -0.81227,-0.6985 -1.85473,-0.99748 -2.87338,-1.22766 1.47373,1.59808 2.63525,3.47133 3.28878,5.55625 -2.1934,-1.00807 -4.52438,-1.78594 -6.96119,-1.82034 1.50548,0.90488 3.11414,1.68805 4.35504,2.96863 -3.21998,0.0714 -6.43731,-0.0794 -9.652,-0.037 -1.25148,0.008 -2.36538,0.61912 -3.49779,1.06362 -1.80975,0.70644 -3.58511,1.53194 -5.48746,1.96056 -2.04788,0.47096 -4.06135,1.0795 -6.1251,1.4658 -3.23321,0.6006 -6.477,1.15093 -9.69963,1.79387 -1.3335,0.28046 -2.69346,0.10319 -4.02167,-0.0714 -2.5347,-0.33337 -5.09587,-0.46037 -7.60147,-0.97895 -1.70657,-0.33603 -3.41313,-0.6694 -5.11175,-1.02659 -1.54253,-0.33073 -3.12209,-0.17727 -4.68048,-0.15081 0.16933,-1.94733 0.15875,-3.9079 0.34925,-5.84994 0.0344,-1.30969 1.34673,-1.90235 2.26218,-2.57439 3.36286,-2.1934 5.5933,-5.85259 6.4188,-9.74461 0.46037,-2.29129 0.83872,-4.64079 0.70379,-6.97971 -0.0185,-1.03187 -1.02129,-1.54252 -1.90236,-1.7092 2.23573,-0.79905 4.59052,-1.16417 6.88711,-1.74096 3.28083,-0.78582 6.59077,-1.46844 9.85573,-2.31246 5.40808,-1.78594 10.7606,-3.74385 16.16604,-5.51921 3.41577,-0.3175 6.87123,-0.037 10.30287,-0.20373 -1.02658,-0.42333 -2.07169,-0.79639 -3.10621,-1.19062 2.17752,-0.0767 4.31007,0.43391 6.40292,0.97366 -0.74612,-1.90235 -2.61408,-2.8575 -4.26773,-3.83645 1.57956,0.11377 3.10356,0.55827 4.59581,1.06891 -0.53181,-1.23296 -1.32291,-2.32304 -2.16958,-3.35227 0.77788,0.27781 1.61131,0.51329 2.24367,1.0795 0.67998,0.59796 1.1086,1.41552 1.55575,2.1934 0.9816,-1.69334 2.60879,-2.96334 4.54818,-3.34434 -0.86783,0.94457 -1.68539,1.94734 -2.2807,3.08769 1.73037,-0.58473 3.59833,-0.83344 5.38956,-0.34131 -1.88648,0.55827 -3.7809,1.31233 -5.1144,2.82575 1.15623,-0.1905 2.3204,-0.44979 3.50573,-0.39158 1.33879,0.0503 2.62996,0.60589 3.98727,0.42862 4.58259,-0.50535 9.19692,-0.77258 13.72129,-1.70392 3.64332,-0.6297 7.28663,-1.24618 10.92994,-1.88383 -0.037,-1.54517 -0.0582,-3.09033 -0.14552,-4.63285 -0.98689,-0.24342 -2.61673,-0.20373 -2.71198,-1.55046 -0.16404,-2.69875 -0.26458,-5.42925 -0.0582,-8.128 0.0767,-1.13242 2.07434,-1.06892 2.14842,0.0238 0.22225,2.19075 0.0318,4.40002 0.15081,6.59606 -0.0529,0.51065 0.22754,0.90223 0.65882,1.16152 0.14022,-3.91848 -0.12965,-7.8396 -0.0873,-11.76073 -0.0159,-0.74877 0.23284,-1.62718 1.02659,-1.88647 z"
             style="fill:#786721;stroke:none;stroke-width:0.13229166" />
          <path
             id="path2334"
             d="m -767.35421,401.72837 c 0.78846,0.25664 1.61661,0.48948 2.27277,1.02393 0.87313,0.67734 1.38642,1.68011 1.89177,2.64054 1.04511,-1.95262 2.92629,-3.34962 5.09059,-3.79941 -0.99219,1.05569 -1.9394,2.16694 -2.5744,3.48191 1.92088,-0.71702 4.0296,-0.99218 6.02192,-0.38364 -2.18811,0.55033 -4.34182,1.49225 -5.82877,3.25173 2.60085,-0.84138 5.47423,-0.80434 7.98777,0.32014 -1.61661,0.20109 -3.25702,0.37571 -4.77309,1.01071 6.88182,0.61384 13.79273,0.88636 20.67984,1.46579 0.0185,2.10873 0.0635,4.21746 0.0688,6.32619 0,2.35479 0.36512,4.70165 0.25135,7.06173 -0.92075,-2.4421 -1.02394,-5.08 -1.56633,-7.60942 -0.15346,-0.76464 -0.50271,-1.56104 -1.2409,-1.91823 -0.49741,-0.29104 -1.33614,-0.56356 -1.69862,0.0635 -0.42863,0.90223 -0.32279,1.94469 -0.30956,2.91571 0.22754,3.64596 0.4445,7.29457 0.74083,10.93788 0.127,1.43139 0.2884,2.96598 1.18004,4.15396 0.64823,0.90223 1.76477,1.22237 2.61144,1.88118 0.56356,0.41805 0.55562,1.18798 0.61912,1.82034 0.0794,1.57956 0.11642,3.16177 0.1905,4.74398 -2.29393,0.10583 -4.58258,0.27252 -6.87916,0.32808 -1.49225,-0.0212 -2.76754,0.83079 -4.06136,1.45521 -4.07987,2.00554 -8.18356,3.96346 -12.2555,5.98487 -0.69056,0.4154 -1.47373,0.0767 -2.16958,-0.12964 -4.45558,-1.47902 -8.95615,-2.81252 -13.41702,-4.27038 -2.31246,-0.79904 -4.78896,-0.75141 -7.16756,-1.21973 2.30981,-2.09814 5.48745,-2.74108 8.51164,-2.87337 -3.15912,-1.6854 -7.00881,-1.78859 -10.33462,-0.52917 1.79916,-2.40242 4.55083,-3.87085 7.43479,-4.52967 -2.49502,-0.99218 -5.2705,-0.52387 -7.65969,0.52917 0.71702,-1.8706 1.9394,-3.47133 3.32052,-4.90273 -2.91041,0.58738 -5.34987,2.68288 -6.52991,5.38427 -0.89165,-2.413 -2.65907,-4.83393 -5.40809,-5.14085 1.37848,1.50812 2.48709,3.25702 3.09034,5.22287 -2.07698,-0.99218 -4.31271,-1.71979 -6.6384,-1.7092 1.54252,0.84137 3.1406,1.66952 4.35769,2.97127 0.84137,0.83079 1.38377,1.89177 1.86266,2.96068 -2.97127,-0.97102 -6.06954,-1.63777 -9.21014,-1.62454 2.02671,0.94986 4.21746,1.55575 6.09864,2.80194 -2.76489,0.10848 -5.52714,0.2249 -8.29204,0.34396 -1.70656,0.0608 -3.22262,0.94985 -4.75456,1.60602 v -37.26921 c 12.0994,0.68527 24.20144,1.35996 36.30348,2.0029 -1.016,-0.39159 -2.04258,-0.75671 -3.048,-1.16946 2.47121,0.0476 4.91331,0.50271 7.28927,1.1721 -0.43656,-0.76464 -0.88371,-1.54252 -1.54252,-2.14312 -0.94456,-0.87577 -2.12725,-1.41817 -3.21998,-2.07698 1.75683,0.0185 3.43694,0.55033 5.05883,1.16946 -0.54239,-1.38642 -1.4261,-2.58498 -2.35479,-3.73327 z"
             style="fill:#786721;stroke:none;stroke-width:0.13229166" />
        </g>
        <g
           id="g3040"
           style="fill:#786721;stroke:none">
          <path
             id="path3025"
             d="m -161.55836,419.18138 c 0.23623,0 4.45904,1.01197 7.79575,0.47247 3.33672,-0.5395 3.33672,-0.5395 3.33672,-0.5395 l 6.86038,5.94075 -8.95352,15.10073 -14.69983,-12.02713 z"
             style="fill:#786721;fill-opacity:1;fill-rule:evenodd;stroke:none;stroke-width:0.26458332px;stroke-linecap:butt;stroke-linejoin:miter;stroke-opacity:1" />
          <path
             id="path3027"
             d="m -103.82332,412.95442 9.170155,2.76016 4.341111,6.06647 c 0,0 -0.334086,13.56393 -0.868624,12.76212 -0.534541,-0.80181 -16.605902,-4.58853 -16.605902,-4.58853 l -3.57295,-11.44764 z"
             style="fill:#786721;fill-opacity:1;fill-rule:evenodd;stroke:none;stroke-width:0.26458332px;stroke-linecap:butt;stroke-linejoin:miter;stroke-opacity:1" />
          <path
             id="path3029"
             d="m -60.377866,434.54317 -5.746295,-16.23662 16.904798,2.60588 3.474503,4.07586 -4.209494,8.15172 -4.209497,1.26953"
             style="fill:#786721;fill-opacity:1;fill-rule:evenodd;stroke:none;stroke-width:0.26458332px;stroke-linecap:butt;stroke-linejoin:miter;stroke-opacity:1" />
          <path
             id="path3031"
             d="m -32.757414,420.45806 12.756076,-2.94827 6.195187,3.46945 -1.403165,6.01357 -1.135896,5.61266 c 0,0 -9.621703,0 -10.423512,0 -0.801809,0 -9.15398,-10.22306 -9.15398,-10.22306 z"
             style="fill:#786721;fill-opacity:1;fill-rule:evenodd;stroke:none;stroke-width:0.26458332px;stroke-linecap:butt;stroke-linejoin:miter;stroke-opacity:1" />
          <path
             id="path3033"
             d="m 14.389549,436.66278 3.047463,-25.52971 18.119204,8.1428 3.968749,17.5759 -26.080356,0.94494 1.889881,-1.51191"
             style="fill:#786721;fill-opacity:1;fill-rule:evenodd;stroke:none;stroke-width:0.26458332px;stroke-linecap:butt;stroke-linejoin:miter;stroke-opacity:1" />
        </g>
      </g>
      <path
         id="path3103"
         d="m 120.61684,313.53789 c 0,0 1.63766,0.22357 2.25187,0.40074 0.61422,0.17718 1.38982,0.3154 1.38982,0.3154 v 3.51234 l -6.42162,-0.0243 1.08668,-2.55134"
         style="fill:#786721;fill-opacity:1;fill-rule:evenodd;stroke:none;stroke-width:0.26458332px;stroke-linecap:butt;stroke-linejoin:miter;stroke-opacity:1" />
    </g>
    <g
       id="g2573"
       transform="matrix(0.75349341,0,0,0.75349341,49.864376,-199.46602)"
       style="fill:#a0892c;stroke:none"
       clip-path="url(#clipPath2579)">
      <path
         id="path2330-2"
         d="m 81.045379,285.87062 c 0.0076,-0.13426 0.121553,-0.22251 0.200187,-0.3183 0.09031,0.0807 0.219071,0.15211 0.231088,0.28602 0.01717,0.18714 -0.0013,0.3753 -0.0017,0.56313 -0.02163,0.93466 -0.03331,1.86967 -0.05666,2.80433 -0.0017,0.26268 -0.01854,0.5257 0.0031,0.78838 0.05769,-0.15487 0.09237,-0.35711 0.269204,-0.42029 0.10782,0.01 0.195036,0.10615 0.203962,0.21255 0.03846,0.22079 -0.03743,0.43642 -0.06833,0.65274 -0.05562,0.4869 -0.03125,0.97931 -0.0082,1.46757 0.02953,-0.0768 0.05322,-0.15658 0.06764,-0.2376 0.06867,-0.40828 0.110567,-0.82066 0.16688,-1.23065 0.0309,-0.16757 0.03983,-0.36844 0.18027,-0.48587 0.09099,-0.0762 0.220102,0.009 0.261307,0.10031 0.04189,0.1136 0.02953,0.23795 0.02472,0.35677 -0.06318,0.67472 -0.127048,1.34979 -0.204307,2.02349 -0.03468,0.20464 -0.04945,0.42131 -0.149367,0.60708 -0.103355,0.17856 -0.329981,0.18095 -0.496173,0.26578 -0.110565,0.0523 -0.14765,0.18128 -0.152113,0.2946 -0.01579,0.26371 -0.01614,0.52845 -0.02198,0.7925 0.523985,-0.0268 1.048315,-0.0584 1.572301,-0.0842 0.17203,-0.005 0.351615,-0.0505 0.518492,0.01 0.506819,0.20946 1.008486,0.43231 1.519423,0.63077 -0.148679,-0.24035 -0.398311,-0.38011 -0.639702,-0.51094 0.26886,0.0134 0.527762,0.091 0.771557,0.20156 -0.0752,-0.22319 -0.20568,-0.42028 -0.355734,-0.59987 0.125331,0.0364 0.25547,0.078 0.351613,0.1717 0.127049,0.11161 0.197782,0.2685 0.263024,0.42097 0.08138,-0.1528 0.17512,-0.30492 0.315216,-0.41102 0.123619,-0.10367 0.277102,-0.16001 0.42956,-0.20568 -0.149711,0.16792 -0.292898,0.34543 -0.376337,0.55695 0.27504,-0.11608 0.582015,-0.15417 0.871135,-0.0667 -0.181644,0.0714 -0.375649,0.12154 -0.536347,0.23728 -0.161729,0.10503 -0.288433,0.25306 -0.396251,0.41101 0.587509,0.0539 1.176392,0.0885 1.763901,0.14215 0.252723,0.0254 0.500294,-0.0477 0.749239,-0.078 0.194349,-0.0367 0.397625,-0.0374 0.584075,-0.10714 0.178212,-0.0934 0.342344,-0.21187 0.51609,-0.31316 0.132199,-0.0745 0.252722,-0.19332 0.412391,-0.19813 0.232462,-0.01 0.465268,0.001 0.697732,-0.007 -0.06318,-0.14626 -0.141813,-0.28877 -0.258903,-0.39865 -0.155547,-0.16413 -0.360884,-0.26337 -0.552829,-0.376 0.303197,0.0127 0.59884,0.0958 0.869419,0.23178 -0.07897,-0.2565 -0.228,-0.48037 -0.397283,-0.6857 0.345776,0.0556 0.579613,0.35091 0.691552,0.66408 0.167566,-0.33789 0.469047,-0.61773 0.848472,-0.68744 -0.177866,0.18508 -0.335474,0.39146 -0.428528,0.63318 0.310752,-0.14181 0.665113,-0.17993 0.994407,-0.0807 -0.196754,0.0749 -0.404836,0.12844 -0.580299,0.24895 -0.186794,0.11671 -0.339251,0.28019 -0.461493,0.46217 0.224565,0.0274 0.450848,0.0385 0.675413,0.0659 0.08172,0.007 0.165163,0.022 0.246886,0.007 0.21804,-0.25547 0.375991,-0.55866 0.59472,-0.8131 0.249975,-0.0646 0.516776,-0.058 0.773274,-0.0955 0.43162,-0.0271 0.842979,-0.17305 1.268418,-0.23555 0.449817,0.022 0.886587,0.17237 1.339152,0.17649 0.238299,0.004 0.476599,0.0186 0.715244,0.0247 -0.01682,-0.28774 0.0086,-0.57755 -0.02026,-0.86393 -0.01373,-0.14078 -0.172373,-0.16687 -0.280535,-0.20464 -0.211518,-0.0554 -0.409301,-0.17099 -0.542873,-0.34646 -0.219758,-0.27435 -0.253064,-0.63662 -0.336161,-0.96556 -0.118119,-0.57618 -0.245167,-1.15133 -0.323112,-1.73473 -0.01958,-0.15485 -0.04807,-0.33065 0.04704,-0.468 0.05974,-0.0972 0.202934,-0.1243 0.292554,-0.0519 0.128421,0.10268 0.217698,0.24414 0.327921,0.36501 -0.01854,-0.27779 -0.05151,-0.5542 -0.07658,-0.8313 -0.0058,-0.14422 -0.03502,-0.30629 0.04772,-0.43437 0.0752,-0.11534 0.259588,-0.12254 0.343715,-0.0127 0.178554,0.20569 0.225596,0.4845 0.290493,0.74031 0.138379,0.63249 0.165849,1.28249 0.16997,1.9277 0.01068,0.36568 0.02713,0.74477 0.182674,1.0823 0.09202,-0.9374 0.0697,-1.88065 0.09237,-2.82115 0.02575,-0.81654 0.05597,-1.63273 0.09477,-2.44858 0.01408,-0.25272 -0.0052,-0.5185 0.109875,-0.75234 0.05975,-0.0724 0.134946,-0.15108 0.237614,-0.14729 0.113649,-0.01 0.196066,0.0811 0.251692,0.16825 0.08447,0.26885 0.05666,0.55384 0.06902,0.8313 0.02265,0.90238 0.01304,1.80579 0.04533,2.70782 0.125677,-0.0786 0.247915,-0.17201 0.317619,-0.30627 0.162073,-0.27985 0.155549,-0.61155 0.198472,-0.92196 0.0086,-0.11534 0.08344,-0.24928 0.215294,-0.24277 0.181298,-0.0124 0.275728,0.18852 0.279847,0.34372 0.0082,0.37874 -0.09546,0.76332 -0.303196,1.08162 -0.146963,0.24757 -0.413764,0.37016 -0.652751,0.50853 0.0035,0.7053 -0.0021,1.41057 0.0013,2.11587 0.178898,-0.17135 0.283281,-0.40312 0.349898,-0.63799 0.09614,-0.33959 0.01786,-0.69773 0.08069,-1.04179 0.02816,-0.16173 0.1734,-0.30765 0.346461,-0.28603 0.132197,-0.006 0.246195,0.0982 0.261993,0.22766 0.03777,0.25752 0.01339,0.51952 -0.0076,0.77773 -0.03125,0.35574 -0.0879,0.71525 -0.236927,1.04284 -0.07211,0.1576 -0.162758,0.31521 -0.304914,0.41958 -0.110905,0.0813 -0.254095,0.0886 -0.376335,0.14423 -0.05116,0.0566 -0.04636,0.1394 -0.05632,0.21048 -0.01752,0.28534 -0.04465,0.56999 -0.0697,0.85465 0.791131,0.006 1.582261,0.0202 2.373045,0.0346 0.18096,0.009 0.34578,0.091 0.51575,0.14523 0.40826,0.14011 0.81654,0.28021 1.2248,0.42065 0.18199,0.0611 0.36123,0.14455 0.55592,0.15519 0.22594,0.0112 0.4512,0.0309 0.67748,0.0422 -0.37359,-0.34063 -0.88213,-0.45291 -1.33778,-0.63935 0.54287,0.0127 1.08574,0.092 1.60286,0.26096 -0.0831,-0.20225 -0.21083,-0.38596 -0.38046,-0.52467 -0.20156,-0.17891 -0.44809,-0.29154 -0.68743,-0.40861 0.39591,0.001 0.78255,0.11024 1.14275,0.2685 -0.0999,-0.31589 -0.29702,-0.58614 -0.52571,-0.82134 0.16688,0.0319 0.33376,0.0831 0.47042,0.18817 0.21564,0.15109 0.3523,0.38423 0.4536,0.62218 0.0762,-0.12772 0.15211,-0.25786 0.25375,-0.3674 0.2304,-0.25271 0.54871,-0.41274 0.88178,-0.47901 -0.2407,0.21599 -0.45634,0.46664 -0.57446,0.7719 0.15246,-0.0546 0.30423,-0.1136 0.46458,-0.14078 0.28843,-0.0564 0.5858,-0.0258 0.86873,0.0464 -0.20911,0.0574 -0.422,0.10677 -0.61772,0.20293 -0.26131,0.12093 -0.49412,0.29977 -0.68057,0.51918 0.17581,-0.0498 0.35093,-0.10714 0.5336,-0.1239 0.43506,-0.0508 0.87629,0.0354 1.27803,0.20224 -0.53806,0.0112 -1.10943,0.11745 -1.52766,0.48038 0.64417,-0.10504 1.28662,-0.22113 1.9301,-0.33033 0.69223,-0.0976 1.38688,-0.18061 2.0798,-0.27573 -0.1267,-0.37977 -0.12979,-0.78529 -0.0752,-1.17811 -0.24139,-0.099 -0.50819,-0.15485 -0.71593,-0.32001 -0.21048,-0.17513 -0.31693,-0.46493 -0.28465,-0.73448 0.0433,-0.17718 0.25203,-0.20121 0.39693,-0.25307 -0.0347,-0.17855 -0.0889,-0.35471 -0.0951,-0.53737 -0.006,-0.0896 0.0278,-0.18439 0.10301,-0.23727 0.15933,-0.11124 0.4069,-0.0597 0.50408,0.10987 0.0814,0.14148 0.0803,0.31556 0.0409,0.47007 -0.0299,0.14114 -0.10988,0.2675 -0.12843,0.41137 0.0237,0.078 0.10062,0.12498 0.15212,0.18577 0.13907,0.13323 0.20946,0.31658 0.28328,0.49033 0.12053,-0.0797 0.24208,-0.1638 0.38389,-0.20053 0.14593,-0.0426 0.29976,-0.0148 0.44673,0.009 -0.005,-0.2874 -0.0226,-0.57515 -0.004,-0.86187 0.008,-0.16894 0.0676,-0.34337 0.19846,-0.45667 0.19985,-0.17821 0.55421,-0.21325 0.74615,-0.005 0.15727,0.17959 0.10165,0.43471 0.14319,0.65206 0.16207,-0.0756 0.33548,-0.24275 0.52467,-0.15314 0.27264,0.12366 0.28741,0.56245 0.0247,0.70529 -0.21941,0.10441 -0.46801,0.0212 -0.68812,-0.0385 -0.08,-0.0179 -0.19091,-0.0546 -0.24242,0.0333 -0.0975,0.14319 -0.18851,0.29427 -0.33204,0.39763 0.10301,0.27984 0.24414,0.55557 0.25444,0.85981 0.0196,0.26576 -0.0642,0.52261 -0.1576,0.76742 0.19709,0.0186 0.39487,0.0286 0.59265,0.0446 0.26165,0.0161 0.50613,0.11981 0.75783,0.18439 0.4687,0.13736 0.94015,0.26543 1.40713,0.40792 0.10782,0.0354 0.22216,0.0181 0.33239,0.004 -0.0295,-0.11708 -0.0632,-0.23762 -0.14147,-0.3324 -0.12293,-0.16549 -0.31007,-0.25992 -0.48244,-0.36293 0.22353,0.0112 0.43986,0.0759 0.64279,0.16927 -0.0666,-0.18267 -0.17237,-0.34612 -0.29084,-0.49858 0.0889,0.0309 0.18508,0.0554 0.2596,0.11745 0.11571,0.0934 0.18164,0.23109 0.2486,0.36054 0.0707,-0.11745 0.14387,-0.23727 0.25306,-0.3238 0.10404,-0.0889 0.23521,-0.13529 0.36329,-0.17786 -0.12121,0.14215 -0.23658,0.29084 -0.31212,0.46286 0.23177,-0.092 0.48587,-0.12328 0.72897,-0.056 -0.16894,0.068 -0.34852,0.12018 -0.49445,0.23351 -0.11881,0.0865 -0.20877,0.20429 -0.29221,0.32345 0.39282,-0.0566 0.78357,-0.12809 1.17708,-0.18405 0.12156,-0.0155 0.24139,-0.0474 0.35058,-0.10479 0.55558,-0.2826 1.11837,-0.55145 1.67326,-0.83611 0.1813,-0.10056 0.3959,-0.0591 0.59403,-0.0721 -0.009,-0.24242 0.0199,-0.48999 -0.0268,-0.72864 -0.0831,-0.12154 -0.25582,-0.11198 -0.37977,-0.16895 -0.30251,-0.10776 -0.5312,-0.37427 -0.62631,-0.67713 -0.11606,-0.36705 -0.20122,-0.7434 -0.28397,-1.11905 -0.0972,-0.45909 -0.22113,-0.91576 -0.24482,-1.38619 -0.0134,-0.24207 0.11605,-0.48483 0.32551,-0.60638 0.0917,-0.0574 0.22285,-0.0576 0.30217,0.022 0.11847,0.11646 0.1734,0.28465 0.17443,0.44844 0.005,0.47625 0.0972,0.9453 0.19229,1.41023 0.047,0.22353 0.0862,0.44878 0.12945,0.673 0.0306,0.14732 0.0628,0.30183 0.15727,0.42374 0.0701,0.0934 0.171,0.15588 0.26748,0.21975 0.0179,-0.47625 0.0773,-0.94874 0.12808,-1.42225 0.0501,-0.63936 0.0251,-1.28112 0.0405,-1.92151 0.0134,-0.7925 0.1068,-1.58054 0.17512,-2.36927 0.0148,-0.14558 0.0141,-0.3008 0.0862,-0.43265 0.0597,-0.1126 0.22285,-0.15864 0.32689,-0.078 0.17718,0.11844 0.19057,0.3492 0.19607,0.54218 0.047,1.3776 0.13288,2.75453 0.14353,4.13317 -0.002,0.27298 0.022,0.54527 0.067,0.81448 0.0728,-0.083 0.15486,-0.16722 0.17958,-0.27915 0.0457,-0.18852 0.0597,-0.38321 0.0961,-0.57379 0.0563,-0.35573 0.1109,-0.71215 0.16791,-1.06789 0.0347,-0.20224 0.047,-0.42303 0.17924,-0.59059 0.0539,-0.0745 0.14627,-0.14181 0.24311,-0.11025 0.1037,0.0312 0.11983,0.15451 0.13322,0.24654 0.0381,0.37324 -0.0148,0.74753 -0.0591,1.11801 0.09,-0.0185 0.18027,-0.0391 0.26955,-0.0636 0.11434,0.0216 0.24448,0.0879 0.24688,0.22182 0.0175,0.30353 -0.0316,0.60845 -0.0913,0.90582 -0.10713,0.50509 -0.39659,0.97997 -0.83302,1.26463 -0.1188,0.0873 -0.28912,0.16413 -0.29358,0.33411 -0.0247,0.25203 -0.0233,0.50647 -0.0453,0.75918 0.20224,-0.004 0.40724,-0.0233 0.60742,0.0196 0.22045,0.0463 0.44193,0.0896 0.6634,0.13322 0.32517,0.0673 0.65756,0.0838 0.98651,0.12705 0.17237,0.0227 0.34886,0.0457 0.52192,0.009 0.41823,-0.0834 0.83921,-0.15487 1.25881,-0.23281 0.26783,-0.0502 0.52913,-0.12911 0.7949,-0.19023 0.24689,-0.0556 0.47729,-0.16275 0.71216,-0.25444 0.14696,-0.0577 0.29152,-0.137 0.45394,-0.13803 0.41719,-0.005 0.83474,0.014 1.25262,0.005 -0.16104,-0.16619 -0.36981,-0.26783 -0.56519,-0.38527 0.31624,0.005 0.61875,0.1054 0.90341,0.23625 -0.0848,-0.27058 -0.23556,-0.51369 -0.42681,-0.7211 0.1322,0.0299 0.26749,0.0687 0.3729,0.15933 0.18027,0.13702 0.28637,0.34373 0.36878,0.54975 0.0783,-0.14182 0.15898,-0.28501 0.27539,-0.39969 0.1679,-0.1734 0.39007,-0.28397 0.62287,-0.34062 -0.18473,0.19983 -0.3571,0.41582 -0.45119,0.67438 0.3317,-0.14319 0.71285,-0.20568 1.05931,-0.0739 -0.24654,0.0628 -0.49068,0.14663 -0.69636,0.30045 0.66168,0.0241 1.32473,0.006 1.98744,0.0186 0.12739,0.004 0.25237,0.0319 0.37668,0.0618 0.64828,0.15213 1.30035,0.28809 1.94863,0.43986 0.10679,-0.18233 0.26989,-0.31796 0.43368,-0.44672 -0.10816,-0.079 -0.21735,-0.15761 -0.30766,-0.25685 -0.1758,-0.19023 -0.29015,-0.42509 -0.42578,-0.64314 -0.2692,0.0978 -0.53875,0.2747 -0.83577,0.22732 -0.3183,-0.0638 -0.43196,-0.47283 -0.29564,-0.73722 0.0515,-0.0951 0.16791,-0.12499 0.26955,-0.11336 0.28156,0.0284 0.54218,0.15623 0.77842,0.30662 0.0371,-0.10168 0.12362,-0.22523 0.0457,-0.3286 -0.10404,-0.12773 -0.27882,-0.20705 -0.31556,-0.38149 -0.0426,-0.16446 0.20843,-0.30696 0.3214,-0.1734 0.0913,0.11025 0.15039,0.24311 0.22834,0.36261 0.14147,-0.0358 0.28362,-0.0694 0.42612,-0.10193 -0.0481,-0.0855 -0.1006,-0.16893 -0.1425,-0.25753 -0.0567,-0.11025 -0.0237,-0.23898 -0.0553,-0.35469 -0.0752,-0.14559 -0.22937,-0.23145 -0.30319,-0.37806 -0.0247,-0.0566 -0.0374,-0.12945 -0.004,-0.18404 0.0577,-0.0492 0.15898,-0.0597 0.21323,0.002 0.0865,0.0852 0.1504,0.19023 0.22216,0.2881 0.0464,-0.0337 0.093,-0.0673 0.14079,-0.10057 -0.0941,-0.1758 -0.22011,-0.36602 -0.17238,-0.5748 0.0453,-0.14937 0.28809,-0.16757 0.35127,-0.022 0.0481,0.1449 0.006,0.29975 -0.007,0.44775 0.0731,-0.0216 0.18405,-0.007 0.21667,-0.0961 0.0512,-0.19949 -0.0271,-0.42509 0.0776,-0.61119 0.10852,-0.14971 0.34887,-0.023 0.33411,0.14661 -0.023,0.16895 -0.1219,0.31488 -0.1892,0.46871 0.1837,0.13563 0.37736,0.27436 0.49136,0.47797 0.0817,0.14009 0.0848,0.32621 -0.004,0.46424 -0.11812,0.18955 -0.31659,0.30492 -0.50201,0.41857 0.13048,0.23659 0.31144,0.45085 0.3784,0.71765 0.0525,0.22285 0.0433,0.46802 -0.0553,0.67713 -0.0707,0.14834 -0.21323,0.239 -0.34578,0.32587 0.10474,0.12704 0.21083,0.2534 0.31934,0.37736 0.0773,-0.21599 0.12053,-0.45153 0.26234,-0.63833 0.13151,-0.17238 0.3183,-0.30732 0.53016,-0.36054 0.16139,-0.0412 0.34132,0.0179 0.4457,0.14834 0.16894,0.20773 0.2201,0.52089 0.0876,0.75988 -0.0666,0.12018 -0.18233,0.19984 -0.28774,0.28259 0.89998,-0.0463 1.79755,-0.12636 2.69581,-0.19641 v 7.4735 H 71.218752 v -6.04404 c 0.198813,-0.0852 0.395565,-0.20053 0.617039,-0.20844 0.358825,-0.0155 0.717306,-0.0305 1.076129,-0.0446 -0.244137,-0.16174 -0.528449,-0.24037 -0.791472,-0.36364 0.407582,-0.002 0.809671,0.0848 1.195278,0.21083 -0.06215,-0.13871 -0.132542,-0.27641 -0.241734,-0.38423 -0.157952,-0.16894 -0.365348,-0.27642 -0.565534,-0.3856 0.301825,-0.001 0.591974,0.0931 0.861522,0.22181 -0.07829,-0.25512 -0.222163,-0.48209 -0.40106,-0.67781 0.356764,0.0399 0.586137,0.35402 0.701854,0.66717 0.153143,-0.35058 0.469733,-0.62254 0.847442,-0.69876 -0.17924,0.18576 -0.337879,0.3935 -0.430932,0.63627 0.310065,-0.13666 0.670262,-0.19744 0.994062,-0.0686 -0.374275,0.0855 -0.731383,0.27606 -0.964875,0.58785 0.431618,-0.16345 0.931225,-0.15005 1.341211,0.0686 -0.392475,0.0171 -0.804864,0.10057 -1.104628,0.37291 0.308691,0.0607 0.630088,0.0546 0.930195,0.15828 0.578925,0.1892 1.163003,0.36227 1.741241,0.55421 0.09031,0.0268 0.191945,0.0708 0.281565,0.0169 0.52845,-0.26233 1.061021,-0.51642 1.5905,-0.7767 0.16791,-0.0811 0.333416,-0.1916 0.527078,-0.18886 0.298046,-0.007 0.595064,-0.0289 0.892767,-0.0426 -0.0096,-0.20533 -0.01442,-0.41068 -0.02472,-0.61567 -0.0082,-0.0821 -0.0072,-0.18198 -0.08035,-0.23623 -0.109879,-0.0855 -0.254782,-0.12705 -0.338908,-0.24414 -0.115717,-0.15418 -0.136662,-0.35334 -0.153145,-0.53909 -0.03846,-0.47283 -0.06661,-0.94633 -0.09614,-1.4195 -0.0017,-0.12602 -0.01545,-0.26131 0.04017,-0.37841 0.04704,-0.0813 0.155891,-0.0461 0.220444,-0.009 0.0958,0.0463 0.141127,0.14972 0.161043,0.24895 0.07039,0.32826 0.08378,0.6706 0.203275,0.98754 0.01476,-0.3063 -0.03262,-0.61087 -0.03262,-0.91647 -6.61e-4,-0.27367 -0.0065,-0.54733 -0.0089,-0.821 -0.0038,-0.95148 -0.01579,-1.90331 -0.0096,-2.8548 0.0055,-0.12601 0.02404,-0.26028 0.102326,-0.36363 0.04876,-0.071 0.163446,-0.0735 0.212547,-0.001 0.110223,0.14147 0.125331,0.32929 0.125675,0.50201 -0.0065,0.37737 -0.0065,0.75474 -0.02815,1.13177 -0.03468,0.5257 0.01237,1.05346 0.08687,1.57401 0.02541,0.17443 0.04396,0.35128 0.09958,0.51986 0.01854,-0.16996 0.01888,-0.34096 0.02266,-0.51162 0.03537,-1.30173 0.03434,-2.60654 0.160356,-3.9038 0.02644,-0.24551 0.04258,-0.49172 0.06661,-0.73722 z"
         style="fill:#a0892c;stroke:none;stroke-width:0.01716862" />
      <path
         id="path2569"
         d="m 71.440337,294.66187 c 0,0 -0.755955,0.54334 -1.039437,0.66145 -0.28348,0.11812 -2.787574,-1.96075 -3.236421,-1.98437 -0.448847,-0.0236 -1.213657,0.10926 -1.213657,0.10926 l -0.0078,7.46714 5.595956,-0.0668 z"
         style="fill:#a0892c;fill-rule:evenodd;stroke:none;stroke-width:0.26458332px;stroke-linecap:butt;stroke-linejoin:miter;stroke-opacity:1" />
    </g>
  </g>
</svg>
