<?xml version="1.0" encoding="UTF-8" standalone="no"?>
<svg
   xmlns:dc="http://purl.org/dc/elements/1.1/"
   xmlns:cc="http://creativecommons.org/ns#"
   xmlns:rdf="http://www.w3.org/1999/02/22-rdf-syntax-ns#"
   xmlns:svg="http://www.w3.org/2000/svg"
   xmlns="http://www.w3.org/2000/svg"
   xmlns:sodipodi="http://sodipodi.sourceforge.net/DTD/sodipodi-0.dtd"
   xmlns:inkscape="http://www.inkscape.org/namespaces/inkscape"
   id="svg934"
   version="1.1"
   viewBox="0 0 65.222878 10.890664"
   height="10.890664mm"
   width="65.222878mm"
   sodipodi:docname="sea_panorama.svg"
   inkscape:version="0.92.3 (2405546, 2018-03-11)">
  <sodipodi:namedview
     pagecolor="#ffffff"
     bordercolor="#666666"
     borderopacity="1"
     objecttolerance="10"
     gridtolerance="10"
     guidetolerance="10"
     inkscape:pageopacity="0"
     inkscape:pageshadow="2"
     inkscape:window-width="1853"
     inkscape:window-height="1018"
     id="namedview18"
     showgrid="false"
     inkscape:zoom="1.8376412"
     inkscape:cx="208.32421"
     inkscape:cy="-27.241978"
     inkscape:window-x="67"
     inkscape:window-y="490"
     inkscape:window-maximized="1"
     inkscape:current-layer="svg934" />
  <defs
     id="defs928" />
  <metadata
     id="metadata931">
    <rdf:RDF>
      <cc:Work
         rdf:about="">
        <dc:format>image/svg+xml</dc:format>
        <dc:type
           rdf:resource="http://purl.org/dc/dcmitype/StillImage" />
        <dc:title />
      </cc:Work>
    </rdf:RDF>
  </metadata>
  <g
     transform="translate(-155.20811,-9.0530128)"
     id="layer1">
    <g
       style="fill:#214478;fill-opacity:1"
       id="g3637"
       transform="translate(155.30315,-277.28979)">
      <path
         style="fill:#214478;fill-opacity:1;fill-rule:evenodd;stroke:none;stroke-width:0.17207396px;stroke-linecap:butt;stroke-linejoin:miter;stroke-opacity:1"
         d="m 51.459377,288.07014 c 0,0 3.09549,0.44368 4.642013,1.28399 3.758879,2.0424 4.845259,3.10706 5.540543,3.67198 0.695284,0.56491 0.99947,1.91202 0.99947,1.91202 l -7.821942,2.99842 -4.410706,-2.8246 -0.434553,-5.56227 z"
         id="path3543" />
      <path
         id="path6690"
         style="color:#000000;fill:#214478;fill-opacity:1;stroke:none;stroke-width:0.0622173"
         d="m 40.765041,286.6284 c -0.49416,0.006 -0.88641,0.15129 -1.215912,0.41319 -0.2956,0.24338 -0.409291,0.50659 -0.291687,0.54084 0.220902,-0.1391 0.482221,-0.21984 0.762534,-0.21984 0.791653,0 1.433363,0.64171 1.433363,1.43342 0,0.79166 -0.674311,1.18412 -1.433363,1.40885 -0.60938,0.18036 -1.424402,0.18966 -2.029091,-10e-4 h -7.15e-4 c -3.714372,-1.51113 -7.792717,-5.61262 -12.846007,-1.48587 -2.997193,2.44744 -5.313544,-0.89718 -9.214382,-1.3223 -1.579883,-0.17218 -3.74069,0.72675 -4.649063,1.42913 -1.5253827,1.13963 -6.9465626,-5.14798 -10.0978679,1.86123 -1.00655171,1.30856 -0.44286862,4.45364 -0.00946,6.46997 H 51.459377 v -9.08558 c -2.273671,-0.32695 -4.891587,-0.0447 -7.120769,0.89207 -0.580036,-0.7939 -1.387511,-1.75117 -2.565159,-2.18931 -0.378324,-0.10137 -0.711393,-0.14824 -1.00792,-0.14466 z m -1.686773,1.27695 c -0.110287,0.005 -0.197608,0.27265 -0.197608,0.38199 0,0.11286 0.0932,0.20423 0.208484,0.20423 0.115287,0 0.208955,-0.0914 0.208955,-0.20423 0,-0.11287 -0.09367,-0.38199 -0.208955,-0.38199 -0.0036,0 -0.0073,-6.5e-4 -0.01089,0 z" />
    </g>
    <g
       style="fill:#535d6c"
       id="g3641"
       transform="translate(155.30315,-277.28979)">
      <path
         style="fill:#535d6c;fill-opacity:1;fill-rule:evenodd;stroke:none;stroke-width:0.17207396px;stroke-linecap:butt;stroke-linejoin:miter;stroke-opacity:1"
         d="m 51.457993,292.09759 c 0,0 1.941532,3.26491 3.877365,3.35709 1.935832,0.0922 4.354197,-2.83137 6.544955,-3.56439 2.190758,-0.73303 3.411861,0.46225 3.411861,0.46225 l -4.364412,5.7447 -8.665155,-0.27654 -3.134203,-1.16765 z"
         id="path3541" />
      <path
         id="path6644"
         style="fill:#535d6c;fill-opacity:1;stroke:none;stroke-width:0.0622173"
         d="m 25.276183,286.71419 c -0.49416,0.006 -0.88641,0.15129 -1.215912,0.41319 -0.2956,0.24337 -0.409291,0.50658 -0.291687,0.54083 0.220897,-0.1391 0.482221,-0.21983 0.762534,-0.21983 0.791654,0 1.433362,0.64171 1.433362,1.43336 0,0.42057 -0.08613,0.63904 -0.270413,0.81033 -2.446944,0.27191 -2.820063,1.54099 -3.844469,1.94541 -1.081401,0.42686 -3.850753,0.23912 -6.247241,-0.33519 -0.445811,-0.89487 -1.087183,-2.56005 -2.550038,-3.41138 -0.948192,-0.43794 -1.646268,-0.43675 -2.237086,-0.11346 -0.332681,0.18957 -0.489688,0.42988 -0.379625,0.48363 0.241342,-0.0995 0.512785,-0.13465 0.789042,-0.087 0.780142,0.13462 1.303266,0.87596 1.168627,1.6561 -0.03581,0.20759 -0.114406,0.39529 -0.225033,0.55643 -1.969676,-0.30284 -3.8417328,-0.0419 -5.0840266,0.46425 -1.6338267,0.66566 -2.3297263,1.48258 -5.2948776,0.51435 l 0.151287,5.79081 H 51.459377 v -5.05851 c -1.528057,-1.43143 -3.689424,-2.82871 -7.075973,-2.81714 -4.58299,-0.0687 -5.180587,2.73482 -6.74,2.96229 -2.880786,0.34769 -4.476534,-1.62878 -8.185931,-2.3482 -0.588277,-0.76907 -1.513001,-2.41789 -3.173146,-3.03559 -0.378329,-0.10137 -0.71189,-0.14823 -1.008417,-0.14466 z" />
    </g>
    <g
       style="fill:#275e85;fill-opacity:1"
       id="g3603"
       transform="translate(155.30315,-277.28979)">
      <g
         id="g3596"
         style="fill:#275e85;fill-opacity:1">
        <g
           id="g3591"
           style="fill:#275e85;fill-opacity:1">
          <path
             id="path6885"
             style="color:#000000;fill:#275e85;fill-opacity:1;stroke:none;stroke-width:0.0622173"
             d="m 29.963496,290.018 c -0.367146,0.006 -0.684079,0.10432 -0.970217,0.28192 -0.321794,0.20751 -0.464771,0.45593 -0.351919,0.50357 0.235524,-0.1126 0.505097,-0.16272 0.783564,-0.13026 0.786302,0.0917 1.507154,0.86681 1.316269,1.63513 -0.337596,1.35888 -1.897005,1.36529 -3.1556,1.01296 -1.708238,-0.47825 -3.326136,-1.69779 -5.823165,-1.77127 -5.425286,-0.15957 -5.760575,1.83149 -7.810139,2.77645 -1.471127,0.55746 -2.721882,-2.50163 -4.9132381,-3.31699 -1.0089145,-0.27033 -1.697038,-0.15073 -2.2242671,0.26832 -0.2956145,0.24336 -0.409247,0.50625 -0.2916499,0.5405 0.2209091,-0.1391 0.4837832,-0.2197 0.7640909,-0.2197 0.7916514,0 1.4329248,0.64128 1.4329248,1.43293 0,0.44238 -0.2002954,0.83072 -0.5152392,1.08687 -2.8276512,-1.10746 -5.6643815,-3.24887 -8.36392637,-2.94208 l 0.06397643,6.17153 H 51.461949 v -0.43746 c -4.466269,-2.99327 -7.464832,-5.80599 -12.984129,-5.83287 -2.37695,0.008 -3.589316,0.90103 -4.944346,1.69542 -0.484498,-0.8576 -1.176529,-1.90702 -2.300111,-2.48092 -0.485401,-0.19265 -0.902462,-0.28024 -1.269607,-0.27414 z"
             inkscape:connector-curvature="0"
             sodipodi:nodetypes="cccccccccccsscccccccccc" />
          <path
             style="fill:#275e85;fill-opacity:1;fill-rule:evenodd;stroke:none;stroke-width:0.17207396px;stroke-linecap:butt;stroke-linejoin:miter;stroke-opacity:1"
             d="m 51.461949,296.91042 c 0,0 0.793653,0.41775 2.401497,0.50466 1.607843,0.0869 4.714894,-2.19449 6.779017,-3.88925 2.064123,-1.69475 2.685513,-2.28192 3.428608,-2.36857 0.743094,-0.0866 3.393866,4.19369 3.393866,4.19369 l -3.324328,4.17171 -14.122951,-1.34711 z"
             id="path3537" />
        </g>
      </g>
      <path
         style="fill:#275e85;fill-opacity:1;fill-rule:evenodd;stroke:none;stroke-width:0.17207396px;stroke-linecap:butt;stroke-linejoin:miter;stroke-opacity:1"
         d="m 65.140081,291.11407 c 0,0 -2.411767,-0.34764 -4.084794,0.17382 -1.673027,0.52147 -3.193959,2.04239 -3.150503,2.17277 0.04345,0.13036 2.237944,-0.95602 3.193959,-0.95602 0.956015,0 4.193431,-0.1521 4.193431,-0.1521 z"
         id="path3539" />
    </g>
  </g>
</svg>
