<?xml version="1.0" encoding="UTF-8" standalone="no"?>
<svg
   xmlns:dc="http://purl.org/dc/elements/1.1/"
   xmlns:cc="http://creativecommons.org/ns#"
   xmlns:rdf="http://www.w3.org/1999/02/22-rdf-syntax-ns#"
   xmlns:svg="http://www.w3.org/2000/svg"
   xmlns="http://www.w3.org/2000/svg"
   xmlns:sodipodi="http://sodipodi.sourceforge.net/DTD/sodipodi-0.dtd"
   xmlns:inkscape="http://www.inkscape.org/namespaces/inkscape"
   width="32"
   height="32"
   viewBox="0 0 32 32"
   version="1.1"
   id="svg3116"
   inkscape:version="1.0.1 (3bc2e813f5, 2020-09-07)"
   sodipodi:docname="BedchamberSlave.svg">
  <defs
     id="defs3110" />
  <sodipodi:namedview
     id="base"
     pagecolor="#ffffff"
     bordercolor="#666666"
     borderopacity="1.0"
     inkscape:pageopacity="0.0"
     inkscape:pageshadow="2"
     inkscape:zoom="11.2"
     inkscape:cx="7.1838006"
     inkscape:cy="17.74654"
     inkscape:document-units="mm"
     inkscape:current-layer="g3143"
     inkscape:document-rotation="0"
     showgrid="false"
     inkscape:pagecheckerboard="true"
     units="px"
     inkscape:window-width="1267"
     inkscape:window-height="1040"
     inkscape:window-x="105"
     inkscape:window-y="0"
     inkscape:window-maximized="0" />
  <metadata
     id="metadata3113">
    <rdf:RDF>
      <cc:Work
         rdf:about="">
        <dc:format>image/svg+xml</dc:format>
        <dc:type
           rdf:resource="http://purl.org/dc/dcmitype/StillImage" />
        <dc:title />
      </cc:Work>
    </rdf:RDF>
  </metadata>
  <g
     inkscape:label="Layer 1"
     inkscape:groupmode="layer"
     id="layer1">
    <g
       id="g3143"
       transform="matrix(3.7935882,0,0,3.7935882,39.307475,-132.60568)">
      <g
         id="g848"
         transform="translate(0,-0.6144173)">
        <polygon
           id="polygon3092"
           points="-396.5,314.5 -398.5,314.5 -398.5,324.5 -396.5,324.5 -396.5,322.5 -378.5,322.5 -378.5,324.5 -376.5,324.5 -376.5,320.5 -396.5,320.5 "
           transform="matrix(0.26458333,0,0,0.26458333,96.382128,-43.55651)" />
        <circle
           id="circle3094"
           r="0.39687499"
           cy="40.58099"
           cx="-7.8637042"
           style="stroke-width:0.264583" />
        <circle
           id="circle3096"
           r="0.39687499"
           cy="39.522655"
           cx="-7.8637042"
           style="stroke-width:0.264583" />
        <path
           id="path3098"
           d="M -4.2489666,39.975622 -5.128177,39.598856 c -0.2674937,-0.11483 -0.7244291,-0.208492 -1.0154708,-0.208492 h -0.5291667 c -0.2910416,0 -0.5291666,0.238125 -0.5291666,0.529167 v 1.058333 h 3.4395833 c 0,0 0,-0.178594 0,-0.396875 0,-0.218281 -0.219075,-0.490538 -0.4865688,-0.605367 z"
           inkscape:connector-curvature="0"
           style="stroke-width:0.264583" />
        <path
           id="path3102"
           d="m -5.2406249,37.428743 c -0.2066396,-0.206639 -0.5416021,-0.206639 -0.7482416,0 -0.1034521,0.103452 -0.1550459,0.238654 -0.1550459,0.374121 0,-0.135467 -0.051594,-0.270669 -0.1550458,-0.374121 -0.2066396,-0.206639 -0.5416021,-0.206639 -0.7482417,0 -0.2066395,0.20664 -0.2066395,0.541602 0,0.748242 0.1034521,0.103452 0.9032875,0.684212 0.9032875,0.684212 0,0 0.7998354,-0.58076 0.9032875,-0.684212 0.2066396,-0.20664 0.2066396,-0.541602 0,-0.748242 z"
           inkscape:connector-curvature="0" />
      </g>
    </g>
  </g>
</svg>
