<?xml version="1.0" encoding="UTF-8" standalone="no"?>
<svg
   xmlns:dc="http://purl.org/dc/elements/1.1/"
   xmlns:cc="http://creativecommons.org/ns#"
   xmlns:rdf="http://www.w3.org/1999/02/22-rdf-syntax-ns#"
   xmlns:svg="http://www.w3.org/2000/svg"
   xmlns="http://www.w3.org/2000/svg"
   xmlns:sodipodi="http://sodipodi.sourceforge.net/DTD/sodipodi-0.dtd"
   xmlns:inkscape="http://www.inkscape.org/namespaces/inkscape"
   width="32"
   height="32"
   viewBox="0 0 32 32"
   version="1.1"
   id="svg3116"
   inkscape:version="1.0.1 (3bc2e813f5, 2020-09-07)"
   sodipodi:docname="CumCowSlave.svg">
  <defs
     id="defs3110" />
  <sodipodi:namedview
     id="base"
     pagecolor="#ffffff"
     bordercolor="#666666"
     borderopacity="1.0"
     inkscape:pageopacity="0.0"
     inkscape:pageshadow="2"
     inkscape:zoom="11.2"
     inkscape:cx="7.1838006"
     inkscape:cy="17.74654"
     inkscape:document-units="mm"
     inkscape:current-layer="layer1"
     inkscape:document-rotation="0"
     showgrid="false"
     inkscape:pagecheckerboard="true"
     units="px"
     inkscape:window-width="1267"
     inkscape:window-height="1040"
     inkscape:window-x="105"
     inkscape:window-y="26"
     inkscape:window-maximized="0" />
  <metadata
     id="metadata3113">
    <rdf:RDF>
      <cc:Work
         rdf:about="">
        <dc:format>image/svg+xml</dc:format>
        <dc:type
           rdf:resource="http://purl.org/dc/dcmitype/StillImage" />
        <dc:title></dc:title>
      </cc:Work>
    </rdf:RDF>
  </metadata>
  <g
     inkscape:label="Layer 1"
     inkscape:groupmode="layer"
     id="layer1">
    <g
       id="g4182"
       transform="matrix(0.65732462,0,0,0.65732462,4.5255111,4.4748929)">
      <path
         d="m 25.151333,2.861857 v -3.082 c 0,-0.7 -0.818,-1.267 -1.828,-1.267 h -11.582 c -1.012,0 -1.83,0.567 -1.83,1.267 v 3.082 z"
         id="path2" />
      <g
         id="g10"
         transform="translate(-18.553667,-13.846143)">
        <path
           d="m 34.7,33.543 c -3.184,0 -5.774,2.592 -5.774,5.775 0,3.183 2.591,5.772 5.774,5.772 3.183,0 5.772,-2.59 5.772,-5.772 10e-4,-3.183 -2.589,-5.775 -5.772,-5.775 z"
           id="path6" />
        <path
           d="m 50.151,19.285 c -0.42,-0.72 -1.347,-0.962 -2.066,-0.543 l -2.966,1.729 -1.393,-2.63 H 28.189 l -1.28,2.633 -2.973,-1.732 c -0.72,-0.421 -1.646,-0.177 -2.067,0.543 -0.421,0.72 -0.177,1.647 0.544,2.066 l 3.169,1.851 -1.651,3.394 V 50.4 H 48.366 V 26.596 l -1.829,-3.451 3.071,-1.793 c 0.722,-0.42 0.963,-1.347 0.543,-2.067 z M 45.086,32.61 h -2.069 v -1.964 l -2.66,3.266 c 1.346,1.407 2.186,3.308 2.186,5.406 0,4.324 -3.517,7.842 -7.842,7.842 -4.326,0 -7.846,-3.518 -7.846,-7.842 0,-4.326 3.52,-7.845 7.846,-7.845 1.48,0 2.851,0.436 4.032,1.151 l 2.632,-3.229 h -2.131 v -2.072 h 3.783 V 27.32 h 2.069 z"
           id="path8" />
      </g>
    </g>
  </g>
</svg>
