<?xml version="1.0" encoding="UTF-8" standalone="no"?>
<svg
   xmlns:dc="http://purl.org/dc/elements/1.1/"
   xmlns:cc="http://creativecommons.org/ns#"
   xmlns:rdf="http://www.w3.org/1999/02/22-rdf-syntax-ns#"
   xmlns:svg="http://www.w3.org/2000/svg"
   xmlns="http://www.w3.org/2000/svg"
   xmlns:sodipodi="http://sodipodi.sourceforge.net/DTD/sodipodi-0.dtd"
   xmlns:inkscape="http://www.inkscape.org/namespaces/inkscape"
   width="32"
   height="32"
   viewBox="0 0 32 32"
   version="1.1"
   id="svg3116"
   inkscape:version="1.0.1 (3bc2e813f5, 2020-09-07)"
   sodipodi:docname="DamageControlOfficer.svg">
  <defs
     id="defs3110" />
  <sodipodi:namedview
     id="base"
     pagecolor="#ffffff"
     bordercolor="#666666"
     borderopacity="1.0"
     inkscape:pageopacity="0.0"
     inkscape:pageshadow="2"
     inkscape:zoom="5.6"
     inkscape:cx="15.962137"
     inkscape:cy="13.343864"
     inkscape:document-units="mm"
     inkscape:current-layer="layer1"
     inkscape:document-rotation="0"
     showgrid="false"
     inkscape:pagecheckerboard="true"
     units="px"
     inkscape:window-width="1267"
     inkscape:window-height="1040"
     inkscape:window-x="105"
     inkscape:window-y="0"
     inkscape:window-maximized="0" />
  <metadata
     id="metadata3113">
    <rdf:RDF>
      <cc:Work
         rdf:about="">
        <dc:format>image/svg+xml</dc:format>
        <dc:type
           rdf:resource="http://purl.org/dc/dcmitype/StillImage" />
        <dc:title />
      </cc:Work>
    </rdf:RDF>
  </metadata>
  <g
     inkscape:label="Layer 1"
     inkscape:groupmode="layer"
     id="layer1">
    <g
       id="g896"
       transform="matrix(0.28850559,0,0,0.28850559,3.0652781,14.712029)">
      <path
         d="m 42.967327,-10.338214 c -2.475,-3.097 -4.446,-6.197 -4.624,-12.625 -2.034,3.171 -3.597,7.267 -3.558,11.28 3.561,1.8469997 7.41,4.1149997 11.163,7.5239997 -0.448,-3.01 -1.603,-4.454 -2.981,-6.1789997 z"
         id="path2" />
      <path
         d="m 89.738327,-9.7102143 c -1.14,-0.4939997 -2.43,-0.7449997 -3.835,-0.7449997 -2.477,0 -4.945,0.7869997 -6.843,2.0899997 2.514,-5.5099997 5.335,-9.2809997 7.905,-10.5019997 l -0.833,-1.756 c -1.929,0.916 -3.805,2.881 -5.532,5.456 -0.309,-3.43 -2.224,-6.996 -4.97,-8.688 l -1.093,-0.674 -0.352,1.234 c -1.139,3.996 0.842,9.347 4.263,11.779 -1.361,2.6089997 -2.576,5.5399997 -3.588,8.5179997 -1.736,-0.557 -3.425,-1.444 -3.425,-2.303 0,-2.59 -4,-6.4299997 -9.52,-6.4299997 -9.42,0 -13.11,8.3499997 -14.3,12.17999971 -5.68,-6.39000001 -11.89,-9.43000001 -17.92,-12.36999971 -7.3,-3.57 -14.2,-6.94 -19.349999,-16.1 l -1.4800005,-2.62 -0.34,2.99 c -0.93,8.27 -0.19,17.13 2.0500005,24.3299997 2.359999,7.57 6.309999,13.21 11.529999,16.5400003 -5.58,0.609 -14.3499995,3.18 -20.4799995,8.729 l -0.24,0.23 -0.06,0.32 c -0.76799998,4.282 3.012,15.092 7.372,16.832 l 0.6,0.24 0.46,-0.47 c 2.1399995,-2.22 8.3799995,-7.99 11.8699995,-8.51 6.06,1.93 11.51,2.91 16.22,2.91 15.81,0 20.3,-11 21.57,-17.57 1.555,-8.3340003 9.898,-13.3300003 14.356,-15.44300029 -1.198,4.22999999 -1.931,8.34299999 -2.013,11.55000029 l 1.944,0.049 c 0.032,-1.282 0.188,-2.7420003 0.435,-4.3010003 1.032,0.4 2.229,0.619 3.499,0.619 3.475,0 6.933,-1.487 8.808,-3.788 l 0.812,-0.996 -1.179,-0.51 c -1.139,-0.494 -2.429,-0.744 -3.832,-0.744 -2.816,0 -5.622,1.018 -7.586,2.657 0.385,-1.799 0.885,-3.674 1.463,-5.55299999 0.281,-0.108 0.448,-0.166 0.463,-0.171 l 3.46,-1.17000001 -3.284,-0.651 c 0.293,-0.859 0.603,-1.713 0.929,-2.555 1.055,0.427 2.293,0.659 3.605,0.659 3.474,0 6.931,-1.486 8.808,-3.786 l 0.812,-0.995 z"
         id="path4" />
    </g>
  </g>
</svg>
