<?xml version="1.0" encoding="UTF-8" standalone="no"?>
<svg
   xmlns:dc="http://purl.org/dc/elements/1.1/"
   xmlns:cc="http://creativecommons.org/ns#"
   xmlns:rdf="http://www.w3.org/1999/02/22-rdf-syntax-ns#"
   xmlns:svg="http://www.w3.org/2000/svg"
   xmlns="http://www.w3.org/2000/svg"
   xmlns:sodipodi="http://sodipodi.sourceforge.net/DTD/sodipodi-0.dtd"
   xmlns:inkscape="http://www.inkscape.org/namespaces/inkscape"
   width="32"
   height="32"
   viewBox="0 0 32 32"
   version="1.1"
   id="svg3116"
   inkscape:version="1.0.1 (3bc2e813f5, 2020-09-07)"
   sodipodi:docname="EntertainmentSlave.svg">
  <defs
     id="defs3110" />
  <sodipodi:namedview
     id="base"
     pagecolor="#ffffff"
     bordercolor="#666666"
     borderopacity="1.0"
     inkscape:pageopacity="0.0"
     inkscape:pageshadow="2"
     inkscape:zoom="11.2"
     inkscape:cx="18.668437"
     inkscape:cy="4.4158586"
     inkscape:document-units="mm"
     inkscape:current-layer="layer1"
     inkscape:document-rotation="0"
     showgrid="false"
     inkscape:pagecheckerboard="true"
     units="px"
     inkscape:window-width="1267"
     inkscape:window-height="1040"
     inkscape:window-x="105"
     inkscape:window-y="0"
     inkscape:window-maximized="0" />
  <metadata
     id="metadata3113">
    <rdf:RDF>
      <cc:Work
         rdf:about="">
        <dc:format>image/svg+xml</dc:format>
        <dc:type
           rdf:resource="http://purl.org/dc/dcmitype/StillImage" />
        <dc:title />
      </cc:Work>
    </rdf:RDF>
  </metadata>
  <g
     inkscape:label="Layer 1"
     inkscape:groupmode="layer"
     id="layer1">
    <g
       id="g861"
       transform="matrix(0.29870268,0,0,0.29870268,1.1394454,3.5171326)">
      <circle
         cx="47.299999"
         cy="44.5"
         r="11"
         id="circle2" />
      <path
         d="M 82.7,65.3 81.2,65 c -0.6,-0.1 -1.3,0.1 -1.7,0.6 l -9.4,12.2 c -0.3,0.4 -0.8,0.3 -1,-0.1 l -6,-14 c -0.3,-0.8 -1,-1.3 -1.8,-1.5 l -13.2,-3 c -0.5,-0.1 -1,-0.1 -1.5,0 L 32.5,62 c -0.8,0.2 -1.5,0.8 -1.7,1.6 l -4.6,15 c -0.1,0.5 -0.7,0.6 -1,0.2 l -6.6,-7.7 c -0.5,-0.6 -1.3,-1 -2.2,-1 L 14.7,70 c -1.2,0 -2,1.3 -1.4,2.4 l 11.4,18.2 c 0.5,0.9 1.8,0.9 2.3,0.1 l 5.7,-7.4 c 0.4,-0.6 1.3,-0.4 1.4,0.3 l 0.7,12.3 H 58.1 L 59.3,82 c 0.1,-0.6 0.9,-0.9 1.3,-0.4 l 7.6,8.2 c 0.9,1 2.4,0.8 3.1,-0.3 L 83.7,68 c 0.7,-1.1 0.1,-2.4 -1,-2.7 z"
         id="path4" />
      <path
         d="m 22.1,50.2 c 0,-0.8 -0.1,-1.5 -0.2,-2 -0.1,-0.5 -0.1,-0.8 -0.1,-0.8 -0.2,-0.7 -0.6,-1.4 -1.3,-1.9 -1.5,-1.1 -3.7,-0.8 -4.8,0.7 0,0 -0.2,0.2 -0.4,0.7 -0.3,0.4 -0.6,1 -0.9,1.8 -0.7,1.5 -1.3,3.5 -1.6,5.6 -0.4,2.1 -0.5,4.2 -0.5,5.9 0,0.8 0.1,1.5 0.2,2 0.1,0.5 0.1,0.8 0.1,0.8 0.2,0.8 0.3,1.4 1.3,2 l -2.1,11.2 c 0,0 -1.1,0.2 -1.2,0.8 l -1.1,5.6 c -0.1,0.5 0.4,0.7 1,0.8 l 2.8,0.5 c 0.5,0.1 1.2,0.1 1.3,-0.4 l 1.1,-5.6 c 0.1,-0.5 -0.8,-1.1 -0.8,-1.2 L 17,65.5 c 1.1,-0.1 1.4,-0.7 1.9,-1.4 0,0 0.1,-0.2 0.4,-0.7 0.2,-0.4 0.5,-1 0.9,-1.8 0.6,-1.5 1.3,-3.5 1.7,-5.6 0.1,-2 0.2,-4.1 0.2,-5.8 z"
         id="path6" />
      <path
         d="m 53.4,13.3 c 0.7,-0.5 1.2,-0.9 1.5,-1.3 0.4,-0.3 0.5,-0.6 0.5,-0.6 0.5,-0.6 0.8,-1.3 0.8,-2.1 0.1,-1.9 -1.4,-3.5 -3.3,-3.6 0,0 -0.3,0 -0.8,0 -0.5,0 -1.2,0.1 -2,0.3 -1.6,0.3 -3.6,1 -5.6,1.9 -1.9,0.9 -3.8,2 -5.1,2.9 -0.7,0.5 -1.2,0.9 -1.5,1.3 -0.4,0.3 -0.6,0.5 -0.6,0.5 -0.5,0.6 -1,1.1 -0.9,2.2 L 26,19.4 c 0,0 -0.8,-0.8 -1.3,-0.5 l -5.2,2.3 C 19,21.4 19.2,22 19.4,22.5 l 1.1,2.6 c 0.2,0.5 0.6,1.1 1.1,0.9 l 5.2,-2.3 c 0.5,-0.2 0.5,-1.3 0.5,-1.3 l 10.4,-4.6 c 0.7,0.8 1.3,0.8 2.2,0.7 0,0 0.3,0 0.8,-0.1 0.5,0 1.2,-0.2 2,-0.3 1.6,-0.3 3.6,-1 5.6,-1.8 2,-0.9 3.8,-2 5.1,-3 z"
         id="path8" />
      <path
         d="M 69.9,23.8 C 69.2,23.3 68.6,23 68.2,22.8 67.8,22.6 67.5,22.5 67.5,22.5 66.8,22.2 66,22.2 65.3,22.4 63.5,23 62.5,24.9 63,26.7 c 0,0 0.1,0.3 0.3,0.7 0.2,0.5 0.5,1.1 0.9,1.8 0.8,1.4 2.1,3.1 3.6,4.7 1.5,1.6 3.1,2.9 4.4,3.9 0.7,0.5 1.3,0.8 1.7,1.1 0.4,0.2 0.7,0.4 0.7,0.4 0.7,0.3 1.3,0.6 2.3,0.1 l 7.8,8.4 c 0,0 -0.5,1 -0.1,1.4 l 3.9,4.2 c 0.4,0.4 0.8,0.1 1.2,-0.3 l 2.1,-1.9 c 0.4,-0.4 0.8,-0.9 0.5,-1.3 l -3.9,-4.2 c -0.4,-0.4 -1.4,0 -1.4,0 l -7.8,-8.4 c 0.5,-0.9 0.3,-1.5 0,-2.3 0,0 -0.1,-0.2 -0.3,-0.7 -0.2,-0.4 -0.5,-1 -0.9,-1.8 -0.8,-1.4 -2.1,-3.1 -3.5,-4.7 -1.7,-1.7 -3.3,-3.1 -4.6,-4 z"
         id="path10" />
    </g>
  </g>
</svg>
