<svg version="1.1" viewBox="0 0 32 32" xmlns="http://www.w3.org/2000/svg">
 <g>
  <g transform="matrix(.090787 0 0 .090787 2.7634 5.8916)">
   <g transform="matrix(1.2998 0 0 1.2998 -10.414 -33.382)">
    <g transform="matrix(.90049 0 0 .90049 .44616 -18.92)">
     <path d="m234.85 106.46c-1.354 3.895-5.052 6.7-9.399 6.7-4.35 0-8.048-2.808-9.401-6.704-1.352 3.895-5.05 6.702-9.399 6.702-4.352 0-8.05-2.808-9.403-6.701-1.353 3.894-5.052 6.701-9.399 6.701-4.351 0-8.049-2.808-9.403-6.702-1.353 3.895-5.05 6.702-9.399 6.702-4.352 0-8.05-2.809-9.403-6.703-1.352 3.896-5.049 6.703-9.399 6.703-4.348 0-8.046-2.806-9.4-6.7-1.354 3.894-5.051 6.702-9.4 6.702s-8.048-2.808-9.402-6.701c-1.354 3.895-5.051 6.701-9.4 6.701s-8.046-2.807-9.4-6.7c-0.93 2.674-2.961 4.836-5.557 5.926 5.568 12.519 8.306 29.851 8.336 52.64 0 6.1-0.201 12.664-0.602 19.512-0.035 0.6-0.121 1.186-0.229 1.764h15.053c37.861-24.072 48.805-64.738 48.805-64.738s10.943 40.666 48.805 64.738h29.405v-73.606c-0.948 0.301-1.956 0.465-3.002 0.465-4.355-1e-3 -8.052-2.808-9.407-6.701z"/>
     <path d="m93.592 104.8c1.206 1.844 2.313 3.852 3.34 5.99 2.993-1.222 5.105-4.157 5.105-7.59v-10.342h-16.404v3.154c2.955 2.331 5.658 5.295 7.959 8.788z"/>
     <path d="m104.44 103.2c0 4.529 3.672 8.199 8.201 8.199s8.201-3.67 8.201-8.199v-10.342h-16.402z"/>
     <path d="m123.24 103.2c0 4.529 3.673 8.199 8.202 8.199s8.201-3.67 8.201-8.199v-10.342h-16.403z"/>
     <path d="m142.04 103.2c0 4.529 3.672 8.199 8.202 8.199 4.528 0 8.2-3.67 8.2-8.199v-10.342h-16.402z"/>
     <path d="m160.84 103.2c0 4.529 3.674 8.199 8.203 8.199s8.201-3.67 8.201-8.199v-10.342h-16.404z"/>
     <path d="m179.64 103.2c0 4.529 3.672 8.199 8.203 8.199 4.528 0 8.2-3.67 8.2-8.199v-10.342h-16.403z"/>
     <path d="m198.44 103.2c0 4.529 3.673 8.199 8.202 8.199s8.201-3.67 8.201-8.199v-10.342h-16.403z"/>
     <path d="m217.25 103.2c0 4.529 3.672 8.199 8.202 8.199 4.529 0 8.201-3.67 8.201-8.199v-10.342h-16.403z"/>
     <path d="m236.05 103.2c0 4.529 3.672 8.199 8.202 8.199 4.528 0 8.2-3.67 8.2-8.199v-10.342h-16.402z"/>
     <path d="m199.11 19.066v-16.684c-9.338-6.259-18.678 5.087-28.016 1.024v-3.406h-4.102v24.476c-11.024 10.289-63.527 58.759-81.646 65.821h167.39c-18.119-7.063-70.622-55.532-81.646-65.821v-4.385c9.339 4.062 18.678-7.282 28.016-1.025z"/>
     <rect x="115.34" y="189.55" width="145.83" height="3.334"/>
     <path d="m53.68 89.994c10.681-1.753 18.83-11.022 18.83-22.197 0-3.22-0.681-6.279-1.899-9.049-5.355 1.001-12.608 1.617-20.601 1.617s-15.245-0.616-20.601-1.617c-1.218 2.769-1.899 5.829-1.899 9.049 0 11.176 8.15 20.444 18.83 22.197 1.195 0.196 2.42 0.303 3.67 0.303s2.475-0.107 3.67-0.303z"/>
     <polygon points="49.011 100.36 42.011 96.365 42.011 105.36 49.011 101.36"/>
     <polygon points="58.011 96.365 51.011 100.36 51.011 101.36 58.011 105.36"/>
     <path d="m50.01 58.615c14.957 0 27.342-2.153 29.499-4.963 0.22-0.285 0.335-0.577 0.335-0.875 0-1.768-4.019-3.351-10.358-4.422l-2.978-27.594c-7.332-2.672-16.498-2.562-16.498-2.562s-9.166-0.109-16.498 2.562l-2.978 27.594c-6.34 1.071-10.357 2.654-10.357 4.422 0 0.298 0.115 0.59 0.335 0.875 2.157 2.81 14.541 4.963 29.498 4.963z"/>
     <path d="m99.429 184.1c0.4-6.895 0.589-13.234 0.589-19.064-0.041-30.18-4.863-46.887-11.436-56.93-3.284-4.986-7.126-8.184-10.679-9.955-3.391-1.711-6.37-2.105-8.178-2.133-0.132-6e-3 -0.263-0.019-0.397-0.019h-6.325c-0.104 6.791-1.266 32.639-12.992 32.639s-12.889-25.848-12.992-32.639h-6.325c-0.117 0-0.232 0.012-0.348 0.017-1.804 0.022-4.811 0.41-8.233 2.135-5.38 2.666-11.178 8.5-15.236 18.842-4.106 10.379-6.863 25.385-6.877 48.043 2e-3 5.857 0.189 12.225 0.596 19.158 0.248 4.252 3.775 7.533 7.981 7.533 0.157 0 0.315-4e-3 0.474-0.014 4.41-0.26 7.776-4.045 7.518-8.455-0.391-6.65-0.569-12.709-0.569-18.222-0.033-24.217 3.498-37.82 6.965-44.92v150c0 6.83 5.537 12.363 12.363 12.363 6.828 0 12.365-5.533 12.365-12.363v-90.271h4.635v90.271c0 6.83 5.537 12.363 12.363 12.363 6.828 0 12.365-5.533 12.365-12.363v-149.96c0.593 1.215 1.191 2.611 1.782 4.238 2.816 7.813 5.188 20.631 5.18 40.637 0 5.516-0.178 11.574-0.566 18.225-0.258 4.41 3.111 8.195 7.521 8.453 0.158 0.01 0.316 0.014 0.473 0.014 1.495 0 2.899-0.422 4.106-1.148l4.039 4.508 9.525 10.629 1.561-1.537c7.016 6.592 17.863 15.867 10.107 23.791-2.541 2.596-6.99 4.402-8.132 8.07-1.135 3.645 4.982 5.787 7.338 6.475 5.499 1.607 21.114 3.662 16.006 12.66-2.561 4.514-5.521 7.746 0.624 10.807 5.894 2.936 13.105 2.676 19.509 3.129 8.23 0.58 16.999 0.809 24.921 3.322 1.674 0.529 4.26 1.469 4.247 3.572-0.012 2.018-4.256 2.783-5.595 3.156-8.185 2.281-16.849 3.121-25.279 3.91-15.244 1.43-32.601 3.102-47.622-0.781-0.847-0.219-4.192 1.158-3.197 1.416 15.892 4.107 34.142 2.184 50.262 0.672 8.022-0.75 16.052-1.818 23.909-3.627 3.252-0.748 9.177-1.74 11.151-4.879 3.923-6.238-31.545-8.312-34.711-8.541-4.67-0.338-16.751-0.305-17.69-6.414-0.704-4.58 6.534-7.201 3.832-12.332-2.313-4.395-9.256-5.436-13.517-6.494-3.377-0.84-7.232-1.654-9.648-4.373-2.617-2.941 1.806-5.832 3.842-7.32 4.48-3.271 7.915-7.324 5.611-12.996-2.478-6.102-8.779-10.824-13.556-15.598l1.172-1.152-10.053-11.217z"/>
    </g>
   </g>
  </g>
 </g>
</svg>
