<?xml version="1.0" encoding="UTF-8" standalone="no"?>
<svg
   xmlns:dc="http://purl.org/dc/elements/1.1/"
   xmlns:cc="http://creativecommons.org/ns#"
   xmlns:rdf="http://www.w3.org/1999/02/22-rdf-syntax-ns#"
   xmlns:svg="http://www.w3.org/2000/svg"
   xmlns="http://www.w3.org/2000/svg"
   xmlns:sodipodi="http://sodipodi.sourceforge.net/DTD/sodipodi-0.dtd"
   xmlns:inkscape="http://www.inkscape.org/namespaces/inkscape"
   width="32"
   height="32"
   viewBox="0 0 32 32"
   version="1.1"
   id="svg3116"
   inkscape:version="1.0.1 (3bc2e813f5, 2020-09-07)"
   sodipodi:docname="Insurer.svg">
  <defs
     id="defs3110" />
  <sodipodi:namedview
     id="base"
     pagecolor="#ffffff"
     bordercolor="#666666"
     borderopacity="1.0"
     inkscape:pageopacity="0.0"
     inkscape:pageshadow="2"
     inkscape:zoom="5.6"
     inkscape:cx="7.4376449"
     inkscape:cy="0.53662708"
     inkscape:document-units="mm"
     inkscape:current-layer="layer1"
     inkscape:document-rotation="0"
     showgrid="false"
     inkscape:pagecheckerboard="true"
     units="px"
     inkscape:window-width="1267"
     inkscape:window-height="1040"
     inkscape:window-x="105"
     inkscape:window-y="0"
     inkscape:window-maximized="0" />
  <metadata
     id="metadata3113">
    <rdf:RDF>
      <cc:Work
         rdf:about="">
        <dc:format>image/svg+xml</dc:format>
        <dc:type
           rdf:resource="http://purl.org/dc/dcmitype/StillImage" />
        <dc:title></dc:title>
      </cc:Work>
    </rdf:RDF>
  </metadata>
  <g
     inkscape:label="Layer 1"
     inkscape:groupmode="layer"
     id="layer1">
    <path
       d="m 26.593928,27.66195 a 0.97745074,0.97745074 0 0 1 -0.977451,0.977451 h -3.669953 a 0.9787405,0.9787405 0 1 1 0,-1.957481 h 3.669953 a 0.97745074,0.97745074 0 0 1 0.977451,0.98003 z m -0.977451,-3.922698 h -3.669953 a 0.9787405,0.9787405 0 1 0 0,1.957481 h 3.669953 a 0.9787405,0.9787405 0 0 0 0,-1.957481 z m 0,-2.934931 h -3.669953 a 0.97745074,0.97745074 0 0 0 -0.977451,0.977451 v 0 a 0.97745074,0.97745074 0 0 0 0.977451,0.97745 h 3.669953 a 0.97745074,0.97745074 0 0 0 0.977451,-0.97745 v 0 a 0.97745074,0.97745074 0 0 0 -0.977451,-0.967135 z m 0,-2.934932 h -3.669953 a 0.9787405,0.9787405 0 1 0 0,1.957481 h 3.669953 a 0.9787405,0.9787405 0 0 0 0,-1.957481 z m -6.780258,8.812531 h -3.664795 a 0.9787405,0.9787405 0 1 0 0,1.957481 h 3.664795 a 0.9787405,0.9787405 0 1 0 0,-1.957481 z m 0,-2.942668 h -3.664795 a 0.9787405,0.9787405 0 1 0 0,1.957481 h 3.664795 a 0.9787405,0.9787405 0 1 0 0,-1.957481 z m 0,-2.934931 h -3.664795 a 0.97745074,0.97745074 0 0 0 -0.977451,0.987766 v 0 a 0.97745074,0.97745074 0 0 0 0.977451,0.977451 h 3.664795 a 0.97745074,0.97745074 0 0 0 0.977451,-0.977451 v 0 a 0.97745074,0.97745074 0 0 0 -0.977451,-0.97745 z m 6.780258,-5.859547 h -3.669953 a 0.9787405,0.9787405 0 1 0 0,1.957481 h 3.669953 a 0.9787405,0.9787405 0 0 0 0,-1.957481 z m -5.3979,-9.560448 A 0.89492192,0.89492192 0 0 0 19.741457,4.2469758 10.831908,10.831908 0 0 0 15.143055,3.364949 0.77370769,0.77370769 0 0 0 14.389978,4.1979743 l 0.07737,0.9722926 A 9.1116976,9.1116976 0 0 0 11.261621,4.4868251 1.4184641,1.4184641 0 0 0 10.003056,6.5500457 l 2.034851,3.9794363 a 14.868083,14.868083 0 0 0 3.045829,0.314642 0.77370769,0.77370769 0 0 1 0.789182,0.662809 0.74275941,0.74275941 0 0 1 -0.737601,0.82013 15.953853,15.953853 0 0 1 -4.07486,-0.515805 C 9.0359217,14.315492 6.3614723,18.655992 6.841171,23.886256 a 5.6738566,5.6738566 0 0 0 -1.3926742,2.303071 0.81755119,0.81755119 0 0 0 0.2346912,0.876868 c 1.6634718,1.439096 3.386261,1.738264 4.771198,1.018716 a 16.044119,16.044119 0 0 0 2.493917,0.459066 0.17279472,0.17279472 0 0 0 0.180532,-0.226954 2.1276962,2.1276962 0 0 1 0.366221,-1.998745 0.21405913,0.21405913 0 0 0 0,-0.257903 2.1328543,2.1328543 0 0 1 0,-2.669291 0.20890108,0.20890108 0 0 0 0,-0.257903 2.1328543,2.1328543 0 0 1 -0.461645,-1.524204 2.2024879,2.2024879 0 0 1 2.220541,-1.957481 h 4.441082 a 0.18311082,0.18311082 0 0 0 0.177953,-0.229533 2.3004909,2.3004909 0 0 1 -0.07479,-0.55707 2.1328543,2.1328543 0 0 1 0.469383,-1.333356 0.21148011,0.21148011 0 0 0 0,-0.257903 2.1380123,2.1380123 0 0 1 0.567385,-3.169622 22.571633,22.571633 0 0 0 -2.609974,-3.41463 z"
       id="path4"
       style="stroke-width:0.257903" />
  </g>
</svg>
