<svg version="1.1" viewBox="0 0 32 32" xmlns="http://www.w3.org/2000/svg">
 <g>
  <g transform="matrix(3.7936 0 0 3.7936 39.307 -132.61)">
   <rect class="fil0" x="-6.7398" y="31.454" width="14.059" height="14.059" style="fill:none;image-rendering:optimizeQuality;shape-rendering:geometricPrecision;stroke-width:.2636"/>
   <g transform="matrix(.18871 0 0 .18871 -11.176 34.64)" style="image-rendering:optimizeQuality;shape-rendering:geometricPrecision">
    <g>
     <g transform="matrix(.41537 0 0 .41537 5.999 -392.33)">
      <path d="m45.991 957.36c-5.4618 0-9.708 3.6736-14.903 7.3955-4.973 3.5628-10.848 7.4207-19.34 9.4324l-0.59363-1.3788c0.51937-0.67675 0.84358-1.4929 0.84358-2.413 0-2.2153-1.7905-4.0111-3.9992-4.0111-2.2087 0-3.9992 1.7958-3.9992 4.0111 0 2.0447 1.5276 3.7007 3.4993 3.9485l30.65 73.015 3.6867-1.5355-13.81-32.873c7.019-2.1426 12.121-5.4912 16.497-8.1476 4.6924-2.8486 8.4108-4.7997 13.278-4.3559 0.89154 0.081 1.1234 0.318 1.4997 1.0342 0.91071 2.2812 0.73556 4.6556 0.93731 6.9568 0.23041 2.1667 1.37 3.4734 3.6555 2.8516 9.7118-4.8704 19.332-6.8001 30.088-6.8001 0.7596 0.01 1.5054-0.4553 1.832-1.1432 0.32661-0.688 0.21676-1.5621-0.26985-2.1472-7.9001-9.7189-19.805-23.376-14.747-35.003 0.45793-1.0184-0.13117-2.3712-1.1872-2.7263-6.4367-2.152-13.41-0.20214-20.183 2.601-3.8878-4.1347-8.3247-8.6217-13.435-8.7117zm-30.962 24.631c5.4117 5.4974 7.6682 11.856 7.8734 18.74z" overflow="visible" style="color:#000000;fill:#000000;text-indent:0;text-transform:none"/>
     </g>
    </g>
   </g>
  </g>
 </g>
</svg>
