<?xml version="1.0" encoding="UTF-8" standalone="no"?>
<svg
   xmlns:dc="http://purl.org/dc/elements/1.1/"
   xmlns:cc="http://creativecommons.org/ns#"
   xmlns:rdf="http://www.w3.org/1999/02/22-rdf-syntax-ns#"
   xmlns:svg="http://www.w3.org/2000/svg"
   xmlns="http://www.w3.org/2000/svg"
   xmlns:sodipodi="http://sodipodi.sourceforge.net/DTD/sodipodi-0.dtd"
   xmlns:inkscape="http://www.inkscape.org/namespaces/inkscape"
   width="32"
   height="32"
   viewBox="0 0 32 32"
   version="1.1"
   id="svg3116"
   inkscape:version="1.0.1 (3bc2e813f5, 2020-09-07)"
   sodipodi:docname="MaidSlave.svg">
  <defs
     id="defs3110" />
  <sodipodi:namedview
     id="base"
     pagecolor="#ffffff"
     bordercolor="#666666"
     borderopacity="1.0"
     inkscape:pageopacity="0.0"
     inkscape:pageshadow="2"
     inkscape:zoom="7.9195959"
     inkscape:cx="25.632074"
     inkscape:cy="6.8897001"
     inkscape:document-units="mm"
     inkscape:current-layer="layer1"
     inkscape:document-rotation="0"
     showgrid="false"
     inkscape:pagecheckerboard="true"
     units="px"
     inkscape:window-width="1267"
     inkscape:window-height="1040"
     inkscape:window-x="203"
     inkscape:window-y="84"
     inkscape:window-maximized="0" />
  <metadata
     id="metadata3113">
    <rdf:RDF>
      <cc:Work
         rdf:about="">
        <dc:format>image/svg+xml</dc:format>
        <dc:type
           rdf:resource="http://purl.org/dc/dcmitype/StillImage" />
        <dc:title />
      </cc:Work>
    </rdf:RDF>
  </metadata>
  <g
     inkscape:label="Layer 1"
     inkscape:groupmode="layer"
     id="layer1">
    <g
       transform="matrix(-0.91933162,0,0,0.91933162,167.72925,-567.77558)"
       id="g12">
      <g
         id="g10">
        <circle
           cx="162.5"
           cy="623.5"
           r="2.5"
           id="circle2" />
        <path
           d="m 174,644 2,3 c 0,0 -1,2 -4.5,2 -3.5,0 -4.5,-2 -4.5,-2 l 2,-3 z"
           id="path4" />
        <polygon
           points="169.566,632 166.566,627 165,627 165,638 160,638 160,627 158.35,627 154.086,636.594 155.914,637.406 158.271,632.102 157,641 160,641 160,649 162,649 162,641 163,641 163,649 165,649 165,641 168,641 166.552,630.864 168.434,634 171,634 171,642 169,642 169,643 174,643 174,642 172,642 172,634 173,634 173,632 172,632 172,623 171,623 171,632 "
           id="polygon6" />
        <rect
           x="161"
           y="627"
           width="3"
           height="3"
           id="rect8" />
      </g>
    </g>
  </g>
</svg>
