<?xml version="1.0" encoding="UTF-8" standalone="no"?>
<svg
   xmlns:dc="http://purl.org/dc/elements/1.1/"
   xmlns:cc="http://creativecommons.org/ns#"
   xmlns:rdf="http://www.w3.org/1999/02/22-rdf-syntax-ns#"
   xmlns:svg="http://www.w3.org/2000/svg"
   xmlns="http://www.w3.org/2000/svg"
   xmlns:sodipodi="http://sodipodi.sourceforge.net/DTD/sodipodi-0.dtd"
   xmlns:inkscape="http://www.inkscape.org/namespaces/inkscape"
   width="32"
   height="32"
   viewBox="0 0 32 32"
   version="1.1"
   id="svg3116"
   inkscape:version="1.0.1 (3bc2e813f5, 2020-09-07)"
   sodipodi:docname="Marketer.svg">
  <defs
     id="defs3110" />
  <sodipodi:namedview
     id="base"
     pagecolor="#ffffff"
     bordercolor="#666666"
     borderopacity="1.0"
     inkscape:pageopacity="0.0"
     inkscape:pageshadow="2"
     inkscape:zoom="5.6"
     inkscape:cx="15.962137"
     inkscape:cy="13.343864"
     inkscape:document-units="mm"
     inkscape:current-layer="layer1"
     inkscape:document-rotation="0"
     showgrid="false"
     inkscape:pagecheckerboard="true"
     units="px"
     inkscape:window-width="1267"
     inkscape:window-height="1040"
     inkscape:window-x="105"
     inkscape:window-y="0"
     inkscape:window-maximized="0" />
  <metadata
     id="metadata3113">
    <rdf:RDF>
      <cc:Work
         rdf:about="">
        <dc:format>image/svg+xml</dc:format>
        <dc:type
           rdf:resource="http://purl.org/dc/dcmitype/StillImage" />
        <dc:title></dc:title>
      </cc:Work>
    </rdf:RDF>
  </metadata>
  <g
     inkscape:label="Layer 1"
     inkscape:groupmode="layer"
     id="layer1">
    <g
       transform="matrix(0.07435065,0,0,0.07435065,2.7618093,-48.470377)"
       id="g4">
      <path
         d="m 75.507818,726.86353 79.449222,19.15039 a 30,30 0 0 1 25.14453,-13.65234 30,30 0 0 1 29.83398,26.90625 l 79.44727,19.15039 -4.6875,19.44336 -9.5918,-2.3125 46.12891,103.07226 h 16.56445 a 70,38.259911 0 0 1 -35,33.13477 70,38.259911 0 0 1 -70,0 70,38.259911 0 0 1 -35,-33.13477 h 16.58399 L 261.93165,792.37525 205.2461,778.70923 a 30,30 0 0 1 -15.14453,11.89844 v 176.75391 h 130 v 40.00002 H 40.101568 V 967.36158 H 170.10157 v -176.75 a 30,30 0 0 1 -19.83398,-25.1543 L 94.988288,752.13306 141.34962,855.72291 h 16.95507 a 70,38.259911 0 0 1 -35,33.13476 70,38.259911 0 0 1 -70.000002,0 70,38.259911 0 0 1 -35,-33.13476 h 18.31836 l 47.53125,-106.20118 -13.33398,-3.21484 z m 13.47852,36.33985 -41.40625,92.51953 h 40.7246 42.089852 z m 178.820312,40.52343 -42.4707,94.89453 h 42.46093 42.48047 z"
         fill="#000000"
         fill-opacity="1"
         stroke="none"
         id="path2" />
    </g>
  </g>
</svg>
