<?xml version="1.0" encoding="UTF-8" standalone="no"?>
<svg
   xmlns:dc="http://purl.org/dc/elements/1.1/"
   xmlns:cc="http://creativecommons.org/ns#"
   xmlns:rdf="http://www.w3.org/1999/02/22-rdf-syntax-ns#"
   xmlns:svg="http://www.w3.org/2000/svg"
   xmlns="http://www.w3.org/2000/svg"
   xmlns:sodipodi="http://sodipodi.sourceforge.net/DTD/sodipodi-0.dtd"
   xmlns:inkscape="http://www.inkscape.org/namespaces/inkscape"
   width="32"
   height="32"
   viewBox="0 0 32 32"
   version="1.1"
   id="svg3116"
   inkscape:version="1.0.1 (3bc2e813f5, 2020-09-07)"
   sodipodi:docname="MilkCowSlave.svg">
  <defs
     id="defs3110" />
  <sodipodi:namedview
     id="base"
     pagecolor="#ffffff"
     bordercolor="#666666"
     borderopacity="1.0"
     inkscape:pageopacity="0.0"
     inkscape:pageshadow="2"
     inkscape:zoom="11.2"
     inkscape:cx="7.1838006"
     inkscape:cy="17.74654"
     inkscape:document-units="mm"
     inkscape:current-layer="layer1"
     inkscape:document-rotation="0"
     showgrid="false"
     inkscape:pagecheckerboard="true"
     units="px"
     inkscape:window-width="1267"
     inkscape:window-height="1040"
     inkscape:window-x="105"
     inkscape:window-y="0"
     inkscape:window-maximized="0" />
  <metadata
     id="metadata3113">
    <rdf:RDF>
      <cc:Work
         rdf:about="">
        <dc:format>image/svg+xml</dc:format>
        <dc:type
           rdf:resource="http://purl.org/dc/dcmitype/StillImage" />
        <dc:title />
      </cc:Work>
    </rdf:RDF>
  </metadata>
  <g
     inkscape:label="Layer 1"
     inkscape:groupmode="layer"
     id="layer1">
    <g
       stroke="none"
       stroke-width="1"
       id="g10"
       transform="matrix(0.4168148,0,0,0.4168148,7.1578257,1.9175825)">
      <g
         transform="translate(-188,-416)"
         id="g8">
        <path
           d="M 205.91349,464.97907 C 205.42882,462.15166 202.96568,460 200,460 h -6.40815 l -0.39135,-2.54383 c -0.25194,-1.63759 0.87135,-3.16935 2.50894,-3.42129 0.15095,-0.0232 0.30345,-0.0349 0.45617,-0.0349 H 210 v 4 c 0,2.9967 -1.64768,5.60856 -4.08651,6.97907 z M 206,469.31718 c 4.66077,-1.64735 8,-6.09231 8,-11.31718 v -4 h 7.83439 c 1.65685,0 3,1.34315 3,3 0,0.15272 -0.0117,0.30522 -0.0349,0.45617 l -3.6923,24 C 220.88204,482.91967 219.62279,484 218.14208,484 h -18.28416 c -1.48071,0 -2.73996,-1.08033 -2.96512,-2.54383 L 196.05339,476 H 200 c 3.31371,0 6,-2.68629 6,-6 z m 17.65912,-41.19468 2.90249,3.62811 c 0.69002,0.86252 0.55018,2.12111 -0.31235,2.81113 -0.86252,0.69002 -2.12111,0.55017 -2.81113,-0.31235 l -2.55275,-3.19095 c -2.46712,2.0588 -5.52666,3.43156 -8.88551,3.82517 V 439 c 0,1.10457 -0.89543,2 -2,2 -1.10457,0 -2,-0.89543 -2,-2 v -4.11642 c -3.35881,-0.39366 -6.41831,-1.76645 -8.8854,-3.82527 l -2.55286,3.19108 c -0.69002,0.86252 -1.9486,1.00237 -2.81113,0.31235 -0.86252,-0.69002 -1.00236,-1.94861 -0.31235,-2.81113 l 2.90263,-3.62828 C 194.24172,425.29451 193,421.79226 193,418 c 0,-1.10457 0.89543,-2 2,-2 h 30 c 1.10457,0 2,0.89543 2,2 0,3.79234 -1.24177,7.29465 -3.34088,10.1225 z M 190,464 h 10 c 1.10457,0 2,0.89543 2,2 v 4 c 0,1.10457 -0.89543,2 -2,2 h -10 c -1.10457,0 -2,-0.89543 -2,-2 v -4 c 0,-1.10457 0.89543,-2 2,-2 z"
           id="path6" />
      </g>
    </g>
  </g>
</svg>
