<?xml version="1.0" encoding="UTF-8" standalone="no"?>
<svg
   xmlns:dc="http://purl.org/dc/elements/1.1/"
   xmlns:cc="http://creativecommons.org/ns#"
   xmlns:rdf="http://www.w3.org/1999/02/22-rdf-syntax-ns#"
   xmlns:svg="http://www.w3.org/2000/svg"
   xmlns="http://www.w3.org/2000/svg"
   xmlns:sodipodi="http://sodipodi.sourceforge.net/DTD/sodipodi-0.dtd"
   xmlns:inkscape="http://www.inkscape.org/namespaces/inkscape"
   width="32"
   height="32"
   viewBox="0 0 32 32"
   version="1.1"
   id="svg3116"
   inkscape:version="1.0.1 (3bc2e813f5, 2020-09-07)"
   sodipodi:docname="Mystic.svg">
  <defs
     id="defs3110" />
  <sodipodi:namedview
     id="base"
     pagecolor="#ffffff"
     bordercolor="#666666"
     borderopacity="1.0"
     inkscape:pageopacity="0.0"
     inkscape:pageshadow="2"
     inkscape:zoom="7.919596"
     inkscape:cx="24.866577"
     inkscape:cy="4.6643745"
     inkscape:document-units="mm"
     inkscape:current-layer="layer1"
     inkscape:document-rotation="0"
     showgrid="false"
     inkscape:pagecheckerboard="true"
     units="px"
     inkscape:window-width="1267"
     inkscape:window-height="1040"
     inkscape:window-x="105"
     inkscape:window-y="0"
     inkscape:window-maximized="0" />
  <metadata
     id="metadata3113">
    <rdf:RDF>
      <cc:Work
         rdf:about="">
        <dc:format>image/svg+xml</dc:format>
        <dc:type
           rdf:resource="http://purl.org/dc/dcmitype/StillImage" />
        <dc:title />
      </cc:Work>
    </rdf:RDF>
  </metadata>
  <g
     inkscape:label="Layer 1"
     inkscape:groupmode="layer"
     id="layer1">
    <g
       id="g18"
       transform="matrix(0.26204031,0,0,0.26204031,2.8979841,3.4030605)">
      <g
         id="g8">
        <path
           d="M 58.5,20.8 C 53.8,20.8 50,17 50,12.3 50,10.6 50.5,8.9 51.4,7.6 50.9,7.5 50.4,7.5 50,7.5 c -7.4,0 -13.3,6 -13.3,13.3 0,7.4 6,13.3 13.3,13.3 7.4,0 13.3,-6 13.3,-13.3 0,-0.5 0,-1 -0.1,-1.4 -1.3,0.9 -2.9,1.4 -4.7,1.4 z"
           id="path2" />
        <path
           d="M 50,60.2 C 31.9,60.2 14.9,50.4 5.8,34.7 L 5,33.3 5.8,31.9 C 14.9,16.2 31.9,6.4 50,6.4 c 18.1,0 35.1,9.8 44.2,25.5 l 0.8,1.4 -0.8,1.4 C 85.1,50.5 68.1,60.2 50,60.2 Z M 11.6,33.3 C 19.9,46.5 34.4,54.6 50,54.6 65.6,54.6 80.1,46.5 88.4,33.3 80.1,20.2 65.6,12.1 50,12.1 34.4,12.1 19.9,20.2 11.6,33.3 Z"
           id="path4" />
        <path
           d="m 50,47.7 c -14.8,0 -26.8,-12 -26.8,-26.8 0,-1.8 0.2,-3.6 0.5,-5.4 l 5.6,1.1 C 29,18 28.9,19.4 28.9,20.9 28.9,32.5 38.3,42 50,42 61.7,42 71.1,32.5 71.1,20.9 71.1,19.2 70.9,17.6 70.5,16 L 76,14.7 c 0.5,2 0.7,4.2 0.7,6.3 C 76.8,35.6 64.8,47.7 50,47.7 Z"
           id="path6" />
      </g>
      <polygon
         points="50,68 52.8,93.6 47.2,93.6 "
         id="polygon10" />
      <g
         id="g16">
        <polygon
           points="24.3,63.3 14.2,87 9.3,84.2 "
           id="polygon12" />
        <polygon
           points="75.7,63.3 90.7,84.2 85.8,87 "
           id="polygon14" />
      </g>
    </g>
  </g>
</svg>
