<?xml version="1.0" encoding="UTF-8" standalone="no"?>
<svg
   xmlns:dc="http://purl.org/dc/elements/1.1/"
   xmlns:cc="http://creativecommons.org/ns#"
   xmlns:rdf="http://www.w3.org/1999/02/22-rdf-syntax-ns#"
   xmlns:svg="http://www.w3.org/2000/svg"
   xmlns="http://www.w3.org/2000/svg"
   xmlns:sodipodi="http://sodipodi.sourceforge.net/DTD/sodipodi-0.dtd"
   xmlns:inkscape="http://www.inkscape.org/namespaces/inkscape"
   width="32"
   height="32"
   viewBox="0 0 32 32"
   version="1.1"
   id="svg3116"
   inkscape:version="1.0.1 (3bc2e813f5, 2020-09-07)"
   sodipodi:docname="OralFuckholeSlave.svg">
  <defs
     id="defs3110" />
  <sodipodi:namedview
     id="base"
     pagecolor="#ffffff"
     bordercolor="#666666"
     borderopacity="1.0"
     inkscape:pageopacity="0.0"
     inkscape:pageshadow="2"
     inkscape:zoom="11.2"
     inkscape:cx="7.1838006"
     inkscape:cy="17.74654"
     inkscape:document-units="mm"
     inkscape:current-layer="layer1"
     inkscape:document-rotation="0"
     showgrid="false"
     inkscape:pagecheckerboard="true"
     units="px"
     inkscape:window-width="1267"
     inkscape:window-height="1040"
     inkscape:window-x="105"
     inkscape:window-y="26"
     inkscape:window-maximized="0" />
  <metadata
     id="metadata3113">
    <rdf:RDF>
      <cc:Work
         rdf:about="">
        <dc:format>image/svg+xml</dc:format>
        <dc:type
           rdf:resource="http://purl.org/dc/dcmitype/StillImage" />
        <dc:title></dc:title>
      </cc:Work>
    </rdf:RDF>
  </metadata>
  <g
     inkscape:label="Layer 1"
     inkscape:groupmode="layer"
     id="layer1">
    <g
       id="g7494"
       transform="matrix(0.11083837,0,0,0.11083837,5.7960958,2.9457347)">
      <circle
         cx="48.849998"
         cy="22.5"
         r="22.5"
         id="circle7480" />
      <path
         inkscape:connector-curvature="0"
         d="m 6.881,63.881 c -6.805,20.174 -8.267,33.305 -5.681,55.52 2.109,10.853 7.811,15.137 14.11,16.744 4.511,14.961 11.035,47.286 -2.031,82.565 -2.398,6.474 0.906,13.666 7.38,16.063 1.432,0.53 2.897,0.782 4.34,0.782 5.08,0 9.856,-3.12 11.723,-8.162 C 54.669,178.938 42.178,136.11 36.948,121.937 35.937,114.346 36.321,106.195 37.3,98.254 23.91,82.875 18.29,69.886 17.907,68.978 c -2.185,-5.183 0.254,-11.177 5.437,-13.362 1.264,-0.533 2.596,-0.803 3.958,-0.803 4.103,0 7.789,2.44 9.393,6.216 0.046,0.106 1.765,3.975 5.53,9.819 0.008,-0.041 0.017,-0.084 0.025,-0.125 C 45.119,60.77 41.365,48.858 32.83,46.731 24.291,44.602 11.916,49.239 6.881,63.881 Z"
         id="path7482" />
      <path
         inkscape:connector-curvature="0"
         d="m 136.431,159.065 c -37.805,0.468 -36.026,-19.342 -49.3,-22.936 -13.503,-3.658 -21.817,4.361 -22.416,14.324 -0.209,3.238 0.19,6.258 1.122,8.956 0.307,2.245 0.986,4.545 1.983,6.772 l 3.132,-14.992 c 0.887,-4.242 4.672,-7.32 9,-7.32 0.63,0 1.265,0.066 1.886,0.196 2.405,0.502 4.471,1.912 5.817,3.968 1.346,2.056 1.81,4.513 1.307,6.918 l -5.296,25.352 c 4.552,0.741 8.386,-1.243 10.067,-5.568 17.964,5.439 29.248,13.1 36.183,18.235 l -12.003,28.371 c -1.307,3.088 -0.979,6.625 0.874,9.421 1.852,2.795 4.982,4.476 8.335,4.476 h 47 c 5.523,0 10,-4.477 10,-10 0,-5.523 -4.477,-10 -10,-10 h -31.911 l 11.721,-27.703 c 6.236,-11.719 5.066,-28.75 -17.501,-28.47 z"
         id="path7484" />
      <path
         inkscape:connector-curvature="0"
         d="m 44.018,105.457 c -3.056,6.591 -2.72,14.562 1.624,21.034 6.617,9.86 19.974,12.489 29.833,5.872 0.769,-0.516 1.477,-1.085 2.157,-1.678 -13.915,-7.634 -24.976,-16.564 -33.614,-25.228 z"
         id="path7486" />
      <path
         inkscape:connector-curvature="0"
         d="M 81.347,102.53 C 76.654,95.538 68.574,92.205 60.753,93.205 c 6.478,6.207 14.406,12.5 23.976,18.062 -0.462,-3.035 -1.558,-6.02 -3.382,-8.737 z"
         id="path7488" />
      <path
         inkscape:connector-curvature="0"
         d="m 86.809,154.501 c 0.791,-3.784 -1.636,-7.493 -5.421,-8.283 -3.778,-0.79 -7.492,1.637 -8.283,5.421 l -15.667,75 c -0.791,3.784 1.636,7.493 5.421,8.283 0.482,0.101 0.964,0.149 1.438,0.149 3.244,0 6.155,-2.269 6.845,-5.57 z"
         id="path7490" />
      <path
         inkscape:connector-curvature="0"
         d="m 24.197,57.644 c -4.071,1.716 -5.98,6.408 -4.264,10.479 0.64,1.518 16.166,37.44 59.13,60.843 1.215,0.662 2.526,0.976 3.819,0.976 2.835,0 5.582,-1.51 7.033,-4.175 2.113,-3.88 0.682,-8.738 -3.199,-10.852 C 48.941,94.338 34.849,62.307 34.669,61.889 32.946,57.831 28.263,55.93 24.197,57.644 Z"
         id="path7492" />
    </g>
  </g>
</svg>
