<?xml version="1.0" encoding="UTF-8" standalone="no"?>
<svg
   xmlns:dc="http://purl.org/dc/elements/1.1/"
   xmlns:cc="http://creativecommons.org/ns#"
   xmlns:rdf="http://www.w3.org/1999/02/22-rdf-syntax-ns#"
   xmlns:svg="http://www.w3.org/2000/svg"
   xmlns="http://www.w3.org/2000/svg"
   xmlns:sodipodi="http://sodipodi.sourceforge.net/DTD/sodipodi-0.dtd"
   xmlns:inkscape="http://www.inkscape.org/namespaces/inkscape"
   width="32"
   height="32"
   viewBox="0 0 32 32"
   version="1.1"
   id="svg3116"
   inkscape:version="1.0.1 (3bc2e813f5, 2020-09-07)"
   sodipodi:docname="PunchingBagSlave.svg">
  <defs
     id="defs3110" />
  <sodipodi:namedview
     id="base"
     pagecolor="#ffffff"
     bordercolor="#666666"
     borderopacity="1.0"
     inkscape:pageopacity="0.0"
     inkscape:pageshadow="2"
     inkscape:zoom="7.9195959"
     inkscape:cx="25.632074"
     inkscape:cy="6.8897001"
     inkscape:document-units="mm"
     inkscape:current-layer="layer1"
     inkscape:document-rotation="0"
     showgrid="false"
     inkscape:pagecheckerboard="true"
     units="px"
     inkscape:window-width="1267"
     inkscape:window-height="1040"
     inkscape:window-x="182"
     inkscape:window-y="0"
     inkscape:window-maximized="0" />
  <metadata
     id="metadata3113">
    <rdf:RDF>
      <cc:Work
         rdf:about="">
        <dc:format>image/svg+xml</dc:format>
        <dc:type
           rdf:resource="http://purl.org/dc/dcmitype/StillImage" />
        <dc:title></dc:title>
      </cc:Work>
    </rdf:RDF>
  </metadata>
  <g
     inkscape:label="Layer 1"
     inkscape:groupmode="layer"
     id="layer1">
    <g
       id="g7818"
       transform="matrix(0.08076537,0,0,0.08076537,2.592989,3.4213591)">
      <path
         inkscape:connector-curvature="0"
         d="m 70.561,74.681 c -0.727,-0.714 -1.438,-1.431 -2.133,-2.15 -3.825,-3.977 -3.705,-10.318 0.267,-14.142 1.871,-1.801 4.334,-2.796 6.934,-2.796 0.812,0 1.604,0.106 2.371,0.292 V 22 h 176 v 33.885 c 0.767,-0.186 1.559,-0.292 2.37,-0.292 2.6,0 5.061,0.995 6.934,2.796 3.972,3.826 4.091,10.168 0.27,14.141 -0.694,0.719 -1.406,1.436 -2.133,2.149 7.092,4.885 14.547,9.073 20.558,12.159 V 22 h 50 V 0 H 0 v 22 h 49.999 v 64.826 c 2.758,-1.415 5.809,-3.05 9.001,-4.887 3.77,-2.161 7.718,-4.607 11.561,-7.258 z"
         id="path7806" />
      <path
         inkscape:connector-curvature="0"
         d="m 163.999,63.06 c -12.099,-2.816 -24.193,4.709 -27.012,16.809 -1.237,5.314 -0.479,10.626 1.785,15.153 3.814,1.7 6.831,2.932 8.643,3.647 h 29.322 c 1.898,-2.468 3.315,-5.367 4.067,-8.597 2.82,-12.1 -4.707,-24.194 -16.805,-27.012 z"
         id="path7808" />
      <path
         inkscape:connector-curvature="0"
         d="m 75.187,76.315 c 13.101,12.008 28.683,21.363 41.628,28.101 9.067,4.701 16.839,8.08 21.536,10.006 v 58.889 l -33.416,97.662 c -2.209,6.461 1.238,13.49 7.697,15.699 6.459,2.211 13.49,-1.233 15.701,-7.693 l 32.321,-94.462 h 9.484 l 32.321,94.462 c 2.211,6.46 9.242,9.904 15.701,7.693 6.459,-2.209 9.906,-9.238 7.697,-15.699 l -33.415,-97.658 v -58.402 c 4.498,-1.812 12.849,-5.365 22.74,-10.494 12.945,-6.738 28.525,-16.095 41.626,-28.101 -4.443,-3.198 -8.694,-6.684 -12.355,-10.407 -11.215,9.905 -25.005,18.287 -36.641,24.303 -6.935,3.6 -13.1,6.387 -17.504,8.264 -2.199,0.937 -3.961,1.647 -5.156,2.117 -0.079,0.03 -0.148,0.058 -0.222,0.086 -0.073,-0.002 -0.145,-0.011 -0.219,-0.011 H 147.033 C 143.293,99.205 133.309,95.113 121.546,88.829 110.502,82.946 97.915,75.08 87.536,65.912 83.88,69.633 79.629,73.119 75.187,76.315 Z"
         id="path7810" />
      <path
         inkscape:connector-curvature="0"
         d="m 84.594,63.21 c -1.098,-1.042 -2.174,-2.094 -3.203,-3.166 -3.065,-3.183 -8.13,-3.277 -11.311,-0.213 -3.182,3.063 -3.277,8.128 -0.213,11.312 0.775,0.803 1.567,1.591 2.366,2.372 4.493,-3.199 8.766,-6.675 12.361,-10.305 z"
         id="path7812" />
      <path
         inkscape:connector-curvature="0"
         d="m 259.77,73.51 c 0.798,-0.78 1.589,-1.566 2.362,-2.367 3.064,-3.184 2.968,-8.247 -0.214,-11.312 -3.183,-3.065 -8.246,-2.97 -11.311,0.214 -1.032,1.075 -2.112,2.129 -3.213,3.174 3.598,3.631 7.882,7.096 12.376,10.291 z"
         id="path7814" />
      <path
         inkscape:connector-curvature="0"
         d="m 331.999,289.486 h -50 V 91.315 c -3.25,-1.631 -7.019,-3.619 -10.999,-5.907 -4.07,-2.349 -8.354,-5.006 -12.526,-7.914 -1.439,1.326 -2.926,2.645 -4.475,3.954 v 208.039 h -176 V 81.449 c -1.55,-1.31 -3.037,-2.629 -4.476,-3.956 -4.172,2.908 -8.457,5.565 -12.527,7.914 C 57.019,87.695 53.249,89.683 50,91.314 V 289.486 H 0 v 22 h 331.999 z"
         id="path7816" />
    </g>
  </g>
</svg>
