<svg version="1.1" viewBox="0 0 32 32" xmlns="http://www.w3.org/2000/svg">
 <path d="m29.715 5.1085c-5.0332 1.7921-11.63 1.7921-13.46 1.754h-0.0572c-1.8112 0.03813-8.4267 0.03813-13.46-1.754 0 0-0.55289-0.19065-0.019065 1.1058 0.019065 0.019065 0.019065 0.057195 0.019065 0.07626 0.07626 0.36224 0.85793 3.4126 3.3554 4.0799 0.15252 0.03813 0.26691 0.17158 0.32411 0.3241l0.28598 1.0104c0.019065 0.03813 0.019065 0.07626 0.03813 0.11439 0.057195 0.11439 0.20972 0.3241 0.34317 0.3241h0.28598c0.24785 0 0.45756 0.20972 0.47663 0.45756v1.163h-2.3641c-0.20972 0-0.3813 0.17158-0.3813 0.3813v1.5252c0 0.20972 0.17159 0.3813 0.3813 0.3813h2.3641v10.638c0 0.24784 0.20972 0.45756 0.45756 0.45756h2.4975c0.24784 0 0.45756-0.20972 0.45756-0.45756v-10.657h9.8947v10.638c0 0.24784 0.20972 0.45756 0.45756 0.45756h2.4975c0.24785 0 0.45756-0.20972 0.45756-0.45756v-10.638h2.3641c0.20972 0 0.3813-0.17158 0.3813-0.3813v-1.5252c0-0.20972-0.17158-0.3813-0.3813-0.3813h-2.3641v-1.163c0-0.24784 0.20972-0.45756 0.47662-0.45756h0.28598c0.15252 0 0.28598-0.20972 0.34317-0.3241 0.01907-0.03813 0.03813-0.07626 0.03813-0.11439l0.28598-1.0104c0.03813-0.15252 0.17158-0.28598 0.3241-0.3241 2.4975-0.68634 3.2601-3.7177 3.3554-4.0799 0-0.019065 0.01906-0.057195 0.01906-0.07626 0.57195-1.2583 0.01907-1.0867 0.01907-1.0867zm-14.833 8.2551c0 0.0572-0.03813 0.09533-0.09532 0.09533h-3.4126c-0.0572 0-0.09532-0.03813-0.09532-0.09533v-1.5252c0-0.0572 0.03813-0.09532 0.09532-0.09532h3.4126c0.0572 0 0.09532 0.03813 0.09532 0.09532zm6.2915 0c0 0.0572-0.03813 0.09533-0.09533 0.09533h-3.4126c-0.0572 0-0.09532-0.03813-0.09532-0.09533v-1.5252c0-0.0572 0.03813-0.09532 0.09532-0.09532h3.4126c0.0572 0 0.09533 0.03813 0.09533 0.09532z" style="stroke-width:.19065"/>
</svg>
