<svg version="1.1" viewBox="0 0 32 32" xmlns="http://www.w3.org/2000/svg">
 <g>
  <g transform="translate(10.237 -39.214)">
   <g transform="translate(-.44194)">
    <path d="m16.47 58.078-2.7535-3.3008c-0.07133-0.0856-0.17646-0.13516-0.28834-0.13516h-6.6325v-1.1684h2.8781c0.12239 0 0.23653-0.05932 0.30711-0.15994l2.7535-3.9218c0.0856-0.12239 0.09086-0.28383 0.01352-0.41148l-2.7535-4.5052c-0.06833-0.11038-0.18997-0.17871-0.32062-0.17871h-2.8939c-0.079593-1.9665-1.3486-3.0035-2.6123-3.0035-1.2637 0-2.5327 1.037-2.6123 3.0035h-3.3947c-0.20724 0-0.37544 0.1682-0.37544 0.37544v8.4271c0 0.20724 0.1682 0.37544 0.37544 0.37544h3.3789v1.1684h-3.3789c-0.20724 0-0.37544 0.1682-0.37544 0.37544v6.1729c0 0.20724 0.1682 0.37544 0.37544 0.37544h3.3789v7.1333c0 0.20724 0.1682 0.37544 0.37544 0.37544h4.5052c0.20724 0 0.37544-0.1682 0.37544-0.37544v-7.1333h6.6325c0.10287 0 0.20048-0.04205 0.27106-0.11564l2.7535-2.8721c0.13215-0.13816 0.13966-0.35366 0.01727-0.50083zm-17.934-13.031h10.927l2.5154 4.1155-2.4997 3.5599h-10.943zm14.732 15.768h-14.732v-5.4228h14.716l2.4253 2.9081z" style="stroke-width:.75087"/>
    <path d="m6.8131 48.755h-0.60746c-0.01727 0-0.033038 0.0075-0.049558 0.01051v-0.06983c0.46104-0.15543 0.79668-0.58643 0.79668-1.0993 0-0.642-0.52261-1.1654-1.1661-1.1654-0.090856 0-0.18021 0.01126-0.26731 0.03229-0.24779-0.61422-0.84624-1.0452-1.5363-1.0452-0.67353 0-1.2555 0.40322-1.5123 1.0152-0.60671 0.0398-1.088 0.54664-1.088 1.1631 0 0.49332 0.30936 0.91381 0.74337 1.0828v3.2122c0 0.20724 0.1682 0.37544 0.37544 0.37544h3.2791c0.20724 0 0.37544-0.1682 0.37544-0.37544v-0.39946c0.016519 3e-3 0.032288 0.01051 0.049558 0.01051h0.60746c0.31462 0 0.57066-0.28383 0.57066-0.63299v-1.4822c0-0.34841-0.25605-0.63224-0.57066-0.63224zm-4.2695-1.5723 0.099866 0.02628c0.10062 0.02703 0.20574 9e-3 0.29359-0.04655 0.087101-0.05406 0.14792-0.14267 0.1682-0.24403 0.087852-0.44076 0.44977-0.74862 0.87852-0.74862 0.48582 0 0.87552 0.37243 0.90555 0.86651 0.00901 0.14267 0.097614 0.26806 0.23052 0.32363 0.1299 0.05557 0.28383 0.03079 0.39121-0.06382 0.29134-0.25455 0.69156-0.02478 0.69156 0.30035 0 0.22902-0.18622 0.41448-0.41523 0.41448-0.20274 0-0.3852-0.12014-0.40697-0.13966-0.047305-0.10662-0.14192-0.18472-0.25605-0.211-0.028533-0.0068-0.057817-0.01051-0.086351-0.01051-0.084849 0-0.1697 0.02928-0.23653 0.0841-0.11864 0.09611-0.48056 0.27632-0.8177 0.27632-0.25605 0-0.45503-0.12314-0.57892-0.22601-0.078091-0.06608-0.17871-0.09461-0.28083-0.0856-0.10137 0.01051-0.19373 0.06232-0.2568 0.14192-0.048807 0.06307-0.15618 0.1697-0.31987 0.1697-0.22827 0-0.41373-0.18547-0.41373-0.41448s0.18547-0.41298 0.40998-0.41298zm0.75913 4.3175c0 0.10362-0.084098 0.18772-0.18772 0.18772s-0.18772-0.0841-0.18772-0.18772v-2.369c0-0.10362 0.084098-0.18772 0.18772-0.18772s0.18772 0.0841 0.18772 0.18772zm3.3301-0.74787h-0.4265c-0.01727 0-0.033038 0.0075-0.049558 0.01051v-1.2667c0.016519 3e-3 0.032288 0.01051 0.049558 0.01051h0.4265z" style="stroke-width:.75087"/>
    <path d="m2.9318 56.68c-0.14642-0.14642-0.38445-0.14642-0.53087 0l-0.86125 0.86125-0.8605-0.8605c-0.14642-0.14642-0.38445-0.14642-0.53087 0-0.14642 0.14642-0.14642 0.38445 0 0.53087l0.8605 0.8605-0.8605 0.8605c-0.14642 0.14642-0.14642 0.38445 0 0.53087 0.073586 0.07359 0.1697 0.10963 0.26581 0.10963s0.19222-0.03679 0.26581-0.10963l0.8605-0.8605 0.8605 0.8605c0.073586 0.07359 0.1697 0.10963 0.26581 0.10963s0.19222-0.03679 0.26581-0.10963c0.14642-0.14642 0.14642-0.38445 0-0.53087l-0.8605-0.8605 0.8605-0.8605c0.14567-0.14717 0.14567-0.38445-7.509e-4 -0.53162z" style="stroke-width:.75087"/>
    <path d="m7.437 56.68c-0.14642-0.14642-0.38445-0.14642-0.53087 0l-0.86125 0.86125-0.8605-0.8605c-0.14642-0.14642-0.38445-0.14642-0.53087 0-0.14642 0.14642-0.14642 0.38445 0 0.53087l0.8605 0.8605-0.8605 0.8605c-0.14642 0.14642-0.14642 0.38445 0 0.53087 0.073586 0.07359 0.1697 0.10963 0.26581 0.10963 0.096112 0 0.19222-0.03679 0.26581-0.10963l0.8605-0.8605 0.8605 0.8605c0.073586 0.07359 0.1697 0.10963 0.26581 0.10963 0.096112 0 0.19222-0.03679 0.26581-0.10963 0.14642-0.14642 0.14642-0.38445 0-0.53087l-0.8605-0.8605 0.8605-0.8605c0.14567-0.14717 0.14567-0.38445-7.509e-4 -0.53162z" style="stroke-width:.75087"/>
    <path d="m11.942 56.68c-0.14642-0.14642-0.38445-0.14642-0.53087 0l-0.86125 0.86125-0.8605-0.8605c-0.14642-0.14642-0.38445-0.14642-0.53087 0-0.14642 0.14642-0.14642 0.38445 0 0.53087l0.8605 0.8605-0.8605 0.8605c-0.14642 0.14642-0.14642 0.38445 0 0.53087 0.073586 0.07359 0.1697 0.10963 0.26581 0.10963 0.096112 0 0.19222-0.03679 0.26581-0.10963l0.8605-0.8605 0.8605 0.8605c0.07359 0.07359 0.1697 0.10963 0.26581 0.10963 0.09611 0 0.19222-0.03679 0.26581-0.10963 0.14642-0.14642 0.14642-0.38445 0-0.53087l-0.8605-0.8605 0.8605-0.8605c0.14567-0.14717 0.14567-0.38445-7.51e-4 -0.53162z" style="stroke-width:.75087"/>
   </g>
  </g>
 </g>
</svg>
