<?xml version="1.0" encoding="UTF-8" standalone="no"?>
<svg
   xmlns:dc="http://purl.org/dc/elements/1.1/"
   xmlns:cc="http://creativecommons.org/ns#"
   xmlns:rdf="http://www.w3.org/1999/02/22-rdf-syntax-ns#"
   xmlns:svg="http://www.w3.org/2000/svg"
   xmlns="http://www.w3.org/2000/svg"
   xmlns:sodipodi="http://sodipodi.sourceforge.net/DTD/sodipodi-0.dtd"
   xmlns:inkscape="http://www.inkscape.org/namespaces/inkscape"
   width="32"
   height="32"
   viewBox="0 0 32 32"
   version="1.1"
   id="svg3116"
   inkscape:version="1.0.1 (3bc2e813f5, 2020-09-07)"
   sodipodi:docname="DamageControlOfficer.svg">
  <defs
     id="defs3110" />
  <sodipodi:namedview
     id="base"
     pagecolor="#ffffff"
     bordercolor="#666666"
     borderopacity="1.0"
     inkscape:pageopacity="0.0"
     inkscape:pageshadow="2"
     inkscape:zoom="7.9195959"
     inkscape:cx="2.1662313"
     inkscape:cy="15.893052"
     inkscape:document-units="mm"
     inkscape:current-layer="layer1"
     inkscape:document-rotation="0"
     showgrid="false"
     inkscape:pagecheckerboard="true"
     units="px"
     inkscape:window-width="1267"
     inkscape:window-height="1040"
     inkscape:window-x="563"
     inkscape:window-y="108"
     inkscape:window-maximized="0" />
  <metadata
     id="metadata3113">
    <rdf:RDF>
      <cc:Work
         rdf:about="">
        <dc:format>image/svg+xml</dc:format>
        <dc:type
           rdf:resource="http://purl.org/dc/dcmitype/StillImage" />
        <dc:title></dc:title>
      </cc:Work>
    </rdf:RDF>
  </metadata>
  <g
     inkscape:label="Layer 1"
     inkscape:groupmode="layer"
     id="layer1">
    <g
       id="g106"
       transform="matrix(0.27931667,0,0,0.27931667,2.0177195,1.1815975)">
      <path
         d="m 20,36.2 c 4,0.4 7.3,-2.9 6.9,-6.9 -0.3,-2.9 -2.7,-5.3 -5.6,-5.6 -4,-0.4 -7.3,2.9 -6.9,6.9 0.3,2.9 2.7,5.3 5.6,5.6 z"
         id="path96" />
      <path
         d="M 24.4,65 H 15.5 C 12.3,65 9.6,63.4 8.8,59.8 L 6,46 C 5.3,42.6 0.5,43.8 1.1,47.1 l 3,14.3 C 5.3,66.9 10,70 14.7,70 h 9.7 c 3.5,0 3.5,-5 0,-5 z"
         id="path98" />
      <path
         d="m 80.2,35.8 c 2.9,-0.3 5.3,-2.7 5.6,-5.6 0.4,-4 -2.9,-7.3 -6.9,-6.9 -2.9,0.4 -5.2,2.7 -5.5,5.7 -0.4,3.9 2.9,7.2 6.8,6.8 z"
         id="path100" />
      <path
         d="M 89.5,56.9 87,43 c -1,-5.7 -5.3,-7 -8,-5.2 -0.4,0.2 -0.8,0.3 -1.1,0.6 L 71,43.7 60.6,43.9 c -1.2,0 -2.2,0.9 -2.1,2.1 0,2.7 4.3,2 5.5,2 H 39 c 1.2,0 2.2,-0.6 2.2,-1.8 0,-1.2 -0.9,-2 -2.1,-2 l -9.6,-0.1 -6.9,-5.3 c -0.4,-0.3 -0.4,-0.2 -1.1,-0.6 -2.7,-1.8 -7,-0.5 -8.1,5.2 L 10.7,57 c -1.1,4.6 2,7 5.2,7 H 29 c 0,0 0,10.9 0,15.3 0,4.7 7,4.7 7,0.1 V 60.2 c 0,-2.3 -1.6,-4.7 -4.7,-4.7 H 20.7 l 2.5,-10.5 3.9,3 c 0.4,0.3 0.8,0.2 1.3,0.2 L 36.2,48 h -9 c -1.4,0 -2.5,1.1 -2.5,2.5 0,1.4 1.1,2.5 2.5,2.5 H 42 v 29 c 1,0 16,0 16,0 V 53 h 13.8 c 1.4,0 2.5,-1.1 2.5,-2.5 0,-1.4 -1.1,-2.5 -2.5,-2.5 H 60.6 71.7 c 0.5,0 0.9,-0.2 1.3,-0.5 l 3.9,-3 2.5,10.5 H 68.7 c -3.1,0 -4.8,2.5 -4.8,4.8 V 79 c 0,4.7 7,4.6 7,-0.1 0,-4.4 0,-15 0,-15 h 13.4 c 3.2,0.1 6.3,-2.4 5.2,-7 z"
         id="path102" />
      <path
         d="M 94.2,45.8 91.3,59.7 C 90.5,63.3 87.8,65 84.6,65 h -8.9 c -3.5,0 -3.5,5 0,5 h 9.7 c 4.7,0 9.4,-3.3 10.6,-8.8 l 3,-14.5 c 0.7,-3.3 -4.1,-4.3 -4.8,-0.9 z"
         id="path104" />
    </g>
  </g>
</svg>
