<?xml version="1.0" encoding="UTF-8" standalone="no"?>
<svg
   xmlns:dc="http://purl.org/dc/elements/1.1/"
   xmlns:cc="http://creativecommons.org/ns#"
   xmlns:rdf="http://www.w3.org/1999/02/22-rdf-syntax-ns#"
   xmlns:svg="http://www.w3.org/2000/svg"
   xmlns="http://www.w3.org/2000/svg"
   xmlns:sodipodi="http://sodipodi.sourceforge.net/DTD/sodipodi-0.dtd"
   xmlns:inkscape="http://www.inkscape.org/namespaces/inkscape"
   width="32"
   height="32"
   viewBox="0 0 32 32"
   version="1.1"
   id="svg3116"
   inkscape:version="1.0.1 (3bc2e813f5, 2020-09-07)"
   sodipodi:docname="Rescuer.svg">
  <defs
     id="defs3110" />
  <sodipodi:namedview
     id="base"
     pagecolor="#ffffff"
     bordercolor="#666666"
     borderopacity="1.0"
     inkscape:pageopacity="0.0"
     inkscape:pageshadow="2"
     inkscape:zoom="5.6"
     inkscape:cx="7.4376449"
     inkscape:cy="0.53662708"
     inkscape:document-units="mm"
     inkscape:current-layer="layer1"
     inkscape:document-rotation="0"
     showgrid="false"
     inkscape:pagecheckerboard="true"
     units="px"
     inkscape:window-width="1267"
     inkscape:window-height="1040"
     inkscape:window-x="105"
     inkscape:window-y="0"
     inkscape:window-maximized="0" />
  <metadata
     id="metadata3113">
    <rdf:RDF>
      <cc:Work
         rdf:about="">
        <dc:format>image/svg+xml</dc:format>
        <dc:type
           rdf:resource="http://purl.org/dc/dcmitype/StillImage" />
        <dc:title />
      </cc:Work>
    </rdf:RDF>
  </metadata>
  <g
     inkscape:label="Layer 1"
     inkscape:groupmode="layer"
     id="layer1">
    <path
       d="m 27.094307,15.720159 c 0,-0.252758 -0.01806,-0.505517 -0.03611,-0.740222 0,-0.05416 -0.01806,-0.126379 -0.01806,-0.180542 0,-0.07222 -0.01805,-0.162487 -0.03611,-0.234705 -0.01806,-0.07222 -0.01806,-0.162487 -0.03611,-0.234704 -0.01806,-0.162488 -0.05416,-0.306921 -0.07222,-0.46941 -0.01805,-0.07222 -0.03611,-0.144433 -0.05416,-0.234704 -0.01805,-0.07222 -0.03611,-0.144434 -0.05416,-0.234704 -0.03611,-0.108326 -0.05416,-0.234705 -0.09027,-0.343031 -0.03611,-0.162487 -0.09027,-0.324975 -0.144433,-0.505517 -0.03611,-0.09027 -0.05416,-0.180542 -0.09027,-0.270813 C 25.343049,9.1484299 22.85157,6.65695 19.710138,5.5375894 19.565705,5.4834269 19.421271,5.4292642 19.276838,5.3931558 19.132404,5.3389932 18.969916,5.3028848 18.825482,5.2667764 c -0.03611,-0.018054 -0.07222,-0.018054 -0.108325,-0.036109 -0.07222,-0.018054 -0.144434,-0.036109 -0.198596,-0.054163 -0.07222,-0.018054 -0.144434,-0.036109 -0.216651,-0.054162 -0.126379,-0.018054 -0.252758,-0.054163 -0.379138,-0.072216 -0.180541,-0.018054 -0.324975,-0.036109 -0.487463,-0.054163 -0.07222,-0.018054 -0.162488,-0.018054 -0.234705,-0.036109 -0.05416,0 -0.126379,-0.018054 -0.180542,-0.018054 -0.252759,-0.018054 -0.487464,-0.036109 -0.740222,-0.036109 -0.09027,0 -0.198596,0 -0.288867,0 -0.09027,0 -0.198596,0 -0.288868,0 -0.252759,0 -0.505518,0.018054 -0.740222,0.036109 -0.05416,0 -0.108325,0.018054 -0.162488,0.018054 -0.07222,0 -0.162488,0.018054 -0.234705,0.036109 -0.234704,0.036109 -0.469409,0.072216 -0.704114,0.1083253 -0.07222,0.018054 -0.144433,0.036109 -0.234704,0.054162 -0.09027,0.018054 -0.162488,0.036109 -0.234705,0.054163 -0.09027,0.018054 -0.162487,0.036109 -0.252759,0.072217 -0.198596,0.054163 -0.397192,0.1083251 -0.595788,0.1805419 -0.09027,0.036109 -0.198597,0.072217 -0.288867,0.090271 C 9.1303755,6.656949 6.6388956,9.148429 5.519535,12.289861 c -0.018054,0.07222 -0.054163,0.144433 -0.072217,0.21665 -0.018054,0.07222 -0.054163,0.144433 -0.072216,0.21665 -0.036109,0.144434 -0.090271,0.306921 -0.1263795,0.451355 -0.018054,0.07222 -0.036109,0.144434 -0.054162,0.234705 -0.018054,0.09027 -0.036109,0.144433 -0.054163,0.216651 -0.018054,0.07222 -0.036109,0.144433 -0.054163,0.234703 -0.036109,0.234705 -0.072217,0.46941 -0.1083251,0.704114 -0.018054,0.07222 -0.018054,0.162489 -0.036109,0.234705 0,0.05416 -0.018054,0.12638 -0.018054,0.180542 -0.018054,0.252759 -0.036109,0.487464 -0.036109,0.740222 0,0.09027 0,0.198597 0,0.288868 0,0.09028 0,0.198596 0,0.288868 0,0.09027 0,0.180541 0.018054,0.270812 0,0.162488 0.018054,0.324976 0.036109,0.487463 0,0.05416 0.018054,0.108326 0.018054,0.162489 0,0.07222 0.018054,0.162487 0.036109,0.234704 0.036109,0.234705 0.072217,0.451355 0.1083253,0.68606 0.018054,0.07222 0.036109,0.162488 0.054162,0.234704 0,0.09027 0.018054,0.162488 0.036109,0.234705 0.018054,0.09027 0.036109,0.162487 0.072216,0.252759 0.054162,0.21665 0.1263794,0.4333 0.1985962,0.631897 0.018054,0.07222 0.054163,0.162488 0.072216,0.234704 1.1193606,3.141432 3.6108405,5.632912 6.7522721,6.734218 v 0 c 0.05416,0.01805 0.108326,0.03611 0.180542,0.05416 0.108325,0.03611 0.234705,0.07222 0.34303,0.108325 0.198596,0.05416 0.397193,0.108326 0.595789,0.162488 0.07222,0.01805 0.144433,0.03611 0.234704,0.05416 0.306921,0.07222 0.613843,0.12638 0.938818,0.162488 0.07222,0.01805 0.162489,0.01805 0.234705,0.03611 0.05416,0 0.12638,0.01806 0.180542,0.01806 0.234705,0.01805 0.487464,0.03611 0.740223,0.03611 0.09027,0 0.198596,0 0.288867,0 0.09027,0 0.198596,0 0.288867,0 0.09028,0 0.180542,0 0.270813,-0.01806 0.162488,0 0.324976,-0.01805 0.487464,-0.03611 0.05416,0 0.108325,-0.01805 0.162487,-0.01805 0.07222,0 0.162488,-0.01805 0.234705,-0.03611 0.306921,-0.03611 0.631897,-0.09027 0.920764,-0.162487 0.07222,-0.01806 0.144434,-0.03611 0.216651,-0.05417 0,0 0.01806,0 0.01806,0 0.306921,-0.07222 0.595788,-0.162488 0.884655,-0.252758 0.07222,-0.01806 0.144434,-0.05416 0.216651,-0.07222 3.141432,-1.11936 5.632911,-3.610841 6.752271,-6.752272 0.05416,-0.144433 0.108326,-0.288867 0.144434,-0.433301 0.03611,-0.144434 0.09027,-0.306921 0.12638,-0.451355 0.01805,-0.07222 0.03611,-0.144433 0.05416,-0.216651 0.01806,-0.07222 0.03611,-0.144433 0.05416,-0.234703 0.01805,-0.07222 0.03611,-0.144434 0.05416,-0.234705 0.01805,-0.07222 0.03611,-0.162489 0.03611,-0.234705 0.01806,-0.162488 0.05416,-0.306922 0.07222,-0.469409 0.01805,-0.07222 0.01805,-0.162489 0.03611,-0.234705 0,-0.05416 0.01805,-0.12638 0.01805,-0.180542 0.01806,-0.252759 0.03611,-0.487464 0.03611,-0.740222 0,-0.09027 0,-0.198597 0,-0.288867 -0.01805,-0.05416 -0.01805,-0.162489 -0.01805,-0.25276 z m -2.112342,-2.996997 -2.238721,0.649951 C 22.003022,11.495476 20.504523,9.9789232 18.608832,9.2567552 L 19.276838,7.018034 c 2.635913,0.9568728 4.7302,3.05116 5.705127,5.705128 z m -7.311952,8.756288 c -0.180542,0.05416 -0.343029,0.09027 -0.523572,0.144434 0,0 0,0 -0.01805,0 -0.180541,0.03611 -0.361083,0.07222 -0.559679,0.09027 -0.198597,0.01806 -0.379138,0.03611 -0.577735,0.03611 -0.198596,0 -0.379138,0 -0.577735,-0.03611 -0.09027,0 -0.180541,-0.01805 -0.288867,-0.03611 -0.09027,-0.01806 -0.180541,-0.03611 -0.270812,-0.05416 -0.180543,-0.03611 -0.361085,-0.09027 -0.541627,-0.144434 -0.180542,-0.05416 -0.34303,-0.108325 -0.523572,-0.180542 v 0 C 12.398191,20.721173 11.278831,19.601813 10.683041,18.21164 v 0 c -0.03611,-0.09027 -0.07222,-0.162488 -0.108325,-0.25276 -0.03611,-0.09027 -0.05416,-0.180541 -0.09027,-0.270812 -0.05416,-0.180542 -0.09027,-0.343031 -0.144434,-0.523572 0,0 0,0 0,-0.01806 -0.03611,-0.180542 -0.07222,-0.361084 -0.09027,-0.55968 -0.01806,-0.198596 -0.03611,-0.379139 -0.03611,-0.577735 0,-0.198596 0,-0.379138 0.03611,-0.577734 0,-0.09027 0.01805,-0.180542 0.03611,-0.288867 0.01806,-0.09027 0.03611,-0.180542 0.05416,-0.270813 0.03611,-0.180543 0.09027,-0.361085 0.144434,-0.541626 0.05416,-0.180542 0.108325,-0.343031 0.180542,-0.523572 v 0 c 0.577735,-1.390174 1.697095,-2.527588 3.087268,-3.105323 v 0 c 0.34303,-0.144434 0.686061,-0.252759 1.065199,-0.324976 0.180541,-0.03611 0.361084,-0.07222 0.55968,-0.09027 0.198596,-0.01805 0.379138,-0.03611 0.577734,-0.03611 0.198597,0 0.379138,0 0.577735,0.03611 0.09027,0 0.180542,0.01805 0.288867,0.03611 0.180542,0.03611 0.361084,0.07222 0.541626,0.108325 0.09027,0.01805 0.180542,0.05416 0.270814,0.07222 0.09027,0.01805 0.180541,0.05416 0.252758,0.09027 0.09027,0.03611 0.162488,0.05416 0.252759,0.09027 0,0 0,0 0,0 1.408228,0.577735 2.527588,1.697095 3.105322,3.087269 v 0 c 0.108326,0.252759 0.198597,0.523572 0.270814,0.794384 0.01805,0.09028 0.03611,0.180543 0.05416,0.270814 0.03611,0.180542 0.07222,0.361084 0.09027,0.55968 0.01806,0.198596 0.03611,0.379139 0.03611,0.577735 0,0.198596 0,0.379138 -0.03611,0.577734 0,0.09027 -0.01805,0.180542 -0.03611,0.288867 -0.01805,0.108325 -0.03611,0.198596 -0.05416,0.306921 -0.03611,0.180543 -0.07222,0.343031 -0.126379,0.505518 -0.05416,0.180543 -0.108325,0.34303 -0.180542,0.523572 v 0 c -0.577734,1.408229 -1.697095,2.527589 -3.087269,3.105323 v 0 c -0.162487,0.07222 -0.324975,0.144434 -0.505517,0.198596 z M 12.705108,7.018034 13.355059,9.2567552 C 11.477422,9.9969774 9.9608688,11.495476 9.2206465,13.391168 L 6.9819254,12.723162 C 7.9568523,10.087248 10.05114,7.9749068 12.705108,7.018034 Z m -5.7051283,12.276857 2.238721,-0.64995 c 0.7402223,1.877636 2.2387213,3.39419 4.1344123,4.134411 l -0.668005,2.238722 C 10.069194,24.043147 7.9568523,21.948859 6.9999797,19.294891 Z M 19.276838,25.00002 18.626886,22.761299 c 1.877637,-0.740223 3.39419,-2.238722 4.134413,-4.134413 l 2.238721,0.668005 c -0.974928,2.635915 -3.069215,4.730202 -5.723182,5.705129 z"
       id="path2"
       style="stroke-width:0.180542" />
  </g>
</svg>
