<?xml version="1.0" encoding="UTF-8" standalone="no"?>
<svg
   xmlns:dc="http://purl.org/dc/elements/1.1/"
   xmlns:cc="http://creativecommons.org/ns#"
   xmlns:rdf="http://www.w3.org/1999/02/22-rdf-syntax-ns#"
   xmlns:svg="http://www.w3.org/2000/svg"
   xmlns="http://www.w3.org/2000/svg"
   xmlns:sodipodi="http://sodipodi.sourceforge.net/DTD/sodipodi-0.dtd"
   xmlns:inkscape="http://www.inkscape.org/namespaces/inkscape"
   width="32"
   height="32"
   viewBox="0 0 32 32"
   version="1.1"
   id="svg3116"
   inkscape:version="1.0.1 (3bc2e813f5, 2020-09-07)"
   sodipodi:docname="ScoutCity.svg">
  <defs
     id="defs3110" />
  <sodipodi:namedview
     id="base"
     pagecolor="#ffffff"
     bordercolor="#666666"
     borderopacity="1.0"
     inkscape:pageopacity="0.0"
     inkscape:pageshadow="2"
     inkscape:zoom="11.2"
     inkscape:cx="8.1901586"
     inkscape:cy="22.36362"
     inkscape:document-units="mm"
     inkscape:current-layer="g3143"
     inkscape:document-rotation="0"
     showgrid="false"
     inkscape:pagecheckerboard="true"
     units="px"
     inkscape:window-width="1267"
     inkscape:window-height="1040"
     inkscape:window-x="270"
     inkscape:window-y="0"
     inkscape:window-maximized="0" />
  <metadata
     id="metadata3113">
    <rdf:RDF>
      <cc:Work
         rdf:about="">
        <dc:format>image/svg+xml</dc:format>
        <dc:type
           rdf:resource="http://purl.org/dc/dcmitype/StillImage" />
        <dc:title />
      </cc:Work>
    </rdf:RDF>
  </metadata>
  <g
     inkscape:label="Layer 1"
     inkscape:groupmode="layer"
     id="layer1">
    <g
       id="g3143"
       transform="matrix(3.7935882,0,0,3.7935882,39.307475,-132.60568)">
      <g
         id="g916"
         transform="matrix(0.43619064,0,0,0.43619064,-2.9309683,20.503879)">
        <polygon
           points="54,24 56,24 56,18 62,18 59,15 62,12 54,12 "
           id="polygon4"
           transform="matrix(0.26360268,0,0,0.26360268,-15.933005,35.485498)" />
        <polygon
           points="43,24 45,24 45,18 51,18 48,15 51,12 43,12 "
           id="polygon6"
           transform="matrix(0.26360268,0,0,0.26360268,-15.933005,35.485498)" />
        <polygon
           points="32,24 34,24 34,18 40,18 37,15 40,12 32,12 "
           id="polygon8"
           transform="matrix(0.26360268,0,0,0.26360268,-15.933005,35.485498)" />
        <rect
           x="-8.815732"
           y="42.075565"
           width="8.4352856"
           height="0.52720535"
           id="rect10"
           style="stroke-width:0.263603" />
        <path
           d="m -0.90765199,45.238797 v 1.318013 a 0.26360268,0.26360268 0 0 1 -0.26360271,0.263603 h -1.581616 A 0.26360268,0.26360268 0 0 1 -3.0164734,46.55681 v -1.318013 h -1.0544107 v 1.318013 a 0.26360268,0.26360268 0 0 1 -0.2636027,0.263603 h -1.581616 A 0.26360268,0.26360268 0 0 1 -6.1797055,46.55681 v -1.318013 h -1.0544107 v 1.318013 a 0.26360268,0.26360268 0 0 1 -0.2636027,0.263603 h -1.581616 A 0.26360268,0.26360268 0 0 1 -9.3429376,46.55681 v -1.318013 h -1.0544104 v 1.318013 a 0.26360268,0.26360268 0 0 1 -0.263603,0.263603 h -1.581616 A 0.26360268,0.26360268 0 0 1 -12.50617,46.55681 v -1.318013 h -1.05441 v 5.272054 h 2.636026 v -0.263603 a 1.3180135,1.3180135 0 0 1 2.6360271,0 v 0.263603 h 3.1632321 v -0.263603 a 1.3180134,1.3180134 0 0 1 2.6360267,0 v 0.263603 h 2.63602681 v -5.272054 z"
           id="path12"
           style="stroke-width:0.263603" />
        <rect
           x="-14.087786"
           y="41.548359"
           width="1.0544107"
           height="1.0544107"
           id="rect14"
           style="stroke-width:0.263603" />
        <rect
           x="-11.451759"
           y="41.548359"
           width="1.0544107"
           height="1.0544107"
           id="rect16"
           style="stroke-width:0.263603" />
        <polygon
           points="24,17 14,3.667 4,17 "
           id="polygon18"
           transform="matrix(0.26360268,0,0,0.26360268,-15.933005,35.485498)" />
        <path
           d="m -7.7613216,44.975194 a 0.26360268,0.26360268 0 0 1 0.2636027,-0.263602 h 1.5816161 a 0.26360268,0.26360268 0 0 1 0.2636027,0.263602 v 1.318014 h 1.0544107 v -1.318014 a 0.26360268,0.26360268 0 0 1 0.2636026,-0.263602 h 1.5816161 a 0.26360268,0.26360268 0 0 1 0.2636026,0.263602 v 1.318014 h 1.0544108 v -1.318014 a 0.26360268,0.26360268 0 0 1 0.2636026,-0.263602 h 0.79080811 V 43.129976 H -8.8157323 v 3.163232 h 1.0544107 z"
           id="path20"
           style="stroke-width:0.263603" />
        <path
           d="m -11.978964,44.975194 v 1.318014 h 1.05441 v -1.318014 a 0.26360268,0.26360268 0 0 1 0.263603,-0.263602 h 1.3180134 v -4.217643 h -5.7992594 v 11.071312 h 1.054411 v -6.590067 a 0.26360268,0.26360268 0 0 1 0.263603,-0.263602 h 1.581616 a 0.26360268,0.26360268 0 0 1 0.263603,0.263602 z m 0,-3.690437 a 0.26360268,0.26360268 0 0 1 0.263602,-0.263603 h 1.581616 a 0.26360268,0.26360268 0 0 1 0.263603,0.263603 v 1.581616 a 0.26360268,0.26360268 0 0 1 -0.263603,0.263603 h -1.581616 a 0.26360268,0.26360268 0 0 1 -0.263602,-0.263603 z m -0.527206,1.581616 a 0.26360268,0.26360268 0 0 1 -0.263602,0.263603 h -1.581616 a 0.26360268,0.26360268 0 0 1 -0.263603,-0.263603 v -1.581616 a 0.26360268,0.26360268 0 0 1 0.263603,-0.263603 h 1.581616 a 0.26360268,0.26360268 0 0 1 0.263602,0.263603 z"
           id="path22"
           style="stroke-width:0.263603" />
        <path
           d="m -3.8072814,49.45644 a 0.79080803,0.79080803 0 0 0 -0.790808,0.790808 v 1.318013 h 1.581616 v -1.318013 a 0.79080803,0.79080803 0 0 0 -0.790808,-0.790808 z"
           id="path24"
           style="stroke-width:0.263603" />
        <rect
           x="-2.4892681"
           y="51.038055"
           width="2.6360269"
           height="0.52720535"
           id="rect26"
           style="stroke-width:0.263603" />
        <rect
           x="-8.2885265"
           y="51.038055"
           width="3.1632321"
           height="0.52720535"
           id="rect28"
           style="stroke-width:0.263603" />
        <rect
           x="-13.56058"
           y="51.038055"
           width="2.6360269"
           height="0.52720535"
           id="rect30"
           style="stroke-width:0.263603" />
        <path
           d="m -9.6065403,49.45644 a 0.79080803,0.79080803 0 0 0 -0.7908077,0.790808 v 1.318013 h 1.5816157 v -1.318013 a 0.79080803,0.79080803 0 0 0 -0.790808,-0.790808 z"
           id="path32"
           style="stroke-width:0.263603" />
      </g>
    </g>
  </g>
</svg>
