<?xml version="1.0" encoding="UTF-8" standalone="no"?>
<svg
   xmlns:dc="http://purl.org/dc/elements/1.1/"
   xmlns:cc="http://creativecommons.org/ns#"
   xmlns:rdf="http://www.w3.org/1999/02/22-rdf-syntax-ns#"
   xmlns:svg="http://www.w3.org/2000/svg"
   xmlns="http://www.w3.org/2000/svg"
   xmlns:sodipodi="http://sodipodi.sourceforge.net/DTD/sodipodi-0.dtd"
   xmlns:inkscape="http://www.inkscape.org/namespaces/inkscape"
   width="32"
   height="32"
   viewBox="0 0 32 32"
   version="1.1"
   id="svg3116"
   inkscape:version="1.0.1 (3bc2e813f5, 2020-09-07)"
   sodipodi:docname="ScoutDesert.svg">
  <defs
     id="defs3110" />
  <sodipodi:namedview
     id="base"
     pagecolor="#ffffff"
     bordercolor="#666666"
     borderopacity="1.0"
     inkscape:pageopacity="0.0"
     inkscape:pageshadow="2"
     inkscape:zoom="15.839192"
     inkscape:cx="17.698743"
     inkscape:cy="23.754026"
     inkscape:document-units="mm"
     inkscape:current-layer="g34"
     inkscape:document-rotation="0"
     showgrid="false"
     inkscape:pagecheckerboard="true"
     units="px"
     inkscape:window-width="1267"
     inkscape:window-height="1040"
     inkscape:window-x="270"
     inkscape:window-y="0"
     inkscape:window-maximized="0" />
  <metadata
     id="metadata3113">
    <rdf:RDF>
      <cc:Work
         rdf:about="">
        <dc:format>image/svg+xml</dc:format>
        <dc:type
           rdf:resource="http://purl.org/dc/dcmitype/StillImage" />
        <dc:title />
      </cc:Work>
    </rdf:RDF>
  </metadata>
  <g
     inkscape:label="Layer 1"
     inkscape:groupmode="layer"
     id="layer1">
    <g
       id="g3143"
       transform="matrix(3.7935882,0,0,3.7935882,39.307475,-132.60568)">
      <g
         id="g34"
         transform="matrix(0.30736721,0,0,0.30736721,-9.8323193,36.010563)">
        <path
           d="M 22.5,13 C 21.673,13 21,13.673 21,14.5 V 15 H 20 V 12.5 C 20,11.673 19.327,11 18.5,11 17.673,11 17,11.673 17,12.5 V 18 H 16 V 17.5 C 16,16.673 15.327,16 14.5,16 13.673,16 13,16.673 13,17.5 v 1 c 0,1.378 1.121,2.5 2.5,2.5 H 17 v 2.5 c 0,0.276 0.224,0.5 0.5,0.5 h 2 C 19.776,24 20,23.776 20,23.5 V 18 h 2.5 c 0.827,0 1.5,-0.673 1.5,-1.5 v -2 C 24,13.673 23.327,13 22.5,13 Z"
           id="path2" />
        <path
           d="M 8.5,13 C 10.981,13 13,10.981 13,8.5 13,6.019 10.981,4 8.5,4 6.019,4 4,6.019 4,8.5 4,10.981 6.019,13 8.5,13 Z"
           id="path4" />
        <path
           d="M 8.5,3 C 8.776,3 9,2.776 9,2.5 v -2 C 9,0.224 8.776,0 8.5,0 8.224,0 8,0.224 8,0.5 v 2 C 8,2.776 8.224,3 8.5,3 Z"
           id="path6" />
        <path
           d="m 8,14.5 v 2 C 8,16.776 8.224,17 8.5,17 8.776,17 9,16.776 9,16.5 v -2 C 9,14.224 8.776,14 8.5,14 8.224,14 8,14.224 8,14.5 Z"
           id="path8" />
        <path
           d="M 5.067,3.554 C 5.159,3.715 5.328,3.804 5.5,3.804 5.585,3.804 5.671,3.783 5.75,3.737 5.989,3.599 6.071,3.293 5.933,3.054 l -1,-1.732 C 4.795,1.082 4.489,1.002 4.25,1.139 4.011,1.277 3.929,1.583 4.067,1.822 Z"
           id="path10" />
        <path
           d="m 11.25,13.263 c -0.239,0.138 -0.321,0.444 -0.183,0.683 l 1,1.732 c 0.092,0.161 0.261,0.25 0.433,0.25 0.085,0 0.171,-0.021 0.25,-0.067 0.239,-0.138 0.321,-0.444 0.183,-0.683 l -1,-1.732 c -0.137,-0.24 -0.444,-0.321 -0.683,-0.183 z"
           id="path12" />
        <path
           d="m 1.322,4.933 1.731,1 C 3.133,5.979 3.219,6 3.304,6 3.476,6 3.645,5.911 3.737,5.75 3.876,5.511 3.794,5.205 3.554,5.067 l -1.731,-1 C 1.585,3.93 1.277,4.01 1.14,4.25 1.001,4.489 1.083,4.795 1.322,4.933 Z"
           id="path14" />
        <path
           d="m 13.446,11.933 1.731,1 C 15.257,12.979 15.343,13 15.428,13 15.6,13 15.769,12.911 15.861,12.75 16,12.511 15.918,12.205 15.678,12.067 l -1.731,-1 c -0.239,-0.136 -0.545,-0.057 -0.683,0.183 -0.139,0.239 -0.057,0.545 0.182,0.683 z"
           id="path16" />
        <path
           d="m 0.5,9 h 2 C 2.776,9 3,8.776 3,8.5 3,8.224 2.776,8 2.5,8 h -2 C 0.224,8 0,8.224 0,8.5 0,8.776 0.224,9 0.5,9 Z"
           id="path18" />
        <path
           d="M 14,8.5 C 14,8.776 14.224,9 14.5,9 h 2 C 16.776,9 17,8.776 17,8.5 17,8.224 16.776,8 16.5,8 h -2 C 14.224,8 14,8.224 14,8.5 Z"
           id="path20" />
        <path
           d="m 3.054,11.067 -1.731,1 C 1.084,12.205 1.002,12.511 1.14,12.75 1.231,12.911 1.4,13 1.572,13 c 0.085,0 0.171,-0.021 0.25,-0.067 l 1.731,-1 C 3.792,11.795 3.874,11.489 3.736,11.25 3.599,11.01 3.292,10.929 3.054,11.067 Z"
           id="path22" />
        <path
           d="m 13.696,6 c 0.085,0 0.171,-0.021 0.25,-0.067 l 1.731,-1 C 15.916,4.795 15.998,4.489 15.86,4.25 15.722,4.01 15.417,3.928 15.177,4.067 l -1.731,1 C 13.207,5.205 13.125,5.511 13.263,5.75 13.355,5.911 13.524,6 13.696,6 Z"
           id="path24" />
        <path
           d="m 5.067,13.446 -1,1.732 c -0.139,0.239 -0.057,0.545 0.183,0.683 0.079,0.045 0.165,0.067 0.25,0.067 0.172,0 0.341,-0.089 0.433,-0.25 l 1,-1.732 C 6.072,13.707 5.99,13.401 5.75,13.263 5.513,13.127 5.205,13.207 5.067,13.446 Z"
           id="path26" />
        <path
           d="m 11.25,3.737 c 0.079,0.045 0.165,0.067 0.25,0.067 0.172,0 0.341,-0.089 0.433,-0.25 l 1,-1.732 C 13.072,1.583 12.99,1.277 12.75,1.139 12.512,1.003 12.205,1.082 12.067,1.322 l -1,1.732 c -0.138,0.239 -0.056,0.545 0.183,0.683 z"
           id="path28" />
        <path
           d="M 21,19.551 V 24 h 2.5 c 0.276,0 0.5,-0.224 0.5,-0.5 v -2 C 24,21.326 23.91,21.165 23.762,21.074 23.551,20.944 22.2,20.125 21,19.551 Z"
           id="path30" />
        <path
           d="m 12,18.5 v -0.492 c -0.976,0.048 -2.285,0.191 -3.537,0.582 1.181,0.949 2.101,1.921 2.484,2.687 0.123,0.247 0.023,0.547 -0.224,0.671 C 10.651,21.983 10.575,22 10.5,22 10.317,22 10.141,21.899 10.053,21.724 9.552,20.722 7.679,19.062 5.543,17.787 3.593,16.756 1.533,16 0.5,16 0.224,16 0,16.224 0,16.5 v 7 C 0,23.776 0.224,24 0.5,24 H 16 V 22 H 15.5 C 13.57,22 12,20.43 12,18.5 Z"
           id="path32" />
      </g>
    </g>
  </g>
</svg>
