<?xml version="1.0" encoding="UTF-8" standalone="no"?>
<svg
   xmlns:dc="http://purl.org/dc/elements/1.1/"
   xmlns:cc="http://creativecommons.org/ns#"
   xmlns:rdf="http://www.w3.org/1999/02/22-rdf-syntax-ns#"
   xmlns:svg="http://www.w3.org/2000/svg"
   xmlns="http://www.w3.org/2000/svg"
   xmlns:sodipodi="http://sodipodi.sourceforge.net/DTD/sodipodi-0.dtd"
   xmlns:inkscape="http://www.inkscape.org/namespaces/inkscape"
   width="32"
   height="32"
   viewBox="0 0 32 32"
   version="1.1"
   id="svg3116"
   inkscape:version="1.0.1 (3bc2e813f5, 2020-09-07)"
   sodipodi:docname="ScoutForest.svg">
  <defs
     id="defs3110" />
  <sodipodi:namedview
     id="base"
     pagecolor="#ffffff"
     bordercolor="#666666"
     borderopacity="1.0"
     inkscape:pageopacity="0.0"
     inkscape:pageshadow="2"
     inkscape:zoom="11.313709"
     inkscape:cx="9.8018475"
     inkscape:cy="14.557614"
     inkscape:document-units="mm"
     inkscape:current-layer="g852"
     inkscape:document-rotation="0"
     showgrid="false"
     inkscape:pagecheckerboard="true"
     units="px"
     inkscape:window-width="1275"
     inkscape:window-height="1040"
     inkscape:window-x="148"
     inkscape:window-y="0"
     inkscape:window-maximized="0" />
  <metadata
     id="metadata3113">
    <rdf:RDF>
      <cc:Work
         rdf:about="">
        <dc:format>image/svg+xml</dc:format>
        <dc:type
           rdf:resource="http://purl.org/dc/dcmitype/StillImage" />
        <dc:title />
      </cc:Work>
    </rdf:RDF>
  </metadata>
  <g
     inkscape:label="Layer 1"
     inkscape:groupmode="layer"
     id="layer1">
    <g
       id="g3143"
       transform="matrix(3.7935882,0,0,3.7935882,39.307475,-132.60568)">
      <g
         id="g852"
         transform="matrix(0.58398589,0,0,0.58398589,-0.01515879,18.478598)">
        <path
           id="path2"
           style="stroke-width:0.260855"
           d="m -12.222655,30.651987 c -0.896249,0 -1.555429,0.826459 -1.370907,1.678303 -0.518818,0.193546 -0.8247,0.68198 -0.818136,1.188798 0.339625,0.216707 0.555051,0.617336 0.45932,1.086062 0.399908,0.167834 0.656626,0.559424 0.599496,0.97901 0.285649,0.223777 0.457557,0.559252 0.457557,0.922893 0,0.195806 -0.05713,0.363974 -0.142821,0.531808 0.507842,0.454982 0.577371,1.022061 0.391436,1.495278 0.06251,-0.03626 0.125111,-0.06706 0.186901,-0.112233 0.09461,0.04064 0.147899,0.07152 0.20189,0.102736 0.05356,-0.03127 0.129698,-0.06533 0.245969,-0.102736 1.871579,1.368114 4.1386434,-1.264852 2.3988666,-2.839473 0.3426827,-0.67115 0.1848757,-1.471018 -0.4214106,-1.961473 0.05272,-0.542084 -0.263688,-1.084162 -0.817254,-1.29067 0.184522,-0.903471 -0.527378,-1.678303 -1.370907,-1.678303 z m -0.03526,7.872655 c -0.354258,0.206827 0.453148,0.262025 0,0 z" />
        <path
           d="m -5.4831215,39.316102 c 1.3180133,0.955099 2.8996294,-0.877658 1.6606968,-1.987636 0.079081,-0.154881 0.1318013,-0.309762 0.1318013,-0.490456 0,-0.335575 -0.1581616,-0.645337 -0.4217642,-0.851844 0.05272,-0.387202 -0.1845219,-0.748591 -0.5535656,-0.903472 0.1318013,-0.645336 -0.3690438,-1.161606 -0.9489697,-1.161606 -0.6326464,0 -1.080771,0.567896 -0.9489696,1.161606 -0.3690438,0.154881 -0.6062862,0.51627 -0.5535656,0.903472 -0.4217643,0.335574 -0.5272054,0.903471 -0.289963,1.368113 -0.8387688,1.25683 0.3426835,2.942735 1.6606969,1.987637 0.2648814,0.682982 0.1112042,0.597676 0.2636027,-0.02581 z"
           id="path4"
           sodipodi:nodetypes="ccsccscccccc"
           style="stroke-width:0.260855" />
        <path
           style="stroke-width:0.260855"
           d="m -12.038013,40.254885 v -1.78113 c -0.07908,-0.05163 -0.158162,-0.103253 -0.210882,-0.180694 -0.07908,0.07744 -0.131801,0.129068 -0.210882,0.180694 v 1.806943"
           id="path1030" />
        <path
           style="stroke-width:0.260855"
           d="M -5.4567613,40.606776 V 39.36773 c -0.05272,-0.02581 -0.105441,-0.07744 -0.1581616,-0.129068 -0.052721,0.05163 -0.105441,0.07744 -0.1581616,0.129068 v 1.187419"
           id="path16" />
        <path
           d="m -15.035376,39.234839 c 1.318013,0.955098 2.899629,-0.877658 1.660696,-1.987637 0.07908,-0.154881 0.131802,-0.309762 0.131802,-0.490455 0,-0.335576 -0.158162,-0.645337 -0.421765,-0.851845 0.05272,-0.387202 -0.184521,-0.748591 -0.553565,-0.903472 0.131801,-0.645336 -0.369044,-1.161606 -0.94897,-1.161606 -0.632646,0 -1.080771,0.567896 -0.948969,1.161606 -0.369044,0.154881 -0.606287,0.51627 -0.553566,0.903472 -0.421764,0.335575 -0.527205,0.903471 -0.289963,1.368114 -1.212572,1.084165 0.342683,2.942734 1.660697,1.987637 0.264881,0.682981 0.111204,0.597675 0.263603,-0.02581 z"
           id="path4-4"
           sodipodi:nodetypes="ccsccsccccc"
           style="stroke:none;stroke-width:0.260855" />
        <rect
           style="fill:#000000;stroke:#000000;stroke-width:0.363373"
           id="rect924"
           width="0.017214602"
           height="1.4173069"
           x="-15.1554"
           y="39.335217" />
        <path
           id="path926"
           style="stroke-width:0.311083"
           d="m -10.149103,40.127285 c -3.66246,0 -6.710544,0.297988 -7.567758,0.713224 v 1.817884 h 14.4443312 v -2.02859 c -1.3108276,-0.30074 -3.8749541,-0.502518 -6.8765732,-0.502518 z" />
        <path
           id="path4-6"
           style="stroke-width:0.405521"
           d="m -7.5985998,29.43729 c -0.9170904,0 -1.5381651,0.394096 -1.3471031,1.383909 -0.5349711,0.258214 -0.9069027,0.336069 -0.8304787,0.9816 -0.1795209,0.164271 -0.3148724,0.364122 -0.4143574,0.581017 0.2739378,0.294598 0.4144021,0.691924 0.3755663,1.091242 0.6861852,0.555089 0.8930068,1.308066 0.5051638,2.067662 0.710156,0.642742 0.5003332,1.826551 0.2644839,2.512274 0.3163764,-0.03305 0.8167949,0.277214 1.1341594,0.01272 0.00361,-0.205956 0.1719877,-0.504876 0.2182322,-0.636905 -0.2749037,-0.538402 -0.1528233,-1.196217 0.3358943,-1.585063 -0.06109,-0.448668 0.2141855,-0.867744 0.6418135,-1.047213 -0.1527244,-0.687958 0.3563196,-1.258016 1.089396,-1.258016 0.273155,0 0.547488,0.131964 0.7472784,0.299523 0.046219,-0.157953 0.069371,-0.437653 0.069371,-0.617074 0,-0.55946 -0.2288357,-1.075885 -0.6109568,-1.420168 0.076424,-0.645531 -0.2399664,-0.723386 -0.7749361,-0.9816 0.1910601,-1.075882 -0.5628595,-1.383909 -1.4035264,-1.383909 z m 3.0847603,5.335344 c -0.00163,0.0089 -8.125e-4,0.01699 -0.00266,0.0259 0.00487,0.002 0.00928,0.0048 0.014106,0.0069 -0.00429,-0.0109 -0.00696,-0.02193 -0.011461,-0.03281 z"
           sodipodi:nodetypes="sccccccccccscsccsccccc" />
        <path
           style="stroke-width:0.338808"
           d="m -7.8858286,40.651325 v -3.004741 c -0.07908,-0.08709 -0.158162,-0.174187 -0.210882,-0.304829 -0.07908,0.13064 -0.131801,0.217736 -0.210882,0.304829 v 3.048288"
           id="path1030-7" />
        <path
           d="m -9.6339338,40.383239 c 0.6064824,0.2611 1.3342616,-0.23993 0.7641677,-0.543372 0.036389,-0.04233 0.060649,-0.08468 0.060649,-0.134079 0,-0.09174 -0.072778,-0.176418 -0.1940748,-0.232873 0.024259,-0.105856 -0.084907,-0.204647 -0.2547224,-0.246988 0.060648,-0.17642 -0.1698153,-0.317555 -0.4366677,-0.317555 -0.2911115,0 -0.497316,0.155248 -0.436667,0.317555 -0.169815,0.04233 -0.278982,0.141136 -0.254723,0.246988 -0.194074,0.09174 -0.242593,0.246987 -0.133426,0.37401 -0.557964,0.296384 0.157685,0.804472 0.7641679,0.543372 0.1218847,0.18671 0.05117,0.16339 0.1212967,-0.0071 z"
           id="path4-4-3"
           sodipodi:nodetypes="ccsccsccccc"
           style="stroke:none;stroke-width:0.0925183" />
      </g>
    </g>
  </g>
</svg>
