<?xml version="1.0" encoding="UTF-8" standalone="no"?>
<svg
   xmlns:dc="http://purl.org/dc/elements/1.1/"
   xmlns:cc="http://creativecommons.org/ns#"
   xmlns:rdf="http://www.w3.org/1999/02/22-rdf-syntax-ns#"
   xmlns:svg="http://www.w3.org/2000/svg"
   xmlns="http://www.w3.org/2000/svg"
   xmlns:sodipodi="http://sodipodi.sourceforge.net/DTD/sodipodi-0.dtd"
   xmlns:inkscape="http://www.inkscape.org/namespaces/inkscape"
   width="32"
   height="32"
   viewBox="0 0 32 32"
   version="1.1"
   id="svg3116"
   inkscape:version="1.0.1 (3bc2e813f5, 2020-09-07)"
   sodipodi:docname="ScoutSea.svg">
  <defs
     id="defs3110" />
  <sodipodi:namedview
     id="base"
     pagecolor="#ffffff"
     bordercolor="#666666"
     borderopacity="1.0"
     inkscape:pageopacity="0.0"
     inkscape:pageshadow="2"
     inkscape:zoom="8"
     inkscape:cx="25.950449"
     inkscape:cy="20.685304"
     inkscape:document-units="mm"
     inkscape:current-layer="g3143"
     inkscape:document-rotation="0"
     showgrid="false"
     inkscape:pagecheckerboard="true"
     units="px"
     inkscape:window-width="1267"
     inkscape:window-height="1040"
     inkscape:window-x="747"
     inkscape:window-y="21"
     inkscape:window-maximized="0" />
  <metadata
     id="metadata3113">
    <rdf:RDF>
      <cc:Work
         rdf:about="">
        <dc:format>image/svg+xml</dc:format>
        <dc:type
           rdf:resource="http://purl.org/dc/dcmitype/StillImage" />
        <dc:title />
      </cc:Work>
    </rdf:RDF>
  </metadata>
  <g
     inkscape:label="Layer 1"
     inkscape:groupmode="layer"
     id="layer1">
    <g
       id="g3143"
       transform="matrix(3.7935882,0,0,3.7935882,39.307475,-132.60568)">
      <g
         id="g20"
         transform="matrix(0.11490216,0,0,0.11490216,-8.4276085,36.274113)">
        <g
           id="g952"
           transform="matrix(1.2533232,0,0,1.2533232,-17.46131,-6.3895149)">
          <path
             d="M 58.873,44.219 C 58.571,44.459 58.31,44.66 58,44.799 V 39 h 2 v -2 h -2.051 c -0.126,-1.64 -0.558,-3.192 -1.238,-4.607 l 1.779,-1.027 -1,-1.732 -1.773,1.023 C 54.809,29.336 53.664,28.19 52.342,27.282 l 1.023,-1.773 -1.732,-1 -1.027,1.779 C 49.191,25.608 47.64,25.175 45.999,25.05 V 23 h -2 v 2.051 c -1.64,0.126 -3.192,0.558 -4.607,1.238 l -1.027,-1.779 -1.732,1 1.023,1.773 c -1.321,0.908 -2.467,2.053 -3.375,3.375 l -1.773,-1.023 -1,1.732 1.779,1.027 c -0.68,1.415 -1.113,2.966 -1.238,4.607 H 30 v 2 h 2 v 4.001 c -0.005,0 -0.01,-0.001 -0.016,-0.001 -1.601,0 -2.445,0.676 -3.124,1.219 -0.49,0.392 -0.858,0.661 -1.481,0.744 -0.214,-0.35 -0.398,-0.653 -0.376,-0.636 C 25.694,41.459 25,38.339 25,35.169 V 23 h -3.043 c -0.953,1.213 -2.464,2 -4.129,2 h -0.29 C 18.493,27.368 19,29.92 19,32.472 V 44.11 c -0.046,0.037 -0.094,0.074 -0.139,0.11 C 18.274,44.69 17.886,45 16.987,45 16.892,45 16.822,44.983 16.737,44.976 16.824,44.967 16.919,44.965 17,44.951 V 41 h -2 v 3.129 C 14.34,43.603 13.505,43 11.992,43 10.391,43 9.547,43.676 8.868,44.22 8.28,44.689 7.892,45 6.994,45 6.097,45 5.709,44.689 5.122,44.22 4.443,43.676 3.599,43 2,43 v 2 c 0.897,0 1.285,0.311 1.872,0.78 C 4.55,46.324 5.394,47 6.994,47 8.595,47 9.439,46.324 10.118,45.78 10.705,45.31 11.094,45 11.992,45 c 0.897,0 1.286,0.311 1.873,0.78 0.679,0.544 1.523,1.22 3.123,1.22 1.6,0 2.445,-0.676 3.124,-1.219 0.586,-0.47 0.974,-0.781 1.873,-0.781 0.899,0 1.288,0.311 1.875,0.781 0.679,0.543 1.524,1.219 3.125,1.219 1.601,0 2.446,-0.676 3.125,-1.219 0.587,-0.47 0.975,-0.781 1.874,-0.781 0.899,0 1.288,0.311 1.875,0.781 0.68,0.543 1.525,1.219 3.125,1.219 1.601,0 2.446,-0.676 3.125,-1.219 0.589,-0.47 0.977,-0.781 1.877,-0.781 0.899,0 1.287,0.311 1.875,0.781 0.679,0.543 1.523,1.219 3.123,1.219 1.602,0 2.447,-0.676 3.126,-1.219 0.589,-0.47 0.977,-0.781 1.877,-0.781 0.901,0 1.312,0.328 1.879,0.781 0.68,0.543 1.526,1.219 3.128,1.219 1.602,0 2.448,-0.676 3.127,-1.219 C 60.689,45.328 61.099,45 62,45 v -2 c -1.602,0 -2.448,0.676 -3.127,1.219 z M 46.984,45 C 46.086,45 45.697,44.689 45.11,44.22 44.431,43.676 43.586,43 41.986,43 41.141,43 40.511,43.19 40,43.447 V 38 c 0,-2.757 2.243,-5 5,-5 2.757,0 5,2.243 5,5 v 5.448 c -0.457,0.23 -0.818,0.515 -1.139,0.771 C 48.273,44.689 47.884,45 46.984,45 Z"
             id="path2" />
          <path
             d="M 56.994,51 C 56.093,51 55.683,50.672 55.115,50.219 54.436,49.676 53.589,49 51.987,49 50.385,49 49.54,49.676 48.861,50.219 48.273,50.689 47.884,51 46.984,51 46.086,51 45.697,50.689 45.11,50.22 44.431,49.676 43.586,49 41.986,49 40.385,49 39.54,49.676 38.861,50.219 38.273,50.689 37.884,51 36.984,51 36.085,51 35.696,50.689 35.109,50.219 34.43,49.676 33.585,49 31.984,49 30.383,49 29.539,49.676 28.86,50.219 28.272,50.689 27.884,51 26.985,51 26.086,51 25.697,50.689 25.11,50.219 24.431,49.676 23.585,49 21.985,49 20.385,49 19.54,49.676 18.861,50.22 18.274,50.69 17.886,51 16.987,51 16.089,51 15.701,50.689 15.114,50.22 14.436,49.676 13.591,49 11.992,49 10.391,49 9.547,49.676 8.868,50.22 8.28,50.689 7.892,51 6.994,51 6.097,51 5.709,50.689 5.122,50.22 4.443,49.676 3.599,49 2,49 v 2 c 0.897,0 1.285,0.311 1.872,0.78 C 4.55,52.324 5.394,53 6.994,53 8.595,53 9.439,52.324 10.118,51.78 10.705,51.31 11.094,51 11.992,51 c 0.897,0 1.286,0.311 1.873,0.78 0.679,0.544 1.523,1.22 3.123,1.22 1.6,0 2.445,-0.676 3.124,-1.219 0.586,-0.47 0.974,-0.781 1.873,-0.781 0.899,0 1.288,0.311 1.875,0.781 0.679,0.543 1.524,1.219 3.125,1.219 1.601,0 2.446,-0.676 3.125,-1.219 0.587,-0.47 0.975,-0.781 1.874,-0.781 0.899,0 1.288,0.311 1.875,0.781 0.68,0.543 1.525,1.219 3.125,1.219 1.601,0 2.446,-0.676 3.125,-1.219 0.589,-0.47 0.977,-0.781 1.877,-0.781 0.899,0 1.287,0.311 1.875,0.781 0.679,0.543 1.523,1.219 3.123,1.219 1.602,0 2.447,-0.676 3.126,-1.219 0.589,-0.47 0.977,-0.781 1.877,-0.781 0.901,0 1.312,0.328 1.879,0.781 0.68,0.543 1.526,1.219 3.128,1.219 1.602,0 2.448,-0.676 3.127,-1.219 C 60.689,51.328 61.099,51 62,51 v -2 c -1.602,0 -2.448,0.676 -3.127,1.219 C 58.305,50.672 57.895,51 56.994,51 Z"
             id="path4-0" />
          <path
             d="M 56.994,57 C 56.093,57 55.683,56.672 55.115,56.219 54.436,55.676 53.589,55 51.987,55 50.385,55 49.54,55.676 48.861,56.219 48.273,56.689 47.884,57 46.984,57 46.086,57 45.697,56.689 45.11,56.22 44.431,55.676 43.586,55 41.986,55 40.385,55 39.54,55.676 38.861,56.219 38.273,56.689 37.884,57 36.984,57 36.085,57 35.696,56.689 35.109,56.219 34.43,55.676 33.585,55 31.984,55 30.383,55 29.539,55.676 28.86,56.219 28.272,56.689 27.884,57 26.985,57 26.086,57 25.697,56.689 25.11,56.219 24.431,55.676 23.585,55 21.985,55 20.385,55 19.54,55.676 18.861,56.22 18.274,56.69 17.886,57 16.987,57 16.089,57 15.701,56.689 15.114,56.22 14.436,55.676 13.591,55 11.992,55 10.391,55 9.547,55.676 8.868,56.22 8.28,56.689 7.892,57 6.994,57 6.097,57 5.709,56.689 5.122,56.22 4.443,55.676 3.599,55 2,55 v 2 c 0.897,0 1.285,0.311 1.872,0.78 C 4.55,58.324 5.394,59 6.994,59 8.595,59 9.439,58.324 10.118,57.78 10.705,57.31 11.094,57 11.992,57 c 0.897,0 1.286,0.311 1.873,0.78 0.679,0.544 1.523,1.22 3.123,1.22 1.6,0 2.445,-0.676 3.124,-1.219 0.586,-0.47 0.974,-0.781 1.873,-0.781 0.899,0 1.288,0.311 1.875,0.781 0.679,0.543 1.524,1.219 3.125,1.219 1.601,0 2.446,-0.676 3.125,-1.219 0.587,-0.47 0.975,-0.781 1.874,-0.781 0.899,0 1.288,0.311 1.875,0.781 0.68,0.543 1.525,1.219 3.125,1.219 1.601,0 2.446,-0.676 3.125,-1.219 0.589,-0.47 0.977,-0.781 1.877,-0.781 0.899,0 1.287,0.311 1.875,0.781 0.679,0.543 1.523,1.219 3.123,1.219 1.602,0 2.447,-0.676 3.126,-1.219 0.589,-0.47 0.977,-0.781 1.877,-0.781 0.901,0 1.312,0.328 1.879,0.781 0.68,0.543 1.526,1.219 3.128,1.219 1.602,0 2.448,-0.676 3.127,-1.219 C 60.689,57.328 61.099,57 62,57 v -2 c -1.602,0 -2.448,0.676 -3.127,1.219 C 58.305,56.672 57.895,57 56.994,57 Z"
             id="path6-9" />
          <rect
             x="15"
             y="37"
             width="2"
             height="2"
             id="rect8" />
          <path
             d="m 16.931,31 c -0.056,-0.671 -0.149,-1.339 -0.28,-2 h -1.959 c 0.117,0.662 0.196,1.33 0.246,2 z"
             id="path10-7" />
          <path
             d="m 13.538,25 c 0.264,0.654 0.495,1.321 0.688,2 h 1.91 c -0.218,-0.682 -0.477,-1.35 -0.774,-2 z"
             id="path12-2" />
          <rect
             x="15"
             y="33"
             width="2"
             height="2"
             id="rect14" />
          <path
             d="M 20.985,20.298 C 21.067,19.438 20.796,18.615 20.22,17.982 19.652,17.358 18.843,17 18,17 v -2 c 1.406,0 2.754,0.597 3.7,1.637 0.945,1.04 1.411,2.443 1.276,3.851 C 22.96,20.664 22.911,20.83 22.875,21 h 2.737 L 25.318,20.118 C 25.107,19.483 25,18.823 25,18.156 25,17.027 25.308,15.947 25.87,15 H 23 c -0.552,0 -1,-0.448 -1,-1 0,-0.552 0.448,-1 1,-1 h 2.866 C 25.14,11.941 24.626,10.768 24.324,9.525 23.003,11.077 21.049,12 19,12 h -3.716 c -0.957,0 -1.917,0.264 -2.673,0.851 C 11.578,13.653 11,14.843 11,16.121 v 1.497 L 8.155,19.04 C 7.447,19.395 7,20.118 7,20.91 v 0 C 7,22.064 7.936,23 9.09,23 h 8.738 c 1.626,0 3.013,-1.187 3.157,-2.702 z M 14,16 v 0 c -0.552,0 -1,-0.448 -1,-1 v 0 c 0,-0.552 0.448,-1 1,-1 v 0 c 0.552,0 1,0.448 1,1 v 0 c 0,0.552 -0.448,1 -1,1 z"
             id="path16" />
          <path
             d="M 22.015,8.976 C 20.631,8.995 19.25,8.524 18.204,7.602 L 16.766,10 H 19 c 1.097,0 2.154,-0.373 3.015,-1.024 z"
             id="path18" />
        </g>
      </g>
      <g
         id="g941"
         transform="matrix(1.0382072,0,0,1.0382072,10.809112,1.9779938)">
        <g
           id="g1003"
           transform="translate(-5.2522307,3.2388756)">
          <path
             d="m -7.8220918,30.520641 c 0.7625781,0 1.3831525,-0.620575 1.3831525,-1.383153 0,-0.762578 -0.6205744,-1.383152 -1.3831525,-1.383152 -0.7625781,0 -1.3831525,0.620574 -1.3831525,1.383152 0,0.762578 0.6205744,1.383153 1.3831525,1.383153 z"
             id="path4-9"
             style="stroke-width:0.307366" />
          <path
             d="m -7.8220918,27.446969 c 0.084833,0 0.1536835,-0.06885 0.1536835,-0.153684 v -0.614734 c 0,-0.08483 -0.06885,-0.153684 -0.1536835,-0.153684 -0.084833,0 -0.1536836,0.06885 -0.1536836,0.153684 v 0.614734 c 0,0.08483 0.06885,0.153684 0.1536836,0.153684 z"
             id="path6-0"
             style="stroke-width:0.307366" />
          <path
             d="m -7.9757754,30.981692 v 0.614734 c 0,0.08483 0.06885,0.153683 0.1536836,0.153683 0.084833,0 0.1536835,-0.06885 0.1536835,-0.153683 v -0.614734 c 0,-0.08483 -0.06885,-0.153684 -0.1536835,-0.153684 -0.084833,0 -0.1536836,0.06885 -0.1536836,0.153684 z"
             id="path8-5"
             style="stroke-width:0.307366" />
          <path
             d="m -8.8772835,27.61725 c 0.028278,0.04949 0.080223,0.07684 0.13309,0.07684 0.026126,0 0.05256,-0.0065 0.076842,-0.02059 0.073461,-0.04242 0.098665,-0.136471 0.056248,-0.209932 l -0.3073673,-0.53236 c -0.042417,-0.07377 -0.136471,-0.09836 -0.2099318,-0.05625 -0.073461,0.04242 -0.098665,0.136471 -0.056248,0.209932 z"
             id="path10-6"
             style="stroke-width:0.307366" />
          <path
             d="m -6.9768319,30.601478 c -0.073461,0.04242 -0.098665,0.136471 -0.056248,0.209932 l 0.3073673,0.53236 c 0.028278,0.04949 0.080223,0.07684 0.1330901,0.07684 0.026126,0 0.05256,-0.0065 0.076842,-0.02059 0.073461,-0.04242 0.098665,-0.136471 0.056248,-0.209932 l -0.307367,-0.532359 c -0.042109,-0.07377 -0.1364711,-0.09867 -0.2099319,-0.05625 z"
             id="path12-6"
             style="stroke-width:0.307366" />
          <path
             d="m -10.028374,28.041109 0.532053,0.307368 c 0.024589,0.01414 0.051023,0.02059 0.077149,0.02059 0.052867,0 0.1048122,-0.02736 0.13309,-0.07684 0.042724,-0.07346 0.01752,-0.167516 -0.056248,-0.209932 l -0.5320527,-0.307368 c -0.073153,-0.04211 -0.1678223,-0.01752 -0.2099313,0.05625 -0.04272,0.07346 -0.01752,0.167515 0.05594,0.209931 z"
             id="path14-6"
             style="stroke-width:0.307366" />
          <path
             d="m -6.3018535,30.19268 0.5320525,0.307367 c 0.024589,0.01414 0.051023,0.02059 0.077149,0.02059 0.052867,0 0.1048121,-0.02736 0.1330898,-0.07684 0.042724,-0.07346 0.017519,-0.167515 -0.056248,-0.209932 l -0.5320527,-0.307367 c -0.073461,-0.0418 -0.167515,-0.01752 -0.2099319,0.05625 -0.042724,0.07346 -0.017519,0.167515 0.055941,0.209932 z"
             id="path16-5"
             style="stroke-width:0.307366" />
          <path
             d="m -10.281029,29.291172 h 0.6147339 c 0.084833,0 0.1536836,-0.06885 0.1536836,-0.153684 0,-0.08483 -0.06885,-0.153683 -0.1536836,-0.153683 h -0.6147339 c -0.08483,0 -0.153684,0.06885 -0.153684,0.153683 0,0.08483 0.06885,0.153684 0.153684,0.153684 z"
             id="path18-8"
             style="stroke-width:0.307366" />
          <path
             d="m -6.1315722,29.137488 c 0,0.08483 0.06885,0.153684 0.1536838,0.153684 h 0.6147343 c 0.084833,0 0.1536835,-0.06885 0.1536835,-0.153684 0,-0.08483 -0.06885,-0.153683 -0.1536835,-0.153683 h -0.6147343 c -0.084833,0 -0.1536838,0.06885 -0.1536838,0.153683 z"
             id="path20"
             style="stroke-width:0.307366" />
          <path
             d="m -9.4960136,29.9265 -0.5320524,0.307367 c -0.07346,0.04242 -0.09866,0.136471 -0.05625,0.209932 0.02797,0.04949 0.07992,0.07684 0.1327826,0.07684 0.026126,0 0.05256,-0.0065 0.076842,-0.02059 l 0.5320526,-0.307368 c 0.073461,-0.04242 0.098665,-0.136471 0.056248,-0.209932 -0.042109,-0.07377 -0.136471,-0.09867 -0.2096244,-0.05625 z"
             id="path22"
             style="stroke-width:0.307366" />
          <path
             d="m -6.2250117,28.36907 c 0.026126,0 0.05256,-0.0065 0.076842,-0.02059 l 0.5320528,-0.307368 c 0.073461,-0.04242 0.098665,-0.136471 0.056248,-0.209931 -0.042416,-0.07377 -0.1361637,-0.09897 -0.2099318,-0.05625 l -0.5320525,0.307368 c -0.073461,0.04242 -0.098665,0.136471 -0.056248,0.209931 0.028278,0.04949 0.080223,0.07684 0.1330895,0.07684 z"
             id="path24"
             style="stroke-width:0.307366" />
          <path
             d="m -8.8772835,30.657727 -0.3073672,0.532359 c -0.042724,0.07346 -0.01752,0.167516 0.056248,0.209932 0.024282,0.01383 0.050716,0.02059 0.076842,0.02059 0.052867,0 0.1048123,-0.02736 0.13309,-0.07684 l 0.3073673,-0.532359 c 0.042724,-0.07346 0.01752,-0.167515 -0.056248,-0.209932 -0.072846,-0.0418 -0.1675152,-0.01721 -0.2099321,0.05625 z"
             id="path26"
             style="stroke-width:0.307366" />
          <path
             d="m -6.9768319,27.673498 c 0.024283,0.01383 0.050716,0.02059 0.076842,0.02059 0.052867,0 0.1048121,-0.02736 0.1330901,-0.07684 l 0.307367,-0.53236 c 0.042724,-0.07346 0.01752,-0.167515 -0.056248,-0.209932 -0.073154,-0.0418 -0.1675153,-0.01752 -0.2099319,0.05625 l -0.3073673,0.53236 c -0.042417,0.07346 -0.017213,0.167516 0.056248,0.209932 z"
             id="path28"
             style="stroke-width:0.307366" />
        </g>
      </g>
      <g
         id="g1009"
         transform="matrix(0.63561826,0,0,0.59464079,-4.2997663,15.208316)" />
    </g>
  </g>
</svg>
