<?xml version="1.0" encoding="UTF-8" standalone="no"?>
<svg
   xmlns:dc="http://purl.org/dc/elements/1.1/"
   xmlns:cc="http://creativecommons.org/ns#"
   xmlns:rdf="http://www.w3.org/1999/02/22-rdf-syntax-ns#"
   xmlns:svg="http://www.w3.org/2000/svg"
   xmlns="http://www.w3.org/2000/svg"
   xmlns:sodipodi="http://sodipodi.sourceforge.net/DTD/sodipodi-0.dtd"
   xmlns:inkscape="http://www.inkscape.org/namespaces/inkscape"
   width="32"
   height="32"
   viewBox="0 0 32 32"
   version="1.1"
   id="svg3116"
   inkscape:version="1.0.1 (3bc2e813f5, 2020-09-07)"
   sodipodi:docname="ScoutVale.svg">
  <defs
     id="defs3110" />
  <sodipodi:namedview
     id="base"
     pagecolor="#ffffff"
     bordercolor="#666666"
     borderopacity="1.0"
     inkscape:pageopacity="0.0"
     inkscape:pageshadow="2"
     inkscape:zoom="11.2"
     inkscape:cx="21.525566"
     inkscape:cy="16.977246"
     inkscape:document-units="mm"
     inkscape:current-layer="g54"
     inkscape:document-rotation="0"
     showgrid="false"
     inkscape:pagecheckerboard="true"
     units="px"
     inkscape:window-width="1267"
     inkscape:window-height="1040"
     inkscape:window-x="270"
     inkscape:window-y="0"
     inkscape:window-maximized="0" />
  <metadata
     id="metadata3113">
    <rdf:RDF>
      <cc:Work
         rdf:about="">
        <dc:format>image/svg+xml</dc:format>
        <dc:type
           rdf:resource="http://purl.org/dc/dcmitype/StillImage" />
        <dc:title />
      </cc:Work>
    </rdf:RDF>
  </metadata>
  <g
     inkscape:label="Layer 1"
     inkscape:groupmode="layer"
     id="layer1">
    <g
       id="g3143"
       transform="matrix(3.7935882,0,0,3.7935882,39.307475,-132.60568)">
      <rect
         class="fil0"
         width="14.058801"
         height="14.058801"
         id="rect6"
         style="fill:none;stroke-width:0.263603;image-rendering:optimizeQuality;shape-rendering:geometricPrecision;text-rendering:geometricPrecision"
         x="-6.7397995"
         y="31.454008" />
      <g
         id="g56"
         style="image-rendering:optimizeQuality;shape-rendering:geometricPrecision;text-rendering:geometricPrecision"
         transform="matrix(0.18871181,0,0,0.18871181,-11.176225,34.63981)">
        <g
           id="g54">
          <polygon
             class="fil1"
             points="11.8861,24.2321 11.8861,21.6275 12.3097,21.6275 12.3097,24.2321 "
             id="polygon8"
             transform="translate(0,2.7937062)" />
          <polygon
             class="fil1"
             points="11.0273,23.7009 12.8691,21.8592 13.1685,22.1586 11.3268,24.0004 "
             id="polygon10"
             transform="translate(0,2.7937062)" />
          <polygon
             class="fil1"
             points="10.7956,22.718 13.4003,22.718 13.4003,23.1416 10.7956,23.1416 "
             id="polygon12"
             transform="translate(0,2.7937062)" />
          <polygon
             class="fil1"
             points="11.3268,21.8592 13.1685,23.7009 12.8691,24.0004 11.0273,22.1586 "
             id="polygon14"
             transform="translate(0,2.7937062)" />
          <polygon
             class="fil2"
             points="33.7103,17.3109 35.1794,19.5867 31.0975,19.5867 36.0265,25.91 31.9446,25.91 36.8736,32.2334 17.1269,32.2334 22.0559,25.91 17.974,25.91 22.903,19.5867 18.821,19.5867 27.0002,6.91625 "
             id="polygon16"
             transform="translate(0,2.7937062)" />
          <polygon
             class="fil2"
             points="24.3815,46.4817 25.0168,30.8099 28.9836,30.8099 29.6189,46.4817 "
             id="polygon18"
             transform="matrix(1,0,0,0.82492001,0,8.1879031)" />
          <path
             class="fil1"
             d="M 42.5377,46.6667 H 11.4628 c 0,-6.48338 31.0749,-6.48338 31.0749,0 z"
             id="path20" />
          <polygon
             class="fil1"
             points="16.7466,14.5834 16.7466,11.9788 17.1702,11.9788 17.1702,14.5834 "
             id="polygon22"
             transform="translate(0,2.7937062)" />
          <polygon
             class="fil1"
             points="15.8878,14.0522 17.7295,12.2105 18.029,12.51 16.1873,14.3517 "
             id="polygon24"
             transform="translate(0,2.7937062)" />
          <polygon
             class="fil1"
             points="15.6561,13.0693 18.2607,13.0693 18.2607,13.4929 15.6561,13.4929 "
             id="polygon26"
             transform="translate(0,2.7937062)" />
          <polygon
             class="fil1"
             points="16.1873,12.2105 18.029,14.0522 17.7295,14.3517 15.8878,12.51 "
             id="polygon28"
             transform="translate(0,2.7937062)" />
          <polygon
             class="fil1"
             points="32.6829,10.1566 32.6829,7.55199 33.1066,7.55199 33.1066,10.1566 "
             id="polygon30"
             transform="translate(0,2.7937062)" />
          <polygon
             class="fil1"
             points="31.8241,9.62544 33.6659,7.78371 33.9654,8.08319 32.1236,9.92491 "
             id="polygon32"
             transform="translate(0,2.7937062)" />
          <polygon
             class="fil1"
             points="31.5924,8.64252 34.1971,8.64252 34.1971,9.06613 31.5924,9.06613 "
             id="polygon34"
             transform="translate(0,2.7937062)" />
          <polygon
             class="fil1"
             points="32.1236,7.78371 33.9654,9.62544 33.6659,9.92491 31.8242,8.08319 "
             id="polygon36"
             transform="translate(0,2.7937062)" />
          <g
             id="g876"
             transform="translate(0,2.7937062)">
            <polygon
               class="fil1"
               points="38.8804,20.7809 38.8804,18.1762 39.304,18.1762 39.304,20.7809 "
               id="polygon38" />
            <polygon
               class="fil1"
               points="38.0216,20.2497 39.8633,18.4079 40.1628,18.7074 38.3211,20.5491 "
               id="polygon40" />
            <polygon
               class="fil1"
               points="37.7899,19.2667 40.3945,19.2667 40.3945,19.6904 37.7899,19.6904 "
               id="polygon42" />
            <polygon
               class="fil1"
               points="38.3211,18.4079 40.1628,20.2497 39.8633,20.5491 38.0216,18.7074 "
               id="polygon44" />
          </g>
          <polygon
             class="fil1"
             points="20.3422,9.27128 20.3422,6.66666 20.7658,6.66666 20.7658,9.27128 "
             id="polygon46"
             transform="translate(0,2.7937062)" />
          <polygon
             class="fil1"
             points="19.4834,8.74011 21.3252,6.89835 21.6246,7.19783 19.7829,9.03959 "
             id="polygon48"
             transform="translate(0,2.7937062)" />
          <polygon
             class="fil1"
             points="19.2517,7.75717 21.8563,7.75717 21.8563,8.18077 19.2517,8.18077 "
             id="polygon50"
             transform="translate(0,2.7937062)" />
          <polygon
             class="fil1"
             points="19.7829,6.89835 21.6246,8.74011 21.3252,9.03959 19.4834,7.19783 "
             id="polygon52"
             transform="translate(0,2.7937062)" />
        </g>
      </g>
    </g>
  </g>
</svg>
