<svg version="1.1" viewBox="0 0 32 32" xmlns="http://www.w3.org/2000/svg">
 <g>
  <g transform="matrix(.090787 0 0 .090787 2.7634 5.8916)">
   <g transform="matrix(1.2998 0 0 1.2998 -10.414 -33.382)">
    <g transform="matrix(3.8597 0 0 3.8597 -8.4546 -14.813)">
     <path d="m41.1 29.4c0.1 0.3 0.1 0.6 0.2 0.9h5.2l0.3 1.9c3.3 0.4 6.6 0.4 9.9 0l0.6-3.8h-16.8c0.3 0.2 0.5 0.6 0.6 1z"/>
     <path d="m17 49.4 0.3-3.1c-0.2-0.4-0.1 0.1-1-11.9h-15.3v30.6h11.4v-15.6z"/>
     <path d="m65 34.4h-31.4c-0.9 12-0.8 11.5-1 11.9l0.3 3.1h20.6v15.6h11.5v-15.6z"/>
     <circle cx="25" cy="10.6" r="5.5"/>
     <path d="m6 25.3c0-1.1-0.3-2.1-0.9-3l-0.3-0.3v-2.8h-1.8v2.7l-0.3 0.4c-0.6 0.9-0.9 1.9-0.9 2.9v7.2h4.2zm-0.7 4.6h-2.9v-2.9h2.9z"/>
     <path d="m12.7 25.3c0-1.1-0.3-2.1-0.9-3l-0.3-0.3v-2.8h-1.7v2.7l-0.3 0.4c-0.6 0.9-0.9 1.9-0.9 2.9v7.2h4.1zm-0.6 4.6h-2.9v-2.9h2.9z"/>
     <polygon points="60.6 10.7 53.7 5.5 53.7 1 42.7 1 42.7 5.5 35.9 10.7 35.9 13.4 60.6 13.4"/>
     <path d="m31.5 46.1c0.1-0.1 0.1-0.2 0.1-0.3l0.9-11.7c-5.1-0.3-10.1-2.8-13.9-7.3-0.6-0.7-0.8-1.6-0.7-2.5 5 7.2 13 10.5 20.9 7.9 1.1-0.3 1.6-1.5 1.3-2.5-0.3-1.1-1.5-1.6-2.5-1.3-6 2-12.3-0.6-16.5-6.6 0.8 0.1 1.5 0.4 2.1 1 2.8 3.3 6.2 5 9.8 5.2l0.2-3.1c5.2 3 10.4 1.3 14.4-3.4 0.7-0.8 0.6-2.1-0.2-2.8s-2.1-0.6-2.8 0.2c-6 7-10.6 1.4-11.5 1-5.4-3.7-10.9-4.1-15.8-0.5-0.7 0.5-1 1.4-1 2.1 2 25.8 1.8 24.3 2 24.6l-1.5 14.9c-0.2 1.7 1 3.1 2.7 3.3s3.1-1.1 3.3-2.7c0.5-5.1 1.6-14.7 1.6-15.3h1.1c0 0.6-0.2-1.6 1.6 15.3 0.2 1.6 1.6 2.9 3.3 2.7s2.9-1.7 2.7-3.3z"/>
    </g>
   </g>
  </g>
 </g>
</svg>
