<?xml version="1.0" encoding="UTF-8" standalone="no"?>
<svg
   xmlns:dc="http://purl.org/dc/elements/1.1/"
   xmlns:cc="http://creativecommons.org/ns#"
   xmlns:rdf="http://www.w3.org/1999/02/22-rdf-syntax-ns#"
   xmlns:svg="http://www.w3.org/2000/svg"
   xmlns="http://www.w3.org/2000/svg"
   xmlns:sodipodi="http://sodipodi.sourceforge.net/DTD/sodipodi-0.dtd"
   xmlns:inkscape="http://www.inkscape.org/namespaces/inkscape"
   width="32"
   height="32"
   viewBox="0 0 32 32"
   version="1.1"
   id="svg3116"
   inkscape:version="1.0.1 (3bc2e813f5, 2020-09-07)"
   sodipodi:docname="Pimp.svg">
  <defs
     id="defs3110" />
  <sodipodi:namedview
     id="base"
     pagecolor="#ffffff"
     bordercolor="#666666"
     borderopacity="1.0"
     inkscape:pageopacity="0.0"
     inkscape:pageshadow="2"
     inkscape:zoom="11.2"
     inkscape:cx="8.9098364"
     inkscape:cy="0.73536624"
     inkscape:document-units="mm"
     inkscape:current-layer="g874"
     inkscape:document-rotation="0"
     showgrid="false"
     inkscape:pagecheckerboard="true"
     units="px"
     inkscape:window-width="1267"
     inkscape:window-height="1040"
     inkscape:window-x="105"
     inkscape:window-y="0"
     inkscape:window-maximized="0" />
  <metadata
     id="metadata3113">
    <rdf:RDF>
      <cc:Work
         rdf:about="">
        <dc:format>image/svg+xml</dc:format>
        <dc:type
           rdf:resource="http://purl.org/dc/dcmitype/StillImage" />
        <dc:title />
      </cc:Work>
    </rdf:RDF>
  </metadata>
  <g
     inkscape:label="Layer 1"
     inkscape:groupmode="layer"
     id="layer1">
    <g
       id="g48"
       transform="matrix(0.0907871,0,0,0.0907871,2.7633853,5.8915527)">
      <g
         id="g874"
         transform="matrix(1.2998091,0,0,1.2998091,-10.413681,-33.381973)">
        <path
           id="path8"
           d="m 8.1511162,154.38281 c -2.0222118,3.17939 -1.7669331,7.57215 0.5946087,10.50571 8.0740101,10.74579 16.1109851,21.5204 24.2081241,32.2482 2.566302,3.12868 7.302444,4.1344 10.921893,2.33308 1.896808,-0.83359 3.174291,-2.51014 4.519513,-4.00886 0.01889,5.79408 -0.0379,11.59031 0.02842,17.38305 0.216434,4.08628 3.527868,7.72313 7.565701,8.35155 3.875634,0.7337 8.046171,-1.38673 9.751326,-4.93927 1.027576,-1.89916 1.006822,-4.10146 0.959246,-6.19807 0.01048,-17.27851 -0.02094,-34.55756 0.01567,-51.83573 0.07856,-5.42272 0.856037,-10.81763 2.190259,-16.07102 0.140748,-0.60199 0.536467,-1.45784 -0.415248,-0.97213 -6.698457,1.55025 -13.396913,3.1005 -20.09537,4.65076 0,13.80599 0,27.61198 0,41.41797 -7.13435,-9.51578 -14.270961,-19.02986 -21.40625,-28.54493 2.993531,-4.8617 5.988381,-9.72259 8.982422,-14.58398 -6.271484,-1.45247 -12.542969,-2.90495 -18.814453,-4.35742 -3.001953,4.8737 -6.003906,9.74739 -9.0058578,14.62109 z" />
        <path
           id="ellipse10"
           d="m 26.21421,19.313356 c -1.106271,4.953533 -0.275256,10.214962 2.300118,14.572397 1.414321,2.437896 3.522731,4.716537 5.845244,6.315983 3.091367,2.140492 6.554073,3.345022 10.29937,3.583435 4.025405,0.245361 8.019892,-0.720574 11.49358,-2.776879 2.6542,-1.552914 5.097937,-3.91927 6.720435,-6.509217 1.276188,-1.998618 2.181731,-4.211412 2.678569,-6.468092 1.11265,-4.939258 0.263406,-10.255661 -2.337227,-14.625548 C 62.254559,11.778953 60.953231,10.157289 59.549631,8.8762361 56.926922,6.4518023 53.711164,4.7894374 50.345261,4.0306338 45.36818,2.8730693 39.954931,3.7501217 35.623168,6.3363588 31.472607,8.7576916 28.241141,12.816141 26.762761,17.319488 c -0.223409,0.686859 -0.392437,1.288271 -0.548551,1.993868 z"
           style="stroke-width:0.99996" />
        <path
           id="path12"
           d="m 49.528068,47.027344 c -1.834727,0.184743 -3.687351,-0.05993 -5.530993,0.0629 -4.00832,0.114705 -8.097926,0.625474 -12.021741,1.704677 -5.260793,1.475609 -10.667836,3.965354 -14.251954,8.304687 -2.539874,3.073414 -4.560375,6.735037 -6.352078,10.358084 -4.2889802,8.891509 -7.3784813,18.341604 -9.6349613,27.9445 -1.95710794,8.488908 -3.2624969,17.146088 -3.6505789,25.852438 0.04702,2.78289 2.68043192,5.16712 5.4548126,4.91961 2.675414,-0.0873 4.9197525,-2.55077 4.8582565,-5.21007 0.7226347,-12.71512 3.3077651,-25.31282 7.4534551,-37.349068 1.084813,-3.129339 2.289083,-6.218747 3.654298,-9.236197 -0.748996,-2.508185 -0.752331,-5.313354 0.230543,-7.748733 l 1.124925,-1.764939 c 0.201186,1.12756 0.520489,2.242653 0.363282,3.394532 -0.06357,4.543885 2.931685,8.917567 7.185419,10.510228 4.231952,1.712735 9.429389,0.489882 12.441366,-2.945629 0.602438,-0.840219 1.571546,-1.271786 2.377121,-1.886865 -0.255436,1.180765 -0.361513,2.431092 -1.124055,3.420752 -2.488678,4.147665 -7.545765,6.543076 -12.331505,5.816853 -0.687786,-0.279452 -0.504884,0.250969 -0.371145,0.763857 0.874144,4.313126 1.248031,8.857989 -0.0055,13.137916 -0.451112,1.711128 -1.147176,3.344973 -1.90408,4.940703 -0.884727,1.39656 -1.594105,3.02782 -2.486617,4.47422 -1.457775,2.4286 -2.550035,5.04632 -3.943801,7.50966 -3.53947,6.65511 -7.07894,13.31022 -10.61841,19.96534 11.811822,2.73579 23.623702,5.47133 35.435546,8.20703 10.097006,-2.33854 20.194011,-4.67709 30.291016,-7.01563 l -0.04729,-4.12466 c -4.624595,-0.053 -2.015748,0.0618 -6.873122,-0.46897 -5.627931,-1.52589 -9.926917,-4.30236 -12.45011,-10.34737 -2.10888,-5.05242 -1.010307,-6.63156 -0.681994,-14.37659 0.193276,-4.55945 1.615083,-9.305859 5.687679,-11.351131 0.18787,-6.378489 0.276835,-4.860583 0.778898,-11.680846 -4.491575,1.348376 -9.653841,-0.149734 -12.740365,-3.676797 -1.013845,-1.204947 -2.055621,-2.53876 -2.229118,-4.154608 -0.206682,-0.728933 -0.329732,-1.33187 0.444962,-0.582325 0.761434,0.455211 1.423802,1.00976 1.972068,1.706132 3.107314,3.309323 8.291267,4.364009 12.453242,2.563494 4.241794,-1.722083 7.142501,-6.225473 6.907502,-10.804598 -0.03361,-1.277043 -0.335604,-2.529493 -0.767275,-3.72708 0.277639,-0.370305 0.266365,-1.491074 0.864877,-1.040799 5.507589,2.632716 11.28692,4.941532 17.410194,5.559807 4.559041,0.518696 9.297146,0.159148 13.715173,-0.712367 4.79263,-0.961713 9.45056,-2.508879 13.96289,-4.375 3.32629,-1.439845 3.09216,-1.369937 5.83985,-3.263672 1.69593,-2.099624 1.29805,-5.483032 -0.84776,-7.123577 -1.64923,-1.393202 -4.11146,-1.472736 -5.95752,-0.423857 -6.82338,3.05476 -14.069293,5.6309 -21.618128,5.82491 C 86.697977,58.753262 81.495025,57.266487 76.718378,55.071612 71.125185,52.54689 65.732761,49.65228 59.751048,48.225473 56.376622,47.397455 52.95615,46.991152 49.528111,47.027343 Z"
           sodipodi:nodetypes="sccccccccccccccccccccccccccccsscccccccccccccccccccss" />
        <path
           id="path16"
           d="m 100.81482,218.69922 c 1.21028,0 2.42056,0 3.63085,0 0.89583,-8.36979 1.79166,-16.73958 2.68749,-25.10938 -2.07929,0.0458 -4.15926,-0.0488 -6.22381,-0.27148 -0.937112,0 -1.874224,0 -2.811318,0 0.905584,8.46029 1.811186,16.92057 2.716788,25.38086 z" />
        <path
           id="path18"
           d="m 198.04723,193.58984 c -2.69401,0 -5.38802,0 -8.08203,0 0.89583,8.37045 1.79166,16.74089 2.6875,25.11133 1.21028,0 2.42057,0 3.63085,0 0.89649,-8.3776 1.79297,-16.75521 2.68946,-25.13281 -0.3086,0.007 -0.61719,0.0143 -0.92578,0.0215 z" />
        <path
           id="path22"
           d="m 121.15855,93.429688 c -5.23435,3.300199 -10.72863,6.181899 -16.38281,8.693362 0.0117,11.55524 -0.0234,23.11123 0.0176,34.66601 0.0708,1.61373 0.72018,3.11092 1.43359,4.53321 -2.18738,0.26889 -4.37605,1.04542 -5.96026,2.6311 -0.955964,0.93767 -1.687656,2.0707 -2.53386,3.10327 -0.0156,-10.53196 0.0313,-21.06489 -0.0235,-31.59624 -0.13947,-3.28652 -1.050004,-6.53789 -2.62885,-9.42134 -2.666589,0.97997 -5.355439,1.90062 -8.068354,2.74414 1.825605,2.54781 2.583765,5.73395 2.415935,8.84063 0.009,18.75444 -0.0232,37.50934 0.0116,56.2635 0.009,3.94006 1.03875,8.10736 3.90454,10.96423 2.993035,3.0189 7.397439,4.02976 11.522479,4.03926 17.52429,0.0132 35.04882,0.002 52.5732,0.006 1.89873,-6.88752 3.31546,-14.03 2.91282,-21.20716 -0.28057,-4.42391 -1.38066,-9.11453 -4.57658,-12.37628 -1.56388,-1.59779 -3.57592,-2.78229 -5.72529,-3.36655 -9.17795,0.18841 -18.62547,-1.14076 -26.81583,-5.49455 -6.32037,-3.3225 -11.61032,-8.66122 -14.5867,-15.17798 -1.81258,-3.94032 -2.83127,-8.29362 -2.70842,-12.63919 0.27023,-5.33374 3.55217,-10.38718 8.34048,-12.76714 2.27815,-1.18422 4.8958,-1.76803 7.4232,-1.69771 0,-3.69791 0,-7.395831 0,-11.093748 -0.18164,0.117838 -0.36329,0.235677 -0.54493,0.353516 z" />
        <path
           id="path28"
           d="m 181.48863,112.99414 c 5.44426,0.74467 10.27508,4.67465 12.15072,9.83396 1.96755,5.10235 0.87431,11.21091 -2.73902,15.31498 -1.73723,2.02838 -4.00872,3.59107 -6.52107,4.49559 4.99385,8.6073 6.90756,18.6998 6.74152,28.57028 -0.0889,5.94712 -0.86085,11.86884 -2.07551,17.68558 3.72338,-0.0441 7.45211,0.0961 11.17177,-0.0861 3.80937,-0.27565 7.75439,-1.63735 10.25446,-4.65685 2.18304,-2.49972 3.04661,-5.8612 3.23393,-9.10861 0.0725,-1.2082 0.0523,-2.70658 0.0546,-4.06914 0.01,-18.39549 -0.0222,-36.79167 0.0137,-55.18672 0.12013,-2.49952 0.96036,-4.95718 2.40039,-7.00391 -2.71361,-0.8345 -5.42064,-1.78744 -8.07617,-2.73437 -1.97077,3.54967 -2.8056,7.6497 -2.64453,11.69062 0,9.76394 0,19.52787 0,29.2918 -1.36676,-1.74319 -2.66689,-3.68814 -4.74852,-4.6483 -1.15906,-0.61856 -2.46379,-0.84214 -3.74367,-1.06068 0.92123,-1.7312 1.56946,-3.64946 1.45117,-5.63477 0,-11.1888 0,-22.3776 0,-33.56641 -5.84863,-2.602318 -11.53375,-5.588098 -16.92383,-9.044918 0,6.639323 0,13.278648 0,19.917968 z" />
        <path
           id="path30"
           d="m 218.2816,109.59961 c -2.65523,4.57692 -1.54179,10.71023 2.02923,14.47806 2.93672,3.24933 7.55715,4.75566 11.85468,4.04098 5.87685,-0.77866 11.02082,-5.30889 12.56291,-11.02892 0.5542,-1.92025 0.7023,-4.025 0.4731,-5.96082 -2.20394,2.05045 -5.28505,3.14185 -8.28906,2.85156 -0.47875,3.85209 -4.66452,6.86713 -8.44922,5.76562 -2.3282,-0.69342 -3.99572,-3.46647 -3.0918,-5.80468 0.47693,-1.11069 1.65738,-1.85026 2.86329,-1.8125 -3.30811,-0.81578 -6.60023,-1.69823 -9.86329,-2.67969 l -0.0513,0.0859 z m 13.84766,19.4082 c 0.55924,0.23112 1.11849,0.46224 1.67773,0.69336 -0.1571,-0.40948 0.18842,-1.74249 -0.35698,-1.43852 -0.44025,0.24839 -0.8805,0.49677 -1.32075,0.74516 z m -5.96289,0.6875 c 0.45745,-0.2449 1.40038,-0.46196 1.55698,-0.72411 -0.44982,-0.12468 -1.29971,-0.97378 -1.48052,-0.61137 -0.0255,0.44516 -0.051,0.89032 -0.0765,1.33548 z" />
        <path
           id="path32"
           d="m 82.30115,110.18945 c -2.442034,0.67909 -4.886551,1.34997 -7.351562,1.93946 1.820228,-0.0931 3.397283,1.68572 3.095703,3.48242 -0.183364,2.58241 -2.714307,4.6573 -5.281357,4.3538 -3.211808,-0.16797 -6.061113,-2.80038 -6.49794,-5.98466 -3.008176,0.28886 -6.093748,-0.8078 -8.294922,-2.86719 -0.581873,4.91527 1.343294,10.05373 5.094542,13.30016 2.681989,2.39796 6.238563,3.77637 9.829286,3.85218 2.118061,0.093 4.439474,-0.42666 6.379548,-1.44779 4.521092,-2.27516 7.429949,-7.3483 7.070937,-12.40254 -0.114092,-1.74444 -0.644459,-3.46055 -1.536422,-4.96412 -0.835938,0.2461 -1.671875,0.49219 -2.507813,0.73828 z m -24.330078,0.92383 c -0.02025,-0.0243 0.0033,0.11573 0,0 z"
           sodipodi:nodetypes="cccccccccccccc" />
        <path
           id="ellipse38"
           d="m 146.25557,15.09187 c -4.81022,1.146682 -9.34024,4.008158 -12.43396,7.968993 -3.25596,4.081522 -4.98722,9.330169 -4.87296,14.492181 0.0724,3.379312 0.88695,6.701192 2.43589,9.765292 1.45394,2.851444 3.38246,5.256264 5.85961,7.295953 3.844,3.1673 8.73876,4.965547 13.62221,5.110774 5.01453,0.151243 9.86796,-1.326301 13.95896,-4.263435 5.91314,-4.199175 9.53867,-11.382705 9.39945,-18.634249 -0.0635,-4.939786 -1.69752,-9.618983 -4.67967,-13.521044 -4.08798,-5.371374 -10.62516,-8.699174 -17.3552,-8.844035 -1.9457,-0.05289 -3.99955,0.155763 -5.93433,0.62957 z"
           style="stroke-width:0.99996" />
        <path
           id="path40"
           d="m 131.97887,63.658203 c -1.65993,0.136704 -3.40223,0.298304 -4.8082,1.291273 -1.5281,0.959294 -2.36179,2.630742 -3.67226,3.829008 -5.65684,5.741708 -12.52499,10.144666 -19.64235,13.853473 -12.562419,6.461536 -26.175734,10.642401 -39.965066,13.539918 -2.547638,0.486048 -4.816827,2.587741 -5.459644,5.161495 -0.912028,3.19374 0.754851,6.8652 3.772907,8.26262 1.690272,0.88196 3.732039,0.88902 5.473218,0.3961 11.88138,-2.50924 23.520306,-5.95967 34.665845,-10.813457 4.21494,-1.842341 8.29253,-3.85947 12.2918,-6.133711 3.72987,-2.11356 7.28266,-4.449555 10.75976,-6.986328 0,6.184245 0,12.368489 0,18.552736 17.4655,2.61068 34.93099,5.22135 52.39649,7.83203 0,-8.79557 0,-17.591146 0,-26.386719 7.94842,5.870191 16.71659,10.551833 25.86769,14.314529 5.071,2.09214 10.18055,3.87294 15.45848,5.46477 5.81384,1.73429 11.75716,3.23883 17.7574,4.42673 3.44446,0.54557 7.02892,-1.83495 7.87256,-5.21702 0.95837,-3.26866 -0.82043,-7.033552 -3.94455,-8.38102 -1.76219,-0.723639 -3.69488,-0.875061 -5.5255,-1.372215 -14.11685,-3.252311 -28.03648,-7.937277 -40.61351,-15.223954 -5.71387,-3.383932 -11.25319,-7.231018 -15.76838,-12.141023 -1.0725,-1.199105 -1.96704,-2.638544 -3.48505,-3.335641 -1.47643,-0.789733 -3.18661,-0.867433 -4.82149,-0.941406 -12.87001,0.0052 -25.74031,-0.01042 -38.61015,0.0078 z" />
        <path
           id="path42"
           d="m 113.86168,133.11133 c 3.68947,5.82316 9.59506,9.98704 16.03824,12.26584 5.42111,1.94272 11.08842,2.74009 16.75985,2.87423 1.37242,0.0692 2.76029,-0.0452 4.12378,0.0279 4.29293,1.18165 8.13184,4.04732 10.27434,7.97685 2.71252,4.84018 3.22582,10.56047 3.02036,16.00891 -0.41129,8.76506 -2.72508,17.31952 -5.58447,25.5734 -1.01651,3.00035 -2.2568,5.91754 -3.36066,8.88393 -1.49636,4.56319 0.24619,9.92362 4.11032,12.76385 3.1372,2.38961 7.5138,3.02312 11.1866,1.5704 1.15269,-0.43637 2.44016,-1.174 3.43652,-2.0526 1.84934,-1.52214 2.99699,-3.68457 3.78065,-5.90916 4.12726,-10.37155 7.50313,-21.04835 9.02111,-32.12222 0.44249,-3.26712 0.71504,-6.63263 0.75456,-9.93866 0.13935,-9.55834 -1.77673,-19.36925 -6.85808,-27.57502 -2.83499,0.29141 -5.62401,-0.50752 -8.42236,-0.82765 -17.92228,-2.68668 -35.85044,-5.33961 -53.76904,-8.04735 -1.63316,-0.31431 -3.21604,-0.89246 -4.66211,-1.71484 0.0501,0.0807 0.10026,0.16146 0.15039,0.24219 z" />
        <path
           id="path44"
           d="m 120.64293,107.87305 c -4.8508,0.19092 -9.33386,3.75565 -10.58749,8.44883 -1.28639,4.30129 0.23304,9.24745 3.69579,12.09964 1.96576,1.71403 4.52534,2.56418 7.09147,2.80781 19.08314,2.84281 38.16108,5.72566 57.24747,8.54348 4.75376,0.54817 9.64952,-2.19896 11.66858,-6.53516 2.02559,-4.08618 1.32662,-9.32456 -1.72368,-12.72113 -2.00962,-2.36409 -4.99943,-3.73836 -8.06476,-4.01583 -19.1971,-2.85679 -38.3883,-5.75698 -57.5891,-8.58663 -0.57797,-0.0538 -1.15837,-0.0689 -1.73828,-0.041 z" />
      </g>
    </g>
  </g>
</svg>
