<?xml version="1.0" encoding="UTF-8" standalone="no"?>
<svg
   xmlns:dc="http://purl.org/dc/elements/1.1/"
   xmlns:cc="http://creativecommons.org/ns#"
   xmlns:rdf="http://www.w3.org/1999/02/22-rdf-syntax-ns#"
   xmlns:svg="http://www.w3.org/2000/svg"
   xmlns="http://www.w3.org/2000/svg"
   xmlns:sodipodi="http://sodipodi.sourceforge.net/DTD/sodipodi-0.dtd"
   xmlns:inkscape="http://www.inkscape.org/namespaces/inkscape"
   width="32"
   height="32"
   viewBox="0 0 32 32"
   version="1.1"
   id="svg3116"
   inkscape:version="1.0.1 (3bc2e813f5, 2020-09-07)"
   sodipodi:docname="TheatreSlave.svg">
  <defs
     id="defs3110" />
  <sodipodi:namedview
     id="base"
     pagecolor="#ffffff"
     bordercolor="#666666"
     borderopacity="1.0"
     inkscape:pageopacity="0.0"
     inkscape:pageshadow="2"
     inkscape:zoom="7.919596"
     inkscape:cx="33.727566"
     inkscape:cy="14.335234"
     inkscape:document-units="mm"
     inkscape:current-layer="layer1"
     inkscape:document-rotation="0"
     showgrid="false"
     inkscape:pagecheckerboard="true"
     units="px"
     inkscape:window-width="1327"
     inkscape:window-height="1040"
     inkscape:window-x="105"
     inkscape:window-y="0"
     inkscape:window-maximized="0" />
  <metadata
     id="metadata3113">
    <rdf:RDF>
      <cc:Work
         rdf:about="">
        <dc:format>image/svg+xml</dc:format>
        <dc:type
           rdf:resource="http://purl.org/dc/dcmitype/StillImage" />
        <dc:title />
      </cc:Work>
    </rdf:RDF>
  </metadata>
  <g
     inkscape:label="Layer 1"
     inkscape:groupmode="layer"
     id="layer1">
    <g
       id="g889"
       transform="matrix(0.04900172,0,0,0.04900172,14.359318,15.264974)">
      <rect
         x="94.51786"
         y="-17"
         width="80"
         height="48"
         id="rect2"
         transform="scale(-1,1)" />
      <path
         d="m -166.51786,-168.019 a 79.963,79.963 0 0 0 6.426,5.727 c 12.466,9.974 27.418,16.232 41.023,17.173 l 1.1,-15.963 c -10.28,-0.71 -22.292,-5.833 -32.13,-13.7 -8.547,-6.838 -14.395,-14.875 -15.988,-21.849 a 16.016,16.016 0 0 1 15.569,-12.369 48.055,48.055 0 0 1 48,48 v 128 h -64 z"
         id="path4" />
      <path
         d="m -182.51786,47 h 104 v 192 h -112 V 47 Z m 72,168 h 16 V 103 h -16 z m 0,-128 h 16 V 71 h -16 z"
         id="path6" />
      <path
         d="m 241.48214,163 a 12.013,12.013 0 0 1 -12,12 h -232 a 12,12 0 0 1 0,-24 h 232 a 12.013,12.013 0 0 1 12,12 z"
         id="path8" />
      <polygon
         points="217.754,448 221.754,432 130.246,432 134.246,448 "
         id="polygon10"
         transform="matrix(-1,0,0,1,289.48214,-241)" />
      <path
         d="M 21.60414,95.066 A 112.007,112.007 0 1 1 155.08214,135 h -83.2 a 111.813,111.813 0 0 1 -50.278,-39.934 z m 153.535,-61.723 -48,-48 -11.314,11.314 48,48 z m -16,32 -80,-80 -11.314,11.314 80,80 z m -59.314,11.314 11.314,-11.314 -48,-48 -11.314,11.314 z"
         id="path12" />
      <path
         d="m 51.23614,191 6.485,25.94 a 8,8 0 0 0 7.761,6.06 h 96 a 8,8 0 0 0 7.761,-6.06 l 6.485,-25.94 h 81.754 v 32 a 16.019,16.019 0 0 1 -16,16 h -256 a 16.019,16.019 0 0 1 -16,-16 v -32 z"
         id="path14" />
      <path
         d="m 113.48214,-113 c 79.4,0 144,64.6 144,144 a 144.392,144.392 0 0 1 -44.415,104 h -24.928 a 127.979,127.979 0 1 0 -149.314,0 h -24.928 a 144.392,144.392 0 0 1 -44.415,-104 c 0,-79.4 64.6,-144 144,-144 z"
         id="path16" />
    </g>
  </g>
</svg>
