<?xml version="1.0" encoding="UTF-8" standalone="no"?>
<svg
   xmlns:dc="http://purl.org/dc/elements/1.1/"
   xmlns:cc="http://creativecommons.org/ns#"
   xmlns:rdf="http://www.w3.org/1999/02/22-rdf-syntax-ns#"
   xmlns:svg="http://www.w3.org/2000/svg"
   xmlns="http://www.w3.org/2000/svg"
   xmlns:sodipodi="http://sodipodi.sourceforge.net/DTD/sodipodi-0.dtd"
   xmlns:inkscape="http://www.inkscape.org/namespaces/inkscape"
   width="32"
   height="32"
   viewBox="0 0 32 32"
   version="1.1"
   id="svg3116"
   inkscape:version="1.0.1 (3bc2e813f5, 2020-09-07)"
   sodipodi:docname="ToiletSlave.svg">
  <defs
     id="defs3110" />
  <sodipodi:namedview
     id="base"
     pagecolor="#ffffff"
     bordercolor="#666666"
     borderopacity="1.0"
     inkscape:pageopacity="0.0"
     inkscape:pageshadow="2"
     inkscape:zoom="15.839192"
     inkscape:cx="11.777005"
     inkscape:cy="8.061556"
     inkscape:document-units="mm"
     inkscape:current-layer="layer1"
     inkscape:document-rotation="0"
     showgrid="false"
     inkscape:pagecheckerboard="true"
     units="px"
     inkscape:window-width="1267"
     inkscape:window-height="1040"
     inkscape:window-x="182"
     inkscape:window-y="0"
     inkscape:window-maximized="0" />
  <metadata
     id="metadata3113">
    <rdf:RDF>
      <cc:Work
         rdf:about="">
        <dc:format>image/svg+xml</dc:format>
        <dc:type
           rdf:resource="http://purl.org/dc/dcmitype/StillImage" />
        <dc:title></dc:title>
      </cc:Work>
    </rdf:RDF>
  </metadata>
  <g
     inkscape:label="Layer 1"
     inkscape:groupmode="layer"
     id="layer1">
    <g
       data-name="Слой 3"
       id="g7860"
       transform="matrix(0.74033504,0,0,0.74033504,2.6628642,2.6887759)">
      <path
         inkscape:connector-curvature="0"
         d="m 9.91,19.6 h 16.18 a 0.86,0.86 0 1 0 0,-1.71 H 9.91 a 0.86,0.86 0 1 0 0,1.71 z"
         id="path7854" />
      <path
         inkscape:connector-curvature="0"
         d="m 24.2,34.3 h -0.75 l -0.62,-4.48 a 9.78,9.78 0 0 0 5,-8.52 0.85,0.85 0 0 0 -0.85,-0.85 H 9.05 a 0.85,0.85 0 0 0 -0.85,0.85 9.78,9.78 0 0 0 5,8.52 L 12.58,34.3 H 11.8 a 0.85,0.85 0 1 0 0,1.7 h 12.4 a 0.85,0.85 0 1 0 0,-1.7 z"
         id="path7856" />
      <path
         inkscape:connector-curvature="0"
         d="M 18,17 A 8.52,8.52 0 1 0 9.48,8.52 8.53,8.53 0 0 0 18,17 Z M 16.3,3.41 h 3.4 a 0.85,0.85 0 1 1 0,1.7 h -3.4 a 0.85,0.85 0 1 1 0,-1.7 z"
         id="path7858" />
    </g>
  </g>
</svg>
