<?xml version="1.0" encoding="UTF-8" standalone="no"?>
<svg
   xmlns:dc="http://purl.org/dc/elements/1.1/"
   xmlns:cc="http://creativecommons.org/ns#"
   xmlns:rdf="http://www.w3.org/1999/02/22-rdf-syntax-ns#"
   xmlns:svg="http://www.w3.org/2000/svg"
   xmlns="http://www.w3.org/2000/svg"
   xmlns:sodipodi="http://sodipodi.sourceforge.net/DTD/sodipodi-0.dtd"
   xmlns:inkscape="http://www.inkscape.org/namespaces/inkscape"
   width="32"
   height="32"
   viewBox="0 0 32 32"
   version="1.1"
   id="svg3116"
   inkscape:version="1.0.1 (3bc2e813f5, 2020-09-07)"
   sodipodi:docname="Trainer.svg">
  <defs
     id="defs3110" />
  <sodipodi:namedview
     id="base"
     pagecolor="#ffffff"
     bordercolor="#666666"
     borderopacity="1.0"
     inkscape:pageopacity="0.0"
     inkscape:pageshadow="2"
     inkscape:zoom="5.6"
     inkscape:cx="30.081049"
     inkscape:cy="33.999206"
     inkscape:document-units="mm"
     inkscape:current-layer="layer1"
     inkscape:document-rotation="0"
     showgrid="false"
     inkscape:pagecheckerboard="true"
     units="px"
     inkscape:window-width="1281"
     inkscape:window-height="1040"
     inkscape:window-x="568"
     inkscape:window-y="116"
     inkscape:window-maximized="0" />
  <metadata
     id="metadata3113">
    <rdf:RDF>
      <cc:Work
         rdf:about="">
        <dc:format>image/svg+xml</dc:format>
        <dc:type
           rdf:resource="http://purl.org/dc/dcmitype/StillImage" />
        <dc:title />
      </cc:Work>
    </rdf:RDF>
  </metadata>
  <g
     inkscape:label="Layer 1"
     inkscape:groupmode="layer"
     id="layer1">
    <g
       id="g20"
       transform="matrix(0.26079734,0,0,0.26079734,2.9601329,2.9601329)">
      <path
         d="M 7.2,44.7 H 4.1 c -0.9,0 -1.6,0.7 -1.6,1.6 v 17 c 0,0.9 0.7,1.6 1.6,1.6 h 3.1 c 0.9,0 1.6,-0.7 1.6,-1.6 v -17 C 8.7,45.4 8,44.7 7.2,44.7 Z"
         id="path12" />
      <path
         d="m 86.8,41.1 h -5.3 c -0.9,0 -1.6,0.7 -1.6,1.6 v 10 h -9 C 70.3,48.2 69.5,41.4 69.2,40.1 68.2,36.2 62,26.8 54.9,26.8 h -9.8 c -7.1,0 -13.3,9.5 -14.3,13.3 -0.3,1.3 -1.2,8.1 -1.7,12.6 h -9 v -10 c 0,-0.9 -0.7,-1.6 -1.6,-1.6 h -5.3 c -0.9,0 -1.6,0.7 -1.6,1.6 v 24.2 c 0,0.9 0.7,1.6 1.6,1.6 h 5.3 c 0.9,0 1.6,-0.7 1.6,-1.6 v -10 H 29 c 0.5,1.3 1.7,2.3 3.2,2.5 0.2,0 0.3,0 0.5,0 1.6,0 3.1,-1 3.7,-2.6 h 4.3 C 34.5,66 30.9,76.7 30.4,88 c -0.1,2.6 1.9,4.9 4.6,5 0.1,0 0.1,0 0.2,0 2.5,0 4.6,-2 4.8,-4.6 0.4,-10.3 3.9,-20 10.1,-28.2 6.1,8.2 9.6,17.9 10.1,28.2 0.1,2.6 2.2,4.6 4.8,4.6 0.1,0 0.1,0 0.2,0 2.6,-0.1 4.7,-2.3 4.6,-5 -0.5,-11.2 -4,-21.9 -10.3,-31.2 h 4.3 c 0.6,1.7 2.3,2.7 4.1,2.5 1.5,-0.2 2.7,-1.2 3.2,-2.5 H 80 v 10 c 0,0.9 0.7,1.6 1.6,1.6 h 5.3 c 0.9,0 1.6,-0.7 1.6,-1.6 V 42.7 C 88.4,41.8 87.7,41.1 86.8,41.1 Z M 63,52.7 h -4.7 l 0.3,-15.2 c 1.4,1.6 2.7,3.5 2.9,4.6 0.2,0.8 0.9,5.6 1.5,10.6 z M 38.4,42.1 c 0.3,-1.1 1.5,-3 2.9,-4.6 l 0.3,15.2 H 37 c 0.6,-5 1.3,-9.8 1.4,-10.6 z"
         id="path14" />
      <path
         d="m 95.9,44.7 h -3.1 c -0.9,0 -1.6,0.7 -1.6,1.6 v 17 c 0,0.9 0.7,1.6 1.6,1.6 h 3.1 c 0.9,0 1.6,-0.7 1.6,-1.6 v -17 c 0,-0.9 -0.7,-1.6 -1.6,-1.6 z"
         id="path16" />
      <circle
         cx="50"
         cy="15.7"
         r="8.6999998"
         id="circle18" />
    </g>
  </g>
</svg>
