<?xml version="1.0" encoding="UTF-8" standalone="no"?>
<svg
   xmlns:dc="http://purl.org/dc/elements/1.1/"
   xmlns:cc="http://creativecommons.org/ns#"
   xmlns:rdf="http://www.w3.org/1999/02/22-rdf-syntax-ns#"
   xmlns:svg="http://www.w3.org/2000/svg"
   xmlns="http://www.w3.org/2000/svg"
   xmlns:xlink="http://www.w3.org/1999/xlink"
   xmlns:sodipodi="http://sodipodi.sourceforge.net/DTD/sodipodi-0.dtd"
   xmlns:inkscape="http://www.inkscape.org/namespaces/inkscape"
   width="32"
   height="32"
   viewBox="0 0 32 32"
   version="1.1"
   id="svg3116"
   inkscape:version="1.0.1 (3bc2e813f5, 2020-09-07)"
   sodipodi:docname="VaginaFuckholeSlave.svg">
  <defs
     id="defs3110">
    <clipPath
       id="e">
      <use
         xlink:href="#f"
         overflow="visible"
         id="use5"
         x="0"
         y="0"
         width="100%"
         height="100%" />
    </clipPath>
    <clipPath
       id="c">
      <use
         xlink:href="#d"
         overflow="visible"
         id="use15"
         x="0"
         y="0"
         width="100%"
         height="100%" />
    </clipPath>
    <clipPath
       id="a">
      <use
         xlink:href="#b"
         overflow="visible"
         id="use25"
         x="0"
         y="0"
         width="100%"
         height="100%" />
    </clipPath>
    <rect
       id="f"
       x="1.753"
       y="10"
       width="96.306"
       height="61.731998" />
    <rect
       id="d"
       x="1.753"
       y="10"
       width="96.306"
       height="61.731998" />
    <rect
       id="b"
       x="1.753"
       y="10"
       width="96.306"
       height="61.731998" />
  </defs>
  <sodipodi:namedview
     id="base"
     pagecolor="#ffffff"
     bordercolor="#666666"
     borderopacity="1.0"
     inkscape:pageopacity="0.0"
     inkscape:pageshadow="2"
     inkscape:zoom="11.2"
     inkscape:cx="10.09638"
     inkscape:cy="16.655206"
     inkscape:document-units="mm"
     inkscape:current-layer="layer1"
     inkscape:document-rotation="0"
     showgrid="false"
     inkscape:pagecheckerboard="true"
     units="px"
     inkscape:window-width="1267"
     inkscape:window-height="1040"
     inkscape:window-x="105"
     inkscape:window-y="0"
     inkscape:window-maximized="0" />
  <metadata
     id="metadata3113">
    <rdf:RDF>
      <cc:Work
         rdf:about="">
        <dc:format>image/svg+xml</dc:format>
        <dc:type
           rdf:resource="http://purl.org/dc/dcmitype/StillImage" />
        <dc:title />
      </cc:Work>
    </rdf:RDF>
  </metadata>
  <g
     inkscape:label="Layer 1"
     inkscape:groupmode="layer"
     id="layer1">
    <g
       id="g34"
       transform="matrix(0.28305869,0,0,0.28305869,1.8735315,4.432524)">
      <g
         id="g32">
        <g
           id="g10">
          <defs
             id="defs3">
            <rect
               id="rect876"
               x="1.753"
               y="10"
               width="96.306"
               height="61.731998" />
          </defs>
          <clipPath
             id="clipPath885">
            <use
               xlink:href="#f"
               overflow="visible"
               id="use883"
               x="0"
               y="0"
               width="100%"
               height="100%" />
          </clipPath>
          <path
             clip-path="url(#e)"
             d="m 9.104,71.109 c 4.06,0 7.35,-3.291 7.35,-7.35 0,-4.06 -3.29,-7.351 -7.35,-7.351 -4.06,0 -7.35,3.291 -7.35,7.351 0,4.059 3.29,7.35 7.35,7.35"
             id="path8" />
        </g>
        <g
           id="g20">
          <defs
             id="defs13">
            <rect
               id="rect883"
               x="1.753"
               y="10"
               width="96.306"
               height="61.731998" />
          </defs>
          <clipPath
             id="clipPath893">
            <use
               xlink:href="#d"
               overflow="visible"
               id="use891"
               x="0"
               y="0"
               width="100%"
               height="100%" />
          </clipPath>
          <path
             clip-path="url(#c)"
             d="m 15.35,35.572 c 4.059,0 7.35,-3.291 7.35,-7.348 0,-4.062 -3.291,-7.353 -7.35,-7.353 -4.06,0 -7.35,3.291 -7.35,7.353 0,4.057 3.291,7.348 7.35,7.348"
             id="path18" />
        </g>
        <g
           id="g30">
          <defs
             id="defs23">
            <rect
               id="rect890"
               x="1.753"
               y="10"
               width="96.306"
               height="61.731998" />
          </defs>
          <clipPath
             id="clipPath901">
            <use
               xlink:href="#b"
               overflow="visible"
               id="use899"
               x="0"
               y="0"
               width="100%"
               height="100%" />
          </clipPath>
          <path
             clip-path="url(#a)"
             d="m 49.397,49.787 v 4.025 H 33.75 V 42.49 Z m 48.664,18.379 c 0,-1.684 -1.221,-3.023 -2.76,-3.175 v -0.06 H 79.743 c -0.4,-0.629 -0.945,-1.139 -1.587,-1.504 L 60.271,34.803 69.411,16.065 69.249,15.987 c 0.405,-0.613 0.698,-1.306 0.698,-2.096 0,-2.15 -1.741,-3.891 -3.891,-3.891 -1.709,0 -3.121,1.118 -3.642,2.652 L 62.376,12.634 52.791,32.285 36.94,24.896 c 0.229,-0.426 0.393,-0.891 0.393,-1.409 0,-1.673 -1.355,-3.029 -3.027,-3.029 -1.671,0 -3.026,1.355 -3.026,3.029 0,0.167 0.069,0.311 0.095,0.47 -2.813,0.372 -5.409,1.992 -6.7,4.761 -1.704,3.654 -0.5,7.761 2.487,10.202 L 27.16,53.816 h -1.644 v 0.057 c -4.516,0.286 -8.1,4.001 -8.1,8.592 0,4.586 3.584,8.303 8.1,8.592 l -0.002,0.055 h 24.568 c 0,0 0.002,0 0.004,0 h 0.004 1.779 V 70.92 c 3.375,-0.708 5.902,-3.424 6.574,-6.811 h 0.15 l -0.001,-0.866 c 0.026,-0.267 0.142,-0.504 0.142,-0.778 0,-0.277 -0.114,-0.518 -0.141,-0.783 V 49.915 c 0.404,-0.235 -1.66,-0.297 -1.297,-0.596 l 13.393,21.43 0.213,-0.136 c 0.406,0.346 0.854,0.644 1.367,0.828 v 0.291 L 95.3,71.521 95.297,71.339 c 1.543,-0.15 2.764,-1.487 2.764,-3.173"
             id="path28" />
        </g>
      </g>
    </g>
  </g>
</svg>
