<?xml version="1.0" encoding="UTF-8" standalone="no"?>
<svg
   xmlns:dc="http://purl.org/dc/elements/1.1/"
   xmlns:cc="http://creativecommons.org/ns#"
   xmlns:rdf="http://www.w3.org/1999/02/22-rdf-syntax-ns#"
   xmlns:svg="http://www.w3.org/2000/svg"
   xmlns="http://www.w3.org/2000/svg"
   xmlns:sodipodi="http://sodipodi.sourceforge.net/DTD/sodipodi-0.dtd"
   xmlns:inkscape="http://www.inkscape.org/namespaces/inkscape"
   width="32"
   height="32"
   viewBox="0 0 32 32"
   version="1.1"
   id="svg3116"
   inkscape:version="1.0.1 (3bc2e813f5, 2020-09-07)"
   sodipodi:docname="Viceleader.svg">
  <defs
     id="defs3110" />
  <sodipodi:namedview
     id="base"
     pagecolor="#ffffff"
     bordercolor="#666666"
     borderopacity="1.0"
     inkscape:pageopacity="0.0"
     inkscape:pageshadow="2"
     inkscape:zoom="5.6"
     inkscape:cx="15.962137"
     inkscape:cy="13.343864"
     inkscape:document-units="mm"
     inkscape:current-layer="g22"
     inkscape:document-rotation="0"
     showgrid="false"
     inkscape:pagecheckerboard="true"
     units="px"
     inkscape:window-width="1267"
     inkscape:window-height="1040"
     inkscape:window-x="105"
     inkscape:window-y="0"
     inkscape:window-maximized="0" />
  <metadata
     id="metadata3113">
    <rdf:RDF>
      <cc:Work
         rdf:about="">
        <dc:format>image/svg+xml</dc:format>
        <dc:type
           rdf:resource="http://purl.org/dc/dcmitype/StillImage" />
        <dc:title />
      </cc:Work>
    </rdf:RDF>
  </metadata>
  <g
     inkscape:label="Layer 1"
     inkscape:groupmode="layer"
     id="layer1">
    <g
       id="g22"
       transform="matrix(0.32539683,0,0,0.32539683,-0.26951589,1.3730159)">
      <path
         fill="#000000"
         d="m 78.479,39.7079 c 0,-1.468 -1.188,-2.534 -2.66,-2.534 h -8.308 c -1.468,0 -2.658,1.066 -2.658,2.534 l -1.508,10.235 c 0,1.469 1.192,2.718 2.659,2.718 h 0.828 l 2.048,20.386 c 0,0.894 0.726,1.509 1.621,1.509 h 2.329 c 0.894,0 1.621,-0.615 1.621,-1.509 l 2.046,-20.386 h 0.832 c 1.47,0 2.658,-1.249 2.658,-2.718 z"
         id="path2" />
      <path
         fill="#000000"
         d="m 71.666,35.3919 c 2.464,0 4.462,-1.995 4.462,-4.459 0,-2.461 -1.998,-4.458 -4.462,-4.458 -2.461,0 -4.457,1.997 -4.457,4.458 0,2.464 1.996,4.459 4.457,4.459 z"
         id="path4" />
      <path
         fill="#000000"
         d="m 32.741,37.1969 c -0.086,-0.007 -0.168,-0.023 -0.256,-0.023 h -8.308 c -1.47,0 -2.659,1.066 -2.659,2.534 l -1.507,10.235 c 0,1.469 1.192,2.718 2.659,2.718 h 0.829 l 2.047,20.386 c 0,0.894 0.726,1.509 1.622,1.509 h 2.329 c 0.894,0 1.62,-0.615 1.62,-1.509 l 2.047,-20.386 h 0.832 c 1.468,0 2.657,-1.249 2.657,-2.718 l -1.039,-7.061 z"
         id="path6" />
      <path
         fill="#000000"
         d="m 28.332,35.3919 c 1.127,0 2.145,-0.432 2.929,-1.121 l -1.396,-2.764 c -0.79,-1.563 -0.855,-3.305 -0.325,-4.846 -0.387,-0.109 -0.786,-0.187 -1.208,-0.187 -2.461,0 -4.458,1.997 -4.458,4.458 0,2.465 1.997,4.46 4.458,4.46 z"
         id="path8" />
      <path
         d="m 49.449,17.0129 c 0.641,0 1.16,-0.519 1.16,-1.159 V 8.9029025 c -0.001,-0.639 -0.519,-1.159 -1.16,-1.159 -0.641,0 -1.158,0.52 -1.158,1.159 V 15.8549 c 0.001,0.639 0.52,1.158 1.158,1.158 z"
         id="path12" />
      <path
         d="m 40.053,16.4779 1.444,2.501 c 0.065,0.111 0.148,0.202 0.24,0.283 0.212,0.189 0.484,0.297 0.767,0.297 0.196,0 0.393,-0.051 0.577,-0.157 0.553,-0.32 0.744,-1.028 0.422,-1.583 l -3.476,-6.019999 c -0.158,-0.277 -0.416,-0.463 -0.703,-0.54 -0.287,-0.077 -0.602,-0.045 -0.879,0.115 -0.339,0.196 -0.542,0.539 -0.572,0.901999 -0.002,0.007 -0.003,0.014 -0.003,0.021 -10e-4,0.009 0,0.019 0,0.027 -0.01,0.215 0.036,0.433 0.15,0.633 z"
         id="path14" />
      <path
         d="m 60.457,11.375901 c -0.555,-0.319999 -1.264,-0.129 -1.582,0.425 L 55.4,17.8209 c -0.322,0.554 -0.132,1.263 0.423,1.583 0.183,0.106 0.38,0.157 0.577,0.157 0.401,0 0.79,-0.208 1.003,-0.579 l 3.479,-6.021 c 0.319,-0.558 0.13,-1.264999 -0.425,-1.584999 z"
         id="path16" />
      <path
         d="m 41.903,47.9239 c 0.095,0.184 0.206,0.353 0.33,0.508 l 0.969,6.325 2.629,26.206 c 0,1.15 0.933,1.944 2.085,1.944 h 2.993 c 1.152,0 2.084,-0.794 2.084,-1.944 l 2.631,-26.206 h 1.067 c 1.89,0 3.42,-1.605 3.42,-3.491 l -1.935,-13.162 c 0,-1.887 -1.532,-3.26 -3.423,-3.26 H 44.072 c -0.666,0 -1.28,0.173 -1.807,0.475 l -4.057,-8.028 c -0.512,-1.013 -1.535,-1.596 -2.597,-1.596 -0.44,0 -0.889,0.101 -1.31,0.313 l -0.173,0.086 c -1.434,0.725 -2.006,2.474 -1.282,3.906 z"
         id="path18" />
      <path
         d="m 46.113,31.5029 c 0.933,0.66 2.07,1.05 3.3,1.05 1.23,0 2.367,-0.391 3.301,-1.05 1.47,-1.038 2.433,-2.747 2.433,-4.682 0,-3.166 -2.567,-5.733 -5.734,-5.733 -3.166,0 -5.731,2.567 -5.731,5.733 -0.001,1.935 0.962,3.644 2.431,4.682 z"
         id="path20" />
    </g>
  </g>
</svg>
