<?xml version="1.0" encoding="UTF-8" standalone="no"?>
<svg
   xmlns:dc="http://purl.org/dc/elements/1.1/"
   xmlns:cc="http://creativecommons.org/ns#"
   xmlns:rdf="http://www.w3.org/1999/02/22-rdf-syntax-ns#"
   xmlns:svg="http://www.w3.org/2000/svg"
   xmlns="http://www.w3.org/2000/svg"
   xmlns:sodipodi="http://sodipodi.sourceforge.net/DTD/sodipodi-0.dtd"
   xmlns:inkscape="http://www.inkscape.org/namespaces/inkscape"
   width="20"
   height="20"
   viewBox="0 0 20 20"
   version="1.1"
   id="svg838"
   inkscape:version="1.0.1 (3bc2e813f5, 2020-09-07)"
   sodipodi:docname="anus_gape.svg">
  <defs
     id="defs832" />
  <sodipodi:namedview
     id="base"
     pagecolor="#ffffff"
     bordercolor="#666666"
     borderopacity="1.0"
     inkscape:pageopacity="0.0"
     inkscape:pageshadow="2"
     inkscape:zoom="15.839192"
     inkscape:cx="7.041573"
     inkscape:cy="8.6740927"
     inkscape:document-units="mm"
     inkscape:current-layer="layer1"
     inkscape:document-rotation="0"
     showgrid="false"
     units="px"
     inkscape:window-width="1267"
     inkscape:window-height="1040"
     inkscape:window-x="75"
     inkscape:window-y="5"
     inkscape:window-maximized="0"
     inkscape:pagecheckerboard="true" />
  <metadata
     id="metadata835">
    <rdf:RDF>
      <cc:Work
         rdf:about="">
        <dc:format>image/svg+xml</dc:format>
        <dc:type
           rdf:resource="http://purl.org/dc/dcmitype/StillImage" />
        <dc:title></dc:title>
      </cc:Work>
    </rdf:RDF>
  </metadata>
  <g
     inkscape:label="Layer 1"
     inkscape:groupmode="layer"
     id="layer1">
    <path
       inkscape:connector-curvature="0"
       d="M 15.155037,13.97171 C 18.700804,7.43789 15.131607,4.001192 14.977626,3.855653 A 0.52182029,0.51065398 0 0 0 14.654098,3.720346 v 0 H 2.0312702 v 0 a 0.52182029,0.51065398 0 0 0 -0.289587,0.132775 c -0.15394,0.14555 -3.7231896,3.574579 -0.177411,10.116057 l -0.70967799,5.46144 A 0.52182029,0.51065398 0 0 0 1.3137992,20 h 0.06784 0.04433 5.740025 0.03099 a 0.52182029,0.51065398 0 0 0 0.503558,-0.375345 l 0.634012,-2.24688 0.634012,2.24688 A 0.52182029,0.51065398 0 0 0 9.4721202,20 0.64966629,0.63576424 0 0 0 9.6104132,19.98224 H 15.212156 A 0.54269315,0.53108017 0 0 0 15.342588,20 h 0.06784 a 0.52182029,0.51065398 0 0 0 0.451374,-0.569382 z M 3.6958652,13.121472 a 0.52182029,0.51065398 0 0 1 0.701851,-0.224693 2.9117574,2.8494494 0 0 0 1.3202,0.308938 3.0161215,2.9515802 0 0 0 2.118591,-0.863006 v -1.143862 a 0.5218225,0.51065615 0 0 1 1.043645,0 v 1.120883 a 3.0213397,2.9566868 0 0 0 2.1290228,0.885985 2.9117574,2.8494494 0 0 0 1.320204,-0.308938 0.52182029,0.51065398 0 1 1 0.464424,0.911519 3.9319163,3.8477779 0 0 1 -1.789848,0.418738 4.0127982,3.9269292 0 0 1 -2.6456268,-0.975352 4.0127982,3.9269292 0 0 1 -2.640412,0.975352 3.9319163,3.8477779 0 0 1 -1.795057,-0.418738 0.52182029,0.51065398 0 0 1 -0.226998,-0.68683 z"
       id="path5250-5"
       style="fill:#000000;stroke-width:0.258104" />
  </g>
</svg>
