<?xml version="1.0" encoding="UTF-8" standalone="no"?>
<svg
   xmlns:dc="http://purl.org/dc/elements/1.1/"
   xmlns:cc="http://creativecommons.org/ns#"
   xmlns:rdf="http://www.w3.org/1999/02/22-rdf-syntax-ns#"
   xmlns:svg="http://www.w3.org/2000/svg"
   xmlns="http://www.w3.org/2000/svg"
   xmlns:sodipodi="http://sodipodi.sourceforge.net/DTD/sodipodi-0.dtd"
   xmlns:inkscape="http://www.inkscape.org/namespaces/inkscape"
   width="20"
   height="20"
   viewBox="0 0 20 20"
   version="1.1"
   id="svg838"
   inkscape:version="1.0.1 (3bc2e813f5, 2020-09-07)"
   sodipodi:docname="arms_dragonkin.svg">
  <defs
     id="defs832" />
  <sodipodi:namedview
     id="base"
     pagecolor="#ffffff"
     bordercolor="#666666"
     borderopacity="1.0"
     inkscape:pageopacity="0.0"
     inkscape:pageshadow="2"
     inkscape:zoom="15.839192"
     inkscape:cx="21.549229"
     inkscape:cy="-1.1556015"
     inkscape:document-units="mm"
     inkscape:current-layer="g12"
     inkscape:document-rotation="0"
     showgrid="false"
     units="px"
     inkscape:window-width="1328"
     inkscape:window-height="1040"
     inkscape:window-x="562"
     inkscape:window-y="0"
     inkscape:window-maximized="0"
     inkscape:pagecheckerboard="true" />
  <metadata
     id="metadata835">
    <rdf:RDF>
      <cc:Work
         rdf:about="">
        <dc:format>image/svg+xml</dc:format>
        <dc:type
           rdf:resource="http://purl.org/dc/dcmitype/StillImage" />
        <dc:title />
      </cc:Work>
    </rdf:RDF>
  </metadata>
  <g
     inkscape:label="Layer 1"
     inkscape:groupmode="layer"
     id="layer1">
    <g
       style="clip-rule:evenodd;fill:#b71c1c;fill-opacity:1;fill-rule:evenodd;image-rendering:optimizeQuality;shape-rendering:geometricPrecision;text-rendering:geometricPrecision"
       id="g4681"
       transform="matrix(0.72499067,0,0,0.72499067,-13.413158,-35.098728)">
      <g
         id="g12"
         transform="matrix(1.0995289,0,0,1.0995289,10.560163,-8.1254288)"
         style="fill:#aa0000">
        <path
           d="m 11.218071,42.561578 -1.4852337,-1.949381 2.2278557,1.20676 c 0.464138,-0.464139 0.835449,-1.021105 1.20676,-1.578071 0.185656,-0.278483 0.278483,-0.556967 0.464138,-0.74262 l -2.042209,-1.763727 2.599174,0.742622 c 0.556967,-1.113933 0.928279,-2.135036 1.113932,-3.52745 l -3.063312,-0.556967 3.156141,-0.835449 c 0,-0.928277 0.185656,-1.670898 0.278484,-2.413521 l -2.320692,-1.57807 2.784829,0.09282 c 0.464138,-1.299588 1.021103,-2.320692 1.57807,-3.341797 -0.742621,-0.185655 -3.527452,-1.299586 -3.527452,-1.299586 0.649794,0.185655 3.99159,0.185655 4.455731,-0.185657 0.09281,-0.09282 0.185652,-0.278483 0.278481,-0.371309 -1.57807,-0.278484 -2.599174,-1.670897 -2.599174,-1.670897 1.113932,0.185653 3.52745,0.556965 4.362899,0.371308 0.09281,-0.09281 0.278484,-0.09281 0.371312,-0.185655 -0.928277,-2.506346 -5.662488,-4.73421 -5.662488,-4.73421 5.940971,0.556966 8.076006,3.248969 8.818629,4.548557 2.320691,1.113931 3.156139,3.713105 5.755315,5.198346 2.970484,1.6709 4.084415,2.877658 4.084415,2.877658 0.278485,0.371312 0.464139,0.83545 0.556967,1.206759 0.09282,0.742623 -0.185654,1.485245 -0.742619,1.856554 L 33.589539,33.00032 32.661263,33.74294 32.382779,32.536181 31.54733,33.00032 30.897536,32.072041 c -1.485242,0 -3.713105,-0.09281 -3.713105,-0.09281 0.74262,0.556968 1.206759,1.578073 1.392415,2.04221 l 0.556965,-0.185656 0.185657,0.928278 0.835448,-0.09281 v 0.928278 l 0.928276,-0.09282 -0.09282,1.021105 c 0.278483,1.57807 -1.763724,0.464136 -1.763724,0.464136 -2.784832,-2.135035 -4.641384,-3.991589 -6.219455,-3.434621 -1.578072,0.556964 -1.485242,2.970485 -1.578072,4.084416 -0.09281,2.78483 -0.371308,4.084417 -0.835448,5.755314 -0.556967,2.320694 -1.763727,4.084418 -3.341796,5.848145 l -1.763725,1.485241 c 3.434624,2.784831 0,10.211044 0,10.211044 l -2.320692,0.928278 8.725801,-0.928278 c 0,0 1.949382,0.278483 2.784829,1.763725 0.835451,1.485243 2.320692,2.599176 3.156141,3.713108 0.83545,1.113931 -0.278482,4.270072 -0.278482,4.270072 L 27.18444,68.274859 c 0,0 -1.392415,-1.113931 -2.506347,-2.227863 0,0 0.556966,2.042208 0.371313,2.877657 -0.09281,0.835448 -0.278486,2.78483 -1.20676,3.15614 l 0.27848,-2.506347 c 0,0 -0.371309,0 -1.206759,-1.11393 -0.835448,-1.113933 -1.206758,-2.877658 -1.206758,-2.877658 l -2.50635,-0.649798 c 0,0 -6.869247,3.341795 -10.3966832,2.320692 C 5.3699555,66.325468 7.1336804,57.599669 7.1336804,57.599669 5.1789476,52.787213 6.98047,45.565454 11.218071,42.561587 Z M 26.256154,28.266116 c 0,0 -0.185656,-0.835446 -1.021105,-1.021103 -0.835449,-0.185656 -1.485244,0.278482 -1.485244,0.278482 0,0 0.742623,1.392414 2.506349,0.742621 z"
           id="path8"
           style="fill:#c83737;stroke-width:0.928275;fill-opacity:1"
           sodipodi:nodetypes="cccsccccccccccccccccccccccccccccccccccccscccccccssccccccsccccccscc" />
      </g>
    </g>
  </g>
</svg>
