<?xml version="1.0" encoding="UTF-8" standalone="no"?>
<svg
   xmlns:dc="http://purl.org/dc/elements/1.1/"
   xmlns:cc="http://creativecommons.org/ns#"
   xmlns:rdf="http://www.w3.org/1999/02/22-rdf-syntax-ns#"
   xmlns:svg="http://www.w3.org/2000/svg"
   xmlns="http://www.w3.org/2000/svg"
   xmlns:sodipodi="http://sodipodi.sourceforge.net/DTD/sodipodi-0.dtd"
   xmlns:inkscape="http://www.inkscape.org/namespaces/inkscape"
   width="20"
   height="20"
   viewBox="0 0 20 20"
   version="1.1"
   id="svg838"
   inkscape:version="1.0.1 (3bc2e813f5, 2020-09-07)"
   sodipodi:docname="arms_neko.svg">
  <defs
     id="defs832" />
  <sodipodi:namedview
     id="base"
     pagecolor="#ffffff"
     bordercolor="#666666"
     borderopacity="1.0"
     inkscape:pageopacity="0.0"
     inkscape:pageshadow="2"
     inkscape:zoom="11.313709"
     inkscape:cx="13.830331"
     inkscape:cy="-16.775866"
     inkscape:document-units="mm"
     inkscape:current-layer="g887"
     inkscape:document-rotation="0"
     showgrid="false"
     units="px"
     inkscape:window-width="1267"
     inkscape:window-height="1040"
     inkscape:window-x="637"
     inkscape:window-y="0"
     inkscape:window-maximized="0"
     inkscape:pagecheckerboard="true"
     showguides="false" />
  <metadata
     id="metadata835">
    <rdf:RDF>
      <cc:Work
         rdf:about="">
        <dc:format>image/svg+xml</dc:format>
        <dc:type
           rdf:resource="http://purl.org/dc/dcmitype/StillImage" />
        <dc:title />
      </cc:Work>
    </rdf:RDF>
  </metadata>
  <g
     inkscape:label="Layer 1"
     inkscape:groupmode="layer"
     id="layer1">
    <g
       id="g8"
       style="image-rendering:optimizeQuality;shape-rendering:geometricPrecision;text-rendering:geometricPrecision"
       transform="matrix(2.7118797e-4,0,0,2.7118797e-4,1.9313204,2.7208454)">
      <g
         id="g922"
         transform="matrix(-1.0130524,-1.0130524,1.0130524,-1.0130524,39272.793,80034.822)">
        <g
           id="g951"
           transform="matrix(1.258959,0,0,1.258959,-8385.2544,677.5883)">
          <g
             id="g887"
             transform="matrix(0,1,1,0,15224.932,-13960.009)">
            <path
               style="fill:#c87137;stroke:none;stroke-width:3687.48px;stroke-linecap:butt;stroke-linejoin:miter;stroke-opacity:1;fill-opacity:1"
               d="m 21949.522,25328.527 -3623.336,22003.614 524.711,12405.22 23417.994,34.386 -3287.219,-34608.958 z"
               id="path893"
               sodipodi:nodetypes="cccccc" />
            <path
               d="m 42571.38,59440.45 c 13.8,214.96 -153.39,400.16 -373.44,413.64 -220.05,13.48 -409.64,-149.84 -423.44,-364.8 -136.22,-2099.17 -507.29,-5419.93 -940.07,-9293.19 -528.82,-4732.69 -1149.29,-10286.07 -1546.75,-15464.65 -642.015,-11769.347 -16100.522,-12212.466 -18049.26,-3537.32 -212,1122.11 -434.65,2228.75 -657.31,3335.38 -1254.95,6237.14 -2509.88,12474.3 -1821.44,21355.19 36.49,470.82 202.27,2241.84 292.17,3168.63 48.71,502.2 178.31,799.53 -308.54,846.33 -497.01,47.78 -434.09,-244.07 -481.11,-727.67 -87.67,-901.54 -256.07,-2695.26 -292.43,-3157.4 -710.12,-9025.09 558.41,-15329.88 1826.97,-21634.65 668.51,-3322.49 1337.02,-6645.03 1710.87,-10346.54 15.39,-1170.2 -135.63,-1896.67 -373.31,-2388.85 -130.44,-270.11 -292.37,-472.94 -468.89,-643.55 -412.21,-303.56 -782.51,-685.36 -1099.57,-1115.35 -585.35,-793.86 -992.17,-1758.2 -1144.44,-2694.59 -110.42,-679.06 -88.98,-1347.13 92.07,-1932.55 229.29,-741.8 -71.54,234.43 24.82,-74.81 89.71,-287.63 176.61,-566.28 142.02,-820.26 -107.81,-791.84 -725.91,-1592.58 -846.14,-1748.33 -7.95,-10.31 -13.37,-17.34 -29.67,-40.41 -282.5,-400.52 -490.53,-794.33 -628.59,-1175.64 -258.74,-714.68 -275.82,-1390.95 -79.76,-1993.17 130.76,-401.66 354.71,-765.44 663.43,-1081.17 -45.45,-338.83 -51.2,-677.89 -7.76,-1026.57 51.86,-416.4 174.1,-844.26 382.92,-1299.29 81.9,-179.24 285.42,-268.29 473.18,-215.86 l 0.26,-0.88 c 444.18,124.95 849.49,291.13 1223.7,531.65 321.89,206.88 613.93,464.82 879.21,793.62 104.82,-1.94 206.96,1.1 306.37,9 277.12,22 533.03,81.11 767.12,174.98 -45.65,-710.83 70.83,-1359.52 331.4,-1930.17 327.09,-716.31 877.92,-1301.93 1617.24,-1726.52 11.55,-6.63 23.15,-13.22 34.79,-19.76 13.53,-372.03 71.42,-733.61 187.53,-1093.82 129.19,-400.77 329.41,-799.64 619.49,-1209.06 118.15,-167.17 346.18,-216.06 523.81,-118.07 409.22,201.77 771.26,434.85 1086.27,730.83 279.95,263.01 520.52,572.31 721.07,948.68 1005.92,14.18 1811.32,289.44 2412.17,784.08 44.92,36.98 88.6,75.15 131.09,114.43 268.72,-743.83 736.4,-1323.13 1400.96,-1702.67 691.03,-394.67 1584.16,-561.97 2674.78,-459.82 9,-14.21 19.01,-28.03 30.09,-41.34 268.46,-322.66 569.77,-602.46 926.98,-837.67 356.88,-235 768.12,-425.26 1256.36,-569.01 197.63,-57.51 404.89,41.44 482.54,223.29 191.33,405.9 326.14,809.85 384.45,1238.05 48.27,354.49 42.87,719.97 -27.73,1109.82 456.48,369.6 809.53,818.82 1045.8,1336.25 324.67,711.04 425.71,1543.21 268.03,2465.83 -70.28,411.17 -192.37,841.06 -369.41,1286.78 248.21,-111.26 503.05,-194.99 765.52,-246 497.26,-96.66 1012.03,-77.01 1547.96,91.97 326.93,-237.47 676.22,-429.83 1068,-571 402.54,-145.06 847.77,-234.27 1357.43,-260.69 200.92,-10 374.67,127.02 411.9,314.55 l 0.6,-0.12 c 89.3,443.79 123.32,871.45 75.55,1304.17 -42.2,382.11 -148.34,763.12 -336.54,1156.1 1461.24,2140.85 69.06,5048.23 -1250.1,7802.58 -228.82,477.77 -455.33,950.69 -671.59,1432.37 -1086.98,2420.98 -959.99,8707.66 -417.55,15746.06 4.94,26.97 6.91,53.84 6.11,80.25 399.51,5157.99 1020.19,10712.8 1548.62,15441.93 433.99,3884.08 806.1,7214.11 943.19,9326.78 z"
               id="path6"
               style="fill:#502d16;fill-opacity:1"
               sodipodi:nodetypes="csccccssssccscsccscccsccsccccccccccscsccccscccccccsccccccccccccsccccc" />
            <path
               d="m 36003.2,3280.2 c -79.85,-26.39 -146.26,-75.73 -193.34,-138.44 -66.62,-44.35 -135.48,-86.97 -206.56,-127.79 -467.41,-268.44 -1031.79,-461.13 -1680.21,-566.88 -1141.49,-186.16 -2031.6,-70.56 -2669.58,293.82 -633.6,361.86 -1032.59,986.06 -1193.09,1815.76 202.1,366.67 343.14,785.63 422.67,1250.96 50.97,298.29 76.41,618.96 76.2,960.19 0,214.96 -178.39,389.22 -398.44,389.22 -220.05,0 -398.44,-174.26 -398.44,-389.22 0.18,-292.57 -22.13,-570.42 -66.82,-831.97 -123.82,-724.46 -421.22,-1297.31 -889.75,-1683.01 -472.5,-388.98 -1132.26,-601.03 -1978.22,-601.54 -309.4,-0.19 -646.4,28.62 -1011.08,88.09 -648.42,105.75 -1212.8,298.44 -1680.21,566.88 -593.66,340.93 -1033.82,806.47 -1292.24,1372.41 -260.84,571.23 -339.84,1252.5 -208.65,2020.12 122.02,713.92 424.29,1498.95 928.74,2337.11 111.31,185.45 47.65,423.96 -142.19,532.69 -189.84,108.73 -434,46.55 -545.31,-138.9 -449.88,-747.5 -754.95,-1462.35 -927.87,-2133.24 -22.36,-12.29 -43.85,-26.86 -64.09,-43.78 -246.46,-205.18 -557.25,-328.27 -929.77,-357.86 -388.4,-30.85 -842.7,37.45 -1360.83,216.46 -322.95,111.56 -606.26,250.22 -846.82,412.14 -98.44,66.26 -189.98,136.5 -274.42,210.44 -11.52,11.65 -23.79,22.63 -36.77,32.85 -277.97,253.26 -474.46,548.22 -580.59,874.23 -143.29,440.11 -125.85,948.02 73.5,1498.65 115.81,319.86 291.75,652.25 531.73,992.48 10.28,14.54 -1.8,-3.57 10.91,12.91 140.56,182.09 863.18,1118.23 999.26,2117.72 54.08,397.15 -43.76,740.1 -152.47,1090.17 48.17,-154.44 118.43,-378.96 -39.37,131.55 -146.08,472.36 -161.88,1020.64 -70.19,1584.53 133.34,819.98 490.17,1665.24 1003.82,2361.86 169.45,229.8 355.62,442.69 555.9,632.13 143.29,108.35 285.55,220.75 422.73,348.55 279.46,198.42 579.25,351.03 893.95,443.9 339.46,100.17 696.4,130.86 1063.36,73.91 217.46,-33.71 421.74,111.16 456.25,323.59 34.51,212.43 -113.79,411.98 -331.25,445.69 -443.84,68.87 -872.44,44.01 -1279.46,-57.21 204.51,566.96 326.13,1331.83 310.02,2422.1 l -1.56,33.58 c -152.53,1513.23 -352.41,2957.78 -580.57,4361.36 -76.44,722.19 -546.603,2459.84 -358.794,3548.367 21.822,126.476 965.934,19.233 1009.114,106.513 879.512,-1193.782 14013.861,5297.923 17160.364,6099.145 325.471,82.878 -640.274,-7962.12 -524.884,-7823.275 -267.68,-5349.45 -156.74,-9831.4 751.87,-11855.11 207.08,-461.23 442.82,-953.43 680.97,-1450.68 1281.72,-2676.16 2638.23,-5508.67 1112.18,-7295.24 -1191.53,-1260.12 -2208.14,-1622.09 -3111.98,-1446.4 -572.37,111.24 -1120.1,435.08 -1650.22,883.81 -6.52,5.93 -13.21,11.61 -20.07,17.06 -327.89,279.73 -649.08,606.85 -965.19,960.68 -144.97,161.85 -396.82,178.25 -562.5,36.64 -165.68,-141.62 -182.47,-387.64 -37.5,-549.49 325.12,-363.91 658.04,-703.26 1002.12,-1000.6 485.18,-817.97 777.22,-1584.71 896.63,-2283.34 131.19,-767.61 52.19,-1448.88 -208.65,-2020.12 -196.5,-430.32 -498.1,-802.58 -892.34,-1106.17 z"
               id="path845"
               style="fill:#c87137;fill-opacity:1"
               sodipodi:nodetypes="cccsccccscccsccsscscccscscccsccccccsccscscccccscscscccccccccccc" />
            <path
               d="m 31504.19,14015.02 c 609.06,605.49 1317.62,1423.96 1882.32,2232.36 475.82,681.18 854.92,1363.44 1001.2,1925.03 314.16,1206.05 -695.53,1979.35 -2143.08,2339.16 -628.97,156.35 -1344.53,234.52 -2057.51,234.52 -712.97,0 -1428.54,-78.17 -2057.52,-234.51 -1447.54,-359.81 -2457.26,-1133.11 -2143.11,-2339.17 148.12,-568.58 534.75,-1260.69 1018.67,-1949.96 576.74,-821.47 1299.21,-1650.87 1912.54,-2254.57 450.66,-443.59 876.03,-644.08 1320.18,-624.97 436.38,18.79 842.13,250.42 1266.31,672.11 z"
               id="path873"
               style="fill:#ff9955" />
            <path
               d="m 22868.99,12535.47 c 129.87,408.62 227.73,848.95 279.23,1191.19 44.39,294.92 8.6,522.36 -133.29,690.35 -9.65,12.53 -20.17,24.65 -31.59,36.25 -179.65,181.44 -432.14,228.94 -784.63,145.86 -348.61,-82.17 -795.87,-219.99 -1202.25,-385.26 -348.27,-141.64 -674.6,-306.19 -902.73,-479.42 -485.38,-368.61 -538.12,-874.17 -343.95,-1356.81 111.06,-276.07 309.45,-540.93 549.72,-754.25 240.9,-213.88 529.85,-381.84 821.21,-463.38 510.25,-142.82 1020.41,-43.24 1349.95,464.12 152.41,234.67 287.57,562.87 398.33,911.35 z"
               id="path857"
               style="fill:#ff9955" />
            <path
               d="m 36766.55,13636.36 c 59.57,-395.85 172.67,-904.85 322.68,-1376.84 127.24,-400.34 282.17,-776.83 456.41,-1045.07 364.82,-561.7 931.03,-671.55 1497.87,-512.91 329.3,92.16 656.41,282.47 929.62,525.02 272.55,241.98 497.38,541.85 622.87,853.79 215.7,536.16 157.85,1097.2 -379.55,1505.3 -260.71,197.98 -635.19,386.64 -1035.49,549.46 -470.12,191.2 -986.97,350.49 -1389.48,445.37 -384.64,90.69 -657.87,41.16 -849.13,-151.99 l -0.74,-0.77 -0.82,0.77 c -180.18,-181.96 -226.8,-442.76 -174.24,-792.13 z"
               id="path861"
               style="fill:#ff9955" />
            <path
               d="m 31552.55,9387.58 c -106.08,-417.66 -205.71,-963.9 -252.56,-1481.8 -39.75,-439.47 -42.54,-868.01 18.13,-1200.91 124.87,-685.13 628.93,-1011.05 1242.86,-1077.37 358.08,-38.68 754.66,19.17 1120.48,149.02 365.7,129.79 707.7,334.06 956.81,588.23 427.49,436.2 600.35,1001.88 246.65,1604.21 -173.66,295.71 -463.52,627.99 -789.8,945.63 -384.3,374.13 -826.91,734.6 -1183.14,986.17 -333.65,235.64 -614.84,294.15 -873.13,183.63 -245.44,-105.03 -395.32,-338.64 -486.3,-696.81 z"
               id="path865"
               style="fill:#ff9955" />
            <path
               d="m 36065.21,32492.59 c 33.91,84.43 60.71,132.67 78.78,136.54 76.21,16.38 -16.3,-40.4 -78.78,-136.54 z"
               id="path877"
               style="fill:#552200" />
            <path
               d="m 28362.9,8329.92 c 8.19,518.07 -31.97,1062.76 -91.74,1478.21 -52.13,362.3 -175.48,607.72 -406.66,735.94 -243.95,135.31 -528.03,105.85 -882.3,-93.4 -377.07,-212.06 -849.37,-521.73 -1264.23,-849.53 -351.96,-278.09 -671.01,-575.68 -874.44,-851.47 -411.93,-558.47 -301.84,-1132.26 72.55,-1603.42 219.51,-276.27 535.09,-512.05 881.22,-676.24 344.57,-163.46 728.03,-259.5 1085.14,-257.22 612.45,3.93 1143.6,274.38 1338.28,936.28 93.48,317.81 135.23,740.77 142.18,1180.85 z"
               id="path871"
               style="fill:#ff9955" />
            <path
               d="m 22402.91,13895.7 c -5.27,20.61 -12.34,35.18 5.43,17.24 l 6.66,-6.59 c 2.5,-5.53 -3.29,-7.37 -12.09,-10.65 z"
               id="path859"
               style="fill:#552200" />
            <path
               d="m 18521.94,7740.21 c 243.96,-141.1 513.4,-263.34 806.56,-364.62 147.47,-50.96 291.45,-94.45 431.85,-130.66 -116.89,-106.23 -238.76,-199.17 -365.98,-280.94 -203.4,-130.74 -424.96,-235.54 -665.32,-322.52 -93.74,258.17 -153.31,506.03 -183.48,748.27 -14.66,117.68 -22.34,234.34 -23.63,350.47 z"
               id="path849"
               style="fill:#000000" />
            <path
               d="m 24602.42,3241.02 c 335.97,-117.16 697.64,-208.07 1082.86,-270.91 109.59,-17.87 217.56,-33.23 323.91,-46.12 -114.12,-164.03 -239.87,-308.46 -377.21,-437.5 -177,-166.3 -374.7,-309.22 -592.63,-437.07 -141.07,237.69 -246.31,470.97 -321.32,703.69 -52.35,162.4 -90.25,324.61 -115.61,487.91 z"
               id="path847"
               style="fill:#000000" />
            <path
               d="m 34456.47,1755.46 c 507.34,113.8 968.52,279.68 1377.87,492.82 10.92,-180.76 3.76,-354.83 -19.37,-524.72 -32.09,-235.65 -95.8,-467.31 -185.36,-700.81 -262.12,100.05 -493.33,218.5 -700.49,354.91 -172.35,113.48 -328.6,239.52 -472.65,377.8 z"
               id="path843"
               style="fill:#000000" />
            <path
               d="m 40685.3,8054.44 c 370.41,220.37 750.95,513.91 1142.7,890.26 65.21,-192.73 106.5,-382.77 127.48,-572.75 26.21,-237.37 20.66,-477.76 -9.58,-725.62 -278.6,36.51 -532.15,98.11 -767.14,182.78 -173.05,62.35 -336.66,137.77 -493.46,225.33 z"
               id="path841"
               style="fill:#000000" />
            <path
               style="fill:#502d16;fill-opacity:1;stroke-width:1377.75"
               d="m 40556.849,37240.936 c -290.857,-542.528 -1373.092,-1159.147 -2548.884,-1123.661 -1380.522,43.275 -2589.323,175.691 -4673.362,734.109 -1926.426,977.079 -540.09,1646.032 530.796,1756.326 658.039,-99.298 1164.748,-85.695 1610.461,-72.472 544.668,15.234 1016.378,31.184 1613.432,-157.325 339.782,-105.306 663.552,-265.257 978.779,-419.612 693.075,-341.18 1826.342,-58.387 2154.742,411.321"
               id="path852"
               sodipodi:nodetypes="cccccccc" />
            <path
               style="fill:#502d16;fill-opacity:1;stroke-width:1123.14"
               d="m 39007.88,30389.16 c -350.334,-6.854 -732.516,78.19 -1201.912,-347.624 -351.319,-318.97 -656.185,-591.648 -1119.32,-557.143 -1069.155,83.495 -1979.306,571.796 -2865.798,1534.488 -1388.168,4083.331 881.054,1434.25 1898.723,1356.505 511.383,130.751 1291.583,-56.347 1919.315,-206.236 498.417,-116.905 573.528,1.106 735.108,81.009 139.01,66.972 408.321,191.73 562.547,478.017 120.852,217.81 241.686,36.364 347.933,143.803"
               id="path2"
               sodipodi:nodetypes="ccccccccc" />
            <path
               style="fill:#502d16;fill-opacity:1;stroke-width:1236.81;image-rendering:optimizeQuality;shape-rendering:geometricPrecision;text-rendering:geometricPrecision"
               d="m 20982.072,31403.642 c 292.116,504.337 916.884,800.363 1972.477,834.541 1239.302,38.681 1903.862,83.362 3746.998,-301.762 1677.833,-770.559 -1267.832,-1386.305 -2237.26,-1545.711 -1399.309,-153.178 -449.177,-130.142 -1667.294,188.149 -604.22,267.92 -1256.124,269.292 -1577.915,-171.656"
               id="path852-4"
               sodipodi:nodetypes="cccccc" />
            <path
               id="path852-4-2"
               style="fill:#502d16;fill-opacity:1;stroke-width:1168.11;image-rendering:optimizeQuality;shape-rendering:geometricPrecision;text-rendering:geometricPrecision"
               d="m 25170.283,36141.389 c -255.607,-464.868 268.887,-1479.261 -727.608,-1468.579 -1169.977,13.908 -2192.863,106.242 -3950.924,545.379 -1617.494,796.769 -430.827,1386.932 479.113,1498.141 556.382,-73.344 986.299,-53.443 1364.486,-34.871 462.134,21.91 862.411,43.223 1365.605,-106.778 286.398,-83.691 1204.561,-307.601 1469.328,-433.292"
               sodipodi:nodetypes="ccccccc" />
          </g>
        </g>
      </g>
    </g>
  </g>
</svg>
