<?xml version="1.0" encoding="UTF-8" standalone="no"?>
<svg
   xmlns:dc="http://purl.org/dc/elements/1.1/"
   xmlns:cc="http://creativecommons.org/ns#"
   xmlns:rdf="http://www.w3.org/1999/02/22-rdf-syntax-ns#"
   xmlns:svg="http://www.w3.org/2000/svg"
   xmlns="http://www.w3.org/2000/svg"
   xmlns:sodipodi="http://sodipodi.sourceforge.net/DTD/sodipodi-0.dtd"
   xmlns:inkscape="http://www.inkscape.org/namespaces/inkscape"
   width="20"
   height="20"
   viewBox="0 0 20 20"
   version="1.1"
   id="svg838"
   inkscape:version="1.0.1 (3bc2e813f5, 2020-09-07)"
   sodipodi:docname="arms_demon.svg">
  <defs
     id="defs832" />
  <sodipodi:namedview
     id="base"
     pagecolor="#ffffff"
     bordercolor="#666666"
     borderopacity="1.0"
     inkscape:pageopacity="0.0"
     inkscape:pageshadow="2"
     inkscape:zoom="7.919596"
     inkscape:cx="-7.0766859"
     inkscape:cy="8.5915517"
     inkscape:document-units="mm"
     inkscape:current-layer="layer1"
     inkscape:document-rotation="0"
     showgrid="false"
     units="px"
     inkscape:window-width="1316"
     inkscape:window-height="1040"
     inkscape:window-x="0"
     inkscape:window-y="0"
     inkscape:window-maximized="0"
     inkscape:pagecheckerboard="true" />
  <metadata
     id="metadata835">
    <rdf:RDF>
      <cc:Work
         rdf:about="">
        <dc:format>image/svg+xml</dc:format>
        <dc:type
           rdf:resource="http://purl.org/dc/dcmitype/StillImage" />
        <dc:title />
      </cc:Work>
    </rdf:RDF>
  </metadata>
  <g
     inkscape:label="Layer 1"
     inkscape:groupmode="layer"
     id="layer1">
    <g
       style="clip-rule:evenodd;fill:#9c4dcc;fill-opacity:1;fill-rule:evenodd;image-rendering:optimizeQuality;shape-rendering:geometricPrecision;text-rendering:geometricPrecision"
       id="g4904"
       transform="matrix(-0.57008582,0,0,0.56661271,-9.4856378,-39.848816)">
      <g
         id="g4887"
         transform="matrix(1.7032022,0,0,1.7032022,-45.898449,78.515584)"
         style="fill:#9c4dcc;fill-opacity:1">
        <path
           id="path4885"
           d="M 9.2668381,9.6028872 C 11.725287,8.9311342 12.351422,7.4584386 11.217592,5.4070919 10.624824,6.1585743 10.793403,7.1180172 9.8030402,5.3776557 9.0993423,4.1410818 8.7098788,3.5648 8.1018248,3.3883509 8.0562374,3.3751104 8.1866819,1.871076 7.4541219,1.7963959 8.0531662,2.0241547 7.9311116,3.2987228 7.8439784,3.2951822 5.098113,3.1849523 5.7238095,3.7831347 6.1992878,5.2027357 6.2635525,5.3946144 5.9512012,5.5835614 6.1088767,5.8464649 6.4025995,6.3359901 6.7767801,5.9092843 7.1567586,5.9569124 7.4936024,5.9989975 7.3373668,6.9451599 7.8115888,6.9274243 7.7408008,8.1565119 9.3805103,8.6149509 10.292376,7.3834312 8.6266883,9.5612642 7.3362623,8.1590581 6.9763455,7.3219642 6.1902389,7.6423493 5.1021203,5.9403035 5.0748368,5.9678146 5.0706799,5.9702294 6.0967424,8.1344085 4.3593664,7.5532624 4.6585155,9.1752912 5.4576507,9.6660202 7.1350433,8.8992562 5.4922864,10.341726 3.4828627,9.3231162 3.3666879,7.1979282 2.8065615,7.4321937 4.6890986,2.7494694 5.0709337,1.7137172 4.4246561,3.025946 2.7132918,6.3673528 3.2542032,7.6403945 3.8188384,8.9698732 2.9010666,8.356716 2.8461179,8.4676178 c 0,0 0.092918,0.9781014 0.2798492,1.1595824 0.3953107,0.3836328 0.7908594,0.288963 1.0096794,0.9425538 0.039538,0.117793 -0.1843753,0.410558 -0.2722933,0.459781 0.8623105,1.497891 1.7952136,1.713231 3.1308223,0.378631 C 5.4472294,14.27647 2.4899273,11.689935 2.0037994,9.9700582 1.8364405,9.3783772 2.2448316,9.5370972 1.682181,8.1609717 1.4794132,7.665146 2.5512307,5.4891121 2.4861089,3.7909523 4.918192,0.8887217 2.6089468,1.6307322 7.1122097,-0.98516449 8.724765,-1.4994888 16.664991,-7.9590353 17.195924,-7.5612299 l 1.175811,2.0596718 c -2.50897,4.0688808 -8.4071132,4.3628228 -7.876647,9.0821082 0.193179,0.2539424 0.194491,-0.1172496 0.671234,0.3775061 2.345582,1.2927224 1.683397,5.648763 -1.8994744,5.644844 z"
           class="fil0"
           inkscape:connector-curvature="0"
           style="fill:#9c4dcc;fill-opacity:1;fill-rule:nonzero"
           sodipodi:nodetypes="ccccccscccccccccccccccccccccccccc" />
      </g>
    </g>
  </g>
</svg>
