<?xml version="1.0" encoding="UTF-8" standalone="no"?>
<svg
   xmlns:dc="http://purl.org/dc/elements/1.1/"
   xmlns:cc="http://creativecommons.org/ns#"
   xmlns:rdf="http://www.w3.org/1999/02/22-rdf-syntax-ns#"
   xmlns:svg="http://www.w3.org/2000/svg"
   xmlns="http://www.w3.org/2000/svg"
   xmlns:sodipodi="http://sodipodi.sourceforge.net/DTD/sodipodi-0.dtd"
   xmlns:inkscape="http://www.inkscape.org/namespaces/inkscape"
   width="20"
   height="20"
   viewBox="0 0 20 20"
   version="1.1"
   id="svg838"
   inkscape:version="1.0.1 (3bc2e813f5, 2020-09-07)"
   sodipodi:docname="arms_werewolf.svg">
  <defs
     id="defs832" />
  <sodipodi:namedview
     id="base"
     pagecolor="#ffffff"
     bordercolor="#666666"
     borderopacity="1.0"
     inkscape:pageopacity="0.0"
     inkscape:pageshadow="2"
     inkscape:zoom="15.839192"
     inkscape:cx="9.6956575"
     inkscape:cy="13.535411"
     inkscape:document-units="mm"
     inkscape:current-layer="layer1"
     inkscape:document-rotation="0"
     showgrid="false"
     units="px"
     inkscape:window-width="1267"
     inkscape:window-height="1040"
     inkscape:window-x="52"
     inkscape:window-y="0"
     inkscape:window-maximized="0"
     inkscape:pagecheckerboard="true" />
  <metadata
     id="metadata835">
    <rdf:RDF>
      <cc:Work
         rdf:about="">
        <dc:format>image/svg+xml</dc:format>
        <dc:type
           rdf:resource="http://purl.org/dc/dcmitype/StillImage" />
        <dc:title />
      </cc:Work>
    </rdf:RDF>
  </metadata>
  <g
     inkscape:label="Layer 1"
     inkscape:groupmode="layer"
     id="layer1">
    <path
       style="fill:#ac9393;fill-opacity:1;stroke-width:0.809298"
       id="path4522-8"
       d="m 11.541553,-3.2394349 c -0.734242,0.1967393 -2.198072,3.60522993 -2.8669645,4.6223081 -0.806759,1.0540182 -1.822976,1.326313 -1.822976,1.326313 0,0 1.757539,0.6182755 2.3328205,2.1398302 L 9.759911,6.3705151 8.3247675,5.0793632 c 0.506886,0.9533865 0.9928255,1.8285946 1.4519645,2.2920623 1.017757,0.9840756 1.898615,0.8318347 1.898615,0.8318347 0,0 2.75286,0.2677938 3.40484,0.5120224 0.672884,0.3224463 2.067657,2.7135884 2.067657,2.7135884 0.773432,1.636029 -0.700545,2.701256 -0.700545,2.701256 0.16599,-0.630972 -0.340886,-1.584355 -0.340886,-1.584355 0,0 -1.101536,-1.296766 -1.419855,-1.546612 -0.318361,-0.249806 -2.581214,-0.565136 -2.581214,-0.565136 l 1.507765,0.936559 c 1.507715,0.936565 1.957318,1.989083 1.957318,1.989083 0.966124,1.416833 -1.362207,3.046124 -0.976971,2.607761 0.385389,-0.438377 -0.148206,-1.803563 -0.148206,-1.803563 l -0.86551,-0.103208 c -0.335141,-1.250763 -2.723713,-2.03509 -2.723713,-2.03509 l 0.975855,0.827725 c 0.975855,0.827722 1.013772,1.906774 1.013772,1.906774 0.954909,0.749552 0.247177,1.860818 0.247177,1.860818 0,0 -0.710591,-1.401508 -1.356963,-1.312101 -0.568184,0.06849 -2.687434,-2.212378 -2.687434,-2.212378 0,0 0.356086,1.32893 1.055663,2.063118 0.678635,0.656008 0.569729,1.1879 0.569729,1.1879 l 1.017749,0.984077 C 11.144328,17.478132 9.72039,16.854252 8.927443,16.396442 8.0353745,15.881408 7.3497545,13.635355 7.2184715,12.832677 c -0.13143,-0.802631 -0.31002,-2.095339 -0.31002,-2.095339 L 5.7706335,9.6178689 C 5.4313195,9.2898819 5.1705245,8.9408179 4.8520585,8.6910123 l 0.544602,2.0324817 C 5.5165975,10.858944 3.2983225,8.5208355 3.1026715,6.2272889 2.5177555,5.2948099 2.1883705,4.3776432 2.0417485,3.8304452 1.7066076,2.5796825 2.9932305,-2.624601 2.9932305,-2.624601 c 0.335139,1.2507579 1.879143,2.01004066 1.879143,2.01004066 L 3.9842785,-2.0522977 c -0.584917,-0.9324787 -0.639403,-3.0124998 -0.02131,-4.7700377 l -1.3959,1.0442913 c 1.148659,-2.9051142 3.160198,-3.5278907 3.160198,-3.5278907 2.328329,-1.6292992 4.7782635,-1.8668312 4.7782635,-1.8668312 l -3.0958415,5.0187791 c 1.8623165,1.009118 4.6331125,-1.1576989 4.6331125,-1.1576989 l 0.450886,2.3089498 z"
       inkscape:connector-curvature="0"
       sodipodi:nodetypes="ccccccccccccccccccccscccccccsccccccsccccccccccc" />
  </g>
</svg>
