<?xml version="1.0" encoding="UTF-8" standalone="no"?>
<svg
   xmlns:dc="http://purl.org/dc/elements/1.1/"
   xmlns:cc="http://creativecommons.org/ns#"
   xmlns:rdf="http://www.w3.org/1999/02/22-rdf-syntax-ns#"
   xmlns:svg="http://www.w3.org/2000/svg"
   xmlns="http://www.w3.org/2000/svg"
   xmlns:sodipodi="http://sodipodi.sourceforge.net/DTD/sodipodi-0.dtd"
   xmlns:inkscape="http://www.inkscape.org/namespaces/inkscape"
   width="20"
   height="20"
   viewBox="0 0 20 20"
   version="1.1"
   id="svg838"
   inkscape:version="1.0.1 (3bc2e813f5, 2020-09-07)"
   sodipodi:docname="balls_huge.svg">
  <defs
     id="defs832" />
  <sodipodi:namedview
     id="base"
     pagecolor="#ffffff"
     bordercolor="#666666"
     borderopacity="1.0"
     inkscape:pageopacity="0.0"
     inkscape:pageshadow="2"
     inkscape:zoom="15.839192"
     inkscape:cx="7.041573"
     inkscape:cy="8.6740927"
     inkscape:document-units="mm"
     inkscape:current-layer="layer1"
     inkscape:document-rotation="0"
     showgrid="false"
     units="px"
     inkscape:window-width="1267"
     inkscape:window-height="1040"
     inkscape:window-x="75"
     inkscape:window-y="5"
     inkscape:window-maximized="0"
     inkscape:pagecheckerboard="true" />
  <metadata
     id="metadata835">
    <rdf:RDF>
      <cc:Work
         rdf:about="">
        <dc:format>image/svg+xml</dc:format>
        <dc:type
           rdf:resource="http://purl.org/dc/dcmitype/StillImage" />
        <dc:title></dc:title>
      </cc:Work>
    </rdf:RDF>
  </metadata>
  <g
     inkscape:label="Layer 1"
     inkscape:groupmode="layer"
     id="layer1">
    <g
       id="g5192"
       transform="matrix(0.00295962,0,0,0.00295962,33.940814,13.591788)"
       style="fill:#000000;fill-opacity:1">
      <g
         transform="matrix(0.26458333,0,0,0.26458333,-18180.519,-10973.48)"
         id="g5158"
         style="clip-rule:evenodd;fill:#000000;fill-opacity:1;fill-rule:evenodd;image-rendering:optimizeQuality;shape-rendering:geometricPrecision;text-rendering:geometricPrecision">
        <path
           id="path5150"
           d="m 8110,4764 c -196,-7 -431,-125 -641,-259 -210,-134 -397,-286 -546,-514 236,-162 473,-324 751,-450 277,-127 597,-218 916,-309 l 119,550 c 24,286 -31,534 -137,710 -107,175 -266,279 -462,272 z M 9570,2155 c -717,-135 -1179,-14 -1632,153 -453,167 -897,379 -1310,768 -414,388 -797,953 -1036,1833 -239,880 -334,2075 -274,3181 60,1106 274,2123 659,3191 386,1068 944,2187 1636,2783 439,379 932,546 1498,551 326,2 677,-50 1055,-147 1033,-266 2273,-873 3344,-1553 1070,-679 1970,-1432 2664,-2173 397,-424 726,-844 917,-1281 143,-326 208,-662 167,-1015 -97,-826 -776,-1751 -1711,-2663 C 14612,4870 13421,3970 12340,3324 11259,2679 10287,2289 9570,2155 Z"
           class="fil0"
           inkscape:connector-curvature="0"
           style="fill:#000000;fill-opacity:1" />
        <path
           id="path5152"
           d="m 13747,13352 c -1071,680 -2311,1287 -3344,1553 -378,97 -729,149 -1055,147 l -55,316 c -3,97 17,183 95,269 79,85 216,168 334,238 l 374,213 571,325 c 474,-130 948,-259 1364,-419 417,-161 776,-353 1136,-567 l 1096,-688 c 372,-238 753,-477 1088,-739 334,-262 621,-546 923,-853 303,-307 620,-636 894,-1003 273,-366 502,-771 731,-1175 -8,-212 -16,-424 -6,-575 9,-151 35,-242 6,-313 -29,-71 -113,-122 -217,-149 l -354,-34 c -191,437 -520,857 -917,1281 -694,741 -1594,1494 -2664,2173 z"
           class="fil0"
           inkscape:connector-curvature="0"
           style="fill:#000000;fill-opacity:1" />
        <path
           id="path5154"
           d="m 14759,15111 -1096,688 c -360,214 -719,406 -1136,567 -416,160 -890,289 -1364,419 l 716,1007 c 695,953 1606,2144 2580,3299 975,1155 2013,2275 3230,3518 1218,1242 2615,2608 3868,3664 1253,1056 2363,1803 3750,2701 1388,898 3055,1947 4458,2729 538,300 1037,560 1513,796 764,380 1467,697 2170,1014 -447,1100 -894,2200 -1255,3558 -360,1358 -635,2974 -687,4298 -25,631 1,1196 105,1717 113,571 318,1089 651,1583 636,945 1736,1805 3077,2286 1341,481 2922,585 4212,310 1289,-275 2286,-929 2956,-1599 670,-670 1014,-1358 1238,-2320 223,-963 326,-2201 258,-3490 -69,-1289 -310,-2630 -636,-3833 -327,-1203 -740,-2269 -1002,-3342 -262,-1072 -373,-2152 -562,-3240 -188,-1089 -455,-2187 -787,-3135 -333,-948 -732,-1746 -1097,-2352 -364,-605 -694,-1018 -1372,-1269 -679,-251 -1706,-340 -2733,-429 -754,-55 -1507,-110 -2388,-371 -882,-262 -1892,-730 -2885,-1291 -993,-561 -1967,-1216 -2948,-2006 -980,-791 -1967,-1717 -2828,-2518 l -2268,-2133 c -670,-657 -1274,-1295 -2062,-2196 l -2040,-2400 c -229,404 -458,809 -731,1175 -274,367 -591,696 -894,1003 -302,307 -589,591 -923,853 -335,262 -716,501 -1088,739 z"
           class="fil0"
           inkscape:connector-curvature="0"
           style="fill:#000000;fill-opacity:1" />
        <path
           id="path5156"
           d="m 27971,37165 c -661,762 -1074,1458 -1400,2137 -327,679 -567,1341 -705,1981 -138,641 -172,1259 -69,1827 103,567 344,1083 834,1521 490,438 1229,799 1963,903 733,105 1462,-48 2190,-200 -104,-521 -130,-1086 -105,-1717 52,-1324 327,-2940 687,-4298 361,-1358 808,-2458 1255,-3558 -703,-317 -1406,-634 -2170,-1014 -910,828 -1819,1656 -2480,2418 z"
           class="fil0"
           inkscape:connector-curvature="0"
           style="fill:#000000;fill-opacity:1" />
      </g>
    </g>
  </g>
</svg>
