<?xml version="1.0" encoding="UTF-8" standalone="no"?>
<svg
   xmlns:dc="http://purl.org/dc/elements/1.1/"
   xmlns:cc="http://creativecommons.org/ns#"
   xmlns:rdf="http://www.w3.org/1999/02/22-rdf-syntax-ns#"
   xmlns:svg="http://www.w3.org/2000/svg"
   xmlns="http://www.w3.org/2000/svg"
   xmlns:sodipodi="http://sodipodi.sourceforge.net/DTD/sodipodi-0.dtd"
   xmlns:inkscape="http://www.inkscape.org/namespaces/inkscape"
   width="20"
   height="20"
   viewBox="0 0 20 20"
   version="1.1"
   id="svg838"
   inkscape:version="1.0.1 (3bc2e813f5, 2020-09-07)"
   sodipodi:docname="bg_adventurer.svg">
  <defs
     id="defs832" />
  <sodipodi:namedview
     id="base"
     pagecolor="#ffffff"
     bordercolor="#666666"
     borderopacity="1.0"
     inkscape:pageopacity="0.0"
     inkscape:pageshadow="2"
     inkscape:zoom="15.839192"
     inkscape:cx="12.686043"
     inkscape:cy="10.77133"
     inkscape:document-units="mm"
     inkscape:current-layer="layer1"
     inkscape:document-rotation="0"
     showgrid="false"
     units="px"
     inkscape:window-width="1267"
     inkscape:window-height="1040"
     inkscape:window-x="52"
     inkscape:window-y="0"
     inkscape:window-maximized="0"
     inkscape:pagecheckerboard="true" />
  <metadata
     id="metadata835">
    <rdf:RDF>
      <cc:Work
         rdf:about="">
        <dc:format>image/svg+xml</dc:format>
        <dc:type
           rdf:resource="http://purl.org/dc/dcmitype/StillImage" />
        <dc:title />
      </cc:Work>
    </rdf:RDF>
  </metadata>
  <g
     inkscape:label="Layer 1"
     inkscape:groupmode="layer"
     id="layer1">
    <g
       style="fill:none;fill-rule:evenodd;stroke:none;stroke-width:1"
       id="g2065"
       transform="matrix(-0.61696848,0,0,0.61696848,19.254527,0.74546025)">
      <path
         style="fill:#000000"
         inkscape:connector-curvature="0"
         d="m 9.5000407,27.000041 c -3.5898509,0 -6.5,-2.910149 -6.5,-6.5 0,-3.589851 2.9101491,-6.5 6.5,-6.5 3.5898513,0 6.5000003,2.910149 6.5000003,6.5 0,3.589851 -2.910149,6.5 -6.5000003,6.5 z M 9.5,25 C 11.985281,25 14,22.985281 14,20.5 14,18.014719 11.985281,16 9.5,16 7.0147186,16 5,18.014719 5,20.5 5,22.985281 7.0147186,25 9.5,25 Z M 8.5,19.5 12,18 10.5,21.5 7,23 Z"
         id="path2059" />
      <g
         style="fill:#000000"
         transform="translate(3,3)"
         id="g2063">
        <path
           inkscape:connector-curvature="0"
           d="M 7,9.0145304 C 6.8345735,9.0049354 6.6678777,9.0000712 6.5000458,9.0000712 3.8925101,9.0000712 1.5592091,10.174209 0,12.022628 V 8.3499158 L 0.97948064,9.6497305 3.238363,7.9475405 2.0347329,6.3502695 0,7.8835508 V 5.475708 L 0.5,4.5 0,4.0432739 V 2.4 L 3.7531086,1.2987566 4.4887085,2.0355835 5.2275706,0.70897175 7,0 Z m 8,8.4987976 c 7e-6,-0.0044 10e-6,-0.0089 10e-6,-0.01329 0,-0.0044 -3e-6,-0.0089 -10e-6,-0.01329 V 2.4 L 18.011099,1.5970403 19,2.5 20.05217,1.0527546 24,0 v 2 l -1,1 1,1 V 9.5 19.6 L 18.952381,20.946032 17.41583,20.355779 16.465664,21.609156 15,22 Z M 14,13.496474 C 12.794213,11.242365 10.601934,9.5952602 8,9.1319968 V 0 L 11.023085,0.97108092 11.5,2 12.604237,1.7300338 14,2.4 V 7.5442737 L 12.588739,6.3174828 11.27662,7.826902 13.411262,9.6825172 14,9.005251 Z M 4.1420662,7.2995078 6.3708972,5.5581542 5.1395743,3.9821327 2.9107433,5.7234863 Z m 15.5813378,5.3381092 2.25147,2.25147 1.414213,-1.414213 -2.25147,-2.25147 2.43553,-2.4355297 -1.528738,-1.5287377 -2.435529,2.4355295 -2.583754,-2.5837534 -1.414213,1.4142136 2.583753,2.5837537 -2.265207,2.265207 1.528737,1.528738 z M 8.2837113,4.7668624 10.352292,6.695845 11.716289,5.2331376 9.647708,3.304155 Z"
           id="path2061" />
      </g>
    </g>
  </g>
</svg>
