<?xml version="1.0" encoding="UTF-8" standalone="no"?>
<svg
   xmlns:dc="http://purl.org/dc/elements/1.1/"
   xmlns:cc="http://creativecommons.org/ns#"
   xmlns:rdf="http://www.w3.org/1999/02/22-rdf-syntax-ns#"
   xmlns:svg="http://www.w3.org/2000/svg"
   xmlns="http://www.w3.org/2000/svg"
   xmlns:sodipodi="http://sodipodi.sourceforge.net/DTD/sodipodi-0.dtd"
   xmlns:inkscape="http://www.inkscape.org/namespaces/inkscape"
   width="20"
   height="20"
   viewBox="0 0 20 20"
   version="1.1"
   id="svg838"
   inkscape:version="1.0.1 (3bc2e813f5, 2020-09-07)"
   sodipodi:docname="bg_assassin.svg">
  <defs
     id="defs832" />
  <sodipodi:namedview
     id="base"
     pagecolor="#ffffff"
     bordercolor="#666666"
     borderopacity="1.0"
     inkscape:pageopacity="0.0"
     inkscape:pageshadow="2"
     inkscape:zoom="22.4"
     inkscape:cx="9.5314175"
     inkscape:cy="8.6286651"
     inkscape:document-units="mm"
     inkscape:current-layer="layer1"
     inkscape:document-rotation="0"
     showgrid="false"
     units="px"
     inkscape:window-width="1319"
     inkscape:window-height="1040"
     inkscape:window-x="52"
     inkscape:window-y="0"
     inkscape:window-maximized="0"
     inkscape:pagecheckerboard="true" />
  <metadata
     id="metadata835">
    <rdf:RDF>
      <cc:Work
         rdf:about="">
        <dc:format>image/svg+xml</dc:format>
        <dc:type
           rdf:resource="http://purl.org/dc/dcmitype/StillImage" />
        <dc:title />
      </cc:Work>
    </rdf:RDF>
  </metadata>
  <g
     inkscape:label="Layer 1"
     inkscape:groupmode="layer"
     id="layer1">
    <g
       id="g848"
       transform="translate(0,-0.95239215)">
      <path
         inkscape:connector-curvature="0"
         d="m 10.948369,17.74031 c 0.860769,-1.229413 1.237954,-2.74023 1.03406,-4.233257 2.205566,-0.788281 4.631444,-0.807685 6.850749,-0.05095 0.07317,0.02457 0.154394,0.0072 0.210217,-0.04687 0.05579,-0.05378 0.0768,-0.13542 0.05499,-0.207798 -0.839614,-2.832544 -3.632549,-4.6265867 -6.543923,-4.2316377 -0.788281,-2.205162 -0.808086,-4.631036 -0.05095,-6.850345 0.02419,-0.07317 0.0064,-0.154431 -0.04687,-0.210217 -0.05333,-0.05579 -0.133795,-0.0768 -0.207798,-0.05499 -2.8333571,0.839618 -4.6282021,3.634567 -4.2312341,6.543522 -2.20557,0.788281 -4.631845,0.807277 -6.850749,0.05095 -0.07317,-0.02457 -0.154394,-0.0072 -0.21021797,0.04687 -0.04123,0.03961 -0.0635,0.09381 -0.0635,0.149178 0,0.02003 0.0028,0.03961 0.0083,0.05858 0.83961497,2.8325437 3.63254997,4.6265877 6.54351897,4.2316417 0.548311,1.534995 0.72474,3.189245 0.520116,4.805265 z M 8.7981849,10.952615 c 0,-0.662563 0.539262,-1.2018217 1.2018211,-1.2018217 0.662563,0 1.201822,0.5392587 1.201822,1.2018217 0,0.662562 -0.539259,1.201413 -1.201822,1.201413 -0.6625591,0 -1.2018211,-0.538847 -1.2018211,-1.201413 z"
         id="path4940"
         style="stroke-width:0.413949"
         sodipodi:nodetypes="ccccccccccccsccccsssss" />
      <path
         inkscape:connector-curvature="0"
         d="m 7.4449619,12.934987 c 0.788281,2.205162 0.808086,4.631036 0.05095,6.850345 -0.02419,0.07317 -0.0064,0.154431 0.04687,0.210217 0.05333,0.05579 0.133795,0.0768 0.207798,0.05499 2.8333571,-0.839618 4.6282021,-3.634567 4.2312341,-6.543522 z"
         id="path4940-1"
         style="stroke-width:0.413949"
         sodipodi:nodetypes="cccccc" />
    </g>
  </g>
</svg>
