<?xml version="1.0" encoding="UTF-8" standalone="no"?>
<svg
   xmlns:dc="http://purl.org/dc/elements/1.1/"
   xmlns:cc="http://creativecommons.org/ns#"
   xmlns:rdf="http://www.w3.org/1999/02/22-rdf-syntax-ns#"
   xmlns:svg="http://www.w3.org/2000/svg"
   xmlns="http://www.w3.org/2000/svg"
   xmlns:sodipodi="http://sodipodi.sourceforge.net/DTD/sodipodi-0.dtd"
   xmlns:inkscape="http://www.inkscape.org/namespaces/inkscape"
   width="20"
   height="20"
   viewBox="0 0 20 20"
   version="1.1"
   id="svg838"
   inkscape:version="1.0.1 (3bc2e813f5, 2020-09-07)"
   sodipodi:docname="bg_artisan.svg">
  <defs
     id="defs832" />
  <sodipodi:namedview
     id="base"
     pagecolor="#ffffff"
     bordercolor="#666666"
     borderopacity="1.0"
     inkscape:pageopacity="0.0"
     inkscape:pageshadow="2"
     inkscape:zoom="5.6"
     inkscape:cx="5.3612678"
     inkscape:cy="7.7136215"
     inkscape:document-units="mm"
     inkscape:current-layer="layer1"
     inkscape:document-rotation="0"
     showgrid="false"
     units="px"
     inkscape:window-width="1297"
     inkscape:window-height="1040"
     inkscape:window-x="363"
     inkscape:window-y="25"
     inkscape:window-maximized="0"
     inkscape:pagecheckerboard="true" />
  <metadata
     id="metadata835">
    <rdf:RDF>
      <cc:Work
         rdf:about="">
        <dc:format>image/svg+xml</dc:format>
        <dc:type
           rdf:resource="http://purl.org/dc/dcmitype/StillImage" />
        <dc:title />
      </cc:Work>
    </rdf:RDF>
  </metadata>
  <g
     inkscape:label="Layer 1"
     inkscape:groupmode="layer"
     id="layer1">
    <g
       id="g42"
       transform="matrix(0.25232802,0,0,0.25232802,1.0727841,1.3855102)">
      <path
         d="m 56.40318,8.8172 v 2.06 h -14.25 v -2.06 c 0,-0.56 0.45001,-1 1,-1 h 12.25 c 0.55005,0 1,0.44 1,1 z"
         id="path2" />
      <path
         d="m 56.40318,58.12719 v 2.06 c 0,0.55005 -0.44995,1 -1,1 h -12.25 c -0.54999,0 -1,-0.44995 -1,-1 v -2.06 z"
         id="path4" />
      <g
         id="g24">
        <polygon
           points="34.84318,42.28003 34.84318,47.85443 48.22319,38.32721 44.21318,35.60723 "
           id="polygon6" />
        <polygon
           points="34.84318,29.24804 34.84318,39.82232 42.44322,34.40722 "
           id="polygon8" />
        <path
           d="m 63.71318,40.91705 -28.87,-19.57043 v 5.47461 l 10.01001,6.79596 c 2.35657,1.59827 12.60388,8.54858 18.85999,12.79181 z"
           id="path10" />
        <path
           d="m 34.84318,18.92797 28.87,19.57886 V 33.00897 L 35.91917,14.16394 c -0.66248,0.71375 -1.07599,1.66217 -1.07599,2.71326 z"
           id="path12" />
        <path
           d="M 49.9832,39.51721 34.84318,50.3081 v 1.81909 c 0,1.13361 0.48047,2.15515 1.24359,2.88483 L 54.00321,42.24719 Z"
           id="path14" />
        <path
           d="m 61.53318,47.35723 -12.29291,8.76996 h 10.4729 c 2.21002,0 4,-1.79999 4,-4 v -3.29156 z"
           id="path16" />
        <path
           d="M 59.77317,46.15722 55.76322,43.43719 38.07524,56.04943 c 0.24884,0.04865 0.50488,0.07776 0.76794,0.07776 H 45.788 Z"
           id="path18" />
        <path
           d="M 63.71318,30.5896 V 25.11206 L 45.68578,12.8772 h -6.84259 c -0.35883,0 -0.70007,0.06238 -1.03088,0.15088 z"
           id="path20" />
        <path
           d="m 63.71318,22.69189 v -5.8147 c 0,-2.20996 -1.78998,-4 -4,-4 H 49.25175 Z"
           id="path22" />
      </g>
      <g
         id="g28">
        <path
           d="m 14.95323,32.92718 c -0.82001,0 -1.62006,0.25 -2.30005,0.71002 l 3.44,28.14001 c 0.07001,0.5 0.48999,0.88 0.98999,0.88 0,0 0,0 0.01001,0 0.5,0 0.92004,-0.37 0.98999,-0.87 L 21.94322,32.92716 H 14.95323 Z M 17.40318,6.34723 c -0.0099,-0.01001 -0.02997,0 -0.03998,0 -3.91998,0 -7.02002,3.13 -7.10999,6.90997 1.35999,-0.26996 3.56,-0.33997 4.95001,-0.33997 0.12994,0 0.25995,0 0.37994,0.0099 0.45001,-0.87 1.08002,-1.40997 1.78003,-1.40997 1.76001,0.02002 2.46002,2.84998 2.46002,4.64001 -0.02002,1.76001 -0.78003,4.58997 -2.51001,4.58997 -0.79999,-0.0099 -1.51001,-0.71997 -1.95001,-1.82996 h -0.15002 c -1.13995,0 -3.20996,0.03998 -4.31,0.35999 l 0.99005,8.12 c 0.97998,-0.31 2.00995,-0.47003 3.06,-0.47003 h 7.78998 l 1.67999,-12.51996 c 0.56001,-4.22004 -2.7,-8.04005 -7.02001,-8.06 z"
           id="path26" />
      </g>
      <g
         id="g32">
        <path
           d="m 17.82322,16.1372 c 0,0.35004 -0.03003,0.66003 -0.08002,0.94 -0.27002,-0.03998 -0.54999,-0.07001 -0.82001,-0.08997 -2.03096,-0.1788 -6.23376,-0.18755 -8.09003,1.04999 -1.03273,0.68778 -1.83348,2.03874 -1.45996,3.22998 0.16998,0.52002 -0.13,1.08002 -0.65002,1.25 -0.09998,0.03003 -0.20001,0.03998 -0.29999,0.03998 -0.42999,0 -0.82001,-0.26996 -0.96002,-0.69995 -0.60674,-1.95613 0.34147,-4.53235 3.01001,-5.92004 2.36633,-1.18307 6.99794,-1.07697 8.51001,-0.94995 0.25,0.0099 0.5,0.02997 0.75,0.06995 0.06,0.32 0.09003,0.68005 0.09003,1.08001 z"
           id="path30" />
      </g>
      <g
         id="g36">
        <path
           d="m 36.51323,54.1972 -1.57001,0.5 c -0.61005,0.19 -1.23999,0.28003 -1.85004,0.28003 -2.32001,0 -4.5,-1.32001 -5.39996,-3.45001 -0.32001,-0.73999 -0.48004,-1.53003 -0.48004,-2.34003 0,-2.20996 -1.78998,-4 -4,-4 h -0.88995 l 0.26996,-2 h 0.62 c 3.31,0 6,2.69 6,6 0,0.54004 0.11005,1.07001 0.32001,1.56 0.73999,1.76001 2.85004,2.65002 4.79999,2.04004 l 1.58002,-0.5 c 0.52002,-0.17004 1.09003,0.13 1.25,0.64996 0.16996,0.53003 -0.12002,1.09003 -0.64998,1.26001 z"
           id="path34" />
      </g>
      <g
         id="g40">
        <path
           d="m 29.21318,21.79724 v 3.01996 c 0,2.98004 -2.14996,5.47003 -4.96997,6 -0.37,0.07001 -0.73999,0.10999 -1.13,0.10999 h -8.15997 c -0.16003,0 -0.32001,0.01001 -0.48004,0.02002 -0.12,0.01001 -0.23999,0.02002 -0.35999,0.04004 -0.39001,0.04999 -0.77002,0.13995 -1.13,0.26996 -0.15997,0.04999 -0.32001,0.10999 -0.46997,0.17999 -0.17004,0.07001 -0.33002,0.16003 -0.49005,0.25 -0.03998,0.01001 -0.06995,0.03003 -0.09998,0.05005 -0.15997,0.08997 -0.32001,0.18994 -0.46997,0.29999 -0.33002,0.22998 -0.63,0.48999 -0.91003,0.77997 -1.04999,1.10004 -1.70001,2.58002 -1.70001,4.22003 0,2.20001 1.14001,4.10999 2.85004,5.19 l 0.28998,2.39996 c -3.01001,-1.19 -5.14001,-4.13 -5.14001,-7.54999 0,-2.75 1.35004,-5.16998 3.41003,-6.64001 0.65997,-0.46997 1.39996,-0.84998 2.19,-1.10999 0.21997,-0.07001 0.42999,-0.13 0.64996,-0.17999 0.20001,-0.04999 0.41003,-0.09003 0.61005,-0.12 0.07996,-0.02002 0.14996,-0.03003 0.21997,-0.03003 0.34003,-0.04999 0.67999,-0.07001 1.03003,-0.07001 h 8.15997 c 0.5,0 0.96997,-0.08997 1.40997,-0.25995 h 0.01001 c 1.56,-0.58002 2.67999,-2.09003 2.67999,-3.85004 v -3.01996 c 0,-1.21002 -0.52997,-2.30005 -1.35999,-3.05005 l 0.29999,-2.22998 c 1.83001,1.03999 3.05999,3.02003 3.05999,5.28004 z"
           id="path38" />
      </g>
    </g>
  </g>
</svg>
