<?xml version="1.0" encoding="UTF-8" standalone="no"?>
<svg
   xmlns:dc="http://purl.org/dc/elements/1.1/"
   xmlns:cc="http://creativecommons.org/ns#"
   xmlns:rdf="http://www.w3.org/1999/02/22-rdf-syntax-ns#"
   xmlns:svg="http://www.w3.org/2000/svg"
   xmlns="http://www.w3.org/2000/svg"
   xmlns:sodipodi="http://sodipodi.sourceforge.net/DTD/sodipodi-0.dtd"
   xmlns:inkscape="http://www.inkscape.org/namespaces/inkscape"
   width="20"
   height="20"
   viewBox="0 0 20 20"
   version="1.1"
   id="svg838"
   inkscape:version="1.0.1 (3bc2e813f5, 2020-09-07)"
   sodipodi:docname="bg_artist.svg">
  <defs
     id="defs832" />
  <sodipodi:namedview
     id="base"
     pagecolor="#ffffff"
     bordercolor="#666666"
     borderopacity="1.0"
     inkscape:pageopacity="0.0"
     inkscape:pageshadow="2"
     inkscape:zoom="15.839192"
     inkscape:cx="12.686043"
     inkscape:cy="10.77133"
     inkscape:document-units="mm"
     inkscape:current-layer="layer1"
     inkscape:document-rotation="0"
     showgrid="false"
     units="px"
     inkscape:window-width="1267"
     inkscape:window-height="1040"
     inkscape:window-x="52"
     inkscape:window-y="0"
     inkscape:window-maximized="0"
     inkscape:pagecheckerboard="true" />
  <metadata
     id="metadata835">
    <rdf:RDF>
      <cc:Work
         rdf:about="">
        <dc:format>image/svg+xml</dc:format>
        <dc:type
           rdf:resource="http://purl.org/dc/dcmitype/StillImage" />
        <dc:title />
      </cc:Work>
    </rdf:RDF>
  </metadata>
  <g
     inkscape:label="Layer 1"
     inkscape:groupmode="layer"
     id="layer1">
    <g
       id="g2995"
       transform="matrix(-1.0217447,0,0,1.0217447,17.775054,-47.557398)">
      <path
         style="stroke-width:0.264583"
         inkscape:connector-curvature="0"
         d="m 13.764036,57.757301 c -0.343959,-1.27 -1.27,-2.248959 -2.487084,-2.69875 -0.555625,0.449791 -1.217083,0.9525 -1.852083,1.27 0.079375,0.635 -0.15875,1.296458 -0.6085416,1.74625 -0.7408334,0.740833 -3.0691667,0.9525 -3.413125,1.005416 -0.238125,0 -0.4497916,-0.132291 -0.555625,-0.343958 -0.1058333,-0.211667 -0.079375,-0.449792 0.052917,-0.661458 0.47625,-0.555625 0.4497916,-2.143125 0.8202083,-2.883959 0.3704167,-0.767291 1.27,-0.978958 2.0902083,-0.740833 0.1058334,-0.185208 0.2116667,-0.343958 0.3439583,-0.555625 -0.1058333,-0.211667 -0.1587499,-0.47625 -0.1058333,-0.714375 0,0 0,0 0,-0.02646 0.052917,-0.291042 0.1058333,-0.582084 0.079375,-0.899584 -0.079375,-1.217083 -0.8202083,-1.693333 -1.8520833,-1.852083 -0.6085417,-0.07938 -1.2435416,-0.02646 -1.8520833,0.132292 -2.7252083,0.661458 -4.33916662,2.354791 -5.13291661,4.841875 -0.31749999,1.613958 -0.15875,3.148541 0.44979166,4.550833 1.19062499,2.725208 3.88937495,4.524375 6.85270825,4.656666 1.1641667,0.05292 2.3547916,-0.105833 3.4395833,-0.502708 1.322916,-0.47625 2.434166,-1.375833 3.175,-2.566458 0.714375,-1.217083 0.899583,-2.460625 0.555625,-3.757083 z M 4.3184108,51.989384 c 0.555625,0 1.0318749,0.449792 1.0318749,1.031875 0,0.555625 -0.4497916,1.031875 -1.0318749,1.031875 -0.5820834,0 -1.031875,-0.449792 -1.031875,-1.031875 0,-0.582083 0.47625,-1.031875 1.031875,-1.031875 z m -1.74625,8.757708 c -0.7408333,0 -1.3229167,-0.582083 -1.3229167,-1.322916 0,-0.740834 0.5820834,-1.322917 1.3229167,-1.322917 0.7408333,0 1.3229166,0.582083 1.3229166,1.322917 0,0.740833 -0.5820833,1.322916 -1.3229166,1.322916 z m 3.0427083,2.354792 c -0.7408333,0 -1.3229167,-0.582084 -1.3229167,-1.322917 0,-0.740833 0.5820834,-1.322916 1.3229167,-1.322916 0.7408333,0 1.3229166,0.582083 1.3229166,1.322916 0,0.740833 -0.5820833,1.322917 -1.3229166,1.322917 z m 3.7041666,-0.502709 c -0.7408333,0 -1.3229166,-0.582083 -1.3229166,-1.322916 0,-0.740833 0.5820833,-1.322917 1.3229166,-1.322917 0.7408333,0 1.3229163,0.582084 1.3229163,1.322917 0,0.740833 -0.582083,1.322916 -1.3229163,1.322916 z m 2.1166663,-2.989791 c -0.740833,0 -1.322916,-0.582083 -1.322916,-1.322917 0,-0.740833 0.582083,-1.322916 1.322916,-1.322916 0.740834,0 1.322917,0.582083 1.322917,1.322916 0,0.714375 -0.582083,1.322917 -1.322917,1.322917 z"
         id="path2949" />
      <g
         transform="matrix(0.26458333,0,0,0.26458333,-1.2642975,47.465009)"
         id="g2955">
        <path
           inkscape:connector-curvature="0"
           d="m 45.3,27.8 c -2.4,1.9 -5,3.6 -7.1,4.5 0.8,2.1 0.3,4.6 -1.4,6.3 -1.9,1.9 -8.9,2.9 -11.4,3.2 -0.3,0 -0.5,-0.3 -0.3,-0.5 2,-2.7 2,-8.8 3.1,-11.2 1.2,-2.5 4.6,-2.5 7,-1.1 0.8,-1.7 1.7,-3.1 3.4,-5.4 0,0 0,0 0,0 0.2,-0.3 0.4,-0.6 0.6,-0.8 z"
           id="path2951" />
        <path
           inkscape:connector-curvature="0"
           d="m 51.1,22.7 c -1.2,1.1 -2.6,2.5 -4.2,3.8 L 40.6,21.1 C 41.9,19.5 43.3,18 44.9,16.5 51.6,9.9 63.6,0.8 65.4,2.5 67,4.2 57.7,16.1 51.1,22.7 Z"
           id="path2953" />
      </g>
    </g>
  </g>
</svg>
