<?xml version="1.0" encoding="UTF-8" standalone="no"?>
<svg
   xmlns:dc="http://purl.org/dc/elements/1.1/"
   xmlns:cc="http://creativecommons.org/ns#"
   xmlns:rdf="http://www.w3.org/1999/02/22-rdf-syntax-ns#"
   xmlns:svg="http://www.w3.org/2000/svg"
   xmlns="http://www.w3.org/2000/svg"
   xmlns:sodipodi="http://sodipodi.sourceforge.net/DTD/sodipodi-0.dtd"
   xmlns:inkscape="http://www.inkscape.org/namespaces/inkscape"
   width="20"
   height="20"
   viewBox="0 0 20 20"
   version="1.1"
   id="svg838"
   inkscape:version="1.0.1 (3bc2e813f5, 2020-09-07)"
   sodipodi:docname="bg_boss.svg">
  <defs
     id="defs832" />
  <sodipodi:namedview
     id="base"
     pagecolor="#ffffff"
     bordercolor="#666666"
     borderopacity="1.0"
     inkscape:pageopacity="0.0"
     inkscape:pageshadow="2"
     inkscape:zoom="15.839192"
     inkscape:cx="12.686043"
     inkscape:cy="10.77133"
     inkscape:document-units="mm"
     inkscape:current-layer="layer1"
     inkscape:document-rotation="0"
     showgrid="false"
     units="px"
     inkscape:window-width="1290"
     inkscape:window-height="1040"
     inkscape:window-x="52"
     inkscape:window-y="0"
     inkscape:window-maximized="0"
     inkscape:pagecheckerboard="true" />
  <metadata
     id="metadata835">
    <rdf:RDF>
      <cc:Work
         rdf:about="">
        <dc:format>image/svg+xml</dc:format>
        <dc:type
           rdf:resource="http://purl.org/dc/dcmitype/StillImage" />
        <dc:title />
      </cc:Work>
    </rdf:RDF>
  </metadata>
  <g
     inkscape:label="Layer 1"
     inkscape:groupmode="layer"
     id="layer1">
    <g
       id="g7949"
       transform="matrix(0.76832189,0,0,0.76832189,-3.0944211,-38.348436)">
      <path
         style="stroke-width:0.264583"
         id="path7906"
         d="M 27.578857,68.236547 C 26.864482,66.410922 25.14469,64.347172 24.906565,64.056131 l -0.211666,0.502708 c 0,0 -1.799167,-0.555625 -5.265209,-3.4925 -1.666875,-1.42875 -3.33375,-3.254375 -4.021666,-4.709583 0,-0.07937 0.132291,-0.396875 0.264583,-0.555625 -0.291042,-0.238125 -2.434166,-1.984375 -2.910416,-2.010833 -0.238125,-0.02646 -0.396875,0.502708 0.3175,2.275416 0.423333,1.084792 0.899583,1.984375 1.640416,3.042709 -0.635,1.322916 -0.661458,2.090208 -1.164167,3.069166 -0.608541,1.217084 -1.931458,2.804583 -1.931458,2.804583 0,0 0.423334,1.058334 1.666875,2.487084 1.137708,1.296458 2.592917,2.619375 2.8575,2.8575 0.02646,0.02646 0.05292,0.02646 0.07937,0 l 0.608542,-1.005417 c 0,0 1.508125,1.481667 1.878541,1.666875 0.370417,0.185208 0.529167,0.291042 1.031875,0.3175 0.502709,0.02646 1.42875,-0.926042 2.38125,-2.69875 0.211667,-0.396875 0.396875,-0.767292 0.529167,-1.084792 1.217083,0.9525 2.69875,2.090209 3.254375,2.407709 2.434167,1.455208 2.06375,-0.687917 1.666875,-1.693334 z"
         inkscape:connector-curvature="0" />
      <path
         style="stroke-width:0.264583"
         id="path7908"
         d="m 20.646774,60.563631 c 2.751666,1.852083 4.180416,2.354792 4.550833,2.487083 0.105833,-0.343958 0.238125,-0.79375 0.343958,-1.296458 0.555625,-2.487083 1.402292,-4.392083 -0.264583,-4.841875 -4.365625,-1.349375 -5.635625,-4.736042 -7.249583,-3.571875 -0.978959,0.714375 -1.957917,1.984375 -2.2225,2.354792 1.243541,1.640416 2.434166,3.254375 4.841875,4.868333 z"
         inkscape:connector-curvature="0" />
      <path
         style="stroke-width:0.264583"
         id="path7910"
         d="m 16.57219,72.364047 -0.291041,-1.5875 -0.343959,-0.132291 -1.349375,1.719791 0.582084,0.79375 h 0.02646 c -0.291042,0.423334 -2.751666,3.677709 -6.9585414,-1.957916 -2.9897917,-3.995209 -1.27,-7.699375 0.5027083,-8.863542 -0.1058333,-1.190625 1.3758331,-4.312708 1.3758331,-4.312708 l -4.0745831,1.481667 c 0,0 -5.10645824,6.932083 1.1641667,12.832291 5.7943754,5.450417 8.0697914,1.640417 8.4666664,0.846667 v 0 z"
         inkscape:connector-curvature="0" />
      <path
         style="stroke-width:0.264583"
         id="path7912"
         d="m 11.174691,65.220297 c 0.02646,-0.02646 0.02646,0 0,0 0.105833,0.15875 0.926041,1.5875 1.931458,2.69875 0.978958,1.084792 2.354791,2.354792 2.566458,2.566459 0.02646,0.02646 0.02646,0.02646 0,0.05292 l -2.116667,2.434167 c 0,0 -1.957916,-3.598333 -2.407708,-4.577292 -0.396875,-0.873125 -0.79375,-2.38125 -0.820208,-2.566458 0,0 0,-0.02646 0,-0.02646 z"
         inkscape:connector-curvature="0" />
      <path
         style="stroke-width:0.264583"
         id="path7914"
         d="m 16.492815,70.776547 0.47625,2.54 0.740834,-1.534583 c 0,0 0,-0.02646 0,-0.02646 -0.07937,-0.132292 -0.582084,-0.820209 -0.846667,-0.9525 -0.05292,-0.02646 -0.211667,-0.02646 -0.291042,-0.02646 -0.05292,-0.02646 -0.07937,0 -0.07937,0 z"
         inkscape:connector-curvature="0" />
    </g>
  </g>
</svg>
