<?xml version="1.0" encoding="UTF-8" standalone="no"?>
<svg
   xmlns:dc="http://purl.org/dc/elements/1.1/"
   xmlns:cc="http://creativecommons.org/ns#"
   xmlns:rdf="http://www.w3.org/1999/02/22-rdf-syntax-ns#"
   xmlns:svg="http://www.w3.org/2000/svg"
   xmlns="http://www.w3.org/2000/svg"
   height="20"
   width="20"
   id="svg32"
   xml:space="preserve"
   viewBox="0 0 20.000001 20"
   y="0px"
   x="0px"
   version="1.1"><metadata
     id="metadata38"><rdf:RDF><cc:Work
         rdf:about=""><dc:format>image/svg+xml</dc:format><dc:type
           rdf:resource="http://purl.org/dc/dcmitype/StillImage" /><dc:title></dc:title></cc:Work></rdf:RDF></metadata><defs
     id="defs36" /><g
     transform="matrix(0.06125586,0,0,0.06125586,0.07860071,3.6869624)"
     id="g26"><g
       id="g22"><path
         id="path2"
         d="m 270.054,121.616 c -1.65,4.449 -5.947,7.378 -10.691,7.289 -1.254,-0.024 -2.49,-0.258 -3.674,-0.697 l -40.758,-15.118 -2.453,-0.005 c 1.643,1.76 2.829,3.91 3.439,6.308 0.953,3.752 0.391,7.652 -1.588,10.982 -0.278,0.468 -0.586,0.911 -0.911,1.34 l 59.405,0.126 c 5.145,0.016 9.324,-4.145 9.34,-9.287 0.014,-5.146 -4.145,-9.324 -9.289,-9.34 l -3.086,-0.007 c 1.187,2.678 1.284,5.659 0.266,8.409 z" /><path
         id="path4"
         d="m 256.335,126.461 c 4.822,1.789 10.184,-0.674 11.971,-5.492 1.789,-4.823 -0.668,-10.184 -5.492,-11.973 L 215.387,91.404 c -1.39,5.947 -4.52,11.361 -8.694,16.643 z" /><path
         id="path6"
         d="m 160.37,115.162 -10.628,7.054 c 8.901,7.723 18.795,12.956 27.714,13.329 2.078,-2.244 4.179,-4.401 6.267,-6.498 z" /><circle
         r="20.952"
         id="ellipse8"
         cy="28.400999"
         cx="121.031"
         transform="matrix(0.9404,-0.3401,0.3401,0.9404,-2.4443,42.8563)" /><path
         id="path10"
         d="m 122.444,85.01 c 0.421,-0.989 0.856,-1.948 1.304,-2.881 1.358,5.778 3.937,11.808 7.363,17.65 l 20.821,-13.815 c 2.377,-1.575 5.151,-2.408 8.018,-2.408 2.614,0 5.175,0.699 7.406,2.026 l 37.098,22.054 c 6.509,-8.011 10.567,-16.181 9.578,-26.007 -12.026,7.44 -31.722,-14.099 -51.493,-24.858 1.411,0.09 2.872,0.161 4.366,0.198 0.623,0.015 1.25,0.026 1.885,0.027 6.206,-0.002 13.134,-0.791 19.729,-4.334 2.804,-1.493 5.458,-3.493 7.888,-6.007 0.502,-0.646 1.016,-1.679 1.01,-3.615 -0.005,-2.663 -3.878,-8.141 -6.369,-10.874 -2.656,4.753 -5.59,7.348 -8.693,9.051 -3.851,2.086 -8.438,2.784 -13.564,2.78 -4.766,0.008 -9.819,-0.61 -14.79,-0.856 v 0.001 c -0.304,-0.017 -0.545,-0.017 -0.728,-0.017 -3.094,0.021 -5.787,0.813 -8.32,1.777 -6.772,2.666 -12.653,7.047 -13.89,7.963 -6.539,4.191 -13.07,11.792 -18.435,22.401 -2.055,4.105 -3.895,8.665 -5.389,13.628 3.716,2.525 7.58,4.938 11.534,7.064 0.999,-3.948 2.251,-7.608 3.671,-10.948 z" /><ellipse
         id="ellipse12"
         ry="22.495001"
         rx="22.496"
         cy="44.353001"
         cx="61.001999"
         transform="matrix(0.8365,-0.548,0.548,0.8365,-14.3301,40.6832)" /><path
         id="path14"
         d="m 60.738,73.927 c -4.049,4.829 -5.838,12.951 -2.5,21.19 l 2.975,-9.807 c 1.287,-4.246 5.131,-7.099 9.564,-7.099 0.983,0 1.962,0.145 2.909,0.433 5.276,1.602 8.267,7.194 6.665,12.472 l -6.645,21.896 c 1.576,1.35 3.139,2.623 4.705,3.828 l 17.692,0.126 c 5.512,0.037 9.966,4.556 9.926,10.069 -0.011,1.601 -0.411,3.109 -1.097,4.45 2.298,0.905 4.716,1.801 7.283,2.701 5.891,1.576 11.201,1.053 15.6,-0.692 1.345,-0.336 2.658,-0.89 3.877,-1.699 l 28.62,-18.992 35.164,20.905 c 2.002,1.19 4.203,1.757 6.375,1.757 4.266,0 8.42,-2.183 10.756,-6.114 3.529,-5.934 1.578,-13.605 -4.356,-17.132 L 166.335,87.301 c -4.112,-2.443 -9.312,-2.315 -13.298,0.328 l -23.22,15.407 C 113.486,97.507 97.725,84.493 86.43,75.967 78.742,69.027 66.389,67.186 60.738,73.927 Z" /><path
         id="path16"
         d="m 104.032,127.021 c 0.031,-4.419 -3.526,-8.025 -7.942,-8.057 l -26.222,-0.185 8.571,-28.243 c 1.281,-4.228 -1.107,-8.694 -5.334,-9.978 -4.227,-1.283 -8.696,1.104 -9.977,5.334 l -11.679,38.489 c -0.73,2.404 -0.276,5.042 1.213,7.064 1.489,2.024 3.874,3.239 6.386,3.258 l 36.927,0.26 c 0.019,0 0.038,0 0.058,0 4.392,0.001 7.968,-3.544 7.999,-7.942 z" /><path
         id="path18"
         d="m 196.585,26.806 c 0.557,2.326 3.491,8.554 6.093,11.201 0.771,-1.414 1.497,-2.908 2.165,-4.497 1.403,-3.305 -0.137,-7.12 -3.439,-8.523 -1.624,-0.691 -3.371,-0.667 -4.896,-0.074 -0.068,0.808 -0.057,1.338 0.077,1.893 z" /><path
         id="path20"
         d="m 197.054,48.908 c -0.451,0.537 -0.604,1.41 -0.322,1.586 l 14.184,-8.729 c -0.027,-0.33 -0.881,-0.586 -1.561,-0.426 -0.684,0.158 -2.738,1.277 -6.307,-0.539 -3.777,-1.916 -7.82,-11.061 -8.408,-13.527 -0.531,-2.207 0.293,-3.891 0.588,-10.578 0.27,-6.14 -8.945,-14.612 -10.803,-16.252 C 184.136,0 183.544,-0.133 183.091,0.146 l -10.973,6.751 c -0.453,0.279 -0.598,0.866 -0.336,1.325 0.629,2.396 4.035,14.443 9.639,16.968 6.104,2.75 7.977,2.774 9.711,4.241 1.934,1.639 8.275,9.369 8.285,13.604 0.012,4.004 -1.914,5.334 -2.363,5.873 z" /></g><path
       id="path24"
       d="m 10,202.664 h 8.999 c 5.523,0 10,-4.477 10,-10 v -24.086 h 266.743 v 24.086 c 0,5.523 4.477,10 10,10 h 8.998 c 5.523,0 10,-4.477 10,-10 v -51.752 c 0,-5.523 -4.477,-10 -10,-10 h -8.998 c -5.523,0 -10,4.477 -10,10 v 3.999 H 28.999 V 17.968 c 0,-5.523 -4.477,-10 -10,-10 H 10 c -5.523,0 -10,4.476 -10,10 v 174.695 c 0,5.524 4.477,10.001 10,10.001 z" /></g></svg>