<?xml version="1.0" encoding="UTF-8" standalone="no"?>
<svg
   xmlns:dc="http://purl.org/dc/elements/1.1/"
   xmlns:cc="http://creativecommons.org/ns#"
   xmlns:rdf="http://www.w3.org/1999/02/22-rdf-syntax-ns#"
   xmlns:svg="http://www.w3.org/2000/svg"
   xmlns="http://www.w3.org/2000/svg"
   xmlns:sodipodi="http://sodipodi.sourceforge.net/DTD/sodipodi-0.dtd"
   xmlns:inkscape="http://www.inkscape.org/namespaces/inkscape"
   width="20"
   height="20"
   viewBox="0 0 20 20"
   version="1.1"
   id="svg838"
   inkscape:version="1.0.1 (3bc2e813f5, 2020-09-07)"
   sodipodi:docname="bg_clerk.svg">
  <defs
     id="defs832" />
  <sodipodi:namedview
     id="base"
     pagecolor="#ffffff"
     bordercolor="#666666"
     borderopacity="1.0"
     inkscape:pageopacity="0.0"
     inkscape:pageshadow="2"
     inkscape:zoom="15.839192"
     inkscape:cx="12.686043"
     inkscape:cy="10.77133"
     inkscape:document-units="mm"
     inkscape:current-layer="layer1"
     inkscape:document-rotation="0"
     showgrid="false"
     units="px"
     inkscape:window-width="1267"
     inkscape:window-height="1040"
     inkscape:window-x="52"
     inkscape:window-y="0"
     inkscape:window-maximized="0"
     inkscape:pagecheckerboard="true" />
  <metadata
     id="metadata835">
    <rdf:RDF>
      <cc:Work
         rdf:about="">
        <dc:format>image/svg+xml</dc:format>
        <dc:type
           rdf:resource="http://purl.org/dc/dcmitype/StillImage" />
        <dc:title></dc:title>
      </cc:Work>
    </rdf:RDF>
  </metadata>
  <g
     inkscape:label="Layer 1"
     inkscape:groupmode="layer"
     id="layer1">
    <g
       id="g4644"
       transform="matrix(0.24600824,0,0,0.24600824,-1.8083712,-1.8087649)">
      <path
         inkscape:connector-curvature="0"
         d="M 62,24 H 14 a 1.9988,1.9988 0 0 0 -2,2 v 60 a 1.9989,1.9989 0 0 0 2,2 h 48 a 1.999,1.999 0 0 0 2,-2 V 26 A 1.9989,1.9989 0 0 0 62,24 Z M 50,68 H 26 a 2,2 0 0 1 0,-4 h 24 a 2,2 0 0 1 0,4 z M 50,56 H 26 a 2,2 0 0 1 0,-4 h 24 a 2,2 0 0 1 0,4 z M 50,44 H 26 a 2,2 0 0 1 0,-4 h 24 a 2,2 0 0 1 0,4 z"
         id="path4640" />
      <path
         inkscape:connector-curvature="0"
         d="m 82.181,12.0078 -44.0013,-4 a 2.0431,2.0431 0 0 0 -2.168,1.791 L 34.9756,20 H 66 a 2,2 0 0 1 2,2 v 51.8723 l 8.457,1.491 a 1.9012,1.9012 0 0 0 0.3477,0.0313 1.9994,1.9994 0 0 0 1.9922,-1.8262 l 5.1953,-59.3946 a 2,2 0 0 0 -1.8112,-2.166 z"
         id="path4642" />
    </g>
  </g>
</svg>
