<?xml version="1.0" encoding="UTF-8" standalone="no"?>
<svg
   xmlns:dc="http://purl.org/dc/elements/1.1/"
   xmlns:cc="http://creativecommons.org/ns#"
   xmlns:rdf="http://www.w3.org/1999/02/22-rdf-syntax-ns#"
   xmlns:svg="http://www.w3.org/2000/svg"
   xmlns="http://www.w3.org/2000/svg"
   xmlns:sodipodi="http://sodipodi.sourceforge.net/DTD/sodipodi-0.dtd"
   xmlns:inkscape="http://www.inkscape.org/namespaces/inkscape"
   width="20"
   height="20"
   viewBox="0 0 20 20"
   version="1.1"
   id="svg838"
   inkscape:version="1.0.1 (3bc2e813f5, 2020-09-07)"
   sodipodi:docname="bg_entertainer.svg">
  <defs
     id="defs832" />
  <sodipodi:namedview
     id="base"
     pagecolor="#ffffff"
     bordercolor="#666666"
     borderopacity="1.0"
     inkscape:pageopacity="0.0"
     inkscape:pageshadow="2"
     inkscape:zoom="15.839192"
     inkscape:cx="12.686043"
     inkscape:cy="10.77133"
     inkscape:document-units="mm"
     inkscape:current-layer="layer1"
     inkscape:document-rotation="0"
     showgrid="false"
     units="px"
     inkscape:window-width="1267"
     inkscape:window-height="1040"
     inkscape:window-x="52"
     inkscape:window-y="0"
     inkscape:window-maximized="0"
     inkscape:pagecheckerboard="true" />
  <metadata
     id="metadata835">
    <rdf:RDF>
      <cc:Work
         rdf:about="">
        <dc:format>image/svg+xml</dc:format>
        <dc:type
           rdf:resource="http://purl.org/dc/dcmitype/StillImage" />
        <dc:title />
      </cc:Work>
    </rdf:RDF>
  </metadata>
  <g
     inkscape:label="Layer 1"
     inkscape:groupmode="layer"
     id="layer1">
    <g
       style="fill:none;fill-rule:evenodd;stroke:none;stroke-width:1"
       id="g2103"
       transform="matrix(0.26345399,0,0,0.26345399,2.5601537,2.8758273)">
      <g
         style="fill:#000000;fill-rule:nonzero"
         id="g2101">
        <path
           inkscape:connector-curvature="0"
           d="M 8.33,27 H 26 c 0.552285,0 1,-0.447715 1,-1 0,-0.552285 -0.447715,-1 -1,-1 H 8.569 c 0.125,-1.193 0.23,-2.524 0.306,-4 H 14 c 0.552285,0 1,-0.447715 1,-1 0,-0.552285 -0.447715,-1 -1,-1 H 8.957 C 8.984,18.051 9,17.053 9,16 9.0913979,11.035883 8.6414069,6.0765926 7.658,1.21 7.5894658,0.91742116 7.6599641,0.60959097 7.849,0.376 8.039537,0.13738978 8.328651,-0.00109028 8.634,0 h 25.732 c 0.305349,-0.00109028 0.594463,0.13738978 0.785,0.376 0.189036,0.23359097 0.259534,0.54142116 0.191,0.834 C 34.358593,6.0765926 33.908602,11.035883 34,16 c 0,1.053 0.016,2.051 0.043,3 H 18 c -0.552285,0 -1,0.447715 -1,1 0,0.552285 0.447715,1 1,1 h 16.125 c 0.076,1.476 0.181,2.807 0.306,4 H 30 c -0.552285,0 -1,0.447715 -1,1 0,0.552285 0.447715,1 1,1 h 4.67 c 0.216804,1.685503 0.540455,3.355532 0.969,5 H 7.361 C 7.7895446,30.355532 8.1131962,28.685503 8.33,27 Z M 42,38 H 2 C 0.8954305,38 0,37.104569 0,36 0,34.895431 0.8954305,34 2,34 h 40 c 1.104569,0 2,0.895431 2,2 0,1.104569 -0.895431,2 -2,2 z"
           id="path2097" />
        <path
           inkscape:connector-curvature="0"
           d="m 52,44 h 4 v 6 H 52 Z M 48.789,11.077 C 48.530752,11.026173 48.268202,11.000387 48.005,11 46.943268,10.998673 45.924567,11.419514 45.17334,12.169804 44.422113,12.920093 43.999999,13.938267 44,15 v 2.889 c 0.02139,0.979364 -0.641896,1.841546 -1.594,2.072 -0.589573,0.122229 -1.202839,-0.02766 -1.669563,-0.408063 C 40.269713,19.172536 39.999204,18.602109 40,18 v -2.682 c -0.07563,-4.291563 3.175224,-7.9133227 7.45,-8.3 2.214294,-0.1595789 4.394035,0.6166974 6.009,2.14 C 55.07548,10.671533 55.994982,12.785556 56,15 V 42 H 52 V 15.118 c 0.03141,-1.94076 -1.31333,-3.633097 -3.211,-4.041 z M 52,56 v -4 h 4 v 4 z"
           id="path2099" />
      </g>
    </g>
  </g>
</svg>
