<?xml version="1.0" encoding="UTF-8" standalone="no"?>
<svg
   xmlns:dc="http://purl.org/dc/elements/1.1/"
   xmlns:cc="http://creativecommons.org/ns#"
   xmlns:rdf="http://www.w3.org/1999/02/22-rdf-syntax-ns#"
   xmlns:svg="http://www.w3.org/2000/svg"
   xmlns="http://www.w3.org/2000/svg"
   xmlns:sodipodi="http://sodipodi.sourceforge.net/DTD/sodipodi-0.dtd"
   xmlns:inkscape="http://www.inkscape.org/namespaces/inkscape"
   width="20"
   height="20"
   viewBox="0 0 20 20"
   version="1.1"
   id="svg838"
   inkscape:version="1.0.1 (3bc2e813f5, 2020-09-07)"
   sodipodi:docname="bg_engineer.svg">
  <defs
     id="defs832" />
  <sodipodi:namedview
     id="base"
     pagecolor="#ffffff"
     bordercolor="#666666"
     borderopacity="1.0"
     inkscape:pageopacity="0.0"
     inkscape:pageshadow="2"
     inkscape:zoom="11.2"
     inkscape:cx="25.291652"
     inkscape:cy="-5.2061108"
     inkscape:document-units="mm"
     inkscape:current-layer="layer1"
     inkscape:document-rotation="0"
     showgrid="false"
     units="px"
     inkscape:window-width="1267"
     inkscape:window-height="1040"
     inkscape:window-x="52"
     inkscape:window-y="0"
     inkscape:window-maximized="0"
     inkscape:pagecheckerboard="true" />
  <metadata
     id="metadata835">
    <rdf:RDF>
      <cc:Work
         rdf:about="">
        <dc:format>image/svg+xml</dc:format>
        <dc:type
           rdf:resource="http://purl.org/dc/dcmitype/StillImage" />
        <dc:title />
      </cc:Work>
    </rdf:RDF>
  </metadata>
  <g
     inkscape:label="Layer 1"
     inkscape:groupmode="layer"
     id="layer1">
    <g
       id="g850"
       transform="matrix(0.0336259,0,0,0.0336259,1.39177,1.39177)">
      <path
         d="m 211.61,168.28 a 31.24,31.24 0 0 1 -9.11,-23.83 l 1.94,-34.83 A 30.48,30.48 0 0 0 195.56,86.38 L 165.81,56.63 a 30.48,30.48 0 0 0 -23.1,-8.88 l -29.59,1.51 a 7.23,7.23 0 0 0 -4.74,12.33 L 129.81,83 a 33.09,33.09 0 0 1 0,46.79 v 0 a 33.09,33.09 0 0 1 -46.79,0 L 61.59,108.38 a 7.23,7.23 0 0 0 -12.33,4.74 l -1.51,29.59 a 30.48,30.48 0 0 0 8.88,23.1 l 29.75,29.75 a 30.48,30.48 0 0 0 23.24,8.88 l 34.83,-1.94 a 31.24,31.24 0 0 1 23.83,9.11 l 66.06,66.05 66,66.06 a 31.24,31.24 0 0 1 9.11,23.83 l -1.94,34.83 a 30.48,30.48 0 0 0 8.88,23.24 l 29.75,29.75 a 30.48,30.48 0 0 0 23.1,8.88 l 29.59,-1.51 a 7.23,7.23 0 0 0 4.74,-12.33 L 382.19,429 a 33.09,33.09 0 0 1 0,-46.79 v 0 a 33.09,33.09 0 0 1 46.79,0 l 21.43,21.43 a 7.23,7.23 0 0 0 12.33,-4.74 l 1.51,-29.59 a 30.48,30.48 0 0 0 -8.88,-23.1 l -29.75,-29.75 a 30.48,30.48 0 0 0 -23.24,-8.88 l -34.83,1.94 a 31.24,31.24 0 0 1 -23.83,-9.11 l -66.06,-66 z"
         id="path4" />
      <path
         d="m 168.7,343.3 a 123.42,123.42 0 0 0 111.75,33.7 11.39,11.39 0 0 0 9.12,-10.53 v 0 a 11.32,11.32 0 0 0 -3.29,-8.61 l -12.17,-12.17 a 19.1,19.1 0 0 0 -14.4,-5.46 84.27,84.27 0 0 1 -87.91,-87.91 19.1,19.1 0 0 0 -5.46,-14.4 l -12.17,-12.17 a 11.32,11.32 0 0 0 -8.61,-3.29 v 0 A 11.39,11.39 0 0 0 135,231.55 123.42,123.42 0 0 0 168.7,343.3 Z"
         id="path6" />
      <path
         d="m 154.58,357.42 a 143.39,143.39 0 0 1 -39.45,-128 4.24,4.24 0 0 0 -4.4,-5 v 0 A 50.44,50.44 0 0 1 81,216.61 a 21.42,21.42 0 0 0 -15,-3 l -36.1,6.1 a 12.18,12.18 0 0 0 -10.15,12 v 48.64 a 12.18,12.18 0 0 0 10.15,12 l 53.13,9 a 178,178 0 0 0 18.63,45 l -31.2,43.9 a 12.18,12.18 0 0 0 1.31,15.67 l 17.2,17.2 17.2,17.2 a 12.18,12.18 0 0 0 15.67,1.31 l 43.9,-31.2 a 178,178 0 0 0 45,18.63 l 9,53.13 a 12.18,12.18 0 0 0 12,10.15 h 48.64 a 12.18,12.18 0 0 0 12,-10.15 l 6.1,-36.1 a 21.42,21.42 0 0 0 -3,-15 50.44,50.44 0 0 1 -7.76,-29.77 v 0 a 4.24,4.24 0 0 0 -5,-4.4 143.39,143.39 0 0 1 -128.14,-39.5 z"
         id="path8" />
      <path
         d="M 343.3,168.7 A 123.42,123.42 0 0 0 231.55,135 a 11.39,11.39 0 0 0 -9.12,10.53 v 0 a 11.32,11.32 0 0 0 3.29,8.61 l 12.17,12.17 a 19.1,19.1 0 0 0 14.4,5.46 84.27,84.27 0 0 1 87.91,87.91 19.1,19.1 0 0 0 5.46,14.4 l 12.17,12.17 a 11.32,11.32 0 0 0 8.61,3.29 v 0 A 11.39,11.39 0 0 0 377,280.45 123.42,123.42 0 0 0 343.3,168.7 Z"
         id="path10" />
      <path
         d="m 390.25,70.37 -43.9,31.2 a 178,178 0 0 0 -45,-18.63 l -9,-53.13 a 12.18,12.18 0 0 0 -12,-10.15 h -48.67 a 12.18,12.18 0 0 0 -12,10.15 l -6.1,36.1 a 21.42,21.42 0 0 0 3,15 50.44,50.44 0 0 1 7.76,29.77 v 0 a 4.24,4.24 0 0 0 5,4.4 143.28,143.28 0 0 1 167.53,167.54 4.24,4.24 0 0 0 4.4,5 v 0 a 50.44,50.44 0 0 1 29.73,7.77 21.42,21.42 0 0 0 15,3 l 36.1,-6.1 a 12.18,12.18 0 0 0 10.15,-12 v -48.61 a 12.18,12.18 0 0 0 -10.15,-12 l -53.13,-9 a 178,178 0 0 0 -18.63,-45 l 31.2,-43.9 a 12.18,12.18 0 0 0 -1.31,-15.67 l -17.2,-17.2 -17.2,-17.2 a 12.18,12.18 0 0 0 -15.58,-1.34 z"
         id="path12" />
    </g>
  </g>
</svg>
