<?xml version="1.0" encoding="UTF-8" standalone="no"?>
<svg
   xmlns:dc="http://purl.org/dc/elements/1.1/"
   xmlns:cc="http://creativecommons.org/ns#"
   xmlns:rdf="http://www.w3.org/1999/02/22-rdf-syntax-ns#"
   xmlns:svg="http://www.w3.org/2000/svg"
   xmlns="http://www.w3.org/2000/svg"
   xmlns:sodipodi="http://sodipodi.sourceforge.net/DTD/sodipodi-0.dtd"
   xmlns:inkscape="http://www.inkscape.org/namespaces/inkscape"
   width="20"
   height="20"
   viewBox="0 0 20 20"
   version="1.1"
   id="svg838"
   inkscape:version="1.0.1 (3bc2e813f5, 2020-09-07)"
   sodipodi:docname="bg_farmer.svg">
  <defs
     id="defs832" />
  <sodipodi:namedview
     id="base"
     pagecolor="#ffffff"
     bordercolor="#666666"
     borderopacity="1.0"
     inkscape:pageopacity="0.0"
     inkscape:pageshadow="2"
     inkscape:zoom="15.839192"
     inkscape:cx="12.686043"
     inkscape:cy="10.77133"
     inkscape:document-units="mm"
     inkscape:current-layer="layer1"
     inkscape:document-rotation="0"
     showgrid="false"
     units="px"
     inkscape:window-width="1267"
     inkscape:window-height="1040"
     inkscape:window-x="52"
     inkscape:window-y="0"
     inkscape:window-maximized="0"
     inkscape:pagecheckerboard="true" />
  <metadata
     id="metadata835">
    <rdf:RDF>
      <cc:Work
         rdf:about="">
        <dc:format>image/svg+xml</dc:format>
        <dc:type
           rdf:resource="http://purl.org/dc/dcmitype/StillImage" />
        <dc:title></dc:title>
      </cc:Work>
    </rdf:RDF>
  </metadata>
  <g
     inkscape:label="Layer 1"
     inkscape:groupmode="layer"
     id="layer1">
    <g
       id="g2300"
       transform="matrix(0.3590561,0,0,0.3590561,-1.4897952,-1.4897952)">
      <path
         inkscape:connector-curvature="0"
         d="M 6,16.816 V 13 h 2 v 3.816 A 3,3 0 0 0 10,14 V 7 A 3,3 0 0 0 4,7 v 7 a 3,3 0 0 0 2,2.816 z"
         id="path2262" />
      <polygon
         points="4,28 4,41.586 17.586,28 "
         id="polygon2264" />
      <polygon
         points="21.165,28 20.414,28 4,44.414 4,54.605 "
         id="polygon2266" />
      <rect
         x="39"
         y="22"
         width="2"
         height="4"
         id="rect2268" />
      <path
         inkscape:connector-curvature="0"
         d="M 14.872,20 H 15 v -2 h 2 v 2 h 0.128 A 1.4,1.4 0 0 0 18.5,18.354 l -1.128,-6.208 a 1.4,1.4 0 0 0 -2.748,0 L 13.5,18.354 A 1.4,1.4 0 0 0 14.872,20 Z"
         id="path2270" />
      <path
         inkscape:connector-curvature="0"
         d="m 37,20 h 10 v 6 h 7 V 20.362 L 49.4,14.843 42,12.068 34.6,14.843 30,20.362 V 26 h 7 z m 4,-5 h 2 v 2 h -2 z"
         id="path2272" />
      <rect
         x="43"
         y="22"
         width="2"
         height="4"
         id="rect2274" />
      <polygon
         points="4,60 12.312,60 24.547,28 23.545,28 4,58.294 "
         id="polygon2276" />
      <polygon
         points="27.808,28 26.688,28 14.453,60 22.161,60 "
         id="polygon2278" />
      <polygon
         points="60,41.586 60,28 56,28 54,28 47,28 46.414,28 "
         id="polygon2280" />
      <polygon
         points="29.839,28 24.192,60 31,60 31,28 "
         id="polygon2282" />
      <polygon
         points="60,24.618 56,22.618 56,26 60,26 "
         id="polygon2284" />
      <polygon
         points="60,54.605 60,44.414 43.586,28 43,28 42.835,28 "
         id="polygon2286" />
      <polygon
         points="60,60 60,58.294 40.455,28 39.453,28 51.688,60 "
         id="polygon2288" />
      <polygon
         points="34.161,28 33,28 33,60 39.808,60 "
         id="polygon2290" />
      <polygon
         points="41.839,60 49.547,60 37.312,28 37,28 36.192,28 "
         id="polygon2292" />
      <path
         inkscape:connector-curvature="0"
         d="M 27.5,4 A 2.5,2.5 0 1 1 25,6.5 2.5,2.5 0 0 1 27.5,4 Z"
         id="path2294" />
      <rect
         x="6"
         y="17"
         width="2"
         height="10"
         id="rect2296" />
      <rect
         x="15"
         y="20"
         width="2"
         height="7"
         id="rect2298" />
    </g>
  </g>
</svg>
