<?xml version="1.0" encoding="UTF-8" standalone="no"?>
<svg
   xmlns:dc="http://purl.org/dc/elements/1.1/"
   xmlns:cc="http://creativecommons.org/ns#"
   xmlns:rdf="http://www.w3.org/1999/02/22-rdf-syntax-ns#"
   xmlns:svg="http://www.w3.org/2000/svg"
   xmlns="http://www.w3.org/2000/svg"
   xmlns:sodipodi="http://sodipodi.sourceforge.net/DTD/sodipodi-0.dtd"
   xmlns:inkscape="http://www.inkscape.org/namespaces/inkscape"
   width="20"
   height="20"
   viewBox="0 0 20 20"
   version="1.1"
   id="svg838"
   inkscape:version="1.0.1 (3bc2e813f5, 2020-09-07)"
   sodipodi:docname="bg_foodworker.svg">
  <defs
     id="defs832" />
  <sodipodi:namedview
     id="base"
     pagecolor="#ffffff"
     bordercolor="#666666"
     borderopacity="1.0"
     inkscape:pageopacity="0.0"
     inkscape:pageshadow="2"
     inkscape:zoom="15.839192"
     inkscape:cx="12.686043"
     inkscape:cy="10.77133"
     inkscape:document-units="mm"
     inkscape:current-layer="layer1"
     inkscape:document-rotation="0"
     showgrid="false"
     units="px"
     inkscape:window-width="1267"
     inkscape:window-height="1040"
     inkscape:window-x="52"
     inkscape:window-y="0"
     inkscape:window-maximized="0"
     inkscape:pagecheckerboard="true" />
  <metadata
     id="metadata835">
    <rdf:RDF>
      <cc:Work
         rdf:about="">
        <dc:format>image/svg+xml</dc:format>
        <dc:type
           rdf:resource="http://purl.org/dc/dcmitype/StillImage" />
        <dc:title />
      </cc:Work>
    </rdf:RDF>
  </metadata>
  <g
     inkscape:label="Layer 1"
     inkscape:groupmode="layer"
     id="layer1">
    <g
       style="clip-rule:evenodd;fill-rule:evenodd;image-rendering:optimizeQuality;shape-rendering:geometricPrecision;text-rendering:geometricPrecision"
       id="g3926"
       transform="matrix(0.02500384,0,0,0.02500384,3.4619914,2.5113491)">
      <path
         style="fill:#000000"
         inkscape:connector-curvature="0"
         class="fil0"
         d="m 243,598 c -10,0 -19,-8 -19,-19 V 310 c 0,-9 7,-18 17,-19 V 236 L 193,196 V 31 C 193,16 204,3 218,1 v 177 c 0,4 3,7 7,7 h 10 c 4,0 7,-3 7,-7 V 0 h 25 v 178 c 0,4 3,7 6,7 h 11 c 4,0 7,-3 7,-7 V 1 c 14,2 25,15 25,30 v 165 l -48,40 v 55 c 9,1 17,10 17,19 v 269 c 0,11 -9,19 -20,19 z"
         id="path3920" />
      <path
         style="fill:#000000"
         inkscape:connector-curvature="0"
         class="fil0"
         d="m 453,0 c 39,0 70,50 70,112 0,53 -23,97 -53,109 v 70 c 9,1 17,10 17,19 v 269 c 0,11 -9,19 -20,19 h -27 c -11,0 -20,-8 -20,-19 V 310 c 0,-9 8,-18 17,-19 V 221 C 407,209 384,165 384,112 384,50 415,0 453,0 Z"
         id="path3922" />
      <path
         style="fill:#000000"
         inkscape:connector-curvature="0"
         class="fil0"
         d="m 100,21 v 563 c 0,8 -6,15 -14,15 H 65 c -8,0 -14,-7 -14,-15 V 365 C 51,352 -69,204 59,22 72,3 100,-6 100,21 Z"
         id="path3924" />
    </g>
  </g>
</svg>
