<?xml version="1.0" encoding="UTF-8" standalone="no"?>
<svg
   xmlns:dc="http://purl.org/dc/elements/1.1/"
   xmlns:cc="http://creativecommons.org/ns#"
   xmlns:rdf="http://www.w3.org/1999/02/22-rdf-syntax-ns#"
   xmlns:svg="http://www.w3.org/2000/svg"
   xmlns="http://www.w3.org/2000/svg"
   xmlns:sodipodi="http://sodipodi.sourceforge.net/DTD/sodipodi-0.dtd"
   xmlns:inkscape="http://www.inkscape.org/namespaces/inkscape"
   width="20"
   height="20"
   viewBox="0 0 20 20"
   version="1.1"
   id="svg838"
   inkscape:version="1.0.1 (3bc2e813f5, 2020-09-07)"
   sodipodi:docname="bg_gardener.svg">
  <defs
     id="defs832" />
  <sodipodi:namedview
     id="base"
     pagecolor="#ffffff"
     bordercolor="#666666"
     borderopacity="1.0"
     inkscape:pageopacity="0.0"
     inkscape:pageshadow="2"
     inkscape:zoom="15.839192"
     inkscape:cx="12.686043"
     inkscape:cy="10.77133"
     inkscape:document-units="mm"
     inkscape:current-layer="layer1"
     inkscape:document-rotation="0"
     showgrid="false"
     units="px"
     inkscape:window-width="1267"
     inkscape:window-height="1040"
     inkscape:window-x="52"
     inkscape:window-y="0"
     inkscape:window-maximized="0"
     inkscape:pagecheckerboard="true" />
  <metadata
     id="metadata835">
    <rdf:RDF>
      <cc:Work
         rdf:about="">
        <dc:format>image/svg+xml</dc:format>
        <dc:type
           rdf:resource="http://purl.org/dc/dcmitype/StillImage" />
        <dc:title></dc:title>
      </cc:Work>
    </rdf:RDF>
  </metadata>
  <g
     inkscape:label="Layer 1"
     inkscape:groupmode="layer"
     id="layer1">
    <g
       id="g4728"
       transform="matrix(0.04162564,0,0,0.04162564,-0.65616384,-0.48966128)">
      <path
         inkscape:connector-curvature="0"
         d="M 374.862,64 A 20,20 0 0 0 346.9,39.528 26.668,26.668 0 1 0 299.567,64 Z"
         id="path4700" />
      <path
         inkscape:connector-curvature="0"
         d="m 44.422,119.155 a 8,8 0 0 1 7.156,-14.31 L 56,107.056 V 64 a 8,8 0 0 1 16,0 v 11.056 l 4.422,-2.211 a 8,8 0 0 1 7.156,14.31 L 72,92.944 V 151.2 A 40.011,40.011 0 0 0 104,112 V 88 h 54.862 A 20,20 0 0 0 130.9,63.528 26.666,26.666 0 0 0 106.667,48 c -2.031,0 -8.1,0.65 -10.047,0.864 A 39.993,39.993 0 0 0 24,72 v 40 a 40.011,40.011 0 0 0 32,39.2 v -26.256 z"
         id="path4702" />
      <path
         inkscape:connector-curvature="0"
         d="m 388.422,167.155 a 8,8 0 0 1 7.156,-14.31 l 12.422,6.211 12.422,-6.211 a 8,8 0 0 1 10.556,3.263 l 1.009,3.511 a 8,8 0 0 1 -4.409,7.536 L 416,172.944 v 18.038 a 31.941,31.941 0 0 0 13.33,-7.133 24.266,24.266 0 0 0 2.67,0.151 23.961,23.961 0 0 0 7.436,-1.18 c 0.189,0.048 0.375,0.1 0.564,0.151 v -0.342 a 24,24 0 0 0 0,-45.258 V 120 a 8,8 0 0 1 16,0 v 62.992 A 32.014,32.014 0 0 0 480,152 V 88 a 32,32 0 0 0 -64,0 v 16 l 0.44,1.53 a 24.005,24.005 0 0 0 -31.054,30.513 C 384.927,136.017 384.465,136 384,136 a 24,24 0 0 0 0,48 24.266,24.266 0 0 0 2.67,-0.151 31.941,31.941 0 0 0 13.33,7.133 v -18.038 z"
         id="path4704" />
      <path
         inkscape:connector-curvature="0"
         d="m 192,164 a 12.013,12.013 0 0 1 12,-12 h 4 a 8,8 0 0 0 0,-16 h -4 a 28.032,28.032 0 0 0 -28,28 v 12 a 8,8 0 0 0 16,0 z"
         id="path4706" />
      <path
         inkscape:connector-curvature="0"
         d="m 184,216 a 8,8 0 0 0 8,-8 v -8 a 8,8 0 0 0 -16,0 v 8 a 8,8 0 0 0 8,8 z"
         id="path4708" />
      <path
         inkscape:connector-curvature="0"
         d="m 328,176 a 8,8 0 0 0 8,-8 v -4 a 28.032,28.032 0 0 0 -28,-28 h -4 a 8,8 0 0 0 0,16 h 4 a 12.013,12.013 0 0 1 12,12 v 4 a 8,8 0 0 0 8,8 z"
         id="path4710" />
      <path
         inkscape:connector-curvature="0"
         d="m 488,272 h -2.158 A 15.9,15.9 0 0 0 488,264 v 0 a 16,16 0 0 0 -16,-16 h -8 a 22.628,22.628 0 0 1 0,-32 h -8 v -33.008 a 31.928,31.928 0 0 1 -16,-0.021 V 216 h -24 v -25.018 a 31.943,31.943 0 0 1 -16,0 V 216 h -8 a 16,16 0 0 0 -16,16 v 0 40 H 322.529 A 47.948,47.948 0 0 0 344,232 h -8 v -40 a 8,8 0 0 0 -16,0 v 40 h -48 a 77.254,77.254 0 0 1 22.627,-54.627 L 304,168 h -32 a 67.785,67.785 0 0 1 7.155,-30.311 L 280,136 h -16 v -24 a 8,8 0 0 1 16,0 8,8 0 0 0 16,0 23.984,23.984 0 0 0 -40,-17.869 23.984,23.984 0 0 0 -40,17.869 8,8 0 0 0 16,0 8,8 0 0 1 16,0 v 24 h -16 l 0.845,1.689 A 67.785,67.785 0 0 1 240,168 h -32 l 9.373,9.373 A 77.254,77.254 0 0 1 240,232 h -72 a 47.948,47.948 0 0 0 21.471,40 H 136 V 220 A 43.994,43.994 0 0 0 72,180.812 V 151.2 a 40.3,40.3 0 0 1 -16,0 v 43.518 A 43.788,43.788 0 0 0 48,220 v 5 l 0.8,0.5 A 55.941,55.941 0 0 0 24,272 a 8,8 0 0 0 0,16 h 464 a 8,8 0 0 0 0,-16 z M 88,248 h 16 v 16 H 88 Z m -32,-8 h 16 v 16 H 56 Z m 336,8 h 8 a 22.615,22.615 0 0 1 5.15,24 H 392 Z"
         id="path4712" />
      <path
         inkscape:connector-curvature="0"
         d="m 168,32 h 24 a 8,8 0 0 0 0,-16 h -24 a 8,8 0 0 0 0,16 z"
         id="path4714-0" />
      <path
         inkscape:connector-curvature="0"
         d="m 216,32 h 16 a 8,8 0 0 0 0,-16 h -16 a 8,8 0 0 0 0,16 z"
         id="path4716-6" />
      <path
         inkscape:connector-curvature="0"
         d="m 232,56 a 8,8 0 0 0 -8,-8 h -40 a 8,8 0 0 0 0,16 h 40 a 8,8 0 0 0 8,-8 z"
         id="path4718" />
      <path
         inkscape:connector-curvature="0"
         d="m 152,112 h -16 a 8,8 0 0 0 0,16 h 16 a 8,8 0 0 0 0,-16 z"
         id="path4720" />
      <path
         inkscape:connector-curvature="0"
         d="m 184,128 a 8,8 0 0 0 0,-16 h -8 a 8,8 0 0 0 0,16 z"
         id="path4722" />
      <path
         inkscape:connector-curvature="0"
         d="m 152,144 h -32 a 8,8 0 0 0 0,16 h 32 a 8,8 0 0 0 0,-16 z"
         id="path4724" />
      <path
         inkscape:connector-curvature="0"
         d="m 416,438.4 5.327,-1.066 A 46.871,46.871 0 0 0 456.6,406.2 L 464,384 441.805,391.4 A 46.864,46.864 0 0 0 416,412.505 V 374.629 A 24.006,24.006 0 0 0 432,352 v -24 l -16,8 -32,-24 v 40 a 24.006,24.006 0 0 0 16,22.629 v 37.876 A 46.864,46.864 0 0 0 374.2,391.4 L 352,384 l 7.4,22.195 a 46.871,46.871 0 0 0 35.275,31.139 L 400,438.4 V 440 H 272 v -1.6 l 5.327,-1.066 A 46.871,46.871 0 0 0 312.6,406.2 L 320,384 297.805,391.4 A 46.864,46.864 0 0 0 272,412.505 V 374.629 A 24.006,24.006 0 0 0 288,352 v -24 l -16,8 -32,-24 v 40 a 24.006,24.006 0 0 0 16,22.629 v 37.876 A 46.864,46.864 0 0 0 230.2,391.4 L 208,384 l 7.4,22.195 a 46.871,46.871 0 0 0 35.275,31.139 L 256,438.4 V 440 H 128 v -1.6 l 5.327,-1.066 A 46.871,46.871 0 0 0 168.6,406.2 L 176,384 153.805,391.4 A 46.864,46.864 0 0 0 128,412.505 V 374.629 A 24.006,24.006 0 0 0 144,352 v -24 l -16,8 -32,-24 v 40 a 24.006,24.006 0 0 0 16,22.629 v 37.876 A 46.864,46.864 0 0 0 86.2,391.4 L 64,384 l 7.4,22.2 a 46.871,46.871 0 0 0 35.275,31.139 L 112,438.4 V 440 H 24 v 48 H 488 V 440 H 416 Z M 72,472 H 56 v -16 h 16 z m 48,0 h -16 v -16 h 16 z m 48,0 h -16 v -16 h 16 z m 48,0 h -16 v -16 h 16 z m 48,0 h -16 v -16 h 16 z m 176,-16 h 16 v 16 h -16 z m -128,16 h -16 v -16 h 16 z m 48,0 h -16 v -16 h 16 z m 48,0 h -16 v -16 h 16 z"
         id="path4726" />
    </g>
  </g>
</svg>
