<?xml version="1.0" encoding="UTF-8" standalone="no"?>
<svg
   xmlns:dc="http://purl.org/dc/elements/1.1/"
   xmlns:cc="http://creativecommons.org/ns#"
   xmlns:rdf="http://www.w3.org/1999/02/22-rdf-syntax-ns#"
   xmlns:svg="http://www.w3.org/2000/svg"
   xmlns="http://www.w3.org/2000/svg"
   xmlns:sodipodi="http://sodipodi.sourceforge.net/DTD/sodipodi-0.dtd"
   xmlns:inkscape="http://www.inkscape.org/namespaces/inkscape"
   width="20"
   height="20"
   viewBox="0 0 20 20"
   version="1.1"
   id="svg838"
   inkscape:version="1.0.1 (3bc2e813f5, 2020-09-07)"
   sodipodi:docname="bg_hunter.svg">
  <defs
     id="defs832" />
  <sodipodi:namedview
     id="base"
     pagecolor="#ffffff"
     bordercolor="#666666"
     borderopacity="1.0"
     inkscape:pageopacity="0.0"
     inkscape:pageshadow="2"
     inkscape:zoom="11.2"
     inkscape:cx="15.410649"
     inkscape:cy="10.401978"
     inkscape:document-units="mm"
     inkscape:current-layer="layer1"
     inkscape:document-rotation="0"
     showgrid="false"
     units="px"
     inkscape:window-width="1267"
     inkscape:window-height="1040"
     inkscape:window-x="52"
     inkscape:window-y="0"
     inkscape:window-maximized="0"
     inkscape:pagecheckerboard="true" />
  <metadata
     id="metadata835">
    <rdf:RDF>
      <cc:Work
         rdf:about="">
        <dc:format>image/svg+xml</dc:format>
        <dc:type
           rdf:resource="http://purl.org/dc/dcmitype/StillImage" />
        <dc:title />
      </cc:Work>
    </rdf:RDF>
  </metadata>
  <g
     inkscape:label="Layer 1"
     inkscape:groupmode="layer"
     id="layer1">
    <g
       id="g859"
       transform="matrix(0.02831569,0,0,0.02831569,2.7524126,2.7495884)">
      <path
         d="m 32.24,110 21.66,33 a 36,36 0 0 1 6.92,20 l 6.3,183.88 a 11.39,11.39 0 0 1 -8.21,11.33 v 0 A 11.39,11.39 0 0 1 44.4,348.42 L 20.18,114.59 A 6.69,6.69 0 0 1 32.24,110 Z"
         id="path4" />
      <path
         d="M 402,479.76 369,458.1 a 36,36 0 0 0 -20,-6.92 l -183.88,-6.3 a 11.39,11.39 0 0 0 -11.33,8.21 v 0 a 11.39,11.39 0 0 0 9.79,14.51 l 233.78,24.22 A 6.69,6.69 0 0 0 402,479.76 Z"
         id="path6" />
      <path
         d="m 474.08,465.77 -26.81,-34 a 131.42,131.42 0 0 1 -27.56,-67.64 378.55,378.55 0 0 1 -2,-39.3 c 6.44,-128.73 -54.12,-176.42 -54.12,-176.42 0,0 -47.66,-60.59 -176.39,-54.15 a 378.55,378.55 0 0 1 -39.3,-2 131.42,131.42 0 0 1 -67.64,-27.53 l -34,-26.81 c -9.55,-8 -23.11,3.08 -17.19,14 10.61,19.6 23.64,42.78 37.56,65.44 a 95.51,95.51 0 0 0 58.2,42.91 236.56,236.56 0 0 0 44.7,6.38 c 51.87,2.73 91.88,14.46 118.41,33.53 L 133.52,354.59 a 32.6,32.6 0 0 1 -17.62,9.1 l -18.67,3.16 a 32.53,32.53 0 0 0 -14.5,6.35 L 29,414.75 a 9.36,9.36 0 0 0 3.26,16.43 l 38.2,10.41 10.41,38.2 a 9.36,9.36 0 0 0 16.43,3.26 l 41.55,-53.78 a 32.53,32.53 0 0 0 6.35,-14.5 l 3.16,-18.67 a 32.6,32.6 0 0 1 9.1,-17.62 L 311.8,224.09 c 19.07,26.53 30.8,66.54 33.53,118.41 a 236.56,236.56 0 0 0 6.38,44.7 95.51,95.51 0 0 0 42.91,58.2 c 22.66,13.92 45.84,27 65.44,37.56 10.94,5.92 22,-7.64 14.02,-17.19 z"
         id="path8" />
      <path
         d="m 455.55,145.3 v -0.05 a 93.84,93.84 0 0 0 6.17,-20.88 c 3.09,-17.71 11.3,-55.94 29.31,-92.9 A 7.89,7.89 0 0 0 480.53,21 c -37,18 -75.19,26.22 -92.9,29.31 a 93.84,93.84 0 0 0 -20.88,6.17 h -0.05 a 8,8 0 0 0 1.16,15.06 l 1.24,0.33 a 99.9,99.9 0 0 1 31.48,14.59 l -25.74,25.73 a 9.78,9.78 0 0 0 0,13.82 L 386,137.16 a 9.78,9.78 0 0 0 13.82,0 l 25.73,-25.74 a 99.9,99.9 0 0 1 14.59,31.48 l 0.33,1.24 a 8,8 0 0 0 15.08,1.16 z"
         id="path10" />
    </g>
  </g>
</svg>
