<?xml version="1.0" encoding="UTF-8" standalone="no"?>
<svg
   xmlns:dc="http://purl.org/dc/elements/1.1/"
   xmlns:cc="http://creativecommons.org/ns#"
   xmlns:rdf="http://www.w3.org/1999/02/22-rdf-syntax-ns#"
   xmlns:svg="http://www.w3.org/2000/svg"
   xmlns="http://www.w3.org/2000/svg"
   xmlns:sodipodi="http://sodipodi.sourceforge.net/DTD/sodipodi-0.dtd"
   xmlns:inkscape="http://www.inkscape.org/namespaces/inkscape"
   width="20"
   height="20"
   viewBox="0 0 20 20"
   version="1.1"
   id="svg838"
   inkscape:version="1.0.1 (3bc2e813f5, 2020-09-07)"
   sodipodi:docname="bg_healer.svg">
  <defs
     id="defs832" />
  <sodipodi:namedview
     id="base"
     pagecolor="#ffffff"
     bordercolor="#666666"
     borderopacity="1.0"
     inkscape:pageopacity="0.0"
     inkscape:pageshadow="2"
     inkscape:zoom="15.839192"
     inkscape:cx="12.686043"
     inkscape:cy="10.77133"
     inkscape:document-units="mm"
     inkscape:current-layer="layer1"
     inkscape:document-rotation="0"
     showgrid="false"
     units="px"
     inkscape:window-width="1267"
     inkscape:window-height="1040"
     inkscape:window-x="52"
     inkscape:window-y="0"
     inkscape:window-maximized="0"
     inkscape:pagecheckerboard="true" />
  <metadata
     id="metadata835">
    <rdf:RDF>
      <cc:Work
         rdf:about="">
        <dc:format>image/svg+xml</dc:format>
        <dc:type
           rdf:resource="http://purl.org/dc/dcmitype/StillImage" />
        <dc:title></dc:title>
      </cc:Work>
    </rdf:RDF>
  </metadata>
  <g
     inkscape:label="Layer 1"
     inkscape:groupmode="layer"
     id="layer1">
    <path
       inkscape:connector-curvature="0"
       d="M 19.65186,6.0849869 10.177317,0.99489684 c -0.133568,-0.072189 -0.2950668,-0.071282 -0.4286088,9.07e-4 L 0.34727294,6.0913025 C 0.11823354,6.2158001 0.04150914,6.507281 0.18021784,6.7283532 l 0.7958438,1.4744164 V 18.607624 c 0,0.248126 0.20212906,0.45117 0.45116586,0.45117 h 5.8651957 v -7.623851 c 0,-0.274318 0.202129,-0.497186 0.45117,-0.497186 h 4.5116858 c 0.248126,0 0.45117,0.222879 0.45117,0.497186 v 7.623851 h 5.865195 c 0.248126,0 0.451166,-0.203036 0.451166,-0.45117 V 8.2451796 L 19.820476,6.7220338 C 19.958542,6.5009692 19.880948,6.2086076 19.65172,6.0849869 Z M 5.4878688,15.900613 c 0,0.248126 -0.2021291,0.45117 -0.4511659,0.45117 H 3.2320238 c -0.2490331,0 -0.4511698,-0.203036 -0.4511698,-0.45117 v -4.51169 c 0,-0.248126 0.2021292,-0.451166 0.4511698,-0.451166 h 1.8046791 c 0.2490708,0 0.4511659,0.203036 0.4511659,0.451166 z M 12.70657,8.2307418 H 10.901894 V 10.035418 H 9.0972192 V 8.2307418 H 7.2925441 V 6.4260665 H 9.0972192 V 4.6213913 h 1.8046748 v 1.8046752 h 1.804676 z m 4.511686,7.6698712 c 0,0.248126 -0.203036,0.45117 -0.45117,0.45117 h -1.804675 c -0.248126,0 -0.451166,-0.203036 -0.451166,-0.45117 v -4.51169 c 0,-0.248126 0.203036,-0.451166 0.451166,-0.451166 h 1.804675 c 0.248126,0 0.45117,0.203036 0.45117,0.451166 z M 18.32362,7.4384924 c 0,0 -8.223904,-4.5613191 -8.3583528,-4.4882306 L 1.6384994,7.4402952 1.1999608,6.6552609 9.9652672,1.9053585 18.763059,6.6498486 Z"
       id="path3894"
       style="stroke-width:0.902336" />
  </g>
</svg>
