<?xml version="1.0" encoding="UTF-8" standalone="no"?>
<svg
   xmlns:dc="http://purl.org/dc/elements/1.1/"
   xmlns:cc="http://creativecommons.org/ns#"
   xmlns:rdf="http://www.w3.org/1999/02/22-rdf-syntax-ns#"
   xmlns:svg="http://www.w3.org/2000/svg"
   xmlns="http://www.w3.org/2000/svg"
   xmlns:sodipodi="http://sodipodi.sourceforge.net/DTD/sodipodi-0.dtd"
   xmlns:inkscape="http://www.inkscape.org/namespaces/inkscape"
   width="20"
   height="20"
   viewBox="0 0 20 20"
   version="1.1"
   id="svg838"
   inkscape:version="1.0.1 (3bc2e813f5, 2020-09-07)"
   sodipodi:docname="bg_informer.svg">
  <defs
     id="defs832" />
  <sodipodi:namedview
     id="base"
     pagecolor="#ffffff"
     bordercolor="#666666"
     borderopacity="1.0"
     inkscape:pageopacity="0.0"
     inkscape:pageshadow="2"
     inkscape:zoom="15.839192"
     inkscape:cx="12.686043"
     inkscape:cy="10.77133"
     inkscape:document-units="mm"
     inkscape:current-layer="layer1"
     inkscape:document-rotation="0"
     showgrid="false"
     units="px"
     inkscape:window-width="1267"
     inkscape:window-height="1040"
     inkscape:window-x="52"
     inkscape:window-y="0"
     inkscape:window-maximized="0"
     inkscape:pagecheckerboard="true" />
  <metadata
     id="metadata835">
    <rdf:RDF>
      <cc:Work
         rdf:about="">
        <dc:format>image/svg+xml</dc:format>
        <dc:type
           rdf:resource="http://purl.org/dc/dcmitype/StillImage" />
        <dc:title></dc:title>
      </cc:Work>
    </rdf:RDF>
  </metadata>
  <g
     inkscape:label="Layer 1"
     inkscape:groupmode="layer"
     id="layer1">
    <g
       id="g2674"
       transform="matrix(0.39227195,0,0,0.39227195,-1.7681586,-1.7681585)">
      <path
         inkscape:connector-curvature="0"
         d="m 18.835022,24.25 c 0.219971,0.09998 5.450012,2.369995 11.219971,2.369995 5.25,0 10.850036,-2.26001 11.090027,-2.359985 0.380004,-0.150025 0.619995,-0.52002 0.619995,-0.920044 V 19.875 19.637512 10.169983 C 41.765015,7.3200073 39.445007,5 36.604981,5 35.61499,5 34.655029,5.2799683 33.825012,5.8099976 l -2.119995,1.3499756 c -1.030029,0.6600342 -2.369995,0.6600342 -3.400024,0 L 26.184998,5.8099976 C 25.35498,5.2799683 24.395019,5 23.405029,5 20.565002,5 18.244995,7.3200073 18.244995,10.169983 v 9.457519 0.247498 3.464966 c 0,0.390014 0.230042,0.75 0.590027,0.910034 z"
         id="path2670-6" />
      <path
         inkscape:connector-curvature="0"
         d="m 54.424988,19.659973 c 0,-0.630005 -0.229981,-1.169983 -0.679993,-1.570007 -1.380005,-1.209961 -4.48999,-0.829956 -9.649963,-0.190003 -0.100037,0.02002 -0.220032,0.03003 -0.330017,0.05005 v 5.389954 c 0,1.23999 -0.739991,2.330017 -1.890015,2.780029 -0.01001,0.01001 -3.070007,1.27002 -6.909973,1.98999 -1.559998,0.299988 -3.25,0.51001 -4.910034,0.51001 -1.839966,0 -3.619995,-0.210022 -5.209961,-0.51001 -3.940003,-0.73999 -6.800049,-2.020019 -6.840027,-2.039978 -1.059998,-0.470031 -1.76001,-1.550049 -1.76001,-2.730041 v -5.389954 c -0.109985,-0.02002 -0.22998,-0.03003 -0.339966,-0.05005 -5.160034,-0.639953 -8.2700192,-1.019958 -9.6400143,0.190003 -0.4500122,0.400024 -0.6900024,0.940002 -0.6900024,1.570007 0,2.25 3.6799927,6.650024 9.3399657,9.970032 -0.01996,0.209961 -0.03998,0.449951 -0.06,0.73999 -6.1e-5,0.0021 -1.22e-4,0.0047 -1.83e-4,0.0068 -1.166198,1.040161 -4.726989,4.662598 -4.193969,9.727661 0.01855,0.179687 0.08594,0.351074 0.194336,0.495606 l 3.942382,5.256835 h -4.380859 c -0.405273,0 -0.7714844,0.245118 -0.9248047,0.620606 -0.1542969,0.375 -0.066406,0.806152 0.2226563,1.091309 L 16.95282,54.711914 C 17.147156,54.904297 17.401062,55 17.654968,55 c 0.257813,0 0.516602,-0.09912 0.711914,-0.297363 0.387696,-0.393555 0.38379,-1.026368 -0.0098,-1.414551 L 12.85321,47.856934 h 3.944336 c 0.378907,0 0.72461,-0.213868 0.894532,-0.552735 0.168945,-0.338867 0.132812,-0.74414 -0.09473,-1.047363 l -4.97168,-6.628418 c -0.188598,-2.717407 1.130188,-4.965332 2.270325,-6.378052 0.402161,5.601563 2.916077,15.292847 14.848999,20.709595 0.140015,0.06 0.280029,0.09003 0.419983,0.09003 0.140015,0 0.280029,-0.03003 0.410034,-0.09003 11.950012,-5.419983 14.460022,-15.119995 14.849976,-20.719971 1.140014,1.409973 2.460022,3.659973 2.270019,6.390015 l -4.96997,6.630005 c -0.220032,0.299987 -0.26001,0.709961 -0.09003,1.039978 0.169983,0.340026 0.51001,0.559997 0.890014,0.559997 h 3.950013 l -5.51001,5.429993 c -0.390015,0.390015 -0.390015,1.020019 -0.01001,1.410034 C 42.155029,54.899963 42.414978,55 42.674988,55 c 0.25,0 0.5,-0.100037 0.700012,-0.290039 l 7.23999,-7.139954 c 0.290039,-0.290039 0.369995,-0.720031 0.220032,-1.090027 -0.150024,-0.380005 -0.52002,-0.619995 -0.929993,-0.619995 h -4.380005 l 3.950013,-5.260009 c 0.09998,-0.140015 0.169982,-0.320008 0.189941,-0.5 0.530029,-5.070008 -3.049988,-8.709961 -4.199951,-9.739991 -0.02002,-0.380005 -0.05005,-0.690002 -0.07001,-0.919983 5.489991,-3.290039 9.029969,-7.570007 9.029969,-9.780029 z m -30.26001,18.570008 c -2.799988,0 -5.069946,-2.27002 -5.069946,-5.059998 0,-0.469971 0.06,-0.940002 0.190002,-1.390015 3.009949,1.220032 6.359985,2.040039 9.879944,2.150025 -0.359985,2.429992 -2.469971,4.299988 -5,4.299988 z m 12,0.01001 c -2.539978,0 -4.649963,-1.880005 -5.009949,-4.320007 3.519959,-0.150024 6.859986,-1.01001 9.849976,-2.25 0.150024,0.47998 0.22998,0.97998 0.22998,1.5 0,2.789978 -2.269958,5.070007 -5.070007,5.070007 z"
         id="path2672-7" />
    </g>
  </g>
</svg>
