<?xml version="1.0" encoding="UTF-8" standalone="no"?>
<svg
   xmlns:dc="http://purl.org/dc/elements/1.1/"
   xmlns:cc="http://creativecommons.org/ns#"
   xmlns:rdf="http://www.w3.org/1999/02/22-rdf-syntax-ns#"
   xmlns:svg="http://www.w3.org/2000/svg"
   xmlns="http://www.w3.org/2000/svg"
   xmlns:sodipodi="http://sodipodi.sourceforge.net/DTD/sodipodi-0.dtd"
   xmlns:inkscape="http://www.inkscape.org/namespaces/inkscape"
   width="20"
   height="20"
   viewBox="0 0 20 20"
   version="1.1"
   id="svg838"
   inkscape:version="1.0.1 (3bc2e813f5, 2020-09-07)"
   sodipodi:docname="bg_knight.svg">
  <defs
     id="defs832" />
  <sodipodi:namedview
     id="base"
     pagecolor="#ffffff"
     bordercolor="#666666"
     borderopacity="1.0"
     inkscape:pageopacity="0.0"
     inkscape:pageshadow="2"
     inkscape:zoom="15.839192"
     inkscape:cx="12.686043"
     inkscape:cy="10.77133"
     inkscape:document-units="mm"
     inkscape:current-layer="layer1"
     inkscape:document-rotation="0"
     showgrid="false"
     units="px"
     inkscape:window-width="1285"
     inkscape:window-height="1040"
     inkscape:window-x="52"
     inkscape:window-y="0"
     inkscape:window-maximized="0"
     inkscape:pagecheckerboard="true" />
  <metadata
     id="metadata835">
    <rdf:RDF>
      <cc:Work
         rdf:about="">
        <dc:format>image/svg+xml</dc:format>
        <dc:type
           rdf:resource="http://purl.org/dc/dcmitype/StillImage" />
        <dc:title />
      </cc:Work>
    </rdf:RDF>
  </metadata>
  <g
     inkscape:label="Layer 1"
     inkscape:groupmode="layer"
     id="layer1">
    <g
       id="g2602"
       transform="matrix(3.5999951,0,0,3.5999951,-79.803324,-56.685221)">
      <g
         transform="matrix(0.20672144,0,0,0.20672144,32.145737,14.774137)"
         id="g2588">
        <g
           id="g2544"
           transform="matrix(0.26458333,0,0,0.26458333,-88.142958,-21.920108)">
          <path
             inkscape:connector-curvature="0"
             d="m 219.8,113.7 -18.7,-3.2 -18.7,3.2 -5.1,25.8 v 4.7 l 2.6,25.7 21.3,7.5 21.3,-7.5 2.6,-25.7 v -4.7 z m -31.2,52 h -1.5 v -1 h -1 v -1.5 h 1 v -1 h 1.5 z m 4.6,1.7 h -1.5 v -1 h -1 v -1.5 h 1 v -1 h 1.5 z m 0,-6.7 h -1.5 v -1 h -1 v -1.5 h 1 v -1 h 1.5 z m 5.3,10.2 H 197 v -1 h -1 v -1.5 h 1 v -1 h 1.5 z m 0,-6.7 H 197 v -1 h -1 v -1.5 h 1 v -1 h 1.5 z m 0,-6.7 H 197 v -1 h -1 V 155 h 1 v -1 h 1.5 z m -0.7,-12.9 -15.9,-1.9 V 139 l 15,2.8 z m 22.7,-1.8 -15.9,1.9 0.9,-2.8 15,-2.8 z"
             id="path2530" />
          <path
             inkscape:connector-curvature="0"
             d="m 178.7,174.1 c 0,0 -4.8,-6.1 -10.2,-3.2 -6.6,3.6 -2.5,7.6 -0.3,9.3 3.6,2.9 18.4,4.8 25,5.7 0.6,0.1 0.8,-0.7 0.3,-1 -3.5,-1.7 -8.5,-4.7 -14.8,-10.8 z"
             id="path2532" />
          <path
             inkscape:connector-curvature="0"
             d="m 162.6,177.3 c -0.5,-0.9 -1.5,-1.3 -2.4,-1 -1.7,0.5 -3.9,1.7 -3.7,4.7 0.4,4.3 7.1,8.5 15.4,8.9 4.9,0.2 21.1,-0.1 24.8,-0.2 0.4,0 0.7,-0.3 0.7,-0.7 0,-0.2 0,-0.3 0,-0.5 0,-0.4 -0.3,-0.7 -0.6,-0.8 -3.3,-0.5 -17.8,-2.6 -23.6,-3.5 -6.5,-1.1 -9.4,-4.8 -10.6,-6.9 z"
             id="path2534" />
          <ellipse
             transform="matrix(0.9059,0.4235,-0.4235,0.9059,98.6619,-70.4294)"
             cx="207.8"
             cy="186.8"
             rx="5.4000001"
             ry="7.3000002"
             id="ellipse2536" />
          <path
             inkscape:connector-curvature="0"
             d="m 211.3,179.4 c 3.1,1.5 4.1,6 2.2,10.1 -1.9,4.1 -6,6.2 -9.1,4.8 -3.1,-1.5 -4.1,-6 -2.2,-10.1 1.9,-4.1 6,-6.3 9.1,-4.8 m 0.8,-1.8 c -4.1,-1.9 -9.3,0.7 -11.7,5.7 -2.4,5.1 -1,10.7 3.1,12.6 4.1,1.9 9.3,-0.7 11.7,-5.7 2.4,-5 1,-10.6 -3.1,-12.6 z"
             id="path2538" />
          <path
             inkscape:connector-curvature="0"
             d="m 215.9,175 c -0.8,0.4 -1.1,1.5 -0.4,2.1 1.4,1.3 2.9,3.8 2.5,8.7 -0.2,2 -0.5,3.4 -0.9,4.4 -0.3,0.8 0.3,1.7 1.2,1.7 6.7,-0.1 28.2,-0.6 28.2,-4.9 0,-3.8 -2.4,-1.6 -3.5,-4.9 -1.1,-3.4 -4,-8.5 -11.1,-10.1 -5.2,-1.2 -12.4,1.4 -16,3 z"
             id="path2540" />
          <path
             inkscape:connector-curvature="0"
             d="m 199.9,180.6 c -0.6,0.8 -1.4,1.9 -1.8,3.3 -0.3,0.8 -1.2,1.2 -1.9,0.8 -6,-2.9 -11.7,-7.3 -15.3,-11.4 -0.2,-0.3 0,-0.6 0.4,-0.5 l 18.3,6.3 c 0.5,0.2 0.7,0.9 0.3,1.5 z"
             id="path2542" />
        </g>
      </g>
      <path
         inkscape:connector-curvature="0"
         id="path2590"
         d="m 24.026005,20.867263 c 0,0 1.74814,0.01181 2.326916,-0.04725 0.578776,-0.05906 0.986281,-0.17127 0.986281,-0.17127 0,0 0.07087,0.218518 0.05906,0.354353 -0.01181,0.135835 -0.02953,0.318917 -0.02953,0.318917 l -3.254139,-0.04134"
         style="fill:#000000;fill-rule:evenodd;stroke:none;stroke-width:0.264583px;stroke-linecap:butt;stroke-linejoin:miter;stroke-opacity:1" />
    </g>
  </g>
</svg>
