<?xml version="1.0" encoding="UTF-8" standalone="no"?>
<svg
   xmlns:dc="http://purl.org/dc/elements/1.1/"
   xmlns:cc="http://creativecommons.org/ns#"
   xmlns:rdf="http://www.w3.org/1999/02/22-rdf-syntax-ns#"
   xmlns:svg="http://www.w3.org/2000/svg"
   xmlns="http://www.w3.org/2000/svg"
   xmlns:sodipodi="http://sodipodi.sourceforge.net/DTD/sodipodi-0.dtd"
   xmlns:inkscape="http://www.inkscape.org/namespaces/inkscape"
   width="20"
   height="20"
   viewBox="0 0 20 20"
   version="1.1"
   id="svg838"
   inkscape:version="1.0.1 (3bc2e813f5, 2020-09-07)"
   sodipodi:docname="bg_laborer.svg">
  <defs
     id="defs832" />
  <sodipodi:namedview
     id="base"
     pagecolor="#ffffff"
     bordercolor="#666666"
     borderopacity="1.0"
     inkscape:pageopacity="0.0"
     inkscape:pageshadow="2"
     inkscape:zoom="15.839192"
     inkscape:cx="12.686043"
     inkscape:cy="10.77133"
     inkscape:document-units="mm"
     inkscape:current-layer="layer1"
     inkscape:document-rotation="0"
     showgrid="false"
     units="px"
     inkscape:window-width="1267"
     inkscape:window-height="1040"
     inkscape:window-x="52"
     inkscape:window-y="0"
     inkscape:window-maximized="0"
     inkscape:pagecheckerboard="true" />
  <metadata
     id="metadata835">
    <rdf:RDF>
      <cc:Work
         rdf:about="">
        <dc:format>image/svg+xml</dc:format>
        <dc:type
           rdf:resource="http://purl.org/dc/dcmitype/StillImage" />
        <dc:title />
      </cc:Work>
    </rdf:RDF>
  </metadata>
  <g
     inkscape:label="Layer 1"
     inkscape:groupmode="layer"
     id="layer1">
    <g
       id="g4636"
       transform="matrix(-0.76192775,0,0,0.76192775,71.07637,-0.07241351)">
      <path
         style="stroke-width:0.264583"
         id="path4608"
         d="m 69.427488,23.679132 2.681287,1.793346 c 0.06694,0.04498 0.144992,0.068 0.224367,0.068 0.02619,0 0.05292,-0.0024 0.07885,-0.0079 0.104775,-0.02037 0.19685,-0.08228 0.25691,-0.171185 l 9.09611,-13.599054 c 2.387336,1.630627 4.683654,3.476096 6.758517,5.488252 0.03148,0.03069 0.07302,0.05027 0.11721,0.0553 l 0.906992,0.103187 c 0.0079,7.94e-4 0.01508,0.0011 0.02302,0.0011 0.06694,0 0.130704,-0.03334 0.167745,-0.09022 0.0426,-0.06297 0.04498,-0.144463 0.0077,-0.21008 C 88.013937,14.03454 85.934577,11.406434 83.486387,9.187903 L 84.514823,7.6504093 C 84.638383,7.465201 84.588642,7.2149051 84.403698,7.0913447 L 81.722675,5.2979989 c -0.08916,-0.060325 -0.198438,-0.083873 -0.303213,-0.060325 -0.104775,0.020373 -0.19685,0.082285 -0.256645,0.1711854 L 80.3098,6.6833572 C 78.330981,5.3302781 76.157958,4.1793406 73.769565,3.2321323 c -0.08334,-0.033338 -0.188119,-0.00344 -0.24183,0.075142 l -1.942835,2.90486 c -0.03466,0.052123 -0.04313,0.1164167 -0.02355,0.1756833 0.01958,0.059267 0.06535,0.1058334 0.124354,0.1267354 2.199482,0.779198 4.449763,1.8314459 6.666177,3.0964188 l -9.03552,13.5090952 c -0.123561,0.184944 -0.07382,0.435505 0.111125,0.559065 z"
         inkscape:connector-curvature="0" />
      <path
         style="stroke-width:0.264583"
         id="path4610"
         d="m 83.213337,19.659053 c -0.200554,-0.121179 -0.460904,-0.0889 -0.626533,0.07964 l -4.853517,4.932892 c -0.144727,0.146579 -0.186795,0.36539 -0.106627,0.55589 0.0799,0.189441 0.265113,0.313266 0.470694,0.313266 H 92.53011 c 0.0058,0 0.01402,-5.29e-4 0.01984,0 0.28231,0 0.51091,-0.228335 0.51091,-0.51091 0,-0.08334 -0.01905,-0.161661 -0.05477,-0.230981 l -1.12368,-5.945983 c -0.03069,-0.163247 -0.138377,-0.30136 -0.290512,-0.370152 -0.150548,-0.06879 -0.325967,-0.06032 -0.469636,0.02408 l -4.975489,2.912269 z"
         inkscape:connector-curvature="0" />
    </g>
    <g
       id="g837"
       transform="matrix(-0.76192775,0,0,0.76192775,71.07637,-0.07241351)">
      <path
         style="stroke-width:0.264583"
         id="path833"
         d="m 69.427488,23.679132 2.681287,1.793346 c 0.06694,0.04498 0.144992,0.068 0.224367,0.068 0.02619,0 0.05292,-0.0024 0.07885,-0.0079 0.104775,-0.02037 0.19685,-0.08228 0.25691,-0.171185 l 9.09611,-13.599054 c 2.387336,1.630627 4.683654,3.476096 6.758517,5.488252 0.03148,0.03069 0.07302,0.05027 0.11721,0.0553 l 0.906992,0.103187 c 0.0079,7.94e-4 0.01508,0.0011 0.02302,0.0011 0.06694,0 0.130704,-0.03334 0.167745,-0.09022 0.0426,-0.06297 0.04498,-0.144463 0.0077,-0.21008 C 88.013937,14.03454 85.934577,11.406434 83.486387,9.187903 L 84.514823,7.6504093 C 84.638383,7.465201 84.588642,7.2149051 84.403698,7.0913447 L 81.722675,5.2979989 c -0.08916,-0.060325 -0.198438,-0.083873 -0.303213,-0.060325 -0.104775,0.020373 -0.19685,0.082285 -0.256645,0.1711854 L 80.3098,6.6833572 C 78.330981,5.3302781 76.157958,4.1793406 73.769565,3.2321323 c -0.08334,-0.033338 -0.188119,-0.00344 -0.24183,0.075142 l -1.942835,2.90486 c -0.03466,0.052123 -0.04313,0.1164167 -0.02355,0.1756833 0.01958,0.059267 0.06535,0.1058334 0.124354,0.1267354 2.199482,0.779198 4.449763,1.8314459 6.666177,3.0964188 l -9.03552,13.5090952 c -0.123561,0.184944 -0.07382,0.435505 0.111125,0.559065 z"
         inkscape:connector-curvature="0" />
      <path
         style="stroke-width:0.264583"
         id="path835"
         d="m 83.213337,19.659053 c -0.200554,-0.121179 -0.460904,-0.0889 -0.626533,0.07964 l -4.853517,4.932892 c -0.144727,0.146579 -0.186795,0.36539 -0.106627,0.55589 0.0799,0.189441 0.265113,0.313266 0.470694,0.313266 H 92.53011 c 0.0058,0 0.01402,-5.29e-4 0.01984,0 0.28231,0 0.51091,-0.228335 0.51091,-0.51091 0,-0.08334 -0.01905,-0.161661 -0.05477,-0.230981 l -1.12368,-5.945983 c -0.03069,-0.163247 -0.138377,-0.30136 -0.290512,-0.370152 -0.150548,-0.06879 -0.325967,-0.06032 -0.469636,0.02408 l -4.975489,2.912269 z"
         inkscape:connector-curvature="0" />
    </g>
  </g>
</svg>
