<?xml version="1.0" encoding="UTF-8" standalone="no"?>
<svg
   xmlns:dc="http://purl.org/dc/elements/1.1/"
   xmlns:cc="http://creativecommons.org/ns#"
   xmlns:rdf="http://www.w3.org/1999/02/22-rdf-syntax-ns#"
   xmlns:svg="http://www.w3.org/2000/svg"
   xmlns="http://www.w3.org/2000/svg"
   xmlns:sodipodi="http://sodipodi.sourceforge.net/DTD/sodipodi-0.dtd"
   xmlns:inkscape="http://www.inkscape.org/namespaces/inkscape"
   width="20"
   height="20"
   viewBox="0 0 20 20"
   version="1.1"
   id="svg838"
   inkscape:version="1.0.1 (3bc2e813f5, 2020-09-07)"
   sodipodi:docname="bg_militia.svg">
  <defs
     id="defs832" />
  <sodipodi:namedview
     id="base"
     pagecolor="#ffffff"
     bordercolor="#666666"
     borderopacity="1.0"
     inkscape:pageopacity="0.0"
     inkscape:pageshadow="2"
     inkscape:zoom="15.839192"
     inkscape:cx="12.686043"
     inkscape:cy="10.77133"
     inkscape:document-units="mm"
     inkscape:current-layer="layer1"
     inkscape:document-rotation="0"
     showgrid="false"
     units="px"
     inkscape:window-width="1267"
     inkscape:window-height="1040"
     inkscape:window-x="52"
     inkscape:window-y="0"
     inkscape:window-maximized="0"
     inkscape:pagecheckerboard="true" />
  <metadata
     id="metadata835">
    <rdf:RDF>
      <cc:Work
         rdf:about="">
        <dc:format>image/svg+xml</dc:format>
        <dc:type
           rdf:resource="http://purl.org/dc/dcmitype/StillImage" />
        <dc:title></dc:title>
      </cc:Work>
    </rdf:RDF>
  </metadata>
  <g
     inkscape:label="Layer 1"
     inkscape:groupmode="layer"
     id="layer1">
    <g
       id="g1879"
       transform="matrix(3.7795276,0,0,3.7795276,-83.962958,-60.352555)">
      <path
         style="stroke-width:0.10441"
         id="path1824"
         d="m 23.983256,17.250507 a 2.4954029,2.4954029 0 0 0 0.767415,0.153483 v 3.089497 a 0.10441016,0.10441016 0 0 0 -0.07518,0.05325 l -0.225526,0.41764 a 0.10441016,0.10441016 0 0 0 0,0.10441 0.10441016,0.10441016 0 0 0 0.09188,0.05116 h 0.626461 a 0.10441016,0.10441016 0 0 0 0.08979,-0.05116 0.10441016,0.10441016 0 0 0 0,-0.10441 l -0.225526,-0.41764 a 0.10441016,0.10441016 0 0 0 -0.07309,-0.05325 V 17.40399 a 2.4954029,2.4954029 0 0 0 0.767415,-0.153483 0.10441016,0.10441016 0 0 0 0.06787,-0.09815 V 16.21267 a 0.1044105,0.1044105 0 0 0 -0.208821,0 v 0.866604 c -0.06891,0.02297 -0.138865,0.04176 -0.20882,0.05847 V 16.21267 a 0.10441023,0.10441023 0 0 0 -0.20882,0 v 0.963706 c -0.06891,0.0094 -0.138866,0.01566 -0.208821,0.0188 v -0.9825 a 0.10441016,0.10441016 0 0 0 -0.20882,0 v 0.9825 c -0.06995,0 -0.139909,-0.0094 -0.20882,-0.0188 V 16.21267 a 0.1044105,0.1044105 0 0 0 -0.208821,0 v 0.925074 c -0.06995,-0.0167 -0.139909,-0.0355 -0.20882,-0.05847 V 16.21267 a 0.10441023,0.10441023 0 0 0 -0.20882,0 v 0.939691 a 0.10441016,0.10441016 0 0 0 0.06787,0.09815 z m 0.73296,3.66062 0.112763,-0.20882 h 0.05221 l 0.112763,0.20882 z"
         inkscape:connector-curvature="0" />
      <path
         style="stroke-width:0.10441"
         id="path1824-5"
         d="m 25.305601,17.090605 a 2.4954029,2.4954029 0 0 0 0.494731,0.606403 l -1.96437,2.384584 a 0.10441016,0.10441016 0 0 0 -0.09188,-0.0067 l -0.439614,0.178956 a 0.10441016,0.10441016 0 0 0 -0.06639,0.08059 0.10441016,0.10441016 0 0 0 0.03839,0.09791 l 0.483525,0.398318 a 0.10441016,0.10441016 0 0 0 0.101835,0.01761 0.10441016,0.10441016 0 0 0 0.06639,-0.08059 l 0.09148,-0.465745 a 0.10441016,0.10441016 0 0 0 -0.02256,-0.08757 l 1.964369,-2.384584 a 2.4954029,2.4954029 0 0 0 0.689906,0.369476 0.10441016,0.10441016 0 0 0 0.114785,-0.0326 l 0.597476,-0.725288 a 0.10441117,0.10441117 0 0 0 -0.161172,-0.132779 l -0.551006,0.668876 c -0.06779,-0.02608 -0.133736,-0.05606 -0.198351,-0.08764 l 0.588183,-0.714006 a 0.10441069,0.10441069 0 0 0 -0.161176,-0.132773 l -0.612745,0.743823 c -0.05916,-0.03656 -0.11714,-0.07621 -0.173126,-0.118265 l 0.624695,-0.758329 A 0.10441016,0.10441016 0 0 0 26.557801,16.77751 l -0.624695,0.758329 c -0.05399,-0.04448 -0.102014,-0.09621 -0.149224,-0.14728 l 0.612745,-0.743823 a 0.10441035,0.10441035 0 0 0 -0.161175,-0.132773 l -0.588182,0.714006 c -0.04337,-0.05737 -0.08542,-0.116358 -0.123999,-0.177902 l 0.551006,-0.668877 a 0.10441024,0.10441024 0 0 0 -0.161175,-0.132772 l -0.597476,0.725288 a 0.10441016,0.10441016 0 0 0 -0.01002,0.118903 z m -1.761778,3.291429 0.219807,-0.08948 0.04029,0.03319 -0.04574,0.232872 z"
         inkscape:connector-curvature="0" />
      <path
         style="stroke-width:0.10441"
         id="path1824-5-3"
         d="m 23.034201,18.079148 a 2.4954029,2.4954029 0 0 0 0.705351,-0.339061 l 1.858589,2.467922 a 0.10441016,0.10441016 0 0 0 -0.02801,0.08776 l 0.07109,0.469288 a 0.10441016,0.10441016 0 0 0 0.06281,0.0834 0.10441016,0.10441016 0 0 0 0.104173,-0.01441 l 0.500424,-0.376868 a 0.10441016,0.10441016 0 0 0 0.04095,-0.09489 0.10441016,0.10441016 0 0 0 -0.06281,-0.0834 L 25.85537,20.080948 a 0.10441016,0.10441016 0 0 0 -0.09042,0.0014 l -1.858589,-2.467922 a 2.4954029,2.4954029 0 0 0 0.520686,-0.584267 0.10441016,0.10441016 0 0 0 -0.0048,-0.119227 l -0.565303,-0.750635 a 0.1044115,0.1044115 0 0 0 -0.166814,0.125619 l 0.521335,0.692252 c -0.04123,0.05981 -0.0858,0.116901 -0.131633,0.172329 l -0.556508,-0.738959 a 0.1044107,0.1044107 0 0 0 -0.166809,0.125623 l 0.57975,0.769818 c -0.04939,0.04896 -0.101506,0.09605 -0.155501,0.140638 l -0.591056,-0.784831 a 0.10441016,0.10441016 0 0 0 -0.166807,0.125622 l 0.591055,0.784831 c -0.05588,0.04208 -0.117414,0.07666 -0.178115,0.110609 l -0.579749,-0.769819 a 0.1044107,0.1044107 0 0 0 -0.166809,0.125623 l 0.55651,0.738959 c -0.06593,0.02874 -0.133118,0.05581 -0.201982,0.07892 l -0.521334,-0.692239 a 0.1044103,0.1044103 0 0 0 -0.166808,0.125623 l 0.565303,0.750635 a 0.10441016,0.10441016 0 0 0 0.113254,0.03758 z m 2.787662,2.483205 -0.03555,-0.234644 0.0417,-0.0314 0.215699,0.09897 z"
         inkscape:connector-curvature="0" />
    </g>
  </g>
</svg>
