<?xml version="1.0" encoding="UTF-8" standalone="no"?>
<svg
   xmlns:dc="http://purl.org/dc/elements/1.1/"
   xmlns:cc="http://creativecommons.org/ns#"
   xmlns:rdf="http://www.w3.org/1999/02/22-rdf-syntax-ns#"
   xmlns:svg="http://www.w3.org/2000/svg"
   xmlns="http://www.w3.org/2000/svg"
   xmlns:sodipodi="http://sodipodi.sourceforge.net/DTD/sodipodi-0.dtd"
   xmlns:inkscape="http://www.inkscape.org/namespaces/inkscape"
   width="20"
   height="20"
   viewBox="0 0 20 20"
   version="1.1"
   id="svg838"
   inkscape:version="1.0.1 (3bc2e813f5, 2020-09-07)"
   sodipodi:docname="bg_mist.svg">
  <defs
     id="defs832" />
  <sodipodi:namedview
     id="base"
     pagecolor="#ffffff"
     bordercolor="#666666"
     borderopacity="1.0"
     inkscape:pageopacity="0.0"
     inkscape:pageshadow="2"
     inkscape:zoom="15.839192"
     inkscape:cx="12.686043"
     inkscape:cy="10.77133"
     inkscape:document-units="mm"
     inkscape:current-layer="layer1"
     inkscape:document-rotation="0"
     showgrid="false"
     units="px"
     inkscape:window-width="1267"
     inkscape:window-height="1040"
     inkscape:window-x="52"
     inkscape:window-y="0"
     inkscape:window-maximized="0"
     inkscape:pagecheckerboard="true" />
  <metadata
     id="metadata835">
    <rdf:RDF>
      <cc:Work
         rdf:about="">
        <dc:format>image/svg+xml</dc:format>
        <dc:type
           rdf:resource="http://purl.org/dc/dcmitype/StillImage" />
        <dc:title></dc:title>
      </cc:Work>
    </rdf:RDF>
  </metadata>
  <g
     inkscape:label="Layer 1"
     inkscape:groupmode="layer"
     id="layer1">
    <g
       id="g2178"
       transform="matrix(0.16173702,0,0,0.16173702,-0.35116928,-0.35116928)">
      <path
         inkscape:connector-curvature="0"
         d="m 52.289,66.428 -4.012,-5.159 0.585,7.026 c 0.908,-0.594 2.049,-1.248 3.427,-1.867 z"
         id="path2132" />
      <path
         inkscape:connector-curvature="0"
         d="m 79.724,61.269 -4.013,5.16 c 1.378,0.619 2.519,1.272 3.428,1.867 z"
         id="path2134" />
      <path
         inkscape:connector-curvature="0"
         d="M 38.087,51.665 C 37.479,54.051 37,55.936 37,59 37,75.622 55.19,81 64,81 72.81,81 91,75.622 91,59 91,55.936 90.521,54.051 89.913,51.665 89.08,48.39 88.047,44.331 88.002,35.602 l -13.87,-7.397 -4.204,3.602 C 68.278,33.222 66.173,34 64,34 61.827,34 59.722,33.222 58.072,31.807 l -4.204,-3.602 -13.87,7.397 C 39.953,44.331 38.92,48.39 38.087,51.665 Z M 77,41 h 4 c 0.553,0 1,0.447 1,1 0,4.963 -4.037,9 -9,9 h -4 c -0.553,0 -1,-0.447 -1,-1 0,-4.963 4.037,-9 9,-9 z m -30,0 h 4 c 4.963,0 9,4.037 9,9 0,0.553 -0.447,1 -1,1 h -4 c -4.963,0 -9,-4.037 -9,-9 0,-0.553 0.447,-1 1,-1 z m -0.71,29.296 c 0.045,-0.045 0.28,-0.274 0.681,-0.611 L 46.004,58.083 c -0.037,-0.441 0.221,-0.854 0.633,-1.015 0.409,-0.161 0.881,-0.032 1.152,0.317 l 6.434,8.273 C 56.857,64.715 60.114,64 64,64 c 3.886,0 7.142,0.715 9.776,1.658 l 6.435,-8.273 c 0.271,-0.35 0.742,-0.478 1.152,-0.317 0.412,0.161 0.67,0.573 0.633,1.015 l -0.967,11.602 c 0.401,0.336 0.636,0.566 0.681,0.611 0.389,0.393 0.387,1.025 -0.006,1.414 C 81.509,71.903 81.255,72 81,72 80.743,72 80.485,71.901 80.29,71.704 80.234,71.648 74.463,66 64,66 53.488,66 47.767,71.647 47.71,71.704 47.321,72.098 46.689,72.099 46.296,71.71 45.903,71.321 45.901,70.688 46.29,70.296 Z"
         id="path2136" />
      <path
         inkscape:connector-curvature="0"
         d="m 82.092,77.772 1.701,7.231 c 3.19,0.026 6.155,0.215 8.903,0.557 0.47,-5.788 0.575,-11.648 0.311,-17.451 -0.712,0.164 -1.433,0.312 -2.168,0.431 -1.985,3.985 -5.151,7.011 -8.747,9.232 z"
         id="path2138" />
      <path
         inkscape:connector-curvature="0"
         d="m 37.16,68.537 c -0.734,-0.119 -1.454,-0.265 -2.165,-0.429 -0.265,5.816 -0.161,11.688 0.311,17.487 2.749,-0.364 5.716,-0.563 8.901,-0.59 l 1.701,-7.232 C 42.312,75.55 39.144,72.523 37.16,68.537 Z"
         id="path2140" />
      <path
         inkscape:connector-curvature="0"
         d="m 93,19 c 0,-1.444 -0.227,-2.859 -0.59,-4.222 L 82.406,14.152 c -0.555,2.081 -1.443,4.107 -2.428,5.933 l 12.306,4.786 C 92.714,23.065 93,21.087 93,19 Z"
         id="path2142" />
      <path
         inkscape:connector-curvature="0"
         d="m 55,49 h 2.929 C 57.443,45.612 54.521,43 51,43 h -2.929 c 0.487,3.388 3.408,6 6.929,6 z"
         id="path2144" />
      <path
         inkscape:connector-curvature="0"
         d="m 90.42,43.631 c 2.97,-3.415 5.034,-4.476 5.132,-4.525 0.494,-0.247 1.096,-0.047 1.342,0.445 0.247,0.492 0.05,1.091 -0.44,1.34 -0.046,0.023 -2.392,1.276 -5.663,5.43 0.328,1.962 0.712,3.48 1.061,4.851 0.022,0.085 0.042,0.168 0.064,0.252 L 93.92,50.422 C 97.67,48.547 100,44.777 100,40.584 v -8.086 c -5.512,2.523 -8.76,6.893 -9.814,8.496 0.064,0.955 0.144,1.827 0.234,2.637 z"
         id="path2146" />
      <path
         inkscape:connector-curvature="0"
         d="m 86.115,3.604 c 0,0 0,-10e-4 0,0 C 85.78,3.22 85.294,3 84.779,3 83.798,3 83,3.798 83,4.779 V 10 c 0,0.721 -0.071,1.448 -0.181,2.174 l 8.934,0.559 C 90.182,8.602 87.519,5.21 86.115,3.604 Z"
         id="path2148" />
      <path
         inkscape:connector-curvature="0"
         d="m 39.339,33.685 6.551,-3.494 6.551,-3.494 C 51.628,25.69 50.322,23.965 49.029,21.839 L 36.246,26.81 c 1.011,3.244 2.379,5.715 3.093,6.875 z"
         id="path2150" />
      <path
         inkscape:connector-curvature="0"
         d="M 79.929,43 H 77 c -3.521,0 -6.442,2.612 -6.929,6 H 73 c 3.521,0 6.442,-2.612 6.929,-6 z"
         id="path2152" />
      <path
         inkscape:connector-curvature="0"
         d="m 88.66,33.685 c 0.712,-1.163 2.079,-3.637 3.09,-6.877 l -12.779,-4.97 c -1.293,2.127 -2.6,3.852 -3.413,4.859 l 2.184,1.165 z"
         id="path2154" />
      <path
         inkscape:connector-curvature="0"
         d="M 14.487,51.887 C 12.757,58.029 11,66.386 11,75 c 0,6.141 0.757,13.814 2.237,22.816 0.83,-1.536 1.877,-2.959 3.15,-4.235 1.491,-1.496 3.264,-2.791 5.295,-3.898 C 20.366,77.779 20.838,67.599 21.479,61.1 18.698,58.573 16.339,55.488 14.487,51.887 Z"
         id="path2156" />
      <path
         inkscape:connector-curvature="0"
         d="m 90,123 c -6.065,0 -21.678,-0.375 -22.672,-0.399 -0.375,0.021 -1.815,0.035 -2.974,-1.018 -0.141,-0.127 -0.271,-0.265 -0.39,-0.411 -1.103,1.348 -2.839,1.805 -3.944,1.828 H 38 c -3.255,0 -5.532,-1.5 -7,-3.211 V 125 h 66 v -5.211 C 95.532,121.5 93.255,123 90,123 Z"
         id="path2158" />
      <path
         inkscape:connector-curvature="0"
         d="m 104.43,88.508 c 1.087,-10.519 0.773,-19.603 0.226,-25.854 -2.861,2.2 -6.104,3.86 -9.666,4.927 0.295,6.068 0.188,12.203 -0.309,18.26 3.688,0.585 6.944,1.472 9.749,2.667 z"
         id="path2160" />
      <path
         inkscape:connector-curvature="0"
         d="m 111.109,119.546 c 2.379,-4.668 3.762,-9.137 3.892,-12.584 0.18,-4.772 -1.271,-8.793 -4.312,-11.95 C 105.569,89.695 96.253,87 83,87 82.536,87 82.133,86.681 82.026,86.229 L 80.279,78.801 C 74.617,81.794 68.279,83 64,83 59.721,83 53.383,81.794 47.721,78.802 L 45.974,86.23 C 45.867,86.681 45.464,87 45,87 c -12.579,0 -21.984,2.764 -27.197,7.992 -3.201,3.21 -4.816,7.249 -4.803,12.005 0.013,4.358 1.974,8.789 3.891,12.549 0.098,0.19 0.131,0.407 0.096,0.618 L 16.181,125 H 17.862 29 v -10 c 0,-0.553 0.447,-1 1,-1 0.553,0 1,0.447 1,1 v 0.846 c 0.262,0.788 1.944,5.154 7,5.154 h 22 c 0.283,-0.01 3,-0.178 3,-3 0,-0.553 0.447,-1 1,-1 0.553,0 1,0.447 1,1 0,0.966 0.231,1.669 0.688,2.092 0.618,0.574 1.52,0.511 1.53,0.512 0.033,-0.002 0.077,-0.001 0.11,-0.004 0.164,0.004 16.461,0.4 22.672,0.4 5.04,0 6.747,-4.411 7,-5.157 V 115 c 0,-0.553 0.447,-1 1,-1 0.553,0 1,0.447 1,1 v 10 h 11.332 1.487 l -0.806,-4.836 c -0.034,-0.211 -0.001,-0.428 0.096,-0.618 z M 92,97 H 68 c -2.364,0 -3.031,2.251 -3.038,2.273 C 64.84,99.703 64.447,100 64,100 63.553,100 63.16,99.703 63.038,99.273 63.012,99.187 62.331,97 60,97 H 36 c -0.553,0 -1,-0.447 -1,-1 0,-0.553 0.447,-1 1,-1 h 24 c 1.894,0 3.193,0.917 4,1.924 C 64.807,95.917 66.106,95 68,95 h 24 c 0.553,0 1,0.447 1,1 0,0.553 -0.447,1 -1,1 z"
         id="path2162" />
      <path
         inkscape:connector-curvature="0"
         d="m 112.13,93.624 c 1.094,1.137 1.986,2.38 2.714,3.706 C 116.273,88.536 117,81.031 117,75 c 0,-8.614 -1.757,-16.972 -3.487,-23.113 -1.852,3.6 -4.211,6.684 -6.992,9.21 0.64,6.478 1.105,16.542 -0.173,28.32 2.27,1.173 4.206,2.571 5.782,4.207 z"
         id="path2164" />
      <path
         inkscape:connector-curvature="0"
         d="M 117.466,38.64 C 116.824,37.036 115.287,36 113.549,36 c -2.004,0 -3.743,1.416 -4.136,3.367 -1.24,6.162 -5.03,16.959 -16.442,20.488 -0.083,2.367 -0.498,4.521 -1.189,6.47 9.54,-1.948 16.978,-8.161 21.025,-17.639 0.165,-0.386 0.555,-0.63 0.972,-0.606 0.419,0.022 0.78,0.304 0.903,0.704 1.97,6.382 4.318,16.111 4.318,26.216 0,6.858 -0.915,15.551 -2.717,25.834 0.547,1.923 0.8,3.988 0.716,6.203 -0.184,4.866 -2.492,10.197 -3.959,13.122 l 0.807,4.841 h 3.38 C 118.445,120.252 125,93.805 125,75 125,59.163 119.731,44.296 117.466,38.64 Z"
         id="path2166" />
      <path
         inkscape:connector-curvature="0"
         d="m 34.081,50.422 2.004,1.002 c 0.021,-0.084 0.042,-0.167 0.064,-0.252 0.349,-1.371 0.733,-2.889 1.061,-4.85 -3.285,-4.174 -5.639,-5.418 -5.663,-5.43 -0.489,-0.252 -0.686,-0.854 -0.436,-1.344 0.249,-0.49 0.847,-0.688 1.337,-0.441 0.097,0.048 2.162,1.112 5.132,4.525 0.09,-0.812 0.17,-1.686 0.234,-2.643 -0.002,-0.003 -0.005,-0.004 -0.007,-0.007 -0.93,-1.406 -4.237,-5.923 -9.808,-8.482 v 8.085 c 0.001,4.192 2.331,7.962 6.082,9.837 z"
         id="path2168" />
      <path
         inkscape:connector-curvature="0"
         d="M 45,10 V 4.779 C 45,3.798 44.202,3 43.221,3 42.706,3 42.22,3.22 41.886,3.603 c -0.001,0 -0.001,10e-4 -0.001,10e-4 -1.404,1.607 -4.067,4.998 -5.638,9.129 l 8.934,-0.559 C 45.071,11.448 45,10.721 45,10 Z"
         id="path2170" />
      <path
         inkscape:connector-curvature="0"
         d="M 48.022,20.086 C 47.037,18.26 46.149,16.234 45.594,14.152 L 35.59,14.778 C 35.227,16.141 35,17.556 35,19 c 0,2.089 0.286,4.068 0.714,5.872 z"
         id="path2172" />
      <path
         inkscape:connector-curvature="0"
         d="m 11.81,101.261 c -0.009,-0.032 -0.028,-0.059 -0.034,-0.093 C 9.934,90.737 9,81.933 9,75 9,64.895 11.348,55.166 13.318,48.784 c 0.123,-0.4 0.484,-0.682 0.903,-0.704 0.408,-0.021 0.807,0.22 0.972,0.606 4.05,9.482 11.483,15.693 21.026,17.64 -0.692,-1.952 -1.108,-4.109 -1.19,-6.48 C 23.629,56.318 19.83,45.546 18.587,39.367 18.194,37.416 16.455,36 14.451,36 12.713,36 11.176,37.036 10.534,38.64 8.269,44.296 3,59.163 3,75 c 0,18.805 6.556,45.252 7.773,50 h 3.38 l 0.807,-4.84 c -1.976,-3.907 -3.946,-8.495 -3.96,-13.157 -0.006,-2.012 0.272,-3.933 0.81,-5.742 z"
         id="path2174" />
      <path
         inkscape:connector-curvature="0"
         d="m 23.343,62.655 c -0.548,6.276 -0.866,15.456 0.25,26.081 2.811,-1.268 6.053,-2.22 9.729,-2.842 -0.501,-6.071 -0.607,-12.225 -0.311,-18.313 -3.563,-1.067 -6.807,-2.726 -9.668,-4.926 z"
         id="path2176" />
    </g>
  </g>
</svg>
