<?xml version="1.0" encoding="UTF-8" standalone="no"?>
<svg
   xmlns:dc="http://purl.org/dc/elements/1.1/"
   xmlns:cc="http://creativecommons.org/ns#"
   xmlns:rdf="http://www.w3.org/1999/02/22-rdf-syntax-ns#"
   xmlns:svg="http://www.w3.org/2000/svg"
   xmlns="http://www.w3.org/2000/svg"
   xmlns:sodipodi="http://sodipodi.sourceforge.net/DTD/sodipodi-0.dtd"
   xmlns:inkscape="http://www.inkscape.org/namespaces/inkscape"
   width="20"
   height="20"
   viewBox="0 0 20 20"
   version="1.1"
   id="svg838"
   inkscape:version="1.0.1 (3bc2e813f5, 2020-09-07)"
   sodipodi:docname="bg_maid.svg">
  <defs
     id="defs832" />
  <sodipodi:namedview
     id="base"
     pagecolor="#ffffff"
     bordercolor="#666666"
     borderopacity="1.0"
     inkscape:pageopacity="0.0"
     inkscape:pageshadow="2"
     inkscape:zoom="15.839192"
     inkscape:cx="12.686043"
     inkscape:cy="10.77133"
     inkscape:document-units="mm"
     inkscape:current-layer="layer1"
     inkscape:document-rotation="0"
     showgrid="false"
     units="px"
     inkscape:window-width="1267"
     inkscape:window-height="1040"
     inkscape:window-x="52"
     inkscape:window-y="0"
     inkscape:window-maximized="0"
     inkscape:pagecheckerboard="true" />
  <metadata
     id="metadata835">
    <rdf:RDF>
      <cc:Work
         rdf:about="">
        <dc:format>image/svg+xml</dc:format>
        <dc:type
           rdf:resource="http://purl.org/dc/dcmitype/StillImage" />
        <dc:title></dc:title>
      </cc:Work>
    </rdf:RDF>
  </metadata>
  <g
     inkscape:label="Layer 1"
     inkscape:groupmode="layer"
     id="layer1">
    <g
       style="clip-rule:evenodd;fill-rule:evenodd;image-rendering:optimizeQuality;shape-rendering:geometricPrecision;text-rendering:geometricPrecision"
       id="g4834"
       transform="matrix(0,-11.299465,11.299465,0,0.35779279,19.642162)">
      <path
         style="fill:#000000"
         inkscape:connector-curvature="0"
         class="fil0"
         d="m 0.274193,0.399988 c 0.0348543,0 0.0632165,-0.0283425 0.0632165,-0.0632283 0,-0.0348858 -0.0283425,-0.0632283 -0.0632165,-0.0632283 -0.0348622,0 -0.063248,0.0283425 -0.063248,0.0632283 0,0.0348858 0.028378,0.0632283 0.063248,0.0632283 z"
         id="path4820" />
      <path
         style="fill:#000000"
         inkscape:connector-curvature="0"
         class="fil0"
         d="M 0.298472,1.30977 C 0.2797948,1.2910495 0.2490704,1.2905062 0.2302515,1.3093251 l -0.0990118,0.099032 0.0686181,0.068653 0.0990079,-0.099031 C 0.3176531,1.3591794 0.3172082,1.3284353 0.298472,1.30977 Z"
         id="path4822" />
      <path
         style="fill:#000000"
         inkscape:connector-curvature="0"
         class="fil0"
         d="M 0.616831,0.846909 C 0.5918743,0.8220114 0.5587798,0.8081846 0.5236656,0.8080389 0.4884294,0.80788929 0.4556853,0.8214011 0.4309766,0.8461058 l -0.430992,0.430992 0.101433,0.101433 0.0990118,-0.099012 c 0.0353661,-0.035366 0.0926063,-0.034866 0.127839,4.094e-4 0.0353228,0.034768 0.0355039,0.092728 3.937e-4,0.127819 l -0.0990079,0.099008 0.19985,0.199909 0.431024,-0.431028 C 0.8852723,1.2508961 0.8987329,1.2179394 0.8985833,1.1829591 0.8984337,1.1477937 0.8846227,1.114715 0.8596542,1.0897465 L 0.6168312,0.84690755 Z"
         id="path4824" />
      <path
         style="fill:#000000"
         inkscape:connector-curvature="0"
         class="fil0"
         d="m 1.3699,0.905709 c -0.03485,0 -0.063213,0.0283425 -0.063213,0.0631969 0,0.0348622 0.028343,0.0632283 0.063213,0.0632283 0.034874,0 0.063228,-0.028342 0.063228,-0.0632283 C 1.4331165,0.9340752 1.4047503,0.905709 1.3699,0.905709 Z"
         id="path4826" />
      <path
         style="fill:#000000"
         inkscape:connector-curvature="0"
         class="fil0"
         d="M 1.68818,0.0305197 1.6761446,0.0184803 c -0.024653,-0.0246378 -0.06476,-0.0246378 -0.089417,0 l -0.771728,0.771744 0.101429,0.101433 0.771732,-0.771744 C 1.7128335,0.0952834 1.7128493,0.0551574 1.68818,0.0305197 Z"
         id="path4828" />
      <path
         style="fill:#000000"
         inkscape:connector-curvature="0"
         class="fil0"
         d="m 1.24346,1.36928 c -0.058087,0 -0.10537,0.04724 -0.10537,0.10537 0,0.058051 0.047276,0.105327 0.10537,0.105327 0.058094,0 0.10535,-0.047276 0.10535,-0.105327 C 1.3488297,1.41652 1.30157,1.36928 1.24346,1.36928 Z"
         id="path4830" />
      <rect
         style="fill:#000000"
         y="0"
         x="0"
         class="fil0"
         transform="matrix(-1.26513,-1.26495,1.26495,-1.26513,0.885659,1.05079)"
         width="0.183933"
         height="0.053614199"
         id="rect4832" />
    </g>
  </g>
</svg>
