<?xml version="1.0" encoding="UTF-8" standalone="no"?>
<svg
   xmlns:dc="http://purl.org/dc/elements/1.1/"
   xmlns:cc="http://creativecommons.org/ns#"
   xmlns:rdf="http://www.w3.org/1999/02/22-rdf-syntax-ns#"
   xmlns:svg="http://www.w3.org/2000/svg"
   xmlns="http://www.w3.org/2000/svg"
   xmlns:sodipodi="http://sodipodi.sourceforge.net/DTD/sodipodi-0.dtd"
   xmlns:inkscape="http://www.inkscape.org/namespaces/inkscape"
   width="20"
   height="20"
   viewBox="0 0 20 20"
   version="1.1"
   id="svg838"
   inkscape:version="1.0.1 (3bc2e813f5, 2020-09-07)"
   sodipodi:docname="bg_merchant.svg">
  <defs
     id="defs832" />
  <sodipodi:namedview
     id="base"
     pagecolor="#ffffff"
     bordercolor="#666666"
     borderopacity="1.0"
     inkscape:pageopacity="0.0"
     inkscape:pageshadow="2"
     inkscape:zoom="7.919596"
     inkscape:cx="-0.60315649"
     inkscape:cy="0.10112835"
     inkscape:document-units="mm"
     inkscape:current-layer="layer1"
     inkscape:document-rotation="0"
     showgrid="false"
     units="px"
     inkscape:window-width="1267"
     inkscape:window-height="1040"
     inkscape:window-x="52"
     inkscape:window-y="0"
     inkscape:window-maximized="0"
     inkscape:pagecheckerboard="true" />
  <metadata
     id="metadata835">
    <rdf:RDF>
      <cc:Work
         rdf:about="">
        <dc:format>image/svg+xml</dc:format>
        <dc:type
           rdf:resource="http://purl.org/dc/dcmitype/StillImage" />
        <dc:title />
      </cc:Work>
    </rdf:RDF>
  </metadata>
  <g
     inkscape:label="Layer 1"
     inkscape:groupmode="layer"
     id="layer1">
    <g
       id="g863"
       transform="matrix(0.02970163,0,0,0.02970163,2.3964044,2.3964489)">
      <path
         d="m 366.66,69.54 c -16.44,-0.65 -32.72,8.35 -32.72,8.35 A 62.16,62.16 0 0 0 330.7,58.45 c -10.28,-29.1 -52.14,-29.1 -62.41,0 A 61.85,61.85 0 0 0 265,77.89 c 0,0 -16.28,-9 -32.71,-8.35 A 26.63,26.63 0 0 0 208.74,107 c 3,6.72 9,13.33 20.47,17.68 a 76.09,76.09 0 0 1 22.54,13 48.47,48.47 0 0 1 11.65,13.82 12.61,12.61 0 0 0 11.18,6.74 h 49.83 a 12.59,12.59 0 0 0 11.17,-6.72 48.44,48.44 0 0 1 11.72,-13.94 77.33,77.33 0 0 1 22.59,-13 c 11.34,-4.33 17.32,-10.88 20.31,-17.55 A 26.63,26.63 0 0 0 366.66,69.54 Z"
         id="path4" />
      <path
         d="m 352.19,193.49 a 23.05,23.05 0 0 1 -11.39,-7.38 22.69,22.69 0 0 0 -17.45,-8 h -47.72 a 22.69,22.69 0 0 0 -17.45,8 23.05,23.05 0 0 1 -11.39,7.38 c -52.16,14.92 -83.7,43.49 -102.68,74.3 a 10.9,10.9 0 0 0 9.28,16.62 h 42.34 a 31.16,31.16 0 0 1 31.16,31.16 v 148.56 a 7.07,7.07 0 0 0 6,7.1 375.6,375.6 0 0 0 66.65,3.95 c 0,0 169.56,8.37 182.56,-85.78 0,0 18.73,-153.4 -129.91,-195.91 z"
         id="path6" />
      <rect
         x="29.139999"
         y="369.97"
         width="177.89999"
         height="39.700001"
         rx="11.29"
         id="rect8" />
      <path
         d="m 29.14,440.81 v 23.25 a 11.31,11.31 0 0 0 11.31,11.31 H 195.73 A 11.31,11.31 0 0 0 207,464.06 V 440.81 A 11.28,11.28 0 0 0 195.71,429.52 H 40.43 a 11.28,11.28 0 0 0 -11.29,11.29 z"
         id="path10" />
      <path
         d="M 207,338.83 V 315.57 A 11.31,11.31 0 0 0 195.69,304.26 H 40.45 a 11.31,11.31 0 0 0 -11.31,11.31 v 23.26 a 11.29,11.29 0 0 0 11.29,11.29 H 195.75 A 11.29,11.29 0 0 0 207,338.83 Z"
         id="path12" />
    </g>
  </g>
</svg>
