<?xml version="1.0" encoding="UTF-8" standalone="no"?>
<svg
   xmlns:dc="http://purl.org/dc/elements/1.1/"
   xmlns:cc="http://creativecommons.org/ns#"
   xmlns:rdf="http://www.w3.org/1999/02/22-rdf-syntax-ns#"
   xmlns:svg="http://www.w3.org/2000/svg"
   xmlns="http://www.w3.org/2000/svg"
   xmlns:sodipodi="http://sodipodi.sourceforge.net/DTD/sodipodi-0.dtd"
   xmlns:inkscape="http://www.inkscape.org/namespaces/inkscape"
   width="20"
   height="20"
   viewBox="0 0 20 20"
   version="1.1"
   id="svg838"
   inkscape:version="1.0.1 (3bc2e813f5, 2020-09-07)"
   sodipodi:docname="bg_mystic.svg">
  <defs
     id="defs832" />
  <sodipodi:namedview
     id="base"
     pagecolor="#ffffff"
     bordercolor="#666666"
     borderopacity="1.0"
     inkscape:pageopacity="0.0"
     inkscape:pageshadow="2"
     inkscape:zoom="15.839192"
     inkscape:cx="12.686043"
     inkscape:cy="10.77133"
     inkscape:document-units="mm"
     inkscape:current-layer="layer1"
     inkscape:document-rotation="0"
     showgrid="false"
     units="px"
     inkscape:window-width="1267"
     inkscape:window-height="1040"
     inkscape:window-x="52"
     inkscape:window-y="0"
     inkscape:window-maximized="0"
     inkscape:pagecheckerboard="true" />
  <metadata
     id="metadata835">
    <rdf:RDF>
      <cc:Work
         rdf:about="">
        <dc:format>image/svg+xml</dc:format>
        <dc:type
           rdf:resource="http://purl.org/dc/dcmitype/StillImage" />
        <dc:title></dc:title>
      </cc:Work>
    </rdf:RDF>
  </metadata>
  <g
     inkscape:label="Layer 1"
     inkscape:groupmode="layer"
     id="layer1">
    <g
       id="g2790"
       transform="matrix(0.52213689,0,0,0.52213689,1.6458098,1.6458098)">
      <polygon
         points="14.692261,10.117126 11.875488,8.4243164 11.874878,8.423645 10.269043,7.4584961 11.95636,12.317993 "
         id="polygon2758" />
      <polygon
         points="20.762268,14.821472 19.923401,17.237305 22.884033,17.244141 23.773926,17.244141 21.330261,15.278259 "
         id="polygon2760" />
      <path
         inkscape:connector-curvature="0"
         d="M 10.404663,12.42218 9.9208985,11.029785 C 9.2670898,12.121582 8.9165039,13.375 8.9165039,14.666504 c 0,0.03223 0,0.06396 4.883e-4,0.09619 l 1.4583128,-1.17279 0.339844,-0.273438 z"
         id="path2762" />
      <polygon
         points="20.124512,8.4243164 17.307739,10.117126 20.04364,12.317993 21.730957,7.4584961 20.125122,8.423645 "
         id="polygon2764" />
      <path
         inkscape:connector-curvature="0"
         d="m 18.088806,7.8974609 c -1.34668,-0.4140625 -2.830932,-0.4140625 -4.177612,0 L 16,9.152832 Z"
         id="path2766" />
      <polygon
         points="19.521057,13.822815 16,10.990234 12.478943,13.822815 13.66687,17.244141 18.33313,17.244141 "
         id="polygon2768" />
      <path
         inkscape:connector-curvature="0"
         d="m 12.075745,17.234863 -0.838013,-2.413391 -0.567993,0.456787 -2.4436649,1.965882 h 0.6396484 c 0.012756,-6.72e-4 0.023315,-0.0093 0.036133,-0.0093 z"
         id="path2770" />
      <path
         inkscape:connector-curvature="0"
         d="m 22.443909,14.248901 0.639099,0.513794 c 4.88e-4,-0.03223 4.88e-4,-0.06397 4.88e-4,-0.09619 0,-1.291504 -0.350586,-2.54541 -1.003906,-3.636231 l -0.787598,2.265503 -0.0071,0.02069 z"
         id="path2772" />
      <path
         inkscape:connector-curvature="0"
         d="m 10.207336,18.744141 c 0.814942,1.157226 1.95752,2.045349 3.276062,2.545898 l -0.883972,-2.545898 z"
         id="path2774" />
      <path
         inkscape:connector-curvature="0"
         d="M 26.802246,30.5 C 28.841309,30.5 30.5,28.841309 30.5,26.802246 V 25.716797 C 28.020019,26.051269 26.051269,28.020019 25.716797,30.5 Z"
         id="path2776" />
      <path
         inkscape:connector-curvature="0"
         d="M 5.1977539,30.5 H 6.2832031 C 5.9487305,28.020019 3.9799805,26.051269 1.5,25.716797 v 1.085449 C 1.5,28.841309 3.1586914,30.5 5.1977539,30.5 Z"
         id="path2778" />
      <path
         inkscape:connector-curvature="0"
         d="M 5.1977539,1.5 C 3.1586914,1.5 1.5,3.1586914 1.5,5.1977539 V 6.2832031 C 3.9799805,5.9487305 5.9487305,3.9799805 6.2832031,1.5 Z"
         id="path2780" />
      <path
         inkscape:connector-curvature="0"
         d="M 26.802246,1.5 H 25.716797 C 26.051269,3.9799805 28.020019,5.9487305 30.5,6.2832031 V 5.1977539 C 30.5,3.1586914 28.841309,1.5 26.802246,1.5 Z"
         id="path2782" />
      <path
         inkscape:connector-curvature="0"
         d="M 24.207214,1.5 H 7.7927856 C 7.4428711,4.8076782 4.8076782,7.4428711 1.5,7.7927856 V 24.207214 C 4.8076782,24.557129 7.4428711,27.192322 7.7927856,30.5 H 24.207214 C 24.557129,27.192322 27.192322,24.557129 30.5,24.207214 V 7.7927856 C 27.192322,7.4428711 24.557129,4.8076782 24.207214,1.5 Z M 13.459473,2.9375 h 5.081054 v 1.5 H 13.459473 Z M 4.4375,18.540527 h -1.5 v -5.081054 h 1.5 z M 18.540527,29.0625 h -5.081054 v -1.5 h 5.081054 z m 8.069825,-10.819336 c -0.105957,0.300293 -0.389161,0.500977 -0.70752,0.500977 h -2.366089 c -1.175476,2.169922 -3.221496,3.726501 -5.620972,4.275085 l -1.207275,3.476868 C 16.603516,26.797852 16.319336,27 16,27 15.680664,27 15.396484,26.797852 15.291504,26.496094 l -1.207336,-3.47699 C 11.683777,22.469971 9.6383667,20.913635 8.4628296,18.744141 H 6.097168 c -0.3183594,0 -0.6015625,-0.200684 -0.7075195,-0.500977 -0.1054688,-0.299805 -0.010254,-0.633789 0.2373047,-0.833496 l 1.8870239,-1.518006 c -0.058044,-0.405639 -0.097473,-0.814758 -0.097473,-1.225158 0,-1.96399 0.6768188,-3.851929 1.9015503,-5.3736574 L 8.1733398,5.9960938 C 8.0698242,5.697754 8.1640625,5.3666993 8.4091796,5.1679688 8.6538086,4.96875 8.9980469,4.9443359 9.2680664,5.1069336 l 3.0417476,1.828064 c 2.29773,-1.088623 5.082642,-1.088623 7.380371,0 l 3.041748,-1.828064 c 0.268555,-0.1625977 0.61377,-0.1381836 0.858887,0.061035 0.245117,0.1987305 0.339356,0.5297852 0.23584,0.828125 l -1.144653,3.2966309 c 1.224609,1.5210575 1.901489,3.4091795 1.901489,5.3737795 0,0.4104 -0.03943,0.819519 -0.09747,1.225159 l 1.887024,1.518005 c 0.247558,0.199707 0.342773,0.533691 0.237305,0.833496 z m 0.952148,0.297363 v -5.081054 h 1.5 v 5.081054 z"
         id="path2784" />
      <polygon
         points="16,23.963379 17.812256,18.744141 14.187744,18.744141 "
         id="polygon2786" />
      <path
         inkscape:connector-curvature="0"
         d="m 18.516602,21.290039 c 1.318359,-0.50061 2.461486,-1.388428 3.276794,-2.545898 h -2.392761 z"
         id="path2788" />
    </g>
  </g>
</svg>
