<?xml version="1.0" encoding="UTF-8" standalone="no"?>
<svg
   xmlns:dc="http://purl.org/dc/elements/1.1/"
   xmlns:cc="http://creativecommons.org/ns#"
   xmlns:rdf="http://www.w3.org/1999/02/22-rdf-syntax-ns#"
   xmlns:svg="http://www.w3.org/2000/svg"
   xmlns="http://www.w3.org/2000/svg"
   xmlns:sodipodi="http://sodipodi.sourceforge.net/DTD/sodipodi-0.dtd"
   xmlns:inkscape="http://www.inkscape.org/namespaces/inkscape"
   width="20"
   height="20"
   viewBox="0 0 20 20"
   version="1.1"
   id="svg838"
   inkscape:version="1.0.1 (3bc2e813f5, 2020-09-07)"
   sodipodi:docname="bg_nomad.svg">
  <defs
     id="defs832" />
  <sodipodi:namedview
     id="base"
     pagecolor="#ffffff"
     bordercolor="#666666"
     borderopacity="1.0"
     inkscape:pageopacity="0.0"
     inkscape:pageshadow="2"
     inkscape:zoom="11.2"
     inkscape:cx="10.003079"
     inkscape:cy="-1.7185003"
     inkscape:document-units="mm"
     inkscape:current-layer="g1995"
     inkscape:document-rotation="0"
     showgrid="false"
     units="px"
     inkscape:window-width="1267"
     inkscape:window-height="1040"
     inkscape:window-x="890"
     inkscape:window-y="77"
     inkscape:window-maximized="0"
     inkscape:pagecheckerboard="true" />
  <metadata
     id="metadata835">
    <rdf:RDF>
      <cc:Work
         rdf:about="">
        <dc:format>image/svg+xml</dc:format>
        <dc:type
           rdf:resource="http://purl.org/dc/dcmitype/StillImage" />
        <dc:title />
      </cc:Work>
    </rdf:RDF>
  </metadata>
  <g
     inkscape:label="Layer 1"
     inkscape:groupmode="layer"
     id="layer1">
    <g
       id="g1995"
       transform="matrix(0.35505797,0,0,0.35505797,-1.0460993,-1.4888142)">
      <path
         inkscape:connector-curvature="0"
         d="M 47.1,38.502936 H 32.9 l 2.047,-4 h 10.11 z m -6.1,-16 v 2.145 a 3.521,3.521 0 0 0 -2,0 v -2.145 z m -2.528,5.106 c 0.009,-0.019 0.018,-0.038 0.026,-0.057 a 1.633,1.633 0 0 1 1.502,-1.049 1.665,1.665 0 0 1 1.528,1.106 l 2.505,4.894 h -8.066 z m -4.038,32.894 5.566,-15.107 5.566,15.107 z m 13.266,0 -6.762,-18.346 a 1,1 0 0 0 -1.877,0 l -6.761,18.346 H 21.635 l 10.237,-20 h 16.256 l 10.237,20 z"
         id="path1983-5" />
      <path
         inkscape:connector-curvature="0"
         d="m 18.825893,40.18798 c -0.41,-0.31 -0.97,-0.73 -0.97,-0.96 a 2.659,2.659 0 0 0 -0.18,-1.06 1.273,1.273 0 0 0 -1.180001,-0.79 c -1.690003,0 -3.640006,4.15 -3.640006,5.85 a 3.68,3.68 0 0 0 4.000007,4 3.68,3.68 0 0 0 4,-4 c 0,-1.52 -1.17,-2.4 -2.03,-3.04 z"
         id="path1985-6" />
      <path
         inkscape:connector-curvature="0"
         d="m 26.512218,17.254299 a 1,1 0 0 0 0.956,0.7 h 1 a 3,3 0 0 1 0,6 h -14 a 3,3 0 0 1 0,-6 h 1 a 1,1 0 0 0 0.956,-0.7 5.142,5.142 0 0 1 5.044,-3.3 5.142,5.142 0 0 1 5.044,3.3 z"
         id="path1991" />
      <path
         inkscape:connector-curvature="0"
         d="m 18.455893,51.22798 4.023,-3.219 a 1,1 0 1 0 -1.249,-1.562 l -4.374,3.5 -4.376007,-3.5 a 1,1 0 0 0 -1.249,1.562 l 4.025004,3.219 -4.025004,3.219 a 1,1 0 0 0 0.625,1.781 0.99,0.99 0 0 0 0.624,-0.219 l 4.376007,-3.5 4.375,3.5 a 1,1 0 1 0 1.249,-1.562 z"
         id="path1993" />
    </g>
  </g>
</svg>
