<?xml version="1.0" encoding="UTF-8" standalone="no"?>
<svg
   xmlns:dc="http://purl.org/dc/elements/1.1/"
   xmlns:cc="http://creativecommons.org/ns#"
   xmlns:rdf="http://www.w3.org/1999/02/22-rdf-syntax-ns#"
   xmlns:svg="http://www.w3.org/2000/svg"
   xmlns="http://www.w3.org/2000/svg"
   xmlns:sodipodi="http://sodipodi.sourceforge.net/DTD/sodipodi-0.dtd"
   xmlns:inkscape="http://www.inkscape.org/namespaces/inkscape"
   width="20"
   height="20"
   viewBox="0 0 20 20"
   version="1.1"
   id="svg838"
   inkscape:version="1.0.1 (3bc2e813f5, 2020-09-07)"
   sodipodi:docname="bg_noble.svg">
  <defs
     id="defs832" />
  <sodipodi:namedview
     id="base"
     pagecolor="#ffffff"
     bordercolor="#666666"
     borderopacity="1.0"
     inkscape:pageopacity="0.0"
     inkscape:pageshadow="2"
     inkscape:zoom="15.839192"
     inkscape:cx="12.686043"
     inkscape:cy="10.77133"
     inkscape:document-units="mm"
     inkscape:current-layer="layer1"
     inkscape:document-rotation="0"
     showgrid="false"
     units="px"
     inkscape:window-width="1267"
     inkscape:window-height="1040"
     inkscape:window-x="52"
     inkscape:window-y="0"
     inkscape:window-maximized="0"
     inkscape:pagecheckerboard="true" />
  <metadata
     id="metadata835">
    <rdf:RDF>
      <cc:Work
         rdf:about="">
        <dc:format>image/svg+xml</dc:format>
        <dc:type
           rdf:resource="http://purl.org/dc/dcmitype/StillImage" />
        <dc:title></dc:title>
      </cc:Work>
    </rdf:RDF>
  </metadata>
  <g
     inkscape:label="Layer 1"
     inkscape:groupmode="layer"
     id="layer1">
    <g
       id="g2426"
       transform="matrix(0.30075145,0.00418545,-0.0038922,0.32341183,0.4701513,-0.41784253)">
      <path
         inkscape:connector-curvature="0"
         d="M 9,23.303 3.869,31 H 16.132 L 11,23.303 V 13.234 L 2.757,18.18 9,20.677 Z"
         id="path2374" />
      <polygon
         points="21,37 23,37 23,31 18.535,31 19.869,33 17,33 17,37 19,37 19,39 21,39 "
         id="polygon2376" />
      <polygon
         points="15,39 15,43 15,44 15,45 17,45 17,43 23,43 23,45 41,45 41,43 47,43 47,45 49,45 49,44 49,43 49,39 47,39 47,41 41,41 41,39 39,39 39,41 33,41 33,39 31,39 31,41 25,41 25,39 23,39 23,41 17,41 17,39 "
         id="polygon2378" />
      <polygon
         points="13,43 13,37 15,37 15,33 5,33 5,43 7,43 7,45 9,45 9,43 "
         id="polygon2380" />
      <polygon
         points="23,29 23,24.414 18.414,29 "
         id="polygon2382" />
      <polygon
         points="5,45 3,45 3,49.001 21,49 21,45 19,45 19,47 13,47 13,45 11,45 11,47 5,47 "
         id="polygon2384" />
      <polygon
         points="45.586,29 41,24.414 41,29 "
         id="polygon2386" />
      <polygon
         points="59,43 59,33 49,33 49,37 51,37 51,43 55,43 55,45 57,45 57,43 "
         id="polygon2388" />
      <polygon
         points="45,37 47,37 47,33 44.131,33 45.465,31 41,31 41,37 43,37 43,39 45,39 "
         id="polygon2390" />
      <path
         inkscape:connector-curvature="0"
         d="m 35,38 v 1 h 2 v -2 h 2 V 21 H 25 v 16 h 2 v 2 h 2 v -1 -1 -4 c 0,-1.103 0.897,-2 2,-2 h 2 c 1.103,0 2,0.897 2,2 v 4 z M 34,27 c 0,0.552 -0.448,1 -1,1 h -2 c -0.552,0 -1,-0.448 -1,-1 v -2 c 0,-0.552 0.448,-1 1,-1 h 2 c 0.552,0 1,0.448 1,1 z"
         id="path2392" />
      <path
         inkscape:connector-curvature="0"
         d="M 24.261,19 H 39.74 L 33,11.587 V 2.234 L 24.757,7.18 31,9.677 v 1.91 z"
         id="path2394" />
      <rect
         x="31"
         y="33"
         width="2"
         height="4"
         id="rect2396" />
      <path
         inkscape:connector-curvature="0"
         d="M 60.131,31 55,23.303 V 20.677 L 61.243,18.179 53,13.234 V 23.303 L 47.869,31 Z"
         id="path2398" />
      <path
         inkscape:connector-curvature="0"
         d="M 35,51.547 V 53 h 1.444 C 36.094,52.401 35.596,51.898 35,51.547 Z"
         id="path2400" />
      <rect
         x="31"
         y="51"
         width="2"
         height="2"
         id="rect2402" />
      <rect
         x="35"
         y="59"
         width="2"
         height="2"
         id="rect2404" />
      <rect
         x="35"
         y="55"
         width="2"
         height="2"
         id="rect2406" />
      <path
         inkscape:connector-curvature="0"
         d="M 41,49 V 47 H 23 v 2 c 0,1.103 -0.897,2 -2,2 v 10 h 4 v -6 c 0,-3.309 2.691,-6 6,-6 h 2 c 3.309,0 6,2.691 6,6 v 6 h 4 V 51 c -1.103,0 -2,-0.897 -2,-2 z"
         id="path2408" />
      <path
         inkscape:connector-curvature="0"
         d="m 45,61 h 5 v -6 c 0,-0.552 0.448,-1 1,-1 h 2 c 0.552,0 1,0.448 1,1 v 6 h 5 V 51 H 45 Z"
         id="path2410" />
      <polygon
         points="43,49.001 61,49 61,45 59,45 59,47 53,47 53,45 51,45 51,47 45,47 45,45 43,45 "
         id="polygon2412" />
      <rect
         x="27"
         y="59"
         width="2"
         height="2"
         id="rect2414" />
      <rect
         x="31"
         y="55"
         width="2"
         height="2"
         id="rect2416" />
      <rect
         x="27"
         y="55"
         width="2"
         height="2"
         id="rect2418" />
      <path
         inkscape:connector-curvature="0"
         d="m 5,61 h 5 v -6 c 0,-0.552 0.448,-1 1,-1 h 2 c 0.552,0 1,0.448 1,1 v 6 h 5 V 51 H 5 Z"
         id="path2420" />
      <path
         inkscape:connector-curvature="0"
         d="M 27.556,53 H 29 V 51.547 C 28.404,51.898 27.906,52.401 27.556,53 Z"
         id="path2422" />
      <rect
         x="31"
         y="59"
         width="2"
         height="2"
         id="rect2424" />
    </g>
  </g>
</svg>
