<?xml version="1.0" encoding="UTF-8" standalone="no"?>
<svg
   xmlns:dc="http://purl.org/dc/elements/1.1/"
   xmlns:cc="http://creativecommons.org/ns#"
   xmlns:rdf="http://www.w3.org/1999/02/22-rdf-syntax-ns#"
   xmlns:svg="http://www.w3.org/2000/svg"
   xmlns="http://www.w3.org/2000/svg"
   xmlns:sodipodi="http://sodipodi.sourceforge.net/DTD/sodipodi-0.dtd"
   xmlns:inkscape="http://www.inkscape.org/namespaces/inkscape"
   width="20"
   height="20"
   viewBox="0 0 20 20"
   version="1.1"
   id="svg838"
   inkscape:version="1.0.1 (3bc2e813f5, 2020-09-07)"
   sodipodi:docname="bg_pirate.svg">
  <defs
     id="defs832" />
  <sodipodi:namedview
     id="base"
     pagecolor="#ffffff"
     bordercolor="#666666"
     borderopacity="1.0"
     inkscape:pageopacity="0.0"
     inkscape:pageshadow="2"
     inkscape:zoom="15.839192"
     inkscape:cx="8.554382"
     inkscape:cy="9.9388696"
     inkscape:document-units="mm"
     inkscape:current-layer="layer1"
     inkscape:document-rotation="0"
     showgrid="false"
     units="px"
     inkscape:window-width="1267"
     inkscape:window-height="1040"
     inkscape:window-x="0"
     inkscape:window-y="0"
     inkscape:window-maximized="0"
     inkscape:pagecheckerboard="true" />
  <metadata
     id="metadata835">
    <rdf:RDF>
      <cc:Work
         rdf:about="">
        <dc:format>image/svg+xml</dc:format>
        <dc:type
           rdf:resource="http://purl.org/dc/dcmitype/StillImage" />
        <dc:title />
      </cc:Work>
    </rdf:RDF>
  </metadata>
  <g
     inkscape:label="Layer 1"
     inkscape:groupmode="layer"
     id="layer1">
    <g
       id="g2614"
       transform="matrix(-0.41881764,0,0,0.41881764,22.617057,1.0876593)">
      <g
         id="g2610">
        <path
           inkscape:connector-curvature="0"
           d="m 44.9909,35.0469 c -2.51,1.23 -5.49,1.23 -8,0 l -0.01,-0.02 c -1.25,-0.62 -2.6199,-0.93 -3.99,-0.93 -1.3699,0 -2.74,0.31 -4,0.93 -2.51,1.25 -5.49,1.25 -8,0.02 v -0.02 c -1.26,-0.62 -2.6299,-0.93 -4,-0.93 -1.3699,0 -2.74,0.31 -4,0.93 -2.51,1.25 -5.48,0.98 -7.99,-0.27 l -4,-1.98 v 4.4177 c 3.8024,1.5974 6.0741,3.2977 9.8188,2.3851 2.0034,-0.4445 2.4736,-1.3724 5.0058,-1.6936 5.5403,-0.7361 6.9482,3.7889 12.9534,0.8738 2.6061,-1.2783 5.817,-1.2929 8.3746,0.0723 l 0.0615,0.0328 0.0054,0.0055 c 4.4894,2.3112 7.9216,0.0062 11.7758,-1.6768 -4.0823,2.3107 -7.3616,4.5956 -12.1736,2.3475 L 36.7745,39.5187 36.7662,39.511 c -2.3771,-1.1145 -5.2446,-1.1039 -7.57,0.0927 -1.2971,0.6547 -2.7495,1.0035 -4.2054,1.0117 -4.5994,-0.0238 -3.9628,-2.4746 -9.059,-1.8724 -2.4664,0.2968 -2.9956,1.1642 -4.9699,1.4969 -3.9251,0.748 -6.014,-0.8697 -9.9609,-3.0452 v 6.8702 c 3.8024,1.5974 6.0741,3.2977 9.8188,2.3851 2.0034,-0.4445 2.4736,-1.3724 5.0058,-1.6936 5.6288,-0.7479 6.8667,3.8285 12.9534,0.8738 2.6061,-1.2783 5.817,-1.2929 8.3746,0.0723 l 0.0615,0.0328 0.0054,0.0055 c 4.4894,2.3112 7.9216,0.0062 11.7758,-1.6768 -4.0823,2.3107 -7.3616,4.5956 -12.1736,2.3475 L 36.7746,46.389 36.7663,46.3813 c -2.3771,-1.1145 -5.2446,-1.1039 -7.57,0.0927 -1.2971,0.6547 -2.7495,1.0035 -4.2054,1.0117 -4.3509,-0.0225 -4.5963,-2.3998 -9.059,-1.8724 -2.4664,0.2968 -2.9956,1.1642 -4.9699,1.4969 -3.9251,0.748 -6.014,-0.8697 -9.9609,-3.0452 v 4.6287 h 48 v -15.647 z m -38.249,3.025 c -0.2425,0 -0.4391,-0.1966 -0.4391,-0.4391 0,-0.2425 0.1966,-0.439 0.4391,-0.439 0.2425,0 0.439,0.1965 0.439,0.439 0,0.2425 -0.1965,0.4391 -0.439,0.4391 z m 8.861,-1.173 c -0.2572,0 -0.4658,-0.2086 -0.4658,-0.4658 0,-0.2572 0.2086,-0.4657 0.4658,-0.4657 0.2572,0 0.4657,0.2085 0.4657,0.4657 0,0.2572 -0.2085,0.4658 -0.4657,0.4658 z m 9.4449,1.8425 c -0.4182,0 -0.7571,-0.3389 -0.7571,-0.757 0,-0.4181 0.3389,-0.757 0.7571,-0.757 0.4181,0 0.757,0.3389 0.757,0.757 0,0.4181 -0.3389,0.757 -0.757,0.757 z m 17.9967,-0.4008 c -0.326,0 -0.6054,-0.2794 -0.6054,-0.6054 0,-0.3259 0.2794,-0.6053 0.6054,-0.6053 0.3259,0 0.6053,0.2794 0.6053,0.6053 0,0.326 -0.2794,0.6054 -0.6053,0.6054 z M 3.2708,43.1231 c -0.2719,0 -0.4922,-0.2203 -0.4922,-0.4922 0,-0.2718 0.2203,-0.4922 0.4922,-0.4922 0.2719,0 0.4922,0.2204 0.4922,0.4922 -10e-5,0.2718 -0.2204,0.4922 -0.4922,0.4922 z m 8.2507,-0.434 c -0.2455,0 -0.4446,-0.199 -0.4446,-0.4446 0,-0.2455 0.199,-0.4445 0.4446,-0.4445 0.2455,0 0.4445,0.199 0.4445,0.4445 1e-4,0.2456 -0.199,0.4446 -0.4445,0.4446 z m 8.2217,0.4658 c -0.4501,0 -0.815,-0.3649 -0.815,-0.8151 0,-0.4502 0.3649,-0.815 0.815,-0.815 0.4501,0 0.815,0.3649 0.815,0.815 0,0.4501 -0.3649,0.8151 -0.815,0.8151 z M 30.6239,42.663 c -0.415,0 -0.7515,-0.3365 -0.7515,-0.7515 0,-0.415 0.3365,-0.7515 0.7515,-0.7515 0.415,0 0.7515,0.3365 0.7515,0.7515 0,0.415 -0.3365,0.7515 -0.7515,0.7515 z m 8.1018,0.259 c -0.2791,0 -0.5052,-0.2262 -0.5052,-0.5052 0,-0.279 0.2262,-0.5052 0.5052,-0.5052 0.279,0 0.5052,0.2262 0.5052,0.5052 0,0.279 -0.2261,0.5052 -0.5052,0.5052 z m 8.9349,0.063 c -0.251,0 -0.4661,-0.2151 -0.4661,-0.4661 0,-0.251 0.2151,-0.4661 0.4661,-0.4661 0.2509,0 0.4661,0.2151 0.4661,0.4661 0,0.251 -0.2151,0.4661 -0.4661,0.4661 z"
           id="path2604" />
        <polygon
           points="0.9991,44.0642 1.0002,44.0648 1.0009,44.065 "
           id="polygon2606" />
        <polygon
           points="0.9991,37.1937 1.0009,37.1948 1.0009,37.1945 "
           id="polygon2608" />
      </g>
      <path
         inkscape:connector-curvature="0"
         d="M 37.8347,29.101 49,25.3311 48.8871,25.1053 48.7663,25.142 35.1659,8.8275 C 35.2136,8.7968 35.2142,8.729 35.1846,8.6896 L 29.8412,2.0744 29.8381,1.3061 H 29.5309 L 29.4885,11.6916 27.7217,10.4074 C 27.6112,9.6437 27.1868,8.8692 26.6298,8.2094 H 23.1777 L 23.1655,5.1966 H 22.8584 L 22.839,9.9853 22.5346,11.6596 19.2292,10.307 C 19.0715,9.5761 18.5792,8.8401 17.9459,8.2093 H 13.963 L 13.9613,7.8231 h -0.3071 l -0.0075,1.6745 -1.1541,4.2657 -3.466,-0.9874 C 9.019,12.0945 8.6252,11.3819 8.0969,10.7884 H 5.3853 L 5.3806,9.8186 H 5.0734 l -0.0283,5.8273 c -0.014,0.0146 -0.0329,0.0234 -0.0405,0.0437 l -3.65,10.14 c -0.0095,0.0189 -7e-4,0.0341 0,0.0519 H 1.3051 v 1.23 h -0.3 v 0.2599 l 1.95,5.25 2.4901,1.2401 c 1.29,0.64 2.67,0.98 3.99,0.98 1.12,0 2.17,-0.24 3.11,-0.71 1.38,-0.68 2.91,-1.03 4.45,-1.03 1.53,0 3.06,0.35 4.44,1.03 l 0.47,0.23 c 0.96,0.4 2.02,0.61 3.07,0.61 1.24,0 2.47,-0.29 3.57,-0.84 1.38,-0.68 2.91,-1.03 4.45,-1.03 0.42,0 0.84,0.03 1.26,0.09 0.35,-0.35 0.6,-0.58 0.6,-0.58 0,0 0.72,-0.59 2.17,-1.55 1.46,-0.96 0.82,-1.94 0.82,-1.94 z M 33.1946,12.7396 29.8571,5.967 29.8489,3.9661 l 3.7357,6.8535 c 0.02,0.04 0.05,0.05 0.09,0.05 0.0161,0 0.0267,-0.0028 0.0404,-0.0081 3.0662,6.5101 6.0408,12.6775 8.3391,16.3164 l -1.418,0.4302 -7.488,-14.7422 c 0.0463,-0.0218 0.0659,-0.078 0.0465,-0.1263 z m -6.5647,9.4989 h -3.3952 l -0.0186,-4.5894 c 0.9597,1.186 1.526,2.7146 0.548,3.886 h 3.4802 c 0.4068,-0.4828 0.5414,-1.0272 0.5018,-1.5828 l 1.7037,1.2509 -0.0171,4.1878 -1.776,-1.2909 c -0.1724,-0.6519 -0.5518,-1.2988 -1.0268,-1.8616 z m -9.6809,5.8697 -0.4766,-1.8967 h 2.2041 c 0.557,-0.556 0.6865,-1.1934 0.5587,-1.836 l 0.9095,0.3741 -0.6727,3.6913 c -0.6389,-0.2891 -1.7686,-0.337 -2.523,-0.3327 z m 2.1843,-4.0998 C 18.9155,23.3878 18.4844,22.7748 17.946,22.2385 h -3.9202 l -0.0199,-4.458 c 1.0652,1.1662 1.6532,2.6255 0.5323,3.7546 h 4.1382 c 0.5273,-0.5264 0.6674,-1.1259 0.574,-1.7335 l 1.6742,0.688 -0.72,3.96 z M 7.7679,26.4137 7.3802,24.8708 h 1.2234 c 0.0893,-0.1005 0.1559,-0.2057 0.2157,-0.3123 l 0.6989,0.1991 -0.4866,1.7985 z M 8.6036,17.5545 C 8.7834,17.352 8.8902,17.1342 8.9555,16.9103 l 2.4936,0.7106 -0.8872,3.2793 -1.5677,-0.4467 C 9.1588,19.6694 8.7197,18.8043 8.0971,18.1048 H 5.4208 l -0.0167,-3.438 c 0.7134,0.9039 1.0929,2.0204 0.3295,2.8878 h 2.87 z m 10.0729,-0.6958 c 0.4976,-0.4967 0.6508,-1.0586 0.5894,-1.6309 l 2.4388,1.0018 -0.73,3.96 -1.7995,-0.7435 C 18.974,18.7866 18.5174,18.1313 17.946,17.5621 h -3.941 l -0.0201,-4.4812 c 1.0787,1.17 1.6817,2.6413 0.5534,3.7778 z m 8.5677,0 c 0.3815,-0.4528 0.5304,-0.9595 0.5148,-1.4791 l 1.7094,1.2477 -0.0172,4.1971 -1.7563,-1.2766 c -0.1536,-0.6937 -0.5598,-1.3871 -1.0651,-1.9857 h -3.4142 l -0.0187,-4.6144 c 0.9717,1.1893 1.5518,2.7316 0.567,3.911 z m -4.4495,4.0799 -1.53,-0.629 0.72,-3.97 0.8273,0.3411 z m -9.2028,0.825 -0.2536,-0.0723 0.2588,-1.0924 z m 0.0111,-2.4916 -0.5536,2.337 -2.1985,-0.6265 0.8872,-3.2792 1.8139,0.5169 0.0454,0.0073 c 0.0038,0 0.0066,-0.0032 0.0104,-0.0035 z m -8.1632,2.7554 c 0.6904,0.8959 1.0446,1.9904 0.2938,2.8434 h 1.3375 l 0.3787,1.5071 -1.99,-0.2242 z m 3.4963,2.2533 C 9.2103,23.4533 8.7651,22.5137 8.097,21.7629 H 5.4385 L 5.422,18.3471 c 0.702,0.9 1.0687,2.0055 0.3116,2.8656 h 2.87 C 8.738,21.0614 8.8264,20.9006 8.8953,20.7364 l 1.5883,0.4526 -0.8873,3.2797 z m 1.8365,-3.0093 2.2076,0.6291 -0.7839,3.3088 -2.311,-0.6583 z m 2.4966,0.7115 0.2827,0.0806 0.0386,0.0062 -0.0158,3.5323 -1.0895,-0.3103 z m 7.9355,-1.3833 1.5887,0.6536 -0.0173,4.2578 -2.2914,-0.9415 z m 13.82,-11.78 c 0.02,0.02 0.05,0.03 0.08,0.03 0.015,0 0.03,-0.0066 0.045,-0.015 3.8342,6.8741 7.605,13.241 11.0601,17.0828 L 44.8299,26.336 33.7303,10.853 c 0.0423,-0.0233 0.0531,-0.0764 0.0343,-0.1234 L 29.8471,3.5328 29.8425,2.3945 Z M 23.764,12.1823 h 3.4802 c 0.3587,-0.4258 0.5049,-0.8998 0.5092,-1.3868 l 1.7336,1.2654 -0.0172,4.1971 -1.7615,-1.2805 c -0.1339,-0.729 -0.5474,-1.4627 -1.0785,-2.0919 H 23.1967 L 23.184,9.7348 23.2247,9.5096 c 0.01,-0.04 0,-0.08 -0.02,-0.11 -0.004,-0.008 -0.0165,-0.0075 -0.0221,-0.014 L 23.178,8.2464 c 0.9836,1.1925 1.5775,2.7484 0.586,3.9359 z m -0.9318,-0.4998 -4e-4,0.1039 -0.0172,-0.0068 z m -0.0776,0.3971 0.0758,0.0303 -0.0172,4.2471 -0.7786,-0.3174 z m -8.2163,0.1027 h 4.1382 c 0.4682,-0.4673 0.6367,-0.9921 0.6047,-1.5292 l 3.1935,1.3065 -0.72,3.96 -2.5408,-1.039 C 19.0332,14.1838 18.5495,13.4869 17.946,12.8857 H 13.984 L 13.9639,8.3813 c 1.092,1.1737 1.7101,2.657 0.5744,3.801 z m -0.8968,-1.5147 -0.0153,3.4187 -0.8445,-0.2406 z m -0.938,3.4671 0.8484,0.2417 0.0454,0.0073 c 0.0103,0 0.0178,-0.0073 0.0276,-0.0093 L 13.609,17.9251 11.8162,17.4142 Z M 5.7336,13.8964 h 2.87 c 0.2259,-0.2543 0.3465,-0.531 0.3957,-0.8169 l 3.4152,0.9729 -0.8873,3.2796 -2.5168,-0.7171 C 9.0801,15.8801 8.6724,15.0932 8.097,14.4466 H 5.403 L 5.3862,10.9864 c 0.7248,0.9078 1.117,2.0355 0.3474,2.91 z M 1.652,25.8815 5.0411,16.4923 4.9945,26.1012 3.045,25.8815 Z m 2.2961,5.1758 c -0.3467,0 -0.6264,-0.2797 -0.6264,-0.6264 0,-0.3466 0.2797,-0.6264 0.6264,-0.6264 0.3466,0 0.6263,0.2798 0.6263,0.6264 0,0.3467 -0.2797,0.6264 -0.6263,0.6264 z m 2.1976,0 c -0.3466,0 -0.6264,-0.2797 -0.6264,-0.6264 0,-0.3466 0.2798,-0.6264 0.6264,-0.6264 0.3467,0 0.6264,0.2798 0.6264,0.6264 0,0.3467 -0.2797,0.6264 -0.6264,0.6264 z m 2.1977,0 c -0.3467,0 -0.6265,-0.2797 -0.6265,-0.6264 0,-0.3466 0.2798,-0.6264 0.6265,-0.6264 0.3466,0 0.6263,0.2798 0.6263,0.6264 0,0.3467 -0.2797,0.6264 -0.6263,0.6264 z m 0.9903,-4.4671 0.4735,-1.7502 2.3201,0.6609 -0.3432,1.4487 C 11.6246,26.8515 11.475,26.8315 11.475,26.8315 Z m 3.4013,1.5613 c -0.21,0 -0.48,-0.11 -0.6,-0.69 -0.0209,-0.101 -0.0658,-0.1677 -0.1071,-0.2391 l 0.3884,-1.6393 1.1357,0.3235 0.0214,0.0035 -0.01,2.241 c -0.3827,-0.0026 -0.7399,-0.0038 -0.8284,4e-4 z m 3.06,-0.42 -0.86,0.04 -0.27,0.39 c 0,0 -0.273,-0.0032 -0.6127,-0.0063 l -0.0254,-5.6751 c 1.0518,1.1624 1.6248,2.6099 0.5114,3.7314 h 1.6251 l 0.4777,1.9016 c -0.2751,0.007 -0.456,0.0184 -0.456,0.0184 z m 4.28,2.13 -0.14,-0.9901 c -0.0299,-0.0968 -0.0983,-0.1786 -0.1844,-0.2529 l 0.684,-3.749 2.3402,0.9565 -0.0162,4.0031 z m 3.1904,-0.0384 -0.0303,-7.4727 c 0.9476,1.1825 1.5002,2.6977 0.5289,3.861 h 1.4839 l 0.8983,3.577 z m 4.3096,-1.5216 c -0.98,0.15 -0.85,1.48 -0.85,1.48 l -0.2696,0.0032 -0.8974,-3.5732 h 1.6862 c 0.4326,-0.5135 0.5549,-1.0967 0.4883,-1.689 l 1.6985,1.247 -0.0098,2.4152 c -0.6022,0.0104 -1.3419,0.0396 -1.8462,0.1168 z m 3.1342,2.7558 c -0.3467,0 -0.6265,-0.2797 -0.6265,-0.6264 0,-0.3466 0.2798,-0.6264 0.6265,-0.6264 0.3466,0 0.6263,0.2798 0.6263,0.6264 0,0.3467 -0.2797,0.6264 -0.6263,0.6264 z m 2.1976,0 c -0.3467,0 -0.6264,-0.2797 -0.6264,-0.6264 0,-0.3466 0.2797,-0.6264 0.6264,-0.6264 0.3467,0 0.6264,0.2798 0.6264,0.6264 0,0.3467 -0.2797,0.6264 -0.6264,0.6264 z m -2.4717,-2.8758 c 0,0 -0.1995,-0.0026 -0.4873,-0.002 l -0.0889,-21.7536 3.1557,6.4037 c 0.02,0.03 0.05,0.05 0.09,0.05 0.0096,0 0.0132,-0.0037 0.0193,-0.0048 1.2416,6.2178 2.5377,12.2734 4.7568,15.5692 l -0.3278,0.0994 -0.1879,-0.3718 z m 4.6693,2.8758 c -0.3466,0 -0.6264,-0.2797 -0.6264,-0.6264 0,-0.3466 0.2798,-0.6264 0.6264,-0.6264 0.3467,0 0.6264,0.2798 0.6264,0.6264 0,0.3467 -0.2797,0.6264 -0.6264,0.6264 z"
         id="path2612" />
    </g>
  </g>
</svg>
