<?xml version="1.0" encoding="UTF-8" standalone="no"?>
<svg
   xmlns:dc="http://purl.org/dc/elements/1.1/"
   xmlns:cc="http://creativecommons.org/ns#"
   xmlns:rdf="http://www.w3.org/1999/02/22-rdf-syntax-ns#"
   xmlns:svg="http://www.w3.org/2000/svg"
   xmlns="http://www.w3.org/2000/svg"
   xmlns:sodipodi="http://sodipodi.sourceforge.net/DTD/sodipodi-0.dtd"
   xmlns:inkscape="http://www.inkscape.org/namespaces/inkscape"
   width="20"
   height="20"
   viewBox="0 0 20 20"
   version="1.1"
   id="svg838"
   inkscape:version="1.0.1 (3bc2e813f5, 2020-09-07)"
   sodipodi:docname="bg_priest.svg">
  <defs
     id="defs832" />
  <sodipodi:namedview
     id="base"
     pagecolor="#ffffff"
     bordercolor="#666666"
     borderopacity="1.0"
     inkscape:pageopacity="0.0"
     inkscape:pageshadow="2"
     inkscape:zoom="7.919596"
     inkscape:cx="7.4039932"
     inkscape:cy="3.7571972"
     inkscape:document-units="mm"
     inkscape:current-layer="layer1"
     inkscape:document-rotation="0"
     showgrid="false"
     units="px"
     inkscape:window-width="1267"
     inkscape:window-height="1040"
     inkscape:window-x="52"
     inkscape:window-y="0"
     inkscape:window-maximized="0"
     inkscape:pagecheckerboard="true" />
  <metadata
     id="metadata835">
    <rdf:RDF>
      <cc:Work
         rdf:about="">
        <dc:format>image/svg+xml</dc:format>
        <dc:type
           rdf:resource="http://purl.org/dc/dcmitype/StillImage" />
        <dc:title />
      </cc:Work>
    </rdf:RDF>
  </metadata>
  <g
     inkscape:label="Layer 1"
     inkscape:groupmode="layer"
     id="layer1">
    <g
       id="g879"
       transform="matrix(0.03345132,0,0,0.03345132,1.4364611,1.4364611)">
      <path
         d="M 466.62,61.54 450.46,45.38 a 14.26,14.26 0 0 0 -20.15,0 L 383.68,92 A 209.83,209.83 0 0 0 334,63.28 10.23,10.23 0 0 0 320.48,69.44 l -3.83,11.08 a 26.21,26.21 0 0 0 12.8,31.9 161.92,161.92 0 0 1 49.7,39.49 11,11 0 0 0 16.48,0.79 l 71,-71 a 14.26,14.26 0 0 0 -0.01,-20.16 z"
         id="path4" />
      <path
         d="m 478.87,230.33 h -16.59 a 205.28,205.28 0 0 0 -13.94,-53.28 10.26,10.26 0 0 0 -13.88,-5.4 l -10.6,5 a 26.35,26.35 0 0 0 -13.77,31.71 161.38,161.38 0 0 1 7.15,47.64 c 0,4.6 -0.2,9.15 -0.57,13.64 a 11.11,11.11 0 0 0 11.09,12 h 51.11 a 14.24,14.24 0 0 0 14.24,-14.24 v -22.83 a 14.24,14.24 0 0 0 -14.24,-14.24 z"
         id="path6" />
      <path
         d="M 466.62,430.31 420,383.71 a 206.14,206.14 0 0 0 26.37,-44.17 10.26,10.26 0 0 0 -5.76,-13.71 l -11,-4.15 a 26.31,26.31 0 0 0 -32.35,12 162,162 0 0 1 -37.39,45.58 11.09,11.09 0 0 0 -0.61,16.32 l 71,71 a 14.26,14.26 0 0 0 20.15,0 l 16.16,-16.16 a 14.26,14.26 0 0 0 0.05,-20.11 z"
         id="path8" />
      <path
         d="m 256,417.24 c -4.6,0 -9.15,-0.2 -13.64,-0.57 a 11.11,11.11 0 0 0 -12,11.09 v 51.11 a 14.24,14.24 0 0 0 14.24,14.24 h 22.86 a 14.24,14.24 0 0 0 14.24,-14.24 v -16.59 a 204.89,204.89 0 0 0 53.08,-13.86 10.26,10.26 0 0 0 5.41,-13.87 l -5,-10.61 a 26.35,26.35 0 0 0 -31.7,-13.8 161.3,161.3 0 0 1 -47.49,7.1 z"
         id="path10" />
      <path
         d="m 116.39,359.3 -71,71 a 14.26,14.26 0 0 0 0,20.15 l 16.16,16.16 a 14.26,14.26 0 0 0 20.15,0 L 128.32,420 a 209.65,209.65 0 0 0 50,28.85 10.25,10.25 0 0 0 13.52,-6.17 l 3.82,-11.1 a 26.23,26.23 0 0 0 -12.85,-31.88 161.7,161.7 0 0 1 -49.93,-39.6 11,11 0 0 0 -16.49,-0.8 z"
         id="path12" />
      <path
         d="m 94.76,256 c 0,-4.6 0.2,-9.15 0.57,-13.64 a 11.11,11.11 0 0 0 -11.09,-12 H 33.13 A 14.24,14.24 0 0 0 18.89,244.6 v 22.86 a 14.24,14.24 0 0 0 14.24,14.24 h 16.58 a 204.78,204.78 0 0 0 16.07,58.25 10.25,10.25 0 0 0 14,5 l 10.48,-5.3 a 26.24,26.24 0 0 0 13,-31.86 160.92,160.92 0 0 1 -8.5,-51.79 z"
         id="path14" />
      <path
         d="m 110.34,186.77 a 161.75,161.75 0 0 1 41.71,-54 11.11,11.11 0 0 0 0.66,-16.35 l -71,-71 a 14.26,14.26 0 0 0 -20.15,0 L 45.38,61.54 a 14.26,14.26 0 0 0 0,20.15 L 92,128.31 a 208.92,208.92 0 0 0 -30.81,55.07 10.26,10.26 0 0 0 6.52,13.39 l 11.16,3.5 a 26.13,26.13 0 0 0 31.47,-13.5 z"
         id="path16" />
      <path
         d="m 256,94.76 c 4.6,0 9.15,0.2 13.64,0.57 a 11.11,11.11 0 0 0 12,-11.09 V 33.13 A 14.24,14.24 0 0 0 267.4,18.89 h -22.83 a 14.24,14.24 0 0 0 -14.24,14.24 v 16.59 a 204.85,204.85 0 0 0 -54.62,14.5 10.26,10.26 0 0 0 -5.31,13.92 l 5.09,10.56 a 26.31,26.31 0 0 0 31.75,13.56 161.26,161.26 0 0 1 48.76,-7.5 z"
         id="path18" />
      <path
         d="M 330.09,218.78 A 151.48,151.48 0 0 1 297,222.35 16.35,16.35 0 0 1 280.6,204.87 c 1.75,-24.63 3.89,-45.86 5.3,-58.75 A 11.94,11.94 0 0 0 274,132.87 h -36 a 11.94,11.94 0 0 0 -11.88,13.25 c 1.41,12.89 3.55,34.12 5.3,58.75 a 16.35,16.35 0 0 1 -16.4,17.48 151.48,151.48 0 0 1 -33.14,-3.57 8.94,8.94 0 0 0 -11,8.67 V 268 a 8.93,8.93 0 0 0 10.77,8.74 228.77,228.77 0 0 1 33.25,-4.22 16.29,16.29 0 0 1 17.24,16.83 c -0.63,18.91 -2.23,49.85 -6.24,75 a 11.94,11.94 0 0 0 11.8,13.82 h 36.64 a 11.94,11.94 0 0 0 11.8,-13.82 c -4,-25.17 -5.61,-56.11 -6.24,-75 a 16.29,16.29 0 0 1 17.24,-16.83 228.93,228.93 0 0 1 33.27,4.22 8.92,8.92 0 0 0 10.73,-8.74 v -40.5 a 8.94,8.94 0 0 0 -11.05,-8.72 z"
         id="path20" />
    </g>
  </g>
</svg>
