<?xml version="1.0" encoding="UTF-8" standalone="no"?>
<svg
   xmlns:dc="http://purl.org/dc/elements/1.1/"
   xmlns:cc="http://creativecommons.org/ns#"
   xmlns:rdf="http://www.w3.org/1999/02/22-rdf-syntax-ns#"
   xmlns:svg="http://www.w3.org/2000/svg"
   xmlns="http://www.w3.org/2000/svg"
   xmlns:sodipodi="http://sodipodi.sourceforge.net/DTD/sodipodi-0.dtd"
   xmlns:inkscape="http://www.inkscape.org/namespaces/inkscape"
   width="20"
   height="20"
   viewBox="0 0 20 20"
   version="1.1"
   id="svg838"
   inkscape:version="1.0.1 (3bc2e813f5, 2020-09-07)"
   sodipodi:docname="bg_royal.svg">
  <defs
     id="defs832" />
  <sodipodi:namedview
     id="base"
     pagecolor="#ffffff"
     bordercolor="#666666"
     borderopacity="1.0"
     inkscape:pageopacity="0.0"
     inkscape:pageshadow="2"
     inkscape:zoom="15.839192"
     inkscape:cx="12.686043"
     inkscape:cy="10.77133"
     inkscape:document-units="mm"
     inkscape:current-layer="layer1"
     inkscape:document-rotation="0"
     showgrid="false"
     units="px"
     inkscape:window-width="1267"
     inkscape:window-height="1040"
     inkscape:window-x="52"
     inkscape:window-y="0"
     inkscape:window-maximized="0"
     inkscape:pagecheckerboard="true" />
  <metadata
     id="metadata835">
    <rdf:RDF>
      <cc:Work
         rdf:about="">
        <dc:format>image/svg+xml</dc:format>
        <dc:type
           rdf:resource="http://purl.org/dc/dcmitype/StillImage" />
        <dc:title />
      </cc:Work>
    </rdf:RDF>
  </metadata>
  <g
     inkscape:label="Layer 1"
     inkscape:groupmode="layer"
     id="layer1">
    <g
       id="g4897"
       transform="matrix(0.2860605,0,0,0.2860605,0.84606393,1.6668128)">
      <path
         inkscape:connector-curvature="0"
         d="M 4,54.82 C 5.134,54.417 6.518,54.074 8,53.785 V 28.576 C 9.763,27.802 11,26.045 11,24 11,21.243 8.757,19 6,19 c -2.757,0 -5,2.243 -5,5 0,2.045 1.237,3.802 3,4.576 z"
         id="path4869" />
      <path
         inkscape:connector-curvature="0"
         d="m 58,19 c -2.757,0 -5,2.243 -5,5 0,2.045 1.237,3.802 3,4.576 v 25.208 c 1.482,0.289 2.866,0.633 4,1.035 V 28.576 c 1.763,-0.774 3,-2.531 3,-4.576 0,-2.757 -2.243,-5 -5,-5 z"
         id="path4871" />
      <polygon
         points="25.198,36 24.754,34 23,34 23,40 41,40 41,34 39.246,34 38.802,36 "
         id="polygon4873" />
      <path
         inkscape:connector-curvature="0"
         d="m 49,58 v 1 H 39 v -1 c 0,-1.318 0.236,-2.604 0.679,-3.838 -5.012,-0.199 -10.347,-0.199 -15.359,0 C 24.763,55.395 25,56.682 25,58 v 1 H 15 v -1 c 0,-1.343 0.624,-2.569 1.663,-3.361 C 6.917,55.516 3.646,56.911 3.059,57.505 4.336,58.973 15.028,61 32,61 48.972,61 59.664,58.973 60.941,57.505 60.354,56.91 57.082,55.516 47.337,54.639 48.376,55.431 49,56.657 49,58 Z"
         id="path4875" />
      <path
         inkscape:connector-curvature="0"
         d="M 47,42 H 17 v 1 c 0,0.551 0.448,1 1,1 h 14 14 c 0.552,0 1,-0.449 1,-1 z"
         id="path4877-2" />
      <path
         inkscape:connector-curvature="0"
         d="m 48,33 c -0.552,0 -1,0.449 -1,1 0,0.551 0.448,1 1,1 1.654,0 3,-1.346 3,-3 0,-1.654 -1.346,-3 -3,-3 -2.757,0 -5,2.243 -5,5 v 6 h 4 V 36.816 C 45.839,36.402 45,35.302 45,34 c 0,-1.654 1.346,-3 3,-3 h 1 v 2 z"
         id="path4879-6" />
      <path
         inkscape:connector-curvature="0"
         d="M 32,50 H 23.677 C 23.304,50 23,50.304 23,50.677 c 0,0.086 0.017,0.17 0.049,0.252 l 0.503,1.258 c 5.485,-0.239 11.411,-0.239 16.896,0 l 0.503,-1.259 C 40.983,50.848 41,50.763 41,50.677 41,50.304 40.696,50 40.323,50 Z"
         id="path4881-1" />
      <path
         inkscape:connector-curvature="0"
         d="M 47,49.206 C 47,48.16 46.48,47.189 45.609,46.608 L 44.697,46 H 32 19.303 l -0.912,0.608 C 17.52,47.189 17,48.16 17,49.206 c 0,0.4 0.075,0.79 0.223,1.159 L 19.271,55.483 18.236,56 c -0.444,0.222 -0.791,0.575 -1.003,1 h 5.714 C 22.856,56.148 22.649,55.316 22.328,54.515 L 21.191,51.671 C 21.064,51.352 21,51.018 21,50.677 21,49.201 22.201,48 23.677,48 H 32 40.323 c 1.476,0 2.677,1.201 2.677,2.677 0,0.341 -0.064,0.675 -0.191,0.993 l -1.137,2.844 C 41.351,55.316 41.144,56.148 41.053,57 h 5.714 C 46.555,56.575 46.208,56.222 45.764,56 L 44.73,55.483 46.777,50.366 C 46.925,49.996 47,49.606 47,49.206 Z"
         id="path4883-8" />
      <path
         inkscape:connector-curvature="0"
         d="m 42,9 c 0.552,0 1,-0.449 1,-1 V 7 h 2 V 8 C 45,8.036 44.991,8.07 44.989,8.105 47.624,8.648 49,11.335 49,14 c 0,2.015 -1.21,4.433 -2.61,7.233 -1.204,2.406 -2.525,5.056 -3.097,7.602 0.799,-0.729 1.764,-1.274 2.835,-1.573 0.528,-2.989 1.56,-5.08 2.568,-7.096 C 49.932,17.693 51,15.558 51,12 51,8.14 47.859,5 44,5 c -1.654,0 -3,1.346 -3,3 0,0.551 0.448,1 1,1 z"
         id="path4885-7" />
      <path
         inkscape:connector-curvature="0"
         d="M 19.792,10.015 C 17.594,10.166 17,12.659 17,14 c 0,1.543 1.165,3.872 2.398,6.338 C 21.087,23.712 23,27.537 23,31.236 V 32 h 1.309 L 22.613,24.368 28.516,26.73 32,19.764 35.483,26.73 41.386,24.368 39.691,32 H 41 V 31.236 C 41,27.537 42.913,23.713 44.602,20.339 45.835,17.872 47,15.543 47,14 47,12.659 46.406,10.166 44.208,10.015 43.659,10.616 42.876,11 42,11 40.698,11 39.598,10.161 39.184,9 H 24.816 c -0.414,1.161 -1.514,2 -2.816,2 -0.876,0 -1.659,-0.384 -2.208,-0.985 z"
         id="path4887" />
      <path
         inkscape:connector-curvature="0"
         d="m 16,35 c 0.552,0 1,-0.449 1,-1 0,-0.551 -0.448,-1 -1,-1 h -1 v -2 h 1 c 1.654,0 3,1.346 3,3 0,1.302 -0.839,2.402 -2,2.816 V 40 h 4 v -6 c 0,-2.757 -2.243,-5 -5,-5 -1.654,0 -3,1.346 -3,3 0,1.654 1.346,3 3,3 z"
         id="path4889" />
      <path
         inkscape:connector-curvature="0"
         d="m 17.873,27.262 c 1.07,0.298 2.036,0.844 2.835,1.573 C 20.136,26.289 18.815,23.64 17.611,21.233 16.21,18.433 15,16.015 15,14 15,11.335 16.376,8.648 19.011,8.105 19.009,8.07 19,8.036 19,8 V 7 h 2 v 1 c 0,0.551 0.448,1 1,1 0.552,0 1,-0.449 1,-1 0,-1.654 -1.346,-3 -3,-3 -3.859,0 -7,3.14 -7,7 0,3.558 1.068,5.693 2.305,8.167 1.008,2.015 2.04,4.106 2.568,7.095 z"
         id="path4891" />
      <path
         inkscape:connector-curvature="0"
         d="M 39,4 C 39,3.449 38.552,3 38,3 H 26 c -0.552,0 -1,0.449 -1,1 v 3 h 14 z"
         id="path4893" />
      <path
         inkscape:connector-curvature="0"
         d="M 38.613,27.632 34.516,29.27 32,24.236 29.483,29.27 25.386,27.632 26.802,34 H 37.198 Z M 28,32 c -0.552,0 -1,-0.448 -1,-1 0,-0.552 0.448,-1 1,-1 0.552,0 1,0.448 1,1 0,0.552 -0.448,1 -1,1 z m 4,-1 c -0.552,0 -1,-0.448 -1,-1 0,-0.552 0.448,-1 1,-1 0.552,0 1,0.448 1,1 0,0.552 -0.448,1 -1,1 z m 4,1 c -0.552,0 -1,-0.448 -1,-1 0,-0.552 0.448,-1 1,-1 0.552,0 1,0.448 1,1 0,0.552 -0.448,1 -1,1 z"
         id="path4895" />
    </g>
  </g>
</svg>
