<?xml version="1.0" encoding="UTF-8" standalone="no"?>
<svg
   xmlns:dc="http://purl.org/dc/elements/1.1/"
   xmlns:cc="http://creativecommons.org/ns#"
   xmlns:rdf="http://www.w3.org/1999/02/22-rdf-syntax-ns#"
   xmlns:svg="http://www.w3.org/2000/svg"
   xmlns="http://www.w3.org/2000/svg"
   xmlns:sodipodi="http://sodipodi.sourceforge.net/DTD/sodipodi-0.dtd"
   xmlns:inkscape="http://www.inkscape.org/namespaces/inkscape"
   width="20"
   height="20"
   viewBox="0 0 20 20"
   version="1.1"
   id="svg838"
   inkscape:version="1.0.1 (3bc2e813f5, 2020-09-07)"
   sodipodi:docname="bg_seaman.svg">
  <defs
     id="defs832" />
  <sodipodi:namedview
     id="base"
     pagecolor="#ffffff"
     bordercolor="#666666"
     borderopacity="1.0"
     inkscape:pageopacity="0.0"
     inkscape:pageshadow="2"
     inkscape:zoom="15.839192"
     inkscape:cx="12.686043"
     inkscape:cy="10.77133"
     inkscape:document-units="mm"
     inkscape:current-layer="layer1"
     inkscape:document-rotation="0"
     showgrid="false"
     units="px"
     inkscape:window-width="1267"
     inkscape:window-height="1040"
     inkscape:window-x="52"
     inkscape:window-y="0"
     inkscape:window-maximized="0"
     inkscape:pagecheckerboard="true" />
  <metadata
     id="metadata835">
    <rdf:RDF>
      <cc:Work
         rdf:about="">
        <dc:format>image/svg+xml</dc:format>
        <dc:type
           rdf:resource="http://purl.org/dc/dcmitype/StillImage" />
        <dc:title></dc:title>
      </cc:Work>
    </rdf:RDF>
  </metadata>
  <g
     inkscape:label="Layer 1"
     inkscape:groupmode="layer"
     id="layer1">
    <g
       style="fill:#000000"
       id="g4967"
       transform="matrix(0.36393033,0,0,0.36393033,-1.6457706,0.64629804)">
      <path
         id="path4933"
         d="m 5,20 a 9,9 0 0 1 6,2.2 7.05,7.05 0 0 0 4.78,1.8 7.06,7.06 0 0 0 4.81,-1.8 9.3,9.3 0 0 1 12,0 7.32,7.32 0 0 0 9.62,0 9.3,9.3 0 0 1 12,0 7.06,7.06 0 0 0 4.79,1.8 1,1 0 0 1 1,0.83 v -8.66 a 1,1 0 0 1 -1,0.83 9,9 0 0 1 -6,-2.2 7.32,7.32 0 0 0 -9.63,0 9.3,9.3 0 0 1 -12,0 7.32,7.32 0 0 0 -9.62,0 9,9 0 0 1 -6,2.2 9,9 0 0 1 -6,-2.2 A 7.05,7.05 0 0 0 5,13 1,1 0 0 1 4,12.17 v 8.66 A 1,1 0 0 1 5,20 Z"
         inkscape:connector-curvature="0" />
      <path
         id="path4935"
         d="m 5,29 a 9,9 0 0 1 6,2.2 7.05,7.05 0 0 0 4.78,1.8 7.06,7.06 0 0 0 4.81,-1.8 9.3,9.3 0 0 1 12,0 7.32,7.32 0 0 0 9.62,0 9.3,9.3 0 0 1 12,0 7.06,7.06 0 0 0 4.79,1.8 1,1 0 0 1 1,0.83 v -8.66 a 1,1 0 0 1 -1,0.83 9,9 0 0 1 -6,-2.2 7.32,7.32 0 0 0 -9.63,0 9.3,9.3 0 0 1 -12,0 7.32,7.32 0 0 0 -9.62,0 9,9 0 0 1 -6,2.2 9,9 0 0 1 -6,-2.2 A 7.05,7.05 0 0 0 5,22 1,1 0 0 1 4,21.17 v 8.66 A 1,1 0 0 1 5,29 Z"
         inkscape:connector-curvature="0" />
      <path
         id="path4937"
         d="m 5,47 a 9,9 0 0 1 6,2.2 7.05,7.05 0 0 0 4.78,1.8 7.06,7.06 0 0 0 4.81,-1.8 9.3,9.3 0 0 1 12,0 7.32,7.32 0 0 0 9.62,0 9.3,9.3 0 0 1 12,0 7.06,7.06 0 0 0 4.79,1.8 1,1 0 0 1 1,0.83 v -8.66 a 1,1 0 0 1 -1,0.83 9,9 0 0 1 -6,-2.2 7.32,7.32 0 0 0 -9.63,0 9.3,9.3 0 0 1 -12,0 7.32,7.32 0 0 0 -9.62,0 9,9 0 0 1 -6,2.2 9,9 0 0 1 -6,-2.2 A 7.05,7.05 0 0 0 5,40 1,1 0 0 1 4,39.17 v 8.66 A 1,1 0 0 1 5,47 Z"
         inkscape:connector-curvature="0" />
      <path
         id="path4939"
         d="m 5,38 a 9,9 0 0 1 6,2.2 7.05,7.05 0 0 0 4.78,1.8 7.06,7.06 0 0 0 4.81,-1.8 9.3,9.3 0 0 1 12,0 7.32,7.32 0 0 0 9.62,0 9.3,9.3 0 0 1 12,0 7.06,7.06 0 0 0 4.79,1.8 1,1 0 0 1 1,0.83 v -8.66 a 1,1 0 0 1 -1,0.83 9,9 0 0 1 -6,-2.2 7.32,7.32 0 0 0 -9.63,0 9.3,9.3 0 0 1 -12,0 7.32,7.32 0 0 0 -9.62,0 9,9 0 0 1 -6,2.2 9,9 0 0 1 -6,-2.2 A 7.05,7.05 0 0 0 5,31 1,1 0 0 1 4,30.17 v 8.66 A 1,1 0 0 1 5,38 Z"
         inkscape:connector-curvature="0" />
      <path
         id="path4941"
         d="m 53,50.8 a 7.32,7.32 0 0 0 -9.63,0 9,9 0 0 1 -6,2.2 H 59 a 9,9 0 0 1 -6,-2.2 z"
         inkscape:connector-curvature="0" />
      <path
         id="path4943"
         d="M 60,52.17 A 1,1 0 0 1 59,53 h 1 z"
         inkscape:connector-curvature="0" />
      <path
         id="path4945"
         d="m 31.4,50.8 a 7.32,7.32 0 0 0 -9.62,0 9,9 0 0 1 -6,2.2 H 37.4 a 9,9 0 0 1 -6,-2.2 z"
         inkscape:connector-curvature="0" />
      <path
         id="path4947"
         d="M 9.78,50.8 A 7.05,7.05 0 0 0 5,49 1,1 0 0 1 4,48.17 V 53 h 11.78 a 9,9 0 0 1 -6,-2.2 z"
         inkscape:connector-curvature="0" />
    </g>
  </g>
</svg>
