<?xml version="1.0" encoding="UTF-8" standalone="no"?>
<svg
   xmlns:dc="http://purl.org/dc/elements/1.1/"
   xmlns:cc="http://creativecommons.org/ns#"
   xmlns:rdf="http://www.w3.org/1999/02/22-rdf-syntax-ns#"
   xmlns:svg="http://www.w3.org/2000/svg"
   xmlns="http://www.w3.org/2000/svg"
   xmlns:sodipodi="http://sodipodi.sourceforge.net/DTD/sodipodi-0.dtd"
   xmlns:inkscape="http://www.inkscape.org/namespaces/inkscape"
   width="20"
   height="20"
   viewBox="0 0 20 20"
   version="1.1"
   id="svg838"
   inkscape:version="1.0.1 (3bc2e813f5, 2020-09-07)"
   sodipodi:docname="bg_slave.svg">
  <defs
     id="defs832" />
  <sodipodi:namedview
     id="base"
     pagecolor="#ffffff"
     bordercolor="#666666"
     borderopacity="1.0"
     inkscape:pageopacity="0.0"
     inkscape:pageshadow="2"
     inkscape:zoom="15.839192"
     inkscape:cx="7.041573"
     inkscape:cy="8.6740927"
     inkscape:document-units="mm"
     inkscape:current-layer="layer1"
     inkscape:document-rotation="0"
     showgrid="false"
     units="px"
     inkscape:window-width="1312"
     inkscape:window-height="1040"
     inkscape:window-x="75"
     inkscape:window-y="0"
     inkscape:window-maximized="0"
     inkscape:pagecheckerboard="true" />
  <metadata
     id="metadata835">
    <rdf:RDF>
      <cc:Work
         rdf:about="">
        <dc:format>image/svg+xml</dc:format>
        <dc:type
           rdf:resource="http://purl.org/dc/dcmitype/StillImage" />
        <dc:title />
      </cc:Work>
    </rdf:RDF>
  </metadata>
  <g
     inkscape:label="Layer 1"
     inkscape:groupmode="layer"
     id="layer1">
    <g
       id="g3661"
       transform="matrix(0.07091747,0,0,0.07091747,-7.5348912,2.910515)">
      <ellipse
         transform="matrix(0.4832,-0.8755,0.8755,0.4832,213.1982,406.1801)"
         cx="450.65701"
         cy="22.499001"
         rx="22.493999"
         ry="22.496"
         id="ellipse3631" />
      <path
         inkscape:connector-curvature="0"
         d="m 417.005,111.131 c -3.332,-4.206 -6.626,-7.51 -9.436,-10.007 0.882,-3.841 2.075,-7.688 3.472,-11.479 -5.64,-9.063 -7.889,-17.444 -8.76,-23.151 -1.709,-10.707 -0.073,-18.441 0.47,-20.555 1.033,-3.838 4.2,-6.693 8.081,-7.318 1.398,-0.225 2.807,-0.15 4.185,0.221 5.324,1.432 8.488,6.928 7.055,12.258 -0.014,0.064 -0.044,0.219 -0.086,0.441 -0.094,0.506 -0.227,1.344 -0.326,2.434 -0.186,2.076 -0.272,5.387 0.369,9.357 0.096,0.555 0.217,1.1 0.332,1.646 1.125,-2.185 2.209,-4.279 3.2,-6.236 5.47,-8.795 5.1,-21.279 -2.536,-25.65 -7.635,-4.369 -20.807,-3.277 -29.634,9.443 -12.038,17.561 -17.017,29.801 -20.574,51.881 -1.055,12.593 4.742,18.208 11.506,21.212 1.393,3.221 3.224,8.83 3.298,15.883 9.995,-3.337 20.611,-9.077 31.777,-17.179 -0.795,-1.117 -1.594,-2.195 -2.393,-3.201 z"
         id="path3633" />
      <path
         inkscape:connector-curvature="0"
         d="m 382.66,152.869 c -3.812,7.993 -10.346,17.119 -21.514,26.956 -5.183,4.563 -5.686,12.461 -1.123,17.644 4.561,5.183 12.46,5.687 17.643,1.124 13.305,-11.707 22.133,-23.562 27.564,-34.972 1.249,-2.616 2.315,-5.206 3.217,-7.756 0.064,1.098 0.099,2.222 0.101,3.375 -0.002,7.294 -1.322,15.789 -4.9,25.73 -2.341,6.496 1.026,13.658 7.522,15.998 1.399,0.504 2.831,0.744 4.238,0.744 5.12,0 9.923,-3.17 11.76,-8.266 h -0.002 c 4.47,-12.388 6.387,-23.849 6.385,-34.207 0.023,-15.54 -4.339,-28.328 -9.863,-38.141 -12.872,9.276 -25.173,15.625 -36.809,19.004 -0.724,3.908 -2.033,8.159 -4.219,12.767 z"
         id="path3635" />
      <path
         inkscape:connector-curvature="0"
         d="m 438.246,113.383 c 1.716,1.088 3.689,1.439 5.55,1.141 2.184,-0.352 4.213,-1.602 5.49,-3.617 2.349,-3.709 1.267,-8.609 -2.407,-10.991 0.269,-0.65 0.497,-1.299 0.69,-1.947 0.064,-0.217 0.135,-0.433 0.19,-0.649 0.377,-1.469 0.122,-3.053 -0.717,-4.455 -0.793,-1.34 -2.033,-2.387 -3.49,-2.951 -1.065,-0.412 -2.193,-0.541 -3.262,-0.369 -0.921,0.148 -1.755,0.528 -2.451,1.076 -0.304,0.239 -0.59,0.502 -0.832,0.807 -0.175,0.224 -0.314,0.468 -0.449,0.716 -9.552,-8.554 -13.713,-17.16 -15.616,-24.393 -0.375,-1.423 -0.664,-2.793 -0.889,-4.099 -0.655,-4.067 -0.596,-7.512 -0.385,-9.856 0.106,-1.172 0.249,-2.07 0.351,-2.625 0.054,-0.281 0.094,-0.475 0.119,-0.574 l 0.002,-0.018 c 1.148,-4.266 -1.377,-8.658 -5.645,-9.805 -4.266,-1.15 -8.654,1.375 -9.805,5.643 v -0.002 c -0.188,0.734 -2.228,8.545 -0.434,19.777 0.956,6.259 3.256,13.569 7.683,21.063 3.508,5.938 8.355,11.991 14.941,17.728 -0.136,0.11 -0.243,0.195 -0.266,0.216 -0.088,0.063 -0.165,0.123 -0.235,0.186 -0.293,0.23 -0.559,0.498 -0.791,0.789 -0.055,0.068 -0.09,0.146 -0.14,0.218 -0.821,1.157 -1.089,2.594 -0.833,4.018 0.121,0.677 0.359,1.344 0.716,1.977 -1.621,1.255 -3.219,2.451 -4.796,3.595 -12.302,8.918 -23.253,14.489 -32.942,17.636 -7.313,2.374 -13.909,3.371 -19.818,3.37 -16.247,-0.008 -27.626,-7.439 -35.098,-14.961 -2.088,-2.108 -3.847,-4.216 -5.313,-6.162 -0.708,0.292 -1.45,0.511 -2.221,0.635 -0.731,0.118 -1.467,0.144 -2.195,0.099 1.764,2.504 4.039,5.365 6.887,8.243 7.937,8.029 20.407,16.156 37.939,16.146 5.929,-0.001 12.404,-0.93 19.451,-3.062 10.514,-3.181 22.301,-9.049 35.457,-18.559 1.834,-1.325 3.696,-2.729 5.583,-4.197 0.583,0.293 1.195,0.522 1.836,0.638 0.177,0.031 0.352,0.034 0.526,0.05 0.509,0.048 1.014,0.054 1.501,-0.025 0.891,-0.142 1.701,-0.486 2.427,-1.037 0.221,-0.17 0.56,-0.438 0.98,-0.784 0.442,-0.364 0.978,-0.82 1.577,-1.357 0.379,0.241 0.749,0.486 1.134,0.728 z m -7.79,0.453 c -0.125,-0.022 -0.245,-0.067 -0.368,-0.1 -0.928,-0.247 -1.79,-0.764 -2.45,-1.514 -0.299,-0.339 -0.532,-0.708 -0.715,-1.088 -0.354,-0.741 -0.479,-1.525 -0.374,-2.254 0.063,-0.426 0.206,-0.826 0.432,-1.187 0.058,-0.093 0.106,-0.189 0.175,-0.276 0.148,-0.189 0.324,-0.361 0.518,-0.508 0.032,-0.031 0.068,-0.059 0.111,-0.09 0.099,-0.076 0.27,-0.211 0.508,-0.406 0.041,-0.034 0.092,-0.076 0.137,-0.113 0.386,-0.317 0.898,-0.753 1.496,-1.293 1.214,-1.096 2.996,-2.826 4.598,-4.846 l 0.05,-0.063 c 1.762,-2.221 2.985,-4.459 3.447,-6.295 0.027,-0.104 0.073,-0.198 0.109,-0.297 0.113,-0.308 0.254,-0.597 0.452,-0.848 0.227,-0.286 0.504,-0.522 0.814,-0.707 0.944,-0.563 2.212,-0.649 3.434,-0.176 1.039,0.402 1.926,1.148 2.492,2.104 0.564,0.945 0.739,1.984 0.504,2.927 -0.001,0.004 -0.001,0.009 -0.002,0.013 -0.17,0.655 -0.388,1.313 -0.645,1.975 -0.842,2.155 -2.15,4.352 -3.976,6.662 H 441.2 c -1.111,1.399 -2.281,2.667 -3.374,3.761 -0.891,0.891 -1.729,1.663 -2.441,2.289 -0.656,0.577 -1.204,1.03 -1.586,1.337 -0.205,0.164 -0.366,0.29 -0.466,0.367 -0.797,0.605 -1.808,0.818 -2.877,0.626 z"
         id="path3637" />
      <ellipse
         transform="matrix(0.4832,-0.8755,0.8755,0.4832,151.7111,302.0193)"
         cx="331.68799"
         cy="22.499001"
         rx="22.493999"
         ry="22.496"
         id="ellipse3639" />
      <path
         inkscape:connector-curvature="0"
         d="m 298.036,111.131 c -3.332,-4.206 -6.627,-7.511 -9.437,-10.008 0.882,-3.841 2.076,-7.686 3.472,-11.477 -5.64,-9.063 -7.889,-17.444 -8.76,-23.151 -1.709,-10.707 -0.073,-18.441 0.47,-20.555 1.033,-3.838 4.2,-6.693 8.081,-7.318 1.398,-0.225 2.807,-0.15 4.186,0.221 5.323,1.432 8.489,6.928 7.054,12.258 -0.014,0.064 -0.043,0.219 -0.086,0.441 -0.093,0.506 -0.227,1.344 -0.326,2.434 -0.184,2.076 -0.271,5.387 0.369,9.357 0.096,0.556 0.217,1.101 0.332,1.647 1.125,-2.185 2.21,-4.279 3.201,-6.237 5.47,-8.795 5.1,-21.279 -2.537,-25.65 -7.634,-4.369 -20.806,-3.277 -29.633,9.443 -12.038,17.561 -17.018,29.801 -20.574,51.881 -1.054,12.594 4.742,18.208 11.506,21.212 1.395,3.22 3.225,8.829 3.301,15.882 9.995,-3.337 20.609,-9.077 31.774,-17.179 -0.795,-1.117 -1.593,-2.195 -2.393,-3.201 z"
         id="path3641" />
      <path
         inkscape:connector-curvature="0"
         d="m 263.693,152.869 c -3.813,7.993 -10.348,17.119 -21.515,26.956 -5.183,4.561 -5.687,12.461 -1.124,17.644 4.561,5.18 12.459,5.685 17.641,1.124 13.309,-11.707 22.137,-23.562 27.567,-34.972 1.25,-2.616 2.316,-5.206 3.217,-7.756 0.064,1.098 0.098,2.222 0.1,3.375 -0.004,7.294 -1.324,15.789 -4.902,25.73 -2.341,6.496 1.026,13.658 7.522,15.998 1.399,0.504 2.831,0.744 4.238,0.744 5.12,0 9.923,-3.17 11.76,-8.266 h -0.002 c 4.47,-12.388 6.387,-23.849 6.385,-34.207 0.023,-15.54 -4.339,-28.328 -9.863,-38.141 -12.871,9.275 -25.171,15.624 -36.807,19.003 -0.722,3.909 -2.03,8.16 -4.217,12.768 z"
         id="path3643" />
      <path
         inkscape:connector-curvature="0"
         d="m 318.144,112.651 c 0.377,0.244 0.748,0.49 1.133,0.732 0.683,0.433 1.406,0.744 2.147,0.949 1.121,0.31 2.281,0.371 3.401,0.191 0.448,-0.072 0.888,-0.191 1.318,-0.339 0.639,-0.218 1.254,-0.511 1.824,-0.887 0.915,-0.604 1.723,-1.405 2.348,-2.392 2.349,-3.709 1.268,-8.608 -2.406,-10.991 0.268,-0.65 0.497,-1.299 0.69,-1.946 0.064,-0.217 0.135,-0.434 0.19,-0.65 0.377,-1.469 0.121,-3.053 -0.717,-4.455 -0.793,-1.34 -2.033,-2.387 -3.492,-2.951 -1.064,-0.412 -2.192,-0.541 -3.262,-0.369 -0.92,0.148 -1.754,0.528 -2.451,1.076 -0.304,0.24 -0.589,0.502 -0.832,0.807 -0.174,0.223 -0.314,0.468 -0.449,0.716 -9.551,-8.554 -13.712,-17.16 -15.615,-24.393 -0.375,-1.423 -0.664,-2.793 -0.889,-4.099 -0.656,-4.067 -0.596,-7.512 -0.385,-9.856 0.105,-1.172 0.249,-2.07 0.352,-2.625 0.053,-0.281 0.094,-0.475 0.119,-0.574 l 10e-4,-0.018 c 1.148,-4.266 -1.377,-8.658 -5.645,-9.805 -4.266,-1.15 -8.654,1.375 -9.805,5.643 v -0.002 c -0.188,0.734 -2.228,8.545 -0.434,19.777 0.956,6.259 3.256,13.569 7.683,21.063 3.508,5.938 8.355,11.991 14.941,17.728 -0.136,0.11 -0.242,0.195 -0.266,0.216 -0.088,0.063 -0.165,0.123 -0.236,0.186 -0.291,0.23 -0.559,0.498 -0.79,0.789 -0.055,0.068 -0.09,0.146 -0.14,0.218 -0.821,1.157 -1.089,2.594 -0.834,4.018 0.122,0.677 0.36,1.343 0.717,1.977 -1.621,1.254 -3.219,2.451 -4.796,3.594 -12.301,8.918 -23.25,14.489 -32.939,17.636 -7.313,2.375 -13.911,3.372 -19.821,3.371 -16.247,-0.008 -27.626,-7.439 -35.097,-14.961 -2.088,-2.108 -3.848,-4.216 -5.313,-6.163 -0.708,0.292 -1.45,0.512 -2.22,0.636 -0.732,0.118 -1.467,0.144 -2.196,0.099 1.764,2.504 4.04,5.365 6.887,8.243 7.936,8.029 20.407,16.156 37.939,16.146 5.93,-10e-4 12.406,-0.93 19.454,-3.063 10.513,-3.181 22.299,-9.048 35.454,-18.559 1.834,-1.325 3.696,-2.728 5.583,-4.197 0.583,0.294 1.196,0.523 1.837,0.639 0.177,0.031 0.351,0.034 0.525,0.05 0.509,0.048 1.013,0.054 1.501,-0.025 0.891,-0.142 1.7,-0.486 2.427,-1.037 0.221,-0.171 0.56,-0.438 0.98,-0.784 0.429,-0.354 0.947,-0.796 1.527,-1.314 0.02,-0.016 0.036,-0.03 0.052,-0.045 z m -6.658,1.185 c -0.125,-0.022 -0.245,-0.067 -0.367,-0.1 -0.928,-0.247 -1.79,-0.764 -2.449,-1.514 -0.299,-0.339 -0.533,-0.709 -0.715,-1.089 -0.355,-0.741 -0.48,-1.526 -0.374,-2.255 0.062,-0.425 0.206,-0.824 0.431,-1.185 0.058,-0.093 0.107,-0.19 0.175,-0.276 0.149,-0.189 0.324,-0.361 0.519,-0.508 0.031,-0.031 0.067,-0.059 0.109,-0.09 0.1,-0.076 0.27,-0.211 0.51,-0.406 0.041,-0.033 0.092,-0.076 0.137,-0.113 0.386,-0.317 0.897,-0.752 1.495,-1.293 1.214,-1.096 2.997,-2.826 4.597,-4.846 l 0.051,-0.063 c 1.762,-2.221 2.986,-4.459 3.447,-6.295 0.027,-0.104 0.073,-0.198 0.109,-0.297 0.112,-0.308 0.255,-0.597 0.453,-0.848 0.227,-0.286 0.503,-0.521 0.813,-0.707 0.944,-0.563 2.213,-0.649 3.435,-0.176 1.04,0.402 1.927,1.148 2.493,2.104 0.562,0.945 0.739,1.984 0.503,2.927 -10e-4,0.004 -10e-4,0.009 -0.002,0.013 -0.17,0.655 -0.388,1.313 -0.646,1.976 -0.729,1.87 -1.818,3.773 -3.286,5.754 -0.223,0.301 -0.448,0.603 -0.688,0.907 h -10e-4 -0.002 c -0.663,0.836 -1.348,1.623 -2.025,2.356 -0.457,0.496 -0.908,0.964 -1.349,1.404 -0.081,0.08 -0.161,0.161 -0.24,0.239 -0.531,0.524 -1.039,1.003 -1.511,1.433 -0.24,0.219 -0.472,0.426 -0.69,0.617 -0.656,0.577 -1.204,1.029 -1.586,1.336 -0.205,0.165 -0.366,0.291 -0.466,0.368 -0.799,0.606 -1.81,0.819 -2.88,0.627 z"
         id="path3645" />
      <ellipse
         transform="matrix(0.4832,-0.8755,0.8755,0.4832,90.234,197.8648)"
         cx="212.72"
         cy="22.499001"
         rx="22.493999"
         ry="22.496"
         id="ellipse3647" />
      <path
         inkscape:connector-curvature="0"
         d="m 144.724,152.869 c -3.811,7.993 -10.346,17.119 -21.513,26.956 -5.183,4.561 -5.687,12.461 -1.126,17.644 4.56,5.18 12.461,5.685 17.644,1.124 13.309,-11.707 22.134,-23.562 27.567,-34.972 1.249,-2.616 2.316,-5.206 3.217,-7.756 0.064,1.099 0.098,2.224 0.1,3.377 -0.004,7.292 -1.324,15.787 -4.904,25.729 -2.339,6.496 1.026,13.658 7.522,15.998 1.4,0.504 2.831,0.744 4.239,0.744 5.121,0 9.924,-3.17 11.759,-8.266 4.47,-12.388 6.387,-23.846 6.385,-34.205 0.023,-15.541 -4.339,-28.331 -9.864,-38.144 -12.872,9.276 -25.173,15.625 -36.809,19.005 -0.722,3.907 -2.03,8.158 -4.217,12.766 z"
         id="path3649" />
      <path
         inkscape:connector-curvature="0"
         d="m 179.068,111.131 c -3.332,-4.208 -6.626,-7.512 -9.436,-10.009 0.881,-3.84 2.075,-7.685 3.471,-11.476 -5.639,-9.063 -7.888,-17.444 -8.76,-23.151 -1.709,-10.707 -0.072,-18.441 0.471,-20.555 1.033,-3.838 4.199,-6.693 8.08,-7.318 1.399,-0.225 2.807,-0.15 4.186,0.221 5.324,1.432 8.489,6.928 7.055,12.258 -0.014,0.064 -0.043,0.219 -0.086,0.441 -0.094,0.506 -0.227,1.344 -0.326,2.434 -0.185,2.076 -0.271,5.387 0.369,9.357 0.095,0.556 0.217,1.1 0.332,1.647 1.125,-2.185 2.209,-4.279 3.201,-6.237 5.469,-8.795 5.1,-21.279 -2.537,-25.65 -7.635,-4.369 -20.807,-3.277 -29.633,9.443 -12.039,17.561 -17.018,29.801 -20.574,51.881 -1.055,12.594 4.742,18.208 11.506,21.212 1.394,3.22 3.224,8.829 3.299,15.883 9.995,-3.338 20.61,-9.077 31.776,-17.18 -0.796,-1.117 -1.595,-2.195 -2.394,-3.201 z"
         id="path3651" />
      <path
         inkscape:connector-curvature="0"
         d="m 199.176,112.651 c 0.377,0.244 0.747,0.49 1.133,0.732 0.682,0.433 1.406,0.744 2.146,0.949 1.122,0.31 2.282,0.371 3.403,0.191 0.448,-0.072 0.887,-0.191 1.317,-0.339 0.64,-0.218 1.254,-0.511 1.825,-0.887 0.915,-0.604 1.723,-1.405 2.348,-2.392 2.348,-3.709 1.267,-8.608 -2.407,-10.991 0.269,-0.65 0.497,-1.299 0.69,-1.946 0.064,-0.217 0.134,-0.434 0.191,-0.65 0.377,-1.469 0.122,-3.053 -0.717,-4.455 -0.793,-1.34 -2.033,-2.387 -3.491,-2.951 -1.065,-0.412 -2.193,-0.541 -3.262,-0.369 -0.92,0.148 -1.754,0.528 -2.451,1.076 -0.304,0.24 -0.589,0.502 -0.832,0.807 -0.174,0.224 -0.314,0.468 -0.449,0.716 -9.552,-8.554 -13.713,-17.16 -15.616,-24.393 -0.374,-1.423 -0.664,-2.794 -0.888,-4.099 -0.656,-4.067 -0.596,-7.512 -0.385,-9.856 0.105,-1.172 0.248,-2.07 0.351,-2.625 0.054,-0.281 0.094,-0.475 0.119,-0.574 l 0.001,-0.018 c 1.148,-4.266 -1.377,-8.658 -5.645,-9.805 -4.265,-1.15 -8.654,1.375 -9.805,5.643 v -0.002 c -0.188,0.734 -2.227,8.545 -0.434,19.777 0.957,6.259 3.256,13.569 7.683,21.062 3.509,5.939 8.355,11.992 14.942,17.729 -0.135,0.11 -0.243,0.195 -0.265,0.216 -0.088,0.063 -0.166,0.123 -0.236,0.186 -0.292,0.23 -0.559,0.498 -0.791,0.789 -0.054,0.068 -0.089,0.146 -0.14,0.218 -0.821,1.157 -1.089,2.594 -0.834,4.018 0.122,0.677 0.36,1.344 0.717,1.977 -1.621,1.255 -3.219,2.451 -4.795,3.594 -12.302,8.918 -23.252,14.489 -32.941,17.636 -7.313,2.375 -13.91,3.372 -19.82,3.371 -16.248,-0.008 -27.627,-7.439 -35.098,-14.961 -2.088,-2.108 -3.848,-4.216 -5.313,-6.163 -0.708,0.292 -1.45,0.512 -2.22,0.636 -0.731,0.118 -1.467,0.144 -2.196,0.099 1.764,2.504 4.04,5.365 6.887,8.243 7.936,8.029 20.406,16.156 37.939,16.146 5.929,-10e-4 12.405,-0.93 19.453,-3.063 10.513,-3.181 22.3,-9.048 35.456,-18.559 1.833,-1.325 3.695,-2.728 5.582,-4.196 0.583,0.293 1.196,0.522 1.836,0.638 0.177,0.031 0.351,0.034 0.526,0.05 0.508,0.048 1.013,0.054 1.501,-0.025 0.891,-0.142 1.701,-0.486 2.428,-1.037 0.221,-0.17 0.56,-0.438 0.979,-0.784 0.429,-0.354 0.947,-0.795 1.527,-1.313 0.018,-0.016 0.035,-0.031 0.051,-0.046 z m -6.658,1.185 c -0.125,-0.022 -0.245,-0.067 -0.368,-0.1 -0.928,-0.247 -1.79,-0.764 -2.45,-1.514 -0.299,-0.339 -0.533,-0.708 -0.715,-1.089 -0.355,-0.74 -0.48,-1.525 -0.374,-2.254 0.062,-0.425 0.206,-0.825 0.431,-1.187 0.058,-0.092 0.106,-0.189 0.175,-0.275 0.149,-0.189 0.324,-0.361 0.518,-0.508 0.032,-0.031 0.067,-0.059 0.11,-0.09 0.1,-0.076 0.27,-0.211 0.509,-0.406 0.041,-0.033 0.092,-0.076 0.137,-0.113 0.386,-0.317 0.898,-0.753 1.495,-1.293 1.215,-1.096 2.997,-2.826 4.598,-4.846 l 0.051,-0.063 c 1.762,-2.221 2.985,-4.459 3.447,-6.295 0.027,-0.104 0.073,-0.197 0.109,-0.297 0.112,-0.308 0.253,-0.597 0.452,-0.848 0.227,-0.286 0.503,-0.521 0.813,-0.707 0.944,-0.563 2.212,-0.649 3.434,-0.176 1.04,0.402 1.927,1.148 2.493,2.104 0.563,0.945 0.739,1.984 0.503,2.927 -0.001,0.004 -0.001,0.009 -0.002,0.013 -0.17,0.655 -0.387,1.313 -0.645,1.975 -0.73,1.87 -1.818,3.774 -3.285,5.755 -0.223,0.301 -0.449,0.603 -0.69,0.907 h -0.001 -0.002 c -0.664,0.836 -1.348,1.623 -2.025,2.356 -0.456,0.495 -0.908,0.964 -1.349,1.404 -0.081,0.08 -0.162,0.161 -0.241,0.24 -0.531,0.524 -1.039,1.002 -1.511,1.432 -0.24,0.219 -0.47,0.426 -0.688,0.617 -0.657,0.577 -1.205,1.03 -1.586,1.337 -0.205,0.164 -0.366,0.29 -0.466,0.367 -0.797,0.606 -1.806,0.819 -2.877,0.627 z"
         id="path3653" />
      <ellipse
         transform="matrix(0.4832,-0.8755,0.8755,0.4832,28.7519,93.707)"
         cx="93.750999"
         cy="22.499001"
         rx="22.493999"
         ry="22.496"
         id="ellipse3655" />
      <path
         inkscape:connector-curvature="0"
         d="m 45.844,45.94 c 1.033,-3.838 4.199,-6.693 8.08,-7.318 1.399,-0.225 2.807,-0.15 4.186,0.221 5.324,1.432 8.489,6.928 7.055,12.258 -0.014,0.064 -0.043,0.219 -0.086,0.441 -0.094,0.506 -0.227,1.344 -0.326,2.434 -0.185,2.076 -0.271,5.387 0.369,9.357 0.095,0.556 0.217,1.1 0.332,1.647 1.125,-2.185 2.209,-4.279 3.201,-6.237 5.469,-8.795 5.1,-21.279 -2.537,-25.65 -7.635,-4.369 -20.807,-3.277 -29.633,9.443 -12.039,17.56 -17.018,29.8 -20.574,51.88 -1.055,12.594 4.742,18.208 11.506,21.212 1.427,3.298 3.319,9.095 3.308,16.388 -0.013,5.911 -1.169,12.848 -4.967,20.853 -3.813,7.993 -10.348,17.119 -21.515,26.956 -5.183,4.561 -5.687,12.461 -1.126,17.644 4.561,5.18 12.46,5.685 17.643,1.124 13.309,-11.707 22.135,-23.562 27.567,-34.972 1.25,-2.616 2.316,-5.206 3.217,-7.756 0.064,1.099 0.099,2.224 0.101,3.377 -0.004,7.292 -1.324,15.787 -4.904,25.729 -2.339,6.496 1.028,13.658 7.521,15.998 1.4,0.504 2.832,0.744 4.239,0.744 5.122,0 9.924,-3.17 11.759,-8.266 4.469,-12.388 6.389,-23.846 6.385,-34.205 0.032,-21.499 -8.315,-37.763 -16.546,-48.11 -3.331,-4.208 -6.625,-7.512 -9.435,-10.009 0.881,-3.84 2.075,-7.685 3.471,-11.476 C 48.496,80.584 46.247,72.203 45.375,66.496 43.665,55.788 45.301,48.053 45.844,45.94 Z"
         id="path3657" />
      <path
         inkscape:connector-curvature="0"
         d="m 80.208,112.651 c 0.378,0.244 0.748,0.49 1.133,0.732 0.683,0.433 1.406,0.744 2.147,0.949 1.121,0.31 2.282,0.371 3.402,0.191 0.448,-0.072 0.887,-0.191 1.317,-0.339 0.64,-0.218 1.254,-0.511 1.825,-0.887 0.916,-0.604 1.723,-1.405 2.348,-2.392 2.348,-3.709 1.267,-8.608 -2.407,-10.991 0.269,-0.65 0.497,-1.299 0.69,-1.946 0.064,-0.217 0.134,-0.434 0.19,-0.65 0.377,-1.469 0.122,-3.053 -0.717,-4.455 -0.793,-1.34 -2.033,-2.387 -3.491,-2.951 -1.064,-0.412 -2.193,-0.541 -3.262,-0.369 -0.92,0.148 -1.754,0.528 -2.451,1.076 -0.304,0.24 -0.589,0.502 -0.832,0.807 -0.174,0.224 -0.314,0.468 -0.449,0.716 C 70.099,83.588 65.938,74.982 64.035,67.749 63.66,66.326 63.371,64.955 63.147,63.65 c -0.656,-4.067 -0.596,-7.512 -0.385,-9.856 0.106,-1.172 0.248,-2.07 0.351,-2.625 0.054,-0.281 0.094,-0.475 0.119,-0.574 l 10e-4,-0.018 c 1.148,-4.266 -1.377,-8.658 -5.644,-9.805 -4.265,-1.15 -8.654,1.375 -9.805,5.643 v -0.002 c -0.188,0.734 -2.227,8.545 -0.434,19.777 0.957,6.259 3.256,13.569 7.683,21.062 3.509,5.939 8.355,11.992 14.942,17.729 -0.135,0.11 -0.243,0.195 -0.265,0.216 -0.088,0.063 -0.166,0.123 -0.236,0.186 -0.292,0.23 -0.559,0.498 -0.791,0.789 -0.054,0.068 -0.089,0.146 -0.14,0.218 -1.459,2.057 -1.198,5.016 0.687,7.153 1.043,1.186 2.452,1.988 3.968,2.262 0.688,0.121 1.37,0.131 2.026,0.025 0.891,-0.142 1.701,-0.486 2.428,-1.037 0.221,-0.17 0.56,-0.438 0.979,-0.784 0.429,-0.354 0.947,-0.795 1.528,-1.313 0.016,-0.016 0.032,-0.03 0.049,-0.045 z m -3.78,0.56 c -0.799,0.604 -1.809,0.816 -2.879,0.625 -1.069,-0.191 -2.07,-0.764 -2.817,-1.613 -1.222,-1.386 -1.467,-3.231 -0.658,-4.529 0.058,-0.092 0.106,-0.189 0.175,-0.275 0.149,-0.189 0.324,-0.361 0.519,-0.508 0.032,-0.031 0.067,-0.059 0.11,-0.09 0.1,-0.076 0.27,-0.211 0.509,-0.406 0.041,-0.033 0.092,-0.076 0.137,-0.113 0.386,-0.317 0.898,-0.753 1.495,-1.293 1.215,-1.096 2.997,-2.826 4.598,-4.846 l 0.051,-0.063 c 1.762,-2.221 2.985,-4.459 3.447,-6.295 0.027,-0.104 0.073,-0.197 0.109,-0.297 0.112,-0.308 0.254,-0.597 0.452,-0.848 0.227,-0.286 0.503,-0.521 0.814,-0.707 0.944,-0.563 2.212,-0.649 3.434,-0.176 1.04,0.402 1.927,1.148 2.493,2.104 0.563,0.945 0.739,1.984 0.503,2.927 -0.001,0.004 -0.001,0.009 -0.002,0.013 -0.17,0.655 -0.387,1.313 -0.646,1.975 -0.729,1.87 -1.818,3.773 -3.285,5.755 -0.223,0.301 -0.449,0.603 -0.689,0.907 h -0.001 -0.002 c -0.664,0.836 -1.348,1.623 -2.025,2.357 -0.54,0.585 -1.074,1.135 -1.589,1.643 -0.531,0.524 -1.039,1.003 -1.511,1.433 -0.24,0.219 -0.471,0.426 -0.688,0.617 -0.657,0.577 -1.205,1.03 -1.586,1.337 -0.207,0.163 -0.368,0.289 -0.468,0.366 z"
         id="path3659" />
    </g>
  </g>
</svg>
