<?xml version="1.0" encoding="UTF-8" standalone="no"?>
<svg
   xmlns:dc="http://purl.org/dc/elements/1.1/"
   xmlns:cc="http://creativecommons.org/ns#"
   xmlns:rdf="http://www.w3.org/1999/02/22-rdf-syntax-ns#"
   xmlns:svg="http://www.w3.org/2000/svg"
   xmlns="http://www.w3.org/2000/svg"
   xmlns:sodipodi="http://sodipodi.sourceforge.net/DTD/sodipodi-0.dtd"
   xmlns:inkscape="http://www.inkscape.org/namespaces/inkscape"
   width="20"
   height="20"
   viewBox="0 0 20 20"
   version="1.1"
   id="svg838"
   inkscape:version="1.0.1 (3bc2e813f5, 2020-09-07)"
   sodipodi:docname="bg_soldier.svg">
  <defs
     id="defs832" />
  <sodipodi:namedview
     id="base"
     pagecolor="#ffffff"
     bordercolor="#666666"
     borderopacity="1.0"
     inkscape:pageopacity="0.0"
     inkscape:pageshadow="2"
     inkscape:zoom="15.839192"
     inkscape:cx="8.9739131"
     inkscape:cy="8.0416759"
     inkscape:document-units="mm"
     inkscape:current-layer="layer1"
     inkscape:document-rotation="0"
     showgrid="false"
     units="px"
     inkscape:window-width="1301"
     inkscape:window-height="1040"
     inkscape:window-x="52"
     inkscape:window-y="0"
     inkscape:window-maximized="0"
     inkscape:pagecheckerboard="true" />
  <metadata
     id="metadata835">
    <rdf:RDF>
      <cc:Work
         rdf:about="">
        <dc:format>image/svg+xml</dc:format>
        <dc:type
           rdf:resource="http://purl.org/dc/dcmitype/StillImage" />
        <dc:title />
      </cc:Work>
    </rdf:RDF>
  </metadata>
  <g
     inkscape:label="Layer 1"
     inkscape:groupmode="layer"
     id="layer1">
    <path
       d="m 15.48998,14.480792 c 1.031186,-1.262347 1.597997,-2.844569 1.597997,-4.48075 0,-1.364092 -0.389839,-2.6824587 -1.122874,-3.823623 l 1.10824,-2.9554607 c 0.03156,-0.08391 0.01098,-0.1785704 -0.05235,-0.2419062 -0.0631,-0.063332 -0.158224,-0.083678 -0.242136,-0.05235 l -2.95523,1.1082407 C 12.682463,3.3019084 11.364098,2.912069 10.000004,2.912069 c -1.3647801,0 -2.6815438,0.390296 -3.82271,1.123103 L 3.2211377,2.9264637 C 3.1365345,2.8951348 3.0423362,2.9154812 2.9790042,2.9788325 2.9156722,3.0423957 2.8950946,3.1370564 2.9264234,3.220966 L 4.0346636,6.1764267 C 3.3018585,7.317591 2.9120191,8.6359577 2.9120191,10.00005 c 0,1.636181 0.5668087,3.218403 1.5979966,4.48075 l -1.5310038,1.531004 c -0.089401,0.0894 -0.089401,0.233902 0,0.323303 l 0.6859333,0.685933 c 0.044585,0.04459 0.1031191,0.06699 0.1616535,0.06699 0.058534,0 0.1170688,-0.02241 0.1616536,-0.06699 l 1.5309922,-1.531011 c 1.2623486,1.031187 2.8443397,1.597996 4.4807497,1.597996 1.6364098,0 3.2184008,-0.566809 4.4807478,-1.597996 l 1.531006,1.531003 c 0.04458,0.04458 0.103119,0.06699 0.161653,0.06699 0.05854,0 0.117069,-0.02241 0.161654,-0.06699 l 0.685933,-0.685933 c 0.0894,-0.0894 0.0894,-0.233902 0,-0.323303 z M 5.8146543,13.176146 C 5.1234611,12.265454 4.7411687,11.148983 4.7411687,10.000042 c 0,-0.9509313 0.2574531,-1.8751138 0.7405795,-2.6863449 L 5.9799649,7.456141 7.7636202,9.6854265 c 0.040693,0.05075 0.1010576,0.081848 0.1659888,0.085509 0.00405,4.566e-4 0.00828,4.566e-4 0.012524,4.566e-4 0.060596,0 0.1188992,-0.024007 0.1616535,-0.066993 L 8.3994236,9.408762 8.990698,10.000037 Z M 7.273178,6.4194677 8.3112251,7.2499046 7.2498567,8.311273 6.4194198,7.2732278 Z M 7.9611709,9.2004736 7.5372629,8.6704753 8.6704254,7.5373108 9.2004237,7.9612188 Z M 9.314061,9.6767389 8.7227846,9.0854645 l 0.36263,-0.36263 0.5912763,0.5912744 z M 9.9999942,8.9908056 9.4087198,8.3995312 9.704357,8.1038921 C 9.75031,8.0579391 9.774779,7.9943761 9.770887,7.9296569 9.767227,7.8647259 9.73636,7.8043609 9.685609,7.7636682 L 7.456095,5.9800109 7.3138823,5.4817942 C 8.1248861,4.9986677 9.0490666,4.7412147 10,4.7412147 c 0.950933,0 1.875114,0.257453 2.686116,0.7408088 L 12.543903,5.9802401 10.31439,7.7638974 c -0.05075,0.040693 -0.08164,0.1008264 -0.08528,0.1659888 -0.0039,0.064931 0.02058,0.1282631 0.06653,0.1742352 l 0.29564,0.2954098 z M 12.750132,8.311273 11.688763,7.2499046 12.72681,6.4194677 13.580569,7.2732278 Z m -1.950567,-0.3500542 0.529998,-0.423908 1.133163,1.1331645 -0.423908,0.5299983 z m 1.096579,1.7431861 c 0.04275,0.042986 0.101058,0.066993 0.161654,0.066993 0.0044,0 0.0085,0 0.01272,-2.273e-4 0.0647,-0.00366 0.125296,-0.034758 0.165989,-0.085509 L 14.02016,7.456378 14.518377,7.3139341 c 0.482668,0.8112311 0.74035,1.7351843 0.74035,2.6861159 0,1.148941 -0.382294,2.265412 -1.073485,3.176103 L 11.009138,10.00005 11.600415,9.4087754 Z M 15.313695,6.6108432 13.953487,6.99954 13.000496,6.0465489 13.389193,4.6861138 16.468578,3.5314584 Z M 6.6107953,4.6861138 6.9994902,6.0465489 6.0464991,6.99954 4.6862932,6.6108432 3.5314085,3.5314584 Z m -2.7842062,11.8499632 -0.36263,-0.36263 7.4506129,-7.4506125 0.36263,0.36263 z m 6.1734051,-5.526796 3.1761018,3.176101 c -0.910692,0.691193 -2.027163,1.073488 -3.1761018,1.073488 -1.149168,0 -2.2654119,-0.382295 -3.1761033,-1.073488 z m 6.1734048,5.526795 -5.850102,-5.8501 0.36263,-0.362632 5.850102,5.850102 z"
       id="path2"
       style="stroke-width:0.228644"
       sodipodi:nodetypes="cscccccscccccsccscsccscsscscccsccccscccccccccccccccccccccsccccsccccccccccccccccccsccccscccccccccccccccccccccccsccccccc" />
  </g>
</svg>
