<?xml version="1.0" encoding="UTF-8" standalone="no"?>
<svg
   xmlns:dc="http://purl.org/dc/elements/1.1/"
   xmlns:cc="http://creativecommons.org/ns#"
   xmlns:rdf="http://www.w3.org/1999/02/22-rdf-syntax-ns#"
   xmlns:svg="http://www.w3.org/2000/svg"
   xmlns="http://www.w3.org/2000/svg"
   xmlns:sodipodi="http://sodipodi.sourceforge.net/DTD/sodipodi-0.dtd"
   xmlns:inkscape="http://www.inkscape.org/namespaces/inkscape"
   width="20"
   height="20"
   viewBox="0 0 20 20"
   version="1.1"
   id="svg838"
   inkscape:version="1.0.1 (3bc2e813f5, 2020-09-07)"
   sodipodi:docname="bg_thief.svg">
  <defs
     id="defs832" />
  <sodipodi:namedview
     id="base"
     pagecolor="#ffffff"
     bordercolor="#666666"
     borderopacity="1.0"
     inkscape:pageopacity="0.0"
     inkscape:pageshadow="2"
     inkscape:zoom="15.839192"
     inkscape:cx="17.256694"
     inkscape:cy="5.230951"
     inkscape:document-units="mm"
     inkscape:current-layer="layer1"
     inkscape:document-rotation="0"
     showgrid="false"
     units="px"
     inkscape:window-width="1267"
     inkscape:window-height="1040"
     inkscape:window-x="637"
     inkscape:window-y="0"
     inkscape:window-maximized="0"
     inkscape:pagecheckerboard="true" />
  <metadata
     id="metadata835">
    <rdf:RDF>
      <cc:Work
         rdf:about="">
        <dc:format>image/svg+xml</dc:format>
        <dc:type
           rdf:resource="http://purl.org/dc/dcmitype/StillImage" />
        <dc:title />
      </cc:Work>
    </rdf:RDF>
  </metadata>
  <g
     inkscape:label="Layer 1"
     inkscape:groupmode="layer"
     id="layer1">
    <g
       id="g8"
       transform="matrix(0.24854937,0,0,0.24854937,-4.0652735,0)">
      <g
         id="g6">
        <path
           d="M 59.562,43.206 49.288,32.932 h 9.104 l 3.574,6.192 v 3.254 c 0,2.944 2.321,5.356 5.229,5.504 V 47.638 34.33 l -3.186,-5.517 10.562,6.098 c 2.771,1.6 6.315,0.651 7.917,-2.121 L 67.72,24.264 h 11.969 c 3.201,0 5.796,-2.595 5.796,-5.794 H 67.299 l 5.172,-2.986 c 2.332,-1.346 3.234,-4.229 2.171,-6.638 L 58.021,18.44 57.973,18.468 H 34.824 L 16.356,0 9.724,19.163 51.366,43.206 59.56,51.4 c 2.263,-2.262 2.263,-5.931 0.002,-8.194 z"
           id="path2" />
        <path
           d="m 86.85,61.635 1.492,-5.571 -25.078,-6.719 -3.294,12.29 h -3.924 v 28.484 c 0,0 -0.596316,9.880969 17.114,9.881 17.01541,3e-5 17.115,-9.881 17.115,-9.881 V 61.635 Z M 64.7,51.832 85.853,57.501 84.746,61.635 H 62.074 Z"
           id="path4"
           sodipodi:nodetypes="ccccccscccccccc" />
      </g>
    </g>
  </g>
</svg>
