<?xml version="1.0" encoding="UTF-8" standalone="no"?>
<svg
   xmlns:dc="http://purl.org/dc/elements/1.1/"
   xmlns:cc="http://creativecommons.org/ns#"
   xmlns:rdf="http://www.w3.org/1999/02/22-rdf-syntax-ns#"
   xmlns:svg="http://www.w3.org/2000/svg"
   xmlns="http://www.w3.org/2000/svg"
   xmlns:sodipodi="http://sodipodi.sourceforge.net/DTD/sodipodi-0.dtd"
   xmlns:inkscape="http://www.inkscape.org/namespaces/inkscape"
   width="20"
   height="20"
   viewBox="0 0 20 20"
   version="1.1"
   id="svg838"
   inkscape:version="1.0.1 (3bc2e813f5, 2020-09-07)"
   sodipodi:docname="bg_wiseman.svg">
  <defs
     id="defs832" />
  <sodipodi:namedview
     id="base"
     pagecolor="#ffffff"
     bordercolor="#666666"
     borderopacity="1.0"
     inkscape:pageopacity="0.0"
     inkscape:pageshadow="2"
     inkscape:zoom="15.839192"
     inkscape:cx="12.686043"
     inkscape:cy="10.77133"
     inkscape:document-units="mm"
     inkscape:current-layer="layer1"
     inkscape:document-rotation="0"
     showgrid="false"
     units="px"
     inkscape:window-width="1267"
     inkscape:window-height="1040"
     inkscape:window-x="52"
     inkscape:window-y="0"
     inkscape:window-maximized="0"
     inkscape:pagecheckerboard="true" />
  <metadata
     id="metadata835">
    <rdf:RDF>
      <cc:Work
         rdf:about="">
        <dc:format>image/svg+xml</dc:format>
        <dc:type
           rdf:resource="http://purl.org/dc/dcmitype/StillImage" />
        <dc:title />
      </cc:Work>
    </rdf:RDF>
  </metadata>
  <g
     inkscape:label="Layer 1"
     inkscape:groupmode="layer"
     id="layer1">
    <g
       style="fill:#000000"
       id="g4986"
       transform="matrix(0.18824341,0,0,0.18824341,0.68195118,2.0827535)">
      <path
         id="path4969"
         d="m 34.032,26.214 c 0,1.833 1.491,3.324 3.324,3.324 1.833,0 3.324,-1.491 3.324,-3.324 0,-1.833 -1.491,-3.324 -3.324,-3.324 -1.833,-0.001 -3.324,1.491 -3.324,3.324 z"
         inkscape:connector-curvature="0" />
      <path
         id="path4971"
         d="m 66.375,26.214 c 0,-1.833 -1.491,-3.324 -3.324,-3.324 -1.833,0 -3.324,1.491 -3.324,3.324 0,1.833 1.491,3.324 3.324,3.324 1.833,0 3.324,-1.491 3.324,-3.324 z"
         inkscape:connector-curvature="0" />
      <path
         id="path4973"
         d="m 50.213,1 h -0.01 C 31.336,1 16,15.257 16,34.124 V 97 h 0.051 C 34.095,97 48,74.728 48,48.968 V 49 h 3 v -0.032 c 0,6.643 -0.614,13.087 -2.432,19.155 -1.763,5.882 -4.137,11.169 -7.362,15.714 -3.25,4.582 -6.969,8.637 -11.207,11.162 -2.972,1.771 -5.995,3.021 -9.184,4.001 9.446,0 29.396,0 29.388,0 h 0.01 C 69.079,99 83,82.666 83,63.8 V 34.124 C 83,15.257 69.079,1 50.213,1 Z m 2.405,28 c 1.468,0 2.069,0.762 1.335,2.033 l -2.417,4.047 c -0.734,1.272 -1.935,1.202 -2.67,-0.07 L 46.449,31.067 C 45.715,29.797 46.316,29 47.784,29 Z m 14.662,8.333 c -4.582,2.658 -10.644,4.121 -17.069,4.121 -6.425,0 -12.487,-1.464 -17.069,-4.122 -4.82,-2.796 -7.477,-6.597 -7.483,-10.703 l -0.008,-0.415 c 0,-6.454 5.251,-11.311 11.704,-11.311 C 43.81,14.902 49.061,21 49.061,27 h -2.842 c 0,-4 -3.976,-9.256 -8.863,-9.256 -4.882,0 -8.855,3.772 -8.863,8.652 l 0.008,0.315 c 0,3.057 2.155,5.941 6.067,8.211 4.156,2.411 9.711,3.714 15.643,3.714 5.932,0 11.487,-1.34 15.643,-3.751 3.907,-2.266 6.061,-5.201 6.067,-8.253 l -0.008,-0.417 c 0,-4.887 -3.976,-8.471 -8.863,-8.471 -4.887,0 -8.863,5.254 -8.863,9.254 h -2.842 c 0,-6 5.251,-12.098 11.704,-12.098 6.449,0 11.697,5.046 11.704,11.493 l 0.008,0.316 c 0.002,4.115 -2.655,7.825 -7.481,10.624 z M 43.522,26.214 c 0,3.4 -2.766,6.166 -6.166,6.166 -3.4,0 -6.166,-2.766 -6.166,-6.166 0,-3.4 2.766,-6.166 6.166,-6.166 3.4,-10e-4 6.166,2.766 6.166,6.166 z m 13.363,0 c 0,-3.4 2.766,-6.166 6.166,-6.166 3.4,0 6.166,2.766 6.166,6.166 0,3.4 -2.766,6.166 -6.166,6.166 -3.4,0 -6.166,-2.766 -6.166,-6.166 z"
         inkscape:connector-curvature="0" />
    </g>
  </g>
</svg>
