<?xml version="1.0" encoding="UTF-8" standalone="no"?>
<svg
   xmlns:dc="http://purl.org/dc/elements/1.1/"
   xmlns:cc="http://creativecommons.org/ns#"
   xmlns:rdf="http://www.w3.org/1999/02/22-rdf-syntax-ns#"
   xmlns:svg="http://www.w3.org/2000/svg"
   xmlns="http://www.w3.org/2000/svg"
   xmlns:sodipodi="http://sodipodi.sourceforge.net/DTD/sodipodi-0.dtd"
   xmlns:inkscape="http://www.inkscape.org/namespaces/inkscape"
   width="20"
   height="20"
   viewBox="0 0 20 20"
   version="1.1"
   id="svg838"
   inkscape:version="1.0.1 (3bc2e813f5, 2020-09-07)"
   sodipodi:docname="bg_wildman.svg">
  <defs
     id="defs832" />
  <sodipodi:namedview
     id="base"
     pagecolor="#ffffff"
     bordercolor="#666666"
     borderopacity="1.0"
     inkscape:pageopacity="0.0"
     inkscape:pageshadow="2"
     inkscape:zoom="15.839192"
     inkscape:cx="12.686043"
     inkscape:cy="10.77133"
     inkscape:document-units="mm"
     inkscape:current-layer="layer1"
     inkscape:document-rotation="0"
     showgrid="false"
     units="px"
     inkscape:window-width="1267"
     inkscape:window-height="1040"
     inkscape:window-x="52"
     inkscape:window-y="0"
     inkscape:window-maximized="0"
     inkscape:pagecheckerboard="true" />
  <metadata
     id="metadata835">
    <rdf:RDF>
      <cc:Work
         rdf:about="">
        <dc:format>image/svg+xml</dc:format>
        <dc:type
           rdf:resource="http://purl.org/dc/dcmitype/StillImage" />
        <dc:title></dc:title>
      </cc:Work>
    </rdf:RDF>
  </metadata>
  <g
     inkscape:label="Layer 1"
     inkscape:groupmode="layer"
     id="layer1">
    <g
       id="g1921"
       transform="matrix(0.03942867,0,0,0.03942867,-0.09373952,-0.09373952)">
      <path
         inkscape:connector-curvature="0"
         d="m 265.317,511.002 c -8.837,0 -16,-7.164 -16,-16 V 360 c 0,-8.836 7.163,-16 16,-16 8.837,0 16,7.164 16,16 v 135.002 c 0,8.836 -7.163,16 -16,16 z"
         id="path1881" />
      <path
         inkscape:connector-curvature="0"
         d="m 190.187,240.793 c -7.067,-2.047 -11.827,-8.65 -11.535,-16.002 0.016,-0.405 0.034,-0.81 0.034,-1.218 0,-16.938 -13.78,-30.719 -30.719,-30.719 -16.938,0 -30.718,13.78 -30.718,30.719 0,0.446 0.017,0.888 0.035,1.329 0.318,7.292 -4.34,13.875 -11.323,16.002 -13.01,3.962 -21.751,15.772 -21.751,29.387 0,16.938 13.78,30.719 30.719,30.719 8.309,0 16.095,-3.272 21.925,-9.215 3.009,-3.067 7.124,-4.795 11.421,-4.795 4.297,0 8.412,1.728 11.421,4.795 5.83,5.942 13.616,9.215 21.925,9.215 16.938,0 30.719,-13.78 30.719,-30.719 -0.001,-13.59 -9.111,-25.72 -22.153,-29.498 z"
         id="path1883" />
      <path
         inkscape:connector-curvature="0"
         d="m 148.274,476.069 c -8.837,0 -16,-7.164 -16,-16 V 303 c 0,-8.836 7.163,-16 16,-16 8.837,0 16,7.164 16,16 v 157.069 c 0,8.836 -7.163,16 -16,16 z"
         id="path1885" />
      <path
         inkscape:connector-curvature="0"
         d="m 363.726,476.069 c -8.837,0 -16,-7.164 -16,-16 V 303 c 0,-8.836 7.163,-16 16,-16 8.837,0 16,7.164 16,16 v 157.069 c 0,8.836 -7.164,16 -16,16 z"
         id="path1887" />
      <path
         inkscape:connector-curvature="0"
         d="m 508.808,504.562 c 0.159,-0.212 0.326,-0.418 0.474,-0.639 0.136,-0.203 0.254,-0.419 0.382,-0.628 0.14,-0.229 0.288,-0.453 0.416,-0.69 0.117,-0.217 0.214,-0.445 0.322,-0.668 0.117,-0.243 0.244,-0.48 0.349,-0.729 0.098,-0.232 0.174,-0.474 0.26,-0.712 0.092,-0.251 0.195,-0.498 0.275,-0.755 0.08,-0.257 0.135,-0.524 0.202,-0.787 0.063,-0.248 0.138,-0.49 0.189,-0.743 0.058,-0.286 0.09,-0.581 0.133,-0.872 0.035,-0.238 0.083,-0.472 0.108,-0.714 0.032,-0.313 0.035,-0.634 0.048,-0.952 0.009,-0.225 0.034,-0.445 0.034,-0.672 0,-0.003 0,-0.005 0,-0.008 0,-0.003 0,-0.006 0,-0.008 l -0.132,-129.727 c -0.009,-8.831 -7.17,-15.984 -16,-15.984 -17.28,0 -34.017,4.95 -48.373,14.144 -11.961,-9.108 -26.642,-14.144 -41.976,-14.144 -38.247,0 -69.363,31.116 -69.363,69.363 0,14.296 4.286,27.908 12.258,39.398 -3.618,6.639 -6.543,13.685 -8.734,20.966 H 172.344 C 161.764,443.543 134.333,416.478 100.615,408.538 95.046,393.215 85.309,379.5 72.518,369.175 56.622,356.342 36.596,349.274 16.132,349.274 c -8.83,0 -15.991,7.153 -16,15.984 L 0,494.986 c 0,0.003 0,0.005 0,0.008 0,0.002 0,0.005 0,0.008 0,0.227 0.025,0.448 0.034,0.672 0.013,0.318 0.016,0.639 0.048,0.952 0.024,0.241 0.073,0.475 0.108,0.714 0.043,0.292 0.075,0.586 0.133,0.872 0.052,0.252 0.126,0.495 0.189,0.743 0.067,0.262 0.123,0.53 0.202,0.787 0.08,0.257 0.182,0.504 0.275,0.755 0.087,0.238 0.163,0.48 0.26,0.712 0.105,0.249 0.231,0.486 0.349,0.729 0.107,0.223 0.205,0.451 0.322,0.668 0.128,0.237 0.276,0.46 0.416,0.69 0.127,0.209 0.245,0.425 0.382,0.628 0.148,0.22 0.315,0.426 0.474,0.639 0.148,0.198 0.287,0.402 0.443,0.593 0.166,0.202 0.349,0.388 0.525,0.582 0.168,0.185 0.328,0.377 0.504,0.554 0.181,0.181 0.377,0.346 0.566,0.519 0.188,0.172 0.37,0.352 0.567,0.515 0.195,0.162 0.404,0.306 0.607,0.458 0.206,0.155 0.406,0.318 0.62,0.463 0.212,0.144 0.437,0.269 0.656,0.403 0.219,0.134 0.432,0.276 0.658,0.4 0.227,0.124 0.466,0.228 0.699,0.341 0.231,0.112 0.457,0.234 0.695,0.335 0.242,0.103 0.493,0.185 0.741,0.276 0.241,0.089 0.477,0.188 0.724,0.265 0.255,0.08 0.52,0.138 0.781,0.206 0.249,0.065 0.494,0.139 0.748,0.192 0.266,0.055 0.541,0.087 0.812,0.129 0.258,0.04 0.511,0.09 0.772,0.118 0.271,0.028 0.549,0.032 0.823,0.047 0.252,0.013 0.501,0.042 0.756,0.043 L 159.732,512 c 0.038,0 0.074,0 0.111,0 1.904,0 3.762,-0.356 5.51,-0.998 h 181.292 c 1.748,0.642 3.607,0.998 5.511,0.998 0.037,0 0.074,0 0.111,0 l 143.844,-0.998 c 0.255,-0.002 0.503,-0.03 0.756,-0.043 0.275,-0.015 0.552,-0.019 0.823,-0.047 0.261,-0.028 0.515,-0.078 0.772,-0.118 0.271,-0.042 0.545,-0.074 0.812,-0.129 0.254,-0.053 0.499,-0.128 0.748,-0.192 0.261,-0.068 0.525,-0.125 0.781,-0.206 0.247,-0.077 0.483,-0.176 0.724,-0.265 0.248,-0.091 0.499,-0.173 0.741,-0.276 0.237,-0.101 0.463,-0.222 0.695,-0.335 0.234,-0.113 0.472,-0.217 0.699,-0.341 0.226,-0.124 0.439,-0.266 0.658,-0.4 0.219,-0.134 0.444,-0.259 0.656,-0.403 0.214,-0.145 0.414,-0.308 0.62,-0.463 0.203,-0.153 0.412,-0.297 0.607,-0.458 0.197,-0.163 0.378,-0.343 0.567,-0.515 0.189,-0.173 0.385,-0.337 0.566,-0.519 0.176,-0.177 0.336,-0.369 0.504,-0.554 0.176,-0.194 0.359,-0.38 0.525,-0.582 0.157,-0.192 0.296,-0.397 0.443,-0.594 z"
         id="path1889" />
      <g
         id="g1893">
        <path
           inkscape:connector-curvature="0"
           d="m 85.879,214.67 c 3.292,-23.061 19.18,-42.107 40.445,-49.953 L 104.703,29.593 C 101.916,12.169 87.646,0 70,0 52.354,0 38.084,12.169 35.297,29.592 L 0.505,247.03 c -0.74,4.626 0.584,9.344 3.624,12.909 3.04,3.565 7.489,5.619 12.175,5.619 h 36.084 c 1.613,-21.889 14.339,-40.964 33.491,-50.888 z"
           id="path1891" />
      </g>
      <g
         id="g1897">
        <path
           inkscape:connector-curvature="0"
           d="m 54,285.135 v 177.883 c 0,8.836 7.163,16 16,16 8.837,0 16,-7.164 16,-16 V 325.912 C 70.189,317.655 58.32,302.862 54,285.135 Z"
           id="path1895" />
      </g>
      <path
         inkscape:connector-curvature="0"
         d="m 405.638,240.793 c -7.067,-2.047 -11.827,-8.65 -11.535,-16.002 0.016,-0.405 0.034,-0.81 0.034,-1.218 0,-16.938 -13.78,-30.719 -30.719,-30.719 -16.938,0 -30.718,13.78 -30.718,30.719 0,0.454 0.018,0.903 0.037,1.352 0.307,7.285 -4.351,13.855 -11.325,15.979 -13.01,3.962 -21.751,15.772 -21.751,29.387 0,16.938 13.78,30.719 30.719,30.719 8.309,0 16.095,-3.272 21.925,-9.215 3.009,-3.067 7.124,-4.795 11.421,-4.795 4.297,0 8.412,1.728 11.421,4.795 5.83,5.942 13.616,9.215 21.925,9.215 16.938,0 30.719,-13.78 30.719,-30.719 -10e-4,-13.59 -9.11,-25.72 -22.153,-29.498 z"
         id="path1899" />
      <g
         id="g1903">
        <path
           inkscape:connector-curvature="0"
           d="m 330.438,333.009 c -0.02,0 -0.039,10e-4 -0.058,10e-4 -34.583,0 -62.719,-28.136 -62.719,-62.719 0,-23.85 13.147,-44.988 33.669,-55.621 1.059,-7.416 3.427,-14.413 6.851,-20.761 l -7.861,-49.13 c -2.812,-17.573 -17.204,-29.847 -35.001,-29.847 -0.001,0 0,0 -0.001,0 -17.796,0 -32.19,12.274 -35.003,29.847 l -11.958,74.737 c 15.917,11.588 25.983,30.373 25.983,50.775 0,27.942 -18.372,51.667 -43.668,59.751 l -5.698,35.614 c -0.74,4.626 0.584,9.344 3.624,12.909 3.04,3.565 7.489,5.619 12.175,5.619 h 109.092 c 4.686,0 9.135,-2.053 12.175,-5.619 3.04,-3.565 4.364,-8.283 3.624,-12.909 z"
           id="path1901" />
      </g>
      <g
         id="g1909">
        <path
           inkscape:connector-curvature="0"
           d="m 408.078,332.023 v 56.046 c 0,8.836 7.163,16 16,16 8.837,0 16,-7.164 16,-16 v -72.19 c -8.7,8.212 -19.737,13.963 -32,16.144 z"
           id="path1905" />
        <path
           inkscape:connector-curvature="0"
           d="m 427.79,270.291 c 0,-12.725 -7.988,-24.168 -19.712,-28.675 v 57.347 c 11.516,-4.436 19.712,-15.612 19.712,-28.672 z"
           id="path1907" />
      </g>
      <g
         id="g1915">
        <path
           inkscape:connector-curvature="0"
           d="M 510.907,247.03 476.116,29.592 C 473.328,12.168 459.058,0 441.412,0 423.767,0 409.497,12.169 406.71,29.592 l -7.833,48.951 c 6.375,9.357 10.645,20.258 12.083,32.028 24.922,11.939 41.509,37.525 41.509,65.767 0,17.124 -5.951,32.874 -15.875,45.327 13.11,10.719 21.681,26.542 23.01,43.893 h 35.504 c 4.686,0 9.135,-2.053 12.175,-5.619 3.04,-3.565 4.364,-8.283 3.624,-12.909 z"
           id="path1911" />
        <path
           inkscape:connector-curvature="0"
           d="m 417.439,191.757 c 1.947,-4.761 3.029,-9.965 3.029,-15.419 0,-18.083 -12.121,-34.223 -29.478,-39.251 -0.48,-0.139 -0.947,-0.303 -1.404,-0.483 l -4.5,28.121 c 13.634,5.037 25.048,14.682 32.353,27.032 z"
           id="path1913" />
      </g>
      <path
         inkscape:connector-curvature="0"
         d="m 390.991,137.087 c -7.063,-2.046 -11.823,-8.645 -11.536,-15.994 0.021,-0.541 0.045,-1.083 0.045,-1.629 0,-22.538 -18.336,-40.874 -40.874,-40.874 -13.777,0 -25.974,6.858 -33.383,17.333 13.882,10.166 23.762,25.597 26.675,43.8 l 4.371,27.316 c 8.216,-3.959 17.416,-6.186 27.129,-6.186 22.977,0 43.096,12.428 54.02,30.907 1.948,-4.762 3.031,-9.967 3.031,-15.423 0,-18.081 -12.121,-34.222 -29.478,-39.25 z"
         id="path1917" />
      <path
         inkscape:connector-curvature="0"
         d="M 198.717,139.722 C 203.26,111.334 224.735,89.676 251.94,84.259 238.566,68.372 218.556,58.25 196.21,58.25 c -19.914,0 -37.984,8.032 -51.15,21.022 l 13.191,82.441 c 13.222,2.191 25.057,8.533 34.126,17.633 z"
         id="path1919" />
    </g>
  </g>
</svg>
