<?xml version="1.0" encoding="UTF-8" standalone="no"?>
<svg
   xmlns:dc="http://purl.org/dc/elements/1.1/"
   xmlns:cc="http://creativecommons.org/ns#"
   xmlns:rdf="http://www.w3.org/1999/02/22-rdf-syntax-ns#"
   xmlns:svg="http://www.w3.org/2000/svg"
   xmlns="http://www.w3.org/2000/svg"
   xmlns:sodipodi="http://sodipodi.sourceforge.net/DTD/sodipodi-0.dtd"
   xmlns:inkscape="http://www.inkscape.org/namespaces/inkscape"
   width="20"
   height="20"
   viewBox="0 0 20 20"
   version="1.1"
   id="svg838"
   inkscape:version="1.0.1 (3bc2e813f5, 2020-09-07)"
   sodipodi:docname="bg_whore.svg">
  <defs
     id="defs832" />
  <sodipodi:namedview
     id="base"
     pagecolor="#ffffff"
     bordercolor="#666666"
     borderopacity="1.0"
     inkscape:pageopacity="0.0"
     inkscape:pageshadow="2"
     inkscape:zoom="15.839192"
     inkscape:cx="12.686043"
     inkscape:cy="10.77133"
     inkscape:document-units="mm"
     inkscape:current-layer="layer1"
     inkscape:document-rotation="0"
     showgrid="false"
     units="px"
     inkscape:window-width="1267"
     inkscape:window-height="1040"
     inkscape:window-x="52"
     inkscape:window-y="0"
     inkscape:window-maximized="0"
     inkscape:pagecheckerboard="true" />
  <metadata
     id="metadata835">
    <rdf:RDF>
      <cc:Work
         rdf:about="">
        <dc:format>image/svg+xml</dc:format>
        <dc:type
           rdf:resource="http://purl.org/dc/dcmitype/StillImage" />
        <dc:title></dc:title>
      </cc:Work>
    </rdf:RDF>
  </metadata>
  <g
     inkscape:label="Layer 1"
     inkscape:groupmode="layer"
     id="layer1">
    <g
       id="g3143"
       transform="matrix(2.9780652,0,0,2.9780652,28.296972,-106.51913)">
      <g
         transform="matrix(0.26458333,0,0,0.26458333,96.382128,-43.55651)"
         id="g3100">
        <polygon
           id="polygon3090"
           points="-375.5,305.5 -387.5,300.5 -399.5,305.5 -399.5,306.5 -387.5,302.5 -375.5,306.5 " />
        <polygon
           id="polygon3092"
           points="-396.5,324.5 -396.5,322.5 -378.5,322.5 -378.5,324.5 -376.5,324.5 -376.5,320.5 -396.5,320.5 -396.5,314.5 -398.5,314.5 -398.5,324.5 " />
        <circle
           id="circle3094"
           r="1.5"
           cy="318"
           cx="-394" />
        <circle
           id="circle3096"
           r="1.5"
           cy="314"
           cx="-394" />
        <path
           id="path3098"
           d="m -380.338,315.712 -3.323,-1.424 c -1.011,-0.434 -2.738,-0.788 -3.838,-0.788 h -2 c -1.1,0 -2,0.9 -2,2 v 4 h 13 c 0,0 0,-0.675 0,-1.5 0,-0.825 -0.828,-1.854 -1.839,-2.288 z"
           inkscape:connector-curvature="0" />
      </g>
      <path
         style="stroke-width:0.264583"
         id="path3102"
         d="m -5.2406249,37.428743 c -0.2066396,-0.206639 -0.5416021,-0.206639 -0.7482416,0 -0.1034521,0.103452 -0.1550459,0.238654 -0.1550459,0.374121 0,-0.135467 -0.051594,-0.270669 -0.1550458,-0.374121 -0.2066396,-0.206639 -0.5416021,-0.206639 -0.7482417,0 -0.2066395,0.20664 -0.2066395,0.541602 0,0.748242 0.1034521,0.103452 0.9032875,0.684212 0.9032875,0.684212 0,0 0.7998354,-0.58076 0.9032875,-0.684212 0.2066396,-0.20664 0.2066396,-0.541602 0,-0.748242 z"
         inkscape:connector-curvature="0" />
    </g>
  </g>
</svg>
