<svg version="1.1" viewBox="0 0 20 20" xmlns="http://www.w3.org/2000/svg">
 <g transform="matrix(1.5888,0,0,1.5888,-2.5715,-5.8047)">
  <path d="m3.501 16.708c-0.17215-1.23e-4 -0.31173 0.13946-0.31161 0.31161v0.98028c-1.266e-4 0.17215 0.13946 0.31174 0.31161 0.31162h2.4815c0.17215 1.23e-4 0.31174-0.13947 0.31161-0.31162v-0.98028c1.211e-4 -0.17215-0.13946-0.31173-0.31161-0.31161z" style="fill:#000000"/>
  <path d="m3.3866 16.134 0.69139-1.7746a1.8683 1.8683 0 0 1 1.7409-1.1901h2.5605a0.48551 0.48551 0 0 1 0 0.97101h-1.2209a0.16066 0.16066 0 0 0 0 0.32133h1.942a1.557 1.557 0 0 0 0.88515-0.27609l1.4646-1.0121a0.52533 0.52533 0 0 1 0.64171 0.83004l-1.8039 1.5552a1.2456 1.2456 0 0 1-0.81331 0.30222h-2.4297a1.0877 1.0877 0 0 0-0.86549 0.4853h-2.6481a0.1557 0.1557 0 0 1-0.14499-0.21223z" style="fill:#000000"/>
 </g>
 <path d="m0.37143 11.953a0.062951 0.062951 0 0 0 0.082137 0.0821l0.79073-0.31051a1.8885 1.8885 0 0 1 1.3928 0.0065l0.78875 0.31602a0.062951 0.062951 0 0 0 0.082138-0.08166l-0.3104-0.79087a1.8885 1.8885 0 0 1 0-1.3927l0.31578-0.78866a0.062951 0.062951 0 0 0-0.082137-0.082094l-0.79101 0.31051a1.8885 1.8885 0 0 1-1.3928-0.00648l-0.78846-0.316a0.062951 0.062951 0 0 0-0.082138 0.081229l0.3104 0.79085a1.8885 1.8885 0 0 1 0 1.3927z" style="fill:#6c5d53"/>
 <path d="m18.075 6.2632 0.33702-0.77996a1.8885 1.8885 0 0 1 0.98473-0.98476l0.77997-0.33693a0.062951 0.062951 0 0 0 0-0.11558l-0.77997-0.33697a1.8885 1.8885 0 0 1-0.98473-0.98472l-0.33702-0.78a0.062951 0.062951 0 0 0-0.11612 0l-0.33702 0.78a1.8885 1.8885 0 0 1-0.98473 0.98472l-0.77997 0.33697a0.062951 0.062951 0 0 0 0 0.11558l0.77997 0.33693a1.8885 1.8885 0 0 1 0.98473 0.98476l0.33702 0.77996a0.062951 0.062951 0 0 0 0.11612 0z" style="fill:#6c5d53"/>
 <path d="m15.834 10.067c-0.14956-0.53737-0.50721-1.2525-0.73191-1.6468-0.56302-0.98768-1.2245-2.8288-4.3071-3.04 0 0-2.3962 0.042087-3.1458-0.41165 0 0-0.29551-0.14775-0.47487-0.38004 0 0 0.20032 0.073878 0.49601 0 0 0-0.40118-0.084354-0.78104-0.35873 0 0 0.27456 0.052743 0.50666 0 0 0-0.43279-0.11633-0.84462-0.36957 0 0-0.21098-0.11614-0.29551-0.30599 0 0 0.64394 0.30599 1.1824-0.073878 0 0-0.51732-0.42231-1.2563-0.718 0 0-0.12138-0.50666-0.31159-0.84444-0.18984-0.33778-0.50124-0.27456-0.64376-0.3907-0.14252-0.11614-0.7301-0.5735-1.0187-1.0943-0.28864-0.52093-0.60529 0.056356-0.6546 0.36577-0.04913 0.30978-0.02818 0.78827 0.13367 1.3442 0 0-0.16184 0.10549-0.38709-0.40136-0.22506-0.50666-0.28865 0.64051 0.09844 1.0838 0.38727 0.44344 0.55598 2.1041 0.52798 3.4836-0.02799 1.3795-0.19345 1.71-0.19345 1.71s0.40118-0.22163 0.50666-0.54875c0 0 0.15841 1.0451 0.02114 1.5623 0 0 0.31682-0.22199 0.36957-0.4541 0 0 0.09501 0.82349 0.50684 1.2034 0 0 0.31646 0.33796 0.2639 0.65478 0 0 0.29551-0.32748 0.18984-0.63365 0 0 0.40479 0.46115 0.50341 1.5449 0.09844 1.0838 0.25324 1.9844 0.05618 2.5333-0.19707 0.54893-0.33055 0.718-0.40118 0.79513 0 0-0.52075-0.11958-0.52075 0.46458h1.3865s0.62263-0.81988 0.44326-2.0762 0.48553-1.5727 0.38004-2.5758c0 0 1.214 0.46458 3.7157-0.57007 0 0-0.61251 2.0057 1.8227 2.9208 0 0 0.39431 0.19689-0.43622 1.5202 0 0-0.1566 0.25686-0.35728 0.33579-0.2005 0.0793-0.76532-0.05474-0.49095 0.44525h1.1822s1.6258-2.1816 0.9819-2.604c0 0-0.43279-0.7917-0.2005-1.5621 0.23229-0.77092 0.30599-0.86576 0.59102-0.58072s0.74979 0.9176 0.82692 1.2984c0 0 0.11253 1.0206 0.07063 1.4853 0 0 0.16184 0.0066 0.27456-0.32387 0 0 0.27456 1.0415 0.17593 1.6398 0 0 0.22506-0.12698 0.23915-0.38745 0 0 0.9008 1.0489 1.6468 1.119 0 0 0.3096-0.90766-0.09158-1.8859 0 0 0.24638 0.04931 0.40118-0.06322 0 0-0.62624-0.55598-1.0063-1.1544 0 0 0.30273 0.03523 0.52093-0.06322 0 0-0.98894-0.66182-1.2001-1.2422-0.21116-0.58036-0.16239-0.35909-0.27094-0.74925z" style="fill:#6c5d53;stroke-width:.18063"/>
</svg>
