<svg version="1.1" viewBox="0 0 20 20" xmlns="http://www.w3.org/2000/svg">
 <g transform="matrix(1.5888,0,0,1.5888,-2.5715,-5.8047)">
  <path d="m3.501 16.708c-0.17215-1.23e-4 -0.31173 0.13946-0.31161 0.31161v0.98028c-1.266e-4 0.17215 0.13946 0.31174 0.31161 0.31162h2.4815c0.17215 1.23e-4 0.31174-0.13947 0.31161-0.31162v-0.98028c1.211e-4 -0.17215-0.13946-0.31173-0.31161-0.31161z" style="fill:#000000"/>
  <path d="m3.3866 16.134 0.69139-1.7746a1.8683 1.8683 0 0 1 1.7409-1.1901h2.5605a0.48551 0.48551 0 0 1 0 0.97101h-1.2209a0.16066 0.16066 0 0 0 0 0.32133h1.942a1.557 1.557 0 0 0 0.88515-0.27609l1.4646-1.0121a0.52533 0.52533 0 0 1 0.64171 0.83004l-1.8039 1.5552a1.2456 1.2456 0 0 1-0.81331 0.30222h-2.4297a1.0877 1.0877 0 0 0-0.86549 0.4853h-2.6481a0.1557 0.1557 0 0 1-0.14499-0.21223z" style="fill:#000000"/>
 </g>
 <path d="m0.37143 11.953a0.062951 0.062951 0 0 0 0.082137 0.0821l0.79073-0.31051a1.8885 1.8885 0 0 1 1.3928 0.0065l0.78875 0.31602a0.062951 0.062951 0 0 0 0.082138-0.08166l-0.3104-0.79087a1.8885 1.8885 0 0 1 0-1.3927l0.31578-0.78866a0.062951 0.062951 0 0 0-0.082137-0.082094l-0.79101 0.31051a1.8885 1.8885 0 0 1-1.3928-0.00648l-0.78846-0.316a0.062951 0.062951 0 0 0-0.082138 0.081229l0.3104 0.79085a1.8885 1.8885 0 0 1 0 1.3927z" style="fill:#008080"/>
 <path d="m18.075 6.2632 0.33702-0.77996a1.8885 1.8885 0 0 1 0.98473-0.98476l0.77997-0.33693a0.062951 0.062951 0 0 0 0-0.11558l-0.77997-0.33697a1.8885 1.8885 0 0 1-0.98473-0.98472l-0.33702-0.78a0.062951 0.062951 0 0 0-0.11612 0l-0.33702 0.78a1.8885 1.8885 0 0 1-0.98473 0.98472l-0.77997 0.33697a0.062951 0.062951 0 0 0 0 0.11558l0.77997 0.33693a1.8885 1.8885 0 0 1 0.98473 0.98476l0.33702 0.77996a0.062951 0.062951 0 0 0 0.11612 0z" style="fill:#008080"/>
 <g transform="matrix(.50653 0 0 .50653 1.8605 -.40661)" style="fill:#008080">
  <path d="m26.64 29.5h-1.61v-27.5a0.5 0.5 0 0 0-0.5-0.5h-17.06a0.5 0.5 0 0 0-0.5 0.5v27.5h-1.61a0.5 0.5 0 1 0 0 1h21.28a0.5 0.5 0 0 0 0-1zm-6-2.5a0.5 0.5 0 0 1-0.5 0.5h-8.28a0.5 0.5 0 0 1-0.5-0.5v-5.61a0.5 0.5 0 0 1 0.5-0.5h8.28a0.5 0.5 0 0 1 0.5 0.5zm0-7.8a0.5 0.5 0 0 1-0.5 0.5h-8.28a0.5 0.5 0 0 1-0.5-0.5v-13.2a0.5 0.5 0 0 1 0.24-0.43 9.582 9.582 0 0 1 8.8 0 0.5 0.5 0 0 1 0.24 0.43zm2.83-1.48a0.5 0.5 0 0 1-0.5 0.5 0.5 0.5 0 0 1-0.5-0.5v-1.22h-0.88a0.5 0.5 0 0 1 0-1h0.88v-0.26a0.5 0.5 0 0 1 0.5-0.5 0.5 0.5 0 0 1 0.5 0.5zm-7.47-12.22a8.577 8.577 0 0 1 3.64 0.81v12.39h-7.28v-12.39a8.577 8.577 0 0 1 3.64-0.81zm-3.64 16.39h7.28v4.61h-7.28z" style="fill:#008080"/>
 </g>
</svg>
