<svg version="1.1" viewBox="0 0 20 20" xmlns="http://www.w3.org/2000/svg">
 <g transform="matrix(1.5888,0,0,1.5888,-2.5715,-5.8047)">
  <path d="m3.501 16.708c-0.17215-1.23e-4 -0.31173 0.13946-0.31161 0.31161v0.98028c-1.266e-4 0.17215 0.13946 0.31174 0.31161 0.31162h2.4815c0.17215 1.23e-4 0.31174-0.13947 0.31161-0.31162v-0.98028c1.211e-4 -0.17215-0.13946-0.31173-0.31161-0.31161z" style="fill:#000000"/>
  <path d="m3.3866 16.134 0.69139-1.7746a1.8683 1.8683 0 0 1 1.7409-1.1901h2.5605a0.48551 0.48551 0 0 1 0 0.97101h-1.2209a0.16066 0.16066 0 0 0 0 0.32133h1.942a1.557 1.557 0 0 0 0.88515-0.27609l1.4646-1.0121a0.52533 0.52533 0 0 1 0.64171 0.83004l-1.8039 1.5552a1.2456 1.2456 0 0 1-0.81331 0.30222h-2.4297a1.0877 1.0877 0 0 0-0.86549 0.4853h-2.6481a0.1557 0.1557 0 0 1-0.14499-0.21223z" style="fill:#000000"/>
 </g>
 <path d="m0.37143 11.953a0.062951 0.062951 0 0 0 0.082137 0.0821l0.79073-0.31051a1.8885 1.8885 0 0 1 1.3928 0.0065l0.78875 0.31602a0.062951 0.062951 0 0 0 0.082138-0.08166l-0.3104-0.79087a1.8885 1.8885 0 0 1 0-1.3927l0.31578-0.78866a0.062951 0.062951 0 0 0-0.082137-0.082094l-0.79101 0.31051a1.8885 1.8885 0 0 1-1.3928-0.00648l-0.78846-0.316a0.062951 0.062951 0 0 0-0.082138 0.081229l0.3104 0.79085a1.8885 1.8885 0 0 1 0 1.3927z" style="fill:#ff0000"/>
 <path d="m18.075 6.2632 0.33702-0.77996a1.8885 1.8885 0 0 1 0.98473-0.98476l0.77997-0.33693a0.062951 0.062951 0 0 0 0-0.11558l-0.77997-0.33697a1.8885 1.8885 0 0 1-0.98473-0.98472l-0.33702-0.78a0.062951 0.062951 0 0 0-0.11612 0l-0.33702 0.78a1.8885 1.8885 0 0 1-0.98473 0.98472l-0.77997 0.33697a0.062951 0.062951 0 0 0 0 0.11558l0.77997 0.33693a1.8885 1.8885 0 0 1 0.98473 0.98476l0.33702 0.77996a0.062951 0.062951 0 0 0 0.11612 0z" style="fill:#ff0000"/>
 <g transform="matrix(.030592 0 0 .030592 2.2626 .42675)" style="fill:#ff0000">
  <path d="m337.68 294.23a62.53 62.53 0 0 0 15.07-29.1 614.08 614.08 0 0 0 13.28-146.12 7.57 7.57 0 0 0-8.52-7.24c-54.94 6.93-91.3-13.94-109-28a7.56 7.56 0 0 0-9.45 0c-15.26 12.18-44.45 29.39-87.51 29.39a170.77 170.77 0 0 1-21.47-1.38 7.56 7.56 0 0 0-8.47 7.26 614 614 0 0 0 13.28 146.11 62.57 62.57 0 0 0 15.07 29.1c15.27 16.64 44.83 45.22 82.11 63.59a26.63 26.63 0 0 0 23.46 0c37.31-18.39 66.88-46.97 82.15-63.61z" style="fill:#ff0000"/>
  <path d="m251.75-3.305a10.79 10.79 0 0 0-15.82 0c-50.23 54.31-117.93 44.26-156.57 32a4.05 4.05 0 0 0-4.47 6.28c15.11 20.53 29.52 38.5 38 48.8a19 19 0 0 0 11.31 6.7c73.39 13.09 110.37-29.49 112-31.38a10.11 10.11 0 0 1 7.64-3.58 10.06 10.06 0 0 1 7.71 3.61c1.57 1.86 38.55 44.43 111.94 31.35a19 19 0 0 0 11.31-6.7c8.44-10.3 22.85-28.27 38-48.8a4.06 4.06 0 0 0-4.48-6.28c-38.64 12.26-106.34 22.31-156.57-32z" style="fill:#ff0000"/>
  <path d="m228.47 378.34c-42.71-19.69-76.31-52-93.28-70.52a82.57 82.57 0 0 1-19.91-38.47c-15.71-73-14.81-133.76-13.41-159.22a19.25 19.25 0 0 0-4.34-13.27c-9.17-11.16-25.35-31.3-42-54.25a4 4 0 0 0-7.31 2.38c0.32 73.74 13.86 203.3 19 249.9a58.41 58.41 0 0 0 14.62 32.63c39.76 44.32 109 94.14 142.63 117.24a6 6 0 0 0 9.37-4.94v-53.14a9.17 9.17 0 0 0-5.37-8.34z" style="fill:#ff0000"/>
  <path d="m432.19 42.605c-16.69 23-32.87 43.09-42 54.25a19.25 19.25 0 0 0-4.35 13.27c1.4 25.46 2.3 86.2-13.41 159.22a82.57 82.57 0 0 1-19.91 38.47c-17 18.5-50.57 50.83-93.28 70.52a9.17 9.17 0 0 0-5.32 8.34v53.11a6 6 0 0 0 9.37 4.94c33.55-23.1 102.84-72.92 142.6-117.21a58.41 58.41 0 0 0 14.61-32.6c5.14-46.6 18.69-176.16 19-249.9a4 4 0 0 0-7.31-2.41z" style="fill:#ff0000"/>
 </g>
</svg>
