<svg version="1.1" viewBox="0 0 20 20" xmlns="http://www.w3.org/2000/svg">
 <g transform="matrix(1.5888,0,0,1.5888,-2.5715,-5.8047)">
  <path d="m3.501 16.708c-0.17215-1.23e-4 -0.31173 0.13946-0.31161 0.31161v0.98028c-1.266e-4 0.17215 0.13946 0.31174 0.31161 0.31162h2.4815c0.17215 1.23e-4 0.31174-0.13947 0.31161-0.31162v-0.98028c1.211e-4 -0.17215-0.13946-0.31173-0.31161-0.31161z" style="fill:#000000"/>
  <path d="m3.3866 16.134 0.69139-1.7746a1.8683 1.8683 0 0 1 1.7409-1.1901h2.5605a0.48551 0.48551 0 0 1 0 0.97101h-1.2209a0.16066 0.16066 0 0 0 0 0.32133h1.942a1.557 1.557 0 0 0 0.88515-0.27609l1.4646-1.0121a0.52533 0.52533 0 0 1 0.64171 0.83004l-1.8039 1.5552a1.2456 1.2456 0 0 1-0.81331 0.30222h-2.4297a1.0877 1.0877 0 0 0-0.86549 0.4853h-2.6481a0.1557 0.1557 0 0 1-0.14499-0.21223z" style="fill:#000000"/>
 </g>
 <path d="m0.37143 11.953a0.062951 0.062951 0 0 0 0.082137 0.0821l0.79073-0.31051a1.8885 1.8885 0 0 1 1.3928 0.0065l0.78875 0.31602a0.062951 0.062951 0 0 0 0.082138-0.08166l-0.3104-0.79087a1.8885 1.8885 0 0 1 0-1.3927l0.31578-0.78866a0.062951 0.062951 0 0 0-0.082137-0.082094l-0.79101 0.31051a1.8885 1.8885 0 0 1-1.3928-0.00648l-0.78846-0.316a0.062951 0.062951 0 0 0-0.082138 0.081229l0.3104 0.79085a1.8885 1.8885 0 0 1 0 1.3927z" style="fill:#c87137"/>
 <path d="m18.075 6.2632 0.33702-0.77996a1.8885 1.8885 0 0 1 0.98473-0.98476l0.77997-0.33693a0.062951 0.062951 0 0 0 0-0.11558l-0.77997-0.33697a1.8885 1.8885 0 0 1-0.98473-0.98472l-0.33702-0.78a0.062951 0.062951 0 0 0-0.11612 0l-0.33702 0.78a1.8885 1.8885 0 0 1-0.98473 0.98472l-0.77997 0.33697a0.062951 0.062951 0 0 0 0 0.11558l0.77997 0.33693a1.8885 1.8885 0 0 1 0.98473 0.98476l0.33702 0.77996a0.062951 0.062951 0 0 0 0.11612 0z" style="fill:#c87137"/>
 <path d="m11.965 1.743-0.37215 2.9864a3.3887 3.3887 0 0 1 1.5506 1.5506l2.9857-0.3744c-0.043147-0.14113-0.089891-0.28046-0.14248-0.41485a6.2663 6.2663 0 0 0-3.6049-3.6046c-0.13596-0.05371-0.27574-0.10023-0.41687-0.14315z" style="fill:#c87137;stroke-width:.22473"/>
 <path d="m13.487 7.7552a3.3561 3.3561 0 0 1-0.1681 1.0459l2.9255 0.36451a6.1488 6.1488 0 0 0 0-2.8208l-2.9248 0.36653a3.3572 3.3572 0 0 1 0.16742 1.0439z" style="fill:#c87137;stroke-width:.22473"/>
 <path d="m8.7055 1.6268 0.36653 2.9248a3.3379 3.3379 0 0 1 2.09 0l0.36428-2.9246a6.2924 6.2924 0 0 0-2.8208-2.247e-4z" style="fill:#c87137;stroke-width:.22473"/>
 <path d="m12.38 13.625a6.2663 6.2663 0 0 0 3.6053-3.6042c0.05371-0.13596 0.10023-0.27574 0.14315-0.41687l-2.9864-0.37215a3.3894 3.3894 0 0 1-1.5491 1.5491l0.37215 2.9866c0.14091-0.04315 0.28024-0.08944 0.41485-0.14248z" style="fill:#c87137;stroke-width:.22473"/>
 <path d="m7.8522 1.8853a6.2663 6.2663 0 0 0-3.6053 3.6042c-0.05371 0.13596-0.10023 0.27574-0.14338 0.4171l2.9857 0.37417a3.3882 3.3882 0 0 1 1.5522-1.5522l-0.3744-2.9857c-0.14113 0.043148-0.28046 0.089667-0.41485 0.14248z" style="fill:#c87137;stroke-width:.22473"/>
 <path d="m11.526 13.884-0.36451-2.9255a3.3379 3.3379 0 0 1-2.09 0l-0.36631 2.9255a6.3048 6.3048 0 0 0 2.8208 0z" style="fill:#c87137;stroke-width:.22473"/>
 <path d="m7.8526 13.625c0.13484 0.05303 0.27372 0.09933 0.41462 0.14248l0.37417-2.9857a3.3887 3.3887 0 0 1-1.5506-1.5506l-2.9873 0.37282c0.043148 0.1409 0.089891 0.28024 0.14248 0.4144v0.0025a6.2645 6.2645 0 0 0 3.6042 3.6033z" style="fill:#c87137;stroke-width:.22473"/>
 <path d="m6.7449 7.7552a3.3572 3.3572 0 0 1 0.16742-1.0439l-2.9248-0.36653a6.1488 6.1488 0 0 0 0 2.8208l2.9257-0.36451a3.3561 3.3561 0 0 1-0.16832-1.0459z" style="fill:#c87137;stroke-width:.22473"/>
</svg>
