<svg version="1.1" viewBox="0 0 20 20" xmlns="http://www.w3.org/2000/svg">
 <g>
  <path d="m-0.49107 21.562-0.26786-4.3304 3.9286-3.6161 1.875-8.1696 6.5179-2.9464 3.4821 2.8125 0.98214 6.4732 5 5.4911-1.9643 5.2679-17.23 0.90213z" style="fill-rule:evenodd;fill:#6c5367"/>
  <path d="m15.293 18.447c0.94668 0.71001 1.7454 1.6567 2.278 2.7513-0.71001-0.47334-1.5679-0.73959-2.5146-0.73959-2.3667 0-4.3192 1.8046-4.4672 4.1713-0.14792-2.3075-2.1004-4.1713-4.4672-4.1713-0.94668 0-1.775 0.29584-2.5146 0.73959 0.53251-1.0946 1.3017-2.0413 2.278-2.7513-1.9821 1.0058-3.4909 2.8105-4.053 4.9997-0.14792 1.3609 0.059168 2.278 0.88751 3.4317h15.65c0.85793-1.2129 1.0058-1.5975 0.9171-3.4317-0.53251-2.1892-2.0413-3.9938-3.9938-4.9997zm3.2542-4.763c-2.6625-2.3667-2.4259-6.7155-2.4259-6.7155 0.029584-1.8342-1.1242-7.0705-4.7038-6.2718-3.4909-1.8342-8.816 2.4259-8.313 8.5201 0 0-0.14792 3.1359-2.3075 5.9759-0.88751 1.1242-4.1417 2.9584-4.1417 2.9584s0.62126 1.8342 3.9346 2.633v-1.42c0-1.6567 0.56209-4.1121 2.13-4.1121 3.0471 0 3.7571 2.0413 4.5855 0.85793 0 0 1.0354-1.2129 1.0354-3.1655h0.029577c-1.4792-1.2425-2.633-3.6092-2.5146-3.6388 1.0058-0.088751 5.4138-3.6388 5.9759-5.7984-0.05917 0.59168 2.1596 2.9584 3.1359 3.5205 0.11834 1.775-0.56209 4.408-2.7809 6.0055 0.02959 1.8934 1.0354 3.1063 1.0354 3.1063 0.82835 1.1834 1.5384-0.85793 4.5855-0.85793 1.5679 0 2.13 2.4555 2.13 4.1121v1.4792c1.1242-0.38459 2.3075-2.278 3.0471-4.1713 0.02959 0.02959-2.3075-1.0946-4.4376-3.0175z" style="fill:#ffffff;stroke-width:.29584;stroke:#000000"/>
 </g>
</svg>
