<?xml version="1.0" encoding="UTF-8" standalone="no"?>
<svg
   xmlns:dc="http://purl.org/dc/elements/1.1/"
   xmlns:cc="http://creativecommons.org/ns#"
   xmlns:rdf="http://www.w3.org/1999/02/22-rdf-syntax-ns#"
   xmlns:svg="http://www.w3.org/2000/svg"
   xmlns="http://www.w3.org/2000/svg"
   xmlns:sodipodi="http://sodipodi.sourceforge.net/DTD/sodipodi-0.dtd"
   xmlns:inkscape="http://www.inkscape.org/namespaces/inkscape"
   width="20"
   height="20"
   viewBox="0 0 20 20"
   version="1.1"
   id="svg838"
   inkscape:version="1.0.1 (3bc2e813f5, 2020-09-07)"
   sodipodi:docname="body_dragonkin.svg">
  <defs
     id="defs832" />
  <sodipodi:namedview
     id="base"
     pagecolor="#ffffff"
     bordercolor="#666666"
     borderopacity="1.0"
     inkscape:pageopacity="0.0"
     inkscape:pageshadow="2"
     inkscape:zoom="5.6"
     inkscape:cx="18.386958"
     inkscape:cy="-7.3553229"
     inkscape:document-units="mm"
     inkscape:current-layer="layer1"
     inkscape:document-rotation="0"
     showgrid="false"
     units="px"
     inkscape:window-width="1300"
     inkscape:window-height="1040"
     inkscape:window-x="52"
     inkscape:window-y="0"
     inkscape:window-maximized="0"
     inkscape:pagecheckerboard="true" />
  <metadata
     id="metadata835">
    <rdf:RDF>
      <cc:Work
         rdf:about="">
        <dc:format>image/svg+xml</dc:format>
        <dc:type
           rdf:resource="http://purl.org/dc/dcmitype/StillImage" />
        <dc:title />
      </cc:Work>
    </rdf:RDF>
  </metadata>
  <g
     inkscape:label="Layer 1"
     inkscape:groupmode="layer"
     id="layer1">
    <g
       id="g874"
       transform="matrix(1.1189241,0,0,1.1189241,-0.31755399,0.21299953)"
       style="fill:#c83737;fill-opacity:1">
      <path
         d="M 3.3249371,5.4585617 C 4.0492547,5.8551459 4.2721079,6.6064507 5.3725667,6.441674 5.8472218,6.1031784 6.0509855,6.4816627 5.8472218,7.1805551 5.6434582,7.87897 5.8181806,7.7918465 6.2547492,7.4133601 L 6.225708,7.8499288 c 0,0 0.3494452,-0.320405 0.4365684,-0.320405 0,0 -0.1166404,1.1935415 0.3204041,1.6010691 0,0 0.1166404,-0.5241678 0.2328048,-0.6693738 0,0 0.4946506,0.9021787 0.8440957,1.0188189 0,0 -0.2037638,-0.1456814 0.029043,-0.2908873 0.232805,-0.1456814 0.029043,-0.2037638 0.3784864,0.232805 0.3494452,0.4365687 0.9607365,0.8440963 1.1059414,0.8731373 0,0 -0.3494451,-0.6112912 -0.058086,-0.5532088 0,0 0.9316952,0.5241678 0.8731372,0.8150538 0,0 -0.8150548,0.436569 -1.1059411,0.727932 -0.2908874,0.291362 -0.6693737,0.320403 -0.7569727,0.407527 0,0 0.3494451,-0.02904 -0.029043,0.290887 0,0 -0.6693734,0.494651 -0.4075276,0.494651 0,0 -1.1644998,0.844096 -0.1456814,1.426346 0,0 0.1456814,-0.524169 0.6693727,-0.407528 0,0 1.1059425,0.116641 1.5429871,0.611291 0.437044,0.494651 0.320404,0.553209 0.58225,0.58225 0.261846,0.02904 0.815055,0.11664 0.261846,0.349445 -0.553209,0.232805 -0.786014,0.203764 -1.018819,0.290887 -0.232805,0.08712 -0.3784864,0.290888 -0.7279315,0.46561 -0.3494452,0.174723 -0.2618462,0.261845 -0.3784864,0.436568 -0.1166402,0.174723 -0.5241678,0.815055 -0.5241678,0.815055 0,0 -1.0188183,0.49465 -0.640332,1.251623 0.3784859,0.756973 0.6984144,0.494651 0.6984144,0.494651 0,0 -0.5241678,-0.786014 0.1456814,-1.04786 l 0.232805,0.05809 c 0,0 -0.5822502,0.756972 0.1166402,1.04786 0,0 -0.08712,-0.640333 0.320404,-0.786014 0.4075275,-0.145682 0.6984149,-0.174723 0.8731377,-1.076902 0.174723,-0.902177 0.931694,-0.960735 1.659151,-1.31018 0.727931,-0.349445 0.553209,0 0.58225,0.524168 0.02904,0.524167 0.669372,-0.640333 0.640331,-1.018819 -0.02904,-0.378487 -0.174722,-0.669373 -0.407527,-0.786014 0,0 -0.572728,-0.269939 -0.737453,-0.571776 -0.164725,-0.301837 0.328973,-0.438949 0.328973,-0.438949 0,0 -0.438948,-0.466561 -1.015009,-0.384199 0,0 0.137112,-0.274224 0.493698,-0.411336 l 0.191861,0.191862 c 0,0 0.164725,-0.3842 0.3842,-0.493699 0.219474,-0.1095 0.548449,-0.137113 0.548449,-0.137113 0,0 0.05475,0.740787 0.109499,1.015011 0.05475,0.274224 0.301836,0.274224 0.301836,0.274224 l 0.109499,0.767922 c 0,0 0.02762,0.877898 0.328975,1.01501 0.301836,0.137113 0.356586,0.438948 0.356586,0.438948 0,0 0.134255,0.601294 0.172342,1.164501 0.01333,0.192814 -0.214714,0.408479 -0.201384,0.56892 0.02047,0.24661 0.287079,0.325165 0.24804,0.379438 -0.137112,0.191861 0.08236,1.289234 0.328973,1.426346 0,0 0.05475,-0.328974 0.301837,-1.042623 0,0 0.187101,-0.0519 0.30755,-0.0519 0.12045,0 0.60177,0.914556 0.408956,1.347792 0,0 0.337067,-0.264703 0.337067,-1.08309 0,-0.818387 -0.120449,-0.577488 -0.120449,-0.577488 0,0 0.178531,-0.09331 0.229948,-0.516552 0,0 0.10283,-0.436092 -0.218046,-0.846475 -0.32088,-0.410385 -0.384676,-1.064523 -0.295172,-1.269715 0.08951,-0.205192 -0.39753,-0.744118 -0.39753,-0.744118 0,0 -0.128066,-0.500364 0.371822,-0.910748 0,0 0.08998,0.01286 0.14092,-0.08998 0.05142,-0.10283 0.02571,-0.744119 0.02571,-0.744119 0,0 1.144505,-0.274224 1.778647,-0.168533 0.781254,0.130446 2.079533,0.571776 2.872211,0.854093 0.682704,0.242802 4.822725,2.086198 6.075776,2.429929 1.591072,0.436094 4.18763,1.141648 7.689699,-0.213761 3.502069,-1.355409 4.32855,-3.587288 4.527554,-3.964346 0.734596,-1.39064 0.605101,-2.8407891 0.548923,-3.5525339 -0.05665,-0.7117449 -0.165201,-0.9374079 -0.165201,-0.9374079 -0.0014,1.6315376 -0.429903,2.4627794 -0.429903,2.4627794 -0.541307,-0.060939 -0.744594,-0.8145786 -0.744594,-0.8145786 -0.354682,0.9340756 0.277556,1.710567 0.277556,1.710567 -0.776016,0.178531 -1.216392,-0.9992986 -1.216392,-0.9992986 -0.0776,1.2549546 0.631762,1.6067816 0.922649,2.0933386 0.03714,0.06189 -0.340876,0.847904 -1.12927,1.568694 -0.788394,0.72079 -2.409934,1.666768 -5.495906,1.689144 -2.994089,0.0219 -6.474258,-2.268061 -9.035587,-3.782006 -2.561805,-1.513945 -5.996746,-1.3392225 -5.705383,-1.74675 0.291363,-0.4075276 0.174723,-1.8048318 0.174723,-1.280664 0,0.5241677 -1.455387,1.5139444 -0.873138,0.9316953 0.58225,-0.5822502 -0.11664,-1.8048328 -0.11664,-1.8048328 0,0 -0.11664,1.2225826 -0.873137,1.280665 C 13.938251,8.4888247 12.72043,7.0915256 12.540945,6.3931107 12.361939,5.6946969 12.075336,3.2490571 13.356001,2.1431146 14.636665,1.0371732 15.626442,0.28020043 15.801165,1.968392 c 0.174722,1.6881916 0.232805,1.2806651 0.232805,1.2806651 0,0 0.640331,-0.8731375 0.407527,-1.7467504 -0.232805,-0.87313653 0.174723,-0.58225021 2.21236,-1.45538668 2.037636,-0.8731375 4.948886,-0.64033253 5.880105,-0.23280497 0.931695,0.40752756 2.154278,1.57202685 2.154278,1.57202685 0,0 -1.921473,-2.8526909 -0.698415,-5.1231328 1.223058,-2.2704417 1.477287,-3.9819614 1.688192,-4.9488868 0.203763,-0.9316952 1.833873,-4.0743213 2.561804,-4.7156053 0.87885,-0.775065 2.910774,-1.455387 2.910774,-1.455387 0,0 -1.36017,0.44609 -3.551582,-0.873138 -5.12218,-3.084543 -7.159817,-10.827564 -4.947458,-11.293649 0,0 -0.491794,-0.614149 -2.561804,0.465609 -1.622969,0.846953 -3.944827,4.676568 -3.84247,7.335492 0.05809,1.513946 -0.815054,6.287634 -0.931695,7.394052 -0.11664,1.106417 0,2.3289998 -1.105942,1.688192 -1.105941,-0.640333 -2.503246,0.2908866 -2.328999,-0.640333 0,0 -0.524168,0.8150552 0.465609,0.756973 0.989777,-0.05808 1.513945,0.5241678 2.095719,0.9316952 0.58225,0.4075274 0.873137,0.873137 0.174722,2.0376368 -0.698413,1.1645 -0.58225,2.5032465 -2.154277,3.6677464 -1.572027,1.1645003 -2.677969,4.7156061 -3.260219,4.7156061 -0.58225,0 0.290887,-1.04786015 0.05809,-1.86291423 0,0 -0.873137,1.28066402 -1.8629147,1.80483183 0,0 -0.3494451,-0.232805 0,-0.81505516 0,0 -0.7569727,0.29088735 -0.7569727,1.28066506 0,0 -0.5241678,-1.04786009 -0.2908863,-1.57202786 C 7.094482,2.3102917 6.3144928,1.776549 5.3801797,0.8634025 c 0,0 -0.1747226,1.2806651 -0.8731369,1.8629142 0,0 -0.4913181,-0.1309231 -0.6879405,-0.4175253 C 3.7534025,2.2131037 3.7857769,2.0988386 3.7500703,1.969344 3.6486649,1.6032366 3.5753476,1.9841033 3.5272632,2.5163639 l -0.058558,0.7879188 c 0,0 -2.1742727,-0.138065 -2.1742727,-0.6617563 0,-0.5236913 0.1747226,-0.08712 0.1747226,-0.5241678 0,0 -0.2009072,-0.1994786 -0.262798,-0.4779879 C 1.1444755,1.3618644 0.58840992,1.1923789 0.35655738,0.97576063 0.12470474,0.75961884 -0.09143715,0.58918039 -0.55514233,0.03311569 -1.0188475,-0.52295005 -0.95695674,-0.8476392 -0.89506587,-0.9252405 c 0.0618909,-0.0771259 0.12378165,-0.1547272 -0.0928362,-0.2937431 -0.21614193,-0.1390169 -0.83457423,-0.834574 -0.61795633,-1.6534379 0.216618,-0.8188634 -0.092836,-0.417049 -0.2009072,-0.3865797 -0.1080709,0.03047 -0.6489016,-0.8188634 -0.6489016,-1.1283175 0,-0.3094543 -0.6027215,-0.2780328 -0.6027215,-0.2780328 0,0 0.2009072,-0.1856725 -0.1699618,-0.2937434 -0.370869,-0.1080709 -0.7265032,-0.4946506 -0.9116997,-0.8036287 -0.1851965,-0.3089781 -1.4063503,-0.370869 -1.6382029,0.2780326 0,0 0.6179562,-0.3556343 0.8807543,-0.1856725 0.262798,0.1699618 -0.077126,0.1390163 0.417049,0.3246889 0.4946506,0.1856725 0.4946506,0.3399235 0.6027215,0.5408307 0.108071,0.2009072 0.1547272,0.3246889 0.1547272,0.3246889 0,0 -0.1237818,-0.1237817 -0.3556343,0.1699617 -0.2318526,0.2937435 -0.077126,0.2470873 -0.633667,0.4327599 -0.5565415,0.1856725 -0.4637052,0.525596 -0.4637052,0.525596 0,0 0.4789399,-0.4327598 0.9274104,-0.4170491 0.4479945,0.015235 0.5565415,-0.030945 0.6179562,-0.1237816 0.061891,-0.092836 0.2470873,-0.04618 0.3556343,0.2318526 0.108547,0.2780327 0.5098853,1.0816617 0.8188634,1.7772188 0.3089781,0.6955581 0.6955578,1.23638905 0.9583559,1.42158582 0.262798,0.1856722 0.1547271,0.66461207 0.52559607,0.83457404 0.37086887,0.16996094 0.33992354,0.52559616 0.33992354,0.52559616 0,0 -0.63366701,0.15472718 -0.71079251,0.0152348 -0.077126,-0.13901592 -0.092836,-0.24708681 -0.3246888,-0.24708681 -0.2318527,0 -0.324689,-0.1080709 -0.2780328,-0.16996198 0.04618,-0.0618921 -0.1080709,-0.21614282 -0.3246889,-0.24708784 -0.2161418,-0.0309461 -1.3292247,-0.27803287 -1.8081646,0.55654118 0,0 0.9274104,-0.54083095 1.3754049,-0.24708681 0.4479944,0.2937431 0.262798,0.41704878 0.262798,0.49465004 0,0.0776 0.077126,0.308978 0.2470873,0.308978 0.1699618,0 0.7107924,-0.169961 1.0507159,0 0.33992358,0.1699619 0.7265033,0.3399239 0.77268342,0.3399239 0.0461798,0 0.0152348,0.4327601 0.24708723,0.5255962 0.23185264,0.092835 0.108071,0.5098848 0.33992353,0.7265031 0.23185264,0.2161418 2.03620872,2.0923859 2.41088622,2.2561589 0.3756298,0.1647249 0.696986,0.2480397 0.696986,0.2480397 z"
         id="path2"
         style="fill:#c83737;stroke-width:0.476083;fill-opacity:1"
         sodipodi:nodetypes="ccccccccccscccscccccsssssscsccccsscsscsccccscscccccccccscsccsccccccccsccccccccsccssscccssccsccscccccccsccscssscccccccccccsccccccscscsscscscsscccssccccsccccsscscccc" />
      <rect
         style="fill:#c83737;fill-opacity:1;stroke:none;stroke-width:0.691654;stroke-linecap:round"
         id="rect870"
         width="3.170471"
         height="4.0201292"
         x="5.9503908"
         y="0.49890289"
         transform="rotate(-15)" />
    </g>
  </g>
</svg>
