<?xml version="1.0" encoding="UTF-8" standalone="no"?>
<svg
   xmlns:dc="http://purl.org/dc/elements/1.1/"
   xmlns:cc="http://creativecommons.org/ns#"
   xmlns:rdf="http://www.w3.org/1999/02/22-rdf-syntax-ns#"
   xmlns:svg="http://www.w3.org/2000/svg"
   xmlns="http://www.w3.org/2000/svg"
   xmlns:sodipodi="http://sodipodi.sourceforge.net/DTD/sodipodi-0.dtd"
   xmlns:inkscape="http://www.inkscape.org/namespaces/inkscape"
   width="20"
   height="20"
   viewBox="0 0 20 20"
   version="1.1"
   id="svg838"
   inkscape:version="1.0.1 (3bc2e813f5, 2020-09-07)"
   sodipodi:docname="body_demon.svg">
  <defs
     id="defs832" />
  <sodipodi:namedview
     id="base"
     pagecolor="#ffffff"
     bordercolor="#666666"
     borderopacity="1.0"
     inkscape:pageopacity="0.0"
     inkscape:pageshadow="2"
     inkscape:zoom="15.839192"
     inkscape:cx="3.7684138"
     inkscape:cy="-1.8788631"
     inkscape:document-units="mm"
     inkscape:current-layer="layer1"
     inkscape:document-rotation="0"
     showgrid="false"
     units="px"
     inkscape:window-width="1324"
     inkscape:window-height="1040"
     inkscape:window-x="52"
     inkscape:window-y="0"
     inkscape:window-maximized="0"
     inkscape:pagecheckerboard="true" />
  <metadata
     id="metadata835">
    <rdf:RDF>
      <cc:Work
         rdf:about="">
        <dc:format>image/svg+xml</dc:format>
        <dc:type
           rdf:resource="http://purl.org/dc/dcmitype/StillImage" />
        <dc:title />
      </cc:Work>
    </rdf:RDF>
  </metadata>
  <g
     inkscape:label="Layer 1"
     inkscape:groupmode="layer"
     id="layer1">
    <g
       style="fill:#9c4dcc;fill-opacity:1"
       id="g4631"
       transform="matrix(0.2626027,0,0,0.2626027,-3.1063907,0.37275968)">
      <path
         style="fill:#9c4dcc;fill-opacity:1"
         inkscape:connector-curvature="0"
         d="m 71.2,46 c -1.3,-5.6 0.3,-6.5 -2.7,-12.4 0.4,-5.5 -2.6,-6.2 -5.5,-7 l -0.6,-0.2 -5,0.1 4,-0.6 -0.5,-0.4 C 59.7,24.2 57.1,22.8 56.7,22.4 56.3,22 56.3,21 56.3,21 c 0.3,-0.4 0.6,-0.8 0.9,-1.3 l 0.9,-0.2 c 1.8,-0.6 2.4,-3.1 2.6,-4 0.2,-0.9 0.9,-2.4 0.9,-3 0,-0.7 -0.3,-0.5 -0.4,-0.3 -0.2,0.1 -1.6,1.6 -2.2,1.8 0,0 -0.1,0 -0.1,0.1 0,-0.7 -0.1,-1.4 -0.2,-1.7 C 58.6,11.7 58.4,10.8 57.9,10 58.3,9.7 58.8,9.1 59.6,8.2 61.1,6.2 59.2,3.6 58.5,2.9 57.8,2.2 57.8,2.6 57.8,2.6 c 0,0 0.4,1 0.6,2.6 C 58.5,6.3 57,7.4 55.9,8 55.1,7.6 54.1,7.2 52.8,7.1 c -2.4,-0.3 -5,1.1 -5.9,2.7 -0.8,1.3 -1.2,2.9 -1,4.5 0.1,0.6 0.1,1.1 0.2,1.4 0,0.3 0,0.7 0,1 0,2.9 1.2,5.4 3.6,6.3 v 0 l 0.1,2.6 -0.8,-1.8 c 0,0 -0.9,0 -2.3,0.8 C 46,25 45.3,25.5 44.5,26 l 2.2,0.5 -3.2,0.1 c -0.5,0.3 -1,0.6 -1.5,0.9 -1.2,0.6 -1.8,2.1 -2,3.3 0,0 -0.3,1.6 0.1,4.3 0,0 -0.8,2.3 -0.8,2.7 0,0.4 -2.1,3.6 -1.7,5.4 0,0 -0.4,-0.7 -3.8,-1.6 -3.4,-0.9 -2,-0.5 -2,-0.5 0,0 -1.6,-1.4 -3,-1.9 l -0.7,-7.5 c 5.4,-0.5 6.7,-3.2 6.3,-5.2 -0.4,-1.7 -1,-4.9 -1.3,-5.9 l 1.3,-0.2 -2.2,-2.3 -1.5,2.9 1.7,-0.2 c 0.2,1.2 0.7,5.1 0.7,5.8 -0.1,0.8 0.6,3.4 -5,3.8 L 27.5,23.5 26.8,12.7 28.1,12.5 26,9.3 l -1.8,3.6 1.6,0.2 0.7,12.6 0.3,4.8 C 22.4,30.4 22,27.9 22,27.6 22,27.4 21.8,22.9 21.7,21.3 l 1.5,-0.2 -2.2,-2.3 -1.5,2.9 1.2,-0.2 c 0,1.1 -0.1,4.7 -0.1,6.1 0,1.6 1.7,4.4 6.4,4.4 l 0.5,7.5 c -1.4,0.5 -2.7,1.8 -2.4,3.2 0.3,1.5 1.1,3.9 2.9,3.9 l 2.7,44.1 c 0,0 0.9,2.3 3.2,0 l -4,-44.6 c 0.4,-0.2 0.8,-0.4 1.2,-0.9 0,0 2.8,3.2 6.8,3.9 1,0.2 3.6,1.4 4.1,0.4 0.5,-1.1 2.8,-6.2 2.8,-6.2 l 0.8,-4.2 c 0,0 -1.6,-1.1 -1.7,-2.9 -0.2,-1.8 0.2,-4.6 0.2,-4.6 0,0 -0.1,4.1 0.9,5.3 1,1.2 1.6,1.5 1.6,1.5 l 2.6,-0.1 c 0,0 -1.3,1 -2.6,1.2 l -0.4,1.1 v 0.9 c 0,0 -0.1,1.6 0.1,2.2 0.2,0.6 0.6,2.1 1.2,2.4 0.5,0.4 0.5,3.4 0.5,3.4 l 0.1,0.5 c -0.7,0.4 -1.3,5 -1.5,6 -0.2,1.1 -2.5,4.8 -3.8,6.1 -1.9,0.9 -3.9,9.9 3.3,14.6 0,0 1.6,1.4 0.9,2.3 -0.7,0.9 -3.6,9.1 -5.2,10.2 -1.6,1.1 -3.2,2.3 -2.7,3.8 l 1.6,-0.9 -0.5,1.8 c 0,0 4.1,0.5 5.7,-1.8 0,0 1.1,-6.4 4.8,-12.5 0,0 2,-3 1.3,-4.1 -0.7,-1.1 -2.3,-1.2 -2,-4.1 0.2,-1.4 2.1,-5 2.1,-5 0,0 0.4,-2.3 0.9,-4.8 0,0 -1.6,11.8 8.2,13.1 0,0 3.8,1.8 3,5.7 -0.7,3.9 -4.7,12.5 -4.7,12.5 0,0 -2.7,2.1 -3,3 l 0.5,0.9 1.8,-1.1 -0.5,2 c 0,0 2,0.9 5,-0.1 0.8,-0.3 1.2,-1.1 0.9,-1.8 -0.3,-0.8 -0.6,-1.9 -0.4,-2.9 0.4,-1.8 1.1,-6.1 5,-14.5 0,0 2.1,-2.9 0.5,-4.5 -0.9,-0.9 -6.1,-8.1 -4.5,-13.6 0.5,-1.7 0.4,-3.3 0.1,-4.9 l 0.8,0.1 C 65.2,54.8 65,52.4 65,52.4 h -1.1 c -0.6,-1.6 -1.3,-2.9 -1.6,-3.8 0.5,-2.8 1,-5.6 0.9,-5.5 0,0 -2.1,-4.6 -2.1,-9.9 0,0 1.7,9.4 4.7,12 0,0 0.7,1.2 0.7,2 0,0.8 -0.3,1.3 -0.6,3.8 -0.4,2.5 1.4,6.9 1.1,8 -0.4,1.1 -1,1.2 -1.2,1.7 -0.2,0.5 -1.2,2 -0.6,2.2 0.5,0.3 1.3,1 1.3,1 L 67,62.5 c 0,0 0.4,0.9 0.1,1.2 -0.3,0.3 -0.5,0.9 -0.5,1.2 0,0.3 0.3,1 0.8,0.7 0.5,-0.3 1.6,-0.4 1.6,-0.4 0,0 1.4,-0.6 2.7,-1.3 C 73,63.3 71.3,60 70.6,59.2 70.1,58.1 72.4,51.6 71.2,46 Z M 47.1,16.1 c 0,0 0.5,-0.6 1,-0.6 0.6,0 1.1,0.5 1.1,0.5 -1,1.3 -2.1,0.1 -2.1,0.1 z m 6.3,-0.5 c 0.6,0 1.1,0.5 1.1,0.5 -1.1,1.2 -2.2,0 -2.2,0 0,0 0.5,-0.5 1.1,-0.5 z m 2.1,38.5 c -0.1,0 -0.2,0 -0.3,0.1 0.1,-1.4 0.3,-4.8 -0.1,-6.8 -0.5,0.6 -1.8,1.4 -4.6,0.2 L 50,51.4 49.5,47.2 c -0.5,0 -1.8,-0.2 -2,-1.3 0,0 1.1,0.6 1.9,0.4 -0.5,-1.9 -0.1,-3.5 -0.1,-3.5 0,0 -2.1,0.6 -2.8,-1.1 0,0 1.3,0.6 2.4,0.5 l 0.2,-0.1 c -0.4,-1.7 0.3,-2.8 0.3,-2.8 0,1.6 0.3,2.4 0.6,2.9 0.7,0.2 2.1,0.6 3.7,0.1 0,-1 0,-1.8 0,-1.8 1.4,4.7 2.1,5.2 2.1,5.2 1.1,3.7 0.2,7 -0.3,8.4 z M 51.2,37.5 C 51,37.2 50.9,36.8 51,36.4 l 0.1,-1.1 0.5,1.5 c 1.9,3 8.8,1.7 8.8,1.7 -6.3,2.1 -8.5,0.1 -9.2,-1 z"
         id="path4619" />
      <path
         style="fill:#9c4dcc;fill-opacity:1"
         inkscape:connector-curvature="0"
         d="m 53.7,42.7 c -0.4,0.5 -1.3,1.2 -3.6,0.4 -1.1,0.8 -0.4,2.5 0.1,3.4 C 51,47 53,47.8 55,47 54.9,46.6 54.8,46.3 54.6,46 54,45.2 53.8,43.9 53.7,42.7 Z"
         id="path4621" />
      <path
         style="fill:#9c4dcc;fill-opacity:1"
         inkscape:connector-curvature="0"
         d="m 44.1,16.1 c 0,0.8 0.7,2.2 1.7,2.7 v 0 0 l -0.3,-3 c 0,0 0,-0.5 -0.3,-1 -0.3,-0.5 -1.1,-1 -1.6,-1.7 -0.5,-0.7 -0.6,-0.2 -0.6,-0.2 0,0 -0.3,0.3 0.1,0.8 0.2,0.6 1,1.7 1,2.4 z"
         id="path4623" />
      <path
         style="fill:#9c4dcc;fill-opacity:1"
         inkscape:connector-curvature="0"
         d="m 46.1,9.7 c 0,0 0.6,-1.1 1.7,-1.9 l 0.4,-0.3 c 0,0 -2.2,-0.1 -3,-1.4 -0.7,-1.3 0,-3.9 -0.1,-4.2 -0.1,-0.3 -2.2,1.9 -1.7,4.5 0.4,2.1 2.1,3.4 2.7,3.3 z"
         id="path4625" />
      <path
         style="fill:#9c4dcc;fill-opacity:1"
         inkscape:connector-curvature="0"
         d="m 70.6,35.5 0.7,2.6 c 0,0 7.7,4.6 7.4,9.4 -0.3,3.9 -6.3,4.8 -6.3,4.8 l -0.3,2.6 c 0,0 8.7,-0.7 8.7,-7.7 0,-7 -10.2,-11.7 -10.2,-11.7 z"
         id="path4627" />
      <path
         style="fill:#9c4dcc;fill-opacity:1"
         inkscape:connector-curvature="0"
         d="m 38.2,21.3 v 0 c -1,5.3 2,6.4 2,6.4 0.5,-0.9 1.4,-1.3 1.4,-1.3 -2.1,-0.6 -2.7,-2.8 -2.8,-4.8 0.4,-0.2 1.2,-0.5 2,-0.2 0,0 -1.7,-2.8 -0.8,-6.5 0,0 -3.7,4.4 -3.6,5.9 0.1,0 1.5,-0.5 1.8,0.5 z"
         id="path4629" />
    </g>
  </g>
</svg>
