<?xml version="1.0" encoding="UTF-8" standalone="no"?>
<svg
   xmlns:dc="http://purl.org/dc/elements/1.1/"
   xmlns:cc="http://creativecommons.org/ns#"
   xmlns:rdf="http://www.w3.org/1999/02/22-rdf-syntax-ns#"
   xmlns:svg="http://www.w3.org/2000/svg"
   xmlns="http://www.w3.org/2000/svg"
   xmlns:sodipodi="http://sodipodi.sourceforge.net/DTD/sodipodi-0.dtd"
   xmlns:inkscape="http://www.inkscape.org/namespaces/inkscape"
   width="20"
   height="20"
   viewBox="0 0 20 20"
   version="1.1"
   id="svg838"
   inkscape:version="1.0.1 (3bc2e813f5, 2020-09-07)"
   sodipodi:docname="boon_sex.svg">
  <defs
     id="defs832" />
  <sodipodi:namedview
     id="base"
     pagecolor="#ffffff"
     bordercolor="#666666"
     borderopacity="1.0"
     inkscape:pageopacity="0.0"
     inkscape:pageshadow="2"
     inkscape:zoom="15.839192"
     inkscape:cx="15.214804"
     inkscape:cy="8.8616792"
     inkscape:document-units="mm"
     inkscape:current-layer="layer1"
     inkscape:document-rotation="0"
     showgrid="false"
     units="px"
     inkscape:window-width="1267"
     inkscape:window-height="1040"
     inkscape:window-x="52"
     inkscape:window-y="0"
     inkscape:window-maximized="0"
     inkscape:pagecheckerboard="true" />
  <metadata
     id="metadata835">
    <rdf:RDF>
      <cc:Work
         rdf:about="">
        <dc:format>image/svg+xml</dc:format>
        <dc:type
           rdf:resource="http://purl.org/dc/dcmitype/StillImage" />
        <dc:title></dc:title>
      </cc:Work>
    </rdf:RDF>
  </metadata>
  <g
     inkscape:label="Layer 1"
     inkscape:groupmode="layer"
     id="layer1">
    <g
       id="g5629"
       transform="matrix(3.6586157,0,0,3.6586157,-42.32469,-72.589551)">
      <path
         id="path1037"
         d="m 15.048677,19.834169 v 0.461601 h 0.446007 l -0.481334,0.541676 c -0.200821,-0.139143 -0.444161,-0.221253 -0.706469,-0.221253 -0.451672,0 -0.846695,0.242704 -1.064829,0.603927 0.09822,-0.02139 0.200185,-0.03297 0.304892,-0.03297 0.106362,0 0.209859,0.01209 0.309538,0.03431 0.127558,-0.09013 0.28274,-0.143534 0.450335,-0.143534 0.431622,0 0.782788,0.350975 0.782788,0.782724 0,0.431558 -0.35123,0.782852 -0.782788,0.782852 -0.37319,0 -0.685783,-0.262818 -0.763692,-0.613156 -0.168677,10e-4 -0.320486,0.0732 -0.42774,0.187836 0.153974,0.512332 0.629643,0.886922 1.191432,0.886922 0.686229,0 1.24439,-0.558225 1.24439,-1.244454 0,-0.25728 -0.07855,-0.496674 -0.212788,-0.695267 l 0.500557,-0.56128 v 0.482034 h 0.461665 v -1.251964 z"
         inkscape:connector-curvature="0"
         style="fill:#000000;stroke-width:0.0636517" />
      <path
         id="path1039"
         d="m 14.426546,23.502286 c 0.07275,-0.07288 0.13405,-0.153782 0.185926,-0.239585 -0.09847,0.02139 -0.200566,0.0331 -0.305528,0.0331 -0.106362,0 -0.209986,-0.01203 -0.30992,-0.03393 -0.130867,0.09274 -0.286623,0.143216 -0.450335,0.143216 -0.209096,0 -0.405652,-0.08141 -0.553515,-0.229273 -0.305082,-0.30521 -0.305082,-0.801948 0,-1.107094 0.147863,-0.147862 0.344419,-0.229273 0.553515,-0.229273 0.208968,0 0.405652,0.08135 0.553515,0.229273 0.106935,0.107063 0.178606,0.239713 0.210178,0.38382 0.169122,-10e-4 0.321122,-0.07345 0.428375,-0.188218 -0.05818,-0.195156 -0.164157,-0.374081 -0.312211,-0.522135 -0.235002,-0.234874 -0.547468,-0.364469 -0.879857,-0.364469 -0.332389,0 -0.644982,0.129531 -0.879857,0.364469 -0.485216,0.485281 -0.485216,1.274688 -1.27e-4,1.760032 0.185163,0.185227 0.418892,0.303619 0.672161,0.345883 v 0.36848 h -0.635498 v 0.461601 h 0.635498 v 0.635626 h 0.461666 v -0.635626 h 0.635498 v -0.461601 h -0.635498 v -0.375927 c 0.235447,-0.04882 0.452118,-0.164476 0.626014,-0.338372 z"
         inkscape:connector-curvature="0"
         style="fill:#000000;stroke-width:0.0636517" />
    </g>
  </g>
</svg>
