<?xml version="1.0" encoding="UTF-8" standalone="no"?>
<svg
   xmlns:dc="http://purl.org/dc/elements/1.1/"
   xmlns:cc="http://creativecommons.org/ns#"
   xmlns:rdf="http://www.w3.org/1999/02/22-rdf-syntax-ns#"
   xmlns:svg="http://www.w3.org/2000/svg"
   xmlns="http://www.w3.org/2000/svg"
   xmlns:sodipodi="http://sodipodi.sourceforge.net/DTD/sodipodi-0.dtd"
   xmlns:inkscape="http://www.inkscape.org/namespaces/inkscape"
   width="20"
   height="20"
   viewBox="0 0 20 20"
   version="1.1"
   id="svg838"
   inkscape:version="1.0.1 (3bc2e813f5, 2020-09-07)"
   sodipodi:docname="boon_aid.svg">
  <defs
     id="defs832" />
  <sodipodi:namedview
     id="base"
     pagecolor="#ffffff"
     bordercolor="#666666"
     borderopacity="1.0"
     inkscape:pageopacity="0.0"
     inkscape:pageshadow="2"
     inkscape:zoom="15.839192"
     inkscape:cx="15.214804"
     inkscape:cy="8.8616792"
     inkscape:document-units="mm"
     inkscape:current-layer="layer1"
     inkscape:document-rotation="0"
     showgrid="false"
     units="px"
     inkscape:window-width="1267"
     inkscape:window-height="1040"
     inkscape:window-x="52"
     inkscape:window-y="0"
     inkscape:window-maximized="0"
     inkscape:pagecheckerboard="true" />
  <metadata
     id="metadata835">
    <rdf:RDF>
      <cc:Work
         rdf:about="">
        <dc:format>image/svg+xml</dc:format>
        <dc:type
           rdf:resource="http://purl.org/dc/dcmitype/StillImage" />
        <dc:title></dc:title>
      </cc:Work>
    </rdf:RDF>
  </metadata>
  <g
     inkscape:label="Layer 1"
     inkscape:groupmode="layer"
     id="layer1">
    <g
       id="g5617"
       transform="matrix(3.6345505,0,0,3.6345505,-11.417147,-63.961562)">
      <path
         id="path817"
         d="m 8.6143997,19.328921 v 2.948558 c 0,0.250628 -0.2029969,0.453625 -0.4536243,0.453625 H 3.6245318 c -0.2506275,0 -0.4536244,-0.202997 -0.4536244,-0.453625 v -2.948558 c 0,-0.250627 0.2029969,-0.453624 0.4536244,-0.453624 h 0.3402183 v 0.340218 h 0.6804365 v -0.340218 h 2.494934 v 0.340218 h 0.6804365 v -0.340218 h 0.3402183 c 0.2506274,0 0.4536243,0.202997 0.4536243,0.453624 z M 6.9133084,21.256825 V 20.349576 H 6.3462779 V 19.782545 H 5.4390292 v 0.567031 H 4.8719988 v 0.907249 h 0.5670304 v 0.56703 h 0.9072487 v -0.56703 z"
         inkscape:connector-curvature="0"
         style="fill:#000000;stroke-width:0.113406" />
      <path
         id="path819"
         d="M 7.707151,18.648485 H 7.2535267 c 0,-0.125881 -0.1020655,-0.226813 -0.2268122,-0.226813 H 4.7585927 c -0.1247467,0 -0.2268122,0.100932 -0.2268122,0.226813 H 4.0781561 c 0,-0.375375 0.3050624,-0.680437 0.6804366,-0.680437 h 2.2681218 c 0.3753741,0 0.6804365,0.305062 0.6804365,0.680437 z"
         inkscape:connector-curvature="0"
         style="fill:#000000;stroke-width:0.113406" />
      <polygon
         transform="matrix(0.11340609,0,0,0.11340609,2.2636587,16.720581)"
         id="polygon821"
         points="39,38 34,38 34,43 30,43 30,38 25,38 25,34 30,34 30,29 34,29 34,34 39,34 "
         style="fill:#000000" />
    </g>
  </g>
</svg>
