<?xml version="1.0" encoding="UTF-8" standalone="no"?>
<svg
   xmlns:dc="http://purl.org/dc/elements/1.1/"
   xmlns:cc="http://creativecommons.org/ns#"
   xmlns:rdf="http://www.w3.org/1999/02/22-rdf-syntax-ns#"
   xmlns:svg="http://www.w3.org/2000/svg"
   xmlns="http://www.w3.org/2000/svg"
   xmlns:sodipodi="http://sodipodi.sourceforge.net/DTD/sodipodi-0.dtd"
   xmlns:inkscape="http://www.inkscape.org/namespaces/inkscape"
   width="20"
   height="20"
   viewBox="0 0 20 20"
   version="1.1"
   id="svg838"
   inkscape:version="1.0.1 (3bc2e813f5, 2020-09-07)"
   sodipodi:docname="boon_slaving.svg">
  <defs
     id="defs832" />
  <sodipodi:namedview
     id="base"
     pagecolor="#ffffff"
     bordercolor="#666666"
     borderopacity="1.0"
     inkscape:pageopacity="0.0"
     inkscape:pageshadow="2"
     inkscape:zoom="15.839192"
     inkscape:cx="15.214804"
     inkscape:cy="8.8616792"
     inkscape:document-units="mm"
     inkscape:current-layer="layer1"
     inkscape:document-rotation="0"
     showgrid="false"
     units="px"
     inkscape:window-width="1267"
     inkscape:window-height="1040"
     inkscape:window-x="52"
     inkscape:window-y="0"
     inkscape:window-maximized="0"
     inkscape:pagecheckerboard="true" />
  <metadata
     id="metadata835">
    <rdf:RDF>
      <cc:Work
         rdf:about="">
        <dc:format>image/svg+xml</dc:format>
        <dc:type
           rdf:resource="http://purl.org/dc/dcmitype/StillImage" />
        <dc:title></dc:title>
      </cc:Work>
    </rdf:RDF>
  </metadata>
  <g
     inkscape:label="Layer 1"
     inkscape:groupmode="layer"
     id="layer1">
    <g
       style="fill:#000000"
       id="g1063"
       transform="matrix(0.22611557,0,0,0.22611557,-1.0690933,-0.45784511)">
      <path
         style="fill:#000000"
         inkscape:connector-curvature="0"
         d="M 66,48 C 52.4,48 40,43.2 38,36.7 c 0,2.4 0,5.4 0,8.5 0,-0.1 -0.5,-0.1 -0.9,-0.1 L 32,45 c -3.6,-0.1 -6.7,2.9 -6.8,6.5 0,0.1 0,0.3 0,0.4 l -5,1.2 C 20,52.8 19.9,52.5 19.6,52.2 17.3,49.4 13,48.8 10.2,51.1 l -3.9,3.3 c -2.8,2.3 -3.2,6.6 -0.9,9.4 2.3,2.8 6.6,3.4 9.4,1.1 l 4,-3.2 c 1.7,-1.4 2.5,-3.6 2.3,-5.7 l 4.8,-1.1 c 1.1,2.1 3.2,3.6 5.6,3.6 l 5,0.1 c 0.5,0 1.3,0 1.3,-0.1 0,0.8 0,1.6 0,2.3 C 38,68.7 50.8,75 66,75 81.2,75 94,68.7 94,60.9 94,55.2 94,43.5 94,36.4 92,43 79.7,48 66,48 Z M 17.3,59.8 13.3,63 C 11.6,64.4 8.9,64 7.5,62.3 6.1,60.6 6.2,57.9 7.9,56.4 l 4,-3.2 c 1.7,-1.4 4.3,-1.1 5.7,0.6 -2.1,0.7 -2.3,1.3 -2.2,2 0.2,0.7 0.6,1.3 3.2,0.8 0.1,1.2 -0.3,2.4 -1.3,3.2 z M 36.8,56.1 31.7,56 c -1.3,0 -2.3,-0.7 -3.1,-1.7 2.7,-0.8 2.9,-1.5 2.7,-2.2 -0.2,-0.7 -0.7,-1.3 -3.5,-0.7 0.2,-2.1 2,-3.9 4.1,-3.9 l 5,0.2 c 0.4,0 0.9,0.1 0.9,0.2 0,2.8 0,5.6 0,8 0.2,0.2 -0.5,0.3 -1,0.2 z"
         id="path1059" />
      <path
         style="fill:#000000"
         inkscape:connector-curvature="0"
         d="m 49.2,42.8 c 4.6,-1.8 10.4,-2.9 16.7,-2.9 6.3,0 12,1.1 16.7,2.9 6.6,-2.6 10.8,-6.6 10.8,-11.2 0,-7.8 -12.3,-14.1 -27.5,-14.1 -15.2,0 -27.5,6.3 -27.5,14.1 0,4.6 4.3,8.6 10.8,11.2 z"
         id="path1061" />
    </g>
  </g>
</svg>
