<?xml version="1.0" encoding="UTF-8" standalone="no"?>
<svg
   xmlns:dc="http://purl.org/dc/elements/1.1/"
   xmlns:cc="http://creativecommons.org/ns#"
   xmlns:rdf="http://www.w3.org/1999/02/22-rdf-syntax-ns#"
   xmlns:svg="http://www.w3.org/2000/svg"
   xmlns="http://www.w3.org/2000/svg"
   xmlns:sodipodi="http://sodipodi.sourceforge.net/DTD/sodipodi-0.dtd"
   xmlns:inkscape="http://www.inkscape.org/namespaces/inkscape"
   width="20"
   height="20"
   viewBox="0 0 20 20"
   version="1.1"
   id="svg838"
   inkscape:version="1.0.1 (3bc2e813f5, 2020-09-07)"
   sodipodi:docname="boon_survival.svg">
  <defs
     id="defs832" />
  <sodipodi:namedview
     id="base"
     pagecolor="#ffffff"
     bordercolor="#666666"
     borderopacity="1.0"
     inkscape:pageopacity="0.0"
     inkscape:pageshadow="2"
     inkscape:zoom="15.839192"
     inkscape:cx="15.214804"
     inkscape:cy="8.8616792"
     inkscape:document-units="mm"
     inkscape:current-layer="layer1"
     inkscape:document-rotation="0"
     showgrid="false"
     units="px"
     inkscape:window-width="1267"
     inkscape:window-height="1040"
     inkscape:window-x="52"
     inkscape:window-y="0"
     inkscape:window-maximized="0"
     inkscape:pagecheckerboard="true" />
  <metadata
     id="metadata835">
    <rdf:RDF>
      <cc:Work
         rdf:about="">
        <dc:format>image/svg+xml</dc:format>
        <dc:type
           rdf:resource="http://purl.org/dc/dcmitype/StillImage" />
        <dc:title></dc:title>
      </cc:Work>
    </rdf:RDF>
  </metadata>
  <g
     inkscape:label="Layer 1"
     inkscape:groupmode="layer"
     id="layer1">
    <g
       style="fill:#000000"
       transform="matrix(0.43900071,0,0,0.43900071,-0.53601704,-441.45174)"
       id="g895">
      <path
         inkscape:connector-curvature="0"
         style="color:#000000;font-style:normal;font-variant:normal;font-weight:normal;font-stretch:normal;font-size:medium;line-height:normal;font-family:sans-serif;text-indent:0;text-align:start;text-decoration:none;text-decoration-line:none;text-decoration-style:solid;text-decoration-color:#000000;letter-spacing:normal;word-spacing:normal;text-transform:none;writing-mode:lr-tb;direction:ltr;baseline-shift:baseline;text-anchor:start;white-space:normal;clip-rule:nonzero;display:inline;overflow:visible;visibility:visible;opacity:1;isolation:auto;mix-blend-mode:normal;color-interpolation:sRGB;color-interpolation-filters:linearRGB;solid-color:#000000;solid-opacity:1;fill:#000000;fill-opacity:1;fill-rule:evenodd;stroke:none;stroke-width:1px;stroke-linecap:round;stroke-linejoin:round;stroke-miterlimit:4;stroke-dasharray:none;stroke-dashoffset:0;stroke-opacity:1;color-rendering:auto;image-rendering:auto;shape-rendering:auto;text-rendering:auto;enable-background:accumulate"
         d="m 23.98632,1010.3601 c -0.0322,8e-4 -0.0643,0 -0.0957,0.012 -0.15441,0.033 -0.28403,0.1375 -0.3496,0.2812 L 3.00391,1041.3584 H 1.70898 c -0.67616,-0.01 -0.67616,1.0096 0,1 H 3 v 3.5 c -0.01,0.6762 1.00956,0.6762 1,0 v -3.5 h 1.41211 c 0.67616,0.01 0.67616,-1.0095 0,-1 H 4.20898 l 16.75391,-25.0527 -13.41797,29.3516 c -0.15249,0.3315 0.0901,0.7095 0.45508,0.7089 h 32 c 0.36497,6e-4 0.60757,-0.3774 0.45508,-0.7089 l -13.41602,-29.3477 16.75196,25.0488 h -1.20313 c -0.67616,-0.01 -0.67616,1.0096 0,1 H 44 v 3.5 c -0.01,0.6762 1.00956,0.6762 1,0 v -3.5 h 1.29102 c 0.67616,0.01 0.67616,-1.0095 0,-1 h -1.29493 l -20.53711,-30.7051 c -0.0677,-0.1491 -0.20414,-0.2556 -0.36523,-0.2851 -0.0329,-0.01 -0.0662,-0.01 -0.0996,-0.01 h -0.004 z m -0.96094,14.291 c -0.64777,6.5742 -1.61031,13.1427 -3.35156,19.7031 l -3.71094,-2.7851 c 2.29904,-3.7633 4.75883,-10.2348 7.0625,-16.918 z m 1.94922,0 c 2.30343,6.6825 4.76366,13.1526 7.0625,16.916 l -3.71094,2.7871 c -1.74125,-6.5604 -2.70379,-13.1289 -3.35156,-19.7031 z m -0.97461,1.2578 c 0.68193,6.4753 1.74172,12.9588 3.51758,19.4473 l 0.004,0.01 h -7.04296 l 0.004,-0.01 c 1.77583,-6.4883 2.83573,-12.9721 3.51758,-19.4473 z"
         id="path893" />
    </g>
  </g>
</svg>
