<?xml version="1.0" encoding="UTF-8" standalone="no"?>
<svg
   xmlns:dc="http://purl.org/dc/elements/1.1/"
   xmlns:cc="http://creativecommons.org/ns#"
   xmlns:rdf="http://www.w3.org/1999/02/22-rdf-syntax-ns#"
   xmlns:svg="http://www.w3.org/2000/svg"
   xmlns="http://www.w3.org/2000/svg"
   xmlns:sodipodi="http://sodipodi.sourceforge.net/DTD/sodipodi-0.dtd"
   xmlns:inkscape="http://www.inkscape.org/namespaces/inkscape"
   width="20"
   height="20"
   viewBox="0 0 20 20"
   version="1.1"
   id="svg838"
   inkscape:version="1.0.1 (3bc2e813f5, 2020-09-07)"
   sodipodi:docname="boon_arcane.svg">
  <defs
     id="defs832" />
  <sodipodi:namedview
     id="base"
     pagecolor="#ffffff"
     bordercolor="#666666"
     borderopacity="1.0"
     inkscape:pageopacity="0.0"
     inkscape:pageshadow="2"
     inkscape:zoom="15.839192"
     inkscape:cx="15.214804"
     inkscape:cy="8.8616792"
     inkscape:document-units="mm"
     inkscape:current-layer="layer1"
     inkscape:document-rotation="0"
     showgrid="false"
     units="px"
     inkscape:window-width="1267"
     inkscape:window-height="1040"
     inkscape:window-x="52"
     inkscape:window-y="0"
     inkscape:window-maximized="0"
     inkscape:pagecheckerboard="true" />
  <metadata
     id="metadata835">
    <rdf:RDF>
      <cc:Work
         rdf:about="">
        <dc:format>image/svg+xml</dc:format>
        <dc:type
           rdf:resource="http://purl.org/dc/dcmitype/StillImage" />
        <dc:title></dc:title>
      </cc:Work>
    </rdf:RDF>
  </metadata>
  <g
     inkscape:label="Layer 1"
     inkscape:groupmode="layer"
     id="layer1">
    <g
       style="fill:#000000"
       id="g992"
       transform="matrix(0.19863742,0,0,0.19863742,0.068129,0.068129)">
      <path
         style="fill:#000000"
         inkscape:connector-curvature="0"
         d="m 20.671,77.835 h 58.657 c 9.268,-8.153 15.131,-20.091 15.131,-33.376 0,-6.583 -1.443,-12.834 -4.023,-18.46 L 86.147,33.506 79.096,21.163 66.754,14.112 76.315,8.651 C 68.941,3.217 59.84,0 50,0 25.487,0 5.541,19.946 5.541,44.459 c 0,13.284 5.862,25.223 15.13,33.376 z m 68.247,-22.164 -3.528,2.013 -2.013,3.528 -2.014,-3.528 -3.527,-2.013 3.527,-2.013 2.014,-3.528 2.013,3.528 z M 63.982,22.424 71.033,34.767 83.377,41.818 71.033,48.869 63.982,61.212 56.931,48.869 44.588,41.818 56.931,34.767 Z m -13.852,-5.541 2.013,3.528 3.528,2.013 -3.528,2.014 -2.013,3.528 -2.013,-3.528 -3.528,-2.014 3.528,-2.013 z M 50,8.312 v 5.541 c -16.878,0 -30.606,13.731 -30.606,30.606 H 13.853 C 13.853,24.526 30.07,8.312 50,8.312 Z m 33.16,8.79 -5.238,-2.99 5.238,-2.989 2.986,-5.233 2.988,5.233 5.237,2.989 -5.237,2.99 -2.988,5.233 z M 16.883,94.459 H 83.377 V 100 H 16.883 Z m 5.541,-5.541 v -5.541 h 55.412 v 5.541 z m 33.334,-47.1 5.238,-2.99 2.986,-5.233 2.987,5.233 5.238,2.99 -5.238,2.989 -2.987,5.233 -2.986,-5.233 z"
         id="path990" />
    </g>
  </g>
</svg>
