<?xml version="1.0" encoding="UTF-8" standalone="no"?>
<svg
   xmlns:dc="http://purl.org/dc/elements/1.1/"
   xmlns:cc="http://creativecommons.org/ns#"
   xmlns:rdf="http://www.w3.org/1999/02/22-rdf-syntax-ns#"
   xmlns:svg="http://www.w3.org/2000/svg"
   xmlns="http://www.w3.org/2000/svg"
   xmlns:sodipodi="http://sodipodi.sourceforge.net/DTD/sodipodi-0.dtd"
   xmlns:inkscape="http://www.inkscape.org/namespaces/inkscape"
   width="20"
   height="20"
   viewBox="0 0 20 20"
   version="1.1"
   id="svg838"
   inkscape:version="1.0.1 (3bc2e813f5, 2020-09-07)"
   sodipodi:docname="boon_combat.svg">
  <defs
     id="defs832" />
  <sodipodi:namedview
     id="base"
     pagecolor="#ffffff"
     bordercolor="#666666"
     borderopacity="1.0"
     inkscape:pageopacity="0.0"
     inkscape:pageshadow="2"
     inkscape:zoom="15.839192"
     inkscape:cx="15.214804"
     inkscape:cy="8.8616792"
     inkscape:document-units="mm"
     inkscape:current-layer="layer1"
     inkscape:document-rotation="0"
     showgrid="false"
     units="px"
     inkscape:window-width="1267"
     inkscape:window-height="1040"
     inkscape:window-x="52"
     inkscape:window-y="0"
     inkscape:window-maximized="0"
     inkscape:pagecheckerboard="true" />
  <metadata
     id="metadata835">
    <rdf:RDF>
      <cc:Work
         rdf:about="">
        <dc:format>image/svg+xml</dc:format>
        <dc:type
           rdf:resource="http://purl.org/dc/dcmitype/StillImage" />
        <dc:title></dc:title>
      </cc:Work>
    </rdf:RDF>
  </metadata>
  <g
     inkscape:label="Layer 1"
     inkscape:groupmode="layer"
     id="layer1">
    <g
       style="fill:#000000;fill-rule:evenodd;stroke:none;stroke-width:1"
       id="g850"
       transform="matrix(0.81281499,0,0,0.81281499,0.24615884,0.24650459)">
      <g
         style="fill:#000000"
         id="g848">
        <path
           style="fill:#000000"
           inkscape:connector-curvature="0"
           d="m 23.7071,22.2925 -10.559,-10.559 0.663,-0.663 c 0.39,-0.391 0.39,-1.024 0,-1.414 l -0.358,-0.358 c 0.611,-0.312 2.17,-0.393 4.24,0.361 0.279,0.101 0.592,0.073 0.849,-0.078 0.257,-0.151 0.434,-0.409 0.48,-0.704 0.026,-0.155 0.581,-3.841 -2.198,-6.619 -2.776,-2.777 -6.463,-2.222 -6.618,-2.198 -0.295,0.047 -0.553,0.224 -0.704,0.481 -0.151,0.257 -0.18,0.568 -0.077,0.848 0.796,2.19 0.869,3.876 0.624,4.505 l -0.348,-0.348 c -0.187,-0.188 -0.441,-0.293 -0.707,-0.293 -0.266,0 -0.519,0.105 -0.707,0.293 l -2.74,2.74 c -0.188,0.188 -0.293,0.442 -0.293,0.707 0,0.265 0.105,0.52 0.293,0.707 l 0.348,0.348 c -0.629,0.245 -2.313,0.172 -4.504,-0.625 -0.279,-0.102 -0.592,-0.073 -0.849,0.077 -0.257,0.152 -0.434,0.41 -0.481,0.704 -0.025,0.155 -0.58,3.841 2.199,6.619 1.955,1.956 4.359,2.26 5.667,2.26 0.55,0 0.905,-0.054 0.951,-0.062 0.295,-0.047 0.553,-0.223 0.704,-0.48 0.151,-0.257 0.18,-0.568 0.077,-0.849 -0.752,-2.07 -0.672,-3.63 -0.36,-4.24 l 0.358,0.358 c 0.196,0.195 0.451,0.293 0.707,0.293 0.256,0 0.512,-0.098 0.707,-0.293 l 0.663,-0.663 10.559,10.559 c 0.195,0.195 0.451,0.293 0.707,0.293 0.256,0 0.512,-0.098 0.707,-0.293 0.391,-0.391 0.391,-1.023 0,-1.414"
           id="path846" />
      </g>
    </g>
  </g>
</svg>
