<?xml version="1.0" encoding="UTF-8" standalone="no"?>
<svg
   xmlns:dc="http://purl.org/dc/elements/1.1/"
   xmlns:cc="http://creativecommons.org/ns#"
   xmlns:rdf="http://www.w3.org/1999/02/22-rdf-syntax-ns#"
   xmlns:svg="http://www.w3.org/2000/svg"
   xmlns="http://www.w3.org/2000/svg"
   xmlns:sodipodi="http://sodipodi.sourceforge.net/DTD/sodipodi-0.dtd"
   xmlns:inkscape="http://www.inkscape.org/namespaces/inkscape"
   width="20"
   height="20"
   viewBox="0 0 20 20"
   version="1.1"
   id="svg838"
   inkscape:version="1.0.1 (3bc2e813f5, 2020-09-07)"
   sodipodi:docname="breast_medium.svg">
  <defs
     id="defs832" />
  <sodipodi:namedview
     id="base"
     pagecolor="#ffffff"
     bordercolor="#666666"
     borderopacity="1.0"
     inkscape:pageopacity="0.0"
     inkscape:pageshadow="2"
     inkscape:zoom="15.839192"
     inkscape:cx="7.043058"
     inkscape:cy="8.6433292"
     inkscape:document-units="mm"
     inkscape:current-layer="layer1"
     inkscape:document-rotation="0"
     showgrid="false"
     units="px"
     inkscape:window-width="1267"
     inkscape:window-height="1040"
     inkscape:window-x="75"
     inkscape:window-y="0"
     inkscape:window-maximized="0"
     inkscape:pagecheckerboard="true" />
  <metadata
     id="metadata835">
    <rdf:RDF>
      <cc:Work
         rdf:about="">
        <dc:format>image/svg+xml</dc:format>
        <dc:type
           rdf:resource="http://purl.org/dc/dcmitype/StillImage" />
        <dc:title />
      </cc:Work>
    </rdf:RDF>
  </metadata>
  <g
     inkscape:label="Layer 1"
     inkscape:groupmode="layer"
     id="layer1">
    <g
       style="fill:#000000;fill-rule:evenodd;stroke:none;stroke-width:1"
       id="g5200"
       transform="matrix(0.94628942,0,0,0.94628942,-2.8164445,1.7177486)">
      <path
         style="fill:#000000"
         inkscape:connector-curvature="0"
         d="m 5.9817701,15.553166 c 1.7088136,0.319179 3.569298,-0.186094 4.7611639,-1.590849 0.257046,-0.276052 0.205738,-0.63732 0,-0.79566 -0.205738,-0.158341 -0.505446,-0.07151 -0.7571109,0.190218 C 8.9112077,14.593891 7.1879387,14.985974 5.7103093,14.54724 4.2217285,14.063551 3,12.714471 3,10.5 3,9.3432295 3.3486691,8.4715568 4.1376492,7.2661704 4.2375152,7.1135974 4.6079694,6.5616581 4.5839748,6.5976499 5.596735,5.0785096 6,4.0703472 6,2.5 6,2.2238576 6.2238576,2 6.5,2 h 11 c 0.276142,0 0.5,0.2238576 0.5,0.5 0,1.5703472 0.403265,2.5785096 1.416025,4.0976499 -0.02399,-0.035992 0.34646,0.5159475 0.446326,0.6685205 C 20.651331,8.4715568 21,9.3432295 21,10.5 c 0,2.214364 -1.22161,3.563421 -2.710094,4.04717 -1.477682,0.438845 -3.201077,0.04679 -4.275749,-1.190295 -0.251665,-0.26173 -0.551373,-0.348559 -0.757111,-0.190218 -0.205739,0.15834 -0.257046,0.519608 0,0.79566 1.195189,1.408672 3.06273,1.912838 4.775453,1.58816 0.0084,0.166052 0.0184,0.338408 0.03026,0.516264 0.07865,1.179832 0.220153,2.358976 0.439398,3.455201 0.132154,0.660774 0.28907,1.271002 0.472051,1.819944 0.08732,0.261972 -0.05426,0.545132 -0.316228,0.632456 -0.05633,0.01878 -0.113649,0.02697 -0.169785,0.02566 H 5.5116712 c -0.056136,0.0013 -0.1134505,-0.0069 -0.1697851,-0.02566 -0.2619716,-0.08732 -0.4035516,-0.370484 -0.3162278,-0.632456 0.5599595,-1.679878 0.8793124,-3.609383 0.9561118,-5.78872 z M 7,12.368425 c 0.8284271,0 1.5,-0.671573 1.5,-1.5 0,-0.828427 -0.6715729,-1.4999998 -1.5,-1.4999998 -0.8284271,0 -1.5,0.6715728 -1.5,1.4999998 0,0.828427 0.6715729,1.5 1.5,1.5 z m 0,-1 c -0.2761424,0 -0.5,-0.223857 -0.5,-0.5 0,-0.276142 0.2238576,-0.5 0.5,-0.5 0.2761424,0 0.5,0.223858 0.5,0.5 0,0.276143 -0.2238576,0.5 -0.5,0.5 z m 10,1 c 0.828427,0 1.5,-0.671573 1.5,-1.5 0,-0.828427 -0.671573,-1.4999998 -1.5,-1.4999998 -0.828427,0 -1.5,0.6715728 -1.5,1.4999998 0,0.828427 0.671573,1.5 1.5,1.5 z m 0,-1 c -0.276142,0 -0.5,-0.223857 -0.5,-0.5 0,-0.276142 0.223858,-0.5 0.5,-0.5 0.276142,0 0.5,0.223858 0.5,0.5 0,0.276143 -0.223858,0.5 -0.5,0.5 z"
         id="path5198" />
    </g>
  </g>
</svg>
