<?xml version="1.0" encoding="UTF-8" standalone="no"?>
<svg
   xmlns:osb="http://www.openswatchbook.org/uri/2009/osb"
   xmlns:dc="http://purl.org/dc/elements/1.1/"
   xmlns:cc="http://creativecommons.org/ns#"
   xmlns:rdf="http://www.w3.org/1999/02/22-rdf-syntax-ns#"
   xmlns:svg="http://www.w3.org/2000/svg"
   xmlns="http://www.w3.org/2000/svg"
   xmlns:xlink="http://www.w3.org/1999/xlink"
   xmlns:sodipodi="http://sodipodi.sourceforge.net/DTD/sodipodi-0.dtd"
   xmlns:inkscape="http://www.inkscape.org/namespaces/inkscape"
   width="20"
   height="20"
   viewBox="0 0 20 20"
   version="1.1"
   id="svg838"
   inkscape:version="1.0.1 (3bc2e813f5, 2020-09-07)"
   sodipodi:docname="corruptedfull.svg">
  <defs
     id="defs832">
    <linearGradient
       inkscape:collect="always"
       id="linearGradient966">
      <stop
         style="stop-color:#ff00ff;stop-opacity:1"
         offset="0"
         id="stop962" />
      <stop
         style="stop-color:#000000;stop-opacity:1"
         offset="1"
         id="stop964" />
    </linearGradient>
    <linearGradient
       id="linearGradient2967"
       osb:paint="solid">
      <stop
         style="stop-color:#ff00ff;stop-opacity:1;"
         offset="0"
         id="stop2965" />
    </linearGradient>
    <radialGradient
       inkscape:collect="always"
       xlink:href="#linearGradient966"
       id="radialGradient970"
       cx="29.820389"
       cy="9.8725681"
       fx="29.820389"
       fy="9.8725681"
       r="2.660167"
       gradientUnits="userSpaceOnUse"
       gradientTransform="matrix(1.4821429,0,0,1.4821429,-14.37769,-4.759989)" />
  </defs>
  <sodipodi:namedview
     id="base"
     pagecolor="#ffffff"
     bordercolor="#666666"
     borderopacity="1.0"
     inkscape:pageopacity="0.0"
     inkscape:pageshadow="2"
     inkscape:zoom="2.8"
     inkscape:cx="-52.236998"
     inkscape:cy="-77.899301"
     inkscape:document-units="mm"
     inkscape:current-layer="g4426"
     inkscape:document-rotation="0"
     showgrid="false"
     units="px"
     inkscape:window-width="1328"
     inkscape:window-height="1040"
     inkscape:window-x="118"
     inkscape:window-y="0"
     inkscape:window-maximized="0"
     inkscape:pagecheckerboard="true" />
  <metadata
     id="metadata835">
    <rdf:RDF>
      <cc:Work
         rdf:about="">
        <dc:format>image/svg+xml</dc:format>
        <dc:type
           rdf:resource="http://purl.org/dc/dcmitype/StillImage" />
        <dc:title />
      </cc:Work>
    </rdf:RDF>
  </metadata>
  <g
     inkscape:label="Layer 1"
     inkscape:groupmode="layer"
     id="layer1">
    <g
       id="g4434"
       transform="matrix(3.7591619,0,0,3.7591625,-102.09967,-27.112589)">
      <g
         id="g4426">
        <text
           xml:space="preserve"
           style="font-style:normal;font-weight:normal;font-size:3.41655px;line-height:125%;font-family:sans-serif;letter-spacing:0px;word-spacing:0px;fill:#800080;fill-opacity:1;stroke:#000000;stroke-width:0.146089;stroke-linecap:butt;stroke-linejoin:miter;stroke-miterlimit:4;stroke-dasharray:none;stroke-opacity:1"
           x="31.115147"
           y="9.7855997"
           id="text3617-6-9-367535629"><tspan
             sodipodi:role="line"
             id="tspan3615-63-9-1"
             x="31.115147"
             y="9.7855997"
             style="font-style:normal;font-variant:normal;font-weight:bold;font-stretch:normal;font-family:Arial;-inkscape-font-specification:'Arial Bold';text-align:center;text-anchor:middle;fill:#800080;fill-opacity:1;stroke:#000000;stroke-width:0.146089;stroke-miterlimit:4;stroke-dasharray:none;stroke-opacity:1">I</tspan></text>
        <rect
           style="opacity:1;fill:#7f0000;fill-opacity:1;stroke:none;stroke-width:0.529167;stroke-miterlimit:4;stroke-dasharray:none;stroke-opacity:1"
           id="rect1494-27"
           width="5.320334"
           height="5.320334"
           x="27.160221"
           y="7.2124014" />
        <path
           style="opacity:1;fill:url(#radialGradient970);fill-opacity:1;fill-rule:evenodd;stroke:none;stroke-width:0.264583px;stroke-linecap:butt;stroke-linejoin:miter;stroke-opacity:1"
           d="M 32.480556,12.532735 27.870157,11.839506 27.160222,7.212402 31.820735,7.89728 Z"
           id="path1496-0"
           inkscape:connector-curvature="0"
           inkscape:export-xdpi="119.35343"
           inkscape:export-ydpi="119.35343" />
        <path
           inkscape:connector-curvature="0"
           d="m 30.585066,11.977017 h -0.164331 l -0.137347,-0.4921 0.137602,-0.232972 c 0.0082,-0.01378 0.01078,-0.03011 0.0075,-0.04574 l -0.08638,-0.405213 c -0.004,-0.01901 -0.01659,-0.03515 -0.03394,-0.04383 -0.0089,-0.0045 -0.01869,-0.0067 -0.02845,-0.0067 -0.0092,0 -0.01844,0.002 -0.02698,0.006 l -0.551556,0.257724 c -0.01952,0.0091 -0.03311,0.02743 -0.03611,0.04874 l -0.06245,0.436982 c -0.0023,0.01608 0.0016,0.03234 0.01091,0.04568 l 0.511939,0.730176 c 0.01193,0.01703 0.03145,0.02718 0.05225,0.02718 h 0.443745 c 0.01895,0 0.03687,-0.0084 0.04899,-0.02297 0.01212,-0.01455 0.01716,-0.03368 0.01378,-0.05231 l -0.0363,-0.198269 c -0.0057,-0.03037 -0.03209,-0.05237 -0.06284,-0.05237 z m 1.709209,-2.20622 -0.124652,-0.04644 c -0.0072,-0.0027 -0.0148,-0.004 -0.02226,-0.004 -0.01295,0 -0.02577,0.004 -0.03668,0.01161 -0.01722,0.01206 -0.02737,0.03183 -0.02711,0.05288 l 0.0016,0.154698 -0.229719,0.06781 -0.219384,-0.235651 c -0.01219,-0.01308 -0.02915,-0.02029 -0.0467,-0.02029 -0.004,0 -0.008,3.97e-4 -0.01193,0.0012 l -0.234057,0.04459 c -0.03413,0.0065 -0.05678,0.03911 -0.05097,0.07336 l 0.05569,0.327194 c 0.0032,0.01876 0.01461,0.03509 0.03113,0.04459 l 0.266974,0.153422 c 0.0098,0.0056 0.02073,0.0085 0.03177,0.0085 0.0077,0 0.01538,-0.0014 0.02271,-0.0041 l 0.589703,-0.22436 c 0.02443,-0.0093 0.0407,-0.03253 0.04108,-0.05869 l 0.0043,-0.285411 c 4.63e-4,-0.02705 -0.01619,-0.05142 -0.04146,-0.06079 z m -2.718799,-2.21343 c -0.05767,-0.0061 -0.115593,-0.0035 -0.172177,0.0075 l -0.01168,0.0024 c -0.145002,0.02839 -0.271312,0.175941 -0.285283,0.192655 -0.0199,0.02386 -0.01965,0.05856 5.08e-4,0.08223 0.01531,0.01793 0.03872,0.02552 0.06079,0.02124 0.007,-0.0014 0.01391,-0.004 0.02035,-0.0078 l 0.129627,-0.077 0.05556,0.03483 c 0.01378,0.0087 0.03056,0.01123 0.04638,0.0081 0.0084,-0.0017 0.01646,-0.0048 0.02373,-0.0096 1.91e-4,-1.28e-4 0.02245,-0.01448 0.06819,-0.02341 0.04083,-0.008 0.08721,-0.0094 0.13792,-0.004 0.14009,0.01467 0.256512,0.115019 0.296511,0.255619 0.0071,0.02507 0.02877,0.04325 0.05467,0.04599 l 0.01321,0.0014 c 0.0064,6.28e-4 0.01276,3.87e-4 0.01888,-8.2e-4 0.01352,-0.0026 0.02596,-0.0096 0.03534,-0.02009 0.01365,-0.01531 0.01914,-0.03623 0.01467,-0.05626 C 30.028452,7.765387 29.824626,7.583386 29.57545,7.557358 Z m 2.238245,2.947497 c -0.01091,-0.0078 -0.02386,-0.0118 -0.037,-0.0118 -0.0059,0 -0.01193,8.2e-4 -0.0178,0.0026 l -0.148191,0.04312 -0.389266,-0.287324 -0.01148,-0.39405 c -1.27e-4,-0.0041 -6.35e-4,-0.0082 -0.0015,-0.01219 l -0.05651,-0.250317 c 0.0029,-0.0222 0.0076,-0.0421 0.01588,-0.0569 0.0104,-0.0069 0.04312,-0.01461 0.06309,-0.01926 0.05499,-0.01289 0.117252,-0.02749 0.143088,-0.08172 0.01563,-0.03273 0.01231,-0.06654 0.0019,-0.09933 h 0.285601 c 0.02954,0 0.05524,-0.02029 0.06207,-0.04906 l 0.03139,-0.132243 c 0.0045,-0.01901 6.4e-5,-0.03898 -0.01206,-0.05429 -0.01212,-0.0153 -0.03056,-0.02423 -0.05001,-0.02423 h -0.180471 l -0.05384,-0.05518 0.112467,-0.05225 0.163183,0.08842 c 0.0096,0.0052 0.02009,0.0077 0.03043,0.0077 0.01869,0 0.03706,-0.0082 0.04957,-0.02354 L 32.02159,8.787848 c 0.01078,-0.01333 0.01582,-0.03043 0.01384,-0.04746 -0.0019,-0.01703 -0.01065,-0.03253 -0.02418,-0.04312 L 31.611694,8.385885 c 0.0013,-0.0088 0.0022,-0.01665 0.0025,-0.02348 0.0059,-0.0096 0.02367,-0.02807 0.03464,-0.03949 0.03885,-0.04051 0.0872,-0.0909 0.06226,-0.151636 -0.02468,-0.06003 -0.09421,-0.06284 -0.150092,-0.06513 -0.01161,-5.05e-4 -0.02845,-0.0012 -0.04096,-0.0026 6.4e-5,-0.01199 0.0011,-0.02762 0.0019,-0.03853 0.0038,-0.05595 0.0085,-0.125481 -0.04765,-0.157952 -0.01346,-0.0078 -0.02851,-0.01174 -0.04472,-0.01174 -0.0391,0 -0.07585,0.02379 -0.111382,0.04682 -0.0095,0.0062 -0.02316,0.01499 -0.03413,0.02112 -0.0059,-0.01001 -0.01269,-0.0229 -0.01741,-0.03209 -0.02565,-0.04931 -0.05754,-0.110618 -0.121462,-0.110618 -0.03483,0 -0.06756,0.01958 -0.112786,0.04676 -0.05563,0.03336 -0.131733,0.07898 -0.216068,0.08682 -0.0021,1.92e-4 -0.0043,2.65e-4 -0.0064,2.65e-4 -0.02813,0 -0.06737,-0.01365 -0.108959,-0.02807 -0.05269,-0.01831 -0.112403,-0.03904 -0.172305,-0.03904 -0.02845,0 -0.05531,0.0047 -0.07981,0.01403 -0.07598,0.0289 -0.11604,0.102388 -0.154762,0.173517 -0.02424,0.04459 -0.04938,0.09065 -0.07993,0.116741 -0.02188,0.01869 -0.06296,0.03228 -0.106407,0.0467 -0.07917,0.02622 -0.168924,0.05595 -0.217088,0.138622 -0.03764,0.06456 -0.02622,0.142386 -0.01525,0.217599 0.0079,0.05422 0.01614,0.110234 0.0041,0.15272 -0.0088,0.031 -0.04696,0.06494 -0.0839,0.09773 -0.0504,0.04472 -0.102516,0.09103 -0.116359,0.156549 -0.01576,0.07457 0.01748,0.145894 0.04682,0.208858 0.0111,0.02373 0.02246,0.04899 0.02915,0.07075 l -0.115969,0.116296 -0.333574,-0.245859 0.0585,-0.510983 c 0.0021,-0.01824 -0.0038,-0.03655 -0.01614,-0.05014 L 29.12397,8.343381 29.274904,7.978293 c 0.01072,-0.02596 0.0033,-0.05588 -0.01844,-0.07368 -0.01506,-0.01238 -0.03445,-0.01691 -0.05276,-0.01333 -0.0081,0.0016 -0.01595,0.0048 -0.02309,0.0095 l -0.209943,0.139834 c 0.0019,-0.0192 0.0045,-0.03834 0.0082,-0.05735 0.02456,-0.12867 0.09046,-0.246815 0.185638,-0.332744 0.07591,-0.06858 0.16886,-0.115147 0.268824,-0.134668 0.230484,-0.0451 0.464797,0.05767 0.59704,0.261743 0.01416,0.02188 0.04019,0.03292 0.06577,0.02794 l 0.02035,-0.004 c 0.02009,-0.004 0.03713,-0.01729 0.04574,-0.03592 0.0085,-0.01863 0.0077,-0.04025 -0.0024,-0.05812 -0.185494,-0.32745 -0.558046,-0.498926 -0.927025,-0.426712 -0.369107,0.07215 -0.649605,0.371339 -0.698088,0.744529 -0.0091,0.07036 -0.0098,0.140664 -0.0022,0.209815 -0.0056,0.0068 -0.01021,0.01429 -0.01263,0.02303 l -0.197567,0.703383 c -0.0056,0.0199 -0.0012,0.04121 0.01174,0.05729 0.01295,0.01607 0.03292,0.02488 0.05352,0.02367 l 0.167903,-0.01008 c 0.0029,-1.91e-4 0.0057,-5.05e-4 0.0084,-0.0011 0.0125,-0.0024 0.02411,-0.0086 0.03317,-0.0178 l 0.13843,-0.140151 -0.08918,0.451399 c -0.0025,0.0127 -0.0011,0.02584 0.004,0.0377 l 0.335488,0.690114 -0.353414,0.354435 c -0.0091,0.0092 -0.01531,0.02092 -0.01761,0.03362 l -0.01085,0.05965 -0.518319,0.318328 -0.485593,-0.2775 0.158781,-1.088119 h 0.390605 L 28.118644,9.59009 27.996097,9.57312 c -0.01767,-0.0024 -0.03553,0.0034 -0.04829,0.01582 -0.01282,0.01244 -0.0192,0.03005 -0.01729,0.04784 l 0.05831,0.539881 c 0.0029,0.02641 0.02335,0.04753 0.04969,0.05116 l 0.102898,0.01423 c -0.01856,0.04804 -0.02679,0.09212 -0.02348,0.131606 -1.92e-4,5.82e-4 -5.79e-4,9.52e-4 -6.98e-4,0.0015 -8.92e-4,0.004 -0.02367,0.09881 -0.154188,0.114636 -0.01748,0.0021 -0.02992,0.01799 -0.02788,0.03547 0.002,0.0162 0.01576,0.02807 0.03164,0.02807 0.0013,0 0.0026,-6.4e-5 0.0039,-2.65e-4 0.09397,-0.01135 0.145958,-0.05512 0.17492,-0.0948 0.04536,0.07017 0.127459,0.08765 0.131414,0.08842 0.0021,4.5e-4 0.0042,6.35e-4 0.0063,6.35e-4 0.0148,0 0.02807,-0.0104 0.03113,-0.02545 0.0035,-0.01729 -0.0076,-0.03407 -0.02482,-0.0377 -7.7e-4,-1.27e-4 -0.07885,-0.01729 -0.102324,-0.08427 -0.01084,-0.03094 -0.0111,-0.07904 0.01888,-0.148957 l 0.09314,0.01289 c 0.02635,0.0036 0.0518,-0.0111 0.06169,-0.03579 l 0.202608,-0.503798 c 0.0066,-0.01659 0.0053,-0.03528 -0.0036,-0.05072 -0.0089,-0.01544 -0.0245,-0.0259 -0.04223,-0.02832 l -0.08229,-0.01136 0.09378,-0.417781 c 0.0017,-0.0058 0.0027,-0.01199 0.0027,-0.01831 0,-0.03521 -0.02839,-0.06379 -0.0636,-0.06379 h -0.914091 c -0.02985,0 -0.05575,0.02073 -0.06226,0.04989 l -0.244328,1.47158 c -0.0061,0.0273 0.0063,0.05544 0.03062,0.06928 l 0.780318,0.445914 c 0.0098,0.0056 0.02073,0.0084 0.03164,0.0084 0.01161,0 0.02316,-0.0031 0.03336,-0.0094 l 0.509515,-0.312905 0.101431,0.112786 -0.283879,0.336381 c -0.01219,0.01448 -0.01735,0.03362 -0.01403,0.05225 l 0.1665,0.940885 c 0.0054,0.03049 0.0319,0.05269 0.06284,0.05269 h 0.593404 c 0.02022,0 0.0393,-0.0096 0.05129,-0.0259 0.01206,-0.01627 0.01563,-0.03732 0.0096,-0.05665 l -0.06379,-0.20727 c -0.0082,-0.02679 -0.03298,-0.04504 -0.06099,-0.04504 h -0.17709 l 0.07968,-0.426265 0.418292,-0.172497 c 0.02092,-0.0086 0.03572,-0.02769 0.03885,-0.05008 l 0.05856,-0.415485 0.637548,-0.280498 c 0.0062,-0.0027 0.01193,-0.0064 0.01697,-0.01097 l 0.282859,-0.254597 0.106726,0.230866 c 0.0074,0.01608 0.02124,0.02832 0.03808,0.03387 l 0.826695,0.270483 c 0.0064,0.0021 0.01314,0.0032 0.01984,0.0032 0.0092,0 0.01837,-0.002 0.02686,-0.0059 l 0.244774,-0.113806 c 0.0236,-0.01097 0.03815,-0.03515 0.03681,-0.06111 l -0.01072,-0.210454 c -7.67e-4,-0.01946 -0.01065,-0.03745 -0.02654,-0.04874 z"
           id="path2441-2-2-2-9"
           style="fill:#000000;stroke-width:0.0637931;stroke:#9c4dcc;stroke-opacity:1;fill-opacity:1;fill-rule:nonzero" />
      </g>
    </g>
  </g>
</svg>
