<svg version="1.1" viewBox="0 0 20 20" xmlns="http://www.w3.org/2000/svg">
 <g transform="matrix(-1.5888 0 0 -1.5888 22.614 25.826)">
  <path d="m3.501 16.708c-0.17215-1.23e-4 -0.31173 0.13946-0.31161 0.31161v0.98028c-1.266e-4 0.17215 0.13946 0.31174 0.31161 0.31162h2.4815c0.17215 1.23e-4 0.31174-0.13947 0.31161-0.31162v-0.98028c1.211e-4 -0.17215-0.13946-0.31173-0.31161-0.31161z" style="fill:#000000"/>
  <path d="m3.3866 16.134 0.69139-1.7746a1.8683 1.8683 0 0 1 1.7409-1.1901h2.5605a0.48551 0.48551 0 0 1 0 0.97101h-1.2209a0.16066 0.16066 0 0 0 0 0.32133h1.942a1.557 1.557 0 0 0 0.88515-0.27609l1.4646-1.0121a0.52533 0.52533 0 0 1 0.64171 0.83004l-1.8039 1.5552a1.2456 1.2456 0 0 1-0.81331 0.30222h-2.4297a1.0877 1.0877 0 0 0-0.86549 0.4853h-2.6481a0.1557 0.1557 0 0 1-0.14499-0.21223z" style="fill:#000000"/>
 </g>
 <path d="m18.757 9.0133c-0.03152-0.31244-0.06418-0.7151-0.07994-1.1502a1.7923 1.7923 0 0 0-1.8785-1.7301l-0.06486 0.00366a1.2561 1.2561 0 0 1-0.88731-0.30263c-0.34259-0.29234-0.91357-0.64453-1.6104-0.55431a0.19864 0.19864 0 0 0-0.09935 0.35058 9.9609 9.9609 0 0 1 1.1582 1.0897 1.4674 1.4674 0 0 0 1.0963 0.48876c0.44537 0.0023 1.0227 0.19139 1.3754 1.0237a2.6689 2.6689 0 0 0 0.5253 0.98484c0.16993 0.1955 0.49082 0.05321 0.46524-0.20396z" style="fill:#892ca0;stroke-width:.0323"/>
 <path d="m13.036 18.155c0.32021-0.12927 0.73771-0.23524 1.1781-0.17038a1.3769 1.3769 0 0 1 0.73748 0.36474 2.0191 2.0191 0 0 0 0.55842 0.37571c0.77334 0.3362 1.5325-0.0909 1.6275-0.93322a1.0785 1.0785 0 0 0-0.02764-0.39306 1.8511 1.8511 0 0 1-0.01507-0.86836c0.06852-0.29691 0.22588-0.64202 0.71168-1.0364 0.02125-0.01712 0.30674-0.26744 0.46204-0.47666a2.0895 2.0895 0 0 0 0.41156-1.1351c0.03198-0.60296-0.25991-1.1735-0.74525-1.5273-0.4666-0.34008-1.2486-0.98963-1.4439-1.6467-0.07103-0.23959 0.22702-0.41476 0.40083-0.23593 0.2622 0.27041 0.64156 0.5502 1.1198 0.59542 0 0 0.62123 0.13064 1.2304 0.64887 1.1146 0.94875 1.2036 2.6654 0.1528 3.7052-0.02078 0.02078-0.04157 0.04157-0.0641 0.06152-0.94875 0.88388-0.95492 1.7283-0.9097 2.0635a1.9086 1.9086 0 0 1-0.0354 0.72972 2.063 2.063 0 0 1-0.77243 1.1552c-0.40266 0.30262-0.90124 0.44446-1.4012 0.43463-0.45245-0.0098-1.0579-0.1078-1.5236-0.49447a4.0094 4.0094 0 0 0-1.6264-0.80418c-0.20441-0.04773-0.22314-0.33323-0.02581-0.41271z" style="fill:#892ca0;stroke-width:.0323"/>
 <path d="m6.8975 19.681a1.8798 1.8798 0 0 0-0.31464-0.63859 2.1633 2.1633 0 0 0-1.2391-0.80138 5.8539 5.8539 0 0 0-1.2249-0.16036 0.66258 0.66258 0 0 1-0.65033-0.63861q-0.00243-0.06074-0.00668-0.12533a3.0189 3.0189 0 0 0-0.97146-2.019 4.1734 4.1734 0 0 0-0.59-0.45921c-0.36991-0.23385-0.75035-0.75401-0.6394-1.1808 0.054465-0.21037 0.25795-0.46042 0.58332-0.7048 0 0 1.5349-1.111 1.2869-2.2993a0.30581 0.30581 0 0 0-0.55315-0.10772c-0.22839 0.33165-0.64102 0.77425-1.3551 1.1276a2.608 2.608 0 0 0-1.0004 0.87609c-0.62726 0.91962-0.45961 2.1587 0.36424 2.8899a4.5502 4.5502 0 0 0 0.7538 0.54485 1.2925 1.2925 0 0 1 0.63697 1.0091c0.05406 0.61369 0.022274 1.4254 0.61916 1.9947 0 0 0.64062 0.72971 1.931 0.52784a2.7411 2.7411 0 0 1 0.84917-0.01012c0.33711 0.05365 0.75744 0.17392 1.117 0.44928 0.19438 0.1486 0.4671-0.03706 0.40373-0.27415z" style="fill:#892ca0;stroke-width:.028634"/>
 <path d="m1.562 8.2858c0.38188 0.16307 1.0184 0.2679 1.7664-0.27179a2.8311 2.8311 0 0 0 0.86721-1.0303 10.486 10.486 0 0 1 0.61164-1.0744c0.16033-0.24027-0.0068538-0.51663-0.27659-0.4593a8.0556 8.0556 0 0 0-1.1778 0.34282 4.3679 4.3679 0 0 0-1.5389 1.0191 4.6305 4.6305 0 0 0-0.43829 0.4995c-0.26037 0.3604-0.16992 0.82222 0.18637 0.97433z" style="fill:#892ca0;stroke-width:.0323"/>
 <g transform="matrix(.16639 0 0 .16639 1.5302 -154.91)" style="fill:#892ca0">
  <path d="m49.969 963.13c0.54752 0 1.12 0.1637 1.5938 0.4375l31.281 18.094c0.28889 0.1677 0.43135 0.4943 0.65625 0.75l-31.75 18.344c-1.0299 0.5956-2.4701 0.5956-3.5 0l-31.781-18.344c0.22535-0.2553 0.36709-0.5828 0.65625-0.75l31.312-18.094c0.44957-0.2598 0.95013-0.4255 1.4688-0.4375a1.1501 1.1501 0 0 0 0.0625 0zm0.0312 13.719c-1.7914 0-3.414 0.4277-4.6875 1.1875s-2.2812 1.9895-2.2812 3.4687c0 1.4793 1.0078 2.6466 2.2812 3.4063 1.2735 0.7598 2.8961 1.1875 4.6875 1.1875 1.7913 0 3.414-0.4277 4.6875-1.1875 1.2734-0.7597 2.25-1.927 2.25-3.4063 0-1.4792-0.97662-2.7089-2.25-3.4687-1.2735-0.7598-2.8962-1.1875-4.6875-1.1875zm0 2.3125c1.4206 0 2.6998 0.3789 3.5312 0.875 0.8315 0.496 1.125 1.0315 1.125 1.4687 0 0.4373-0.2935 0.9414-1.125 1.4375-0.83149 0.4962-2.1106 0.8438-3.5312 0.8438-1.4207 0-2.6998-0.3476-3.5312-0.8438-0.8314-0.4961-1.1562-1.0002-1.1562-1.4375 0-0.4372 0.32485-0.9727 1.1562-1.4687 0.8315-0.4961 2.1106-0.875 3.5312-0.875zm34.438 5.3437v36.094c-1.4e-4 1.066-0.67389 2.1866-1.5938 2.7187l-31.281 18.094c-0.12361 0.072-0.27122 0.1355-0.40625 0.1875v-38.188c0.60796-0.1221 1.2029-0.3399 1.75-0.6563zm-68.875 0 31.531 18.25c0.54715 0.3164 1.142 0.5342 1.75 0.6563v38.188c-0.13503-0.052-0.28264-0.1155-0.40625-0.1875l-31.312-18.094c-0.91988-0.5321-1.5624-1.6527-1.5625-2.7187v-36.094zm62.625 8.5625c-0.87606-0.048-1.7847 0.2043-2.5938 0.6563-1.2945 0.7232-2.4793 1.9483-3.375 3.5-0.89566 1.5518-1.3336 3.1731-1.3125 4.6562 0.0211 1.483 0.56302 2.9479 1.8438 3.6875s2.8305 0.4733 4.125-0.25c1.2946-0.7232 2.4793-1.917 3.375-3.4687s1.3336-3.1733 1.3125-4.6563-0.56302-2.9478-1.8438-3.6875c-0.48027-0.2773-1.0056-0.4085-1.5312-0.4375zm-0.28125 2.2813c0.10844 0 0.21999 0.013 0.3125 0.031 0.12335 0.025 0.24915 0.07 0.34375 0.125 0.37851 0.2186 0.70495 0.7505 0.71875 1.7188s-0.32093 2.2694-1.0312 3.5c-0.71032 1.2307-1.6548 2.1215-2.5 2.5937-0.84524 0.4723-1.4652 0.4686-1.8438 0.25-0.3785-0.2186-0.6737-0.7504-0.6875-1.7187s0.28968-2.2382 1-3.4688c0.71032-1.2307 1.6548-2.1527 2.5-2.625 0.47545-0.2655 0.86217-0.3941 1.1875-0.4062zm-54.281 0.875c-0.52005 0.027-1.0197 0.1914-1.5 0.4687-1.2807 0.7397-1.8226 2.2045-1.8438 3.6875-0.0211 1.483 0.41684 3.1046 1.3125 4.6563 0.89566 1.5518 2.0805 2.7768 3.375 3.5 1.2946 0.7233 2.8443 0.9583 4.125 0.2187s1.7914-2.1732 1.8125-3.6562c0.0211-1.4831-0.41684-3.1358-1.3125-4.6875s-2.0804-2.7456-3.375-3.4688c-0.64727-0.3616-1.3596-0.6215-2.0625-0.6875-0.17574-0.016-0.3579-0.04-0.53125-0.031zm-0.0312 2.3125c0.11827-0.015 0.2552 0.012 0.40625 0.031 0.30211 0.038 0.67113 0.1389 1.0938 0.375 0.84525 0.4722 1.7897 1.3943 2.5 2.625 0.71032 1.2306 1.045 2.5317 1.0312 3.5s-0.30899 1.5002-0.6875 1.7188c-0.3785 0.2186-0.9985 0.1909-1.8438-0.2813-0.84524-0.4722-1.7897-1.3944-2.5-2.625-0.71032-1.2307-1.045-2.5004-1.0312-3.4687 0.0138-0.96834 0.34025-1.5315 0.71875-1.75 0.0946-0.054 0.19423-0.1104 0.3125-0.125zm46.75 8.125c-0.88028-0.041-1.7847 0.2355-2.5938 0.6875-1.2945 0.7232-2.4793 1.917-3.375 3.4687-0.89566 1.5518-1.3648 3.1733-1.3438 4.6563s0.59427 2.9479 1.875 3.6875 2.8305 0.5045 4.125-0.2188c1.2946-0.7232 2.4793-1.9482 3.375-3.5 0.89566-1.5517 1.3336-3.1732 1.3125-4.6562s-0.56302-2.9478-1.8438-3.6875c-0.48027-0.2774-1.0031-0.4125-1.5312-0.4375zm0.0312 2.2812c0.1253 0.03 0.24913 0.1016 0.34375 0.1563 0.37851 0.2185 0.6737 0.7504 0.6875 1.7187s-0.28968 2.2381-1 3.4688c-0.71032 1.2306-1.6548 2.1528-2.5 2.625-0.84524 0.4722-1.4652 0.4998-1.8438 0.2812-0.3785-0.2186-0.70495-0.7817-0.71875-1.75s0.32093-2.2694 1.0312-3.5c0.71032-1.2307 1.6548-2.1215 2.5-2.5937 0.42262-0.2361 0.78542-0.3723 1.0938-0.4063 0.15417-0.017 0.28095-0.03 0.40625 0zm-34.719 8.0938c-0.52379 0.022-1.051 0.1601-1.5312 0.4375-1.2807 0.7397-1.8226 2.2045-1.8438 3.6875s0.41684 3.1358 1.3125 4.6875c0.89566 1.5518 2.0805 2.7455 3.375 3.4687 1.2946 0.7233 2.8443 0.9896 4.125 0.25s1.8226-2.2045 1.8438-3.6875c0.0211-1.4831-0.44809-3.1044-1.3438-4.6562-0.89566-1.5517-2.0804-2.7768-3.375-3.5-0.80909-0.452-1.6895-0.7245-2.5625-0.6875zm0.34375 2.3125c0.30211 0.038 0.67113 0.1701 1.0938 0.4062 0.84525 0.4722 1.8209 1.3943 2.5312 2.625 0.71032 1.2306 1.0138 2.5005 1 3.4688s-0.30899 1.5001-0.6875 1.7187c-0.3785 0.2186-0.9985 0.2222-1.8438-0.25-0.84524-0.4722-1.7897-1.3944-2.5-2.625-0.71032-1.2307-1.0138-2.5317-1-3.5s0.309-1.5002 0.6875-1.7187c0.18925-0.109 0.41664-0.163 0.71875-0.125zm26.5 0.9062c-0.87606-0.048-1.7847 0.2043-2.5938 0.6563-1.2945 0.7232-2.4793 1.9483-3.375 3.5-0.89566 1.5518-1.3336 3.1732-1.3125 4.6562s0.56302 2.9479 1.8438 3.6875c1.2807 0.7397 2.8305 0.4732 4.125-0.25 1.2946-0.7233 2.4793-1.9169 3.375-3.4687 0.89566-1.5517 1.3336-3.2045 1.3125-4.6875s-0.56302-2.9167-1.8438-3.6563c-0.48027-0.2773-1.0056-0.4085-1.5312-0.4375zm0.0312 2.2813c0.12575 0.029 0.24913 0.1016 0.34375 0.1562 0.37851 0.2186 0.70495 0.7192 0.71875 1.6875s-0.32093 2.2693-1.0312 3.5c-0.71032 1.2306-1.6548 2.1528-2.5 2.625-0.84524 0.4722-1.4652 0.4686-1.8438 0.25-0.3785-0.2186-0.6737-0.7504-0.6875-1.7187s0.28968-2.2382 1-3.4688 1.6548-2.184 2.5-2.6562c0.42262-0.2361 0.78901-0.347 1.0938-0.375 0.15237-0.014 0.2805-0.029 0.40625 0z" overflow="visible" style="color:#000000;fill:#892ca0;text-indent:0;text-transform:none"/>
 </g>
</svg>
