<svg version="1.1" viewBox="0 0 20 20" xmlns="http://www.w3.org/2000/svg">
 <g transform="matrix(-1.5888 0 0 -1.5888 22.614 25.826)">
  <path d="m3.501 16.708c-0.17215-1.23e-4 -0.31173 0.13946-0.31161 0.31161v0.98028c-1.266e-4 0.17215 0.13946 0.31174 0.31161 0.31162h2.4815c0.17215 1.23e-4 0.31174-0.13947 0.31161-0.31162v-0.98028c1.211e-4 -0.17215-0.13946-0.31173-0.31161-0.31161z" style="fill:#000000"/>
  <path d="m3.3866 16.134 0.69139-1.7746a1.8683 1.8683 0 0 1 1.7409-1.1901h2.5605a0.48551 0.48551 0 0 1 0 0.97101h-1.2209a0.16066 0.16066 0 0 0 0 0.32133h1.942a1.557 1.557 0 0 0 0.88515-0.27609l1.4646-1.0121a0.52533 0.52533 0 0 1 0.64171 0.83004l-1.8039 1.5552a1.2456 1.2456 0 0 1-0.81331 0.30222h-2.4297a1.0877 1.0877 0 0 0-0.86549 0.4853h-2.6481a0.1557 0.1557 0 0 1-0.14499-0.21223z" style="fill:#000000"/>
 </g>
 <path d="m18.757 9.0133c-0.03152-0.31244-0.06418-0.7151-0.07994-1.1502a1.7923 1.7923 0 0 0-1.8785-1.7301l-0.06486 0.00366a1.2561 1.2561 0 0 1-0.88731-0.30263c-0.34259-0.29234-0.91357-0.64453-1.6104-0.55431a0.19864 0.19864 0 0 0-0.09935 0.35058 9.9609 9.9609 0 0 1 1.1582 1.0897 1.4674 1.4674 0 0 0 1.0963 0.48876c0.44537 0.0023 1.0227 0.19139 1.3754 1.0237a2.6689 2.6689 0 0 0 0.5253 0.98484c0.16993 0.1955 0.49082 0.05321 0.46524-0.20396z" style="fill:#0000ff;stroke-width:.0323"/>
 <path d="m13.036 18.155c0.32021-0.12927 0.73771-0.23524 1.1781-0.17038a1.3769 1.3769 0 0 1 0.73748 0.36474 2.0191 2.0191 0 0 0 0.55842 0.37571c0.77334 0.3362 1.5325-0.0909 1.6275-0.93322a1.0785 1.0785 0 0 0-0.02764-0.39306 1.8511 1.8511 0 0 1-0.01507-0.86836c0.06852-0.29691 0.22588-0.64202 0.71168-1.0364 0.02125-0.01712 0.30674-0.26744 0.46204-0.47666a2.0895 2.0895 0 0 0 0.41156-1.1351c0.03198-0.60296-0.25991-1.1735-0.74525-1.5273-0.4666-0.34008-1.2486-0.98963-1.4439-1.6467-0.07103-0.23959 0.22702-0.41476 0.40083-0.23593 0.2622 0.27041 0.64156 0.5502 1.1198 0.59542 0 0 0.62123 0.13064 1.2304 0.64887 1.1146 0.94875 1.2036 2.6654 0.1528 3.7052-0.02078 0.02078-0.04157 0.04157-0.0641 0.06152-0.94875 0.88388-0.95492 1.7283-0.9097 2.0635a1.9086 1.9086 0 0 1-0.0354 0.72972 2.063 2.063 0 0 1-0.77243 1.1552c-0.40266 0.30262-0.90124 0.44446-1.4012 0.43463-0.45245-0.0098-1.0579-0.1078-1.5236-0.49447a4.0094 4.0094 0 0 0-1.6264-0.80418c-0.20441-0.04773-0.22314-0.33323-0.02581-0.41271z" style="fill:#0000ff;stroke-width:.0323"/>
 <path d="m6.8975 19.681a1.8798 1.8798 0 0 0-0.31464-0.63859 2.1633 2.1633 0 0 0-1.2391-0.80138 5.8539 5.8539 0 0 0-1.2249-0.16036 0.66258 0.66258 0 0 1-0.65033-0.63861q-0.00243-0.06074-0.00668-0.12533a3.0189 3.0189 0 0 0-0.97146-2.019 4.1734 4.1734 0 0 0-0.59-0.45921c-0.36991-0.23385-0.75035-0.75401-0.6394-1.1808 0.054465-0.21037 0.25795-0.46042 0.58332-0.7048 0 0 1.5349-1.111 1.2869-2.2993a0.30581 0.30581 0 0 0-0.55315-0.10772c-0.22839 0.33165-0.64102 0.77425-1.3551 1.1276a2.608 2.608 0 0 0-1.0004 0.87609c-0.62726 0.91962-0.45961 2.1587 0.36424 2.8899a4.5502 4.5502 0 0 0 0.7538 0.54485 1.2925 1.2925 0 0 1 0.63697 1.0091c0.05406 0.61369 0.022274 1.4254 0.61916 1.9947 0 0 0.64062 0.72971 1.931 0.52784a2.7411 2.7411 0 0 1 0.84917-0.01012c0.33711 0.05365 0.75744 0.17392 1.117 0.44928 0.19438 0.1486 0.4671-0.03706 0.40373-0.27415z" style="fill:#0000ff;stroke-width:.028634"/>
 <path d="m1.562 8.2858c0.38188 0.16307 1.0184 0.2679 1.7664-0.27179a2.8311 2.8311 0 0 0 0.86721-1.0303 10.486 10.486 0 0 1 0.61164-1.0744c0.16033-0.24027-0.0068538-0.51663-0.27659-0.4593a8.0556 8.0556 0 0 0-1.1778 0.34282 4.3679 4.3679 0 0 0-1.5389 1.0191 4.6305 4.6305 0 0 0-0.43829 0.4995c-0.26037 0.3604-0.16992 0.82222 0.18637 0.97433z" style="fill:#0000ff;stroke-width:.0323"/>
 <g transform="matrix(.15893 0 0 .15893 2.7651 4.8835)" style="fill:#0000ff">
  <path d="m52.3 16.9v27h-14.6v-27c-12.7 3.1-22.2 14.6-22.2 28.3v30.4l14.9 10.8v-27.3l-5.3-3.8h14.9v10.5h9.9v-10.5h14.9l-5.3 3.8v27.3l14.9-10.8v-30.3c0.1-13.8-9.4-25.3-22.1-28.4z" style="fill:#0000ff"/>
  <polygon points="40.1 41.7 49.9 41.7 49.9 16.4 49.9 9.5 49.9 1.8 40.1 1.8 40.1 9.5 40.1 16.4" style="fill:#0000ff"/>
 </g>
</svg>
