<svg version="1.1" viewBox="0 0 20 20" xmlns="http://www.w3.org/2000/svg">
 <g transform="matrix(-1.5888 0 0 -1.5888 22.614 25.826)">
  <path d="m3.501 16.708c-0.17215-1.23e-4 -0.31173 0.13946-0.31161 0.31161v0.98028c-1.266e-4 0.17215 0.13946 0.31174 0.31161 0.31162h2.4815c0.17215 1.23e-4 0.31174-0.13947 0.31161-0.31162v-0.98028c1.211e-4 -0.17215-0.13946-0.31173-0.31161-0.31161z" style="fill:#000000"/>
  <path d="m3.3866 16.134 0.69139-1.7746a1.8683 1.8683 0 0 1 1.7409-1.1901h2.5605a0.48551 0.48551 0 0 1 0 0.97101h-1.2209a0.16066 0.16066 0 0 0 0 0.32133h1.942a1.557 1.557 0 0 0 0.88515-0.27609l1.4646-1.0121a0.52533 0.52533 0 0 1 0.64171 0.83004l-1.8039 1.5552a1.2456 1.2456 0 0 1-0.81331 0.30222h-2.4297a1.0877 1.0877 0 0 0-0.86549 0.4853h-2.6481a0.1557 0.1557 0 0 1-0.14499-0.21223z" style="fill:#000000"/>
 </g>
 <path d="m18.757 9.0133c-0.03152-0.31244-0.06418-0.7151-0.07994-1.1502a1.7923 1.7923 0 0 0-1.8785-1.7301l-0.06486 0.00366a1.2561 1.2561 0 0 1-0.88731-0.30263c-0.34259-0.29234-0.91357-0.64453-1.6104-0.55431a0.19864 0.19864 0 0 0-0.09935 0.35058 9.9609 9.9609 0 0 1 1.1582 1.0897 1.4674 1.4674 0 0 0 1.0963 0.48876c0.44537 0.0023 1.0227 0.19139 1.3754 1.0237a2.6689 2.6689 0 0 0 0.5253 0.98484c0.16993 0.1955 0.49082 0.05321 0.46524-0.20396z" style="fill:#6c5d53;stroke-width:.0323"/>
 <path d="m13.036 18.155c0.32021-0.12927 0.73771-0.23524 1.1781-0.17038a1.3769 1.3769 0 0 1 0.73748 0.36474 2.0191 2.0191 0 0 0 0.55842 0.37571c0.77334 0.3362 1.5325-0.0909 1.6275-0.93322a1.0785 1.0785 0 0 0-0.02764-0.39306 1.8511 1.8511 0 0 1-0.01507-0.86836c0.06852-0.29691 0.22588-0.64202 0.71168-1.0364 0.02125-0.01712 0.30674-0.26744 0.46204-0.47666a2.0895 2.0895 0 0 0 0.41156-1.1351c0.03198-0.60296-0.25991-1.1735-0.74525-1.5273-0.4666-0.34008-1.2486-0.98963-1.4439-1.6467-0.07103-0.23959 0.22702-0.41476 0.40083-0.23593 0.2622 0.27041 0.64156 0.5502 1.1198 0.59542 0 0 0.62123 0.13064 1.2304 0.64887 1.1146 0.94875 1.2036 2.6654 0.1528 3.7052-0.02078 0.02078-0.04157 0.04157-0.0641 0.06152-0.94875 0.88388-0.95492 1.7283-0.9097 2.0635a1.9086 1.9086 0 0 1-0.0354 0.72972 2.063 2.063 0 0 1-0.77243 1.1552c-0.40266 0.30262-0.90124 0.44446-1.4012 0.43463-0.45245-0.0098-1.0579-0.1078-1.5236-0.49447a4.0094 4.0094 0 0 0-1.6264-0.80418c-0.20441-0.04773-0.22314-0.33323-0.02581-0.41271z" style="fill:#6c5d53;stroke-width:.0323"/>
 <path d="m6.8975 19.681a1.8798 1.8798 0 0 0-0.31464-0.63859 2.1633 2.1633 0 0 0-1.2391-0.80138 5.8539 5.8539 0 0 0-1.2249-0.16036 0.66258 0.66258 0 0 1-0.65033-0.63861q-0.00243-0.06074-0.00668-0.12533a3.0189 3.0189 0 0 0-0.97146-2.019 4.1734 4.1734 0 0 0-0.59-0.45921c-0.36991-0.23385-0.75035-0.75401-0.6394-1.1808 0.054465-0.21037 0.25795-0.46042 0.58332-0.7048 0 0 1.5349-1.111 1.2869-2.2993a0.30581 0.30581 0 0 0-0.55315-0.10772c-0.22839 0.33165-0.64102 0.77425-1.3551 1.1276a2.608 2.608 0 0 0-1.0004 0.87609c-0.62726 0.91962-0.45961 2.1587 0.36424 2.8899a4.5502 4.5502 0 0 0 0.7538 0.54485 1.2925 1.2925 0 0 1 0.63697 1.0091c0.05406 0.61369 0.022274 1.4254 0.61916 1.9947 0 0 0.64062 0.72971 1.931 0.52784a2.7411 2.7411 0 0 1 0.84917-0.01012c0.33711 0.05365 0.75744 0.17392 1.117 0.44928 0.19438 0.1486 0.4671-0.03706 0.40373-0.27415z" style="fill:#6c5d53;stroke-width:.028634"/>
 <path d="m1.562 8.2858c0.38188 0.16307 1.0184 0.2679 1.7664-0.27179a2.8311 2.8311 0 0 0 0.86721-1.0303 10.486 10.486 0 0 1 0.61164-1.0744c0.16033-0.24027-0.0068538-0.51663-0.27659-0.4593a8.0556 8.0556 0 0 0-1.1778 0.34282 4.3679 4.3679 0 0 0-1.5389 1.0191 4.6305 4.6305 0 0 0-0.43829 0.4995c-0.26037 0.3604-0.16992 0.82222 0.18637 0.97433z" style="fill:#6c5d53;stroke-width:.0323"/>
 <g transform="matrix(1.195 0 0 1.195 2.1626 -335.42)" style="fill:#6c5d53">
  <path d="m3.1259 288.41a0.033731 0.033731 0 0 0-0.022222 0.0116 0.62568 0.62568 0 0 1-0.73662 0.15471 0.033731 0.033731 0 0 0-0.037037 0 0.6945 0.6945 0 0 1-0.27894 0.14762 3.3041 3.3041 0 0 0 0.19524 2.4138 2.4382 2.4382 0 0 0 0.99906 0.9635 1.1941 1.1941 0 0 0 1.1002 0 2.4382 2.4382 0 0 0 0.99853-0.9635 3.3041 3.3041 0 0 0 0.19471-2.4138 0.6945 0.6945 0 0 1-0.27831-0.14762 0.033731 0.033731 0 0 0-0.035979 0 0.62568 0.62568 0 0 1-0.73715-0.15471 0.033731 0.033731 0 0 0-0.044445-0.0106 1.1478 1.1478 0 0 1-1.2939 0 0.033731 0.033731 0 0 0-0.022222-0.0106zm1.4842 0.64096a0.18102 0.18102 0 0 1 0.17598 0.19079 0.18102 0.18102 0 1 1-0.36138 0 0.18102 0.18102 0 0 1 0.1854-0.19079zm-1.6286 0.0106a0.18112 0.18112 0 0 1 0.18434 0.18318 0.18112 0.18112 0 1 1-0.36201 0 0.18112 0.18112 0 0 1 0.17767-0.18318z" style="fill:#6c5d53"/>
  <path d="m3.1103 286.38a0.93612 0.93612 0 0 1 1.3697 0 0.22412 0.22412 0 0 0 0.22593 0.0624 0.91229 0.91229 0 0 1 1.1616 0.96329 0.22412 0.22412 0 0 0 0.10815 0.21344 0.50411 0.50411 0 1 1-0.59038 0.8126 0.22412 0.22412 0 0 0-0.24222-0.0339 0.43529 0.43529 0 0 1-0.51344-0.10762 0.22412 0.22412 0 0 0-0.29482-0.0381 0.95746 0.95746 0 0 1-1.0794 0 0.22412 0.22412 0 0 0-0.29556 0.0381 0.43529 0.43529 0 0 1-0.5126 0.10762 0.22412 0.22412 0 0 0-0.24222 0.0339 0.50411 0.50411 0 1 1-0.59038-0.8126 0.22412 0.22412 0 0 0 0.10741-0.21344 0.91229 0.91229 0 0 1 1.1615-0.96329 0.22412 0.22412 0 0 0 0.22667-0.0624z" style="fill:#6c5d53"/>
  <path d="m0.67835 289.74a1.0531 1.0531 0 0 0 1.0423-0.18518 3.4945 3.4945 0 0 1 0.12593-0.80551 0.6945 0.6945 0 0 1-0.59937-0.39546 1.4141 1.4141 0 0 0-0.71778 1.1616 0.22712 0.22712 0 0 0 0.14889 0.22455z" style="fill:#6c5d53"/>
  <path d="m6.9122 289.74a0.22712 0.22712 0 0 0 0.14889-0.22455 1.4141 1.4141 0 0 0-0.71863-1.1616 0.6945 0.6945 0 0 1-0.59852 0.39546 3.4945 3.4945 0 0 1 0.12519 0.80551 1.0531 1.0531 0 0 0 1.0431 0.18518z" style="fill:#6c5d53"/>
  <path d="m6.2454 286.32a0.22119 0.22119 0 0 1-0.30667 0.0392 0.72682 0.72682 0 0 0-0.69927-0.0984 1.1027 1.1027 0 0 1 0.81778 1.1718 0.033731 0.033731 0 0 0 0.015873 0.0317 0.6945 0.6945 0 0 1 0.32741 0.70847 1.6045 1.6045 0 0 1 0.84974 1.3373 0.41751 0.41751 0 0 1-0.27334 0.41281 1.2435 1.2435 0 0 1-1.1075-0.12624 3.4945 3.4945 0 0 1-0.35704 1.4377 2.6286 2.6286 0 0 1-1.0801 1.0435 1.3844 1.3844 0 0 1-0.65852 0.15535 1.2085 1.2085 0 0 0 1.1533 0.40889 0.22119 0.22119 0 0 1 0.249 0.13947 1.3946 1.3946 0 0 0 2.2209 0.56223 0.22119 0.22119 0 0 1 0.28815 0 1.4422 1.4422 0 0 0 2.2868-0.60689 0.22119 0.22119 0 0 1 0.229-0.14444 1.4437 1.4437 0 0 0 1.3637-2.1959 0.22119 0.22119 0 0 1 0.05608-0.29334 1.3731 1.3731 0 0 0-0.48445-2.4299 0.22119 0.22119 0 0 1-0.16593-0.19969 1.3044 1.3044 0 0 0-1.8942-1.0749 0.22119 0.22119 0 0 1-0.2926-0.0868 1.5361 1.5361 0 0 0-2.538-0.19026z" style="fill:#6c5d53"/>
  <path d="m4.9979 293.04a1.585 1.585 0 0 0 1.1231 0.98615v0.94836a0.58709 0.58709 0 0 1-1.1742 0v-1.945a0.030798 0.030798 0 0 1 0.050794 0.0106z" style="fill:#6c5d53"/>
  <path d="m9.5345 293.79a1.6326 1.6326 0 0 0 0.61641-0.79164 0.030798 0.030798 0 0 1 0.03175-0.0201 1.6341 1.6341 0 0 0 0.52593-0.036v2.0384a0.58709 0.58709 0 0 1-1.1742 0z" style="fill:#6c5d53"/>
 </g>
</svg>
