<?xml version="1.0" encoding="UTF-8" standalone="no"?>
<svg
   xmlns:dc="http://purl.org/dc/elements/1.1/"
   xmlns:cc="http://creativecommons.org/ns#"
   xmlns:rdf="http://www.w3.org/1999/02/22-rdf-syntax-ns#"
   xmlns:svg="http://www.w3.org/2000/svg"
   xmlns="http://www.w3.org/2000/svg"
   xmlns:sodipodi="http://sodipodi.sourceforge.net/DTD/sodipodi-0.dtd"
   xmlns:inkscape="http://www.inkscape.org/namespaces/inkscape"
   width="20"
   height="20"
   viewBox="0 0 20 20"
   version="1.1"
   id="svg838"
   inkscape:version="1.0.1 (3bc2e813f5, 2020-09-07)"
   sodipodi:docname="dick_dragonkin.svg">
  <defs
     id="defs832" />
  <sodipodi:namedview
     id="base"
     pagecolor="#ffffff"
     bordercolor="#666666"
     borderopacity="1.0"
     inkscape:pageopacity="0.0"
     inkscape:pageshadow="2"
     inkscape:zoom="11.2"
     inkscape:cx="-2.5338089"
     inkscape:cy="10.819562"
     inkscape:document-units="mm"
     inkscape:current-layer="layer1"
     inkscape:document-rotation="0"
     showgrid="false"
     units="px"
     inkscape:window-width="1299"
     inkscape:window-height="1040"
     inkscape:window-x="52"
     inkscape:window-y="0"
     inkscape:window-maximized="0"
     inkscape:pagecheckerboard="true" />
  <metadata
     id="metadata835">
    <rdf:RDF>
      <cc:Work
         rdf:about="">
        <dc:format>image/svg+xml</dc:format>
        <dc:type
           rdf:resource="http://purl.org/dc/dcmitype/StillImage" />
        <dc:title />
      </cc:Work>
    </rdf:RDF>
  </metadata>
  <g
     inkscape:label="Layer 1"
     inkscape:groupmode="layer"
     id="layer1">
    <g
       id="g845"
       transform="matrix(0.95281961,0,0,0.95281961,-0.09827749,-0.67580182)"
       style="fill:#c83737;fill-opacity:1">
      <path
         style="fill:#c83737;fill-opacity:1;fill-rule:evenodd;stroke:none;stroke-width:0.749195px;stroke-linecap:butt;stroke-linejoin:miter;stroke-opacity:1"
         d="m 9.2697296,14.93807 c 0,0 -1.1039254,-3.814023 -1.6233537,-4.620309 l -0.6215673,1.272224 c 0,0 -1.2476371,-5.0421472 -2.5950457,-4.7243665 C 3.7994992,6.0075948 2.9548911,4.5617594 2.970185,4.0583798 2.9960415,3.2047697 3.0425472,3.3899239 3.534045,3.5709931 4.0254927,3.7520927 3.8858664,3.73258 3.7047831,3.4480206 3.5236347,3.1635581 3.3323677,2.6615073 3.9272796,2.7908966 4.5222212,2.9202361 6.1110837,3.542806 7.3527197,4.5774895 6.8322527,5.706683 10.757628,6.8387664 12.051027,7.5630123 l -1.297085,0.3780384 c 0.577867,0.4322717 3.607418,1.7931934 3.960408,2.1344233 l -1.794908,0.161681 c 0.597032,0.647229 3.26014,3.252851 3.26014,3.252851 L 12.83485,16.425859 9.9514454,13.191566"
         id="path5098"
         inkscape:connector-curvature="0"
         sodipodi:nodetypes="cccccccccccccccc" />
      <path
         style="fill:#c83737;fill-opacity:1;stroke:none;stroke-width:1.64276"
         d="m 15.221007,11.228984 c 1.43047,-1.4258228 3.832502,-0.371518 4.31816,1.529112 0.485669,1.900643 -1.112632,3.686218 -3.055265,3.413226 -0.320663,-0.04466 -0.593878,0.232061 -0.545154,0.552123 0.296785,1.943606 -1.477755,3.56442 -3.386575,3.09327 -1.908832,-0.471161 -2.9284908,-2.90375 -1.558297,-4.313811 l 4.227178,-4.273874 z"
         id="path5036"
         sodipodi:nodetypes="cccccccc" />
    </g>
  </g>
</svg>
