<?xml version="1.0" encoding="UTF-8" standalone="no"?>
<svg
   xmlns:dc="http://purl.org/dc/elements/1.1/"
   xmlns:cc="http://creativecommons.org/ns#"
   xmlns:rdf="http://www.w3.org/1999/02/22-rdf-syntax-ns#"
   xmlns:svg="http://www.w3.org/2000/svg"
   xmlns="http://www.w3.org/2000/svg"
   xmlns:sodipodi="http://sodipodi.sourceforge.net/DTD/sodipodi-0.dtd"
   xmlns:inkscape="http://www.inkscape.org/namespaces/inkscape"
   width="20"
   height="20"
   viewBox="0 0 20 20"
   version="1.1"
   id="svg838"
   inkscape:version="1.0.1 (3bc2e813f5, 2020-09-07)"
   sodipodi:docname="dick_werewolf.svg">
  <defs
     id="defs832" />
  <sodipodi:namedview
     id="base"
     pagecolor="#ffffff"
     bordercolor="#666666"
     borderopacity="1.0"
     inkscape:pageopacity="0.0"
     inkscape:pageshadow="2"
     inkscape:zoom="22.4"
     inkscape:cx="15.928149"
     inkscape:cy="10.703065"
     inkscape:document-units="mm"
     inkscape:current-layer="layer1"
     inkscape:document-rotation="0"
     showgrid="false"
     units="px"
     inkscape:window-width="1267"
     inkscape:window-height="833"
     inkscape:window-x="85"
     inkscape:window-y="90"
     inkscape:window-maximized="0"
     inkscape:pagecheckerboard="true" />
  <metadata
     id="metadata835">
    <rdf:RDF>
      <cc:Work
         rdf:about="">
        <dc:format>image/svg+xml</dc:format>
        <dc:type
           rdf:resource="http://purl.org/dc/dcmitype/StillImage" />
        <dc:title />
      </cc:Work>
    </rdf:RDF>
  </metadata>
  <g
     inkscape:label="Layer 1"
     inkscape:groupmode="layer"
     id="layer1">
    <g
       id="g859"
       transform="matrix(0.89525381,0,0,0.89525381,1.0619334,0.89501245)">
      <path
         inkscape:connector-curvature="0"
         id="path5062"
         d="m 12.499869,15.692365 c 0,0 -1.601532,1.095517 -3.6768374,-0.716504 C 7.2834355,13.431702 7.2817643,11.4292 11.066235,11.342362 11.56013,7.9843027 13.67815,7.2310814 15.165525,9.2428748 c 1.171345,1.5843382 1.141419,2.2981702 0.921306,3.0288262 -0.220111,0.730651 -2.580742,2.485436 -2.580742,2.485436"
         style="fill:#de8787;fill-opacity:1;fill-rule:evenodd;stroke:none;stroke-width:0.878009px;stroke-linecap:butt;stroke-linejoin:miter;stroke-opacity:1"
         sodipodi:nodetypes="cccscc" />
      <g
         style="fill:#ac9393;fill-opacity:1"
         id="g5038"
         transform="matrix(1.2975165,-1.2975165,1.2975165,1.2975165,-376.12121,-359.61596)">
        <path
           style="fill:#ac9393;fill-opacity:1;stroke:none"
           d="m 8.1758998,293.11239 c 1.2294579,0.002 1.8095714,1.48974 1.2005129,2.51689 -0.6090585,1.02716 -2.0656087,1.10777 -2.7842859,0.15408 -0.1188014,-0.15725 -0.355516,-0.15574 -0.4723103,0.003 -0.7088548,0.96435 -2.1703456,0.89818 -2.7891741,-0.12625 -0.6188286,-1.02444 -0.010649,-2.51042 1.1860793,-2.52758 l 3.6591781,-0.0201 z"
           id="path5036"
           sodipodi:nodetypes="cccccccc" />
        <path
           style="fill:#de8787;fill-opacity:1;stroke:none"
           d="m 7.7873172,292.66325 -2.8848755,0.0205 v -4.99615 c -9.3e-6,-0.10367 -0.039699,-0.2034 -0.1109213,-0.27872 -0.073855,-0.0782 -0.114846,-0.18174 -0.1144995,-0.28929 -0.1082156,-0.88971 0.3458445,-1.75344 1.1400876,-2.16873 0.1224888,-0.0641 0.3480834,-0.0903 0.4853435,-0.1067 v 0.81801 c 0.00199,0.17834 0.1091478,0.18154 0.1111331,0.003 v -0.81801 c 0.1372601,0.0164 0.3372922,0.0394 0.459781,0.1035 0.7939655,0.4155 1.2477162,1.27919 1.139372,2.16873 3.465e-4,0.10755 -0.040645,0.21111 -0.1144995,0.28929 -0.071223,0.0753 -0.1109121,0.17505 -0.1109214,0.27872 z"
           id="path847"
           sodipodi:nodetypes="ccccccccccccccc" />
      </g>
    </g>
  </g>
</svg>
