<?xml version="1.0" encoding="UTF-8" standalone="no"?>
<svg
   xmlns:dc="http://purl.org/dc/elements/1.1/"
   xmlns:cc="http://creativecommons.org/ns#"
   xmlns:rdf="http://www.w3.org/1999/02/22-rdf-syntax-ns#"
   xmlns:svg="http://www.w3.org/2000/svg"
   xmlns="http://www.w3.org/2000/svg"
   xmlns:sodipodi="http://sodipodi.sourceforge.net/DTD/sodipodi-0.dtd"
   xmlns:inkscape="http://www.inkscape.org/namespaces/inkscape"
   width="20"
   height="20"
   viewBox="0 0 20 20"
   version="1.1"
   id="svg838"
   inkscape:version="1.0.1 (3bc2e813f5, 2020-09-07)"
   sodipodi:docname="ears_demon.svg">
  <defs
     id="defs832" />
  <sodipodi:namedview
     id="base"
     pagecolor="#ffffff"
     bordercolor="#666666"
     borderopacity="1.0"
     inkscape:pageopacity="0.0"
     inkscape:pageshadow="2"
     inkscape:zoom="22.4"
     inkscape:cx="12.560618"
     inkscape:cy="3.4277334"
     inkscape:document-units="mm"
     inkscape:current-layer="g846"
     inkscape:document-rotation="0"
     showgrid="false"
     units="px"
     inkscape:window-width="1395"
     inkscape:window-height="1040"
     inkscape:window-x="52"
     inkscape:window-y="0"
     inkscape:window-maximized="0"
     inkscape:pagecheckerboard="true" />
  <metadata
     id="metadata835">
    <rdf:RDF>
      <cc:Work
         rdf:about="">
        <dc:format>image/svg+xml</dc:format>
        <dc:type
           rdf:resource="http://purl.org/dc/dcmitype/StillImage" />
        <dc:title />
      </cc:Work>
    </rdf:RDF>
  </metadata>
  <g
     inkscape:label="Layer 1"
     inkscape:groupmode="layer"
     id="layer1">
    <g
       id="g846"
       transform="translate(1.1369029)">
      <path
         id="rect833"
         style="fill:#5a247e;fill-opacity:1;stroke:none;stroke-width:0.813306;stroke-linecap:round"
         transform="rotate(-30)"
         d="M -4.7489328,9.9812641 1.457375,7.8417115 c 0.1596367,0.090413 7.3337831,2.9548795 7.3337831,2.9548795 -5.4245749,3.902754 -10.4872643,6.336105 -14.4741176,4.401123 -1.0304098,0.03212 0.7545738,-4.843755 0.9340267,-5.2164499 z"
         sodipodi:nodetypes="ccccc" />
      <g
         id="g4307"
         transform="matrix(3.7795276,0,0,3.7795276,-83.137074,-62.752886)"
         style="fill:#9c4dcc;fill-opacity:1">
        <g
           id="g840"
           style="fill:#9c4dcc;fill-opacity:1">
          <path
             style="fill:#9c4dcc;fill-opacity:1;stroke-width:0.0134512"
             id="path4250"
             d="m 26.587846,17.379721 c -1.19595,0.0087 -2.765845,0.487741 -2.765845,0.487741 -0.922485,0.310321 -1.351715,0.654942 -1.565455,0.880788 -0.04605,0.04887 -0.08328,0.105346 -0.110031,0.16693 -0.06292,0.147771 -0.06772,0.313848 -0.01345,0.465009 0.02691,0.07708 0.06187,0.167468 0.09268,0.210781 0.07963,0.112318 0.231496,0.07963 0.302921,-0.03807 0.220467,-0.363183 0.391163,-0.64956 0.951138,-0.980729 0,0 0.623465,-0.361301 1.449102,-0.440125 0.05219,-0.005 0.06389,0.07371 0.01413,0.08999 -0.208629,0.06725 -0.498906,0.191546 -0.735918,0.401251 -0.136664,0.12106 -0.16962,0.324578 -0.069,0.476711 0.0075,0.01143 0.01587,0.02287 0.02488,0.0343 0.02633,0.03246 0.04868,0.06796 0.06658,0.105727 0.0417,0.0916 0.09739,0.256784 0.04762,0.410128 -0.02104,0.06827 -0.08623,0.113144 -0.157514,0.108417 -0.08109,-0.0071 -0.141484,-0.07794 -0.135588,-0.159128 0.0072,-0.09308 -0.0028,-0.220197 -0.0834,-0.326731 -0.115277,-0.152537 -0.327403,-0.189931 -0.496889,-0.101422 -0.09873,0.05166 -0.203921,0.139758 -0.252479,0.289202 0,0 -0.08999,0.239701 0.06725,0.41941 l 0.0335,0.02919 c 0.105415,0.09138 0.116625,0.250973 0.02502,0.356189 v 0 c -0.063,0.07314 -0.162491,0.103456 -0.255574,0.07788 -0.09187,-0.02569 -0.213471,-0.07882 -0.344217,-0.187375 -0.09384,-0.0774 -0.236195,-0.02145 -0.25221,0.09914 -0.0068,0.06474 -0.0045,0.130115 0.0067,0.194236 0.003,0.01923 0.0063,0.0382 0.0098,0.0569 0.04668,0.24441 0.201769,0.457343 0.426001,0.566029 0.19316,0.09349 0.459226,0.123482 0.785687,-0.08151 0.553653,-0.347714 0.953962,-1.099773 1.148736,-1.507345 0.204625,-0.324067 0.126885,-1.351189 1.785788,-2.103505 z"
             inkscape:connector-curvature="0"
             sodipodi:nodetypes="ccccccccccccccccccccccsscccccccccc" />
        </g>
      </g>
    </g>
  </g>
</svg>
