<?xml version="1.0" encoding="UTF-8" standalone="no"?>
<svg
   xmlns:dc="http://purl.org/dc/elements/1.1/"
   xmlns:cc="http://creativecommons.org/ns#"
   xmlns:rdf="http://www.w3.org/1999/02/22-rdf-syntax-ns#"
   xmlns:svg="http://www.w3.org/2000/svg"
   xmlns="http://www.w3.org/2000/svg"
   xmlns:sodipodi="http://sodipodi.sourceforge.net/DTD/sodipodi-0.dtd"
   xmlns:inkscape="http://www.inkscape.org/namespaces/inkscape"
   width="20"
   height="20"
   viewBox="0 0 20 20"
   version="1.1"
   id="svg838"
   inkscape:version="1.0.1 (3bc2e813f5, 2020-09-07)"
   sodipodi:docname="ears_elf.svg">
  <defs
     id="defs832" />
  <sodipodi:namedview
     id="base"
     pagecolor="#ffffff"
     bordercolor="#666666"
     borderopacity="1.0"
     inkscape:pageopacity="0.0"
     inkscape:pageshadow="2"
     inkscape:zoom="22.4"
     inkscape:cx="2.3320443"
     inkscape:cy="11.224152"
     inkscape:document-units="mm"
     inkscape:current-layer="layer1"
     inkscape:document-rotation="0"
     showgrid="false"
     units="px"
     inkscape:window-width="1297"
     inkscape:window-height="1040"
     inkscape:window-x="52"
     inkscape:window-y="0"
     inkscape:window-maximized="0"
     inkscape:pagecheckerboard="true" />
  <metadata
     id="metadata835">
    <rdf:RDF>
      <cc:Work
         rdf:about="">
        <dc:format>image/svg+xml</dc:format>
        <dc:type
           rdf:resource="http://purl.org/dc/dcmitype/StillImage" />
        <dc:title />
      </cc:Work>
    </rdf:RDF>
  </metadata>
  <g
     inkscape:label="Layer 1"
     inkscape:groupmode="layer"
     id="layer1">
    <path
       id="rect832"
       style="fill:#ba7d53;stroke-width:0.14;stroke-linecap:round;fill-opacity:1"
       d="m 4.7982246,12.94258 6.3450204,-5.08233 -0.02328,7.847072 -3.2912863,2.159751 -4.0406106,0.06313 z"
       sodipodi:nodetypes="cccccc" />
    <g
       id="g4277"
       transform="matrix(0.21581911,0,0,0.21581911,14.394471,-0.80008655)"
       style="fill:#deaa87">
      <path
         style="fill:#deaa87;stroke-width:0.264583"
         id="path4252"
         d="m -17.766958,47.090976 c 0.79375,-0.402167 1.47108,0.772583 0.79375,1.338791 -2.87867,2.365375 -6.7019,6.111875 -9.15988,10.89025 -1.4261,2.775479 -0.70643,6.225646 1.85209,8.022167 0.1905,0.134937 0.39158,0.264583 0.60589,0.391583 0.620454,0.350819 1.196144,0.77548 1.7145,1.264709 1.22767,1.19327 3.13002,3.46075 3.29671,6.196541 0.08358,1.146359 -0.582526,2.215549 -1.64835,2.645833 -1.365873,0.511074 -2.88043,-0.231686 -3.31259,-1.624541 -0.48418,-1.5875 -1.50548,-3.664479 -3.64066,-4.833938 -2.75432,-1.502833 -6.17009,-0.711729 -8.22854,1.656292 -1.2409,1.431396 -2.35215,3.476625 -2.19869,6.140979 0,0 0.0635,4.357688 3.67241,6.230938 l 0.71173,0.264583 0.33073,0.132292 c 1.832848,0.843481 3.932934,0.891362 5.80232,0.132291 3.7756,-1.5875 7.69143,-3.082396 10.77647,-4.206875 2.315462,-0.841763 3.973273,-2.897973 4.30478,-5.339291 0.35983,-2.672292 0.57943,-5.103813 0.72495,-7.085542 0.528969,-7.470581 2.3423644,-14.793976 5.3604603,-21.648208 1.82298,-4.116917 10.0209974,-16.266725 13.0848774,-20.579434 1.8898637,-2.661603 -0.935274,-3.570922 -0.935274,-3.570922 v 0 c 0,0 -1.2122504,0.128512 -1.76212,0.391583 -17.1979207,8.342312 -41.3410837,25.856919 -41.3410837,25.856919 -12.7,10.644187 -17.3699,18.769541 -19.35956,23.677562 -0.42328,1.06083 -0.659606,2.186962 -0.6985,3.328458 -0.08434,2.734047 0.867304,5.39903 2.66435,7.46125 0.90223,1.058334 2.01877,2.270125 2.77548,2.767542 1.96056,1.285875 4.16454,-0.174625 4.56935,-2.484438 1.24354,-7.127875 2.17223,-12.726458 8.99584,-21.44977 0,0 7.64645,-9.596438 20.24856,-15.967604 z"
         inkscape:connector-curvature="0"
         sodipodi:nodetypes="cccccccccccccccccccccssccccccccc" />
    </g>
  </g>
</svg>
