<?xml version="1.0" encoding="UTF-8" standalone="no"?>
<svg
   xmlns:dc="http://purl.org/dc/elements/1.1/"
   xmlns:cc="http://creativecommons.org/ns#"
   xmlns:rdf="http://www.w3.org/1999/02/22-rdf-syntax-ns#"
   xmlns:svg="http://www.w3.org/2000/svg"
   xmlns="http://www.w3.org/2000/svg"
   xmlns:sodipodi="http://sodipodi.sourceforge.net/DTD/sodipodi-0.dtd"
   xmlns:inkscape="http://www.inkscape.org/namespaces/inkscape"
   width="20"
   height="20"
   viewBox="0 0 20 20"
   version="1.1"
   id="svg838"
   inkscape:version="1.0.1 (3bc2e813f5, 2020-09-07)"
   sodipodi:docname="ears_neko.svg">
  <defs
     id="defs832" />
  <sodipodi:namedview
     id="base"
     pagecolor="#ffffff"
     bordercolor="#666666"
     borderopacity="1.0"
     inkscape:pageopacity="0.0"
     inkscape:pageshadow="2"
     inkscape:zoom="11.2"
     inkscape:cx="25.829754"
     inkscape:cy="10.165023"
     inkscape:document-units="mm"
     inkscape:current-layer="g839"
     inkscape:document-rotation="0"
     showgrid="false"
     units="px"
     inkscape:window-width="1267"
     inkscape:window-height="1040"
     inkscape:window-x="52"
     inkscape:window-y="0"
     inkscape:window-maximized="0"
     inkscape:pagecheckerboard="true" />
  <metadata
     id="metadata835">
    <rdf:RDF>
      <cc:Work
         rdf:about="">
        <dc:format>image/svg+xml</dc:format>
        <dc:type
           rdf:resource="http://purl.org/dc/dcmitype/StillImage" />
        <dc:title />
      </cc:Work>
    </rdf:RDF>
  </metadata>
  <g
     inkscape:label="Layer 1"
     inkscape:groupmode="layer"
     id="layer1">
    <g
       id="g860"
       transform="matrix(0.48764719,0,0,0.48764719,6.0163473,8.9339605)">
      <g
         stroke="none"
         stroke-width="1"
         fill="none"
         fill-rule="evenodd"
         id="g14"
         transform="translate(-19.025049,-20.838575)">
        <g
           fill="#000000"
           id="g12">
          <g
             id="g839"
             transform="matrix(1.0350378,0,0,1.0350378,-3.4965835,-0.47408072)">
            <path
               d="m 24.0733,84.6195 c -0.853,-0.118 -1.611,-0.222 -2.52,-0.348 -0.077,-0.954 -0.149,-1.857 -0.223,-2.765 -0.215,-0.13 -0.382,-0.291 -0.574,-0.335 -1.987,-0.458 -1.912,-0.468 -2.31,-2.386 -0.437,-2.103 -1.135,-4.155 -1.533,-6.264 -0.487,-2.579 -0.969,-5.186 -1.09,-7.797 -0.078,-1.693 0.304,-3.396 -0.368,-5.059 -0.12,-0.297 -0.118,-0.805 0.061,-1.036 0.966,-1.245 0.662,-2.605 0.373,-3.917 -0.358,-1.625 0.351,-2.982 0.99,-4.308 0.648,-1.344 0.864,-2.517 0.015,-3.849 -0.249,-0.39 -0.22,-1.099 -0.058,-1.574 0.227,-0.664 0.569,-1.398 1.086,-1.831 1.701,-1.422 2.119,-3.329 2.361,-5.364 0.305,-2.557 0.699,-5.103 0.985,-7.661 0.471,-4.206 0.925,-8.415 1.311,-12.63 0.302,-3.283 1.344,-6.264 3.046,-9.09 1.528,-2.535 5.444,-3.22 7.236,-0.613 1.257,1.829 2.486,3.684 3.61,5.598 1.78,3.031 3.429,6.14 5.198,9.178 0.977,1.677 1.287,1.63 3.221,0.932 0.976,-0.352 2.093,-0.314 3.198,-0.459 0.351,0.571 0.636,1.033 0.944,1.536 0.334,-0.039 0.64,-0.006 0.882,-0.115 1.807,-0.811 3.541,-1.246 5.59,-0.506 1.12,0.404 2.545,-0.025 3.832,-0.096 0.354,-0.019 0.918,-0.268 1.025,-0.131 1.002,1.289 2.529,0.498 3.604,0.973 1.168,0.516 2.063,0.266 3.061,-0.024 1.09,-0.317 2.013,-0.337 2.407,0.919 5.145,-0.721 8.744,-3.973 12.462,-7.016 1.943,-1.591 3.82,-3.281 5.882,-4.701 1.202,-0.829 2.672,-1.338 4.09,-1.764 1.694,-0.51 2.705,-0.061 3.178,1.622 0.417,1.482 0.582,3.126 0.439,4.659 -0.433,4.644 -0.852,9.31 -1.694,13.89 -0.7,3.809 -0.3,7.521 -0.002,11.277 0.039,0.493 0.164,0.991 0.324,1.461 0.668,1.986 0.903,3.978 0.785,6.105 -0.117,2.128 0.281,4.285 0.462,6.428 0.024,0.284 0.232,0.631 0.129,0.835 -0.948,1.879 -0.561,3.893 -0.653,5.857 -0.016,0.353 -0.18,0.745 -0.077,1.053 0.437,1.3 -0.122,2.213 -1.023,3.049 -0.626,0.58 -0.843,1.272 -0.63,2.147 0.106,0.441 0.092,1.02 -0.113,1.41 -0.96,1.831 -2.012,3.614 -3.016,5.423 -0.577,1.04 -1.545,1.925 -1.235,3.329 0.051,0.229 -0.354,0.567 -0.564,0.843 -0.552,0.725 -1.116,1.442 -1.668,2.166 -0.13,0.17 -0.192,0.453 -0.355,0.525 -2.501,1.107 -3.682,3.583 -5.579,5.31 -0.397,0.363 -1.022,0.502 -1.565,0.672 -0.674,0.211 -1.381,0.236 -1.566,1.196 -0.062,0.32 -0.713,0.696 -1.127,0.739 -0.693,0.073 -1.443,0.004 -2.112,-0.195 -1.08,-0.321 -1.905,-0.166 -2.73,0.659 -0.464,0.464 -1.194,0.868 -1.831,0.91 -1.101,0.074 -2.086,0.074 -2.91,1.024 -0.274,0.315 -1.129,0.393 -1.592,0.227 -1.62,-0.579 -3.173,-0.421 -4.854,-0.236 -1.895,0.208 -3.864,-0.226 -5.798,-0.4 -0.28,-0.025 -0.549,-0.221 -0.825,-0.224 -2.421,-0.03 -4.842,-0.039 -7.262,-0.042 -0.284,-10e-4 -0.587,0.158 -0.849,0.099 -2.013,-0.456 -4.068,-0.799 -6.014,-1.46 -2.789,-0.949 -5.557,-1.885 -8.544,-1.801 -0.913,0.026 -1.298,-0.537 -1.594,-1.191 -0.527,-1.168 -1.394,-1.505 -2.614,-1.376 -1.852,0.197 -2.053,0.014 -2.408,-1.781 -0.108,-0.55 -0.199,-1.103 -0.307,-1.706"
               id="path853"
               style="fill:#28170b;fill-opacity:1" />
            <path
               d="m 76.3443,84.7895 c 1.473,2.481 2.021,2.588 3.484,0.648 -0.704,-0.427 -1.385,-0.841 -2.187,-1.328 0.426,-0.974 -1.388,-2.363 0.356,-3.387 1.057,1.238 1.351,2.924 2.639,4.11 0.778,-0.861 1.389,-1.536 1.938,-2.144 -0.156,-0.9 -1.162,-1.535 -0.376,-2.46 1.594,1.805 1.594,1.805 2.628,0.601 -0.206,-0.74 -1.434,-1.137 -0.743,-2.251 0.521,0.168 1.008,0.325 1.419,0.458 0.494,-0.972 0.91,-1.791 1.29,-2.539 -0.224,-0.397 -0.445,-0.784 -0.718,-1.265 2.655,0.084 2.765,-0.052 2.008,-2.818 0.928,0.351 1.722,0.505 2.361,-0.473 0.818,-1.251 -0.305,-1.928 -0.763,-2.9 0.536,-0.232 1.347,-0.184 1.044,-1.059 -0.189,-0.543 -0.156,-0.872 0.542,-1.106 0.392,-0.131 0.696,-0.76 0.885,-1.227 0.363,-0.904 -0.337,-1.444 -0.833,-2.049 -0.111,-0.134 -0.083,-0.381 -0.156,-0.767 0.565,0.144 0.995,0.255 1.48,0.379 0.742,-1.552 -0.291,-2.563 -1.21,-3.692 0.587,-0.312 1.039,-0.552 1.425,-0.757 -0.099,-1.152 -0.299,-2.15 -0.245,-3.134 0.135,-2.48 0.516,-4.965 -0.826,-7.278 -0.136,-0.235 -0.128,-0.556 -0.185,-0.837 -0.393,-1.913 -0.787,-3.827 -1.176,-5.741 -0.193,-0.953 -0.375,-1.907 -0.599,-3.045 0.143,-0.49 0.425,-1.209 0.555,-1.955 0.899,-5.16 1.686,-10.34 2.684,-15.481 0.387,-1.992 0.11,-3.857 -0.301,-5.746 -0.241,-1.103 -0.827,-1.362 -1.916,-0.958 -0.464,0.173 -0.904,0.444 -1.309,0.735 -1.745,1.258 -3.486,2.522 -5.204,3.816 -3.092,2.329 -6.175,4.67 -9.244,7.028 -1.936,1.488 -4.284,1.414 -6.519,1.741 -0.311,0.046 -0.847,-0.308 -1.01,-0.619 -0.412,-0.786 -1.06,-0.736 -1.657,-0.53 -1.246,0.43 -2.311,0.441 -3.667,0.002 -1.41,-0.455 -3.176,0.393 -4.56,-0.816 -1.458,0.387 -3.109,-0.214 -4.442,0.919 -0.258,0.22 -0.781,0.13 -1.261,0.193 -0.11,-0.585 -0.196,-1.043 -0.318,-1.693 -0.919,0.34 -1.695,0.7 -2.509,0.904 -0.865,0.217 -1.897,0.745 -2.561,-0.255 -0.692,-1.042 -1.395,-0.676 -2.213,-0.311 -0.746,0.334 -1.52,0.603 -2.309,0.911 -1.164,-1.666 -2.274,-3.073 -3.185,-4.599 -1.58,-2.649 -3.022,-5.38 -4.553,-8.06 -0.817,-1.433 -1.658,-2.853 -2.553,-4.237 -1.329,-2.053 -3.353,-2.128 -4.644,-0.081 -0.714,1.133 -1.229,2.439 -1.593,3.735 -0.482,1.722 -0.855,3.496 -1.048,5.273 -0.373,3.419 -0.664,6.852 -0.843,10.287 -0.183,3.511 -0.133,7.046 -1.05,10.47 -0.267,0.996 -0.874,1.905 -1.353,2.839 -0.626,1.221 -1.96,2.226 -1.128,3.881 0.078,0.156 0.06,0.441 -0.035,0.591 -1.393,2.235 -0.849,4.999 -2.007,7.311 -0.226,0.45 -0.022,1.129 0.026,1.698 0.1,1.206 0.416,2.426 0.307,3.61 -0.202,2.185 -0.6,4.341 0.249,6.481 0.094,0.241 -0.042,0.565 -0.03,0.85 0.09,1.994 -0.554,4.137 1.199,5.804 0.141,0.133 0.142,0.556 0.045,0.773 -0.496,1.118 0.596,1.195 1.239,1.66 -1.745,1.717 1.466,2.049 0.622,3.416 0.925,-0.221 1.831,-0.201 2.381,-0.634 0.545,-0.43 0.731,-1.316 1.074,-2.002 0.131,0.05 0.261,0.099 0.391,0.149 -0.62,1.814 0.411,3.739 -0.594,5.565 -0.241,0.437 0.035,1.157 0.089,1.97 0.74,-0.472 1.171,-0.747 1.732,-1.104 0.184,1.171 0.335,2.135 0.542,3.45 0.44,-0.646 0.684,-1.003 1.078,-1.582 0.752,1.76 1.93,2.747 3.56,3.09 0.399,-0.417 0.709,-0.741 0.976,-1.02 0.565,0.73 0.961,1.74 1.491,1.816 0.902,0.13 1.371,0.736 2.012,1.02 1.213,0.537 2.546,0.795 3.611,1.692 0.056,0.046 0.335,-0.226 0.53,-0.279 0.244,-0.068 0.521,-0.129 0.76,-0.078 2.167,0.461 4.314,1.048 6.501,1.368 0.743,0.109 1.582,-0.437 2.605,-0.756 0.997,1.023 2.225,0.308 3.189,-0.247 0.714,0.556 1.289,1.382 1.864,1.381 1.523,-0.001 3.073,-0.25 4.564,-0.603 1.627,-0.384 3.185,-0.991 4.87,-0.236 0.434,0.195 0.997,0.224 1.477,0.157 0.598,-0.084 1.084,-0.393 0.915,-1.173 -0.062,-0.284 -0.01,-0.593 -0.01,-1.129 1.677,1.925 1.677,1.925 5.126,0.657 v -2.19 c 0.558,0.81 0.858,1.245 1.135,1.648 1.077,-0.585 2.059,-1.12 3.041,-1.653 -0.622,-1.335 -0.622,-1.335 -0.296,-2.803"
               id="path6"
               style="fill:#c87137" />
            <path
               d="m 87.3736,37.2036 c -1.536,-0.999 -0.201,-2.322 -0.574,-3.659 -0.384,0.104 -0.744,0.238 -1.116,0.297 -0.596,0.094 -1.308,0.371 -1.776,0.154 -0.756,-0.352 -0.304,-1.106 -0.15,-1.718 0.114,-0.455 0.159,-0.928 0.272,-1.628 -1.01,0.446 -1.751,0.888 -2.552,1.095 -0.972,0.25 -2.07,0.38 -2.746,-0.609 -0.614,-0.899 -0.229,-1.88 0.347,-2.604 3.078,-3.863 6.212,-7.682 9.358,-11.489 0.26,-0.315 0.758,-0.433 1.146,-0.643 l 0.316,0.353 c -0.363,0.459 -0.676,0.973 -1.099,1.368 -3.268,3.059 -5.645,6.84 -8.41,10.305 -0.48,0.602 -1.186,1.329 -0.578,2.094 0.711,0.893 1.683,0.463 2.543,0.045 0.876,-0.424 1.749,-0.854 3.108,-1.518 -0.278,1.57 -0.468,2.637 -0.701,3.958 0.918,-0.235 1.695,-0.434 2.696,-0.69 1.029,1.646 -0.348,3.284 -0.084,4.889 z M 34.5084,30.4731 c -1.815,0.38 -2.589,-1.204 -4.075,-1.473 v 2.732 h -2.097 c 0.043,0.959 0.079,1.795 0.126,2.868 -0.742,0.089 -1.473,0.177 -2.273,0.273 0.434,-0.792 0.922,-1.374 1.068,-2.031 0.145,-0.651 -0.055,-1.379 -0.109,-2.169 0.71,-0.136 1.246,-0.238 1.984,-0.379 -0.13,-1.05 -0.257,-2.07 -0.404,-3.263 1.938,0.111 2.808,2.075 4.779,2.225 0.428,-2.724 -0.225,-5.366 -0.853,-7.94 -0.614,-2.509 -1.631,-4.918 -2.267,-7.425 3.185,5.015 4.001,10.623 4.121,16.582 z m 10.792,4.4834 c -17.516901,-9.41195 -8.75845,-4.705975 0,0 z"
               id="path8"
               sodipodi:nodetypes="cccccccccccccccccccccccccccccccccccc"
               style="fill:#28170b;fill-opacity:1" />
          </g>
        </g>
      </g>
    </g>
  </g>
</svg>
