<?xml version="1.0" encoding="UTF-8" standalone="no"?>
<svg
   xmlns:dc="http://purl.org/dc/elements/1.1/"
   xmlns:cc="http://creativecommons.org/ns#"
   xmlns:rdf="http://www.w3.org/1999/02/22-rdf-syntax-ns#"
   xmlns:svg="http://www.w3.org/2000/svg"
   xmlns="http://www.w3.org/2000/svg"
   xmlns:sodipodi="http://sodipodi.sourceforge.net/DTD/sodipodi-0.dtd"
   xmlns:inkscape="http://www.inkscape.org/namespaces/inkscape"
   width="20"
   height="20"
   viewBox="0 0 20 20"
   version="1.1"
   id="svg838"
   inkscape:version="1.0.1 (3bc2e813f5, 2020-09-07)"
   sodipodi:docname="eq_blind.svg">
  <defs
     id="defs832">
    <clipPath
       id="a-2">
      <rect
         id="rect6042"
         height="64"
         width="64"
         x="0"
         y="0" />
    </clipPath>
  </defs>
  <sodipodi:namedview
     id="base"
     pagecolor="#ffffff"
     bordercolor="#666666"
     borderopacity="1.0"
     inkscape:pageopacity="0.0"
     inkscape:pageshadow="2"
     inkscape:zoom="15.839192"
     inkscape:cx="7.0431287"
     inkscape:cy="8.6727398"
     inkscape:document-units="mm"
     inkscape:current-layer="g6040"
     inkscape:document-rotation="0"
     showgrid="false"
     units="px"
     inkscape:window-width="1285"
     inkscape:window-height="1040"
     inkscape:window-x="52"
     inkscape:window-y="0"
     inkscape:window-maximized="0"
     inkscape:pagecheckerboard="true" />
  <metadata
     id="metadata835">
    <rdf:RDF>
      <cc:Work
         rdf:about="">
        <dc:format>image/svg+xml</dc:format>
        <dc:type
           rdf:resource="http://purl.org/dc/dcmitype/StillImage" />
        <dc:title />
      </cc:Work>
    </rdf:RDF>
  </metadata>
  <g
     inkscape:label="Layer 1"
     inkscape:groupmode="layer"
     id="layer1">
    <g
       style="fill:#c87137;fill-opacity:1"
       transform="matrix(0.36174663,0,0,0.36174663,-1.5758922,-1.5758922)"
       id="g6141">
      <g
         style="fill:#00ff00;fill-opacity:1"
         transform="matrix(9.9068945,0,0,9.9068945,-210.85002,-288.29995)"
         id="g6040">
        <g
           id="g6580"
           transform="matrix(0.05752761,0,0,0.05752761,21.578894,29.455094)"
           style="fill:#000000;fill-opacity:1">
          <path
             inkscape:connector-curvature="0"
             d="M 85.559,23.946 C 80.234,9.938 66.697,-0.016 50.818,-0.016 c -15.789,0 -30.425,11.102 -34.877,23.962 z"
             id="path6572"
             style="fill:#000000;fill-opacity:1" />
          <polygon
             points="7.416,43.709 91.722,43.709 91.722,26.664 7.416,26.664 "
             id="polygon6574"
             style="fill:#000000;fill-opacity:1" />
          <path
             inkscape:connector-curvature="0"
             d="m 89.438,46.298 c -0.382,2.991 -1.722,9.102 -6.412,15.13 -1.669,2.149 -3.185,3.771 -4.469,4.993 v 17.273 l 10.645,-14.268 8.944,2.038 z"
             id="path6576"
             style="fill:#000000;fill-opacity:1" />
          <path
             inkscape:connector-curvature="0"
             d="m 68.507,46.427 c 0.819,2.223 0.802,4.97 -0.082,8.047 -1.441,5.03 -5.649,8.404 -10.006,8.404 -0.767,0 -1.538,-0.104 -2.299,-0.321 -0.721,-0.206 -1.139,-0.958 -0.932,-1.68 0.205,-0.721 0.956,-1.142 1.68,-0.932 3.644,1.035 7.663,-1.747 8.945,-6.222 0.589,-2.054 1.029,-4.965 -0.218,-7.173 -0.026,-0.045 -0.063,-0.08 -0.091,-0.124 H 9.284 L 4.098,56.695 c -0.155,0.349 -0.229,0.75 -0.229,1.161 0,1.652 1.332,2.993 2.99,2.993 h 6.785 v 11.038 c 0,8.635 3.765,14.524 14.646,14.524 h 2.579 V 100 H 73.767 L 73.742,66.874 c 1.136,-0.764 3.794,-2.815 7.138,-7.115 4.047,-5.201 5.361,-10.517 5.791,-13.332 v 0 z"
             id="path6578"
             style="fill:#000000;fill-opacity:1" />
        </g>
      </g>
    </g>
  </g>
</svg>
