<?xml version="1.0" encoding="UTF-8" standalone="no"?>
<svg
   xmlns:dc="http://purl.org/dc/elements/1.1/"
   xmlns:cc="http://creativecommons.org/ns#"
   xmlns:rdf="http://www.w3.org/1999/02/22-rdf-syntax-ns#"
   xmlns:svg="http://www.w3.org/2000/svg"
   xmlns="http://www.w3.org/2000/svg"
   xmlns:sodipodi="http://sodipodi.sourceforge.net/DTD/sodipodi-0.dtd"
   xmlns:inkscape="http://www.inkscape.org/namespaces/inkscape"
   width="20"
   height="20"
   viewBox="0 0 20 20"
   version="1.1"
   id="svg838"
   inkscape:version="1.0.1 (3bc2e813f5, 2020-09-07)"
   sodipodi:docname="eq_collar.svg">
  <defs
     id="defs832">
    <clipPath
       id="a-2">
      <rect
         id="rect6042"
         height="64"
         width="64"
         x="0"
         y="0" />
    </clipPath>
  </defs>
  <sodipodi:namedview
     id="base"
     pagecolor="#ffffff"
     bordercolor="#666666"
     borderopacity="1.0"
     inkscape:pageopacity="0.0"
     inkscape:pageshadow="2"
     inkscape:zoom="7.919596"
     inkscape:cx="-1.335801"
     inkscape:cy="13.277311"
     inkscape:document-units="mm"
     inkscape:current-layer="g6040"
     inkscape:document-rotation="0"
     showgrid="false"
     units="px"
     inkscape:window-width="1282"
     inkscape:window-height="1040"
     inkscape:window-x="52"
     inkscape:window-y="0"
     inkscape:window-maximized="0"
     inkscape:pagecheckerboard="true" />
  <metadata
     id="metadata835">
    <rdf:RDF>
      <cc:Work
         rdf:about="">
        <dc:format>image/svg+xml</dc:format>
        <dc:type
           rdf:resource="http://purl.org/dc/dcmitype/StillImage" />
        <dc:title />
      </cc:Work>
    </rdf:RDF>
  </metadata>
  <g
     inkscape:label="Layer 1"
     inkscape:groupmode="layer"
     id="layer1">
    <g
       style="fill:#c87137;fill-opacity:1"
       transform="matrix(0.36174663,0,0,0.36174663,-1.5758922,-1.5758922)"
       id="g6141">
      <g
         style="fill:#00ff00;fill-opacity:1"
         transform="matrix(9.9068945,0,0,9.9068945,-210.85002,-288.29995)"
         id="g6040">
        <g
           id="g10"
           style="fill:#000000;fill-opacity:1"
           transform="matrix(0.07277434,0,0,0.07277434,20.874517,28.692298)">
          <g
             id="g8"
             style="fill:#000000;fill-opacity:1">
            <path
               d="M 30.922,51.047 C 21.532,48.664 15.333,44.575 15.333,39.929 v 18.619 c 0,4.242 5.169,8.019 13.213,10.457 -1.041,-2.207 -1.592,-4.633 -1.592,-7.141 0,-4.025 1.438,-7.833 3.968,-10.817 z"
               id="path2"
               style="fill:#000000;fill-opacity:1" />
            <path
               d="m 30.548,46.394 c 5.331,-1.324 12.005,-2.113 19.254,-2.113 7.249,0 13.923,0.789 19.254,2.113 7.498,-1.861 12.335,-4.784 12.335,-8.072 0,-5.627 -14.143,-10.187 -31.589,-10.187 -17.446,0 -31.589,4.56 -31.589,10.187 0,3.287 4.837,6.21 12.335,8.072 z"
               id="path4"
               style="fill:#000000;fill-opacity:1" />
            <path
               d="m 50,53.246 c -5.245,0 -10.214,-0.449 -14.67,-1.251 -2.887,2.446 -4.571,6.032 -4.571,9.869 0,3.151 1.136,6.13 3.19,8.486 4.8,0.966 10.258,1.515 16.051,1.515 19.146,0 34.667,-5.963 34.667,-13.317 V 39.929 c 0,7.355 -15.521,13.317 -34.667,13.317 z m -9.696,11.465 c -1.451,0 -2.628,-1.153 -2.628,-2.576 0,-1.423 1.177,-2.576 2.628,-2.576 1.451,0 2.628,1.153 2.628,2.576 0,1.423 -1.177,2.576 -2.628,2.576 z m 12.052,0.946 c -1.45,0 -2.627,-1.153 -2.627,-2.577 0,-1.423 1.177,-2.576 2.627,-2.576 1.451,0 2.628,1.153 2.628,2.576 0,1.424 -1.176,2.577 -2.628,2.577 z m 12.417,-1.363 c -1.451,0 -2.627,-1.152 -2.627,-2.576 0,-1.423 1.176,-2.576 2.627,-2.576 1.451,0 2.627,1.153 2.627,2.576 0,1.424 -1.175,2.576 -2.627,2.576 z"
               id="path6"
               style="fill:#000000;fill-opacity:1" />
          </g>
        </g>
      </g>
    </g>
  </g>
</svg>
