<?xml version="1.0" encoding="UTF-8" standalone="no"?>
<svg
   xmlns:dc="http://purl.org/dc/elements/1.1/"
   xmlns:cc="http://creativecommons.org/ns#"
   xmlns:rdf="http://www.w3.org/1999/02/22-rdf-syntax-ns#"
   xmlns:svg="http://www.w3.org/2000/svg"
   xmlns="http://www.w3.org/2000/svg"
   xmlns:sodipodi="http://sodipodi.sourceforge.net/DTD/sodipodi-0.dtd"
   xmlns:inkscape="http://www.inkscape.org/namespaces/inkscape"
   width="20"
   height="20"
   viewBox="0 0 20 20"
   version="1.1"
   id="svg838"
   inkscape:version="1.0.1 (3bc2e813f5, 2020-09-07)"
   sodipodi:docname="eq_chastity.svg">
  <defs
     id="defs832">
    <clipPath
       id="a-2">
      <rect
         id="rect6042"
         height="64"
         width="64"
         x="0"
         y="0" />
    </clipPath>
  </defs>
  <sodipodi:namedview
     id="base"
     pagecolor="#ffffff"
     bordercolor="#666666"
     borderopacity="1.0"
     inkscape:pageopacity="0.0"
     inkscape:pageshadow="2"
     inkscape:zoom="15.839192"
     inkscape:cx="7.0431287"
     inkscape:cy="8.6727398"
     inkscape:document-units="mm"
     inkscape:current-layer="g6040"
     inkscape:document-rotation="0"
     showgrid="false"
     units="px"
     inkscape:window-width="1267"
     inkscape:window-height="1040"
     inkscape:window-x="52"
     inkscape:window-y="0"
     inkscape:window-maximized="0"
     inkscape:pagecheckerboard="true" />
  <metadata
     id="metadata835">
    <rdf:RDF>
      <cc:Work
         rdf:about="">
        <dc:format>image/svg+xml</dc:format>
        <dc:type
           rdf:resource="http://purl.org/dc/dcmitype/StillImage" />
        <dc:title />
      </cc:Work>
    </rdf:RDF>
  </metadata>
  <g
     inkscape:label="Layer 1"
     inkscape:groupmode="layer"
     id="layer1">
    <g
       style="fill:#c87137;fill-opacity:1"
       transform="matrix(0.36174663,0,0,0.36174663,-1.5758922,-1.5758922)"
       id="g6141">
      <g
         style="fill:#00ff00;fill-opacity:1"
         transform="matrix(9.9068945,0,0,9.9068945,-210.85002,-288.29995)"
         id="g6040">
        <path
           style="fill:#000000;stroke-width:0.0602818;fill-opacity:1"
           inkscape:connector-curvature="0"
           d="m 24.513234,30.47467 c -0.904228,-0.904228 -2.712684,-0.59679 -2.712684,0.904228 0,1.501019 2.712684,3.315503 2.712684,3.315503 0,0 2.712684,-1.814484 2.712684,-3.315503 0,-1.501018 -1.808456,-1.808456 -2.712684,-0.904228 z m 0.391832,2.580065 H 24.181684 L 24.3987,32.07214 c -0.198932,-0.06028 -0.33758,-0.247156 -0.33758,-0.46417 0,-0.265241 0.217016,-0.494312 0.482255,-0.482255 0.271268,0.01206 0.494312,0.223042 0.482255,0.482255 -0.006,0.210987 -0.144676,0.403888 -0.33155,0.46417 z"
           id="path6610" />
      </g>
    </g>
  </g>
</svg>
