<?xml version="1.0" encoding="UTF-8" standalone="no"?>
<svg
   xmlns:dc="http://purl.org/dc/elements/1.1/"
   xmlns:cc="http://creativecommons.org/ns#"
   xmlns:rdf="http://www.w3.org/1999/02/22-rdf-syntax-ns#"
   xmlns:svg="http://www.w3.org/2000/svg"
   xmlns="http://www.w3.org/2000/svg"
   xmlns:sodipodi="http://sodipodi.sourceforge.net/DTD/sodipodi-0.dtd"
   xmlns:inkscape="http://www.inkscape.org/namespaces/inkscape"
   viewBox="0 0 512 512"
   x="0px"
   y="0px"
   version="1.1"
   id="svg6"
   sodipodi:docname="eq_gagged.svg"
   inkscape:version="1.0.1 (3bc2e813f5, 2020-09-07)">
  <metadata
     id="metadata12">
    <rdf:RDF>
      <cc:Work
         rdf:about="">
        <dc:format>image/svg+xml</dc:format>
        <dc:type
           rdf:resource="http://purl.org/dc/dcmitype/StillImage" />
        <dc:title>abnormal Silent</dc:title>
      </cc:Work>
    </rdf:RDF>
  </metadata>
  <defs
     id="defs10" />
  <sodipodi:namedview
     pagecolor="#ffffff"
     bordercolor="#666666"
     borderopacity="1"
     objecttolerance="10"
     gridtolerance="10"
     guidetolerance="10"
     inkscape:pageopacity="0"
     inkscape:pageshadow="2"
     inkscape:window-width="1224"
     inkscape:window-height="865"
     id="namedview8"
     showgrid="false"
     inkscape:zoom="0.58695388"
     inkscape:cx="261.99424"
     inkscape:cy="210.92949"
     inkscape:window-x="0"
     inkscape:window-y="0"
     inkscape:window-maximized="0"
     inkscape:current-layer="svg6"
     inkscape:document-rotation="0"
     inkscape:pagecheckerboard="true" />
  <title
     id="title2">abnormal Silent</title>
  <path
     d="m 283.38402,456.63902 c 33.27113,-16.77515 87.76634,-54.73075 110.44722,-130.30174 l 4.65831,-0.68043 a 24.948983,24.948983 0 0 0 19.10429,-14.57683 c 9.96215,-22.29707 11.48002,-46.41732 11.34045,-60.54054 a 25.297919,25.297919 0 0 0 -9.36896,-19.33983 l -15.9813,-12.98044 c -3.52426,-41.22689 -16.36514,-96.67295 -56.85925,-134.070252 -50.99712,-47.02796 -130.45003,-47.02796 -181.44715,0 -40.49412,37.362412 -53.33499,92.808472 -56.84181,134.035352 l -15.981303,13.01534 a 25.297919,25.297919 0 0 0 -9.368954,19.33983 c -0.148298,14.12322 1.369578,38.24347 11.340447,60.54054 a 24.948983,24.948983 0 0 0 19.10429,14.57683 l 4.65831,0.68043 c 22.68089,75.57099 77.16738,113.52659 110.43851,130.27556 a 60.898198,60.898198 0 0 0 54.7569,0.0262 z m 17.10663,-224.61065 1.59639,-15.28343 a 15.396837,15.396837 0 0 1 30.62793,3.18405 l -1.59638,15.30961 a 15.397859,15.397859 0 0 1 -30.62794,-3.21023 z m -119.60682,3.18406 -1.59639,-15.3096 a 15.396837,15.396837 0 0 1 30.62794,-3.15789 l 1.59638,15.28343 a 15.396837,15.396837 0 0 1 -30.62793,3.18406 z m 28.0109,159.21987 -3.8034,-4.43151 a 15.597475,15.597475 0 0 1 1.66616,-21.98301 l 20.81409,-17.86557 -24.54771,-21.74748 a 15.588752,15.588752 0 0 1 -1.33469,-22.00047 l 3.87321,-4.36171 a 15.580029,15.580029 0 0 1 22.00046,-1.33469 l 28.35111,25.07984 28.7873,-24.70472 a 15.580029,15.580029 0 0 1 21.97429,1.66616 l 3.80342,4.43151 a 15.580029,15.580029 0 0 1 -1.66618,21.97429 l -24.89664,21.416 20.56983,18.22322 a 15.580029,15.580029 0 0 1 1.33468,22.00047 l -3.86448,4.36172 a 15.597475,15.597475 0 0 1 -22.00919,1.33467 l -24.36452,-21.58174 -24.696,21.1892 a 15.597475,15.597475 0 0 1 -21.99174,-1.66618 z"
     id="path4"
     style="fill:#000000;stroke-width:0.872341" />
</svg>
