<?xml version="1.0" encoding="UTF-8" standalone="no"?>
<svg
   xmlns:dc="http://purl.org/dc/elements/1.1/"
   xmlns:cc="http://creativecommons.org/ns#"
   xmlns:rdf="http://www.w3.org/1999/02/22-rdf-syntax-ns#"
   xmlns:svg="http://www.w3.org/2000/svg"
   xmlns="http://www.w3.org/2000/svg"
   xmlns:sodipodi="http://sodipodi.sourceforge.net/DTD/sodipodi-0.dtd"
   xmlns:inkscape="http://www.inkscape.org/namespaces/inkscape"
   width="20"
   height="20"
   viewBox="0 0 20 20"
   version="1.1"
   id="svg838"
   inkscape:version="1.0.1 (3bc2e813f5, 2020-09-07)"
   sodipodi:docname="eq_plug_vagina.svg">
  <defs
     id="defs832">
    <clipPath
       id="a-2">
      <rect
         id="rect6042"
         height="64"
         width="64"
         x="0"
         y="0" />
    </clipPath>
  </defs>
  <sodipodi:namedview
     id="base"
     pagecolor="#ffffff"
     bordercolor="#666666"
     borderopacity="1.0"
     inkscape:pageopacity="0.0"
     inkscape:pageshadow="2"
     inkscape:zoom="11.2"
     inkscape:cx="11.09957"
     inkscape:cy="13.629805"
     inkscape:document-units="mm"
     inkscape:current-layer="g6040"
     inkscape:document-rotation="0"
     showgrid="false"
     units="px"
     inkscape:window-width="1307"
     inkscape:window-height="1040"
     inkscape:window-x="52"
     inkscape:window-y="0"
     inkscape:window-maximized="0"
     inkscape:pagecheckerboard="true" />
  <metadata
     id="metadata835">
    <rdf:RDF>
      <cc:Work
         rdf:about="">
        <dc:format>image/svg+xml</dc:format>
        <dc:type
           rdf:resource="http://purl.org/dc/dcmitype/StillImage" />
        <dc:title />
      </cc:Work>
    </rdf:RDF>
  </metadata>
  <g
     inkscape:label="Layer 1"
     inkscape:groupmode="layer"
     id="layer1">
    <g
       style="fill:#c87137;fill-opacity:1"
       transform="matrix(0.36174663,0,0,0.36174663,-1.5758922,-1.5758922)"
       id="g6141">
      <g
         style="fill:#00ff00;fill-opacity:1"
         transform="matrix(9.9068945,0,0,9.9068945,-210.85002,-288.29995)"
         id="g6040">
        <g
           id="g850"
           transform="matrix(-0.70710678,-0.70710678,-0.70710678,0.70710678,65.197712,26.798989)">
          <g
             id="g6640"
             transform="matrix(0.09909295,0,0,0.09909295,21.245419,29.154788)"
             style="fill:#000000;fill-opacity:1">
            <path
               inkscape:connector-curvature="0"
               d="m 43,28.22 -3.507,0.7 -1.786,1.786 -1.414,-1.414 2,-2 a 0.991,0.991 0 0 1 0.511,-0.273 l 4.2,-0.84 v -2.9 L 40.247,23.968 39.761,22.028 43,21.219 v -1.158 c -0.125,0 -0.251,0.006 -0.393,0.006 A 14.393,14.393 0 0 1 33,16.681 v 2.7 l 3.447,1.723 a 1,1 0 0 1 0.5,0.579 l 1,3 -1.9,0.632 L 35.178,22.708 33,21.618 v 8.764 l 3.447,1.718 a 1.01,1.01 0 0 1 0.385,0.34 l 2,3 -1.664,1.11 L 35.315,33.771 33,32.618 V 54 h 10 z"
               id="path6632"
               style="fill:#000000;fill-opacity:1" />
            <path
               inkscape:connector-curvature="0"
               d="m 24.174,44.951 a 2.966,2.966 0 0 0 -3.2,2.292 L 19.98,52.2 A 1.724,1.724 0 0 0 20.338,53.584 0.943,0.943 0 0 0 21,54 H 31 V 45.867 L 24.858,44.99 A 6.323,6.323 0 0 0 24.174,44.951 Z M 27,48 h 2 v 2 h -2 z m -2,4 h -2 v -2 h 2 z"
               id="path6634"
               style="fill:#000000;fill-opacity:1" />
            <path
               inkscape:connector-curvature="0"
               d="m 45.252,15.707 a 7.325,7.325 0 0 1 -2.29,-4.624 C 42.885,10.508 42.029,4.916 38,4.106 V 6 H 36 V 4.22 C 33.1,5.453 33,11.928 33,12 v 1.689 c 3.668,5.152 10.76,4.329 10.835,4.319 A 0.861,0.861 0 0 1 43.959,18 c 1.25,0 1.857,-0.395 2,-0.733 0.152,-0.373 -0.118,-0.967 -0.707,-1.56 z"
               id="path6636"
               style="fill:#000000;fill-opacity:1" />
            <polygon
               points="31.869,60 44.091,60 41.424,56 34.535,56 "
               id="polygon6638"
               style="fill:#000000;fill-opacity:1" />
          </g>
        </g>
      </g>
    </g>
  </g>
</svg>
