<?xml version="1.0" encoding="UTF-8" standalone="no"?>
<svg
   xmlns:dc="http://purl.org/dc/elements/1.1/"
   xmlns:cc="http://creativecommons.org/ns#"
   xmlns:rdf="http://www.w3.org/1999/02/22-rdf-syntax-ns#"
   xmlns:svg="http://www.w3.org/2000/svg"
   xmlns="http://www.w3.org/2000/svg"
   xmlns:sodipodi="http://sodipodi.sourceforge.net/DTD/sodipodi-0.dtd"
   xmlns:inkscape="http://www.inkscape.org/namespaces/inkscape"
   width="20"
   height="20"
   viewBox="0 0 20 20"
   version="1.1"
   id="svg838"
   inkscape:version="1.0.1 (3bc2e813f5, 2020-09-07)"
   sodipodi:docname="eq_pony.svg">
  <defs
     id="defs832">
    <clipPath
       id="a-2">
      <rect
         id="rect6042"
         height="64"
         width="64"
         x="0"
         y="0" />
    </clipPath>
  </defs>
  <sodipodi:namedview
     id="base"
     pagecolor="#ffffff"
     bordercolor="#666666"
     borderopacity="1.0"
     inkscape:pageopacity="0.0"
     inkscape:pageshadow="2"
     inkscape:zoom="15.839192"
     inkscape:cx="7.0431287"
     inkscape:cy="8.6727398"
     inkscape:document-units="mm"
     inkscape:current-layer="g6040"
     inkscape:document-rotation="0"
     showgrid="false"
     units="px"
     inkscape:window-width="1267"
     inkscape:window-height="1040"
     inkscape:window-x="75"
     inkscape:window-y="0"
     inkscape:window-maximized="0"
     inkscape:pagecheckerboard="true" />
  <metadata
     id="metadata835">
    <rdf:RDF>
      <cc:Work
         rdf:about="">
        <dc:format>image/svg+xml</dc:format>
        <dc:type
           rdf:resource="http://purl.org/dc/dcmitype/StillImage" />
        <dc:title />
      </cc:Work>
    </rdf:RDF>
  </metadata>
  <g
     inkscape:label="Layer 1"
     inkscape:groupmode="layer"
     id="layer1">
    <g
       style="fill:#c87137;fill-opacity:1"
       transform="matrix(0.36174663,0,0,0.36174663,-1.5758922,-1.5758922)"
       id="g6141">
      <g
         style="fill:#00ff00;fill-opacity:1"
         transform="matrix(9.9068945,0,0,9.9068945,-210.85002,-288.29995)"
         id="g6040">
        <g
           style="fill:#000000;fill-rule:evenodd;stroke:none;stroke-width:1;fill-opacity:1"
           id="g6486"
           transform="matrix(0.06014684,0,0,0.06014684,21.505886,29.293599)">
          <g
             style="fill:#000000;fill-opacity:1"
             transform="translate(-3176,-479)"
             id="g6484">
            <path
               inkscape:connector-curvature="0"
               d="m 3270.4051,542.45817 c 0.3516,0.118 0.5882,0.44579 0.5948,0.81947 0.01,0.36712 -0.2202,0.70474 -0.5685,0.83585 -4.0288,1.53077 -11.7019,3.00253 -13.8182,-6.72946 -1.4952,-6.8868 -3.3453,-7.73577 -4.9719,-6.8573 1.6201,1.97 2.55,4.16289 2.55,6.4869 0,3.13692 -1.689,6.03783 -4.5217,8.46018 l 2.3792,16.9138 c 0.3089,2.20273 -1.2257,4.23828 -3.4373,4.5464 -1.998,0.2819 -3.8546,-0.9473 -4.4231,-2.80913 l -5.5569,-18.1135 c -3.3617,-0.8883 -7.0487,-1.43243 -10.9887,-1.43243 -3.996,0 -7.729,0.56052 -11.1203,1.47176 l -5.4254,18.07745 c -0.6375,2.13061 -2.8918,3.34014 -5.0278,2.70096 -1.9388,-0.58018 -3.1185,-2.49446 -2.8293,-4.43823 l 2.4679,-16.83513 c -2.8918,-2.43874 -4.6105,-5.36587 -4.6105,-8.53885 0,-3.54665 -0.4469,-7.1687 -1.2881,-10.61701 l -1.3835,-5.66416 -9.8189,3.37948 c -0.5981,0.20651 -1.206,0.30484 -1.8107,0.30484 -2.1294,0 -4.1503,-1.2292 -5.0705,-3.26475 -1.7745,-3.92361 -0.1183,-8.0865 3.0529,-11.01036 2.941,-2.70752 6.7299,-6.71635 9.3292,-9.1387 0.9399,-0.87519 2.2445,-1.1997 3.4768,-1.42915 v -5.20197 c 0,-0.64574 0.2629,-1.26198 0.7229,-1.71105 0.4699,-0.44907 1.0976,-0.68835 1.7417,-0.66213 4.3804,0.15734 13.2102,2.13389 14.9223,15.27486 0,0 0.1807,5.12659 3.5851,8.37823 0.5455,0.51791 0.8117,1.26854 0.7164,2.01589 -0.095,0.75063 -0.5389,1.40949 -1.1994,1.77661 l -1.4525,0.80963 c 2.4744,1.01286 5.1395,1.58321 7.8768,1.58321 0.3254,0 0.6507,-0.007 0.976,-0.0229 0.7197,-0.0328 1.4393,-0.0492 2.1721,-0.0492 6.1648,0 11.8268,1.21609 16.3321,3.24181 1.6693,-4.29728 6.3028,-12.74107 16.102,-9.48287 9.395,3.12381 8.8331,12.61651 6.1516,18.2905 -2.136,4.52018 0.838,7.50304 4.1734,8.64046 z"
               id="path6482"
               style="fill:#000000;fill-opacity:1" />
          </g>
        </g>
      </g>
    </g>
  </g>
</svg>
