<?xml version="1.0" encoding="UTF-8" standalone="no"?>
<svg
   xmlns:dc="http://purl.org/dc/elements/1.1/"
   xmlns:cc="http://creativecommons.org/ns#"
   xmlns:rdf="http://www.w3.org/1999/02/22-rdf-syntax-ns#"
   xmlns:svg="http://www.w3.org/2000/svg"
   xmlns="http://www.w3.org/2000/svg"
   xmlns:sodipodi="http://sodipodi.sourceforge.net/DTD/sodipodi-0.dtd"
   xmlns:inkscape="http://www.inkscape.org/namespaces/inkscape"
   width="20"
   height="20"
   viewBox="0 0 20 20"
   version="1.1"
   id="svg838"
   inkscape:version="1.0.1 (3bc2e813f5, 2020-09-07)"
   sodipodi:docname="eq_plug_anus.svg">
  <defs
     id="defs832">
    <clipPath
       id="a-2">
      <rect
         id="rect6042"
         height="64"
         width="64"
         x="0"
         y="0" />
    </clipPath>
  </defs>
  <sodipodi:namedview
     id="base"
     pagecolor="#ffffff"
     bordercolor="#666666"
     borderopacity="1.0"
     inkscape:pageopacity="0.0"
     inkscape:pageshadow="2"
     inkscape:zoom="15.839192"
     inkscape:cx="7.0431287"
     inkscape:cy="8.6727398"
     inkscape:document-units="mm"
     inkscape:current-layer="g6040"
     inkscape:document-rotation="0"
     showgrid="false"
     units="px"
     inkscape:window-width="1293"
     inkscape:window-height="1040"
     inkscape:window-x="52"
     inkscape:window-y="0"
     inkscape:window-maximized="0"
     inkscape:pagecheckerboard="true" />
  <metadata
     id="metadata835">
    <rdf:RDF>
      <cc:Work
         rdf:about="">
        <dc:format>image/svg+xml</dc:format>
        <dc:type
           rdf:resource="http://purl.org/dc/dcmitype/StillImage" />
        <dc:title />
      </cc:Work>
    </rdf:RDF>
  </metadata>
  <g
     inkscape:label="Layer 1"
     inkscape:groupmode="layer"
     id="layer1">
    <g
       style="fill:#c87137;fill-opacity:1"
       transform="matrix(0.36174663,0,0,0.36174663,-1.5758922,-1.5758922)"
       id="g6141">
      <g
         style="fill:#00ff00;fill-opacity:1"
         transform="matrix(9.9068945,0,0,9.9068945,-210.85002,-288.29995)"
         id="g6040">
        <g
           id="g2323"
           transform="matrix(0.21048703,0,0,0.21048703,19.353567,23.851486)"
           style="fill:#000000;fill-opacity:1">
          <path
             style="fill:#000000;fill-opacity:1;stroke-width:0.264583"
             id="path2246"
             d="m 21.289597,41.58044 -2.116666,2.645833 c -0.193146,0.238125 -0.211667,0.597958 -0.05292,1.016 a 3.0823958,3.0823958 0 0 0 0.960438,1.251479 c 0.899583,0.724958 2.002895,0.912813 2.410354,0.410104 l 2.129896,-2.645833 A 8.3899374,8.3899374 0 0 1 21.289597,41.58044 Z"
             inkscape:connector-curvature="0" />
          <path
             style="fill:#000000;fill-opacity:1;stroke-width:0.264583"
             id="path2248"
             d="m 25.258347,50.126481 0.166688,-0.206375 v 0 c -0.06085,0.06615 -0.111125,0.137584 -0.166688,0.206375 z"
             inkscape:connector-curvature="0" />
          <path
             style="fill:#000000;fill-opacity:1;stroke-width:0.264583"
             id="path2250"
             d="m 22.546368,51.266835 c -1.547812,0 -3.294062,-0.693208 -4.79425,-1.905 a 8.3370207,8.3370207 0 0 1 -2.709333,-3.704166 c -0.460375,-1.362604 -0.330729,-2.592917 0.375708,-3.476625 0.05556,-0.06879 0.116417,-0.132292 0.179917,-0.195792 h -0.01323 l -0.166688,0.206375 -0.510646,0.608542 c -1.426104,1.778 -0.378354,5.000625 2.333625,7.188729 1.500188,1.211792 3.246438,1.905 4.79425,1.905 1.15623,0 2.116667,-0.404813 2.714625,-1.137708 l 0.508,-0.629709 c -0.592666,0.735542 -1.55575,1.140354 -2.711979,1.140354 z"
             inkscape:connector-curvature="0" />
          <path
             style="fill:#000000;fill-opacity:1;stroke-width:0.264583"
             id="path2252"
             d="m 17.91616,49.150169 c 1.502833,1.214437 3.204104,1.852083 4.630208,1.852083 1.045104,0 1.942042,-0.338667 2.50825,-1.039812 0.994833,-1.235605 0.674688,-3.243792 -0.629708,-5.045605 l -1.738313,2.153709 a 1.1509375,1.1509375 0 0 1 -0.931333,0.388937 3.1035625,3.1035625 0 0 1 -1.852083,-0.759354 3.3522708,3.3522708 0 0 1 -1.042459,-1.36525 c -0.193145,-0.510646 -0.15875,-0.963083 0.09525,-1.277937 l 1.738313,-2.153709 a 6.5325624,6.5325624 0 0 0 -2.569104,-0.587375 c -1.042459,0 -1.939396,0.338667 -2.505604,1.039813 -1.3335,1.648354 -0.306917,4.696354 2.296583,6.7945 z"
             inkscape:connector-curvature="0" />
          <path
             style="fill:#000000;fill-opacity:1;stroke-width:0.264583"
             id="path2254"
             d="m 33.201139,28.676711 a 1.5213541,1.5213541 0 0 0 -0.85725,0.264583 l -10.601854,7.14375 a 2.9792083,2.9792083 0 0 0 -1.307042,3.010958 c 0.243417,1.30175 1.124479,2.727854 2.50825,3.844396 1.322917,1.058333 2.809875,1.621896 4.093104,1.643062 h 0.04763 a 3.0241875,3.0241875 0 0 0 2.794,-1.912937 l 4.7625,-11.866562 a 1.5425208,1.5425208 0 0 0 -1.439333,-2.12725 z M 28.86991,43.353148 v 0 A 10.453687,10.453687 0 0 1 24.371993,41.307919 C 22.599285,39.876523 21.591222,38.019148 21.34516,37.119565 a 0.13669001,0.13669001 0 0 1 0.264583,-0.06879 c 0.238125,0.867833 1.214438,2.661708 2.939521,4.053417 a 10.170583,10.170583 0 0 0 4.357687,1.98702 0.13282659,0.13282659 0 0 1 -0.02381,0.264584 z m 5.027083,-11.766021 a 1.158875,1.158875 0 0 1 -0.304271,0.03969 1.8653125,1.8653125 0 0 1 -1.135062,-0.441854 c -0.500063,-0.402167 -0.767292,-0.968375 -0.682625,-1.44198 a 0.13441799,0.13441799 0 0 1 0.264583,0.04763 c -0.06615,0.373063 0.169333,0.849313 0.587375,1.18798 a 1.4472708,1.4472708 0 0 0 1.203854,0.351895 0.13669012,0.13669012 0 0 1 0.06879,0.264584 z"
             inkscape:connector-curvature="0" />
        </g>
      </g>
    </g>
  </g>
</svg>
