<?xml version="1.0" encoding="UTF-8" standalone="no"?>
<svg
   xmlns:dc="http://purl.org/dc/elements/1.1/"
   xmlns:cc="http://creativecommons.org/ns#"
   xmlns:rdf="http://www.w3.org/1999/02/22-rdf-syntax-ns#"
   xmlns:svg="http://www.w3.org/2000/svg"
   xmlns="http://www.w3.org/2000/svg"
   xmlns:sodipodi="http://sodipodi.sourceforge.net/DTD/sodipodi-0.dtd"
   xmlns:inkscape="http://www.inkscape.org/namespaces/inkscape"
   width="20"
   height="20"
   viewBox="0 0 20 20"
   version="1.1"
   id="svg838"
   inkscape:version="1.0.1 (3bc2e813f5, 2020-09-07)"
   sodipodi:docname="eq_pet.svg">
  <defs
     id="defs832">
    <clipPath
       id="a-2">
      <rect
         id="rect6042"
         height="64"
         width="64"
         x="0"
         y="0" />
    </clipPath>
  </defs>
  <sodipodi:namedview
     id="base"
     pagecolor="#ffffff"
     bordercolor="#666666"
     borderopacity="1.0"
     inkscape:pageopacity="0.0"
     inkscape:pageshadow="2"
     inkscape:zoom="15.839192"
     inkscape:cx="7.0431287"
     inkscape:cy="8.6727398"
     inkscape:document-units="mm"
     inkscape:current-layer="g6040"
     inkscape:document-rotation="0"
     showgrid="false"
     units="px"
     inkscape:window-width="1360"
     inkscape:window-height="1040"
     inkscape:window-x="52"
     inkscape:window-y="0"
     inkscape:window-maximized="0"
     inkscape:pagecheckerboard="true" />
  <metadata
     id="metadata835">
    <rdf:RDF>
      <cc:Work
         rdf:about="">
        <dc:format>image/svg+xml</dc:format>
        <dc:type
           rdf:resource="http://purl.org/dc/dcmitype/StillImage" />
        <dc:title />
      </cc:Work>
    </rdf:RDF>
  </metadata>
  <g
     inkscape:label="Layer 1"
     inkscape:groupmode="layer"
     id="layer1">
    <g
       style="fill:#c87137;fill-opacity:1"
       transform="matrix(0.36174663,0,0,0.36174663,-1.5758922,-1.5758922)"
       id="g6141">
      <g
         style="fill:#00ff00;fill-opacity:1"
         transform="matrix(9.9068945,0,0,9.9068945,-210.85002,-288.29995)"
         id="g6040">
        <g
           transform="matrix(0.21556048,0,0,0.21556048,14.75965,-26.789114)"
           id="g4588"
           style="fill:#000000;fill-opacity:1">
          <g
             id="g4586"
             style="fill:#000000;fill-opacity:1">
            <g
               id="g4580"
               style="fill:#000000;fill-opacity:1">
              <path
                 inkscape:connector-curvature="0"
                 d="m 58,274 c -1.197,0 -5.397,-5.137 -3.234,-6 0.615,-0.246 0.076,-1.156 -1.085,-1 -1.381,0.188 -1.918,0.996 -2.17,2 -2.339,0 -3.009,1.773 -4.156,3.254 l 3.994,4.793 C 51.71,276.461 52.078,276 52.596,276 c 1.085,1 2.95,2.281 4.341,1 1.084,-1 2.148,-3 1.063,-3 z m -5,-1 c -0.553,0 -1,-0.447 -1,-1 0,-0.553 0.447,-1 1,-1 0.552,0 1,0.447 1,1 0,0.553 -0.448,1 -1,1 z"
                 id="path4576"
                 style="fill:#000000;fill-opacity:1" />
              <path
                 inkscape:connector-curvature="0"
                 d="m 45,274 h -9 c -0.002,0 -0.004,0 -0.006,0 -0.911,-0.559 -1.664,-1.275 -1.883,-2.193 -0.472,-1.973 1.561,-4.063 1.598,-4.102 0.389,-0.391 0.389,-1.022 -0.002,-1.412 -0.391,-0.391 -1.023,-0.391 -1.414,0 -0.117,0.117 -2.854,2.898 -2.13,5.967 0.325,1.379 1.286,2.539 2.837,3.477 V 286.5 c 0,0.828 0.672,1.5 1.5,1.5 0.828,0 1.5,-0.672 1.5,-1.5 V 282 h 9 v 4.5 c 0,0.828 0.672,1.5 1.5,1.5 0.828,0 1.5,-0.672 1.5,-1.5 V 279 c 0.191,-0.176 0.357,-0.389 0.515,-0.611 l -4.218,-5.063 C 45.93,273.605 45.512,273.842 45,274 Z"
                 id="path4578"
                 style="fill:#000000;fill-opacity:1" />
            </g>
            <g
               id="g4584"
               style="fill:#000000;fill-opacity:1">
              <rect
                 x="40.862"
                 y="259.32999"
                 transform="matrix(0.7682,-0.6402,0.6402,0.7682,-160.9961,88.4276)"
                 width="1.5"
                 height="14.409"
                 id="rect4582"
                 style="fill:#000000;fill-opacity:1" />
            </g>
          </g>
        </g>
      </g>
    </g>
  </g>
</svg>
