<?xml version="1.0" encoding="UTF-8" standalone="no"?>
<svg
   xmlns:dc="http://purl.org/dc/elements/1.1/"
   xmlns:cc="http://creativecommons.org/ns#"
   xmlns:rdf="http://www.w3.org/1999/02/22-rdf-syntax-ns#"
   xmlns:svg="http://www.w3.org/2000/svg"
   xmlns="http://www.w3.org/2000/svg"
   xmlns:sodipodi="http://sodipodi.sourceforge.net/DTD/sodipodi-0.dtd"
   xmlns:inkscape="http://www.inkscape.org/namespaces/inkscape"
   width="20"
   height="20"
   viewBox="0 0 20 20"
   version="1.1"
   id="svg838"
   inkscape:version="1.0.1 (3bc2e813f5, 2020-09-07)"
   sodipodi:docname="eq_restrained.svg">
  <defs
     id="defs832">
    <clipPath
       id="a-2">
      <rect
         id="rect6042"
         height="64"
         width="64"
         x="0"
         y="0" />
    </clipPath>
  </defs>
  <sodipodi:namedview
     id="base"
     pagecolor="#ffffff"
     bordercolor="#666666"
     borderopacity="1.0"
     inkscape:pageopacity="0.0"
     inkscape:pageshadow="2"
     inkscape:zoom="15.839192"
     inkscape:cx="7.0431287"
     inkscape:cy="8.6727398"
     inkscape:document-units="mm"
     inkscape:current-layer="g6040"
     inkscape:document-rotation="0"
     showgrid="false"
     units="px"
     inkscape:window-width="1267"
     inkscape:window-height="1040"
     inkscape:window-x="75"
     inkscape:window-y="0"
     inkscape:window-maximized="0"
     inkscape:pagecheckerboard="true" />
  <metadata
     id="metadata835">
    <rdf:RDF>
      <cc:Work
         rdf:about="">
        <dc:format>image/svg+xml</dc:format>
        <dc:type
           rdf:resource="http://purl.org/dc/dcmitype/StillImage" />
        <dc:title />
      </cc:Work>
    </rdf:RDF>
  </metadata>
  <g
     inkscape:label="Layer 1"
     inkscape:groupmode="layer"
     id="layer1">
    <g
       style="fill:#c87137;fill-opacity:1"
       transform="matrix(0.36174663,0,0,0.36174663,-1.5758922,-1.5758922)"
       id="g6141">
      <g
         style="fill:#00ff00;fill-opacity:1"
         transform="matrix(9.9068945,0,0,9.9068945,-210.85002,-288.29995)"
         id="g6040">
        <path
           inkscape:connector-curvature="0"
           d="m 27.19516,31.936999 a 1.3198361,1.3198361 0 0 0 -1.258077,-0.914965 1.3358479,1.3358479 0 0 0 -0.686223,0.188713 1.3255546,1.3255546 0 0 0 -0.385429,1.919137 l -0.21616,0.423172 0.457482,0.22874 -0.06062,0.184137 a 0.18756769,0.18756769 0 0 0 -0.160119,0.08806 l -0.101792,0.162405 a 0.14181948,0.14181948 0 0 0 -0.01144,0.02288 l -0.154399,-0.02401 a 0.18413658,0.18413658 0 0 0 -0.120089,-0.152113 l -0.179561,-0.06518 a 0.18184917,0.18184917 0 0 0 -0.166982,0.01944 l -0.05833,-0.04689 a 0.17727435,0.17727435 0 0 0 0.0092,-0.154401 l -0.06862,-0.178417 a 0.18642399,0.18642399 0 0 0 -0.228742,-0.114373 l -0.05033,-0.08578 a 0.18756769,0.18756769 0 0 0 0.02745,-0.155544 l -0.05033,-0.184136 a 0.17155581,0.17155581 0 0 0 -0.03888,-0.07434 l 0.402571,-0.108645 -0.12352,-0.457482 a 1.3221235,1.3221235 0 0 0 0.396866,-1.330129 1.2900997,1.2900997 0 0 0 -0.179563,-0.399152 1.308399,1.308399 0 0 0 -0.293931,-0.311089 1.3724466,1.3724466 0 0 0 -0.375136,-0.193286 1.304968,1.304968 0 0 0 -0.424314,-0.06747 1.3392791,1.3392791 0 0 0 -0.343112,0.0446 1.2935308,1.2935308 0 0 0 -0.471206,0.232173 1.2832375,1.2832375 0 0 0 -0.332819,0.381996 1.316405,1.316405 0 0 0 -0.132669,1.005318 1.3221235,1.3221235 0 0 0 1.005316,0.953851 l 0.124665,0.457482 0.431176,-0.114371 a 0.18184917,0.18184917 0 0 0 0,0.08578 l 0.04918,0.182993 a 0.18642399,0.18642399 0 0 0 0.228741,0.131526 l 0.05262,0.08806 a 0.18299288,0.18299288 0 0 0 -0.01945,0.17041 l 0.06976,0.17842 a 0.18528028,0.18528028 0 0 0 0.240178,0.105219 v 0 l 0.07778,0.06405 a 0.18642399,0.18642399 0 0 0 0.114371,0.228741 l 0.179562,0.06634 a 0.18642399,0.18642399 0 0 0 0.220735,-0.07434 l 0.1727,0.0263 a 0.18642399,0.18642399 0 0 0 0.08007,0.107508 0.19786104,0.19786104 0 0 0 0.0995,0.02745 0.18528028,0.18528028 0 0 0 0.156688,-0.08577 l 0.101792,-0.163549 a 0.18413658,0.18413658 0 0 0 -0.03775,-0.240179 l 0.05719,-0.171556 0.491794,0.250472 0.217303,-0.423171 v 0 a 1.3221235,1.3221235 0 0 0 1.180304,-0.723965 1.3186923,1.3186923 0 0 0 0.08007,-1.011035 z m -4.449015,0.228742 a 0.77428857,0.77428857 0 0 1 -0.384285,-0.448332 0.77428857,0.77428857 0 0 1 0.336249,-0.900098 0.7754323,0.7754323 0 0 1 0.39801,-0.11437 0.77200118,0.77200118 0 0 1 0.686223,1.120832 0.77085745,0.77085745 0 0 1 -1.036197,0.337393 z m 0.618745,0.686223 v -0.201293 a 0.11437055,0.11437055 0 0 1 -0.0915,-0.08234 0.11437055,0.11437055 0 1 1 0.217304,-0.05833 0.11437055,0.11437055 0 0 1 -0.03774,0.11437 l 0.0995,0.176132 z m 0.319094,0.470063 a 0.0629038,0.0629038 0 0 0 -0.08578,-0.02287 v 0 a 0.06061638,0.06061638 0 0 0 -0.02059,0.08692 l 0.02287,0.03775 a 0.08577791,0.08577791 0 0 1 -0.07434,-0.06405 l -0.04918,-0.18185 a 0.0846342,0.0846342 0 0 1 0.03775,-0.09608 l 0.04918,-0.01372 a 0.0846342,0.0846342 0 0 1 0.08121,0.06405 l 0.04918,0.182993 a 0.07205344,0.07205344 0 0 1 0,0.02745 z m 0.332819,0.589009 -0.01372,-0.01034 a 0.0629038,0.0629038 0 0 0 -0.09035,0.0069 v 0 a 0.05947268,0.05947268 0 0 0 -0.01034,0.05948 0.08920902,0.08920902 0 0 1 -0.05147,-0.05033 l -0.06862,-0.176131 a 0.14753801,0.14753801 0 0 1 0,-0.02173 v 0 a 0.06519122,0.06519122 0 0 0 0.08806,0.02516 v 0 a 0.06633492,0.06633492 0 0 0 0.01945,-0.08921 l -0.02287,-0.03774 a 0.08920902,0.08920902 0 0 1 0.08121,0.0549 l 0.06747,0.176131 a 0.08920902,0.08920902 0 0 1 0.0011,0.06405 z m 0.457482,0.409446 a 0.09492755,0.09492755 0 0 1 -0.07091,0 l -0.177273,-0.06519 a 0.0834905,0.0834905 0 0 1 -0.0549,-0.06176 l 0.05719,0.04689 a 0.0640475,0.0640475 0 0 0 0.09035,0 v 0 a 0.0640475,0.0640475 0 0 0 -0.01258,-0.0915 l -0.06747,-0.0549 a 0.0834905,0.0834905 0 0 1 0.04689,0 l 0.178417,0.06518 a 0.08920902,0.08920902 0 0 1 0.04689,0.04232 0.0617601,0.0617601 0 0 0 -0.06976,0.05262 v 0 a 0.0629038,0.0629038 0 0 0 0.03546,0.06747 z m 0.645049,-0.114372 -0.101792,0.161263 a 0.08577791,0.08577791 0 0 1 -0.120088,0.02745 h -0.0069 a 0.0617601,0.0617601 0 0 0 0.06862,-0.05147 c 0,0 0,-0.0069 0,-0.01034 a 0.06633492,0.06633492 0 0 0 -0.05718,-0.0629 h -0.02516 l 0.09608,-0.156688 a 0.08120308,0.08120308 0 0 1 0.04002,-0.03432 l -0.01143,0.03888 a 0.0640475,0.0640475 0 0 0 0.03775,0.08235 0.05832898,0.05832898 0 0 0 0.01944,0 0.06633492,0.06633492 0 0 0 0.06176,-0.04689 l 0.008,-0.02745 a 0.0834905,0.0834905 0 0 1 -0.0069,0.07892 z m 0.416308,-0.828042 a 0.11437055,0.11437055 0 0 1 -0.106364,0.06176 l -0.04346,0.196717 -0.171556,-0.08692 0.133814,-0.150969 a 0.11437055,0.11437055 0 1 1 0.187566,-0.02059 z m 1.085378,-0.686223 a 0.77428857,0.77428857 0 0 1 -0.289359,0.311088 0.76513894,0.76513894 0 0 1 -0.398009,0.11437 0.75484561,0.75484561 0 0 1 -0.34883,-0.08463 0.76971377,0.76971377 0 0 1 -0.04918,-1.347285 0.78115078,0.78115078 0 0 1 0.399154,-0.11437 0.77200118,0.77200118 0 0 1 0.686223,1.120831 z"
           id="path6760"
           style="fill:#000000;stroke-width:0.11437;fill-opacity:1" />
      </g>
    </g>
  </g>
</svg>
