<?xml version="1.0" encoding="UTF-8" standalone="no"?>
<svg
   xmlns:dc="http://purl.org/dc/elements/1.1/"
   xmlns:cc="http://creativecommons.org/ns#"
   xmlns:rdf="http://www.w3.org/1999/02/22-rdf-syntax-ns#"
   xmlns:svg="http://www.w3.org/2000/svg"
   xmlns="http://www.w3.org/2000/svg"
   xmlns:sodipodi="http://sodipodi.sourceforge.net/DTD/sodipodi-0.dtd"
   xmlns:inkscape="http://www.inkscape.org/namespaces/inkscape"
   version="1.1"
   x="0px"
   y="0px"
   viewBox="0 0 100 100"
   style="enable-background:new 0 0 100 100;"
   xml:space="preserve"
   id="svg4"
   sodipodi:docname="eq_slutty.svg"
   inkscape:version="1.0.1 (3bc2e813f5, 2020-09-07)"><metadata
     id="metadata10"><rdf:RDF><cc:Work
         rdf:about=""><dc:format>image/svg+xml</dc:format><dc:type
           rdf:resource="http://purl.org/dc/dcmitype/StillImage" /><dc:title /></cc:Work></rdf:RDF></metadata><defs
     id="defs8" /><sodipodi:namedview
     pagecolor="#ffffff"
     bordercolor="#666666"
     borderopacity="1"
     objecttolerance="10"
     gridtolerance="10"
     guidetolerance="10"
     inkscape:pageopacity="0"
     inkscape:pageshadow="2"
     inkscape:window-width="1920"
     inkscape:window-height="1017"
     id="namedview6"
     showgrid="false"
     inkscape:pagecheckerboard="true"
     inkscape:zoom="3.0052038"
     inkscape:cx="56.291064"
     inkscape:cy="37.233548"
     inkscape:window-x="-8"
     inkscape:window-y="-8"
     inkscape:window-maximized="1"
     inkscape:current-layer="svg4"
     inkscape:document-rotation="0" /><path
     d="M 82.327564,2.7181943 V 14.250342 H 77.86859 V 2.7181943 c 0,-1.2685363 1.003269,-2.30642959 2.229487,-2.30642959 1.226218,0 2.229487,1.03789329 2.229487,2.30642959 z m -60.196154,0 c 0,-1.2685363 -1.003269,-2.30642959 -2.229487,-2.30642959 -1.226218,0 -2.229487,1.03789329 -2.229487,2.30642959 V 14.250342 H 22.13141 Z M 33.278846,44.233926 h 8.917949 v -9.225718 c 0,-8.879754 -7.022885,-16.145007 -15.606411,-16.145007 h -8.917948 v 9.225718 c 0,8.879754 7.022884,16.145007 15.60641,16.145007 z m 24.524359,-9.225718 v 9.225718 h 8.917949 c 8.583526,0 15.60641,-7.265253 15.60641,-16.145007 v -9.225718 h -8.917948 c -8.583526,0 -15.606411,7.265253 -15.606411,16.145007 z m -4.458974,2.306429 h -6.688462 v 6.919289 h 6.688462 z M 4.6299355,66.029685 c -0.6688462,1.037894 -0.3344231,2.537073 0.6688462,3.229002 l 5.9081413,3.805608 -5.9081413,3.805609 c -1.0032693,0.691929 -1.3376924,2.075787 -0.6688462,3.229002 0.4458974,0.691928 1.1147436,1.037893 1.8950641,1.037893 0.4458975,0 0.7803205,-0.115322 1.226218,-0.345965 L 13.213461,77.215869 V 68.912722 L 7.7512176,65.337756 C 6.636474,64.645828 5.2987817,64.991792 4.6299355,66.029685 Z m 90.0712825,10.840219 -5.908141,-3.805609 5.908141,-3.805608 c 1.00327,-0.691929 1.337693,-2.075787 0.668847,-3.229002 -0.668847,-1.037893 -2.006539,-1.383857 -3.121283,-0.691929 l -5.462243,3.574966 v 8.303147 l 5.462243,3.574965 c 0.334424,0.230643 0.780321,0.345965 1.226218,0.345965 0.780321,0 1.449167,-0.345965 1.895065,-1.037893 0.668846,-1.153215 0.334423,-2.537073 -0.668847,-3.229002 z M 17.672436,76.52394 h 4.458974 c 12.819551,0 23.298141,10.14829 24.412885,23.064295 h 6.91141 C 54.570449,86.67223 65.049039,76.52394 77.86859,76.52394 h 4.458974 V 69.604651 H 17.672436 Z"
     id="path2"
     style="fill:#ff8cc2;stroke-width:1.13382;fill-opacity:1" /></svg>
