<?xml version="1.0" encoding="UTF-8" standalone="no"?>
<svg
   xmlns:dc="http://purl.org/dc/elements/1.1/"
   xmlns:cc="http://creativecommons.org/ns#"
   xmlns:rdf="http://www.w3.org/1999/02/22-rdf-syntax-ns#"
   xmlns:svg="http://www.w3.org/2000/svg"
   xmlns="http://www.w3.org/2000/svg"
   xmlns:sodipodi="http://sodipodi.sourceforge.net/DTD/sodipodi-0.dtd"
   xmlns:inkscape="http://www.inkscape.org/namespaces/inkscape"
   width="20"
   height="20"
   viewBox="0 0 20 20"
   version="1.1"
   id="svg838"
   inkscape:version="1.0.1 (3bc2e813f5, 2020-09-07)"
   sodipodi:docname="eq_valuable.svg">
  <defs
     id="defs832" />
  <sodipodi:namedview
     id="base"
     pagecolor="#ffffff"
     bordercolor="#666666"
     borderopacity="1.0"
     inkscape:pageopacity="0.0"
     inkscape:pageshadow="2"
     inkscape:zoom="11.2"
     inkscape:cx="14.062414"
     inkscape:cy="15.136857"
     inkscape:document-units="mm"
     inkscape:current-layer="layer1"
     inkscape:document-rotation="0"
     showgrid="false"
     units="px"
     inkscape:window-width="1298"
     inkscape:window-height="1040"
     inkscape:window-x="52"
     inkscape:window-y="0"
     inkscape:window-maximized="0"
     inkscape:pagecheckerboard="true" />
  <metadata
     id="metadata835">
    <rdf:RDF>
      <cc:Work
         rdf:about="">
        <dc:format>image/svg+xml</dc:format>
        <dc:type
           rdf:resource="http://purl.org/dc/dcmitype/StillImage" />
        <dc:title></dc:title>
      </cc:Work>
    </rdf:RDF>
  </metadata>
  <g
     inkscape:label="Layer 1"
     inkscape:groupmode="layer"
     id="layer1">
    <g
       id="g2329"
       transform="matrix(0.83614911,0,0,0.83614911,238.92156,333.17228)"
       style="fill:#ffff00">
      <path
         style="fill:#ffff00;stroke-width:0.264583"
         id="path2277"
         d="m -274.96613,-376.97578 c -0.002,-2.6e-4 -0.003,-2.6e-4 -0.005,0 h -7.9375 c -0.1262,0 -0.245,-0.0601 -0.31961,-0.16166 -0.0746,-0.1016 -0.0968,-0.2331 -0.059,-0.35348 l 1.32291,-4.23334 c 0.0516,-0.16563 0.20506,-0.2786 0.37862,-0.2786 h 5.29167 c 0.17357,0 0.32702,0.11297 0.37888,0.2786 l 1.3044,4.17407 c 0.0267,0.0532 0.0418,0.11377 0.0418,0.17753 0,0.21908 -0.17754,0.39688 -0.39688,0.39688 z m 10.58334,0 c -0.002,-2.6e-4 -0.004,-2.6e-4 -0.005,0 h -7.9375 c -0.12647,0 -0.24501,-0.0601 -0.31988,-0.16166 -0.0746,-0.10187 -0.0966,-0.2331 -0.059,-0.35348 l 1.32291,-4.23334 c 0.0519,-0.16563 0.20532,-0.2786 0.37889,-0.2786 h 5.29166 c 0.17357,0 0.32703,0.11297 0.37889,0.2786 l 1.30439,4.17407 c 0.027,0.0532 0.0418,0.11377 0.0418,0.17753 0,0.21908 -0.17753,0.39688 -0.39687,0.39688 z m -5.29167,-6.08542 c -10e-4,0 -0.004,0 -0.005,0 h -7.9375 c -0.12621,0 -0.245,-0.0601 -0.31962,-0.16166 -0.0746,-0.1016 -0.0968,-0.2331 -0.059,-0.35348 l 1.32292,-4.23333 c 0.0516,-0.1659 0.20505,-0.27861 0.37862,-0.27861 h 5.29167 c 0.17356,0 0.32702,0.11271 0.37888,0.27861 l 1.3044,4.17406 c 0.027,0.0532 0.0418,0.11377 0.0418,0.17754 0,0.21907 -0.17754,0.39687 -0.39688,0.39687 z m -3.84175,-8.59896 v -3.96875 c 0,-0.21934 -0.17754,-0.39687 -0.39687,-0.39687 -0.21934,0 -0.39688,0.17753 -0.39688,0.39687 v 3.96875 c 0,0.21934 0.17754,0.39688 0.39688,0.39688 0.21933,0 0.39687,-0.17754 0.39687,-0.39688 z m 11.1125,6.74688 c 0.21908,0 0.39688,-0.1778 0.39688,-0.39688 0,-0.21933 -0.1778,-0.39687 -0.39688,-0.39687 l -3.96875,2.6e-4 c -0.21907,0 -0.39687,0.1778 -0.39687,0.39688 0,0.21934 0.1778,0.39687 0.39687,0.39687 z m -5.88513,-4.13703 2.80591,-2.80643 c 0.15505,-0.15505 0.15505,-0.4064 0,-0.56118 -0.15505,-0.15505 -0.40614,-0.15505 -0.56118,0 l -2.80591,2.80643 c -0.15504,0.15505 -0.15504,0.4064 0,0.56118 0.0775,0.0775 0.17912,0.11616 0.28072,0.11616 0.1016,0 0.20294,-0.0386 0.28046,-0.11616 z m -12.90029,4.13703 c 0.21934,0 0.39688,-0.17754 0.39688,-0.39688 0,-0.21907 -0.17754,-0.39687 -0.39688,-0.39687 l -3.96875,2.6e-4 c -0.21934,0 -0.39687,0.17754 -0.39687,0.39688 0,0.21934 0.17753,0.39687 0.39687,0.39687 z m 2.63578,-4.29551 c 0.15505,-0.15505 0.15505,-0.4064 0,-0.56118 l -2.80643,-2.80617 c -0.15505,-0.15505 -0.4064,-0.15505 -0.56118,0 -0.15505,0.15504 -0.15505,0.4064 0,0.56118 l 2.80643,2.80617 c 0.0775,0.0775 0.17912,0.11615 0.28072,0.11615 0.1016,0 0.2032,-0.0386 0.28046,-0.11615 z"
         inkscape:connector-curvature="0" />
    </g>
  </g>
</svg>
