<?xml version="1.0" encoding="UTF-8" standalone="no"?>
<svg
   xmlns:dc="http://purl.org/dc/elements/1.1/"
   xmlns:cc="http://creativecommons.org/ns#"
   xmlns:rdf="http://www.w3.org/1999/02/22-rdf-syntax-ns#"
   xmlns:svg="http://www.w3.org/2000/svg"
   xmlns="http://www.w3.org/2000/svg"
   xmlns:sodipodi="http://sodipodi.sourceforge.net/DTD/sodipodi-0.dtd"
   xmlns:inkscape="http://www.inkscape.org/namespaces/inkscape"
   width="20"
   height="20"
   viewBox="0 0 20 20"
   version="1.1"
   id="svg838"
   inkscape:version="1.0.1 (3bc2e813f5, 2020-09-07)"
   sodipodi:docname="eq_veryvaluable.svg">
  <defs
     id="defs832" />
  <sodipodi:namedview
     id="base"
     pagecolor="#ffffff"
     bordercolor="#666666"
     borderopacity="1.0"
     inkscape:pageopacity="0.0"
     inkscape:pageshadow="2"
     inkscape:zoom="11.2"
     inkscape:cx="14.062414"
     inkscape:cy="15.136857"
     inkscape:document-units="mm"
     inkscape:current-layer="layer1"
     inkscape:document-rotation="0"
     showgrid="false"
     units="px"
     inkscape:window-width="1298"
     inkscape:window-height="1040"
     inkscape:window-x="52"
     inkscape:window-y="0"
     inkscape:window-maximized="0"
     inkscape:pagecheckerboard="true" />
  <metadata
     id="metadata835">
    <rdf:RDF>
      <cc:Work
         rdf:about="">
        <dc:format>image/svg+xml</dc:format>
        <dc:type
           rdf:resource="http://purl.org/dc/dcmitype/StillImage" />
        <dc:title></dc:title>
      </cc:Work>
    </rdf:RDF>
  </metadata>
  <g
     inkscape:label="Layer 1"
     inkscape:groupmode="layer"
     id="layer1">
    <g
       id="g907"
       transform="matrix(0.30508798,0,0,0.30508798,0.54772045,3.6803202)"
       style="fill:#00ffff">
      <polygon
         points="15.4,33.6 4.3,33.6 28,58.9 "
         id="polygon2"
         transform="translate(-0.96785726,-11.285714)"
         style="fill:#00ffff" />
      <path
         d="m 30.032143,49.114286 v -26.8 h -13.4 z m -2,-15.1 c 0,0.5 -0.5,1 -1,1 -0.5,0 -1,-0.5 -1,-1 v -2 c 0,-0.5 0.5,-1 1,-1 0.5,0 1,0.5 1,1 z m -5,-9.7 h 3.5 c 0.8,0 1.5,0.6 1.5,1.5 v 2.3 c 0,0.5 -0.5,1 -1,1 -0.5,0 -1,-0.5 -1,-1 v -1.8 h -3 c -0.5,0 -1,-0.5 -1,-1 0,-0.5 0.5,-1 1,-1 z"
         id="path4"
         style="fill:#00ffff" />
      <polygon
         points="46.4,33.6 33,33.6 33,60.4 "
         id="polygon6"
         transform="translate(-0.96785726,-11.285714)"
         style="fill:#00ffff" />
      <polygon
         points="48.6,33.6 36,58.9 59.7,33.6 "
         id="polygon8"
         transform="translate(-0.96785726,-11.285714)"
         style="fill:#00ffff" />
      <path
         d="m 32.032143,20.314286 h 13.2 l -6.8,-10.8000004 h -6.4 z m 2,-5.5 c 0,-0.5 0.5,-1 1,-1 0.5,0 1,0.5 1,1 v 1.5 h 1.5 c 0.5,0 1,0.5 1,1 0,0.5 -0.5,1 -1,1 h -1.7 c -1,0 -1.8,-0.8 -1.8,-1.8 z"
         id="path10"
         style="fill:#00ffff" />
      <path
         d="m 57.932143,20.314286 -14.4,-10.2 c -1,-0.9000004 -2.7,-0.6000004 -2.7,-0.6000004 l 6.8,10.8000004 z"
         id="path12"
         style="fill:#00ffff" />
      <path
         d="m 14.532143,20.314286 6.8,-10.8000004 c 0,0 -1.6,-0.2 -2.7,0.6000004 l -14.5000003,10.2 z"
         id="path14"
         style="fill:#00ffff" />
      <polygon
         points="17.8,31.6 31,31.6 31,20.8 24.6,20.8 "
         id="polygon16"
         transform="translate(-0.96785726,-11.285714)"
         style="fill:#00ffff" />
      <path
         d="m 32.032143,-6.6857144 c 0,-0.6 -0.4,-1 -1,-1 -0.6,0 -1,0.4 -1,1 v 5.99999998 c 0,0.6 0.4,1 1,1 0.6,0 1,-0.4 1,-1 z"
         id="path18"
         style="fill:#00ffff" />
      <path
         d="m 45.732143,2.0142856 4,-4 c 0.4,-0.4 0.4,-1 0,-1.4 -0.4,-0.4 -1,-0.4 -1.4,0 l -4,3.99999998 c -0.4,0.40000002 -0.4,1.00000002 0,1.40000002 0.2,0.2 0.7,0.6 1.4,0 z"
         id="path20"
         style="fill:#00ffff" />
      <path
         d="m 16.332143,2.0142856 c 0.2,0.2 0.9,0.5 1.4,0 0.4,-0.4 0.4,-1 0,-1.40000002 l -4,-3.99999998 c -0.4,-0.4 -1,-0.4 -1.4,0 -0.4,0.4 -0.4,1 0,1.4 z"
         id="path22"
         style="fill:#00ffff" />
      <path
         d="m 59.932143,9.0142856 c -0.2,-0.5 -0.7,-0.8 -1.3,-0.6 l -6,2.0000004 c -0.5,0.2 -0.8,0.7 -0.6,1.3 0.3,0.8 1.2,0.7 1.3,0.6 l 6,-2 c 0.5,-0.2 0.8,-0.8000004 0.6,-1.3000004 z"
         id="path24"
         style="fill:#00ffff" />
      <path
         d="m 9.9321427,11.614286 c 0.2000003,-0.5 -0.1,-1.1 -0.6,-1.3 l -6,-2.0000004 c -0.4999999,-0.2 -1.0999999,0.1 -1.2999999,0.6 -0.2,0.5 0.1,1.1000004 0.6,1.3000004 l 5.9999999,2 c 0.2,0.1 1,0.3 1.3,-0.6 z"
         id="path26"
         style="fill:#00ffff" />
    </g>
  </g>
</svg>
