<?xml version="1.0" encoding="UTF-8" standalone="no"?>
<svg
   xmlns:dc="http://purl.org/dc/elements/1.1/"
   xmlns:cc="http://creativecommons.org/ns#"
   xmlns:rdf="http://www.w3.org/1999/02/22-rdf-syntax-ns#"
   xmlns:svg="http://www.w3.org/2000/svg"
   xmlns="http://www.w3.org/2000/svg"
   xmlns:sodipodi="http://sodipodi.sourceforge.net/DTD/sodipodi-0.dtd"
   xmlns:inkscape="http://www.inkscape.org/namespaces/inkscape"
   version="1.1"
   x="0px"
   y="0px"
   viewBox="0 0 100 100"
   style="enable-background:new 0 0 100 100;"
   xml:space="preserve"
   id="svg4"
   sodipodi:docname="eq_veryslutty.svg"
   inkscape:version="1.0.1 (3bc2e813f5, 2020-09-07)"><style></style><metadata
     id="metadata10"><rdf:RDF><cc:Work
         rdf:about=""><dc:format>image/svg+xml</dc:format><dc:type
           rdf:resource="http://purl.org/dc/dcmitype/StillImage" /><dc:title /></cc:Work></rdf:RDF></metadata><defs
     id="defs8" /><sodipodi:namedview
     pagecolor="#ffffff"
     bordercolor="#666666"
     borderopacity="1"
     objecttolerance="10"
     gridtolerance="10"
     guidetolerance="10"
     inkscape:pageopacity="0"
     inkscape:pageshadow="2"
     inkscape:window-width="1920"
     inkscape:window-height="1017"
     id="namedview6"
     showgrid="false"
     inkscape:pagecheckerboard="true"
     inkscape:zoom="6.0104076"
     inkscape:cx="0.91135141"
     inkscape:cy="39.595425"
     inkscape:window-x="-8"
     inkscape:window-y="-8"
     inkscape:window-maximized="1"
     inkscape:current-layer="svg4"
     inkscape:document-rotation="0" /><path
     style="fill:#ff509b;stroke:none;stroke-width:1.13382;stroke-opacity:1;fill-opacity:1"
     d="m 17.672436,75.858428 h 5.789999 c 27.627199,0 23.298141,10.813802 24.412885,23.729807 h 4.24936 C 53.239424,86.67223 49.076745,75.858428 76.537565,75.858428 h 5.789999 V 70.270163 H 17.672436 Z"
     id="path846" /><path
     style="fill:#ff509b;stroke:none;stroke-width:1.13382;stroke-opacity:1;fill-opacity:1"
     d="m 94.701218,76.869904 -5.908141,-3.805609 5.908141,-3.805608 c 1.00327,-0.691929 1.337693,-2.075787 0.668847,-3.229002 -0.668847,-1.037893 -2.006539,-1.383857 -3.121283,-0.691929 l -5.462243,5.574966 v 4.303147 l 5.462243,5.574965 c 0.334424,0.230643 0.780321,0.345965 1.226218,0.345965 0.780321,0 1.449167,-0.345965 1.895065,-1.037893 0.668846,-1.153215 0.334423,-2.537073 -0.668847,-3.229002 z"
     id="path844" /><path
     style="fill:#ff509b;stroke:none;stroke-width:1.13382;stroke-opacity:1;fill-opacity:1"
     d="m 4.6299355,66.029685 c -0.6688462,1.037894 -0.3344231,2.537073 0.6688462,3.229002 l 5.9081413,3.805608 -5.9081413,3.805609 c -1.0032693,0.691929 -1.3376924,2.075787 -0.6688462,3.229002 0.4458974,0.691928 1.1147436,1.037893 1.8950641,1.037893 0.4458975,0 0.7803205,-0.115322 1.226218,-0.345965 L 13.213461,75.215869 V 70.912722 L 7.7512176,65.337756 C 6.636474,64.645828 5.2987817,64.991792 4.6299355,66.029685 Z"
     id="path842" /><path
     style="fill:#ff509b;fill-opacity:1;stroke:none;stroke-width:1.10633;stroke-opacity:1"
     d="M 55.08824,40.808576 H 44.91176 v 3.42535 h 10.17648 z"
     id="path840" /><path
     style="fill:#ff509b;fill-opacity:1;stroke:none;stroke-width:0.999456;stroke-opacity:1"
     d="m 57.803205,41.727439 v 2.506487 h 2.917949 c 8.583526,0 19.60641,-10.307529 19.60641,-17.207384 v -2.506487 h -2.917948 c -8.583526,0 -19.606411,10.307529 -19.606411,17.207384 z"
     id="path838" /><path
     style="fill:#ff509b;fill-opacity:1;stroke:none;stroke-width:0.999456;stroke-opacity:1"
     d="m 41.278846,44.233926 h 0.917949 v -2.506487 c 0,-6.899855 -11.022885,-17.207384 -19.606411,-17.207384 h -2.917948 v 2.506487 c 0,6.899855 13.022884,17.207384 21.60641,17.207384 z"
     id="path836" /><path
     style="fill:#ff509b;fill-opacity:1;stroke:none;stroke-width:1.13382;stroke-opacity:1"
     d="m 24.13141,2.7181943 c 0,-1.2685363 -1.003269,-2.30642959 -2.229487,-2.30642959 -1.226218,0 -2.229487,1.03789329 -2.229487,2.30642959 V 22.250342 h 4.458974 z"
     id="path834"
     sodipodi:nodetypes="sssccs" /><path
     style="fill:#ff509b;fill-opacity:1;stroke:none;stroke-width:1.13382;stroke-opacity:1"
     d="M 80.327564,2.7181943 V 22.250342 H 75.86859 V 2.7181943 c 0,-1.2685363 1.003269,-2.30642959 2.229487,-2.30642959 1.226218,0 2.229487,1.03789329 2.229487,2.30642959 z"
     id="path2"
     sodipodi:nodetypes="sccsss" /></svg>
