<?xml version="1.0" encoding="UTF-8" standalone="no"?>
<svg
   xmlns:dc="http://purl.org/dc/elements/1.1/"
   xmlns:cc="http://creativecommons.org/ns#"
   xmlns:rdf="http://www.w3.org/1999/02/22-rdf-syntax-ns#"
   xmlns:svg="http://www.w3.org/2000/svg"
   xmlns="http://www.w3.org/2000/svg"
   xmlns:sodipodi="http://sodipodi.sourceforge.net/DTD/sodipodi-0.dtd"
   xmlns:inkscape="http://www.inkscape.org/namespaces/inkscape"
   width="20"
   height="20"
   viewBox="0 0 20 20"
   version="1.1"
   id="svg838"
   inkscape:version="1.0.1 (3bc2e813f5, 2020-09-07)"
   sodipodi:docname="eyes_neko.svg">
  <defs
     id="defs832">
    <pattern
       id="EMFhbasepattern"
       patternUnits="userSpaceOnUse"
       width="6"
       height="6"
       x="0"
       y="0" />
  </defs>
  <sodipodi:namedview
     id="base"
     pagecolor="#ffffff"
     bordercolor="#666666"
     borderopacity="1.0"
     inkscape:pageopacity="0.0"
     inkscape:pageshadow="2"
     inkscape:zoom="7.2407734"
     inkscape:cx="0.51667102"
     inkscape:cy="19.962762"
     inkscape:document-units="mm"
     inkscape:current-layer="layer1"
     inkscape:document-rotation="0"
     showgrid="false"
     units="px"
     inkscape:window-width="1267"
     inkscape:window-height="1040"
     inkscape:window-x="52"
     inkscape:window-y="0"
     inkscape:window-maximized="0"
     inkscape:pagecheckerboard="true" />
  <metadata
     id="metadata835">
    <rdf:RDF>
      <cc:Work
         rdf:about="">
        <dc:format>image/svg+xml</dc:format>
        <dc:type
           rdf:resource="http://purl.org/dc/dcmitype/StillImage" />
        <dc:title />
      </cc:Work>
    </rdf:RDF>
  </metadata>
  <g
     inkscape:label="Layer 1"
     inkscape:groupmode="layer"
     id="layer1">
    <path
       id="rect854"
       style="fill:#000000;fill-opacity:1;stroke:none;stroke-width:0.2;stroke-linecap:round"
       d="M 7.7148438,5.5664063 C 8.9706003,4.7515737 10.920832,3.3369315 13.427734,6.0546876 V 15.673828 L 8.6425782,15.234375 Z"
       sodipodi:nodetypes="ccccc" />
    <path
       class="st0"
       d="m 1.9883638,3.0906243 c 2.9987695,-0.3133055 6.1318121,-0.089512 8.9067912,1.1189426 2.327404,1.0294289 4.207229,2.6407078 5.639476,4.699564 1.074187,1.5665221 1.879827,3.4015891 2.372161,5.2366561 0.08951,0.358062 0.179031,0.716124 0.268547,1.074185 0.08951,0.402819 0,0.760882 -0.223788,1.074187 -0.223789,0.313303 -0.537093,0.492334 -0.939913,0.537092 -2.998769,0.313304 -6.087054,0.08951 -8.9067925,-1.118944 C 6.7774432,14.68288 4.8976179,13.071601 3.4653697,11.012745 2.3911832,9.4462234 1.5855444,7.6111558 1.0932097,5.7760883 1.0036974,5.4180266 0.91417727,5.0599649 0.82466186,4.7019018 c -0.0895123,-0.4028195 0,-0.7608811 0.22379014,-1.074185 C 1.2722405,3.3144128 1.5855444,3.1353819 1.9883638,3.0906243 Z M 11.297977,4.6123864 C 7.0907471,7.4768827 9.9552435,15.354245 9.9552435,15.354245 15.147142,10.162347 11.297977,4.6123864 11.297977,4.6123864 Z"
       id="path4"
       style="clip-rule:evenodd;fill:#ffcc00;fill-rule:evenodd;stroke-width:0.447577;fill-opacity:1" />
  </g>
</svg>
