<?xml version="1.0" encoding="UTF-8" standalone="no"?>
<svg
   xmlns:dc="http://purl.org/dc/elements/1.1/"
   xmlns:cc="http://creativecommons.org/ns#"
   xmlns:rdf="http://www.w3.org/1999/02/22-rdf-syntax-ns#"
   xmlns:svg="http://www.w3.org/2000/svg"
   xmlns="http://www.w3.org/2000/svg"
   xmlns:sodipodi="http://sodipodi.sourceforge.net/DTD/sodipodi-0.dtd"
   xmlns:inkscape="http://www.inkscape.org/namespaces/inkscape"
   width="20"
   height="20"
   viewBox="0 0 20 20"
   version="1.1"
   id="svg838"
   inkscape:version="1.0.1 (3bc2e813f5, 2020-09-07)"
   sodipodi:docname="eyes_demon.svg">
  <defs
     id="defs832" />
  <sodipodi:namedview
     id="base"
     pagecolor="#ffffff"
     bordercolor="#666666"
     borderopacity="1.0"
     inkscape:pageopacity="0.0"
     inkscape:pageshadow="2"
     inkscape:zoom="32"
     inkscape:cx="8.4267691"
     inkscape:cy="17.550262"
     inkscape:document-units="mm"
     inkscape:current-layer="g839"
     inkscape:document-rotation="0"
     showgrid="false"
     units="px"
     inkscape:window-width="1920"
     inkscape:window-height="1017"
     inkscape:window-x="-8"
     inkscape:window-y="-8"
     inkscape:window-maximized="1"
     inkscape:pagecheckerboard="true" />
  <metadata
     id="metadata835">
    <rdf:RDF>
      <cc:Work
         rdf:about="">
        <dc:format>image/svg+xml</dc:format>
        <dc:type
           rdf:resource="http://purl.org/dc/dcmitype/StillImage" />
        <dc:title />
      </cc:Work>
    </rdf:RDF>
  </metadata>
  <g
     inkscape:label="Layer 1"
     inkscape:groupmode="layer"
     id="layer1">
    <g
       id="g4140"
       transform="matrix(3.7795276,0,0,3.7795276,-83.734745,-59.984182)">
      <g
         id="g884"
         transform="matrix(0.93448842,0,0,0.93448842,1.6247297,1.2130548)">
        <g
           id="g895"
           transform="rotate(7.6503673,24.799745,18.517027)">
          <g
             id="g839"
             transform="matrix(0.05933692,0.03425819,-0.03425819,0.05933692,23.529954,13.77681)"
             style="fill:#000000;stroke:#9c4dcc;stroke-opacity:1">
            <path
               style="fill:#000000;stroke:#999999;stroke-opacity:1;stroke-width:0.99956643;stroke-miterlimit:4;stroke-dasharray:none"
               d="M 48.570312,35.585938 C 35.065226,36.070103 21.824084,40.523896 10.453125,47.755859 9.3139486,48.49168 8.1998834,49.26526 7.1230469,50.089844 15.904568,57.251001 26.194212,62.775612 37.340832,65.099181 c 11.191102,2.403298 22.969368,1.468123 33.812607,-2.085829 7.869859,-2.581543 15.37896,-6.354293 22.024295,-11.31218 0.325142,-0.347836 1.342247,-0.703577 0.46875,-1.033203 C 84.030535,43.404721 72.775442,38.10342 60.802966,36.314392 56.7604,35.685673 52.658609,35.461371 48.570312,35.585938 Z"
               id="path2" />
            <path
               id="path908"
               style="fill:#9c4dcc;fill-opacity:1;stroke:none;stroke-opacity:1"
               d="m 50.001953,40.642578 c -4.35956,0.190517 -8.383076,3.434866 -9.420019,7.684647 -1.105539,3.948863 0.40854,8.465328 3.712908,10.907883 3.145676,2.500085 7.779083,2.828716 11.260149,0.831685 3.440555,-1.840269 5.641001,-5.732032 5.395559,-9.633872 -0.131733,-4.082958 -2.988383,-7.842435 -6.823699,-9.19075 -1.314935,-0.493492 -2.724975,-0.675463 -4.124898,-0.599593 z" />
            <path
               d="m 53.4,49.7 c -1.5,0 -2.8,-1.3 -2.8,-2.8 0,-0.5 0.2,-1 0.4,-1.5 -0.1,0 -0.3,0 -0.4,0 -3.1,0 -5.5,2.5 -5.5,5.5 0,3 2.5,5.5 5.5,5.5 3,0 5.5,-2.5 5.5,-5.5 0,-0.8 -0.2,-1.6 -0.5,-2.3 -0.5,0.7 -1.3,1.1 -2.2,1.1 z"
               id="path4"
               style="fill:#000000;stroke:none;stroke-opacity:1" />
          </g>
        </g>
      </g>
    </g>
  </g>
</svg>
