<svg version="1.1" viewBox="0 0 20 20" xmlns="http://www.w3.org/2000/svg">
 <g>
  <g transform="matrix(.23564 0 0 .23564 -3.2377 -.6406)" style="fill:#000000">
   <path d="m56.069 47.892c5.31 0 7.158-7.542 7.158-7.542h-14.315c0-1e-3 1.846 7.542 7.157 7.542z" style="fill:none"/>
   <path d="m45.059 46.109c-7.413 6.636-3.248 18.335 0 8.599 3.248 9.736 7.413-1.963 0-8.599z" style="fill:none"/>
   <path d="m19.105 16.736c-3.1 4.796-3.608 7.492-3.608 13.169 0 3.753 0.089 5.628 0.089 9.382 5.93-6.462 4.389-18.265 3.519-22.551z"/>
   <path d="m21.683 26.357c-0.393 5.286-1.87 10.519-4.698 15.032 2.961-0.26 5.733-0.684 8.654-1.233 0.504-1.88 0.954-4.312 4.157-5.325 8.959-2.832 7.298 2.714 14.142-0.214 4.2-1.797 30.018-13.691 25.201-20.962-4.119-6.214-10.584-9.605-17.713-10.722-7.788-1.221-6.723-0.116-7.853 6.633 1.01-0.337 2.298 0.156 3.307-0.183-0.583 3.099-1.167 6.197-1.75 9.296 0.89-0.596 2.115-0.729 2.975-1.365-1.009 3.466-2.018 6.931-3.027 10.397 0.291-2.342 0.583-4.684 0.874-7.026-0.768 0.693-1.874 1.007-2.648 1.692 0.417-3.357 0.835-6.714 1.252-10.071-0.875 0.957-2.312 1.394-3.204 2.337 0.131-4.019 0.263-8.038 0.394-12.057-8.232 0.616-16.102 4.029-20.766 11.07-1.063 1.603 0.884 10.266 0.703 12.701z"/>
   <path d="m68.345 22.556c-3.595 2.6-7.291 5.059-11.066 7.388-3.873 2.389-15.863 6.66-15.702 10.353 0.426 9.746-16.229 13.259-16.184 2.41-3.075 0.559-6.006 0.99-9.124 1.224 0 4.098-1.478 6.238 2.444 7.041 10.18 2.083 11.053 9.013 11.35 18.174 1.291-0.147 4.645 0.408 4.645-1.219 0-0.285-0.161-4.166 0-4.212 3.9-1.107 4.451 1.388 3.669 4.765 1.194-0.057 4.845 0.667 4.845-0.871 0-1.489-0.807-3.894 0.952-3.894 2.759 0 2.719-0.431 2.719 2.307 0 3.494 1.615 2.303 4.845 2.458-0.207-3.551-0.928-4.678 2.718-4.765 1.563-0.038 1.377 2.644 1.377 4.159 0 1.272 0.845 0.888 4.22 1.272 0.318-9.807 2.142-18.05 13.794-18.484 1.802-1.844-0.826-8.645-1.653-10.177-2.952-5.47-4.05-11.76-3.849-17.929zm-23.286 32.153c-3.248 9.736-7.413-1.963 0-8.599 7.413 6.635 3.248 18.334 0 8.599zm11.01-6.817c-5.31 0-7.157-7.542-7.157-7.542h14.315c0-1e-3 -1.848 7.542-7.158 7.542z"/>
   <path d="m56.07 70.896c-0.161 4.148-0.567 4.678-2.603 4.59-1.555-0.068-1.728-0.914-1.728-2.425 0-3.573-1.457-2.563-4.845-2.607 0 3.283 0.173 5.059-1.761 5.059s-1.91-1.592-1.91-5.059c-1.232 0.016-4.845-0.732-4.845 0.918 0 0.275 0.152 4.13 0 4.145-4.206 0.412-4.029 1.739-4.228-4.621-7.617 0.672-3.177 7.359 0.434 11.524 4.193 4.837 4.189 5.081 10.475 5.081s6.282-0.244 10.475-5.081c3.61-4.166 9.615-10.825 0.536-11.524z"/>
   <path d="m71.48 17.401c-3.852 7.193-0.111 16.133 2.986 22.948 0.419-17.696-2.91-22.74-2.986-22.948z"/>
  </g>
 </g>
</svg>
