<?xml version="1.0" encoding="UTF-8" standalone="no"?>
<svg
   xmlns:dc="http://purl.org/dc/elements/1.1/"
   xmlns:cc="http://creativecommons.org/ns#"
   xmlns:rdf="http://www.w3.org/1999/02/22-rdf-syntax-ns#"
   xmlns:svg="http://www.w3.org/2000/svg"
   xmlns="http://www.w3.org/2000/svg"
   xmlns:sodipodi="http://sodipodi.sourceforge.net/DTD/sodipodi-0.dtd"
   xmlns:inkscape="http://www.inkscape.org/namespaces/inkscape"
   width="20"
   height="20"
   viewBox="0 0 20 20"
   version="1.1"
   id="svg838"
   inkscape:version="1.0.1 (3bc2e813f5, 2020-09-07)"
   sodipodi:docname="face_beautiful.svg">
  <style
     id="style831"></style>
  <defs
     id="defs832" />
  <sodipodi:namedview
     id="base"
     pagecolor="#ffffff"
     bordercolor="#666666"
     borderopacity="1.0"
     inkscape:pageopacity="0.0"
     inkscape:pageshadow="2"
     inkscape:zoom="15.839192"
     inkscape:cx="3.2390679"
     inkscape:cy="5.3646174"
     inkscape:document-units="mm"
     inkscape:current-layer="layer1"
     inkscape:document-rotation="0"
     showgrid="false"
     units="px"
     inkscape:window-width="1267"
     inkscape:window-height="1040"
     inkscape:window-x="804"
     inkscape:window-y="91"
     inkscape:window-maximized="0"
     inkscape:pagecheckerboard="true" />
  <metadata
     id="metadata835">
    <rdf:RDF>
      <cc:Work
         rdf:about="">
        <dc:format>image/svg+xml</dc:format>
        <dc:type
           rdf:resource="http://purl.org/dc/dcmitype/StillImage" />
        <dc:title />
      </cc:Work>
    </rdf:RDF>
  </metadata>
  <g
     inkscape:label="Layer 1"
     inkscape:groupmode="layer"
     id="layer1">
    <path
       id="path5722"
       d="M 4.0160913,6.5120579 C 4.7347658,7.0364931 5.7447859,6.1041646 5.4922804,5.2301078 5.3757403,4.841634 5.9778681,4.0841186 6.405194,4.7056837 6.9296273,5.6574354 6.1138401,6.2012958 7.9979389,6.6480205 7.8425529,7.0753401 7.6483181,7.3084236 7.3958088,7.6774641 5.7642347,6.4732053 4.1520807,7.6580409 3.6470676,6.5314778 3.7830158,6.5509213 3.8995782,6.5509019 4.0161275,6.5120484 Z M 2.2873979,4.3560494 C 2.3262477,3.6179543 2.4427858,2.6079313 3.4139596,2.8798576 6.9296207,3.9093072 7.1044297,2.1417645 8.7942779,2.04465 9.4352522,2.0252241 9.6294897,2.9575502 9.5129464,3.3460257 7.784251,3.8316127 8.3863808,5.1718356 8.095028,6.3955178 6.3663386,5.9876227 7.1627748,5.501961 6.638249,4.5891457 6.4051691,4.1618279 5.9389992,4.1229838 5.5699566,4.3754867 4.8512855,4.0841337 3.5693342,3.4237323 3.0643216,4.3560632 2.8700867,4.7445371 2.5787302,4.530872 2.2873808,4.3560628 Z M 9.1633258,5.9876248 C 9.3964047,5.5214594 9.5906402,5.3272239 9.7460289,5.2106822 9.6683369,6.7257164 11.008558,7.9105507 10.173346,9.3673164 9.9791129,9.7169409 8.153296,11.115432 7.8425249,11.076584 5.6282423,9.3284691 8.172724,7.5609291 8.3475366,6.4537872 8.6583093,5.2106822 8.1144517,3.9287269 9.6294859,3.6179526 12.115698,3.6956449 8.9496644,5.1912578 9.1633258,5.9876248 Z M 5.2203484,9.7363628 C 5.2786163,10.105413 5.4145808,10.474458 5.7642038,10.746384 5.1814958,11.406781 4.1326301,10.396762 2.9866401,10.493879 2.4039365,10.377339 0.22850327,10.843503 -0.41247403,9.9305986 -1.1894307,8.8040506 0.79178307,7.133612 1.3550676,4.8999054 1.6658437,3.6568007 2.6758665,5.5991513 3.3168404,4.4920113 3.7053284,3.7539306 4.8124544,4.3948958 5.3563109,4.5891286 5.2979632,4.686173 5.2397677,4.7833679 5.2203493,4.9193295 4.3851556,4.2006409 3.0254897,4.977601 3.0643388,5.9876238 2.811908,6.2013583 2.5593245,6.2595512 2.248548,6.2595529 1.4133352,6.240129 2.1708541,7.1530355 1.7046903,7.6191995 2.3262457,7.230731 1.8406557,6.5120575 2.2485504,6.5314813 2.5787374,6.5120767 2.8895259,6.4343637 3.1808786,6.2207068 3.219785,6.2983051 3.2780767,6.356596 3.3363289,6.4148489 3.9384557,8.1435443 5.5117624,6.5702377 7.240454,7.910463 7.1626801,8.0269286 7.1433314,8.0852741 7.0850484,8.1823709 6.1915655,7.7162061 5.162121,7.8521746 4.2492121,8.1435257 3.4722726,8.2212196 3.0061096,7.8327511 2.7341806,7.1335039 2.9672636,7.9492927 3.3363114,8.512572 4.2686396,8.4348764 4.7542135,8.570857 5.162121,8.8621954 5.2204704,9.4253989 3.6665897,8.5319168 1.7048128,9.8721399 1.3357651,8.0269053 1.7630805,10.124646 3.8414014,8.8621146 5.2204704,9.7361739 Z M 2.7924067,10.804656 c 1.3207998,-0.194235 2.5056332,1.068294 3.2437271,0.01942 0.2330857,0.03885 0.7963663,0.01943 1.0682939,0.01942 0.05835,0.09704 0.1360447,0.174736 0.1943133,0.233005 -0.6992361,0.310787 -0.5050105,0.699249 -1.5150351,1.04887 -1.2236814,0.135967 -2.5056324,0.640977 -3.0689168,0.776941 -0.6021262,0.135965 -0.5827147,-0.971165 -0.5632813,-1.379069 0,-0.427319 0.3301986,-0.330199 0.6409789,-0.718668 z M 4.6959121,8.318446 C 5.4340045,8.1242089 6.2497945,8.0465153 6.9490418,8.4349877 6.5605564,9.1730663 6.5411457,9.8140574 6.9101938,10.571572 6.1332535,10.532727 5.6670887,10.688114 5.4922769,9.6586692 5.5311233,9.037114 5.2591934,8.5709492 4.6959121,8.318446 Z m 5.2637858,5.652234 c -0.8546383,-0.738091 -1.7092701,-1.864661 -2.1365898,-2.6416 -0.1165402,3.8e-5 -0.2136408,-0.135953 -0.3690504,0.05826 0.388471,0.893481 1.4761885,2.175434 2.1754337,2.913527 -1.0877176,0.310777 -0.9905979,0.485588 -1.5149581,1.476266 0.7187496,-0.757441 0.6603994,-0.893486 1.8063886,-0.796365 1.0294351,-0.640987 6.2543741,3.340845 6.1184101,5.574552 0.349627,-0.155388 0.602115,-0.252522 0.912907,-0.485587 -0.291355,-2.622179 -4.312025,-4.778192 -6.42919,-5.80764 0.116538,-1.087715 1.029448,-1.573305 1.786965,-2.214278 -3.1466134,0.582705 -1.728674,1.612171 -2.3502471,1.922926 z M 6.8325124,13.873559 C 6.5022926,14.087201 6.1332602,14.262027 5.7642151,14.397994 5.5117118,14.223178 5.3563214,14.184337 5.0649685,14.164912 c 0.038692,0 0.310756,0.194254 0.388394,0.349702 -0.2719376,0.116547 -0.5438439,0.194252 -0.8157899,0.271928 -0.1359638,-0.05827 -0.3884725,-0.194233 -0.6021285,-0.135964 0.1553874,0.0777 0.2330698,0.155381 0.252427,0.213735 -0.4661684,0.194233 -0.5632728,0.174825 -1.2431037,0.38847 0.4273062,0.03886 1.1848337,-0.09712 1.5344589,-0.17481 -0.019424,0.174814 -0.2330835,0.427322 -0.4661654,0.621555 0.3302031,-0.174811 0.718674,-0.446739 0.7575137,-0.679826 0.2330873,-0.07769 0.4661685,-0.155384 0.7186763,-0.252504 0.038851,0.116539 -0.097122,0.524435 -0.1942392,0.738093 0.3496244,-0.349624 0.4467394,-0.640978 0.4855989,-0.874047 0.3302024,-0.09712 0.6409643,-0.252516 0.9517525,-0.446743 0.077677,0.271917 -0.2330807,0.932332 -0.2330807,0.932332 0.2720069,-0.3107 0.4855847,-0.757521 0.6021295,-1.184838 0.4273183,-0.271925 0.9129035,-0.369048 1.417917,-0.369047 -0.2913681,0.64096 -0.6215537,1.243107 -1.0100241,1.825813 -0.019424,-0.213664 0.1165434,-0.621555 0.1748113,-0.835214 -0.427338,0.543843 -1.1071324,1.495627 -1.7869645,1.786968 -0.038847,-0.271934 0.4273159,-0.738097 0.6021437,-0.951735 -0.7769403,0.505005 -1.4373405,0.971174 -2.350247,1.184833 0.077717,-0.19422 0.077692,-0.349628 0.038847,-0.505012 -0.4855907,0.174808 -0.8740586,0.09712 -1.3984948,0.11654 0.1942354,-0.116547 0.3301978,-0.252509 0.369125,-0.407817 -0.2525102,-0.05827 -1.4956123,-0.563285 -1.5733061,-0.60213 0.5632813,-0.05827 1.9035053,-0.349623 2.1560124,-0.640976 -0.038869,-0.155372 -0.058272,-0.213663 -0.1748119,-0.330202 0.3884687,2e-5 0.9323287,-0.07769 1.2236816,-0.369045 -0.019424,-0.213664 -0.058253,-0.291341 -0.2330791,-0.427319 0.5050097,-0.03885 1.0294441,-0.01943 1.5150331,-0.233081 -0.116543,-0.116543 -0.2136596,-0.213661 -0.3301229,-0.291431 0.7380932,0 1.5538831,0.194236 2.2337061,0.44674 C 7.726002,13.36874 7.3958126,13.504691 7.08504,13.698929 6.6965653,13.465846 6.366369,13.407576 6.2692494,13.426999 c 0.1942354,0.116547 0.4855898,0.3302 0.5632629,0.446761 z M 10.192776,6.3566562 c 0.621554,7e-7 1.456764,-0.5632813 1.981199,-0.6215514 0.718669,-0.097116 0.427241,0.3885488 0.01943,0.9129051 -0.815789,0.7380969 -1.18484,2.3890943 -1.63158,2.5639084 C 10.98914,7.9688087 10.425858,7.2112917 10.192776,6.3566562 Z M 5.2203545,5.3077873 C 5.3757436,6.1235767 4.5016854,6.64801 4.132635,6.2401155 3.7441644,5.8516449 4.3268701,5.2689393 4.5987988,5.6962555 4.2880065,5.0358714 3.5110831,5.7350993 3.78301,6.2789574 2.7147138,6.1818419 4.0355136,4.0452534 5.2203486,5.3077814 Z"
       class="fil0"
       inkscape:connector-curvature="0"
       style="clip-rule:evenodd;fill:#000000;fill-opacity:1;fill-rule:nonzero;stroke-width:0.027469;image-rendering:optimizeQuality;shape-rendering:geometricPrecision;text-rendering:geometricPrecision" />
  </g>
</svg>
