<?xml version="1.0" encoding="UTF-8" standalone="no"?>
<svg
   xmlns:dc="http://purl.org/dc/elements/1.1/"
   xmlns:cc="http://creativecommons.org/ns#"
   xmlns:rdf="http://www.w3.org/1999/02/22-rdf-syntax-ns#"
   xmlns:svg="http://www.w3.org/2000/svg"
   xmlns="http://www.w3.org/2000/svg"
   xmlns:sodipodi="http://sodipodi.sourceforge.net/DTD/sodipodi-0.dtd"
   xmlns:inkscape="http://www.inkscape.org/namespaces/inkscape"
   width="20"
   height="20"
   viewBox="0 0 20 20"
   version="1.1"
   id="svg838"
   inkscape:version="1.0.1 (3bc2e813f5, 2020-09-07)"
   sodipodi:docname="face_attractive.svg">
  <defs
     id="defs832" />
  <sodipodi:namedview
     id="base"
     pagecolor="#ffffff"
     bordercolor="#666666"
     borderopacity="1.0"
     inkscape:pageopacity="0.0"
     inkscape:pageshadow="2"
     inkscape:zoom="7.919596"
     inkscape:cx="1.9776912"
     inkscape:cy="12.850614"
     inkscape:document-units="mm"
     inkscape:current-layer="layer1"
     inkscape:document-rotation="0"
     showgrid="false"
     units="px"
     inkscape:window-width="1267"
     inkscape:window-height="1040"
     inkscape:window-x="75"
     inkscape:window-y="5"
     inkscape:window-maximized="0"
     inkscape:pagecheckerboard="true" />
  <metadata
     id="metadata835">
    <rdf:RDF>
      <cc:Work
         rdf:about="">
        <dc:format>image/svg+xml</dc:format>
        <dc:type
           rdf:resource="http://purl.org/dc/dcmitype/StillImage" />
        <dc:title></dc:title>
      </cc:Work>
    </rdf:RDF>
  </metadata>
  <g
     inkscape:label="Layer 1"
     inkscape:groupmode="layer"
     id="layer1">
    <path
       id="path5752"
       d="M 9.538337,11.95716 C 7.1663432,11.501009 5.8891162,7.4868705 5.3417352,5.0236503 c 0,1.1859893 -1.094763,2.7369109 -4.92644095,3.4667528 C 2.0574392,3.199038 4.2469722,3.0165775 4.6118932,3.2902682 c 0.182475,0.1824757 0.456155,0.456155 0.547381,0.821076 -0.09124,-0.7298457 -0.182475,-1.1859969 -0.182475,-1.1859969 0.09124,-2.18952955 1.824604,3.3755226 3.010601,3.7404473 C 11.454156,7.5781008 10.54185,10.132555 9.538318,11.95716 Z m 8.3932,9.579197 c 1.642145,2.463225 -2.007072,1.64215 -4.014138,2.098305 0.821069,-0.456155 2.463221,-4.470295 4.014138,-2.098305 z m 2.828141,-2.280759 c -0.456151,3.922909 2.645681,1.277223 4.835214,0.912302 -1.003536,-0.182476 -4.379059,-4.743984 -4.835214,-0.912302 z m -2.73691,0.364913 c 3.740447,1.003533 1.277223,-3.19307 1.003532,-5.92998 -0.273675,1.185996 -4.652753,4.926444 -1.003532,5.92998 z M 9.994484,12.869455 c 1.642152,2.189533 3.557994,3.922911 5.56506,5.473829 5.200134,3.922908 10.582734,6.386129 11.038885,10.947652 0.09124,0.638612 -0.638616,0.638612 -0.821076,0.09124 0,-0.273676 -0.09124,-0.456147 -0.09124,-0.638608 -0.821076,-2.919379 -3.649217,-4.926444 -6.933513,-7.115978 -3.284296,-2.28076 -6.933513,-4.743984 -9.123042,-8.393201 -0.273676,0.09124 -0.729846,0.09124 -1.094767,0 0.273676,-0.364913 1.368453,-1.642148 1.915835,-1.368457 0,0 -0.09124,0.364913 -0.364913,0.821075 0,0.09124 -0.09124,0.182476 -0.09124,0.182476 z m -3.0106008,1.642151 c -0.09124,0.09124 -2.189526,1.185994 -3.284293,0.821069 -1.185997,-0.273676 -1.915842,1.185997 -1.915842,1.185997 2.828145,-1.733375 4.196598,1.277227 5.200135,-2.007066 z m 3.4667558,-3.46676 c 0.638612,-1.7333745 3.37553,-3.7404473 -0.547385,-4.470293 0,0 2.371994,-0.2736756 2.645688,1.0947667 0.273676,1.3684573 0.273676,1.733382 -2.098303,3.3755263 z m -1.550914,1.094767 c -2.2807628,4.743983 -6.5685958,-2.0983 -7.5721278,-2.5544508 -2.463221,-1.1859969 1.459687,-0.3649134 3.193065,-2.098303 0.821073,-0.7298457 1.185994,-0.6386117 1.185994,-0.6386117 0,0 -1.003533,2.5544542 3.1930688,5.2913655 z"
       class="fil0"
       inkscape:connector-curvature="0"
       style="clip-rule:evenodd;fill:#000000;fill-rule:evenodd;stroke-width:0.0912306;image-rendering:optimizeQuality;shape-rendering:geometricPrecision;text-rendering:geometricPrecision" />
  </g>
</svg>
