<?xml version="1.0" encoding="UTF-8" standalone="no"?>
<svg
   xmlns:dc="http://purl.org/dc/elements/1.1/"
   xmlns:cc="http://creativecommons.org/ns#"
   xmlns:rdf="http://www.w3.org/1999/02/22-rdf-syntax-ns#"
   xmlns:svg="http://www.w3.org/2000/svg"
   xmlns="http://www.w3.org/2000/svg"
   xmlns:sodipodi="http://sodipodi.sourceforge.net/DTD/sodipodi-0.dtd"
   xmlns:inkscape="http://www.inkscape.org/namespaces/inkscape"
   width="20"
   height="20"
   viewBox="0 0 20 20"
   version="1.1"
   id="svg838"
   inkscape:version="1.0.1 (3bc2e813f5, 2020-09-07)"
   sodipodi:docname="gender_male.svg">
  <defs
     id="defs832" />
  <sodipodi:namedview
     id="base"
     pagecolor="#ffffff"
     bordercolor="#666666"
     borderopacity="1.0"
     inkscape:pageopacity="0.0"
     inkscape:pageshadow="2"
     inkscape:zoom="22.4"
     inkscape:cx="11.042348"
     inkscape:cy="5.5862502"
     inkscape:document-units="mm"
     inkscape:current-layer="layer1"
     inkscape:document-rotation="0"
     showgrid="false"
     units="px"
     inkscape:window-width="1298"
     inkscape:window-height="1040"
     inkscape:window-x="52"
     inkscape:window-y="0"
     inkscape:window-maximized="0"
     inkscape:pagecheckerboard="true" />
  <metadata
     id="metadata835">
    <rdf:RDF>
      <cc:Work
         rdf:about="">
        <dc:format>image/svg+xml</dc:format>
        <dc:type
           rdf:resource="http://purl.org/dc/dcmitype/StillImage" />
        <dc:title></dc:title>
      </cc:Work>
    </rdf:RDF>
  </metadata>
  <g
     inkscape:label="Layer 1"
     inkscape:groupmode="layer"
     id="layer1">
    <rect
       style="opacity:1;fill:#00ffff;fill-opacity:1;stroke:none;stroke-width:1.98922;stroke-miterlimit:4;stroke-dasharray:none;stroke-opacity:1"
       id="rect1494-5"
       width="19.999998"
       height="20"
       x="5.7367436e-07"
       y="0" />
    <path
       style="opacity:1;fill:#ffffff;fill-opacity:1;fill-rule:evenodd;stroke:none;stroke-width:0.99461px;stroke-linecap:butt;stroke-linejoin:miter;stroke-opacity:1"
       d="M 20,19.999998 2.668761,17.394038 0,1.4652797e-6 17.519625,2.5745688 Z"
       id="path1496-3"
       inkscape:connector-curvature="0"
       inkscape:export-xdpi="119.35343"
       inkscape:export-ydpi="119.35343" />
    <path
       id="path1368"
       d="m 10.703811,7.3691142 v 0 l 3.72825,-3.7282999 H 11.816908 V 0.9154499 H 19.08455 V 8.1830922 H 16.359186 V 5.5679199 l -3.728251,3.7283002 c 0.634772,0.9893969 1.002886,2.1662999 1.002886,3.4291429 0,3.512088 -2.847106,6.359187 -6.359183,6.359187 -3.512085,0 -6.359188,-2.847099 -6.359188,-6.359187 0,-3.5120849 2.847103,-6.3591842 6.359188,-6.3591842 1.262849,0 2.439722,0.3680882 3.429173,1.0029354 z M 7.274638,16.359186 c 2.006902,0 3.633819,-1.626955 3.633819,-3.633823 0,-2.006869 -1.626917,-3.6338199 -3.633819,-3.6338199 -2.006907,0 -3.633823,1.6269509 -3.633823,3.6338199 0,2.006868 1.626916,3.633823 3.633823,3.633823 z"
       inkscape:connector-curvature="0"
       style="fill-rule:evenodd;stroke-width:0.908455" />
  </g>
</svg>
