<?xml version="1.0" encoding="UTF-8" standalone="no"?>
<svg
   xmlns:dc="http://purl.org/dc/elements/1.1/"
   xmlns:cc="http://creativecommons.org/ns#"
   xmlns:rdf="http://www.w3.org/1999/02/22-rdf-syntax-ns#"
   xmlns:svg="http://www.w3.org/2000/svg"
   xmlns="http://www.w3.org/2000/svg"
   xmlns:sodipodi="http://sodipodi.sourceforge.net/DTD/sodipodi-0.dtd"
   xmlns:inkscape="http://www.inkscape.org/namespaces/inkscape"
   width="20"
   height="20"
   viewBox="0 0 20 20"
   version="1.1"
   id="svg838"
   inkscape:version="1.0.1 (3bc2e813f5, 2020-09-07)"
   sodipodi:docname="gender_female.svg">
  <defs
     id="defs832" />
  <sodipodi:namedview
     id="base"
     pagecolor="#ffffff"
     bordercolor="#666666"
     borderopacity="1.0"
     inkscape:pageopacity="0.0"
     inkscape:pageshadow="2"
     inkscape:zoom="22.4"
     inkscape:cx="11.042348"
     inkscape:cy="5.5862502"
     inkscape:document-units="mm"
     inkscape:current-layer="layer1"
     inkscape:document-rotation="0"
     showgrid="false"
     units="px"
     inkscape:window-width="1298"
     inkscape:window-height="1040"
     inkscape:window-x="52"
     inkscape:window-y="0"
     inkscape:window-maximized="0"
     inkscape:pagecheckerboard="true" />
  <metadata
     id="metadata835">
    <rdf:RDF>
      <cc:Work
         rdf:about="">
        <dc:format>image/svg+xml</dc:format>
        <dc:type
           rdf:resource="http://purl.org/dc/dcmitype/StillImage" />
        <dc:title></dc:title>
      </cc:Work>
    </rdf:RDF>
  </metadata>
  <g
     inkscape:label="Layer 1"
     inkscape:groupmode="layer"
     id="layer1">
    <rect
       style="opacity:1;fill:#e9afaf;fill-opacity:1;stroke:none;stroke-width:1.98922;stroke-miterlimit:4;stroke-dasharray:none;stroke-opacity:1"
       id="rect1494-5"
       width="19.999998"
       height="20"
       x="5.7367436e-07"
       y="0" />
    <path
       style="opacity:1;fill:#ffffff;fill-opacity:1;fill-rule:evenodd;stroke:none;stroke-width:0.99461px;stroke-linecap:butt;stroke-linejoin:miter;stroke-opacity:1"
       d="M 20,19.999998 2.668761,17.394038 0,1.4652797e-6 17.519625,2.5745688 Z"
       id="path1496-3"
       inkscape:connector-curvature="0"
       inkscape:export-xdpi="119.35343"
       inkscape:export-ydpi="119.35343" />
    <g
       transform="matrix(0.21941711,0,0,0.21941711,-0.97089359,-0.97634093)"
       id="g1527">
      <g
         id="use1525">
        <path
           id="path933"
           d="m 66.8,47.75 q 7.1,-6.9 7.1,-16.8 Q 73.95,21 66.8,14.15 59.95,7 50,7 40.1,7.05 33.1,14.05 26.15,21 26.1,30.9 q 0,9.95 7,16.95 5.65,5.65 13.1,6.7 l 0.05,15.85 -7.55,0.05 q -2.15,-0.05 -3.6,1.4 -1.45,1.45 -1.4,3.6 0,2.1 1.4,3.5 1.4,1.4 3.55,1.45 l 7.55,-0.05 0.05,7.85 q 0.1,2 1.5,3.4 1.65,1.45 3.55,1.45 2.1,0 3.45,-1.55 1.55,-1.55 1.45,-3.55 v -7.6 l 7.55,0.05 q 2.1,0 3.45,-1.55 1.5,-1.3 1.5,-3.4 Q 68.65,73.3 67.15,72 65.8,70.45 63.7,70.45 L 56.15,70.4 56.05,54 Q 62.2,52.35 66.8,47.75 M 50,16.95 q 5.7,0 9.85,4.15 4.1,4.1 4.15,9.85 -0.05,5.65 -4.2,9.8 -3.4,3.6 -8.35,4.15 h -0.5 q -0.2,0 -0.9,0 -5.75,-0.05 -9.95,-4.05 -4.05,-4.25 -4.05,-9.95 0.05,-5.65 4,-9.9 4.3,-4 9.95,-4.05 z"
           stroke="none"
           fill="#000000" />
      </g>
    </g>
  </g>
</svg>
