<?xml version="1.0" encoding="UTF-8" standalone="no"?>
<svg
   xmlns:dc="http://purl.org/dc/elements/1.1/"
   xmlns:cc="http://creativecommons.org/ns#"
   xmlns:rdf="http://www.w3.org/1999/02/22-rdf-syntax-ns#"
   xmlns:svg="http://www.w3.org/2000/svg"
   xmlns="http://www.w3.org/2000/svg"
   xmlns:sodipodi="http://sodipodi.sourceforge.net/DTD/sodipodi-0.dtd"
   xmlns:inkscape="http://www.inkscape.org/namespaces/inkscape"
   width="20"
   height="20"
   viewBox="0 0 20 20"
   version="1.1"
   id="svg838"
   inkscape:version="1.0.1 (3bc2e813f5, 2020-09-07)"
   sodipodi:docname="gender_null.svg">
  <defs
     id="defs832" />
  <sodipodi:namedview
     id="base"
     pagecolor="#ffffff"
     bordercolor="#666666"
     borderopacity="1.0"
     inkscape:pageopacity="0.0"
     inkscape:pageshadow="2"
     inkscape:zoom="11.2"
     inkscape:cx="-1.8765718"
     inkscape:cy="11.182331"
     inkscape:document-units="mm"
     inkscape:current-layer="layer1"
     inkscape:document-rotation="0"
     showgrid="false"
     units="px"
     inkscape:window-width="1298"
     inkscape:window-height="1040"
     inkscape:window-x="52"
     inkscape:window-y="0"
     inkscape:window-maximized="0"
     inkscape:pagecheckerboard="true" />
  <metadata
     id="metadata835">
    <rdf:RDF>
      <cc:Work
         rdf:about="">
        <dc:format>image/svg+xml</dc:format>
        <dc:type
           rdf:resource="http://purl.org/dc/dcmitype/StillImage" />
        <dc:title></dc:title>
      </cc:Work>
    </rdf:RDF>
  </metadata>
  <g
     inkscape:label="Layer 1"
     inkscape:groupmode="layer"
     id="layer1">
    <rect
       style="opacity:1;fill:#323232;fill-opacity:1;stroke:none;stroke-width:1.98922;stroke-miterlimit:4;stroke-dasharray:none;stroke-opacity:1"
       id="rect1494-5"
       width="19.999998"
       height="20"
       x="5.7367436e-07"
       y="0" />
    <path
       style="opacity:1;fill:#ffffff;fill-opacity:1;fill-rule:evenodd;stroke:none;stroke-width:0.99461px;stroke-linecap:butt;stroke-linejoin:miter;stroke-opacity:1"
       d="M 20,19.999998 2.668761,17.394038 0,1.4652797e-6 17.519625,2.5745688 Z"
       id="path1496-3"
       inkscape:connector-curvature="0"
       inkscape:export-xdpi="119.35343"
       inkscape:export-ydpi="119.35343" />
    <path
       id="path949"
       style="fill:#000000;fill-opacity:1;stroke-width:0.691654;stroke-linecap:round"
       d="M 10 2.1074219 A 7.8918166 7.8918166 0 0 0 2.1074219 10 A 7.8918166 7.8918166 0 0 0 10 17.892578 A 7.8918166 7.8918166 0 0 0 17.892578 10 A 7.8918166 7.8918166 0 0 0 10 2.1074219 z M 10 4.5058594 A 5.4936337 5.4936337 0 0 1 15.494141 10 A 5.4936337 5.4936337 0 0 1 10 15.494141 A 5.4936337 5.4936337 0 0 1 4.5058594 10 A 5.4936337 5.4936337 0 0 1 10 4.5058594 z " />
  </g>
</svg>
