<?xml version="1.0" encoding="UTF-8" standalone="no"?>
<svg
   xmlns:dc="http://purl.org/dc/elements/1.1/"
   xmlns:cc="http://creativecommons.org/ns#"
   xmlns:rdf="http://www.w3.org/1999/02/22-rdf-syntax-ns#"
   xmlns:svg="http://www.w3.org/2000/svg"
   xmlns="http://www.w3.org/2000/svg"
   xmlns:sodipodi="http://sodipodi.sourceforge.net/DTD/sodipodi-0.dtd"
   xmlns:inkscape="http://www.inkscape.org/namespaces/inkscape"
   width="20"
   height="20"
   viewBox="0 0 20 20"
   version="1.1"
   id="svg838"
   inkscape:version="1.0.1 (3bc2e813f5, 2020-09-07)"
   sodipodi:docname="height_giant.svg">
  <defs
     id="defs832" />
  <sodipodi:namedview
     id="base"
     pagecolor="#ffffff"
     bordercolor="#666666"
     borderopacity="1.0"
     inkscape:pageopacity="0.0"
     inkscape:pageshadow="2"
     inkscape:zoom="15.839192"
     inkscape:cx="3.2390679"
     inkscape:cy="5.3646174"
     inkscape:document-units="mm"
     inkscape:current-layer="layer1"
     inkscape:document-rotation="0"
     showgrid="false"
     units="px"
     inkscape:window-width="1267"
     inkscape:window-height="1040"
     inkscape:window-x="75"
     inkscape:window-y="5"
     inkscape:window-maximized="0"
     inkscape:pagecheckerboard="true" />
  <metadata
     id="metadata835">
    <rdf:RDF>
      <cc:Work
         rdf:about="">
        <dc:format>image/svg+xml</dc:format>
        <dc:type
           rdf:resource="http://purl.org/dc/dcmitype/StillImage" />
        <dc:title></dc:title>
      </cc:Work>
    </rdf:RDF>
  </metadata>
  <g
     inkscape:label="Layer 1"
     inkscape:groupmode="layer"
     id="layer1">
    <g
       id="g6131"
       transform="matrix(3.7795276,0,0,3.7795276,-84.013105,-60.017429)"
       style="fill:#000000">
      <circle
         r="0.53133601"
         transform="matrix(-0.99899206,-0.04488734,-0.04488734,0.99899206,0,0)"
         cx="-25.201546"
         cy="15.312119"
         id="ellipse5342-0"
         style="fill:#000000;stroke-width:0.0547769" />
      <path
         inkscape:connector-curvature="0"
         d="m 23.751253,17.479716 c 0.08764,-0.198927 0.284838,-0.326019 0.503943,-0.326019 h 0.492989 c 0.213628,0 0.410823,0.127089 0.503943,0.326019 l 0.492989,1.077526 c 0.0493,0.116042 0.0055,0.24866 -0.109553,0.298392 -0.03287,0.01661 -0.06025,0.0221 -0.09312,0.0221 -0.08764,0 -0.16433,-0.04974 -0.202673,-0.132621 l -0.328659,-0.718339 v 0.779133 l 0.257449,2.033487 c 0.02191,0.154716 -0.08764,0.292865 -0.241016,0.309443 -0.01095,0 -0.02191,0 -0.03287,0 -0.136941,0 -0.25745,-0.104994 -0.273882,-0.243134 l -0.213629,-1.690888 -0.213628,1.690888 c -0.01643,0.143669 -0.136941,0.243134 -0.273882,0.243134 -0.01096,0 -0.02191,0 -0.03287,0 -0.153374,-0.0221 -0.25745,-0.160249 -0.241017,-0.309443 l 0.251972,-2.033487 v -0.779133 l -0.328659,0.718349 c -0.05478,0.116042 -0.18624,0.165781 -0.295793,0.110509 -0.11503,-0.04974 -0.164329,-0.187876 -0.109553,-0.298392 z"
         id="path5344-6"
         style="fill:#000000;stroke-width:0.0550166" />
      <path
         inkscape:connector-curvature="0"
         d="m 22.35993,15.950544 h 0.514899 c 0.07121,0 0.131464,0.06025 0.131464,0.131464 0,0.07121 -0.06025,0.131463 -0.131464,0.131463 h -0.383435 v 0.44369 h 0.383435 c 0.07121,0 0.131464,0.06025 0.131464,0.131463 0,0.07121 -0.06025,0.131464 -0.131464,0.131464 h -0.383435 v 0.443689 h 0.383435 c 0.07121,0 0.131464,0.06026 0.131464,0.131464 0,0.07121 -0.06025,0.131463 -0.131464,0.131463 h -0.383435 v 0.44369 h 0.383435 c 0.07121,0 0.131464,0.06025 0.131464,0.131464 0,0.07121 -0.06025,0.131463 -0.131464,0.131463 h -0.383435 v 0.438212 h 0.383435 c 0.07121,0 0.131464,0.06025 0.131464,0.131463 0,0.07121 -0.06025,0.131464 -0.131464,0.131464 h -0.383435 v 0.44369 h 0.383435 c 0.07121,0 0.131464,0.06025 0.131464,0.131463 0,0.07121 -0.06025,0.131464 -0.131464,0.131464 h -0.383435 v 0.443689 h 0.383435 c 0.07121,0 0.131464,0.06025 0.131464,0.131464 0,0.07121 -0.06025,0.131463 -0.131464,0.131463 h -0.383435 v 0.44369 h 0.383435 c 0.07121,0 0.131464,0.06025 0.131464,0.131463 0,0.07121 -0.06025,0.131464 -0.131464,0.131464 H 22.35993 c -0.07121,0 -0.131463,-0.06025 -0.131463,-0.131464 v -4.940838 c 0,-0.07121 0.06025,-0.131464 0.131463,-0.131464 z"
         id="path5346-3"
         style="fill:#000000;stroke-width:0.0547765" />
    </g>
  </g>
</svg>
