<?xml version="1.0" encoding="UTF-8" standalone="no"?>
<svg
   xmlns:dc="http://purl.org/dc/elements/1.1/"
   xmlns:cc="http://creativecommons.org/ns#"
   xmlns:rdf="http://www.w3.org/1999/02/22-rdf-syntax-ns#"
   xmlns:svg="http://www.w3.org/2000/svg"
   xmlns="http://www.w3.org/2000/svg"
   xmlns:sodipodi="http://sodipodi.sourceforge.net/DTD/sodipodi-0.dtd"
   xmlns:inkscape="http://www.inkscape.org/namespaces/inkscape"
   width="20"
   height="20"
   viewBox="0 0 20 20"
   version="1.1"
   id="svg838"
   inkscape:version="1.0.1 (3bc2e813f5, 2020-09-07)"
   sodipodi:docname="height_dwarf.svg">
  <defs
     id="defs832" />
  <sodipodi:namedview
     id="base"
     pagecolor="#ffffff"
     bordercolor="#666666"
     borderopacity="1.0"
     inkscape:pageopacity="0.0"
     inkscape:pageshadow="2"
     inkscape:zoom="31.678384"
     inkscape:cx="6.2875196"
     inkscape:cy="13.155856"
     inkscape:document-units="mm"
     inkscape:current-layer="layer1"
     inkscape:document-rotation="0"
     showgrid="false"
     units="px"
     inkscape:window-width="1267"
     inkscape:window-height="1040"
     inkscape:window-x="75"
     inkscape:window-y="0"
     inkscape:window-maximized="0"
     inkscape:pagecheckerboard="true" />
  <metadata
     id="metadata835">
    <rdf:RDF>
      <cc:Work
         rdf:about="">
        <dc:format>image/svg+xml</dc:format>
        <dc:type
           rdf:resource="http://purl.org/dc/dcmitype/StillImage" />
        <dc:title />
      </cc:Work>
    </rdf:RDF>
  </metadata>
  <g
     inkscape:label="Layer 1"
     inkscape:groupmode="layer"
     id="layer1">
    <circle
       r="2.0081992"
       transform="matrix(-0.99899206,-0.04488734,-0.04488734,0.99899206,0,0)"
       cx="-9.0275221"
       cy="10.589655"
       id="ellipse5342"
       style="fill:#000000;stroke-width:0.207031" />
    <path
       inkscape:connector-curvature="0"
       d="M 5.7554119,13.900862 C 6.0866497,13.580316 6.831965,13.375523 7.6600784,13.375523 h 1.8632655 c 0.8074131,0 1.5527171,0.204787 1.9046661,0.525339 l 1.863266,1.736298 c 0.186331,0.186987 0.02079,0.400684 -0.414059,0.480822 -0.124233,0.02677 -0.227716,0.0356 -0.351949,0.0356 -0.331238,0 -0.62109,-0.08014 -0.766008,-0.213702 l -1.242176,-1.157515 v 1.255476 l 0.973035,3.276711 c 0.08281,0.249306 -0.331237,0.471915 -0.910926,0.498628 -0.04139,0 -0.08281,0 -0.124233,0 -0.5175726,0 -0.9730397,-0.169184 -1.0351449,-0.391779 L 8.6123984,16.696749 7.8049855,19.421405 c -0.062098,0.231504 -0.5175723,0.391779 -1.0351446,0.391779 -0.041424,0 -0.082809,0 -0.1242331,0 -0.5796812,-0.03561 -0.9730394,-0.258221 -0.9109304,-0.498629 l 0.9523351,-3.276711 v -1.255475 l -1.2421757,1.15753 C 5.2377943,16.126886 4.7409376,16.207034 4.326879,16.117971 3.8921199,16.037822 3.705793,15.815232 3.9128204,15.63715 Z"
       id="path5344"
       style="fill:#000000;stroke-width:0.135773" />
    <path
       inkscape:connector-curvature="0"
       d="M 0.49686823,0.1661114 H 2.4429432 c 0.2691402,0 0.4968718,0.22771654 0.4968718,0.49687182 0,0.26914016 -0.2277165,0.49686808 -0.4968718,0.49686808 H 0.99374005 V 2.8367899 H 2.4429432 c 0.2691402,0 0.4968718,0.2277165 0.4968718,0.496868 0,0.2691402 -0.2277165,0.4968718 -0.4968718,0.4968718 H 0.99374005 V 5.5074645 H 2.4429432 c 0.2691402,0 0.4968718,0.2277544 0.4968718,0.4968718 0,0.2691402 -0.2277165,0.4968681 -0.4968718,0.4968681 H 0.99374005 V 8.178143 H 2.4429432 c 0.2691402,0 0.4968718,0.2277165 0.4968718,0.4968718 0,0.2691402 -0.2277165,0.496868 -0.4968718,0.496868 H 0.99374005 V 10.828117 H 2.4429432 c 0.2691402,0 0.4968718,0.227717 0.4968718,0.496868 0,0.26914 -0.2277165,0.496872 -0.4968718,0.496872 H 0.99374005 v 1.676939 H 2.4429432 c 0.2691402,0 0.4968718,0.227716 0.4968718,0.496868 0,0.26914 -0.2277165,0.496871 -0.4968718,0.496871 H 0.99374005 V 16.16947 H 2.4429432 c 0.2691402,0 0.4968718,0.227717 0.4968718,0.496872 0,0.26914 -0.2277165,0.496868 -0.4968718,0.496868 H 0.99374005 v 1.676939 H 2.4429432 c 0.2691402,0 0.4968718,0.227716 0.4968718,0.496868 0,0.26914 -0.2277165,0.496872 -0.4968718,0.496872 H 0.49686823 C 0.22772807,19.833889 1.92998e-7,19.606172 1.92998e-7,19.337017 V 0.66298322 C 1.92998e-7,0.39384306 0.22771673,0.1661114 0.49686823,0.1661114 Z"
       id="path5346"
       style="fill:#000000;stroke-width:0.207029" />
  </g>
</svg>
