<?xml version="1.0" encoding="UTF-8" standalone="no"?>
<svg
   xmlns:dc="http://purl.org/dc/elements/1.1/"
   xmlns:cc="http://creativecommons.org/ns#"
   xmlns:rdf="http://www.w3.org/1999/02/22-rdf-syntax-ns#"
   xmlns:svg="http://www.w3.org/2000/svg"
   xmlns="http://www.w3.org/2000/svg"
   xmlns:sodipodi="http://sodipodi.sourceforge.net/DTD/sodipodi-0.dtd"
   xmlns:inkscape="http://www.inkscape.org/namespaces/inkscape"
   width="20"
   height="20"
   viewBox="0 0 20 20"
   version="1.1"
   id="svg838"
   inkscape:version="1.0.1 (3bc2e813f5, 2020-09-07)"
   sodipodi:docname="height_tall.svg">
  <defs
     id="defs832" />
  <sodipodi:namedview
     id="base"
     pagecolor="#ffffff"
     bordercolor="#666666"
     borderopacity="1.0"
     inkscape:pageopacity="0.0"
     inkscape:pageshadow="2"
     inkscape:zoom="15.839192"
     inkscape:cx="1.2705435"
     inkscape:cy="5.8568162"
     inkscape:document-units="mm"
     inkscape:current-layer="layer1"
     inkscape:document-rotation="0"
     showgrid="false"
     units="px"
     inkscape:window-width="1267"
     inkscape:window-height="1040"
     inkscape:window-x="75"
     inkscape:window-y="0"
     inkscape:window-maximized="0"
     inkscape:pagecheckerboard="true" />
  <metadata
     id="metadata835">
    <rdf:RDF>
      <cc:Work
         rdf:about="">
        <dc:format>image/svg+xml</dc:format>
        <dc:type
           rdf:resource="http://purl.org/dc/dcmitype/StillImage" />
        <dc:title />
      </cc:Work>
    </rdf:RDF>
  </metadata>
  <g
     inkscape:label="Layer 1"
     inkscape:groupmode="layer"
     id="layer1">
    <g
       id="g845"
       transform="translate(0,2.610198)">
      <circle
         transform="matrix(-0.99899206,-0.04488734,-0.04488734,0.99899206,0,0)"
         cx="-8.627492"
         cy="1.6867654"
         id="ellipse5342-0"
         style="fill:#000000;stroke-width:0.207031"
         r="2.0081992" />
      <path
         inkscape:connector-curvature="0"
         d="M 5.7554112,5.810647 C 6.086649,5.203403 6.8319643,4.8154423 7.6600777,4.8154423 h 1.8632656 c 0.8074127,0 1.5527167,0.3879515 1.9046667,0.9952047 l 1.863265,3.2892526 c 0.186331,0.3542295 0.02079,0.7590594 -0.414058,0.9108704 -0.124233,0.05071 -0.227717,0.06746 -0.35195,0.06746 -0.331238,0 -0.62109,-0.1518367 -0.766008,-0.404839 L 10.517083,7.4805947 v 2.3783796 l 0.973036,6.2074167 c 0.08281,0.472285 -0.331238,0.893999 -0.910927,0.944604 -0.04139,0 -0.08281,0 -0.124233,0 -0.5175723,0 -0.9730394,-0.320504 -1.0351446,-0.74219 L 8.6123977,11.107206 7.8049848,16.268805 c -0.062098,0.438564 -0.5175723,0.74219 -1.0351446,0.74219 -0.041424,0 -0.082809,0 -0.124233,0 C 6.0659259,16.943531 5.6725678,16.52182 5.7346768,16.066391 L 6.6870119,9.8589743 V 7.4805947 L 5.4448361,9.6734251 C 5.2377936,10.027655 4.7409369,10.179488 4.3268783,10.010765 3.8921193,9.8589283 3.7057923,9.4372546 3.9128197,9.0998939 Z"
         id="path5344-6"
         style="fill:#000000;stroke-width:0.186874" />
    </g>
    <path
       inkscape:connector-curvature="0"
       d="M 0.49686757,0.26809228 H 2.4429426 c 0.2691401,0 0.4968718,0.22771654 0.4968718,0.49687182 0,0.2691402 -0.2277166,0.496868 -0.4968718,0.496868 H 0.99373939 V 2.9387707 H 2.4429426 c 0.2691401,0 0.4968718,0.2277166 0.4968718,0.4968681 0,0.2691401 -0.2277166,0.4968718 -0.4968718,0.4968718 H 0.99373939 V 5.6094454 H 2.4429426 c 0.2691401,0 0.4968718,0.2277543 0.4968718,0.4968718 0,0.2691402 -0.2277166,0.4968681 -0.4968718,0.4968681 H 0.99373939 V 8.2801239 H 2.4429426 c 0.2691401,0 0.4968718,0.2277165 0.4968718,0.4968718 0,0.2691401 -0.2277166,0.496868 -0.4968718,0.496868 H 0.99373939 V 10.930098 H 2.4429426 c 0.2691401,0 0.4968718,0.227717 0.4968718,0.496868 0,0.26914 -0.2277166,0.496872 -0.4968718,0.496872 H 0.99373939 v 1.676939 H 2.4429426 c 0.2691401,0 0.4968718,0.227716 0.4968718,0.496868 0,0.26914 -0.2277166,0.496871 -0.4968718,0.496871 H 0.99373939 v 1.676935 H 2.4429426 c 0.2691401,0 0.4968718,0.227717 0.4968718,0.496872 0,0.26914 -0.2277166,0.496868 -0.4968718,0.496868 H 0.99373939 V 18.94213 H 2.4429426 c 0.2691401,0 0.4968718,0.227716 0.4968718,0.496868 0,0.26914 -0.2277166,0.496872 -0.4968718,0.496872 H 0.49686757 C 0.22772741,19.93587 -4.678108e-7,19.708153 -4.678108e-7,19.438998 V 0.7649641 C -4.678108e-7,0.49582394 0.22771607,0.26809228 0.49686757,0.26809228 Z"
       id="path5346-3"
       style="fill:#000000;stroke-width:0.207029" />
  </g>
</svg>
