<svg version="1.1" viewBox="0 0 20 20" xmlns="http://www.w3.org/2000/svg">
 <rect x="5.7367e-7" width="20" height="20" fill="#808000"/>
 <path d="m20 20-17.331-2.606-2.6688-17.394 17.52 2.5746z" fill-rule="evenodd"/>
 <g transform="translate(-.031553 -.21143)" fill="#ff0">
  <g stroke-width=".095216">
   <path d="m1.2808 3.6969v13.061h-1.2425v1.2436h19.92v-1.2436h-0.91245v-13.324h0.91245v-1.2436h-18.691c0.31393 0.59653 0.32307 1.0644 0.014282 1.5073zm0.5713-0.26365h2.2942v13.324h-2.2942zm5.731 4.5528v-4.5528h2.2942v4.3217c0.042466 0.019613 0.084171 0.040372 0.12483 0.062843 0.0012 5.758e-4 0.0021 0.00133 0.0031 0.00202-0.022661-0.28317 0.0028-0.5712 0.07836-0.8539 0.07665-0.28727 0.20233-0.5513 0.36496-0.78572v-2.7469h2.2942v1.6708c0.14444 0.012855 0.28822 0.037039 0.42923 0.074649 0.04799 0.012855 0.09522 0.027329 0.14206 0.042752v-1.7882h2.2942v13.324h-2.2942v-2.86e-4c-0.2067-0.04742-0.40085-0.13606-0.57129-0.25937v0.25965h-2.2942v-2.4089l-0.5713 0.62338v1.7856h-2.2942v-0.02085c-0.036563 0.0031-0.07284 0.0067-0.11169 0.0067-0.14168 0-0.29279-0.02228-0.45961-0.05713v0.07141h-2.2942v-13.325h2.2942v5.0421c0.17539-0.19138 0.36706-0.35544 0.5713-0.48922zm10.891 8.7716h-2.2942v-13.324h2.2942z"/>
   <path d="m12.743 10.13v0.30764l0.5713 1.0024v-1.429c-0.1831 0.06084-0.37429 0.10169-0.5713 0.11892z"/>
   <path d="m13.891 13.626c-0.55644 0.10483-1.0862 0.15796-1.5749 0.15796-0.30688 0-0.60024-0.02085-0.87999-0.06218l1.1934 2.0941c0.21957 0.38515 0.62148 0.6011 1.0352 0.6011 0.19976 0 0.40229-0.05037 0.58824-0.15634 0.57111-0.32545 0.7702-1.0523 0.44475-1.6233l-0.61014-1.0706c-0.06265 0.02609-0.12826 0.04647-0.19662 0.05932z"/>
   <path d="m11.438 9.906c-0.3782-0.042276-0.75344 0.098263-1.0103 0.37858l-0.35268 0.38486c0.11064 0.23318 0.27118 0.47056 0.50512 0.66366 0.40952 0.33792 0.9931 0.50931 1.7345 0.50931 0.23556 0 0.49074-0.01933 0.75916-0.05389l-0.73459-1.289c-0.18834-0.3304-0.52331-0.55092-0.90122-0.59348z"/>
   <path d="m6.1322 12.612-0.75535 0.07951c-0.097406 0.41609-0.17948 0.86523-0.25289 1.368-0.1075 1.5581 0.86704 1.9811 1.713 2.1953 0.3623 0.09179 0.64261 0.14578 0.86589 0.07541 0.28146-0.02771 0.55425-0.15396 0.76039-0.37886l0.10636-0.11607-0.34259-0.86666 0.78601 0.38296 1.6555-1.8063c-0.50664-0.16206-0.95616-0.406-1.3445-0.73126-1.4344-1.2011-1.4348-3.0479-1.4342-3.1258 0.00514-0.53054 0.44066-0.96206 0.97101-0.96206 0.54168 0.00524 0.9733 0.44237 0.97139 0.97454 9.5e-5 0.00457 0.010188 0.46475 0.23395 0.94854 0.0099-0.01999 0.0199-0.04037 0.02942-0.0598 0.50836-0.84513 0.45552-2.0332-0.27746-2.4385-0.73316-0.40552-1.9854-0.28279-2.8082 0.94064-0.69946 1.0535-1.1404 1.9059-1.4479 2.9096z"/>
   <path d="m10.447 11.495c-0.80334-0.66318-0.82419-1.7651-0.82457-1.7946 0.0015114-0.41857-0.33526-0.7602-0.75449-0.7643h-0.00743c-0.41724 0-0.75754 0.33621-0.76154 0.75449-6.838e-4 0.073888-0.00173 1.824 1.3591 2.9634 0.48865 0.40924 1.078 0.68165 1.7629 0.8181l0.3065-0.38334 0.24442 0.4618c0.17605 0.01571 0.35706 0.02457 0.54397 0.02457 0.47722 0 0.98977-0.05142 1.5361-0.15434 0.41343-0.07779 0.68546-0.47608 0.60757-0.88951-0.0777-0.41343-0.47579-0.68565-0.88951-0.60757-1.4067 0.2646-2.4576 0.12054-3.1231-0.42866z"/>
  </g>
  <circle transform="rotate(-75.055)" cx="-4.1293" cy="14.063" r="2.1424" stroke-width=".095219"/>
  <rect x=".028528" y="2.1889" width="2.0318" height="1.2232"/>
 </g>
</svg>
