<svg version="1.1" viewBox="0 0 20 20" xmlns="http://www.w3.org/2000/svg">
 <rect x="5.7367e-7" width="20" height="20" fill="#008000"/>
 <path d="m20 20-17.331-2.606-2.6688-17.394 17.52 2.5746z" fill-rule="evenodd"/>
 <g transform="translate(-.54535 -.074867)" fill="#0f0" stroke-width=".23315">
  <circle cx="13.972" cy="1.8458" r="1.6449"/>
  <path d="m15.228 3.9881c-0.18838-0.036604-0.3714 2.332e-4 -0.52668 0.085332l-1.7875-0.59196c-0.43855-0.38959-1.0377-0.70107-1.8435-0.89295-0.19538-0.019351-0.35928 0.031708-0.49567 0.11797l-3.1286-1.0361 0.2441-0.19957-0.33573-0.21286-0.71576 0.28421 0.24597-0.32081-0.15551-0.25273-0.21146-0.031242c-0.0049 0.009792-0.011191 0.018885-0.016087 0.028677l-0.36767 0.017952 0.02891 0.44858c-0.2068-0.18442-0.57797-0.45231-0.76099-0.20377-0.046629 0.063649-0.079503 0.12916-0.099787 0.19375-0.030775 0.099087-0.032407 0.19631-0.010492 0.28141 0.024014 0.090927 0.074374 0.16833 0.14595 0.22032 0.032407 0.023781 0.068545 0.042433 0.10795 0.05479 0.11517 0.036138 0.29936-0.00933 0.45557-0.069245-0.44181 0.72322-1.3233 1.169-1.4712 1.9799-0.31568 1.7362 3.0696 3.275 3.5173 1.2049 0.19351-0.89179 0.10748-2.0212-0.98551-3.0988l-0.010492-0.00326 0.024247-0.020051c0.045464 0.00163 0.089295 0.00699 0.13383 0.010259 0.02145 0.021449 0.046396 0.039635 0.076705 0.049893l0.57401 0.19001c0.01702 0.03404 0.027045 0.067846 0.030775 0.11774 0.00536 0.062017 0.013056 0.128 0.024714 0.19141 0.025879 0.12637 0.067846 0.26136 0.16064 0.3735 0.093259 0.11168 0.22266 0.17556 0.34203 0.21519l0.022382 0.00769c0.00233 4.663e-4 0.010958 0.0042 0.00769 0.00233l0.011424 0.00466 0.042666 0.016787c0.02145 0.011191 0.043832 0.022615 0.06668 0.038469 0.044531 0.030542 0.082767 0.071343 0.11517 0.11844 0.069245 0.093492 0.10189 0.21356 0.14152 0.33154-6.941e-4 -0.12403-0.014217-0.25086-0.065742-0.3735-0.027978-0.060152-0.06738-0.11727-0.11727-0.16553-0.024714-0.024014-0.05479-0.044764-0.086731-0.064582l-0.040568-0.021683-0.010492-0.00536-0.013989-0.00629-0.020284-0.00956c-0.10701-0.052231-0.204-0.10749-0.26415-0.19235-0.062017-0.081601-0.097222-0.18932-0.11797-0.30286-0.011191-0.057354-0.019351-0.11354-0.025879-0.17416-6.995e-4 -0.010958-0.0048961-0.024714-0.0067613-0.036837l2.0263 0.67123-1.7773 1.6861c-0.23851 0.22592-0.31148 0.57611-0.18395 0.8785l1.0203 2.4196c-0.057354 0.97525-0.028444 1.8167 0.13173 2.1634l0.40801 4.7424-0.16763 2.3277c-0.035205 0.05992-0.067846 0.1224-0.093958 0.18908-0.13802 0.34646-0.12497 0.71483 0.00606 1.0338l-0.057121 0.7934c-0.031242 0.43412 0.2954 0.81182 0.73022 0.84306 0.01912 0.0016 0.03824 0.0021 0.05735 0.0021 0.40964 0 0.75586-0.31685 0.78594-0.73232l0.0051-0.07228c0.13219-0.02425 0.25949-0.06738 0.37886-0.128 0.07344 0.25926 0.27441 0.47515 0.55349 0.54929 0.06808 0.01819 0.13616 0.02681 0.20354 0.02681 0.34879 0 0.66727-0.23291 0.76146-0.5859l1.3129-4.9297c0.0352-0.13313 0.0352-0.27325 0-0.40614l-1.0857-4.0672c0.19025-0.4122 0.47562-1.1019 0.67449-1.8974l0.09722 0.17533c0.14059 0.2532 0.40614 0.40638 0.68942 0.40638 0.04103 0 0.08253-0.00326 0.12403-0.00979 0.3278-0.051992 0.58753-0.30379 0.65071-0.62926l0.5458-2.826c0.08207-0.42782-0.19724-0.84143-0.62483-0.92396zm-8.0764-2.0773 0.011424-0.00909c6.995e-4 0.00256 0.00117 0.0049 0.00233 0.00746-0.0049 9.326e-4 -0.00933 0.00117-0.013756 0.00163zm4.6177 15.092c-0.14339-0.17556-0.33177-0.31825-0.55746-0.40847-0.02425-0.0098-0.04896-0.01702-0.07321-0.02495l0.12007-1.6691c0.0033-0.0415 3e-3 -0.08253-7e-4 -0.12403l-0.37-4.2964c0.24714-0.02355 0.4973-0.05922 0.73371-0.10072l0.95684 3.5851zm2.4002-11.695-0.67543-1.2187 0.89528 0.29633c-0.03847 0.070177-0.06971 0.14502-0.08557 0.22778z"/>
 </g>
</svg>
