<svg version="1.1" viewBox="0 0 20 20" xmlns="http://www.w3.org/2000/svg">
 <rect x="5.7367e-7" width="20" height="20" fill="#008000" style="fill:#2c5aa0"/>
 <path d="m20 20-17.331-2.606-2.6688-17.394 17.52 2.5746z" fill-rule="evenodd"/>
 <g transform="matrix(.2 0 0 .2 .084927 .071362)" style="fill:#87aade">
  <circle cx="80.513" cy="30.863" r="7.366" style="fill:#87aade"/>
  <path d="m40.589 75.618c0.023 0 0.042 7e-3 0.065 7e-3h17.747c4.835 0 10.397-2.847 13.226-6.768l13.363-18.518c1.782-2.472 1.225-5.923-1.249-7.706-2.471-1.782-5.922-1.226-7.704 1.247l-4.472 6.194h-15.616v-6.313h-1.491v-2.236l4.374-4.374c0.423-0.423 0.423-1.107 0-1.529-0.422-0.423-1.106-0.423-1.528 0l-5.008 5.008v3.132h-5.037v8.92c-0.19 0.476-0.3 0.99-0.3 1.533 0 2.286 1.852 4.14 4.14 4.14h14.494l-2.919 4.046c-0.736 1.022-3.014 2.186-4.272 2.186h-17.748c-0.944 0-1.818 0.259-2.594 0.675-0.382 0.15-0.752 0.339-1.088 0.608l-21.071 16.897c-1.784 1.43-2.072 4.035-0.64 5.818 0.817 1.021 2.019 1.551 3.231 1.551 0.908 0 1.822-0.298 2.587-0.91l16.96-13.601h2.549v-7e-3z" style="fill:#87aade"/>
  <path d="m7.493 24.027c12.622 0 15.427 9.963 15.427 9.963h4.446s2.808-9.963 15.427-9.963v-0.654c-7.789 0-14.334 1.491-17.65 5.848-3.315-4.356-9.861-5.848-17.65-5.848z" style="fill:#87aade"/>
  <path d="m8.727 16.007h2.518s1.589-5.638 8.729-5.638v-0.369c-4.408 0-8.112 0.844-9.988 3.309-1.876-2.465-5.578-3.309-9.986-3.309v0.369c7.141 0 8.727 5.638 8.727 5.638z" style="fill:#87aade"/>
  <path d="m99.31 59.973c-3.033 0-5.812-1.544-7.435-4.13-0.034-0.054-0.077-0.099-0.115-0.148 4.227-5.791 7.768-10.611 7.839-10.709 0.676-0.921 0.478-2.216-0.443-2.894-0.923-0.676-2.218-0.476-2.894 0.444-0.146 0.196-14.508 19.754-20.03 27.579-5.069 7.18-10.275 10.243-17.409 10.243h-18.488c-1.143 0-2.069 0.927-2.069 2.07s0.927 2.069 2.069 2.069h18.487c8.521 0 14.934-3.699 20.79-11.996 2.223-3.147 5.887-8.21 9.475-13.141 2.478 3.11 6.194 4.937 10.223 4.937 0.232 0 0.46-0.022 0.69-0.033v-4.334c-0.229 0.018-0.458 0.043-0.69 0.043z" style="fill:#87aade"/>
  <path d="m35.013 55.159c-1.012-0.634-2.346-0.328-2.981 0.684-1.622 2.586-4.401 4.13-7.435 4.13-2.938 0-5.667-1.462-7.304-3.91-0.401-0.602-1.075-0.962-1.797-0.962-0.723 0-1.398 0.359-1.8 0.961-1.637 2.448-4.367 3.911-7.303 3.911-2.448 0-4.743-1.026-6.391-2.782v5.432c1.924 1.077 4.112 1.676 6.391 1.676 3.436 0 6.682-1.34 9.101-3.678 2.418 2.338 5.664 3.678 9.103 3.678 4.532 0 8.681-2.302 11.099-6.157 0.635-1.013 0.328-2.348-0.683-2.983z" style="fill:#87aade"/>
 </g>
</svg>
