<?xml version="1.0" encoding="UTF-8" standalone="no"?>
<svg
   xmlns:dc="http://purl.org/dc/elements/1.1/"
   xmlns:cc="http://creativecommons.org/ns#"
   xmlns:rdf="http://www.w3.org/1999/02/22-rdf-syntax-ns#"
   xmlns:svg="http://www.w3.org/2000/svg"
   xmlns="http://www.w3.org/2000/svg"
   xmlns:sodipodi="http://sodipodi.sourceforge.net/DTD/sodipodi-0.dtd"
   xmlns:inkscape="http://www.inkscape.org/namespaces/inkscape"
   width="20"
   height="20"
   viewBox="0 0 20 20"
   version="1.1"
   id="svg838"
   inkscape:version="1.0.1 (3bc2e813f5, 2020-09-07)"
   sodipodi:docname="join_junior.svg">
  <style
     id="style835"></style>
  <defs
     id="defs832" />
  <sodipodi:namedview
     id="base"
     pagecolor="#ffffff"
     bordercolor="#666666"
     borderopacity="1.0"
     inkscape:pageopacity="0.0"
     inkscape:pageshadow="2"
     inkscape:zoom="15.839192"
     inkscape:cx="16.53905"
     inkscape:cy="-2.7881629"
     inkscape:document-units="mm"
     inkscape:current-layer="layer1"
     inkscape:document-rotation="0"
     showgrid="false"
     units="px"
     inkscape:window-width="1277"
     inkscape:window-height="1000"
     inkscape:window-x="647"
     inkscape:window-y="56"
     inkscape:window-maximized="0"
     inkscape:pagecheckerboard="true" />
  <metadata
     id="metadata835">
    <rdf:RDF>
      <cc:Work
         rdf:about="">
        <dc:format>image/svg+xml</dc:format>
        <dc:type
           rdf:resource="http://purl.org/dc/dcmitype/StillImage" />
        <dc:title />
      </cc:Work>
    </rdf:RDF>
  </metadata>
  <g
     inkscape:label="Layer 1"
     inkscape:groupmode="layer"
     id="layer1">
    <rect
       style="fill:#550000;fill-opacity:1;stroke:none;stroke-width:2;stroke-miterlimit:4;stroke-dasharray:none;stroke-opacity:1"
       id="rect1494-09"
       width="20.108349"
       height="20.108349"
       x="-0.054174375"
       y="-0.054174125" />
    <path
       style="fill:#008066;fill-opacity:1;fill-rule:evenodd;stroke:none;stroke-width:0.999999px;stroke-linecap:butt;stroke-linejoin:miter;stroke-opacity:1"
       d="M 20.054175,20.054171 2.6290449,17.434093 -0.05417402,-0.05417337 17.560363,2.5343419 Z"
       id="path1496-36"
       inkscape:connector-curvature="0"
       inkscape:export-xdpi="119.35343"
       inkscape:export-ydpi="119.35343" />
    <g
       id="g4792"
       transform="matrix(0.36523065,0,0,0.36523065,1.0119274,2.6335393)"
       style="fill:#66ff00;stroke:#66ff00;stroke-opacity:1">
      <path
         inkscape:connector-curvature="0"
         d="m 46.3,45.6 c 0.3,-1.7 -1.7,-3.4 -4.3,-3 -0.3,-1.6 -2.6,-2.7 -4.9,-2 -1.3,-1.6 -4.3,-1.7 -5.9,-0.1 -1.4,-1.4 -4.3,-1.4 -5.7,0 -1.4,-1.4 -4.3,-1.4 -5.7,0 -1.7,-1.7 -5.3,-1.3 -6.1,0.7 -2.1,-1.4 -5.4,-0.6 -5.9,1.6 -2.7,-0.4 -4.7,1.3 -4.3,3 -1,0.7 -1.4,1.4 -1.4,2.3 H 47.8 C 47.9,47 47.3,46.3 46.3,45.6 Z"
         id="path4788"
         style="fill:#66ff00;stroke:#66ff00;stroke-opacity:1" />
      <path
         inkscape:connector-curvature="0"
         d="m 7.6,10.7 c 0,0.3 -4.3,7.7 3.9,10.7 1.9,3.7 5,6.1 9.6,7.3 0.4,0.1 0.9,0.1 1.4,0.3 -0.6,2.4 -1.1,4.7 -0.9,7.4 0.1,0 2.6,0 2.9,0 -0.1,-1 -0.1,-1.9 0,-3 0.7,-0.1 1.4,-0.3 2,-0.4 5,-1.3 8.4,-4.1 10.1,-8.6 1.6,-0.4 3.9,-1.6 4.9,-3.4 1.7,-3.1 -0.4,-7.6 -0.4,-7.6 -0.1,0.1 -9.6,0.9 -7,9.7 -1.4,3.9 -4.4,6.1 -9,7.1 0.3,-0.9 0.4,-1.7 0.7,-2.7 1.3,-4.7 2.9,-10.1 -0.4,-17 0,-10.7 -9.9,-8.3 -10.1,-8.4 0.1,0.3 -1.9,9.9 7.9,10.1 2.4,5.4 1.4,9.6 0.3,13.9 -4.1,-0.7 -7,-2.6 -8.7,-5.3 C 17.6,11.6 7.7,11 7.6,10.7 Z"
         id="path4790"
         style="fill:#66ff00;stroke:#66ff00;stroke-opacity:1" />
    </g>
  </g>
</svg>
