<?xml version="1.0" encoding="UTF-8" standalone="no"?>
<svg
   xmlns:dc="http://purl.org/dc/elements/1.1/"
   xmlns:cc="http://creativecommons.org/ns#"
   xmlns:rdf="http://www.w3.org/1999/02/22-rdf-syntax-ns#"
   xmlns:svg="http://www.w3.org/2000/svg"
   xmlns="http://www.w3.org/2000/svg"
   xmlns:sodipodi="http://sodipodi.sourceforge.net/DTD/sodipodi-0.dtd"
   xmlns:inkscape="http://www.inkscape.org/namespaces/inkscape"
   width="20"
   height="20"
   viewBox="0 0 20 20"
   version="1.1"
   id="svg838"
   inkscape:version="1.0.1 (3bc2e813f5, 2020-09-07)"
   sodipodi:docname="legs_demon.svg">
  <defs
     id="defs832" />
  <sodipodi:namedview
     id="base"
     pagecolor="#ffffff"
     bordercolor="#666666"
     borderopacity="1.0"
     inkscape:pageopacity="0.0"
     inkscape:pageshadow="2"
     inkscape:zoom="15.839192"
     inkscape:cx="10.445947"
     inkscape:cy="4.6692627"
     inkscape:document-units="mm"
     inkscape:current-layer="g4631"
     inkscape:document-rotation="0"
     showgrid="false"
     units="px"
     inkscape:window-width="1294"
     inkscape:window-height="1040"
     inkscape:window-x="52"
     inkscape:window-y="0"
     inkscape:window-maximized="0"
     inkscape:pagecheckerboard="true" />
  <metadata
     id="metadata835">
    <rdf:RDF>
      <cc:Work
         rdf:about="">
        <dc:format>image/svg+xml</dc:format>
        <dc:type
           rdf:resource="http://purl.org/dc/dcmitype/StillImage" />
        <dc:title />
      </cc:Work>
    </rdf:RDF>
  </metadata>
  <g
     inkscape:label="Layer 1"
     inkscape:groupmode="layer"
     id="layer1">
    <g
       style="fill:#9c4dcc;fill-opacity:1"
       id="g4631"
       transform="matrix(0.5304252,0,0,0.5304252,-17.761539,-35.435103)">
      <path
         style="fill:#9c4dcc;fill-opacity:1;stroke-width:1.04898"
         inkscape:connector-curvature="0"
         d="m 48.805535,55.866495 c -0.209797,1.153882 -2.622458,5.03512 -3.986137,6.398799 -1.993068,0.944085 -4.091035,10.384935 3.461645,15.315157 0,0 1.678374,1.468576 0.944085,2.412661 -0.734288,0.944085 -3.77634,9.545749 -5.454713,10.69963 -1.678373,1.153882 -3.356747,2.412662 -2.832255,3.986137 l 1.678373,-0.944085 -0.524491,1.88817 c 0,0 4.300831,0.524492 5.979205,-1.88817 0,0 1.153881,-6.713493 5.03512,-13.112292 0,0 2.097966,-3.14695 1.363678,-4.300831 -0.734288,-1.153882 -2.412662,-1.258781 -2.097967,-4.300832 0.209797,-1.468577 2.202865,-5.244917 2.202865,-5.244917 0,0 -1.246774,-2.888767 -0.722283,-5.511225 0,0 -5.562997,12.378003 4.717039,13.741682 0,0 3.986137,1.88817 3.14695,5.979205 -0.734288,4.091035 -4.930221,13.112292 -4.930221,13.112292 0,0 -2.832255,2.202865 -3.14695,3.14695 l 0.524491,0.944085 1.88817,-1.153882 -0.524491,2.097967 c 0,0 2.097966,0.944084 5.244916,-0.104898 0.839187,-0.314695 1.25878,-1.153882 0.944085,-1.88817 -0.314695,-0.839187 -0.62939,-1.993069 -0.419593,-3.042052 0.419593,-1.88817 1.153882,-6.398799 5.244917,-15.210259 0,0 2.202865,-3.042051 0.524492,-4.720425 C 66.956636,64.059619 51.7647,46.201173 48.805535,55.866495 Z"
         id="path4619"
         sodipodi:nodetypes="cccsscccccscccccccccccccccc" />
      <path
         style="fill:#9c4dcc;fill-opacity:1"
         inkscape:connector-curvature="0"
         d="m 44.1,16.1 c 0,0.8 0.7,2.2 1.7,2.7 v 0 0 l -0.3,-3 c 0,0 0,-0.5 -0.3,-1 -0.3,-0.5 -1.1,-1 -1.6,-1.7 -0.5,-0.7 -0.6,-0.2 -0.6,-0.2 0,0 -0.3,0.3 0.1,0.8 0.2,0.6 1,1.7 1,2.4 z"
         id="path4623" />
      <path
         style="fill:#9c4dcc;fill-opacity:1"
         inkscape:connector-curvature="0"
         d="m 46.1,9.7 c 0,0 0.6,-1.1 1.7,-1.9 l 0.4,-0.3 c 0,0 -2.2,-0.1 -3,-1.4 -0.7,-1.3 0,-3.9 -0.1,-4.2 -0.1,-0.3 -2.2,1.9 -1.7,4.5 0.4,2.1 2.1,3.4 2.7,3.3 z"
         id="path4625" />
      <path
         style="fill:#9c4dcc;fill-opacity:1"
         inkscape:connector-curvature="0"
         d="m 38.2,21.3 v 0 c -1,5.3 2,6.4 2,6.4 0.5,-0.9 1.4,-1.3 1.4,-1.3 -2.1,-0.6 -2.7,-2.8 -2.8,-4.8 0.4,-0.2 1.2,-0.5 2,-0.2 0,0 -1.7,-2.8 -0.8,-6.5 0,0 -3.7,4.4 -3.6,5.9 0.1,0 1.5,-0.5 1.8,0.5 z"
         id="path4629" />
    </g>
  </g>
</svg>
