<?xml version="1.0" encoding="UTF-8" standalone="no"?>
<svg
   xmlns:dc="http://purl.org/dc/elements/1.1/"
   xmlns:cc="http://creativecommons.org/ns#"
   xmlns:rdf="http://www.w3.org/1999/02/22-rdf-syntax-ns#"
   xmlns:svg="http://www.w3.org/2000/svg"
   xmlns="http://www.w3.org/2000/svg"
   xmlns:sodipodi="http://sodipodi.sourceforge.net/DTD/sodipodi-0.dtd"
   xmlns:inkscape="http://www.inkscape.org/namespaces/inkscape"
   width="20"
   height="20"
   viewBox="0 0 20 20"
   version="1.1"
   id="svg838"
   inkscape:version="1.0.1 (3bc2e813f5, 2020-09-07)"
   sodipodi:docname="legs_neko.svg">
  <defs
     id="defs832" />
  <sodipodi:namedview
     id="base"
     pagecolor="#ffffff"
     bordercolor="#666666"
     borderopacity="1.0"
     inkscape:pageopacity="0.0"
     inkscape:pageshadow="2"
     inkscape:zoom="11.2"
     inkscape:cx="5.676794"
     inkscape:cy="-3.9687842"
     inkscape:document-units="mm"
     inkscape:current-layer="g886"
     inkscape:document-rotation="0"
     showgrid="false"
     units="px"
     inkscape:window-width="1267"
     inkscape:window-height="1040"
     inkscape:window-x="52"
     inkscape:window-y="0"
     inkscape:window-maximized="0"
     inkscape:pagecheckerboard="true" />
  <metadata
     id="metadata835">
    <rdf:RDF>
      <cc:Work
         rdf:about="">
        <dc:format>image/svg+xml</dc:format>
        <dc:type
           rdf:resource="http://purl.org/dc/dcmitype/StillImage" />
        <dc:title />
      </cc:Work>
    </rdf:RDF>
  </metadata>
  <g
     inkscape:label="Layer 1"
     inkscape:groupmode="layer"
     id="layer1">
    <g
       id="g886"
       style="fill:#ef6c00;fill-opacity:1"
       transform="matrix(0.57763146,0.15477589,-0.15477589,0.57763146,-28.685518,-42.652787)">
      <path
         style="fill:#502d16;fill-opacity:1"
         d="m 97.113,76.28 c -0.11,-0.193 -0.196,-0.347 -0.078,-0.567 0.338,-0.636 0.139,-1.085 -0.162,-1.769 -0.104,-0.235 -0.223,-0.503 -0.335,-0.816 l -0.046,-0.13 C 96.208,72.202 96.208,72.202 95.754,71.487 95.612,71.265 95.42,70.962 95.161,70.545 94.613,69.66 94.216,68.62 93.83,67.615 93.437,66.59 93.067,65.621 92.585,64.964 c -0.58,-0.789 -0.88,-1.648 -1.1,-2.275 -0.14,-0.399 -0.241,-0.687 -0.362,-0.817 -0.286,-0.306 -0.606,-0.346 -0.855,-0.346 -0.055,0 -0.107,0.002 -0.157,0.004 -0.043,0.002 -0.084,0.004 -0.123,0.004 -0.138,0 -0.201,-0.022 -0.231,-0.082 -0.169,-0.332 -0.583,-1.417 -1.154,-2.919 -1.908,-5.019 -5.463,-14.358 -7.611,-15.891 -1.046,-0.744 -3.085,-2.907 -3.259,-4.387 -0.164,-1.402 5.645,-10.324 7.4,-11.363 0.834,-0.495 1.493,-0.886 3.763,-0.886 0.804,0 1.774,0.049 2.965,0.15 0.181,0.016 0.357,0.023 0.526,0.023 1.095,0 1.733,-0.313 1.88,-0.622 0.076,-0.162 0.079,-0.303 0.007,-0.417 -0.239,-0.38 -1.276,-0.385 -2.19,-0.389 -0.48,-0.002 -0.935,-0.004 -1.196,-0.061 -1.263,-0.275 -2.433,-0.415 -3.476,-0.415 -1.15,0 -2.142,0.172 -2.944,0.511 -3.574,1.508 -8.273,7.819 -10.28,10.516 -0.51,0.685 -0.879,1.181 -0.97,1.246 -0.053,0.037 -0.15,0.058 -0.286,0.058 -0.229,0 -0.538,-0.05 -0.896,-0.108 -0.445,-0.071 -0.948,-0.152 -1.408,-0.152 -0.343,0 -0.618,0.045 -0.84,0.137 -0.007,0.004 -0.02,0.006 -0.043,0.006 -0.199,0 -0.751,-0.234 -1.584,-0.591 C 65.841,34.909 61.012,32.85 54.026,31.736 50.813,31.223 47.975,29.257 46.097,27.956 45.086,27.257 44.356,26.751 43.9,26.673 42.749,26.477 41.398,25.59 40.313,24.878 39.709,24.482 39.188,24.14 38.844,24.015 38.6,23.926 38.272,23.751 37.855,23.531 c -1.214,-0.646 -3.049,-1.619 -5.573,-2.019 -2.221,-0.351 -3.509,-0.48 -4.752,-0.48 -0.484,0 -0.97,0.02 -1.576,0.063 -0.365,0.026 -0.792,0.045 -1.243,0.064 -1.484,0.063 -3.167,0.135 -3.905,0.527 -0.052,0.027 -0.122,0.043 -0.209,0.043 -0.848,0 -3.042,-1.338 -3.532,-2.039 -0.335,-0.48 -0.816,-0.767 -1.287,-0.767 -0.339,0 -0.643,0.155 -0.857,0.438 -0.465,0.614 -0.493,1.766 -0.08,3.242 -0.209,0.209 -0.385,0.407 -0.541,0.582 -0.34,0.381 -0.587,0.657 -0.885,0.743 -0.246,0.07 -0.488,0.106 -0.719,0.106 -0.885,0 -1.51,-0.521 -1.966,-0.902 -0.099,-0.082 -0.193,-0.161 -0.281,-0.227 -0.037,-0.028 -0.072,-0.041 -0.106,-0.041 -0.029,0 -0.071,0.011 -0.106,0.06 -0.12,0.167 -0.087,0.67 0.074,1.146 0.126,0.375 0.328,0.764 0.506,1.106 0.188,0.361 0.35,0.672 0.383,0.88 0.071,0.443 -0.444,1.028 -0.942,1.594 -0.408,0.46 -0.828,0.938 -0.958,1.363 -0.121,0.397 -0.032,0.854 0.055,1.296 0.069,0.352 0.134,0.685 0.081,0.945 -0.088,0.432 -0.387,1.157 -0.703,1.926 -0.541,1.313 -1.152,2.801 -0.925,3.334 0.365,0.857 0.87,0.966 1.141,1.024 0.084,0.019 0.156,0.033 0.173,0.062 0.007,0.011 0.007,0.03 0,0.056 -0.073,0.268 0.098,0.766 0.397,1.157 0.229,0.301 0.737,0.805 1.552,0.805 0.163,0 0.297,0.185 0.467,0.417 0.323,0.443 0.768,1.053 1.824,1.025 1.065,-0.026 1.716,-0.754 2.24,-1.337 0.333,-0.372 0.622,-0.693 0.914,-0.693 0.258,0 0.521,0.03 0.775,0.061 0.248,0.027 0.503,0.058 0.747,0.058 0.284,0 0.514,-0.038 0.724,-0.122 0.317,-0.124 0.422,-0.402 0.523,-0.672 0.075,-0.2 0.147,-0.391 0.301,-0.505 0.269,0.612 0.329,1.553 -0.014,1.969 -0.255,0.309 -1.78,0.524 -2.895,0.682 -0.236,0.033 -0.458,0.064 -0.651,0.094 -0.922,0.143 -3.857,1.202 -4.419,1.444 -0.163,0.068 -0.466,0.159 -0.819,0.263 -0.977,0.288 -2.316,0.685 -2.636,1.196 -0.111,0.177 -0.343,0.263 -0.708,0.263 -0.329,0 -0.716,-0.067 -1.092,-0.133 -0.347,-0.06 -0.674,-0.117 -0.931,-0.117 -0.101,0 -0.184,0.009 -0.254,0.026 -0.388,0.098 -0.493,0.281 -0.569,0.417 -0.063,0.111 -0.105,0.186 -0.277,0.186 -0.485,0 -0.793,0.262 -0.92,0.507 -0.169,0.325 -0.153,0.587 -0.136,0.866 0.012,0.204 0.025,0.416 -0.038,0.669 -0.035,0.142 -0.104,0.327 -0.185,0.542 -0.256,0.68 -0.606,1.611 -0.086,1.91 0.355,0.205 0.623,0.48 0.859,0.724 0.377,0.389 0.7,0.722 1.239,0.668 0.089,-0.009 0.177,-0.014 0.261,-0.014 0.524,0 0.847,0.169 1.133,0.318 0.203,0.104 0.378,0.196 0.58,0.196 0.074,0 0.147,-0.012 0.222,-0.037 0.355,-0.118 0.616,-0.254 0.825,-0.362 0.252,-0.131 0.435,-0.226 0.642,-0.226 0.131,0 0.267,0.037 0.427,0.119 0.209,0.107 0.396,0.308 0.594,0.521 0.323,0.344 0.689,0.735 1.276,0.896 0.141,0.037 0.285,0.057 0.44,0.057 0.348,0 0.693,-0.097 1.026,-0.189 0.322,-0.089 0.655,-0.183 0.98,-0.183 0.111,0 0.214,0.011 0.316,0.033 0.129,0.026 0.244,0.039 0.349,0.039 0.279,0 0.448,-0.094 0.626,-0.192 0.217,-0.12 0.441,-0.246 0.907,-0.246 0.102,0 0.211,0.006 0.328,0.019 0.224,0.026 0.755,-0.457 1.317,-0.971 0.511,-0.466 1.039,-0.949 1.279,-0.988 0.012,-0.002 0.028,-0.004 0.048,-0.004 0.351,0 1.762,0.257 3.397,0.553 2.288,0.414 4.895,0.886 5.579,0.837 0.703,-0.049 1.628,-1.134 2.444,-2.09 0.594,-0.696 1.156,-1.355 1.493,-1.442 0.344,-0.088 2.073,-0.229 3.473,-0.229 0.823,0 1.395,0.05 1.651,0.143 0.36,0.13 1.877,0.794 3.797,1.635 3.872,1.696 9.174,4.018 10.281,4.288 0.975,0.238 2.191,0.353 3.718,0.353 1.402,0 2.877,-0.095 4.302,-0.187 1.323,-0.085 2.572,-0.165 3.677,-0.165 1.113,0 1.947,0.086 2.548,0.263 3.928,1.157 7.049,5.891 9.329,9.346 0.532,0.809 1.036,1.571 1.479,2.179 0.515,0.705 1.166,1.311 1.795,1.898 0.809,0.753 1.646,1.533 2.221,2.54 1.208,2.113 2.574,4.759 2.411,6.462 -0.024,0.264 -0.052,0.522 -0.077,0.773 -0.156,1.509 -0.28,2.699 0.141,3.046 0.114,0.095 0.229,0.124 0.339,0.151 0.175,0.044 0.341,0.084 0.506,0.404 0.058,0.109 0.105,0.229 0.15,0.344 0.121,0.303 0.234,0.588 0.502,0.655 0.061,0.014 0.116,0.027 0.173,0.04 0.263,0.059 0.511,0.114 1.002,0.396 0.092,0.052 0.188,0.078 0.287,0.078 0.451,0 0.882,-0.546 1.228,-0.983 0.065,-0.082 0.128,-0.161 0.186,-0.231 0.238,-0.286 0.225,-0.602 0.212,-0.857 -0.011,-0.224 -0.019,-0.401 0.125,-0.508 0.167,-0.127 0.228,-0.4 0.25,-0.608 0.042,-0.408 -0.033,-0.868 -0.171,-1.025 -0.396,-0.452 -0.619,-1.014 -0.783,-1.423 -0.078,-0.197 -0.146,-0.367 -0.214,-0.48 -0.579,-0.951 -0.75,-2.475 -0.877,-3.586 -0.088,-0.777 -0.139,-1.185 -0.267,-1.271 -0.375,-0.255 -0.969,-2.403 -1.359,-3.825 -0.283,-1.023 -0.435,-1.56 -0.517,-1.633 -0.116,-0.102 -0.263,-0.2 -0.43,-0.315 -0.33,-0.226 -0.727,-0.498 -1.078,-0.92 C 81.548,63.407 81.54,63.397 81.532,63.39 81.527,63.383 81.52,63.379 81.515,63.374 81.236,63.026 80.991,62.581 80.833,61.982 L 80.722,61.55 c -0.367,-1.399 -0.822,-3.137 -0.948,-4.342 0.969,0.553 6.314,7.104 6.904,7.983 0.19,0.284 0.446,0.475 0.77,0.715 0.761,0.566 1.909,1.421 3.262,4.479 0.487,1.099 0.797,2.607 1.07,3.938 0.308,1.492 0.573,2.78 1.009,3.215 0.394,0.393 0.681,0.438 0.91,0.475 0.146,0.024 0.26,0.043 0.365,0.145 0.583,0.56 0.875,0.828 1.157,0.828 0.11,0 0.218,-0.045 0.328,-0.137 0.154,-0.129 0.338,-0.228 0.531,-0.33 0.423,-0.227 0.901,-0.483 1.144,-1.15 0.197,-0.545 0.026,-0.847 -0.111,-1.089 z"
         id="path2" />
      <path
         style="fill:#c87137;fill-opacity:1"
         d="m 88.602,65.891 c 0.202,-0.033 0.412,-0.067 0.585,-0.067 v 0 c 0.601,0 0.807,-0.563 0.945,-1.473 0.111,-0.736 0.031,-1.43 -0.246,-2.119 -0.023,-0.059 -0.05,-0.106 -0.076,-0.143 0.125,-0.039 0.267,-0.084 0.423,-0.084 0.079,0 0.152,0.011 0.228,0.033 0.371,0.109 0.498,0.534 0.689,1.179 0.211,0.711 0.501,1.684 1.28,2.8 0.236,0.341 0.466,0.793 0.704,1.321 -0.013,-0.028 -0.039,-0.046 -0.072,-0.046 -0.13,0 -0.438,0.268 -0.896,0.678 -0.183,0.163 -0.356,0.316 -0.45,0.384 -0.181,0.126 -0.478,0.489 -0.641,0.897 -0.086,-0.226 -0.168,-0.412 -0.247,-0.546 -0.541,-0.906 -1.533,-1.975 -2.377,-2.79 0.05,-0.009 0.101,-0.017 0.151,-0.024 z"
         id="path881" />
      <path
         style="fill:#c87137;fill-opacity:1"
         d="m 85.854,63.037 0.117,-0.016 c 0.434,-0.06 1.09,-0.149 1.649,-0.47 0.632,-0.36 1.122,-1.099 1.19,-1.795 0.001,-0.004 0.001,-0.008 0.001,-0.011 0.123,0.345 0.247,0.695 0.375,1.054 0.061,0.173 0.125,0.264 0.188,0.31 -0.104,0.159 -0.175,0.472 -0.029,0.844 0.312,0.803 0.266,1.305 -0.199,2.151 -0.116,0.214 -0.483,0.208 -0.821,0.203 -0.054,-0.001 -0.107,-0.002 -0.158,-0.002 -0.099,0 -0.227,0 -0.338,0.025 -0.157,-0.142 -0.299,-0.266 -0.421,-0.369 -0.481,-0.409 -0.93,-1.041 -1.404,-1.709 -0.051,-0.071 -0.103,-0.145 -0.153,-0.216 0.001,10e-4 0.002,10e-4 0.003,10e-4 z"
         id="path879" />
      <path
         style="fill:#c87137;fill-opacity:1"
         d="m 84.213,60.447 c 0.094,-0.118 0.199,-0.253 0.323,-0.401 l 0.057,-0.067 c 0.537,-0.641 0.537,-0.641 0.771,-1.275 l 0.041,-0.113 c 0.237,-0.638 0.288,-0.695 0.682,-1.15 0.075,-0.087 0.162,-0.188 0.265,-0.31 l 0.155,-0.184 c 0.157,-0.188 0.205,-0.244 0.228,-0.244 v 0 h 0.008 c 0.058,0 0.148,-0.02 0.395,-0.172 0.042,-0.025 0.078,-0.051 0.111,-0.076 0.315,0.843 0.645,1.737 0.988,2.69 -0.022,0.045 -0.034,0.096 -0.04,0.121 -0.045,0.196 -0.048,0.325 -0.05,0.437 -0.006,0.256 -0.008,0.409 -0.582,1.111 -0.903,1.108 -1.672,1.274 -2.049,1.274 -0.109,0 -0.214,-0.014 -0.313,-0.04 -0.042,-0.012 -0.08,-0.015 -0.113,-0.015 -0.077,-0.093 -0.155,-0.185 -0.234,-0.272 L 84.79,61.688 c -0.211,-0.233 -0.5,-0.552 -0.837,-0.922 0.071,-0.079 0.155,-0.185 0.26,-0.319 z"
         id="path877" />
      <path
         style="fill:#c87137;fill-opacity:1"
         d="M 86.742,56.659 Z"
         id="path875" />
      <path
         style="fill:#c87137;fill-opacity:1"
         d="m 82.882,26.214 c 0.849,0.048 1.392,0.851 1.397,0.859 l 0.014,0.013 c 0.003,0.002 0.015,0.008 0.032,0.014 -0.38,0.395 -0.813,0.881 -1.276,1.436 -0.002,-0.009 -0.004,-0.016 -0.006,-0.023 -0.264,-0.805 -0.743,-1.337 -1.17,-1.296 -0.085,0.008 -0.223,0.06 -0.38,0.139 0.478,-0.429 0.941,-0.81 1.389,-1.142 z"
         id="path873" />
      <path
         style="fill:#c87137;fill-opacity:1"
         d="m 74.643,35.438 c 0.069,0.027 0.151,0.045 0.255,0.045 0.33,0 0.785,-0.148 1.09,-0.295 0.287,-0.138 0.729,-0.22 1.179,-0.22 0.308,0 0.759,0.038 1.165,0.221 0.013,0.006 0.025,0.011 0.038,0.017 -0.135,0.236 -0.262,0.469 -0.38,0.694 -0.022,-0.005 -0.047,-0.008 -0.074,-0.005 -0.072,0.007 -0.182,0.011 -0.339,0.011 -0.153,0 -0.335,-0.004 -0.538,-0.007 -0.248,-0.004 -0.528,-0.01 -0.817,-0.01 -0.639,0 -1.479,0.023 -2.028,0.189 0.128,-0.184 0.28,-0.4 0.449,-0.64 z"
         id="path871" />
      <path
         style="fill:#c87137;fill-opacity:1"
         d="m 76.973,32.306 c 0.047,-0.005 0.113,-0.037 0.238,-0.098 0.276,-0.135 0.74,-0.361 1.277,-0.361 0.313,0 0.61,0.078 0.886,0.231 0.226,0.127 0.394,0.257 0.528,0.363 0.052,0.039 0.096,0.073 0.137,0.103 -0.342,0.505 -0.68,1.02 -0.995,1.527 -0.131,-0.143 -0.307,-0.279 -0.482,-0.378 -0.155,-0.088 -0.442,-0.137 -0.79,-0.137 -0.816,0 -1.968,0.272 -2.529,1.043 0,0 -10e-4,0.001 -0.002,0.002 0.49,-0.676 1.075,-1.464 1.732,-2.295 z"
         id="path869" />
      <path
         style="fill:#c87137;fill-opacity:1"
         d="m 78.678,30.246 c 0.064,-0.074 0.128,-0.146 0.193,-0.22 0.005,0 0.008,-0.001 0.011,-0.001 0.697,0 1.904,0.653 2.045,0.783 0.037,0.033 0.123,0.108 0.221,0.168 -0.165,0.224 -0.329,0.451 -0.495,0.684 -0.029,0.043 -0.061,0.086 -0.091,0.129 0.014,-0.198 -0.089,-0.377 -0.529,-0.586 -0.345,-0.163 -0.808,-0.258 -1.27,-0.258 -0.303,0 -0.57,0.041 -0.779,0.113 0.226,-0.269 0.456,-0.54 0.694,-0.812 z"
         id="path867" />
      <path
         style="fill:#c87137;fill-opacity:1"
         d="m 80.382,28.412 c 0.015,0.012 0.033,0.021 0.058,0.03 0.078,0.026 0.162,0.04 0.251,0.04 v 0 c 0.314,0 0.598,-0.165 0.666,-0.207 0.43,0.078 1.099,0.489 1.265,0.7 0.012,0.014 0.024,0.023 0.039,0.033 -0.371,0.458 -0.756,0.952 -1.147,1.474 -0.206,-1.019 -0.66,-1.126 -1.659,-1.126 h -0.119 c -0.108,10e-4 -0.21,0.02 -0.303,0.048 0.321,-0.348 0.637,-0.68 0.949,-0.992 z"
         id="path865" />
      <path
         style="fill:#c87137;fill-opacity:1"
         d="m 84.946,24.98 c 0.01,0.02 0.03,0.038 0.074,0.051 0.703,0.197 0.791,0.581 0.844,0.811 0.008,0.035 0.017,0.068 0.026,0.099 -0.092,0.027 -0.182,0.056 -0.266,0.086 -0.186,0.066 -0.458,0.268 -0.794,0.577 0.001,-0.005 0.002,-0.009 0.004,-0.013 0.063,-0.244 0.047,-0.442 -0.052,-0.606 -0.167,-0.274 -0.54,-0.392 -0.848,-0.464 -0.006,-0.002 -0.013,-0.002 -0.019,-0.003 0.356,-0.212 0.698,-0.392 1.031,-0.538 z"
         id="path863" />
      <path
         style="fill:#c87137;fill-opacity:1"
         d="m 87.44,24.617 c 0.098,0.454 0.353,0.815 0.619,1.009 -0.399,0.02 -0.767,0.052 -1.103,0.098 0.048,-0.089 0.069,-0.204 0.053,-0.354 -0.048,-0.422 -0.317,-0.683 -0.766,-0.751 0.295,-0.036 0.618,-0.057 0.974,-0.057 0.072,0 0.147,0 0.221,0.002 0,0.018 0,0.035 0.002,0.053 z"
         id="path861" />
      <path
         style="fill:#c87137;fill-opacity:1"
         d="m 88.907,25.363 c 0.072,-0.212 0.065,-0.501 -0.152,-0.71 0.359,0.039 0.704,0.086 1.017,0.131 0.015,0.033 0.042,0.071 0.077,0.118 0.109,0.151 0.275,0.381 0.217,0.676 -0.003,0.017 -0.004,0.032 -0.004,0.05 -0.332,-0.016 -0.688,-0.024 -1.06,-0.024 -0.077,0 -0.153,0.001 -0.229,0.002 0.056,-0.067 0.102,-0.15 0.134,-0.243 z"
         id="path859" />
      <path
         style="fill:#c87137;fill-opacity:1"
         d="m 92.749,25.386 c 0.012,0.029 0.024,0.057 0.034,0.083 0.06,0.144 0.1,0.238 0.054,0.307 -0.032,0.049 -0.099,0.07 -0.223,0.07 -0.098,0 -0.239,-0.013 -0.459,-0.042 -0.185,-0.024 -0.617,-0.076 -1.198,-0.121 0.004,-0.011 0.009,-0.02 0.014,-0.03 0.091,-0.235 0.095,-0.423 0.01,-0.572 -0.026,-0.047 -0.063,-0.09 -0.107,-0.129 0.109,0.015 0.2,0.024 0.269,0.029 0.178,0.012 0.335,0.02 0.477,0.025 0.704,0.035 0.997,0.049 1.129,0.38 z"
         id="path857" />
      <path
         style="fill:#c87137;fill-opacity:1"
         d="m 79.157,60.806 c -0.122,0.087 -0.857,0.353 -1.521,0.353 -0.083,0 -0.161,-0.005 -0.237,-0.012 -0.097,-0.012 -0.226,-0.018 -0.391,-0.018 -0.222,0 -0.478,0.01 -0.749,0.02 -0.291,0.011 -0.592,0.021 -0.867,0.021 -0.188,0 -0.743,0 -0.945,-0.115 -0.426,-0.623 -0.86,-1.254 -1.337,-1.92 0.067,-0.085 0.15,-0.164 0.252,-0.216 0.034,-0.017 0.081,-0.026 0.142,-0.026 0.308,0 0.888,0.225 1.504,0.46 0.729,0.281 1.557,0.599 2.086,0.599 v 0 c 0.084,0 0.158,-0.008 0.224,-0.022 0.58,-0.137 0.855,-0.208 1.107,-0.341 0.315,0.34 0.625,0.708 0.923,1.108 -0.089,0.043 -0.161,0.09 -0.191,0.109 z"
         id="path855" />
      <path
         style="fill:#c87137;fill-opacity:1"
         d="m 71.227,56.299 c 0.085,-0.178 0.344,-0.272 0.746,-0.272 1.067,0 3.461,0.742 5.717,2.825 -0.004,0 -0.009,0.001 -0.014,0.001 -0.234,0.021 -0.438,0.038 -0.574,0.041 H 77.07 c -0.591,0 -1.862,-0.352 -2.387,-0.661 -0.508,-0.299 -2.078,-0.831 -2.976,-0.975 -0.11,-0.141 -0.221,-0.281 -0.334,-0.426 -0.207,-0.262 -0.194,-0.434 -0.146,-0.533 z"
         id="path853" />
      <path
         style="fill:#c87137;fill-opacity:1"
         d="m 40.076,33.85 0.041,0.16 c 0.346,1.339 1.251,10.456 0.25,11.294 -0.46,0.386 -2.097,0.572 -5.003,0.572 -1.386,0 -2.906,-0.042 -4.384,-0.102 -0.019,-0.12 -0.075,-0.202 -0.133,-0.287 -0.136,-0.199 -0.291,-0.424 0.017,-1.276 0.103,-0.284 -0.033,-1.873 -0.221,-2.141 -0.024,-0.033 -0.052,-0.052 -0.081,-0.052 -0.068,0 -0.141,0.07 -0.209,0.581 -0.233,1.748 -0.509,2.116 -0.7,2.116 -0.131,0 -0.357,-0.175 -0.688,-1.006 -0.334,-0.843 -0.288,-1.612 -0.249,-2.232 0.031,-0.51 0.055,-0.912 -0.136,-1.187 -0.232,-0.33 -0.322,-0.398 -0.388,-0.398 -0.023,0 -0.045,0.011 -0.061,0.028 -0.066,0.078 -0.034,0.311 0.044,0.829 0.103,0.674 0.242,1.596 0.116,2.379 -0.181,1.117 0.324,1.523 0.693,1.819 0.27,0.217 0.448,0.359 0.261,0.688 -0.011,0.021 -0.021,0.04 -0.03,0.062 -0.856,-0.041 -1.67,-0.083 -2.402,-0.121 -1.641,-0.085 -2.859,-0.146 -3.09,-0.114 -0.301,0.041 -0.359,0.187 -0.44,0.388 -0.153,0.381 -0.363,0.903 -2.414,0.935 -0.552,0.009 -2.043,1.045 -2.68,1.487 -0.088,0.061 -0.161,0.111 -0.217,0.149 -0.139,0.094 -0.365,0.318 -0.625,0.58 -0.545,0.544 -1.166,1.163 -1.505,1.127 -0.036,-0.004 -0.074,-0.006 -0.111,-0.006 -0.277,0 -0.552,0.104 -0.844,0.212 -0.343,0.127 -0.697,0.259 -1.117,0.259 -0.236,0 -0.466,-0.042 -0.702,-0.128 -0.083,-0.031 -0.162,-0.046 -0.242,-0.046 -0.175,0 -0.33,0.075 -0.494,0.153 -0.198,0.096 -0.423,0.204 -0.726,0.204 v 0 c -0.049,0 -0.1,-0.002 -0.15,-0.008 -0.709,-0.08 -0.993,-0.414 -1.422,-0.923 C 9.991,49.794 9.947,49.741 9.9,49.688 9.621,49.362 9.414,49.352 9.215,49.34 9.058,49.332 8.898,49.323 8.722,49.167 8.418,48.896 8.264,48.625 8.252,48.344 8.237,48.017 8.41,47.673 8.796,47.263 c 0.322,-0.343 0.349,-0.6 0.374,-0.849 0.028,-0.271 0.054,-0.529 0.435,-0.852 0.308,-0.26 0.688,-0.346 1.128,-0.443 0.424,-0.096 0.903,-0.202 1.423,-0.494 0.884,-0.494 1.756,-1.332 2.393,-1.945 0.126,-0.12 0.245,-0.234 0.355,-0.338 0.329,-0.309 1.542,-0.803 2.828,-1.325 1.407,-0.572 2.863,-1.164 3.279,-1.558 0.506,-0.48 3.108,-1.437 5.405,-2.28 0.947,-0.348 1.857,-0.683 2.515,-0.946 0.009,0.008 0.022,0.013 0.041,0.013 0,0 0,0 0,0 0.026,0 0.099,-0.002 0.515,-0.247 0.051,-0.023 0.1,-0.046 0.143,-0.066 0.115,-0.057 0.199,-0.113 0.251,-0.173 1.034,-0.612 1.683,-0.753 2.311,-0.889 0.499,-0.106 0.97,-0.208 1.586,-0.544 1.294,-0.706 2.802,-2.014 3.053,-3.219 0.043,-0.207 0.075,-0.307 0.079,-0.317 l 0.008,-0.023 -0.025,-0.036 -0.054,0.003 -0.01,0.028 c -0.038,0.109 -0.943,2.55 -5.18,3.718 -0.508,0.14 -1.214,0.533 -1.783,0.911 -0.136,-0.185 -0.419,-0.399 -0.752,-0.651 -0.098,-0.073 -0.199,-0.15 -0.302,-0.23 0.29,-0.434 0.605,-1.036 0.775,-1.373 0.708,-1.407 1.957,-2.695 2.868,-3.636 0.485,-0.501 0.868,-0.896 1.051,-1.182 0.089,-0.14 0.097,-0.188 0.079,-0.22 -0.01,-0.02 -0.029,-0.03 -0.052,-0.03 -0.198,0 -1.545,1.333 -2.629,2.53 -0.686,0.758 -2.258,2.556 -2.597,3.495 -0.256,-0.227 -0.504,-0.479 -0.716,-0.763 0.223,-0.92 0.636,-1.921 1.759,-2.987 0.293,-0.278 0.479,-0.674 0.735,-1.221 0.231,-0.495 0.52,-1.111 0.999,-1.876 0.745,-1.19 0.729,-1.22 0.704,-1.265 l -0.02,-0.025 h -0.025 c -0.038,0 -0.081,0.036 -0.232,0.18 -0.136,0.127 -0.362,0.342 -0.456,0.342 -0.011,0 -0.015,-0.004 -0.017,-0.008 -0.012,-0.016 -0.035,-0.077 0.024,-0.307 0.322,-1.249 0.732,-1.872 1.063,-2.374 0.12,-0.183 0.234,-0.355 0.325,-0.534 0.072,-0.142 0.066,-0.188 0.049,-0.216 -0.012,-0.02 -0.033,-0.03 -0.057,-0.03 -0.208,0 -1.227,1.179 -1.463,2.318 l -0.004,0.021 c -0.293,1.41 -0.382,1.836 -0.732,2.698 -0.3,0.737 -0.858,1.591 -1.659,2.538 -0.048,0.058 -0.099,0.116 -0.152,0.178 -0.402,0.471 -0.935,1.09 -1.26,1.822 -0.073,-0.189 -0.128,-0.39 -0.157,-0.601 -0.054,-0.392 -0.098,-0.776 -0.139,-1.151 0.083,-0.209 0.182,-0.399 0.283,-0.594 0.245,-0.472 0.498,-0.957 0.593,-1.786 0.136,-1.18 -0.004,-1.845 -0.152,-2.55 -0.046,-0.219 -0.094,-0.445 -0.136,-0.694 -0.187,-1.128 -0.739,-1.401 -1.242,-1.569 -0.45,-0.149 -2.404,-0.446 -2.563,-0.446 -0.046,0 -0.052,0.031 -0.053,0.041 -0.005,0.045 0.021,0.049 0.186,0.083 0.524,0.104 2.111,0.521 2.587,0.938 0.451,0.395 0.641,1.565 0.406,2.505 -0.04,0.156 -0.072,0.31 -0.105,0.47 -0.052,0.245 -0.107,0.504 -0.193,0.81 -0.091,-0.297 -0.205,-0.474 -0.358,-0.474 -0.045,0 -0.095,0.015 -0.148,0.044 -1.285,0.701 -1.433,1.556 -1.986,4.736 -0.044,0.251 -0.09,0.516 -0.139,0.798 -0.589,3.35 -3.168,3.933 -4.554,4.246 -0.226,0.05 -0.421,0.096 -0.574,0.143 -0.179,0.057 -0.369,0.114 -0.563,0.172 -0.874,0.265 -1.866,0.563 -2.25,0.887 -0.161,0.136 -0.332,0.349 -0.513,0.574 -0.487,0.608 -1.093,1.365 -2.061,1.405 -0.843,0.034 -1.283,-0.576 -1.6,-1.02 -0.151,-0.212 -0.283,-0.395 -0.394,-0.395 -0.833,0 -1.447,-0.373 -1.686,-1.024 -0.023,-0.063 -0.022,-0.112 0.003,-0.149 0.025,-0.036 0.071,-0.054 0.138,-0.054 0.061,0 0.131,0.014 0.199,0.026 0.056,0.011 0.107,0.02 0.142,0.02 0.005,0 0.008,0 0.011,0 -0.003,-0.008 -0.01,-0.021 -0.024,-0.041 -0.223,-0.312 -0.329,-1.3 0.019,-2.082 0.16,-0.361 0.124,-0.464 0.108,-0.488 -0.006,-0.01 -0.018,-0.021 -0.047,-0.021 -0.051,0 -0.258,0.042 -0.783,0.582 -0.436,0.449 -0.766,0.678 -0.98,0.678 -0.107,0 -0.185,-0.056 -0.224,-0.162 -0.155,-0.425 0.376,-1.56 0.939,-2.762 0.44,-0.94 0.895,-1.912 0.913,-2.376 0.021,-0.533 -0.065,-0.872 -0.143,-1.17 -0.07,-0.274 -0.13,-0.51 -0.089,-0.824 0.054,-0.418 0.436,-0.902 0.84,-1.414 0.5,-0.634 1.016,-1.289 0.991,-1.895 -0.008,-0.198 -0.289,-0.624 -0.537,-1.001 -0.303,-0.461 -0.458,-0.707 -0.403,-0.811 0.009,-0.017 0.032,-0.044 0.084,-0.044 0.027,0 0.06,0.006 0.101,0.021 l 0.01,0.004 0.008,0.008 c 0.336,0.377 1.261,0.908 2.263,0.908 0.091,0 0.183,-0.005 0.272,-0.014 0.356,-0.034 0.894,-0.086 0.922,-0.208 0.03,-0.126 -0.448,-0.425 -0.604,-0.523 l -0.041,-0.025 0.029,-0.037 c 0.132,-0.172 0.357,-0.396 0.596,-0.635 0.412,-0.412 0.924,-0.925 0.881,-1.124 -0.022,-0.102 -0.045,-0.205 -0.069,-0.312 -0.265,-1.174 -0.563,-2.506 0.57,-2.775 0.03,-0.008 0.061,-0.011 0.093,-0.011 0.945,0 2.921,3.179 3.408,4.873 0.103,0.358 0.769,0.572 1.352,0.572 0.417,0 0.755,-0.103 0.927,-0.282 0.094,-0.099 0.138,-0.219 0.131,-0.357 -0.054,-1.185 -0.926,-1.783 -1.298,-2.039 -0.142,-0.098 -0.19,-0.131 -0.174,-0.181 0.015,-0.045 0.069,-0.045 0.099,-0.045 0.082,0 0.244,0.021 0.546,0.061 2.395,-0.349 4.479,-0.52 6.37,-0.52 4.446,0 7.916,0.91 11.974,3.138 0.026,0.015 0.053,0.029 0.079,0.044 0.014,0.037 0.029,0.074 0.047,0.115 0.833,1.883 0.789,2.713 0.477,4.29 -0.317,1.602 -0.739,2.384 -1.316,3.127 -0.441,0.569 -0.436,0.912 -0.429,1.276 0.007,0.392 0.015,0.837 -0.546,1.683 -1.699,2.563 -2.575,2.614 -3.502,2.669 -0.113,0.006 -1.107,0.07 -1.105,0.255 10e-4,0.055 0.003,0.155 1.107,0.185 0.06,0.002 0.119,0.002 0.177,0.002 v 0 c 2.146,0 2.898,-1.044 3.625,-2.054 l 0.063,-0.088 c 0.196,-0.271 0.379,-0.496 0.557,-0.714 0.501,-0.616 0.897,-1.102 1.036,-2.032 0.067,-0.453 0.05,-0.748 0.036,-1.006 -0.025,-0.445 -0.044,-0.767 0.401,-1.603 0.701,-1.319 0.869,-1.934 0.748,-2.735 -0.1,-0.66 -0.443,-2.275 -0.747,-3.006 0.143,0.084 0.292,0.174 0.442,0.266 0.792,0.475 1.725,1.033 2.598,1.443 0.011,0.033 0.026,0.068 0.048,0.109 0.789,1.366 0.744,2.646 0.579,3.825 -0.056,0.399 -0.093,0.783 -0.13,1.155 -0.081,0.831 -0.151,1.549 -0.391,1.853 -0.093,0.117 -0.127,0.202 -0.104,0.251 0.011,0.022 0.034,0.037 0.061,0.037 0.152,0 0.54,-0.467 0.77,-1.395 0.378,-1.528 0.495,-2.999 0.347,-4.372 -0.053,-0.484 -0.216,-0.864 -0.406,-1.137 0.069,0.025 0.137,0.049 0.204,0.07 0.235,0.076 0.77,0.44 1.509,0.946 0.348,0.236 0.74,0.505 1.165,0.785 10e-4,0.031 0.004,0.063 0.014,0.099 0.461,1.815 0.48,2.927 0.085,4.951 -0.206,1.056 -0.264,1.813 -0.316,2.481 -0.051,0.657 -0.095,1.225 -0.272,1.871 -0.351,1.285 -1.023,2.731 -1.407,3.226 -0.515,0.662 -1.041,0.983 -1.609,0.983 -0.192,0 -0.355,-0.035 -0.487,-0.064 -0.056,-0.012 -0.103,-0.021 -0.146,-0.027 -0.815,-2.513 -1.373,-5.447 -1.757,-7.472 -0.249,-1.309 -0.445,-2.343 -0.571,-2.49 -0.205,-0.236 -0.289,-0.272 -0.32,-0.272 -0.008,0 -0.012,0.002 -0.017,0.009 -0.104,0.128 0.099,0.91 0.295,1.668 z"
         id="path851" />
      <path
         style="fill:#c87137;fill-opacity:1"
         d="m 51.759,50.302 c 0.386,-0.157 0.784,-0.319 1.18,-0.419 1.146,-0.288 1.072,-1.061 1.013,-1.683 -0.022,-0.231 -0.043,-0.416 -0.06,-0.566 -0.079,-0.68 -0.079,-0.68 0.282,-1.322 0.037,-0.067 0.079,-0.142 0.124,-0.225 0.337,-0.604 0.13,-1.782 -0.109,-2.189 -0.055,-0.093 -0.107,-0.138 -0.164,-0.138 -0.114,0 -0.147,0.19 -0.158,0.252 -0.142,0.819 -0.826,1.748 -1.402,2.266 -0.362,0.326 -0.633,0.914 -0.871,1.434 -0.157,0.344 -0.307,0.668 -0.462,0.88 -0.272,0.366 -0.592,0.437 -1.087,0.437 -0.08,0 -0.162,-0.002 -0.249,-0.004 -0.094,-10e-4 -0.191,-0.003 -0.293,-0.003 -0.232,0 -0.542,0.009 -0.9,0.072 -0.306,0.055 -0.537,0.119 -0.701,0.192 -1.615,-0.838 -3.067,-2.032 -4.047,-3.612 -0.324,-0.521 -0.62,-1.139 -0.894,-1.816 0,0 0,0 0,0 v 0 c 0.242,0 0.538,-0.185 0.96,-0.598 0.433,-0.424 0.856,-0.733 1.231,-1.006 0.605,-0.44 1.083,-0.789 1.269,-1.383 0.237,-0.762 0.869,-2.782 0.642,-3.885 -0.129,-0.624 0.032,-1.783 0.174,-2.805 0.092,-0.667 0.18,-1.295 0.18,-1.713 0,-0.766 0.026,-1.641 0.047,-2.343 0.008,-0.248 0.014,-0.468 0.019,-0.649 0.661,0.418 1.374,0.841 2.108,1.225 0.006,0.035 0.031,0.078 0.08,0.133 1.226,1.38 1.426,1.82 1.426,3.147 v 0.386 c -0.003,1.305 -0.006,2.928 0.212,3.525 0.177,0.487 0.229,1.277 0.031,1.565 -0.045,0.064 -0.099,0.098 -0.162,0.098 -0.461,0.009 -0.932,0.133 -0.932,0.993 0,0.157 0.003,0.305 0.007,0.444 0.014,0.636 0.025,1.094 -0.291,1.712 -0.377,0.736 -0.587,1.792 -0.656,2.14 l -0.009,0.044 c -0.009,0.046 -0.035,0.144 -0.068,0.27 -0.173,0.65 -0.53,2.005 -0.288,2.359 0.038,0.055 0.088,0.086 0.15,0.094 0.007,0 0.014,0 0.021,0 0.603,0 2.538,-2.875 2.832,-3.574 0.155,-0.369 0.087,-0.767 0.027,-1.116 -0.078,-0.449 -0.144,-0.837 0.229,-1.086 0.919,-0.612 0.624,-2.861 0.512,-3.536 -0.093,-0.56 -0.232,-1.172 -0.366,-1.764 -0.205,-0.904 -0.398,-1.759 -0.398,-2.292 0,-0.116 0.002,-0.224 0.004,-0.326 0.013,-0.67 0.021,-1.112 -0.614,-2.023 -0.16,-0.23 -0.346,-0.434 -0.536,-0.608 0.795,0.348 1.595,0.623 2.363,0.771 -0.011,0.015 -0.017,0.025 -0.018,0.028 l -0.009,0.018 0.007,0.018 c 0.133,0.331 0.493,1.021 0.95,1.895 1.03,1.969 2.44,4.665 2.48,5.642 0.057,1.354 0.169,2.389 0.354,3.254 0.044,0.207 0.1,0.373 0.148,0.521 0.149,0.449 0.247,0.746 -0.145,1.574 -0.521,1.101 -0.763,1.698 -1.181,2.832 -0.148,0.399 -0.213,0.694 -0.267,0.931 -0.1,0.445 -0.16,0.712 -0.609,1.204 -0.242,0.267 -0.638,0.57 -1.01,0.844 -0.019,0 -0.035,0 -0.054,-10e-4 -0.81,-0.016 -1.675,-0.121 -2.552,-0.314 0.171,-0.068 0.336,-0.136 0.5,-0.201 z"
         id="path849" />
      <path
         style="fill:#c87137;fill-opacity:1"
         d="m 67.24,49.801 c 0.004,-0.01 0.006,-0.019 0.012,-0.028 0.146,-0.295 0.524,-0.461 0.926,-0.635 0.609,-0.267 1.298,-0.566 1.343,-1.403 0.047,-0.908 -0.149,-1.14 -0.421,-1.46 -0.141,-0.164 -0.297,-0.349 -0.457,-0.668 -0.249,-0.498 -0.2,-0.64 -0.132,-0.838 0.061,-0.175 0.136,-0.394 0.053,-0.896 -0.174,-1.067 -0.479,-1.885 -0.944,-2.935 -0.306,-0.687 -1.609,-2.732 -2.193,-3.198 -0.217,-0.174 -0.261,-0.188 -0.291,-0.188 -0.021,0 -0.037,0.011 -0.047,0.026 -0.024,0.048 0.015,0.114 0.253,0.46 0.11,0.161 0.247,0.362 0.387,0.582 0.469,0.744 0.511,0.864 0.844,1.807 l 0.024,0.07 c 0.224,0.634 0.233,0.791 0.257,1.171 0.012,0.214 0.03,0.509 0.096,1.001 0.034,0.272 0.062,0.466 0.081,0.614 0.063,0.474 0.063,0.474 0.11,1.075 0.011,0.145 0.025,0.321 0.043,0.548 0.113,1.412 0.113,1.412 -0.622,3.093 l -0.081,0.187 c -0.301,0.689 -0.434,1.153 -0.465,1.49 -0.212,-0.012 -0.425,-0.018 -0.635,-0.018 -0.153,0 -0.305,0.002 -0.453,0.01 -0.096,0.004 -0.19,0.01 -0.285,0.016 -0.005,-0.255 -0.006,-0.496 0.268,-0.754 0.596,-0.562 0.946,-1.954 0.887,-2.852 -0.035,-0.521 -0.28,-0.536 -0.459,-0.546 -0.069,-0.004 -0.13,-0.007 -0.155,-0.04 -0.025,-0.031 -0.03,-0.097 -0.015,-0.191 0.105,-0.644 -0.356,-3.866 -1.442,-5.373 -0.548,-0.761 -1.112,-1.394 -1.71,-2.063 -0.558,-0.624 -1.135,-1.271 -1.733,-2.064 -0.066,-0.088 -0.116,-0.127 -0.162,-0.127 -0.025,0 -0.047,0.011 -0.063,0.031 -0.033,0.042 -0.121,0.151 0.188,1.512 0.151,0.664 0.409,1.117 0.656,1.557 0.154,0.275 0.315,0.56 0.45,0.894 0.369,0.913 0.901,2.291 1.296,3.418 0.376,1.075 0.329,1.91 0.288,2.648 -0.03,0.527 -0.058,1.026 0.07,1.54 0.412,1.645 0.147,2.241 -0.135,2.607 -0.501,0.076 -1.008,0.163 -1.527,0.253 -0.554,0.095 -1.131,0.194 -1.742,0.286 0.049,-0.067 0.097,-0.135 0.143,-0.2 0.504,-0.716 0.565,-0.949 0.701,-1.462 0.03,-0.112 0.063,-0.236 0.104,-0.384 0.188,-0.656 0.222,-1.607 0.246,-2.303 0.007,-0.18 0.013,-0.339 0.021,-0.466 0.002,-0.046 -0.007,-0.08 -0.026,-0.102 -0.017,-0.017 -0.035,-0.024 -0.06,-0.024 -0.229,0 -0.973,1.01 -1.215,1.527 -0.334,0.71 -1.178,2.419 -1.806,2.961 -0.333,0.285 -0.564,0.536 -0.703,0.755 -0.563,0.045 -1.16,0.076 -1.793,0.09 0.243,-0.204 0.471,-0.459 0.675,-0.791 0.389,-0.631 0.985,-1.358 1.509,-2.002 0.416,-0.508 0.775,-0.947 0.908,-1.194 0.125,-0.231 0.272,-0.351 0.416,-0.467 0.189,-0.153 0.369,-0.299 0.472,-0.678 0.179,-0.654 0.534,-2.54 0.354,-3.321 -0.099,-0.428 -0.291,-0.609 -0.476,-0.783 -0.157,-0.149 -0.306,-0.29 -0.41,-0.576 -0.092,-0.252 -0.092,-0.357 -0.092,-0.459 0,-0.163 0,-0.304 -0.323,-0.909 -0.202,-0.38 -0.418,-0.808 -0.626,-1.224 -0.343,-0.681 -0.696,-1.384 -1.024,-1.939 -0.232,-0.392 -0.351,-0.687 -0.475,-0.998 -0.162,-0.406 -0.333,-0.827 -0.765,-1.513 -0.319,-0.506 -0.492,-0.953 -0.631,-1.312 -0.044,-0.111 -0.084,-0.214 -0.124,-0.308 0.195,0.04 0.39,0.081 0.58,0.122 -10e-4,0.005 -0.002,0.011 -0.002,0.018 -10e-4,0.089 0.107,0.147 0.302,0.252 0.189,0.103 0.45,0.244 0.73,0.479 0.7,0.586 0.848,0.824 1.208,1.487 0.305,0.564 1.377,2.214 2.117,2.526 0.042,0.02 0.078,0.027 0.106,0.027 0.052,0 0.072,-0.028 0.081,-0.045 0.078,-0.159 -0.403,-0.803 -1.203,-1.844 -0.356,-0.464 -0.693,-0.901 -0.849,-1.15 -0.097,-0.157 -0.183,-0.301 -0.262,-0.433 -0.225,-0.371 -0.402,-0.666 -0.642,-0.963 3.792,0.894 6.721,1.882 8.867,2.662 0.349,0.372 0.556,0.732 0.771,1.107 0.225,0.389 0.455,0.79 0.862,1.253 0.868,0.99 1.603,2.33 1.825,3.337 0.156,0.696 0.593,1.277 1.016,1.84 0.23,0.303 0.447,0.591 0.61,0.887 0.224,0.4 0.352,0.816 0.476,1.219 0.129,0.423 0.251,0.823 0.471,1.105 0.263,0.337 0.329,0.548 0.441,0.9 0.061,0.189 0.135,0.425 0.261,0.74 0.07,0.177 0.14,0.336 0.208,0.491 0.266,0.611 0.458,1.055 0.32,1.632 -0.072,0.298 -0.05,0.586 -0.029,0.864 0.024,0.311 0.049,0.628 -0.052,0.978 -0.495,-0.28 -0.963,-0.538 -1.384,-0.755 -0.99,-0.512 -2.537,-1.03 -4.192,-1.273 z"
         id="path847" />
      <path
         style="fill:#c87137;fill-opacity:1"
         d="m 80.424,63.741 c -0.251,0.46 -0.381,0.625 -0.665,0.987 -0.053,0.066 -0.111,0.141 -0.176,0.224 -0.219,0.281 -0.863,0.372 -1.335,0.439 -0.231,0.032 -0.393,0.057 -0.493,0.091 -1.017,-1.169 -1.815,-2.267 -2.618,-3.427 0.189,-0.096 0.45,-0.19 0.804,-0.206 0.104,-0.005 0.208,-0.008 0.31,-0.008 0.546,0 0.996,0.067 1.358,0.123 0.258,0.037 0.482,0.071 0.674,0.071 0.407,0 1.081,-0.437 1.413,-0.856 0.066,0.098 0.133,0.195 0.198,0.297 0.199,0.308 0.421,0.752 0.678,1.266 0.097,0.191 0.195,0.39 0.299,0.592 -0.175,0.079 -0.344,0.216 -0.447,0.407 z"
         id="path845" />
      <path
         style="fill:#c87137;fill-opacity:1"
         d="m 86.831,77.81 c -0.004,0.182 -0.068,0.335 -0.18,0.431 -0.26,0.225 -0.223,0.463 -0.186,0.713 0.037,0.241 0.075,0.491 -0.13,0.745 -0.126,0.154 -0.219,0.29 -0.3,0.409 -0.201,0.292 -0.334,0.487 -0.714,0.616 -0.05,0.017 -0.1,0.026 -0.149,0.026 -0.211,0 -0.369,-0.161 -0.521,-0.314 -0.147,-0.149 -0.288,-0.292 -0.469,-0.292 -0.029,0 -0.059,0.004 -0.089,0.012 -0.024,0.006 -0.048,0.009 -0.07,0.009 -0.211,0 -0.303,-0.248 -0.409,-0.534 -0.141,-0.386 -0.317,-0.864 -0.835,-0.937 -0.382,-0.056 -0.321,-0.556 -0.222,-1.385 0.09,-0.736 0.211,-1.745 0.103,-2.963 -0.114,-1.264 -0.754,-2.842 -1.451,-4.202 0.008,0 0.016,0 0.024,0 0.149,0 0.34,-0.012 0.542,-0.024 0.162,-0.011 0.33,-0.021 0.483,-0.025 0.319,-0.011 0.37,-0.158 0.428,-0.332 0.049,-0.143 0.109,-0.322 0.344,-0.505 0.289,-0.228 0.3,-0.265 0.293,-0.373 -0.005,-0.07 -0.011,-0.176 0.146,-0.476 0.112,-0.214 0.157,-0.327 0.172,-0.394 0.01,0.028 0.019,0.055 0.029,0.081 0.344,0.979 0.701,1.99 0.88,2.278 0.05,0.078 0.095,0.393 0.185,1.037 0.211,1.517 0.604,4.341 1.496,5.208 0.393,0.382 0.612,0.816 0.6,1.191 z"
         id="path843" />
      <path
         style="fill:#c87137;fill-opacity:1"
         d="M 83.601,67.904 C 83.595,67.902 83.59,67.9 83.584,67.9 c -0.029,0 -0.104,0 -0.484,0.461 -0.119,0.145 -0.217,0.252 -0.305,0.347 -0.215,0.233 -0.344,0.375 -0.493,0.772 -0.032,0.087 -0.114,0.129 -0.251,0.129 -0.233,0 -0.573,-0.126 -0.846,-0.227 -0.205,-0.077 -0.369,-0.138 -0.46,-0.138 -0.007,0 -0.014,0.001 -0.019,0.002 -0.584,-1.03 -1.132,-1.82 -1.369,-2.055 -0.188,-0.188 -0.368,-0.371 -0.543,-0.552 0.002,0.001 0.004,0.002 0.005,0.003 0.373,0.22 0.79,0.356 1.088,0.356 0.28,0 0.442,-0.123 0.442,-0.338 0,-0.901 0.175,-1.258 0.698,-1.872 0.171,-0.2 0.28,-0.313 0.351,-0.39 0.014,-0.012 0.024,-0.023 0.034,-0.035 0.412,0.69 0.866,1.288 1.351,1.538 0.118,0.065 0.355,0.693 0.818,2.003 z"
         id="path841" />
      <path
         style="fill:#c87137;fill-opacity:1"
         d="m 83.294,56.181 c 0.319,-0.327 0.594,-0.611 0.744,-1.162 0.344,-1.273 0.389,-2.468 0.143,-3.759 -0.201,-1.052 -1.51,-3.348 -1.676,-3.348 l -0.027,0.002 -0.014,0.018 c -0.017,0.025 -0.014,0.059 0.014,0.136 0.601,1.744 0.69,4.012 0.198,5.056 -0.266,0.564 -0.442,1.528 -0.584,2.302 -0.114,0.614 -0.21,1.145 -0.317,1.313 -0.091,0.145 -0.324,0.257 -0.551,0.362 -0.174,0.084 -0.343,0.165 -0.446,0.261 -0.198,-0.205 -0.393,-0.401 -0.576,-0.586 0.435,-0.102 0.895,-0.482 1.091,-1.313 0.229,-0.976 0.362,-1.847 0.362,-3.413 0,-0.224 0.002,-0.429 0.004,-0.619 0.013,-1.111 0.019,-1.723 -0.425,-3.037 -0.21,-0.62 -0.32,-1.135 -0.415,-1.589 -0.141,-0.654 -0.251,-1.172 -0.594,-1.632 -0.107,-0.144 -0.21,-0.304 -0.318,-0.475 -0.225,-0.354 -0.457,-0.721 -0.753,-0.939 -0.1,-0.073 -0.16,-0.074 -0.188,-0.027 -0.05,0.081 0.053,0.31 0.3,0.791 0.051,0.099 0.095,0.185 0.12,0.24 0.454,0.997 0.939,2.518 0.939,3.796 0,0.447 0.014,0.88 0.027,1.298 0.025,0.792 0.049,1.54 -0.027,2.233 -0.054,0.48 -0.159,0.834 -0.252,1.144 -0.113,0.379 -0.212,0.707 -0.192,1.161 0.01,0.258 0.061,0.516 0.11,0.766 0.109,0.55 0.195,0.983 -0.196,1.125 -0.022,0.009 -0.043,0.018 -0.063,0.026 -0.438,-0.4 -1.71,-1.277 -3.218,-2.24 0.025,-0.196 0.032,-0.431 0.023,-0.698 -0.026,-0.778 0.073,-1.335 0.172,-1.874 0.114,-0.627 0.223,-1.218 0.092,-2.055 -0.099,-0.633 -0.167,-0.856 -0.223,-1.037 -0.076,-0.249 -0.126,-0.413 -0.195,-1.547 -0.091,-1.505 -1.232,-3.544 -2.148,-5.182 -0.28,-0.501 -0.545,-0.975 -0.748,-1.375 -0.823,-1.635 -0.909,-1.635 -0.961,-1.635 -0.019,0 -0.035,0.01 -0.047,0.025 -0.093,0.138 0.458,1.638 1.653,4.742 0.208,0.54 0.404,1.049 0.549,1.433 0.572,1.521 0.628,3.059 0.678,4.415 0.009,0.283 0.02,0.553 0.033,0.812 0.049,0.873 0.185,1.695 0.295,2.355 0.078,0.472 0.146,0.884 0.164,1.201 -0.81,-0.51 -1.659,-1.025 -2.464,-1.493 0.057,-0.139 0.101,-0.302 0.129,-0.498 0.181,-1.233 0.052,-3.872 -0.237,-4.868 -0.159,-0.548 -0.333,-0.997 -0.518,-1.472 -0.159,-0.404 -0.321,-0.824 -0.484,-1.333 -0.081,-0.255 -0.141,-0.46 -0.193,-0.642 -0.17,-0.6 -0.255,-0.9 -0.808,-1.664 -0.325,-0.449 -0.621,-0.779 -0.885,-1.073 -0.325,-0.362 -0.606,-0.676 -0.868,-1.12 -0.244,-0.412 -0.597,-0.862 -0.936,-1.298 -0.335,-0.429 -0.681,-0.871 -0.91,-1.263 -0.203,-0.347 -0.39,-0.653 -0.581,-0.911 0.009,0.003 0.017,0.007 0.024,0.01 1.298,0.484 2.154,0.805 2.542,0.805 0.053,0 0.096,-0.006 0.13,-0.019 0.112,-0.039 0.254,-0.058 0.433,-0.058 0.333,0 0.743,0.066 1.179,0.137 0.347,0.056 0.702,0.114 1.033,0.14 0.095,0.113 0.289,0.269 0.591,0.504 0.428,0.337 1.015,0.796 1.415,1.29 1.4,1.73 1.932,3.219 2.249,4.108 0.12,0.336 0.207,0.581 0.302,0.729 0.432,0.674 0.692,1.153 0.817,1.383 0.102,0.188 0.102,0.188 0.134,0.188 h 0.023 l 0.012,-0.018 c 0.019,-0.023 0.019,-0.023 -0.05,-0.243 -0.069,-0.219 -0.197,-0.628 -0.358,-1.242 -0.336,-1.273 -0.677,-1.829 -1.036,-2.418 -0.217,-0.354 -0.44,-0.718 -0.665,-1.258 -0.479,-1.145 -1.808,-2.557 -2.596,-3.064 0.191,-0.048 0.338,-0.128 0.439,-0.242 0.036,-0.039 0.113,-0.147 0.228,-0.31 0.206,0.048 0.621,0.066 1.333,0.089 0.881,0.028 1.977,0.063 2.231,0.25 0.015,0.011 0.031,0.02 0.046,0.028 -0.321,0.73 -0.492,1.336 -0.434,1.716 0.132,0.86 1.027,1.86 2.16,3.126 0.665,0.741 1.417,1.58 2.121,2.519 1.724,2.294 3.309,5.543 5.681,11.839 -0.025,0.004 -0.045,0.015 -0.056,0.029 -0.005,0.008 -0.009,0.018 -0.009,0.025 -0.043,0.028 -0.214,0.089 -0.38,0.147 -0.433,0.152 -1.086,0.384 -1.463,0.686 -0.32,0.256 -0.709,0.871 -1.12,1.522 -0.316,0.501 -0.643,1.016 -0.96,1.409 -0.368,-0.4 -0.761,-0.823 -1.154,-1.244 0.405,-1.423 0.93,-1.962 1.356,-2.399 z"
         id="path839" />
      <path
         style="fill:#c87137;fill-opacity:1"
         d="m 95.423,78.338 c -0.054,0.023 -0.111,0.036 -0.175,0.036 -0.362,0 -0.771,-0.401 -1.012,-0.746 -0.144,-0.205 -0.361,-0.296 -0.591,-0.394 -0.228,-0.097 -0.462,-0.197 -0.636,-0.415 -0.146,-0.182 -0.398,-1.332 -0.718,-2.786 -0.28,-1.276 -0.604,-2.749 -0.921,-3.86 0.1,-0.068 0.2,-0.19 0.288,-0.351 0.202,-0.367 0.29,-0.494 0.778,-1.196 l 0.023,-0.033 c 0.375,-0.541 0.388,-0.543 0.597,-0.576 0.07,-0.011 0.165,-0.024 0.297,-0.062 0.017,-0.003 0.032,-0.009 0.047,-0.014 0.046,0.104 0.093,0.213 0.141,0.322 0.558,1.289 1.189,2.749 2.119,4.065 0.272,0.386 1.331,2.49 0.73,3.353 -0.099,0.143 0.039,0.47 0.171,0.786 0.162,0.384 0.328,0.781 0.157,1.001 -0.291,0.378 -0.729,0.621 -1.295,0.87 z"
         id="path837" />
      <path
         fill="#000000"
         d="M 18.693,31.698 C 18.598,31.51 18.34,31.38 18.114,31.266 c -0.159,-0.079 -0.323,-0.162 -0.348,-0.234 -0.117,-0.342 -0.149,-0.734 -0.18,-1.113 -0.048,-0.577 -0.092,-1.122 -0.417,-1.483 -0.211,-0.235 -0.454,-0.42 -0.688,-0.598 -0.348,-0.264 -0.648,-0.492 -0.716,-0.799 -0.064,-0.289 -0.02,-0.37 0.031,-0.465 0.041,-0.077 0.087,-0.164 0.087,-0.351 0,-0.263 -0.333,-0.566 -0.476,-0.684 -0.22,-0.182 -0.516,-0.365 -0.66,-0.365 -0.015,0 -0.028,0.002 -0.04,0.007 -0.112,0.036 -0.084,0.16 -0.053,0.304 0.042,0.189 0.099,0.447 -0.032,0.741 -0.07,0.158 -0.085,0.275 -0.096,0.36 -0.025,0.193 -0.032,0.246 -0.758,0.419 -0.15,0.037 -0.305,0.055 -0.46,0.055 -0.503,0 -0.941,-0.198 -0.994,-0.451 -0.04,-0.181 0.131,-0.367 0.479,-0.523 0.181,-0.082 0.18,-0.188 0.171,-0.231 -0.019,-0.087 -0.113,-0.149 -0.229,-0.149 -0.075,0 -0.265,0.029 -0.41,0.296 -0.066,0.124 -0.085,0.243 -0.101,0.349 -0.029,0.184 -0.043,0.286 -0.277,0.303 -0.265,0.019 -0.475,0.131 -0.478,0.256 -0.002,0.066 0.049,0.151 0.299,0.183 0.048,0.006 0.099,0.009 0.148,0.009 0.124,0 0.228,-0.019 0.311,-0.032 0.056,-0.011 0.103,-0.02 0.139,-0.02 0.044,0 0.086,0 0.086,0.145 0,0.108 -0.068,0.331 -0.134,0.545 -0.129,0.421 -0.201,0.684 -0.125,0.786 0.051,0.069 0.149,0.057 0.306,-0.061 0.622,-0.464 0.923,-0.531 1.143,-0.581 0.132,-0.029 0.236,-0.054 0.358,-0.147 0.073,-0.057 0.127,-0.051 0.162,0.026 0.053,0.12 0.035,0.398 -0.132,0.604 -0.257,-0.148 -0.629,-0.123 -1.065,0.068 -0.253,0.11 -0.648,0.41 -0.466,1.177 0.049,0.206 -0.206,0.497 -0.476,0.805 -0.292,0.333 -0.594,0.677 -0.586,0.995 0.005,0.189 0.116,0.216 0.181,0.217 v 0 c 0.409,-0.001 1.454,-1.078 1.781,-1.488 0.052,-0.064 0.092,-0.113 0.122,-0.149 0.079,-0.095 0.091,-0.109 0.076,-0.141 l -0.016,-0.026 h -0.027 c -0.013,0 -0.025,0.004 -0.046,0.011 -0.035,0.011 -0.095,0.029 -0.167,0.029 -0.085,0 -0.168,-0.025 -0.245,-0.08 -0.177,-0.123 -0.173,-0.159 -0.173,-0.161 0.006,-0.02 0.104,-0.045 0.161,-0.059 0.152,-0.04 0.36,-0.093 0.437,-0.268 0.035,-0.079 0.058,-0.153 0.08,-0.218 0.068,-0.214 0.107,-0.334 0.459,-0.377 0.107,0.385 -0.172,0.78 -0.43,1.048 l -0.07,0.072 h 0.101 c 0.404,0 0.703,0.317 0.81,0.613 0.059,0.16 0.053,0.299 -0.013,0.354 -0.127,0.105 -0.229,0.266 -0.336,0.434 -0.159,0.249 -0.323,0.506 -0.576,0.589 -0.098,0.019 -0.172,0.025 -0.209,0.028 -0.059,0 -0.094,0.001 -0.094,0.045 l 0.005,0.043 h 0.043 c 0.008,0 0.025,-0.001 0.049,-0.003 h 0.026 c 0.07,0 0.137,-0.01 0.201,-0.029 0.333,-0.063 0.943,-0.248 1.3,-0.792 0.292,-0.444 0.357,-1.039 0.19,-1.764 -0.117,-0.513 -0.097,-0.677 -0.058,-0.725 0.008,-0.01 0.017,-0.014 0.031,-0.014 0.092,0 0.283,0.174 0.452,0.328 0.245,0.223 0.501,0.449 0.665,0.401 0.03,-0.009 0.061,-0.014 0.092,-0.014 0.315,0 0.631,0.424 0.805,0.843 0.167,0.402 0.191,0.76 0.063,0.89 -0.126,0.126 -0.503,0.237 -0.902,0.355 -0.688,0.203 -1.467,0.434 -1.428,0.869 0.044,0.48 0.177,0.725 0.394,0.725 0.092,0 0.197,-0.048 0.311,-0.142 0.069,-0.059 0.164,-0.15 0.274,-0.257 0.369,-0.358 0.926,-0.898 1.283,-0.898 0.083,0 0.147,0.03 0.199,0.09 0.748,0.879 0.605,1.112 0.441,1.383 -0.076,0.124 -0.162,0.265 -0.172,0.474 -0.016,0.345 0.016,0.555 0.098,0.641 0.028,0.029 0.063,0.045 0.101,0.045 0.247,0 0.597,-0.695 0.711,-1.265 0.075,-0.374 0.168,-0.608 0.238,-0.779 0.092,-0.233 0.147,-0.372 0.038,-0.592 z"
         id="path4"
         style="fill:#c87137;fill-opacity:1" />
      <path
         fill="#000000"
         d="m 19.457,28.142 c -0.025,-0.128 -0.055,-0.272 -0.098,-0.455 -0.128,-0.545 -0.576,-0.849 -0.971,-1.118 -0.35,-0.238 -0.652,-0.444 -0.678,-0.761 -0.017,-0.206 -0.058,-0.443 -0.232,-0.443 -0.086,0 -0.178,0.061 -0.276,0.125 -0.122,0.08 -0.251,0.16 -0.337,0.108 -0.254,-0.154 -0.466,-0.347 -0.688,-0.551 -0.343,-0.313 -0.698,-0.635 -1.217,-0.809 -0.115,-0.039 -0.181,-0.056 -0.218,-0.056 -0.044,0 -0.059,0.023 -0.064,0.038 -0.021,0.057 0.041,0.11 0.368,0.382 0.949,0.788 3.47,2.883 4.207,6.241 0.258,1.177 0.179,1.387 0.047,1.734 -0.116,0.306 -0.275,0.727 -0.261,2.013 0.004,0.365 0.136,0.443 0.245,0.443 0.31,0 0.855,-0.659 1.426,-1.719 0.826,-1.533 0.628,-1.927 -0.342,-3.344 C 19.6,28.851 19.57,28.701 19.457,28.142 Z"
         id="path6"
         style="fill:#c87137;fill-opacity:1" />
      <path
         fill="#000000"
         d="m 23.026,29.066 c -0.347,-0.214 -0.599,-0.219 -0.842,-0.223 -0.304,-0.006 -0.567,-0.011 -0.98,-0.423 -0.239,-0.239 -0.554,-0.646 -0.887,-1.077 -0.48,-0.621 -0.976,-1.263 -1.328,-1.509 -0.107,-0.076 -0.147,-0.086 -0.172,-0.086 -0.025,0 -0.045,0.013 -0.055,0.033 -0.047,0.099 0.233,0.473 1.225,1.706 0.453,0.564 0.922,1.147 1.209,1.554 0.136,0.19 0.378,0.214 0.658,0.24 0.473,0.044 1.062,0.1 1.493,0.968 0.035,0.071 0.076,0.107 0.122,0.107 0.029,0 0.082,-0.017 0.111,-0.122 0.068,-0.245 -0.023,-0.841 -0.554,-1.168 z"
         id="path8"
         style="fill:#c87137;fill-opacity:1" />
    </g>
  </g>
</svg>
