<?xml version="1.0" encoding="UTF-8" standalone="no"?>
<svg
   xmlns:dc="http://purl.org/dc/elements/1.1/"
   xmlns:cc="http://creativecommons.org/ns#"
   xmlns:rdf="http://www.w3.org/1999/02/22-rdf-syntax-ns#"
   xmlns:svg="http://www.w3.org/2000/svg"
   xmlns="http://www.w3.org/2000/svg"
   xmlns:sodipodi="http://sodipodi.sourceforge.net/DTD/sodipodi-0.dtd"
   xmlns:inkscape="http://www.inkscape.org/namespaces/inkscape"
   viewBox="0 0 512 512"
   x="0px"
   y="0px"
   version="1.1"
   id="svg12"
   sodipodi:docname="magic_fire_master.svg"
   inkscape:version="1.0.1 (3bc2e813f5, 2020-09-07)">
  <metadata
     id="metadata18">
    <rdf:RDF>
      <cc:Work
         rdf:about="">
        <dc:format>image/svg+xml</dc:format>
        <dc:type
           rdf:resource="http://purl.org/dc/dcmitype/StillImage" />
        <dc:title>skill magic fire soul</dc:title>
      </cc:Work>
    </rdf:RDF>
  </metadata>
  <defs
     id="defs16" />
  <sodipodi:namedview
     pagecolor="#ffffff"
     bordercolor="#666666"
     borderopacity="1"
     objecttolerance="10"
     gridtolerance="10"
     guidetolerance="10"
     inkscape:pageopacity="0"
     inkscape:pageshadow="2"
     inkscape:window-width="1606"
     inkscape:window-height="919"
     id="namedview14"
     showgrid="false"
     inkscape:zoom="0.83007813"
     inkscape:cx="205.37319"
     inkscape:cy="222.31"
     inkscape:window-x="0"
     inkscape:window-y="0"
     inkscape:window-maximized="0"
     inkscape:current-layer="svg12"
     inkscape:document-rotation="0"
     inkscape:pagecheckerboard="true" />
  <title
     id="title2">skill magic fire soul</title>
  <path
     d="M215.15,362.47a7.54,7.54,0,0,0,4.15-3.07,7,7,0,0,0,1.53-6.5A6.28,6.28,0,0,0,218,349a2.65,2.65,0,0,1-.39-.26,6.92,6.92,0,0,0-3.52-1,6.8,6.8,0,0,0-2.16.36,5.66,5.66,0,0,0-1.58.53,7.11,7.11,0,0,0-2.94,2.27,7.25,7.25,0,0,0,0,8.91A7.38,7.38,0,0,0,215.15,362.47Z"
     id="path4"
     style="fill:#ff6600" />
  <path
     d="M286.8,382.28c-12.06,9-24.73,18.11-39.31,22.5-3.74,1.13-30,12.2-45.57-19.8-5.72-11.74-18.15-15.33-28.49-22.53a37,37,0,0,1-15.69-31.58c.1-3.08.33-7.53,2.38-10.06,1.57-1.94,1.92-1.7,4.15-.78a17,17,0,0,1,4.13,2.48c6.48,5.25,12.19,11.69,18.15,17.55,4.36,4.28,13.85,0,11.14-6.49-8.7-20.75-15.41-40.46-8.77-62.86,5.7-19.24,14.62-36.76,15.88-57.14,1.1-17.87-3.64-36.06-16.45-49.06a63.72,63.72,0,0,0-5.36-4.82c-10.21-12.67-31.35-18.33-45.86-18.37-24.63-.06-46.2,11.78-65.33,26.83-16.95,13.34-34.2,41.3-38.71,62.25-7.85,36.44-8.92,69.82,2.35,117.86,9.82,41.86,28.75,87,63.4,114.39,18.62,14.7,42,23.51,65.95,21,8.08-.84,9.44-11.21-.62-14.1-5.47-1.57-10.88-2.65-16.48-4-17.55-4.21-26.77-13.07-31.5-22.65a3.08,3.08,0,0,1,4.23-4.1c7,3.87,16.37,9,19.71,10.38a175.06,175.06,0,0,0,30.67,9.51c18.45,3.87,37.82,4.76,56.2,0,15.55-4,31.94-9.36,43-21,9.61-10.1,26.63-28.48,26.63-49.76C296.66,383.4,290.94,379.18,286.8,382.28Zm-203.26-36a8.91,8.91,0,1,1,8.91-8.91A8.9,8.9,0,0,1,83.54,346.32ZM144.77,220a42.75,42.75,0,0,1-2.62,8.61c-4.06,9.75-12.47,17.22-22.87,19a28.26,28.26,0,0,1-11-.2A13.69,13.69,0,0,0,92.65,256c-3.45,9.17-7.12,23.89-7.5,45.58-.13,7.66-11.13,8.52-12.51,1a130.92,130.92,0,0,1,2.59-58.76,90.72,90.72,0,0,1,17.68-34.31A68.5,68.5,0,0,1,107.84,196C125.43,184.59,148.6,199.4,144.77,220Z"
     id="path6"
     style="fill:#ff6600" />
  <path
     d="M296.85,149.53a7.54,7.54,0,0,0-4.15,3.07,7,7,0,0,0-1.53,6.5A6.28,6.28,0,0,0,294,163a2.65,2.65,0,0,1,.39.26,6.92,6.92,0,0,0,3.52,1,6.8,6.8,0,0,0,2.16-.36,5.66,5.66,0,0,0,1.58-.53,7.11,7.11,0,0,0,2.94-2.27,7.25,7.25,0,0,0,0-8.91A7.38,7.38,0,0,0,296.85,149.53Z"
     id="path8"
     style="fill:#ff6600" />
  <path
     d="M225.2,129.72c12.06-9,24.73-18.11,39.31-22.5,3.74-1.13,30-12.2,45.57,19.8,5.72,11.74,18.15,15.33,28.49,22.53a37,37,0,0,1,15.69,31.58c-.1,3.08-.33,7.53-2.38,10.06-1.57,1.94-1.92,1.7-4.15.78a17,17,0,0,1-4.13-2.48c-6.48-5.25-12.19-11.69-18.15-17.55-4.36-4.28-13.85,0-11.14,6.49,8.7,20.75,15.41,40.46,8.77,62.86-5.7,19.24-14.62,36.76-15.88,57.14-1.1,17.87,3.64,36.06,16.45,49.06a63.72,63.72,0,0,0,5.36,4.82c10.21,12.67,31.35,18.33,45.86,18.37,24.63.06,46.2-11.78,65.33-26.83,16.95-13.34,34.2-41.3,38.71-62.25,7.85-36.44,8.92-69.82-2.35-117.86-9.82-41.86-28.75-87-63.4-114.39-18.62-14.7-42-23.51-66-21-8.08.84-9.44,11.21.62,14.1,5.47,1.57,10.88,2.65,16.48,4,17.55,4.21,26.77,13.07,31.5,22.65a3.08,3.08,0,0,1-4.23,4.1c-7-3.87-16.37-9-19.71-10.38a175.06,175.06,0,0,0-30.67-9.51c-18.45-3.87-37.82-4.76-56.2,0-15.55,4-31.94,9.36-43,21-9.61,10.1-26.63,28.48-26.63,49.76C215.34,128.6,221.06,132.82,225.2,129.72Zm203.26,36a8.91,8.91,0,1,1-8.91,8.91A8.9,8.9,0,0,1,428.46,165.68ZM367.23,292a42.75,42.75,0,0,1,2.62-8.61c4.06-9.75,12.47-17.22,22.87-19.05a28.26,28.26,0,0,1,11,.2A13.69,13.69,0,0,0,419.35,256c3.45-9.17,7.12-23.89,7.5-45.58.13-7.66,11.13-8.52,12.51-1a130.92,130.92,0,0,1-2.59,58.76,90.72,90.72,0,0,1-17.68,34.31A68.5,68.5,0,0,1,404.16,316C386.57,327.41,363.4,312.6,367.23,292Z"
     id="path10"
     style="fill:#ff6600" />
</svg>
