<?xml version="1.0" encoding="UTF-8" standalone="no"?>
<svg
   xmlns:dc="http://purl.org/dc/elements/1.1/"
   xmlns:cc="http://creativecommons.org/ns#"
   xmlns:rdf="http://www.w3.org/1999/02/22-rdf-syntax-ns#"
   xmlns:svg="http://www.w3.org/2000/svg"
   xmlns="http://www.w3.org/2000/svg"
   xmlns:sodipodi="http://sodipodi.sourceforge.net/DTD/sodipodi-0.dtd"
   xmlns:inkscape="http://www.inkscape.org/namespaces/inkscape"
   xml:space="preserve"
   version="1.1"
   style="shape-rendering:geometricPrecision;text-rendering:geometricPrecision;image-rendering:optimizeQuality;"
   viewBox="0 0 10000 10000"
   x="0px"
   y="0px"
   fill-rule="evenodd"
   clip-rule="evenodd"
   id="svg12"
   sodipodi:docname="magic_fire.svg"
   inkscape:version="1.0.1 (3bc2e813f5, 2020-09-07)"><metadata
     id="metadata16"><rdf:RDF><cc:Work
         rdf:about=""><dc:format>image/svg+xml</dc:format><dc:type
           rdf:resource="http://purl.org/dc/dcmitype/StillImage" /><dc:title></dc:title></cc:Work></rdf:RDF></metadata><sodipodi:namedview
     pagecolor="#ffffff"
     bordercolor="#666666"
     borderopacity="1"
     objecttolerance="10"
     gridtolerance="10"
     guidetolerance="10"
     inkscape:pageopacity="0"
     inkscape:pageshadow="2"
     inkscape:window-width="1920"
     inkscape:window-height="1017"
     id="namedview14"
     showgrid="false"
     inkscape:zoom="0.015026019"
     inkscape:cx="4540.4324"
     inkscape:cy="-2845.0962"
     inkscape:window-x="-8"
     inkscape:window-y="-8"
     inkscape:window-maximized="1"
     inkscape:current-layer="svg12"
     inkscape:document-rotation="0"
     inkscape:pagecheckerboard="true" /><defs
     id="defs4"><style
       type="text/css"
       id="style2">
   
    .fil0 {fill:none}
    .fil1 {fill:#000000}
   
  </style></defs><rect
     class="fil0"
     width="10000"
     height="10000"
     id="rect6"
     x="0"
     y="0" /><path
     class="fil1"
     d="m 6553,2991 c 451,938 560,1658 327,2160 -339,1057 -1509,-75 -754,-1094 452,-660 19,-2075 -1090,-3488 459,2188 -2868,2576 -2249,5073 452,1037 -925,736 -399,-480 -465,836 -573,1582 -322,2239 188,493 753,1104 1181,1427 489,370 1097,624 1755,601 -16,0 -32,0 -48,-1 -1586,-193 -1404,-2688 -95,-3860 -305,883 -202,1650 213,2115 0,-487 283,-691 334,-1202 1246,1402 845,2790 -207,2936 3247,-285 3788,-4247 1354,-6426 z"
     id="path8"
     style="fill:#ff6600" /></svg>
