<?xml version="1.0" encoding="UTF-8" standalone="no"?>
<svg
   xmlns:dc="http://purl.org/dc/elements/1.1/"
   xmlns:cc="http://creativecommons.org/ns#"
   xmlns:rdf="http://www.w3.org/1999/02/22-rdf-syntax-ns#"
   xmlns:svg="http://www.w3.org/2000/svg"
   xmlns="http://www.w3.org/2000/svg"
   xmlns:sodipodi="http://sodipodi.sourceforge.net/DTD/sodipodi-0.dtd"
   xmlns:inkscape="http://www.inkscape.org/namespaces/inkscape"
   width="20"
   height="20"
   viewBox="0 0 20 20"
   version="1.1"
   id="svg838"
   inkscape:version="1.0.1 (3bc2e813f5, 2020-09-07)"
   sodipodi:docname="magic_wind.svg">
  <defs
     id="defs832">
    <clipPath
       id="a-2">
      <rect
         id="rect6042"
         height="64"
         width="64"
         x="0"
         y="0" />
    </clipPath>
  </defs>
  <sodipodi:namedview
     id="base"
     pagecolor="#ffffff"
     bordercolor="#666666"
     borderopacity="1.0"
     inkscape:pageopacity="0.0"
     inkscape:pageshadow="2"
     inkscape:zoom="22.4"
     inkscape:cx="7.2894442"
     inkscape:cy="9.2234236"
     inkscape:document-units="mm"
     inkscape:current-layer="g6040"
     inkscape:document-rotation="0"
     showgrid="false"
     units="px"
     inkscape:window-width="1267"
     inkscape:window-height="1040"
     inkscape:window-x="52"
     inkscape:window-y="0"
     inkscape:window-maximized="0"
     inkscape:pagecheckerboard="true" />
  <metadata
     id="metadata835">
    <rdf:RDF>
      <cc:Work
         rdf:about="">
        <dc:format>image/svg+xml</dc:format>
        <dc:type
           rdf:resource="http://purl.org/dc/dcmitype/StillImage" />
        <dc:title></dc:title>
      </cc:Work>
    </rdf:RDF>
  </metadata>
  <g
     inkscape:label="Layer 1"
     inkscape:groupmode="layer"
     id="layer1">
    <g
       style="fill:#c87137;fill-opacity:1"
       transform="matrix(0.36174663,0,0,0.36174663,-1.5758922,-1.5758922)"
       id="g6141">
      <g
         style="fill:#00ff00;fill-opacity:1"
         transform="matrix(9.9068945,0,0,9.9068945,-210.85002,-288.29995)"
         id="g6040">
        <path
           style="fill:#00ff00;stroke-width:0.264583;fill-opacity:1"
           inkscape:connector-curvature="0"
           d="m 24.513233,30.805579 c 0,-0.292261 -0.236937,-0.529166 -0.529166,-0.529166 -0.178671,0 -0.336672,0.08856 -0.432533,0.22421 -0.09327,0.13213 -0.248693,0.258448 -0.405014,0.216591 -0.120533,-0.0323 -0.201279,-0.150831 -0.159163,-0.26833 0.146373,-0.409019 0.537306,-0.701638 0.99671,-0.701638 0.584464,0 1.058333,0.47384 1.058333,1.058333 0,0.584494 -0.473869,1.058334 -1.058333,1.058334 h -1.852084 c -0.146115,0 -0.264583,-0.118468 -0.264583,-0.264584 0,-0.146116 0.118468,-0.264583 0.264583,-0.264583 h 1.852084 c 0.292229,0 0.529166,-0.236905 0.529166,-0.529167 z"
           id="path6007" />
        <path
           style="fill:#00ff00;stroke-width:0.264583;fill-opacity:1"
           inkscape:connector-curvature="0"
           d="m 26.6299,31.599329 c 0,-0.292261 -0.236934,-0.529166 -0.529167,-0.529166 -0.178673,0 -0.336682,0.08856 -0.432541,0.22421 -0.09327,0.13213 -0.248681,0.258448 -0.404997,0.216591 -0.120544,-0.0323 -0.201295,-0.150831 -0.159174,-0.26833 0.146368,-0.409019 0.537316,-0.701638 0.996712,-0.701638 0.584465,0 1.058334,0.47384 1.058334,1.058333 0,0.584494 -0.473869,1.058334 -1.058334,1.058334 h -3.96875 c -0.146115,0 -0.264583,-0.118481 -0.264583,-0.264584 0,-0.146116 0.118468,-0.264583 0.264583,-0.264583 h 3.96875 c 0.292233,0 0.529167,-0.236905 0.529167,-0.529167 z"
           id="path6009" />
        <path
           style="fill:#00ff00;stroke-width:0.264583;fill-opacity:1"
           inkscape:connector-curvature="0"
           d="m 25.306983,32.922246 c 0.584465,0 1.058334,0.473842 1.058334,1.058333 0,0.584491 -0.473869,1.058334 -1.058334,1.058334 -0.459396,0 -0.850336,-0.29263 -0.996709,-0.701649 -0.04212,-0.117475 0.03863,-0.236008 0.159163,-0.268314 0.156324,-0.04186 0.31174,0.08445 0.405005,0.216588 0.09586,0.135652 0.253868,0.224208 0.432541,0.224208 0.292233,0 0.529167,-0.236908 0.529167,-0.529167 0,-0.292258 -0.236934,-0.529166 -0.529167,-0.529166 h -3.175 c -0.146115,0 -0.264583,-0.118481 -0.264583,-0.264584 0,-0.146103 0.118468,-0.264583 0.264583,-0.264583 z"
           id="path6011" />
      </g>
    </g>
  </g>
</svg>
