<?xml version="1.0" encoding="UTF-8" standalone="no"?>
<svg
   xmlns:dc="http://purl.org/dc/elements/1.1/"
   xmlns:cc="http://creativecommons.org/ns#"
   xmlns:rdf="http://www.w3.org/1999/02/22-rdf-syntax-ns#"
   xmlns:svg="http://www.w3.org/2000/svg"
   xmlns="http://www.w3.org/2000/svg"
   xmlns:sodipodi="http://sodipodi.sourceforge.net/DTD/sodipodi-0.dtd"
   xmlns:inkscape="http://www.inkscape.org/namespaces/inkscape"
   width="20"
   height="20"
   viewBox="0 0 20 20"
   version="1.1"
   id="svg838"
   inkscape:version="1.0.1 (3bc2e813f5, 2020-09-07)"
   sodipodi:docname="magic_water_master.svg">
  <defs
     id="defs832" />
  <sodipodi:namedview
     id="base"
     pagecolor="#ffffff"
     bordercolor="#666666"
     borderopacity="1.0"
     inkscape:pageopacity="0.0"
     inkscape:pageshadow="2"
     inkscape:zoom="5.6"
     inkscape:cx="-7.8093879"
     inkscape:cy="-15.202136"
     inkscape:document-units="mm"
     inkscape:current-layer="g6141"
     inkscape:document-rotation="0"
     showgrid="false"
     units="px"
     inkscape:window-width="1267"
     inkscape:window-height="1040"
     inkscape:window-x="52"
     inkscape:window-y="0"
     inkscape:window-maximized="0"
     inkscape:pagecheckerboard="true" />
  <metadata
     id="metadata835">
    <rdf:RDF>
      <cc:Work
         rdf:about="">
        <dc:format>image/svg+xml</dc:format>
        <dc:type
           rdf:resource="http://purl.org/dc/dcmitype/StillImage" />
        <dc:title></dc:title>
      </cc:Work>
    </rdf:RDF>
  </metadata>
  <g
     inkscape:label="Layer 1"
     inkscape:groupmode="layer"
     id="layer1">
    <g
       style="fill:#c87137;fill-opacity:1"
       transform="matrix(0.36174663,0,0,0.36174663,-1.5758922,-1.5758922)"
       id="g6141">
      <g
         id="g4136"
         transform="matrix(0.9816968,0,0,0.9816968,0.11135767,0.58570251)"
         style="fill:#00ffff;fill-opacity:1">
        <path
           inkscape:connector-curvature="0"
           d="m 35,39 v -4 a 1,1 0 0 1 2,0 1,1 0 0 0 2,0 v -5 h -3 a 4,4 0 0 1 -3,3.858 V 39 a 1,1 0 0 0 2,0 z"
           id="path4114-2"
           style="fill:#00ffff;fill-opacity:1" />
        <path
           inkscape:connector-curvature="0"
           d="m 17,20 h 7.128 L 21.606,18.919 A 1,1 0 0 1 21,18 v -2 h -4 a 2,2 0 0 0 0,4 z"
           id="path4116-2"
           style="fill:#00ffff;fill-opacity:1" />
        <path
           inkscape:connector-curvature="0"
           d="m 29.731,20.332 a 2.022,2.022 0 0 1 0.178,0.275 1.022,1.022 0 0 1 0.061,0.187 C 29.978,20.835 30,20.972 30,21 v 9 a 2,2 0 0 0 4,0 v -9 a 1,1 0 0 1 1,-1 h 3 v 2 h -2 v 3.586 L 40.915,20.671 38.02,6.2 A 0.925,0.925 0 0 1 38,6 V 4 H 26 V 6 A 1,1 0 0 1 25.707,6.707 L 23,9.414 v 7.927 l 6.394,2.74 a 1.805,1.805 0 0 1 0.337,0.251 z"
           id="path4118"
           style="fill:#00ffff;fill-opacity:1" />
        <path
           inkscape:connector-curvature="0"
           d="m 19,14 h 2 v -4 h -2 a 2,2 0 0 0 0,4 z"
           id="path4120-8"
           style="fill:#00ffff;fill-opacity:1" />
        <path
           inkscape:connector-curvature="0"
           d="M 38,38 A 3.009,3.009 0 0 1 37,37.829 V 39 a 2.991,2.991 0 0 1 -5.85,0.889 18.871,18.871 0 0 1 -9.622,-4.083 C 22.609,39.071 25.912,44 36,44 v 2 C 27.323,46 23.08,42.569 21,39.232 V 50.321 C 22.407,50.821 26.631,52 35,52 v 2 C 25.67,54 21.249,52.579 19.967,52.072 A 3.2,3.2 0 0 0 18,55 v 1 H 46 V 55 A 3.174,3.174 0 0 0 43.747,51.968 1,1 0 0 1 43,51 V 33 a 1,1 0 0 1 1,-1 h 1 a 1,1 0 0 0 0,-2 h -4 v 5 a 3,3 0 0 1 -3,3 z m 0,12 h -2 v -2 h 2 z m 3,-4 h -2 v -2 h 2 z"
           id="path4122-9"
           style="fill:#00ffff;fill-opacity:1" />
        <rect
           x="8"
           y="58"
           width="48"
           height="2"
           id="rect4124"
           style="fill:#00ffff;fill-opacity:1" />
        <path
           inkscape:connector-curvature="0"
           d="m 20,32 a 0.981,0.981 0 0 1 0.757,0.367 l 0.01,-0.009 A 17.849,17.849 0 0 0 31,37.849 V 33.858 A 4,4 0 0 1 28,30 h -9 a 1,1 0 0 0 0,2 z"
           id="path4126"
           style="fill:#00ffff;fill-opacity:1" />
        <path
           inkscape:connector-curvature="0"
           d="m 11.335,37.747 1.33,-1.494 c -2.071,-1.841 -2.949,-3.53 -2.61,-5.023 0.637,-2.8 5.428,-4.753 7.22,-5.269 l -0.55,-1.923 c -0.309,0.089 -7.587,2.217 -8.62,6.745 -0.515,2.258 0.572,4.602 3.23,6.964 z"
           id="path4128"
           style="fill:#00ffff;fill-opacity:1" />
        <path
           inkscape:connector-curvature="0"
           d="m 48.184,23.018 -0.369,1.964 c 1.712,0.324 6.715,1.792 7.231,4.22 0.337,1.586 -1.259,3.652 -4.615,5.976 l 1.138,1.644 c 4.191,-2.9 5.968,-5.53 5.433,-8.038 -0.888,-4.165 -8.009,-5.615 -8.818,-5.766 z"
           id="path4130"
           style="fill:#00ffff;fill-opacity:1" />
        <path
           inkscape:connector-curvature="0"
           d="m 15.263,42.035 c -9.936,-2.71 -9.3,-8.65 -9.272,-8.9 L 5,33 4.01,32.858 C 3.964,33.18 3.02,40.77 14.737,43.965 Z"
           id="path4132"
           style="fill:#00ffff;fill-opacity:1" />
        <path
           inkscape:connector-curvature="0"
           d="m 45.142,18.01 -0.284,1.98 c 0.133,0.019 13.255,1.975 14.15,9.134 l 1.984,-0.248 C 59.91,20.218 45.744,18.1 45.142,18.01 Z"
           id="path4134"
           style="fill:#00ffff;fill-opacity:1" />
      </g>
    </g>
  </g>
</svg>
