<?xml version="1.0" encoding="UTF-8" standalone="no"?>
<svg
   xmlns:dc="http://purl.org/dc/elements/1.1/"
   xmlns:cc="http://creativecommons.org/ns#"
   xmlns:rdf="http://www.w3.org/1999/02/22-rdf-syntax-ns#"
   xmlns:svg="http://www.w3.org/2000/svg"
   xmlns="http://www.w3.org/2000/svg"
   xmlns:sodipodi="http://sodipodi.sourceforge.net/DTD/sodipodi-0.dtd"
   xmlns:inkscape="http://www.inkscape.org/namespaces/inkscape"
   width="20"
   height="20"
   viewBox="0 0 20 20"
   version="1.1"
   id="svg838"
   inkscape:version="1.0.1 (3bc2e813f5, 2020-09-07)"
   sodipodi:docname="magic_light.svg">
  <defs
     id="defs832" />
  <sodipodi:namedview
     id="base"
     pagecolor="#ffffff"
     bordercolor="#666666"
     borderopacity="1.0"
     inkscape:pageopacity="0.0"
     inkscape:pageshadow="2"
     inkscape:zoom="5.6"
     inkscape:cx="-7.8093879"
     inkscape:cy="-15.202136"
     inkscape:document-units="mm"
     inkscape:current-layer="g6141"
     inkscape:document-rotation="0"
     showgrid="false"
     units="px"
     inkscape:window-width="1267"
     inkscape:window-height="1040"
     inkscape:window-x="52"
     inkscape:window-y="0"
     inkscape:window-maximized="0"
     inkscape:pagecheckerboard="true" />
  <metadata
     id="metadata835">
    <rdf:RDF>
      <cc:Work
         rdf:about="">
        <dc:format>image/svg+xml</dc:format>
        <dc:type
           rdf:resource="http://purl.org/dc/dcmitype/StillImage" />
        <dc:title></dc:title>
      </cc:Work>
    </rdf:RDF>
  </metadata>
  <g
     inkscape:label="Layer 1"
     inkscape:groupmode="layer"
     id="layer1">
    <g
       style="fill:#c87137;fill-opacity:1"
       transform="matrix(0.36174663,0,0,0.36174663,-1.5758922,-1.5758922)"
       id="g6141">
      <g
         transform="matrix(0.5912258,0,0,0.5912258,4.2123875,4.2123875)"
         id="g6281"
         style="fill:#ffeeaa;fill-rule:evenodd;stroke:none;stroke-width:1">
        <g
           id="g6279"
           style="fill:#ffeeaa">
          <path
             style="fill:#ffeeaa"
             id="path6277"
             d="M 47,69.5 C 34.573593,69.5 24.5,59.426407 24.5,47 24.5,34.573593 34.573593,24.5 47,24.5 59.426407,24.5 69.5,34.573593 69.5,47 69.5,59.426407 59.426407,69.5 47,69.5 Z M 47,2 l 6.818182,9.51593 c 0,0 -3.444381,1.393161 -6.818182,1.393161 -3.373802,0 -6.818182,-1.393161 -6.818182,-1.393161 z m 31.819805,13.180195 -1.907596,11.549961 c 0,0 -3.420658,-1.450431 -5.806296,-3.836069 -2.385638,-2.385638 -3.836069,-5.806296 -3.836069,-5.806296 z M 92,47 82.48407,53.818182 c 0,0 -1.393161,-3.444381 -1.393161,-6.818182 0,-3.373802 1.393161,-6.818182 1.393161,-6.818182 z M 78.819805,78.819805 67.269844,76.912209 c 0,0 1.450431,-3.420658 3.836069,-5.806296 2.385638,-2.385638 5.806296,-3.836069 5.806296,-3.836069 z M 47,92 40.181818,82.48407 c 0,0 3.44438,-1.393161 6.818182,-1.393161 3.373801,0 6.818182,1.393161 6.818182,1.393161 z M 15.180195,78.819805 17.087791,67.269844 c 0,0 3.420658,1.450431 5.806296,3.836069 2.385638,2.385638 3.836069,5.806296 3.836069,5.806296 z M 2,47 11.51593,40.181818 c 0,0 1.393161,3.44438 1.393161,6.818182 0,3.373801 -1.393161,6.818182 -1.393161,6.818182 z m 13.180195,-31.819805 11.549961,1.907596 c 0,0 -1.450431,3.420658 -3.836069,5.806296 -2.385638,2.385638 -5.806296,3.836069 -5.806296,3.836069 z"
             inkscape:connector-curvature="0" />
        </g>
      </g>
    </g>
  </g>
</svg>
