<?xml version="1.0" encoding="UTF-8" standalone="no"?>
<svg
   xmlns:dc="http://purl.org/dc/elements/1.1/"
   xmlns:cc="http://creativecommons.org/ns#"
   xmlns:rdf="http://www.w3.org/1999/02/22-rdf-syntax-ns#"
   xmlns:svg="http://www.w3.org/2000/svg"
   xmlns="http://www.w3.org/2000/svg"
   xmlns:sodipodi="http://sodipodi.sourceforge.net/DTD/sodipodi-0.dtd"
   xmlns:inkscape="http://www.inkscape.org/namespaces/inkscape"
   width="20"
   height="20"
   viewBox="0 0 20 20"
   version="1.1"
   id="svg838"
   inkscape:version="1.0.1 (3bc2e813f5, 2020-09-07)"
   sodipodi:docname="magic_light_master.svg">
  <defs
     id="defs832" />
  <sodipodi:namedview
     id="base"
     pagecolor="#ffffff"
     bordercolor="#666666"
     borderopacity="1.0"
     inkscape:pageopacity="0.0"
     inkscape:pageshadow="2"
     inkscape:zoom="5.6"
     inkscape:cx="-7.8093879"
     inkscape:cy="-15.202136"
     inkscape:document-units="mm"
     inkscape:current-layer="g6141"
     inkscape:document-rotation="0"
     showgrid="false"
     units="px"
     inkscape:window-width="1267"
     inkscape:window-height="1040"
     inkscape:window-x="52"
     inkscape:window-y="0"
     inkscape:window-maximized="0"
     inkscape:pagecheckerboard="true" />
  <metadata
     id="metadata835">
    <rdf:RDF>
      <cc:Work
         rdf:about="">
        <dc:format>image/svg+xml</dc:format>
        <dc:type
           rdf:resource="http://purl.org/dc/dcmitype/StillImage" />
        <dc:title></dc:title>
      </cc:Work>
    </rdf:RDF>
  </metadata>
  <g
     inkscape:label="Layer 1"
     inkscape:groupmode="layer"
     id="layer1">
    <g
       style="fill:#c87137;fill-opacity:1"
       transform="matrix(0.36174663,0,0,0.36174663,-1.5758922,-1.5758922)"
       id="g6141">
      <g
         style="fill:#ffeeaa;fill-opacity:1"
         transform="matrix(0.83143152,0,0,0.83143152,5.3734057,5.3526199)"
         id="g6311"
         data-name="Layer 19">
        <path
           style="fill:#ffeeaa;fill-opacity:1"
           id="path6309"
           d="m 32,0.1 a 5.27,5.27 0 0 1 5.26,5.26 c 0,3.12 -2.55,7.15 -5.26,7.15 -2.71,0 -5.26,-4 -5.26,-7.15 A 5.27,5.27 0 0 1 32,0.1 Z m 28.26,19.74 a 152,152 0 0 1 -18,1.31 10.18,10.18 0 0 0 -1,-2.61 c 9.91,0.21 15.99,0.77 19,1.3 z M 32,15.27 a 8.36,8.36 0 0 1 8,5.94 q -3.74,0.08 -8,0.08 c -2.84,0 -5.49,0 -8,-0.08 a 8.35,8.35 0 0 1 8,-5.94 z m 8.34,8.34 v 1.22 q -3.89,0.09 -8.34,0.09 -4.45,0 -8.34,-0.09 v -1.22 c 0,-0.06 0,-0.11 0,-0.17 2.68,0.06 5.47,0.09 8.33,0.09 2.86,0 5.65,0 8.33,-0.09 0.01,0.06 0.02,0.12 0.02,0.17 z M 21.72,21.15 a 152,152 0 0 1 -18,-1.31 c 3,-0.53 9.1,-1.09 19,-1.3 a 10.29,10.29 0 0 0 -1,2.61 z M 1.77,23 v -1.3 a 49.38,49.38 0 0 0 8,1.08 c 3.36,0.28 7.35,0.48 11.69,0.6 0,0.08 0,0.16 0,0.23 v 1.16 C 10.44,24.45 3.43,23.67 1.77,23 Z M 24.51,47.91 A 168.74,168.74 0 0 1 3.91,46.56 c 3.25,-0.53 9.85,-1.09 20.6,-1.29 z m -22.74,1.8 v -1.32 a 49.38,49.38 0 0 0 8,1.08 c 4.14,0.34 9.23,0.56 14.77,0.67 v 1.39 C 11.76,51.28 3.58,50.41 1.77,49.71 Z m 31.35,0.51 h 4.13 v 1.39 c -1.33,0 -2.71,0 -4.13,0 z m -2.24,1.38 c -1.42,0 -2.8,0 -4.13,0 v -1.42 h 4.13 z M 37.25,64 H 26.75 V 53.81 c 1.35,0 2.73,0 4.13,0 v 7.89 a 1.12,1.12 0 0 0 2.24,0 v -7.86 c 1.4,0 2.78,0 4.13,0 z m 25,-14.26 c -1.81,0.7 -10,1.57 -22.74,1.82 v -1.42 c 5.54,-0.11 10.63,-0.33 14.77,-0.67 a 49.38,49.38 0 0 0 8,-1.08 z m -2.14,-3.15 a 168.74,168.74 0 0 1 -20.6,1.35 v -2.67 c 10.73,0.2 17.33,0.73 20.58,1.29 z M 40.34,37 h -2 a 1.12,1.12 0 0 0 -1.12,1.12 v 9.81 H 33.09 V 37.28 a 1.12,1.12 0 1 0 -2.24,0 V 48 H 26.72 V 38.13 A 1.12,1.12 0 0 0 25.63,37 h -2 v -9.93 c 2.69,0.06 5.48,0.09 8.34,0.09 2.86,0 5.65,0 8.34,-0.09 z m 2.23,-13.63 c 4.34,-0.12 8.33,-0.32 11.69,-0.6 a 49.38,49.38 0 0 0 8,-1.08 V 23 c -1.66,0.65 -8.67,1.43 -19.65,1.75 V 23.61 C 42.58,23.54 42.57,23.46 42.57,23.38 Z M 7,11.3 A 1.12,1.12 0 0 1 8.12,10.18 H 8.54 V 9.76 a 1.12,1.12 0 0 1 2.24,0 v 0.42 h 0.42 a 1.12,1.12 0 0 1 0,2.24 h -0.42 v 0.42 a 1.12,1.12 0 0 1 -2.24,0 V 12.42 H 8.16 A 1.12,1.12 0 0 1 7,11.3 Z M 55.56,57 a 1.12,1.12 0 0 1 -1.12,1.12 H 54 v 0.42 a 1.12,1.12 0 0 1 -2.24,0 v -0.42 h -0.42 a 1.12,1.12 0 1 1 0,-2.24 h 0.42 v -0.42 a 1.12,1.12 0 0 1 2.24,0 v 0.42 h 0.42 A 1.12,1.12 0 0 1 55.56,57 Z M 45.25,35.46 V 35 h -0.42 a 1.12,1.12 0 1 1 0,-2.23 h 0.42 v -0.42 a 1.12,1.12 0 0 1 2.24,0 v 0.42 h 0.42 a 1.12,1.12 0 1 1 0,2.23 h -0.42 v 0.42 a 1.12,1.12 0 1 1 -2.24,0 z M 55.09,9 a 1.13,1.13 0 0 1 1.12,-1.12 h 0.42 V 7.42 a 1.12,1.12 0 0 1 2.24,0 v 0.42 h 0.42 a 1.12,1.12 0 0 1 0,2.24 h -0.42 v 0.42 a 1.12,1.12 0 0 1 -2.24,0 V 10.08 H 56.21 A 1.12,1.12 0 0 1 55.09,9 Z"
           inkscape:connector-curvature="0" />
      </g>
    </g>
  </g>
</svg>
