<?xml version="1.0" encoding="UTF-8" standalone="no"?>
<svg
   xmlns:dc="http://purl.org/dc/elements/1.1/"
   xmlns:cc="http://creativecommons.org/ns#"
   xmlns:rdf="http://www.w3.org/1999/02/22-rdf-syntax-ns#"
   xmlns:svg="http://www.w3.org/2000/svg"
   xmlns="http://www.w3.org/2000/svg"
   xmlns:sodipodi="http://sodipodi.sourceforge.net/DTD/sodipodi-0.dtd"
   xmlns:inkscape="http://www.inkscape.org/namespaces/inkscape"
   width="20"
   height="20"
   viewBox="0 0 20 20"
   version="1.1"
   id="svg838"
   inkscape:version="1.0.1 (3bc2e813f5, 2020-09-07)"
   sodipodi:docname="magic_water.svg">
  <defs
     id="defs832" />
  <sodipodi:namedview
     id="base"
     pagecolor="#ffffff"
     bordercolor="#666666"
     borderopacity="1.0"
     inkscape:pageopacity="0.0"
     inkscape:pageshadow="2"
     inkscape:zoom="5.6"
     inkscape:cx="-7.8093879"
     inkscape:cy="-15.202136"
     inkscape:document-units="mm"
     inkscape:current-layer="g6141"
     inkscape:document-rotation="0"
     showgrid="false"
     units="px"
     inkscape:window-width="1267"
     inkscape:window-height="1040"
     inkscape:window-x="52"
     inkscape:window-y="0"
     inkscape:window-maximized="0"
     inkscape:pagecheckerboard="true" />
  <metadata
     id="metadata835">
    <rdf:RDF>
      <cc:Work
         rdf:about="">
        <dc:format>image/svg+xml</dc:format>
        <dc:type
           rdf:resource="http://purl.org/dc/dcmitype/StillImage" />
        <dc:title></dc:title>
      </cc:Work>
    </rdf:RDF>
  </metadata>
  <g
     inkscape:label="Layer 1"
     inkscape:groupmode="layer"
     id="layer1">
    <g
       style="fill:#c87137;fill-opacity:1"
       transform="matrix(0.36174663,0,0,0.36174663,-1.5758922,-1.5758922)"
       id="g6141">
      <g
         style="fill:#00ffff"
         transform="matrix(0.57436377,0,0,0.57436377,13.244763,6.1536023)"
         id="g5917"
         data-name="Layer 2">
        <path
           style="fill:#00ffff"
           id="path5915"
           transform="translate(-15.34,-3)"
           d="M 73.13,38.07 47.93,3 21.46,41.27 a 33,33 0 0 0 -5,27.73 32.3,32.3 0 0 0 24.27,23.2 33.31,33.31 0 0 0 7.2,0.8 32.65,32.65 0 0 0 32.73,-32.67 c 0,-6.86 -2.47,-14.26 -7.53,-22.26 z M 50.25,81 a 3.33,3.33 0 1 1 0,-6.66 11.27,11.27 0 0 0 11.25,-11.22 3.33,3.33 0 0 1 6.66,0 A 17.93,17.93 0 0 1 50.25,81 Z"
           inkscape:connector-curvature="0" />
      </g>
    </g>
  </g>
</svg>
