<?xml version="1.0" encoding="UTF-8" standalone="no"?>
<svg
   xmlns:dc="http://purl.org/dc/elements/1.1/"
   xmlns:cc="http://creativecommons.org/ns#"
   xmlns:rdf="http://www.w3.org/1999/02/22-rdf-syntax-ns#"
   xmlns:svg="http://www.w3.org/2000/svg"
   xmlns="http://www.w3.org/2000/svg"
   xmlns:sodipodi="http://sodipodi.sourceforge.net/DTD/sodipodi-0.dtd"
   xmlns:inkscape="http://www.inkscape.org/namespaces/inkscape"
   width="20"
   height="20"
   viewBox="0 0 20 20"
   version="1.1"
   id="svg838"
   inkscape:version="1.0.1 (3bc2e813f5, 2020-09-07)"
   sodipodi:docname="magic_earth.svg">
  <defs
     id="defs832" />
  <sodipodi:namedview
     id="base"
     pagecolor="#ffffff"
     bordercolor="#666666"
     borderopacity="1.0"
     inkscape:pageopacity="0.0"
     inkscape:pageshadow="2"
     inkscape:zoom="22.4"
     inkscape:cx="7.2790196"
     inkscape:cy="12.91007"
     inkscape:document-units="mm"
     inkscape:current-layer="layer1"
     inkscape:document-rotation="0"
     showgrid="false"
     units="px"
     inkscape:window-width="1267"
     inkscape:window-height="1040"
     inkscape:window-x="52"
     inkscape:window-y="0"
     inkscape:window-maximized="0"
     inkscape:pagecheckerboard="true" />
  <metadata
     id="metadata835">
    <rdf:RDF>
      <cc:Work
         rdf:about="">
        <dc:format>image/svg+xml</dc:format>
        <dc:type
           rdf:resource="http://purl.org/dc/dcmitype/StillImage" />
        <dc:title></dc:title>
      </cc:Work>
    </rdf:RDF>
  </metadata>
  <g
     inkscape:label="Layer 1"
     inkscape:groupmode="layer"
     id="layer1">
    <g
       transform="matrix(3.7795276,0,0,3.7795276,-83.942182,-59.244777)"
       id="g6113">
      <path
         inkscape:connector-curvature="0"
         d="m 26.086323,16.752716 a 0.20629683,0.20629683 0 0 1 0.124711,0.0979 0.20862787,0.20862787 0 0 1 -0.181821,0.308863 v 0 a 0.18531749,0.18531749 0 0 1 -0.05594,-0.0082 1.2319534,1.2319534 0 0 0 -0.333338,-0.04895 1.0722773,1.0722773 0 0 0 -0.565277,0.15851 v 0.210959 c 0.25991,0.14569 0.699311,-0.364807 2.200499,-0.252918 0,0 -0.883463,-0.748263 -1.671354,-0.717959 -0.341497,0.01865 -0.536138,0.162007 -0.631711,0.341497 a 1.4720503,1.4720503 0 0 1 0.662015,-0.15618 1.6317264,1.6317264 0 0 1 0.452221,0.06643 z"
         id="path6075"
         style="fill:#008000;stroke-width:0.116552" />
      <path
         inkscape:connector-curvature="0"
         d="m 24.651569,17.463683 0.0082,-0.007 v -0.181821 a 1.0617877,1.0617877 0 0 0 -0.585091,-0.172497 1.2564293,1.2564293 0 0 0 -0.336835,0.04779 0.18065542,0.18065542 0 0 1 -0.05594,0.0082 0.20746236,0.20746236 0 0 1 -0.05711,-0.4056 1.6317264,1.6317264 0 0 1 0.448725,-0.06527 1.4720503,1.4720503 0 0 1 0.665511,0.155014 c -0.09557,-0.17949 -0.290214,-0.322849 -0.631711,-0.341497 -0.787891,-0.0303 -1.671354,0.717959 -1.671354,0.717959 1.531491,-0.116552 1.953409,0.418421 2.215651,0.244759 z"
         id="path6077"
         style="fill:#008000;stroke-width:0.116552" />
      <path
         inkscape:connector-curvature="0"
         d="m 23.65272,16.85062 a 0.10422274,0.10422274 0 0 0 0.05711,0.200469 1.1818361,1.1818361 0 0 1 1.048967,0.172497 c 0,0 0,0.0058 0,0.0093 v 0.791387 c 0.0338,0 0.06877,0 0.103731,0 a 1.0128359,1.0128359 0 0 1 0.103731,0.0058 v -0.792552 a 0.09673806,0.09673806 0 0 0 0,-0.02564 1.2004844,1.2004844 0 0 1 1.033816,-0.15618 0.10422289,0.10422289 0 0 0 0.05711,-0.200469 1.3986226,1.3986226 0 0 0 -1.20165,0.177159 1.3986226,1.3986226 0 0 0 -1.202815,-0.181821 z"
         id="path6079"
         style="fill:#c87137;stroke-width:0.116552" />
      <path
         inkscape:connector-curvature="0"
         d="m 26.487262,19.072099 a 0.82751836,0.82751836 0 0 0 -0.790222,-0.582759 0.81586319,0.81586319 0 0 0 -0.201635,0.02564 0.82751836,0.82751836 0 0 0 -1.261091,0.01049 0.81586319,0.81586319 0 0 0 -0.240097,-0.03613 0.82868391,0.82868391 0 0 0 -0.791388,0.582759 H 22.05829 v 2.128237 h 5.594491 v -2.128237 z"
         id="path6081"
         style="fill:#c87137;stroke-width:0.116552" />
    </g>
  </g>
</svg>
