<?xml version="1.0" encoding="UTF-8" standalone="no"?>
<svg
   xmlns:dc="http://purl.org/dc/elements/1.1/"
   xmlns:cc="http://creativecommons.org/ns#"
   xmlns:rdf="http://www.w3.org/1999/02/22-rdf-syntax-ns#"
   xmlns:svg="http://www.w3.org/2000/svg"
   xmlns="http://www.w3.org/2000/svg"
   xmlns:sodipodi="http://sodipodi.sourceforge.net/DTD/sodipodi-0.dtd"
   xmlns:inkscape="http://www.inkscape.org/namespaces/inkscape"
   width="20"
   height="20"
   viewBox="0 0 20 20"
   version="1.1"
   id="svg838"
   inkscape:version="1.0.1 (3bc2e813f5, 2020-09-07)"
   sodipodi:docname="magic_earth_master.svg">
  <style></style>
  <defs
     id="defs832" />
  <sodipodi:namedview
     id="base"
     pagecolor="#ffffff"
     bordercolor="#666666"
     borderopacity="1.0"
     inkscape:pageopacity="0.0"
     inkscape:pageshadow="2"
     inkscape:zoom="22.4"
     inkscape:cx="10.07962"
     inkscape:cy="5.0431545"
     inkscape:document-units="mm"
     inkscape:current-layer="g6141"
     inkscape:document-rotation="0"
     showgrid="false"
     units="px"
     inkscape:window-width="1267"
     inkscape:window-height="1040"
     inkscape:window-x="52"
     inkscape:window-y="0"
     inkscape:window-maximized="0"
     inkscape:pagecheckerboard="true" />
  <metadata
     id="metadata835">
    <rdf:RDF>
      <cc:Work
         rdf:about="">
        <dc:format>image/svg+xml</dc:format>
        <dc:type
           rdf:resource="http://purl.org/dc/dcmitype/StillImage" />
        <dc:title />
      </cc:Work>
    </rdf:RDF>
  </metadata>
  <g
     inkscape:label="Layer 1"
     inkscape:groupmode="layer"
     id="layer1">
    <g
       style="fill:#c87137;fill-opacity:1"
       transform="matrix(0.36174663,0,0,0.36174663,-1.5758922,-1.5758922)"
       id="g6141">
      <path
         style="fill:#668000;fill-opacity:1"
         id="path6115"
         d="m 32.915896,17.115677 c 0.763,0.59 1.445,1.19 2.086,1.79 h 3.3 v 2 h -1.422 c 3.873,4.715 3.965,9.609 0.222,14.6 a 14.929,14.929 0 0 0 -3.171,6.4 h 1.371 v 2 h -1.466 a 11.582,11.582 0 0 0 1.105,4 h 2.075 a 10.594,10.594 0 0 1 1.049,-8 h -0.763 v -2 h 1.7 a 46.317,46.317 0 0 0 2.345,-6.285 20.407,20.407 0 0 0 1.01,-7.715 h -2.055 v -2 h 1.683 c -1.118,-3.722 -4.173,-5.446 -7.172,-7.128 -5,-2.806 -5.5,-7.7510003 -5.764,-10.7890003 -1.071,3.27 -1.693,8.8030003 3.867,13.1270003 z"
         inkscape:connector-curvature="0" />
      <path
         style="fill:#c87137;fill-opacity:1;stroke-width:1.23075"
         id="path6117"
         d="M 4,47.882057 V 60 H 60 V 47.882057 Z m 4,9.088457 H 6 v -3.029486 h 2 z m 4,-3.029486 h -2 v -3.029486 h 2 z m 9,3.029486 h -6 v -3.029486 h 6 z m 13,-3.029486 h -2 v -3.029486 h 2 z m 10,3.029486 h -4 v -3.029486 h 4 z m 14,0 h -2 v -3.029486 h -2 v -3.029486 h 2 v 3.029486 h 2 z"
         inkscape:connector-curvature="0" />
      <path
         style="fill:#668000;fill-opacity:1"
         id="path6119"
         d="m 30.287272,17.820677 c 0.181,0.162 0.322,0.29 0.413,0.381 0.065,0.067 0.166,0.157 0.292,0.27 7.274,6.568 4.422,12.922 0.748,17.1 -6.138,6.971 -4.834,11.115 -4.2,12.339 h 6.915 c -2.351,-5.993 0.145,-10.149 2.733,-13.6 1.482,-1.975 5.989,-7.986 -3.814,-15.61 a 12.96,12.96 0 0 1 -4.946,-13.7570003 c -5.254,6.4850003 0.079,11.2810003 1.859,12.8770003 z"
         inkscape:connector-curvature="0" />
      <path
         style="fill:#c87137;fill-opacity:1"
         id="path6121"
         d="m 19,24.905677 a 3,3 0 1 0 3,-3 3,3 0 0 0 -3,3 z m 3,-1 a 1,1 0 1 1 -1,1 1,1 0 0 1 1,-1 z"
         inkscape:connector-curvature="0" />
      <path
         style="fill:#c87137;fill-opacity:1"
         id="path6125"
         d="m 52,19.905677 a 3,3 0 1 0 -3,-3 3,3 0 0 0 3,3 z m 0,-4 a 1,1 0 1 1 -1,1 1,1 0 0 1 1,-1 z"
         inkscape:connector-curvature="0" />
      <path
         style="fill:#c87137;fill-opacity:1"
         id="path6127"
         d="m 16,39.905677 a 4,4 0 1 0 -4,-4 4,4 0 0 0 4,4 z m 0,-6 a 2,2 0 1 1 -2,2 2,2 0 0 1 2,-2 z"
         inkscape:connector-curvature="0" />
      <path
         style="fill:#c87137;fill-opacity:1"
         id="path6129"
         d="m 50,37.905677 a 3,3 0 1 0 -3,-3 3,3 0 0 0 3,3 z m 0,-4 a 1,1 0 1 1 -1,1 1,1 0 0 1 1,-1 z"
         inkscape:connector-curvature="0" />
      <rect
         style="fill:#c87137;fill-opacity:1"
         id="rect6131"
         height="2"
         width="2"
         y="7.9056768"
         x="18" />
      <rect
         style="fill:#c87137;fill-opacity:1"
         id="rect6133"
         height="2"
         width="2"
         y="30.905676"
         x="24" />
      <rect
         style="fill:#c87137;fill-opacity:1"
         id="rect6135"
         height="2"
         width="2"
         y="12.905677"
         x="44" />
      <rect
         style="fill:#c87137;fill-opacity:1"
         id="rect6137"
         height="2"
         width="2"
         y="24.905676"
         x="49" />
      <rect
         style="fill:#c87137;fill-opacity:1"
         id="rect6139"
         height="2"
         width="2"
         y="42.905678"
         x="43" />
    </g>
  </g>
</svg>
