<?xml version="1.0" encoding="UTF-8" standalone="no"?>
<svg
   xmlns:dc="http://purl.org/dc/elements/1.1/"
   xmlns:cc="http://creativecommons.org/ns#"
   xmlns:rdf="http://www.w3.org/1999/02/22-rdf-syntax-ns#"
   xmlns:svg="http://www.w3.org/2000/svg"
   xmlns="http://www.w3.org/2000/svg"
   xmlns:sodipodi="http://sodipodi.sourceforge.net/DTD/sodipodi-0.dtd"
   xmlns:inkscape="http://www.inkscape.org/namespaces/inkscape"
   width="20"
   height="20"
   viewBox="0 0 20 20"
   version="1.1"
   id="svg838"
   inkscape:version="1.0.1 (3bc2e813f5, 2020-09-07)"
   sodipodi:docname="magic_dark.svg">
  <defs
     id="defs832" />
  <sodipodi:namedview
     id="base"
     pagecolor="#ffffff"
     bordercolor="#666666"
     borderopacity="1.0"
     inkscape:pageopacity="0.0"
     inkscape:pageshadow="2"
     inkscape:zoom="22.4"
     inkscape:cx="7.6526256"
     inkscape:cy="4.0017129"
     inkscape:document-units="mm"
     inkscape:current-layer="layer1"
     inkscape:document-rotation="0"
     showgrid="false"
     units="px"
     inkscape:window-width="1267"
     inkscape:window-height="1040"
     inkscape:window-x="52"
     inkscape:window-y="0"
     inkscape:window-maximized="0"
     inkscape:pagecheckerboard="true" />
  <metadata
     id="metadata835">
    <rdf:RDF>
      <cc:Work
         rdf:about="">
        <dc:format>image/svg+xml</dc:format>
        <dc:type
           rdf:resource="http://purl.org/dc/dcmitype/StillImage" />
        <dc:title />
      </cc:Work>
    </rdf:RDF>
  </metadata>
  <g
     inkscape:label="Layer 1"
     inkscape:groupmode="layer"
     id="layer1">
    <g
       id="g846">
      <path
         id="path6191"
         style="fill:#ff00ff;stroke-width:0.206914"
         d="M 17.577558,11.9311 C 18.336555,10.770325 16.385522,6.1030815 17.419575,9.3885146 17.594021,10.222376 17.655824,11.081929 17.577558,11.9311 Z" />
      <path
         id="path6197"
         style="fill:#ff00ff;stroke-width:0.206914"
         d="M 10.502141,18.430262 C 5.5438549,19.124243 0.45470225,14.929064 0.60360324,9.8284344 0.5786467,8.7765396 1.1161595,5.2462973 0.39792759,7.9638074 -0.35008872,12.217856 2.5351203,16.717897 6.4877758,18.244293 c 4.1219072,1.629344 9.5897602,-0.443708 10.8039842,-4.89667 0.528134,-1.895214 -1.076133,2.711444 -2.381442,3.133527 -1.231349,1.067771 -2.780463,1.785732 -4.408177,1.949112 z" />
      <path
         id="path6201"
         style="fill:#ff00ff;stroke-width:0.206914"
         d="M 17.750538,4.5142751 C 15.000177,1.8320227 10.698633,-0.01305513 7.0069706,1.8744357 2.9859444,3.6354052 0.77528741,8.9147932 3.0333202,12.85482 4.0853399,14.921912 5.9683474,16.564043 8.1826377,17.271545 3.7932146,16.480709 0.37798921,11.62403 1.9192166,7.252902 2.8128305,3.5409826 6.2255805,0.62808683 10.065015,0.47124198 8.2671031,0.24977969 5.3651951,1.2592268 3.8156702,2.8723161 -0.09427591,6.3624608 0.26352372,13.605784 4.8525482,16.368443 c 2.1380438,1.681318 5.0238821,1.725968 7.4688818,0.7723 4.125853,-1.388863 6.245553,-6.805323 3.904128,-10.5478061 0.02465,-1.4877925 -3.119163,-3.3333735 -2.965667,-3.8918655 4.538044,1.6433768 6.868517,7.5280026 4.43383,11.7635806 -0.687124,2.342438 -4.433177,4.502159 -5.624003,4.713687 3.362134,-0.831984 6.200934,-3.632984 6.647908,-7.133575 C 19.579947,8.1799307 17.311301,4.0085474 13.623631,2.5966101 9.5936859,0.88595775 4.3888072,3.1814919 3.2392629,7.4858546 2.4536467,9.4601149 3.1935113,12.17413 4.2197248,13.499151 0.87188566,9.8450427 3.2001482,3.5511461 7.5608647,1.9019175 11.806504,0.03878207 16.89636,2.6858257 18.585186,6.8243032 c 1.141785,1.8445157 0.949616,5.5992128 0.631818,6.5903128 1.0946,-2.956097 0.40079,-6.4101408 -1.466466,-8.9003409 z M 4.3743894,10.299998 C 3.9314111,9.0663544 5.5677301,5.4515889 4.5964361,8.4967428 3.9767127,11.393673 5.9567841,14.666916 9.0156665,14.903452 11.839334,15.34519 14.927444,12.896683 14.407869,9.9152585 14.315262,9.0366915 13.322929,7.2482095 14.103375,9.1754913 14.883432,12.429325 11.323944,15.422129 8.2373114,14.352733 5.1193712,13.409972 3.7110272,9.2398505 5.712738,6.624474 6.8644957,4.3331981 10.75694,4.1315508 12.104378,4.6540987 8.5133229,3.3626519 4.2225938,6.8946242 5.1986208,10.703189 c 0.040828,1.555639 2.5331504,3.3544 2.9656285,3.261588 C 5.1269194,12.562431 4.380304,7.7416973 7.322024,5.8248022 10.35182,3.4016643 15.32386,5.7358407 15.640367,9.5297075 15.901546,10.751145 15.010165,13.495151 15.567503,10.881572 15.863365,7.3049836 11.963115,3.664943 8.4507527,5.3114061 6.0579113,6.3676598 4.7139816,9.831783 6.5630857,11.946133 4.5763587,9.2229751 7.2255727,5.0009703 10.513735,5.3455576 c 3.260084,0.03696 5.660276,3.7979679 4.346782,6.7844064 -1.057623,2.953731 -4.856321,4.319329 -7.6057129,2.902341 3.2370179,1.58245 7.7431989,-0.698754 7.7990549,-4.456096 0.0943,-2.1155583 -1.284005,-4.3276649 -3.394367,-4.8580669 2.762149,1.6387926 3.955077,6.1084139 1.196081,8.2938289 -2.56163,2.094254 -6.9098154,0.890125 -8.0031183,-2.252472 C 4.6407045,11.292288 4.480404,10.801855 4.3743894,10.299998 Z" />
    </g>
  </g>
</svg>
