<?xml version="1.0" encoding="UTF-8" standalone="no"?>
<svg
   xmlns:dc="http://purl.org/dc/elements/1.1/"
   xmlns:cc="http://creativecommons.org/ns#"
   xmlns:rdf="http://www.w3.org/1999/02/22-rdf-syntax-ns#"
   xmlns:svg="http://www.w3.org/2000/svg"
   xmlns="http://www.w3.org/2000/svg"
   xmlns:sodipodi="http://sodipodi.sourceforge.net/DTD/sodipodi-0.dtd"
   xmlns:inkscape="http://www.inkscape.org/namespaces/inkscape"
   width="20"
   height="20"
   viewBox="0 0 20 20"
   version="1.1"
   id="svg838"
   inkscape:version="1.0.1 (3bc2e813f5, 2020-09-07)"
   sodipodi:docname="mouth_neko.svg">
  <defs
     id="defs832" />
  <sodipodi:namedview
     id="base"
     pagecolor="#ffffff"
     bordercolor="#666666"
     borderopacity="1.0"
     inkscape:pageopacity="0.0"
     inkscape:pageshadow="2"
     inkscape:zoom="2.8284272"
     inkscape:cx="1.9532772"
     inkscape:cy="-4.841152"
     inkscape:document-units="mm"
     inkscape:current-layer="g893"
     inkscape:document-rotation="0"
     showgrid="false"
     units="px"
     inkscape:window-width="1351"
     inkscape:window-height="1040"
     inkscape:window-x="542"
     inkscape:window-y="0"
     inkscape:window-maximized="0"
     inkscape:pagecheckerboard="true" />
  <metadata
     id="metadata835">
    <rdf:RDF>
      <cc:Work
         rdf:about="">
        <dc:format>image/svg+xml</dc:format>
        <dc:type
           rdf:resource="http://purl.org/dc/dcmitype/StillImage" />
        <dc:title />
      </cc:Work>
    </rdf:RDF>
  </metadata>
  <g
     inkscape:label="Layer 1"
     inkscape:groupmode="layer"
     id="layer1">
    <g
       id="g5235"
       transform="matrix(0.23657731,0,0,0.23657731,-1.9664226,-5.7697508)"
       style="fill:#ffff00;fill-opacity:1">
      <g
         id="g837"
         transform="matrix(0.78672054,0,0,0.88232274,11.116028,2.9129043)">
        <path
           style="fill:#784421;fill-opacity:1"
           d="M 87.6,3.8 62.9,-7.0077922 c -2.6,-0.8 -5.3,-1.3 -8.1,-1.6 -1.4,-0.1 -2.9,-0.2 -4.4,-0.2 -1.5,0 -2.9,0.1 -4.4,0.2 -2.6,0.3 -5.1,0.7 -7.6,1.4 L 13.7,3 C 7.2,1.3 1.3,7.1 2.9,13.6 L 0.24610389,37.2 C -1.4538961,42 6,47.1 6,52.4 v 1.1 0.6 l 0.2,0.2 c 4.6,5 7.9,11 9.7,17.5 0.5,1.9 0.9,3.9 1.2,5.9 0.2,1.3 0.3,2.7 0.3,4.1 v 0.3 l 0.2,0.2 0.4,0.4 c 1.4,1.5 2.9,2.9 4.5,4.2 7.8,6.3 17.7,9.9 27.9,9.9 10.7,0 20.8,-3.8 28.9,-10.7 0.7,-0.6 1.4,-1.3 2.1,-1.9 L 81.6,84 v -1.1 c 0,-0.7 0,-1.4 0.1,-2.1 0.1,-1.5 0.2,-3 0.5,-4.4 0.3,-1.9 0.7,-3.7 1.2,-5.5 2,-6.8 5.8,-13.1 11.1,-18.2 l 0.2,-0.2 v -0.3 c 0,-5.2 7.4539,-10.1 5.7539,-14.8 L 98.2,14.7 C 100,8.1 94.1,2.1 87.6,3.8 Z"
           id="path5233"
           sodipodi:nodetypes="cccscccccscccccsccccscccscccccsccc" />
        <path
           style="fill:#c87137;fill-opacity:1"
           d="M 93.2,51.7 C 87.7,57 83.9,63.5 81.8,70.6 l -1.2,5.1 c -0.2,1.3 -0.4,2.7 -0.5,4.1 -3.185173,-0.902905 -1.585173,-0.302905 -3.185173,-0.902905 -1.6,-0.6 -3,-1 -4,-1.3 -1,-0.3 -1.6,-0.4 -1.6,-0.4 0,0 0.3,0.5 0.9,1.4 0.6,0.8 1.5,2 2.7,3.3 C 76.314827,83.397095 76,83.5 77.9,85 70.2,91.6 60.5,95.2 50.3,95.2 c -9.7,0 -19.1,-3.3 -26.6,-9.3 2,-1.6 1.181467,-1.403486 2.581467,-2.903486 1.2,-1.3 2.1,-2.4 2.7,-3.3 0.6,-0.8 0.9,-1.4 0.9,-1.4 0,0 -0.6,0.1 -1.6,0.4 -1,0.3 -2.4,0.7 -4,1.3 C 22.081467,80.796514 21.9,80.3 19.3,81.9 l -0.4,-0.4 c 0,-1.4 -0.2,-2.8 -0.3,-4.2 L 17.4,71.6 C 15.6,64.9 12.3,58.6 7.5,53.5 v 0 -1.1 c 0,-10.3 3.6,-27.026382 9.7,-34.426382 l 3.3,3 c 1.9,1.8 3.7,3.6 5.3,5.4 0.8,0.9 1.5,1.8 2.2,2.7 0.7,0.9 1.2,1.7 1.8,2.6 0.5,0.8 1,1.6 1.3,2.3 0.4,0.7 0.6,1.4 0.9,2 0.4,1.1 0.7,1.8 0.7,1.8 0,0 0.1,-0.2 0.2,-0.5 0.1,-0.3 0.3,-0.8 0.3,-1.5 0.1,-0.6 0.2,-1.4 0.2,-2.3 0,-0.9 -0.1,-2 -0.3,-3.1 -0.1,-0.6 -0.3,-1.1 -0.4,-1.7 l -0.6,-1.8 c -0.5,-1.2 -1.1,-2.4 -1.8,-3.7 -0.7,-1.2 -1.5,-2.4 -2.5,-3.5 -0.9,-1.1 -2,-2.2 -3,-3.2 -1.1,-1 -2.2,-1.9 -3.3,-2.8 0,0 -0.1,0 -0.1,-0.1 2,-1.8 4.2,-3.5 6.5,-4.9 0.2,0.2 0.3,0.4 0.5,0.6 0.4,0.6 0.9,1.2 1.3,1.9 1,1.2 1.7,2.7 2.6,4 0.4,0.7 0.7,1.5 1.1,2.2 0.4,0.7 0.8,1.4 1.1,2.2 l 1,2.2 0.5,1.1 0.4,1.2 c 0.5,1.6 1.3,3 1.7,4.5 0.5,1.5 1,3 1.5,4.4 0.4,1.4 0.8,2.8 1.2,4.1 l 0.6,1.8 c 0.2,0.6 0.3,1.2 0.5,1.7 0.3,1.1 0.6,2 0.9,2.8 0.5,1.5 0.9,2.4 0.9,2.4 0,0 0.3,-0.9 0.7,-2.5 0.2,-0.8 0.4,-1.8 0.6,-2.9 l 0.3,-1.8 c 0.1,-0.6 0.1,-1.3 0.1,-2 0.1,-1.4 0.1,-2.9 0.1,-4.6 -0.1,-1.6 -0.4,-3.3 -0.6,-5.1 -0.1,-0.4 -0.1,-0.9 -0.2,-1.3 -0.1,-0.4 -0.2,-0.9 -0.4,-1.3 -0.2,-0.9 -0.5,-1.8 -0.8,-2.7 -0.4,-1.8 -1.4,-3.6 -2.1,-5.4 -0.8,-1.8 -1.9,-3.4 -2.9,-5 -0.6,-0.8 -1.2,-1.5 -1.8,-2.2 l -0.9,-1.1 c -0.3,-0.4 -0.7,-0.7 -1,-1 -0.4,-0.4 -0.8,-0.7 -1.2,-1.1 3.8,-1.6 7.8,-2.7 12.1,-3.1 0,0.6 -0.1,1.1 -0.1,1.7 0,3.5 0.8,6.9 1.9,9.5 0.6,1.3 1.2,2.4 1.8,3.1 0.2,0.4 0.690863,1.182686 0.7,0.9 l 0.3,0.3 0.3,-0.3 c 0.1,-0.2 0.4,-0.5 0.7,-0.9 0.5,-0.8 1.2,-1.8 1.8,-3.1 1.2,-2.6 2,-6.1 1.9,-9.5 0,-0.6 -0.1,-1.1 -0.1,-1.7 4.3,0.5 8.5,1.6 12.4,3.3 -0.3,0.3 -0.7,0.6 -1,1 -0.3,0.3 -0.7,0.6 -1,1 l -0.9,1.1 c -0.6,0.7 -1.2,1.5 -1.8,2.2 -1,1.6 -2.1,3.3 -2.9,5 -0.7,1.6 -1.7,3.4 -2.1,5.2 -0.3,0.9 -0.5,1.8 -0.8,2.7 -0.1,0.4 -0.2,0.9 -0.4,1.3 -0.1,0.4 -0.1,0.9 -0.2,1.3 -0.3,1.8 -0.5,3.5 -0.6,5.1 0,1.6 0,3.2 0.1,4.6 0,0.7 0,1.4 0.1,2 l 0.3,1.8 c 0.2,1.1 0.4,2.1 0.6,2.9 0.4,1.6 0.7,2.5 0.7,2.5 0,0 0.4,-0.9 0.9,-2.4 0.2,-0.8 0.6,-1.7 0.9,-2.8 0.1,-0.5 0.3,-1.1 0.5,-1.7 l 0.6,-1.8 c 0.4,-1.3 0.8,-2.6 1.2,-4.1 0.5,-1.4 1,-2.9 1.5,-4.4 0.4,-1.5 1.641974,-2.936004 1.7,-4.5 l 0.4,-1.2 0.5,-1.1 1,-2.2 c 0.3,-0.8 0.7,-1.5 1.1,-2.2 0.4,-0.7 0.8,-1.4 1.1,-2.2 0.9,-1.3 1.6,-2.8 2.6,-4 0.4,-0.6 0.9,-1.2 1.3,-1.9 0.1,-0.1 0.2,-0.3 0.3,-0.4 2.3,1.4 4.4,3.1 6.4,4.9 -1.1,0.8 -2.1,1.7 -3.1,2.6 -1,1 -2.1,2.1 -3,3.2 -0.9,1.1 -1.8,2.3 -2.5,3.5 -0.7,1.2 -1.3,2.4 -1.8,3.7 l -0.6,1.8 c -0.1,0.6 -0.3,1.2 -0.4,1.7 -0.2,1.1 -0.3,2.2 -0.3,3.1 -0.1,0.9 0.1,1.7 0.2,2.3 0.1,0.6 0.3,1.1 0.3,1.5 0.1,0.3 0.2,0.5 0.2,0.5 0,0 0.3,-0.7 0.7,-1.8 0.3,-0.6 0.5,-1.2 0.9,-2 0.3,-0.7 0.8,-1.5 1.3,-2.3 0.5,-0.8 1.1,-1.7 1.8,-2.6 0.7,-0.9 1.4,-1.8 2.2,-2.7 1.6,-1.8 3.4,-3.6 5.3,-5.4 l 3,-2.7 C 89.5,25.473618 93,41.8 93.2,51.7 Z"
           id="path1199"
           sodipodi:nodetypes="ccccssccccsccccscccccscsccssccccscsccccccccccccscccccccscccscscccsccccccsccsccscccsccccccccccccccscscccscccscccsccccccssccccsccccsssccc" />
        <path
           inkscape:connector-curvature="0"
           d="m 61.7,57.592208 c -0.1,-0.1 -0.3,-0.2 -0.5,-0.2 l -10,1.6 c -0.6,0.1 -1.3,0.1 -1.9,0 l -10,-1.6 c -0.2,0 -0.4,0 -0.5,0.2 -0.3,0.4 -0.5,0.9 -0.5,1.3 v 0 c 0,0 0,0.1 0,0.1 0,0.2 0,0.4 0,0.6 0.4,2.9 2.7,5.2 5.7,5.5 -0.3,-0.2 -0.5,-0.6 -0.5,-1 0,-0.7 0.5,-1.3 1.2,-1.3 0.7,0 1.3,0.5 1.3,1.2 0,0.5 -0.3,1 -0.8,1.2 1.6,0.9 2.6,2.5 2.5,4.2 l 0.5,0.5 c 1.2,1.2 3.1,1.2 4.2,0 l 0.5,-0.5 c -0.1,-1.8 1,-3.5 2.7,-4.3 -0.4,-0.2 -0.6,-0.6 -0.6,-1 0,-0.7 0.6,-1.3 1.3,-1.2 0.7,0 1.3,0.6 1.2,1.3 0,0.4 -0.2,0.7 -0.4,0.9 2.7,-0.5 4.7,-2.7 5.1,-5.5 0,-0.2 0.1,-0.4 0,-0.6 0,0 0,-0.1 0,-0.1 v 0 c 0,-0.5 -0.2,-0.9 -0.5,-1.3 z"
           id="path5227"
           style="fill:#2b1100;fill-opacity:1" />
        <g
           id="g906"
           transform="matrix(1.5031194,0,0,1.3402521,0.83875501,74.655589)"
           style="fill:#000000">
          <g
             id="g893"
             style="fill:#000000"
             transform="translate(1.033032,-49.743125)">
            <path
               id="path36"
               style="fill:#2b1100;stroke-width:1.62843"
               d="m 29.390469,52.780153 c -2.196368,1.394093 -4.987035,1.853712 -7.498047,1.145856 -1.121614,0.526333 -1.111658,2.533878 -0.02445,3.051437 3.549199,1.213962 7.508939,-0.374865 10.155152,-2.864307 2.637981,2.272064 6.282961,4.109653 9.815393,3.004346 1.353262,-0.345849 1.473231,-2.507286 0.333246,-3.17866 -1.704729,0.508895 -3.551958,0.591542 -5.224281,-0.08972 -1.793977,-0.669067 -3.343361,-1.824841 -4.916667,-2.888991 -0.880113,0.606679 -1.760226,1.213359 -2.640338,1.820039 z" />
            <g
               id="g850"
               style="fill:#4d4d4d">
              <path
                 id="path38"
                 style="fill:#4d4d4d;stroke-width:1.15797"
                 d="m 10.792969,38.654297 c -2.3192438,0.01958 -4.6936087,0.191911 -6.9746096,0.726562 -0.839646,0.382554 -0.203724,1.821486 0.6533376,1.460188 5.3347525,-0.938305 11.091605,-0.944358 16.053694,1.479265 0.595977,0.304442 1.431817,1.184362 2.064453,0.501954 0.418448,-0.509907 0.08505,-1.23285 -0.501791,-1.418624 C 18.73286,39.313 14.679465,38.670318 10.792969,38.654297 Z" />
              <path
                 id="path40"
                 style="fill:#4d4d4d;stroke-width:1.15797"
                 d="m 14.587891,43.345703 c -2.594233,-0.01489 -5.2994571,0.397221 -7.6113285,1.726563 -0.6967237,0.594303 0.284242,1.797867 1.0160265,1.22967 4.176939,-1.989797 9.097396,-1.567987 13.353114,-0.05975 0.617004,0.521679 1.808681,-0.137468 1.357422,-0.951172 -0.517418,-0.730059 -1.546803,-0.718962 -2.312838,-1.047599 -1.887751,-0.542681 -3.854136,-0.861903 -5.802396,-0.897714 z" />
              <path
                 id="path42"
                 style="fill:#4d4d4d;stroke-width:1.15797"
                 d="m 17.90625,47.441406 c -2.320182,0.08822 -4.657507,0.825261 -6.564453,2.152344 -0.547049,0.654014 0.448656,1.733789 1.118333,1.111284 2.703183,-1.576033 6.096318,-2.253907 9.082209,-1.080633 0.659421,0.487557 1.480521,-0.299322 1.186177,-0.991589 -0.378551,-0.616734 -1.231563,-0.648651 -1.830078,-0.880859 -0.977832,-0.233672 -1.987025,-0.338849 -2.992188,-0.310547 z" />
              <path
                 id="path44"
                 style="fill:#4d4d4d;stroke-width:1.15797"
                 d="m 53.613281,38.650391 c -4.195483,-0.01846 -8.652118,0.647318 -12.195312,3.078125 -0.558099,0.565369 0.13783,1.725892 0.894767,1.267526 0.861511,-0.47823 1.683561,-1.028061 2.634614,-1.331394 4.659124,-1.804512 9.820548,-1.655351 14.664355,-0.809466 0.754898,0.182742 1.352343,-0.846722 0.720326,-1.345416 -0.796593,-0.492489 -1.802902,-0.367539 -2.694805,-0.571491 -1.332418,-0.164826 -2.694671,-0.275427 -4.023945,-0.287884 z" />
              <path
                 id="path46"
                 style="fill:#4d4d4d;stroke-width:1.15797"
                 d="m 50,43.341797 c -2.893896,0.02404 -5.92408,0.482334 -8.582031,1.732422 -0.625379,0.610916 0.267382,1.771925 1.018657,1.24231 4.183593,-1.521929 9.00882,-2.024472 13.175199,-0.184208 0.519903,0.402716 1.541904,0.415246 1.644034,-0.395993 -0.0045,-0.992077 -1.242307,-1.114753 -1.93164,-1.460937 C 53.622928,43.668528 51.770512,43.37036 50,43.341797 Z" />
              <path
                 id="path48"
                 style="fill:#4d4d4d;stroke-width:1.15797"
                 d="m 44.900391,47.466797 c -1.23819,0.173752 -2.622076,0.247281 -3.605469,1.111328 -0.403947,0.692673 0.549137,1.547654 1.197438,1.05356 3.079539,-1.223726 6.590648,-0.427159 9.343578,1.237456 0.830011,0.231598 1.409058,-1.153813 0.527728,-1.475004 -2.193138,-1.417735 -4.901179,-2.102046 -7.463275,-1.92734 z" />
            </g>
          </g>
        </g>
      </g>
    </g>
  </g>
</svg>
