<?xml version="1.0" encoding="UTF-8" standalone="no"?>
<svg
   xmlns:dc="http://purl.org/dc/elements/1.1/"
   xmlns:cc="http://creativecommons.org/ns#"
   xmlns:rdf="http://www.w3.org/1999/02/22-rdf-syntax-ns#"
   xmlns:svg="http://www.w3.org/2000/svg"
   xmlns="http://www.w3.org/2000/svg"
   xmlns:sodipodi="http://sodipodi.sourceforge.net/DTD/sodipodi-0.dtd"
   xmlns:inkscape="http://www.inkscape.org/namespaces/inkscape"
   width="20"
   height="20"
   viewBox="0 0 20 20"
   version="1.1"
   id="svg838"
   inkscape:version="1.0.1 (3bc2e813f5, 2020-09-07)"
   sodipodi:docname="mouth_orc.svg">
  <defs
     id="defs832" />
  <sodipodi:namedview
     id="base"
     pagecolor="#ffffff"
     bordercolor="#666666"
     borderopacity="1.0"
     inkscape:pageopacity="0.0"
     inkscape:pageshadow="2"
     inkscape:zoom="11.313709"
     inkscape:cx="-19.531603"
     inkscape:cy="1.9971844"
     inkscape:document-units="mm"
     inkscape:current-layer="g867"
     inkscape:document-rotation="0"
     showgrid="false"
     units="px"
     inkscape:window-width="1676"
     inkscape:window-height="1040"
     inkscape:window-x="52"
     inkscape:window-y="0"
     inkscape:window-maximized="0"
     inkscape:pagecheckerboard="true" />
  <metadata
     id="metadata835">
    <rdf:RDF>
      <cc:Work
         rdf:about="">
        <dc:format>image/svg+xml</dc:format>
        <dc:type
           rdf:resource="http://purl.org/dc/dcmitype/StillImage" />
        <dc:title />
      </cc:Work>
    </rdf:RDF>
  </metadata>
  <g
     inkscape:label="Layer 1"
     inkscape:groupmode="layer"
     id="layer1">
    <g
       transform="matrix(0.3514333,0,0,0.3514333,-8.4260145,-13.575032)"
       id="g6">
      <g
         id="g4"
         transform="translate(41.666106,16.768067)">
        <g
           id="g895"
           transform="translate(-39.234964,0.2902832)">
          <g
             id="g933"
             transform="matrix(0.78021926,0,0,0.78021926,10.629718,-7.8687635)">
            <g
               id="g949"
               transform="matrix(0.92795577,0,0,0.92795577,4.0627125,8.4392892)">
              <g
                 id="g867"
                 transform="translate(0,-7.8603728)">
                <path
                   d="M 60.719,96 H 40.371 C 40.183,95.845 39.995,95.69 39.804,95.538 39.643,95.411 39.48,95.286 39.315,95.164 38.917,94.872 38.51,94.593 38.092,94.329 36.114,93.078 33.956,92.146 31.794,91.263 31.019,90.947 30.241,90.635 29.465,90.319 29.081,90.161 28.698,90.002 28.316,89.84 27.937,89.678 27.56,89.514 27.185,89.343 26.888,89.208 26.593,89.07 26.299,88.928 24.238,87.925 22.238,86.683 20.747,84.913 20.464,84.576 20.2,84.223 19.959,83.854 19.597,83.298 19.287,82.709 19.033,82.096 18.673,81.224 18.427,80.307 18.277,79.375 18.065,78.047 18.047,76.696 18.144,75.356 18.085,73.28 18.028,71.204 17.973,69.129 17.84,63.843 17.728,58.557 17.705,53.27 c -0.01,-2.379 -0.003,-4.759 0.036,-7.138 0.033,-2.008 0.087,-4.015 0.18,-6.021 0.07,-1.531 0.162,-3.061 0.293,-4.589 0.084,-0.974 0.182,-1.947 0.306,-2.917 l -1.912,-3.823 c -0.023,-0.054 -0.041,-0.105 -0.049,-0.163 -0.006,-0.052 -0.002,-0.104 0.004,-0.156 0.008,-0.073 0.019,-0.146 0.032,-0.219 0.011,-0.069 0.024,-0.138 0.038,-0.206 -0.092,-0.097 -0.182,-0.196 -0.271,-0.295 -0.262,-0.295 -0.51,-0.601 -0.745,-0.917 -0.233,-0.314 -0.453,-0.638 -0.659,-0.97 -0.3,-0.481 -0.571,-0.979 -0.817,-1.49 -1.07,-2.224 -1.649,-4.661 -1.939,-7.104 C 11.998,15.537 11.938,13.795 11.98,12.058 12.033,9.926 12.243,7.8 12.579,5.694 12.592,5.627 12.592,5.628 12.607,5.562 12.653,5.386 12.716,5.217 12.806,5.058 13.039,4.644 13.42,4.323 13.867,4.164 14.062,4.094 14.264,4.06 14.47,4.049 c 0.068,-0.001 0.067,-0.001 0.135,10e-4 0.338,0.018 0.664,0.109 0.955,0.284 0.118,0.072 0.225,0.155 0.327,0.247 0.254,0.246 0.501,0.497 0.751,0.746 0.27,0.269 0.541,0.538 0.811,0.807 0.618,0.616 1.236,1.233 1.855,1.849 2.44,2.436 4.879,4.872 7.318,7.309 0.168,-0.063 0.338,-0.119 0.511,-0.166 0.177,-0.049 0.357,-0.09 0.54,-0.111 0.05,-0.003 0.049,-0.003 0.099,-0.002 0.049,0.007 0.049,0.007 0.097,0.018 1.832,0.63 3.604,1.42 5.397,2.154 0.95,-0.229 1.908,-0.425 2.87,-0.596 1.729,-0.307 3.472,-0.531 5.219,-0.695 2.707,-0.253 5.425,-0.36 8.143,-0.381 0.326,-10e-4 0.653,-0.002 0.979,-10e-4 4.642,0.017 9.304,0.318 13.867,1.206 0.771,0.15 1.54,0.317 2.303,0.504 l 5.437,-2.175 c 0.049,-0.016 0.093,-0.027 0.144,-0.034 0.05,-10e-4 0.049,-10e-4 0.099,0.002 0.231,0.026 0.457,0.084 0.679,0.151 0.125,0.038 0.25,0.08 0.372,0.126 2.439,-2.437 4.878,-4.873 7.318,-7.309 0.619,-0.616 1.237,-1.233 1.855,-1.849 0.27,-0.269 0.541,-0.538 0.811,-0.807 0.25,-0.249 0.497,-0.5 0.751,-0.746 0.051,-0.046 0.051,-0.045 0.104,-0.09 0.09,-0.07 0.182,-0.135 0.281,-0.191 0.257,-0.143 0.538,-0.221 0.83,-0.247 0.067,-0.003 0.134,-0.005 0.202,-0.004 0.206,0.011 0.408,0.045 0.603,0.115 0.468,0.167 0.863,0.512 1.093,0.953 0.084,0.162 0.142,0.334 0.182,0.512 0.034,0.179 0.059,0.359 0.087,0.538 0.31,2.077 0.499,4.172 0.532,6.272 0.027,1.679 -0.045,3.363 -0.255,5.031 -0.297,2.372 -0.873,4.735 -1.913,6.896 -0.493,1.024 -1.091,1.999 -1.804,2.884 -0.218,0.271 -0.448,0.534 -0.687,0.787 0.031,0.155 0.057,0.312 0.074,0.469 l 0.002,0.057 c -0.003,0.05 -0.002,0.063 -0.014,0.112 -0.011,0.049 -0.019,0.06 -0.039,0.107 l -1.433,2.866 c 0.214,1.503 0.385,3.012 0.526,4.523 0.201,2.151 0.34,4.307 0.439,6.465 0.285,6.241 0.241,12.491 0.171,18.737 -0.039,3.064 -0.084,6.129 -0.119,9.193 -0.021,1.929 -0.035,3.858 -0.039,5.786 0.002,0.178 0.004,0.355 0.004,0.533 -0.011,1.455 -0.147,2.911 -0.507,4.323 -0.25,0.979 -0.607,1.931 -1.087,2.82 -0.32,0.595 -0.695,1.161 -1.118,1.688 -0.281,0.35 -0.583,0.682 -0.903,0.996 -1.804,1.772 -4.12,2.895 -6.457,3.787 -0.375,0.143 -0.753,0.281 -1.131,0.415 -0.454,0.162 -0.909,0.318 -1.365,0.473 -0.754,0.256 -1.51,0.509 -2.263,0.768 -0.296,0.104 -0.592,0.209 -0.887,0.315 -1.616,0.591 -3.222,1.248 -4.684,2.165 -0.389,0.245 -0.767,0.508 -1.129,0.791 -0.236,0.184 -0.462,0.38 -0.69,0.574 z"
                   id="path2" />
                <path
                   d="m 66.341,19.207 c -0.985,-0.246 -1.978,-0.456 -2.976,-0.638 -4.152,-0.757 -8.381,-1.028 -12.596,-1.056 -0.314,-0.001 -0.627,-0.002 -0.941,-0.001 -2.595,0.012 -5.19,0.103 -7.776,0.328 -1.723,0.149 -3.442,0.357 -5.148,0.646 -1.079,0.182 -2.154,0.397 -3.218,0.655 -0.593,1.372 -1.267,2.709 -2.032,3.994 -0.705,1.182 -1.488,2.324 -2.39,3.365 -0.296,0.342 -0.605,0.672 -0.929,0.988 -0.372,0.362 -0.763,0.705 -1.157,1.043 -0.591,0.506 -1.198,0.992 -1.817,1.463 -1.033,0.784 -2.099,1.525 -3.189,2.229 -0.567,0.367 -1.139,0.726 -1.721,1.069 -0.163,1.348 -0.278,2.702 -0.371,4.057 -0.126,1.846 -0.207,3.694 -0.264,5.543 -0.144,4.716 -0.135,9.436 -0.08,14.153 0.072,6.119 0.236,12.237 0.41,18.355 -0.013,0.173 -0.024,0.346 -0.034,0.52 -0.059,1.208 -0.016,2.424 0.226,3.612 0.153,0.75 0.385,1.485 0.711,2.178 0.198,0.423 0.431,0.829 0.694,1.214 0.167,0.242 0.345,0.476 0.534,0.701 1.161,1.378 2.702,2.379 4.289,3.2 0.27,0.139 0.541,0.273 0.815,0.404 0.422,0.201 0.849,0.394 1.279,0.581 0.518,0.226 1.04,0.444 1.564,0.658 0.774,0.318 1.551,0.628 2.326,0.944 0.397,0.162 0.793,0.326 1.188,0.492 1.372,0.582 2.731,1.198 4.038,1.918 1.144,0.631 2.242,1.34 3.27,2.148 L 41.083,94 h 18.906 c 0.126,-0.101 0.253,-0.2 0.381,-0.298 0.521,-0.39 1.063,-0.748 1.626,-1.075 1.72,-0.998 3.586,-1.708 5.458,-2.361 1.056,-0.364 2.115,-0.716 3.171,-1.081 0.44,-0.153 0.878,-0.31 1.315,-0.473 0.355,-0.134 0.709,-0.272 1.061,-0.417 1.933,-0.796 3.843,-1.812 5.273,-3.371 0.228,-0.249 0.443,-0.511 0.643,-0.784 0.354,-0.484 0.659,-1.003 0.913,-1.547 0.372,-0.798 0.634,-1.644 0.808,-2.506 0.247,-1.224 0.317,-2.475 0.298,-3.721 10e-4,-0.831 0.005,-1.661 0.009,-2.491 0.03,-4.176 0.096,-8.351 0.149,-12.526 0.012,-1.109 0.024,-2.219 0.034,-3.328 C 81.17,52.412 81.158,46.797 80.847,41.195 80.725,38.98 80.554,36.766 80.309,34.561 80.276,34.264 80.242,33.967 80.206,33.67 80.041,33.577 79.878,33.482 79.714,33.387 77.83,32.276 76.005,31.057 74.276,29.715 73.72,29.283 73.174,28.837 72.642,28.375 72.092,27.898 71.558,27.406 71.065,26.87 70.453,26.203 69.896,25.486 69.38,24.743 68.801,23.91 68.273,23.043 67.786,22.154 67.38,21.415 67,20.662 66.649,19.895 66.545,19.667 66.441,19.437 66.341,19.207 Z"
                   id="path843"
                   style="fill:#388e3c;fill-opacity:1" />
                <path
                   d="M 24.758,16.257 C 21.853,13.353 18.946,10.451 16.037,7.551 L 15.228,6.745 14.545,6.067 c -0.009,0.058 -0.018,0.116 -0.028,0.175 -0.291,1.882 -0.477,3.781 -0.532,5.685 -0.042,1.443 -0.01,2.889 0.122,4.326 0.206,2.239 0.65,4.484 1.528,6.562 0.373,0.883 0.826,1.734 1.374,2.521 0.105,0.151 0.213,0.299 0.325,0.445 0.183,-0.45 0.386,-0.891 0.602,-1.324 0.665,-1.33 1.469,-2.588 2.359,-3.778 1.088,-1.458 2.317,-2.83 3.771,-3.931 0.225,-0.171 0.456,-0.335 0.692,-0.491 z"
                   id="path875" />
                <path
                   d="m 82.665,25.782 c 0.112,-0.146 0.221,-0.295 0.326,-0.446 0.548,-0.787 1.001,-1.638 1.374,-2.521 0.878,-2.078 1.322,-4.323 1.528,-6.562 0.132,-1.437 0.164,-2.883 0.122,-4.326 C 85.96,10.023 85.774,8.124 85.483,6.242 L 85.455,6.067 C 85.227,6.293 85,6.519 84.772,6.745 c -3.18,3.167 -6.355,6.339 -9.53,9.512 0.507,0.333 0.988,0.706 1.444,1.101 1.134,0.983 2.123,2.12 3.019,3.321 0.851,1.138 1.624,2.338 2.271,3.604 0.25,0.489 0.483,0.989 0.689,1.499 z"
                   id="path873" />
                <path
                   d="m 66.987,18.163 c 0.599,1.469 1.303,2.899 2.105,4.267 0.742,1.268 1.576,2.492 2.554,3.591 0.23,0.258 0.468,0.509 0.716,0.75 0.302,0.293 0.618,0.573 0.936,0.849 0.518,0.45 1.05,0.884 1.592,1.305 0.833,0.647 1.69,1.265 2.565,1.854 0.95,0.639 1.917,1.251 2.906,1.828 l 2.068,-4.136 C 82.336,27.888 82.166,27.317 81.968,26.761 81.656,25.885 81.26,25.039 80.813,24.224 80.251,23.197 79.605,22.215 78.904,21.277 78.17,20.294 77.372,19.355 76.476,18.515 75.753,17.838 74.965,17.219 74.1,16.733 73.56,16.429 72.985,16.17 72.379,16.036 l -0.049,-0.01 c -1.781,0.713 -3.562,1.425 -5.343,2.137 z"
                   id="path871" />
                <path
                   d="m 27.621,16.036 c -0.606,0.134 -1.181,0.393 -1.721,0.697 -0.865,0.486 -1.653,1.105 -2.376,1.782 -0.896,0.84 -1.694,1.779 -2.428,2.762 -0.619,0.829 -1.195,1.691 -1.709,2.589 -0.463,0.809 -0.877,1.648 -1.214,2.517 -0.255,0.656 -0.47,1.332 -0.592,2.026 l -0.01,0.062 2.068,4.136 c 0.239,-0.14 0.477,-0.281 0.714,-0.424 1.77,-1.079 3.489,-2.247 5.113,-3.537 0.48,-0.381 0.951,-0.773 1.41,-1.178 0.259,-0.227 0.515,-0.457 0.762,-0.697 0.248,-0.241 0.486,-0.492 0.716,-0.75 0.879,-0.987 1.64,-2.076 2.325,-3.205 0.843,-1.39 1.57,-2.848 2.206,-4.343 l 0.081,-0.195 0.047,-0.115 -5.343,-2.137 c -0.016,0.003 -0.032,0.007 -0.049,0.01 z"
                   id="path869" />
                <path
                   d="m 58.405,51.713 c 2.592226,2.220029 2.647589,3.570904 2.761,6.612 -0.028,0.224 -0.061,0.448 -0.101,0.671 -0.053,0.297 -0.115,0.592 -0.187,0.885 -0.092,0.376 -0.199,0.748 -0.318,1.116 -0.181,0.559 -0.391,1.11 -0.638,1.645 l -0.017,0.036 c -0.05,0.091 -0.112,0.167 -0.204,0.22 -0.18,0.102 -0.411,0.081 -0.569,-0.053 -0.047,-0.039 -0.086,-0.087 -0.116,-0.14 -0.041,-0.074 -0.056,-0.15 -0.062,-0.233 0.004,-0.093 0.011,-0.187 0.014,-0.281 0.004,-0.189 0.002,-0.377 -0.003,-0.566 -0.012,-0.414 -0.038,-0.828 -0.157,-1.227 -0.063,-0.213 -0.153,-0.422 -0.284,-0.602 -0.069,-0.096 -0.151,-0.183 -0.245,-0.254 -0.057,-0.044 -0.119,-0.081 -0.185,-0.111 -0.38,-0.174 -0.823,-0.079 -1.182,0.1 -0.066,0.033 -0.13,0.07 -0.193,0.109 -0.079,0.049 -0.156,0.103 -0.23,0.161 -0.091,0.072 -0.178,0.149 -0.26,0.23 -0.099,0.099 -0.192,0.205 -0.278,0.316 -0.114,0.148 -0.216,0.304 -0.306,0.468 -0.075,0.138 -0.142,0.281 -0.199,0.428 -0.04,0.1 -0.073,0.202 -0.107,0.304 -0.027,0.071 -0.027,0.07 -0.057,0.141 -0.062,0.137 -0.134,0.269 -0.22,0.392 -0.45,0.646 -1.184,1.033 -1.923,1.251 -0.126,0.038 -0.253,0.07 -0.382,0.098 -0.181,0.041 -0.365,0.072 -0.55,0.096 -0.212,0.028 -0.426,0.045 -0.641,0.052 -0.266,0.009 -0.534,0.003 -0.8,-0.019 -0.337,-0.028 -0.672,-0.08 -0.999,-0.163 -0.122,-0.031 -0.243,-0.066 -0.362,-0.106 -0.682,-0.228 -1.369,-0.633 -1.693,-1.303 -0.072,-0.15 -0.124,-0.309 -0.153,-0.473 -0.017,-0.096 -0.024,-0.193 -0.037,-0.289 -0.012,-0.067 -0.012,-0.066 -0.025,-0.133 -0.04,-0.164 -0.096,-0.323 -0.186,-0.467 -0.041,-0.066 -0.09,-0.128 -0.144,-0.185 -0.309,-0.323 -0.78,-0.416 -1.211,-0.401 -0.082,0.003 -0.163,0.009 -0.244,0.019 -0.213,0.027 -0.424,0.076 -0.628,0.144 -0.147,0.049 -0.291,0.107 -0.431,0.175 -0.118,0.057 -0.234,0.121 -0.346,0.191 -0.09,0.057 -0.178,0.119 -0.263,0.184 -0.065,0.051 -0.128,0.105 -0.189,0.161 -0.314,0.292 -0.582,0.682 -0.602,1.123 -0.003,0.079 10e-4,0.158 0.013,0.236 0.019,0.122 0.057,0.241 0.108,0.353 0.109,0.24 0.276,0.445 0.458,0.634 l 0.04,0.048 c 0.047,0.072 0.082,0.144 0.094,0.23 0.009,0.062 0.006,0.126 -0.009,0.187 -0.056,0.231 -0.275,0.393 -0.511,0.381 C 43.362,64.1 43.279,64.074 43.208,64.03 43.16,64 43.152,63.989 43.111,63.951 43.036,63.874 43.037,63.874 42.964,63.795 42.873,63.688 42.785,63.58 42.706,63.464 42.543,63.227 42.414,62.966 42.335,62.689 42.279,62.49 42.251,62.283 42.252,62.076 c 0,-0.142 0.015,-0.284 0.044,-0.423 0.156,-0.771 0.703,-1.404 1.337,-1.839 0.116,-0.08 0.236,-0.154 0.36,-0.222 0.148,-0.082 0.302,-0.156 0.458,-0.222 0.209,-0.086 0.424,-0.158 0.643,-0.213 0.271,-0.067 0.548,-0.109 0.827,-0.119 0.575,-0.02 1.167,0.102 1.646,0.434 0.093,0.064 0.18,0.136 0.262,0.214 0.104,0.101 0.198,0.212 0.281,0.332 0.176,0.257 0.294,0.55 0.362,0.853 0.022,0.099 0.039,0.199 0.052,0.3 0.007,0.056 0.011,0.113 0.02,0.169 0.006,0.031 0.014,0.062 0.022,0.093 0.125,0.383 0.491,0.626 0.842,0.785 0.067,0.03 0.136,0.058 0.205,0.084 0.093,0.034 0.186,0.065 0.281,0.091 0.12,0.035 0.242,0.064 0.365,0.088 0.486,0.095 0.986,0.12 1.48,0.086 0.439,-0.03 0.879,-0.108 1.297,-0.252 0.429,-0.148 0.866,-0.373 1.153,-0.736 0.071,-0.09 0.132,-0.188 0.177,-0.292 0.048,-0.109 0.08,-0.225 0.121,-0.337 0.027,-0.072 0.056,-0.142 0.085,-0.213 0.099,-0.225 0.212,-0.444 0.343,-0.653 0.101,-0.159 0.212,-0.313 0.332,-0.458 0.102,-0.123 0.21,-0.24 0.325,-0.351 0.606,-0.582 1.439,-1.012 2.299,-0.925 0.12,0.012 0.239,0.034 0.354,0.067 0.197,0.055 0.385,0.142 0.555,0.255 0.216,0.143 0.402,0.327 0.553,0.536 0.204,0.28 0.347,0.602 0.442,0.933 0.047,-0.165 0.09,-0.331 0.131,-0.497 0.233,-0.968 0.378,-1.965 0.328,-2.962 -0.028,-0.563 -0.119,-1.124 -0.302,-1.658 -0.12,-0.351 -0.28,-0.688 -0.482,-1 -0.126,-0.196 -0.269,-0.381 -0.426,-0.553 -0.865,-0.95 -2.107,-1.443 -3.342,-1.691 -0.177,-0.035 -0.355,-0.066 -0.533,-0.093 -0.23,-0.034 -0.461,-0.061 -0.692,-0.082 -0.337,-0.031 -0.675,-0.049 -1.013,-0.057 -0.432,-0.011 -0.864,-0.004 -1.295,0.012 -0.566,0.02 -1.13,0.056 -1.694,0.109 -0.745,0.07 -1.488,0.17 -2.224,0.307 -0.907,0.17 -1.807,0.395 -2.676,0.707 -0.278,0.1 -0.553,0.209 -0.824,0.329 -0.184,0.082 -0.365,0.169 -0.544,0.261 -0.137,0.071 -0.273,0.146 -0.406,0.224 -0.932,0.546 -1.799,1.305 -2.201,2.333 -0.066,0.169 -0.119,0.343 -0.158,0.52 -0.069,0.314 -0.094,0.636 -0.082,0.957 0.02,0.538 0.147,1.061 0.321,1.569 l 0.016,0.061 c 0.013,0.085 0.014,0.165 -0.011,0.248 -0.07,0.227 -0.297,0.376 -0.533,0.35 C 41.071,59.528 41.01,59.51 40.954,59.48 40.88,59.441 40.816,59.383 40.77,59.313 40.739,59.266 40.736,59.252 40.715,59.2 c -0.047,-0.136 -0.047,-0.135 -0.091,-0.272 -0.054,-0.18 -0.104,-0.36 -0.145,-0.543 -0.095,-0.423 -0.147,-0.856 -0.142,-1.29 0.005,-0.401 0.058,-0.801 0.165,-1.188 0.072,-0.261 0.168,-0.516 0.286,-0.76 0.083,-0.173 0.178,-0.341 0.282,-0.503 1.068851,-1.607837 2.222707,-2.067736 3.63,-2.705 0.302,-0.122 0.608,-0.233 0.917,-0.334 0.366,-0.12 0.738,-0.227 1.112,-0.322 0.485,-0.124 0.976,-0.229 1.469,-0.317 0.664,-0.12 1.334,-0.21 2.006,-0.277 0.795,-0.08 1.592,-0.123 2.39,-0.142 0.196,-0.003 0.393,-0.005 0.589,-0.004 1.267,0.016 2.546,0.142 3.758,0.529 0.508,0.163 1.002,0.373 1.464,0.641 z"
                   id="path859"
                   sodipodi:nodetypes="ccccccccccccccccccccccccccccccccccccccccccscccccccccccccccccccccccccccccccccccccccccccccccccccccccccccccccccccccccccccccccccccccccccc" />
                <path
                   d="m 71.246,72.783 c 0.17,-0.674 0.227,-1.378 0.237,-2.068 0.008,-0.632 -0.027,-1.265 -0.089,-1.894 -0.077,-0.769 -0.194,-1.534 -0.338,-2.294 -0.152,-0.805 -0.335,-1.605 -0.54,-2.398 -0.074,-0.284 -0.151,-0.567 -0.23,-0.849 -0.024,-0.083 -0.048,-0.166 -0.071,-0.249 -0.001,-0.002 -0.001,-0.008 -0.002,-0.006 -0.92,2.294 -1.76,4.619 -2.637,6.929 0.909,0.143 1.822,0.44 2.515,1.061 0.17,0.152 0.324,0.322 0.458,0.506 0.099,0.136 0.185,0.28 0.27,0.424 0.108,0.185 0.209,0.374 0.302,0.566 0.043,0.09 0.085,0.18 0.125,0.272 z"
                   id="path857" />
                <path
                   d="m 35.928,72.745 c -0.03,-0.04 -0.06,-0.079 -0.091,-0.119 -0.456,-0.588 -0.913,-1.176 -1.37,-1.764 -0.821,-1.057 -1.643,-2.113 -2.465,-3.169 l -0.665,-0.851 c -0.005,0.184 -0.004,0.183 -0.007,0.368 -0.005,1.617 0.156,3.25 0.648,4.797 0.265,0.831 0.629,1.638 1.128,2.357 0.113,0.162 0.232,0.319 0.359,0.471 0.113,-0.239 0.249,-0.468 0.41,-0.683 0.122,-0.163 0.258,-0.317 0.405,-0.458 0.203,-0.194 0.427,-0.366 0.667,-0.511 0.307,-0.187 0.639,-0.331 0.981,-0.438 z"
                   id="path855" />
                <path
                   d="m 66.571,69.85 c 0.002,-0.033 1.603638,-2.522366 1.610638,-2.555366 0.416715,-1.274439 1.490533,-3.009895 2.144527,-5.493482 0.584267,-2.218793 1.237957,-6.246002 1.683378,-7.35814 0.119,-0.265 0.335,-0.471 0.615,-0.561 0.088,-0.028 0.178,-0.042 0.271,-0.047 0.04,-10e-4 0.04,-10e-4 0.08,0 0.106,0.007 0.21,0.026 0.31,0.064 0.072,0.028 0.142,0.064 0.206,0.107 0.162,0.11 0.289,0.267 0.364,0.447 0.047,0.116 0.078,0.25 0.11,0.366 0.053,0.187 0.105,0.376 0.155,0.564 0.131,0.489 0.253,0.981 0.366,1.474 0.216,0.948 0.397,1.905 0.526,2.869 0.115,0.867 0.189,1.74 0.189,2.615 0,1.255 -2.861543,10.743988 -3.419543,11.883988 l -0.037,0.073 c -0.021,0.036 -2.086855,-3.107924 -2.112855,-3.076924 z"
                   id="path853"
                   sodipodi:nodetypes="ccscccccccccccscccc"
                   style="fill:#ffe6d5" />
                <path
                   d="m 55.189,84.254 -0.01,0.015 c 0.008,-0.012 0.019,-0.028 0.01,-0.015 z"
                   id="path851" />
                <path
                   d="m 53.357,80.633 c 0.168,0.002 0.335,0.007 0.502,0.019 0.127,0.009 0.254,0.022 0.38,0.04 0.091,0.013 0.181,0.028 0.271,0.046 0.499,0.101 1.017,0.304 1.329,0.727 0.043,0.059 0.082,0.121 0.115,0.187 0.048,0.092 0.085,0.191 0.11,0.292 0.041,0.164 0.05,0.331 0.04,0.5 -0.019,0.225 -0.042,0.45 -0.061,0.675 -0.027,0.362 -0.055,0.724 -0.05,1.087 l 10e-4,0.019 c 0.02,0.025 0.019,0.025 0.036,0.051 l 0.02,0.037 c 0.035,0.079 0.056,0.16 0.052,0.247 -0.014,0.275 -0.261,0.505 -0.535,0.504 -0.196,0 -0.374,-0.111 -0.468,-0.281 -0.067,-0.122 -0.088,-0.263 -0.098,-0.4 -0.011,-0.148 -0.01,-0.297 -0.007,-0.445 0.01,-0.367 0.038,-0.733 0.069,-1.098 0.007,-0.072 0.013,-0.143 0.02,-0.215 0.009,-0.102 0.025,-0.209 0.026,-0.313 -0.001,-0.033 -0.004,-0.065 -0.009,-0.098 -0.008,-0.037 -0.018,-0.072 -0.036,-0.106 -0.069,-0.136 -0.219,-0.217 -0.353,-0.273 -0.033,-0.014 -0.066,-0.026 -0.099,-0.038 -0.214,-0.073 -0.44,-0.11 -0.664,-0.133 -0.292,-0.031 -0.586,-0.035 -0.88,-0.028 -0.447,0.01 -0.893,0.05 -1.337,0.105 -0.586,0.072 -1.169,0.17 -1.748,0.283 -0.668,0.13 -1.332,0.28 -1.993,0.445 -0.557,0.139 -1.113,0.289 -1.664,0.452 l -0.041,0.011 c -0.085,0.013 -0.169,0.013 -0.252,-0.013 -0.054,-0.017 -0.105,-0.044 -0.15,-0.078 -0.198,-0.149 -0.257,-0.431 -0.134,-0.647 0.058,-0.101 0.147,-0.171 0.252,-0.218 0.152,-0.052 0.309,-0.092 0.463,-0.136 1.099,-0.307 2.208,-0.58 3.328,-0.798 1.003,-0.195 2.017,-0.35 3.039,-0.399 0.175,-0.007 0.351,-0.01 0.526,-0.01 z"
                   id="path849" />
                <path
                   d="m 22.329,76.711 c 0.053,0.008 0.067,0.007 0.118,0.024 0.115,0.039 0.214,0.12 0.275,0.225 0.031,0.054 0.046,0.109 0.06,0.17 0.01,0.097 0.015,0.195 0.026,0.292 0.071,0.579 0.225,1.142 0.43,1.687 0.404,1.072 1.049,2.052 1.844,2.874 0.699,0.723 1.515,1.326 2.393,1.814 0.766,0.426 1.579,0.766 2.413,1.037 0.476,0.154 0.96,0.277 1.44,0.412 0.176,0.051 0.35,0.103 0.525,0.156 0.656,0.204 1.304,0.428 1.942,0.682 1.823,0.726 3.567,1.672 5.119,2.875 0.559,0.434 1.094,0.901 1.59,1.405 0.358,0.363 0.698,0.746 0.997,1.16 l 0.036,0.052 c 0.043,0.071 0.075,0.141 0.085,0.224 0.03,0.248 -0.135,0.486 -0.377,0.546 -0.059,0.014 -0.12,0.018 -0.18,0.011 -0.08,-0.01 -0.157,-0.039 -0.224,-0.085 -0.044,-0.031 -0.052,-0.042 -0.09,-0.08 -0.079,-0.101 -0.153,-0.208 -0.232,-0.309 -0.315,-0.396 -0.663,-0.765 -1.029,-1.114 -0.427,-0.407 -0.878,-0.786 -1.348,-1.141 -1.695,-1.282 -3.618,-2.248 -5.619,-2.953 -0.485,-0.171 -0.975,-0.326 -1.469,-0.467 -0.303,-0.087 -0.608,-0.165 -0.911,-0.251 -0.19,-0.055 -0.19,-0.055 -0.379,-0.113 -0.417,-0.133 -0.83,-0.277 -1.236,-0.441 -0.817,-0.33 -1.606,-0.733 -2.342,-1.219 -0.729,-0.482 -1.405,-1.046 -1.997,-1.69 -0.848,-0.923 -1.518,-2.007 -1.944,-3.186 -0.13,-0.36 -0.237,-0.728 -0.318,-1.102 -0.068,-0.315 -0.119,-0.634 -0.137,-0.955 l -10e-4,-0.022 c 10e-4,-0.062 0.005,-0.119 0.025,-0.179 0.045,-0.134 0.148,-0.246 0.279,-0.301 0.05,-0.021 0.064,-0.022 0.116,-0.033 0.06,-0.006 0.06,-0.006 0.12,-0.005 z"
                   id="path847" />
                <path
                   d="m 78.835,76.711 c 0.061,0.008 0.117,0.018 0.174,0.044 0.111,0.051 0.2,0.142 0.249,0.253 0.019,0.044 0.03,0.089 0.038,0.136 0.013,0.084 0.022,0.169 0.031,0.253 0.043,0.533 0.013,1.07 -0.076,1.597 -0.078,0.457 -0.199,0.906 -0.361,1.34 -0.135,0.365 -0.299,0.719 -0.488,1.059 -0.717,1.29 -1.782,2.353 -2.99,3.189 -0.791,0.548 -1.643,0.997 -2.522,1.385 -0.451,0.194 -0.902,0.385 -1.352,0.579 -2.453,1.068 -4.881,2.195 -7.254,3.432 -0.799,0.416 -1.591,0.845 -2.374,1.292 -0.565,0.323 -1.129,0.651 -1.673,1.008 l -0.052,0.03 c -0.076,0.033 -0.15,0.054 -0.234,0.052 -0.06,-0.001 -0.12,-0.013 -0.176,-0.036 -0.231,-0.094 -0.36,-0.353 -0.295,-0.594 0.021,-0.078 0.061,-0.15 0.116,-0.209 0.037,-0.04 0.049,-0.046 0.092,-0.078 0.142,-0.094 0.287,-0.184 0.431,-0.274 1.432,-0.881 2.914,-1.679 4.411,-2.443 1.804,-0.919 3.636,-1.782 5.485,-2.603 0.822,-0.366 1.649,-0.718 2.475,-1.073 0.16,-0.07 0.318,-0.142 0.475,-0.216 0.693,-0.333 1.365,-0.708 1.992,-1.154 1.059,-0.752 1.995,-1.702 2.614,-2.852 0.159,-0.295 0.296,-0.601 0.409,-0.916 0.126,-0.352 0.222,-0.715 0.285,-1.084 0.082,-0.49 0.112,-0.996 0.049,-1.489 -0.003,-0.023 -0.003,-0.023 -0.007,-0.044 -0.007,-0.062 -0.01,-0.119 0.002,-0.18 0.027,-0.14 0.114,-0.264 0.236,-0.336 0.054,-0.032 0.109,-0.048 0.169,-0.062 0.06,-0.007 0.06,-0.007 0.121,-0.006 z"
                   id="path845" />
                <path
                   d="M 33.111,75.899 C 33.076,75.88 33.043,75.857 33.012,75.83 32.941,75.76 32.875,75.684 32.81,75.61 32.623,75.393 32.447,75.168 32.284,74.934 31.76,74.178 29.647543,68.854131 29.356543,67.982131 c -0.36,-1.08 -1.459084,-7.110137 -1.561084,-8.244137 -0.044,-0.484 -0.07,-0.97 -0.076,-1.457 -0.002,-0.227 -0.002,-0.454 0.002,-0.681 0.002,-0.083 0.003,-0.167 0.008,-0.25 l 0.004,-0.043 c 0.016,-0.099 0.039,-0.194 0.08,-0.286 0.104,-0.23 0.293,-0.408 0.524,-0.506 0.097,-0.042 0.198,-0.061 0.302,-0.073 0.075,-0.003 0.075,-0.003 0.151,0 0.074,0.009 0.147,0.019 0.219,0.042 0.183,0.056 0.339,0.165 0.464,0.309 0.24,0.296 0.471,0.601 0.705,0.901 0.823,1.056 2.276096,5.555669 2.99063,6.628021 0.588,0.757 3.263911,7.439985 3.851911,8.197985 z"
                   id="path953"
                   sodipodi:nodetypes="cccccccccccccccccccc"
                   style="fill:#ffe6d5" />
                <path
                   d="m 66.571,69.85 c 4.333965,0.125658 5.087032,3.422907 5.103,4.549 0.024,0.286 0.018,0.576 -0.023,0.861 -0.031,0.219 -0.082,0.434 -0.154,0.643 -0.05,0.149 -0.111,0.294 -0.181,0.435 -0.485,0.973 -1.386,1.679 -2.353,2.134 -0.167,0.079 -0.337,0.148 -0.51,0.213 l -0.077,0.026 c -0.048,0.016 -0.09,0.032 -0.142,0.039 -0.081,0.013 -0.166,0.004 -0.244,-0.024 -0.052,-0.019 -0.1,-0.046 -0.143,-0.081 -0.176,-0.142 -0.235,-0.392 -0.141,-0.598 0.046,-0.1 0.126,-0.184 0.224,-0.235 0.058,-0.03 0.122,-0.046 0.184,-0.068 0.082,-0.03 0.092,-0.035 0.179,-0.069 0.082,-0.035 0.164,-0.07 0.244,-0.108 0.127,-0.06 0.251,-0.123 0.372,-0.193 0.681,-0.387 1.31,-0.944 1.603,-1.687 0.049,-0.126 0.089,-0.256 0.117,-0.389 0.144,-0.666 0.006,-1.356 -0.243,-1.979 -0.121,-0.301 -0.267,-0.59 -0.431,-0.869 -0.121,-0.208 -0.249,-0.407 -0.417,-0.58 -0.371,-0.382 -0.865,-0.616 -1.37,-0.763 -0.724,-0.213 -1.491,-0.27 -2.242,-0.278 -0.984,-0.011 -1.967,0.071 -2.944,0.183 -1.349,0.155 -2.69,0.373 -4.028,0.601 -1.517,0.258 -3.031,0.533 -4.548,0.794 -0.399,0.068 -0.798,0.135 -1.197,0.202 -3.416,0.555 -6.857,1.021 -10.322,1.071 -0.945,0.014 -1.89,-0.003 -2.833,-0.06 -0.312,-0.019 -0.624,-0.042 -0.935,-0.07 -0.199,-0.018 -0.398,-0.038 -0.597,-0.054 -0.137,-0.009 -0.136,-0.009 -0.274,-0.015 -0.8,-0.028 -1.625,0.029 -2.37,0.346 -0.292,0.125 -0.567,0.29 -0.807,0.499 -0.115,0.1 -0.221,0.209 -0.317,0.326 -0.589,0.716 -0.78,1.68 -0.77,2.586 0.004,0.306 0.025,0.619 0.085,0.92 l 0.01,0.082 c -0.002,0.027 -10e-4,0.055 -0.004,0.082 -0.011,0.082 -0.043,0.161 -0.092,0.228 -0.151,0.208 -0.444,0.266 -0.664,0.133 -0.047,-0.029 -0.089,-0.065 -0.124,-0.108 -0.036,-0.042 -0.064,-0.09 -0.083,-0.142 -0.01,-0.025 -0.016,-0.053 -0.023,-0.079 -0.019,-0.094 -0.033,-0.188 -0.046,-0.282 -0.026,-0.201 -0.044,-0.402 -0.053,-0.605 -0.022,-0.52 0.012,-1.053 0.121,-1.568 0.08974,-0.406906 0.893291,-3.016295 3.91,-3.379 0.421,-0.048 0.847,-0.056 1.269,-0.039 0.407,0.018 0.812,0.065 1.218,0.098 0.304,0.023 0.303,0.023 0.606,0.043 0.713,0.039 1.426,0.062 2.141,0.063 1.971,0.001 3.94,-0.143 5.898,-0.366 3.384,-0.386 6.733,-1.014 10.086,-1.598 0.362,-0.062 0.724,-0.124 1.086,-0.185 1.986,-0.328 3.983,-0.641 5.999,-0.702 0.204,-0.004 0.408,-0.006 0.613,-0.005 0.211,0.003 0.423,0.009 0.634,0.021 z"
                   id="path951"
                   sodipodi:nodetypes="ccccccccccccccccccccccccccccccccccccccccccccccccccccccccccc"
                   style="fill:#000000" />
              </g>
            </g>
          </g>
        </g>
      </g>
    </g>
  </g>
</svg>
