<?xml version="1.0" encoding="UTF-8" standalone="no"?>
<svg
   xmlns:dc="http://purl.org/dc/elements/1.1/"
   xmlns:cc="http://creativecommons.org/ns#"
   xmlns:rdf="http://www.w3.org/1999/02/22-rdf-syntax-ns#"
   xmlns:svg="http://www.w3.org/2000/svg"
   xmlns="http://www.w3.org/2000/svg"
   xmlns:sodipodi="http://sodipodi.sourceforge.net/DTD/sodipodi-0.dtd"
   xmlns:inkscape="http://www.inkscape.org/namespaces/inkscape"
   width="20"
   height="20"
   viewBox="0 0 20 20"
   version="1.1"
   id="svg838"
   inkscape:version="1.0.1 (3bc2e813f5, 2020-09-07)"
   sodipodi:docname="mouth_demon.svg">
  <defs
     id="defs832" />
  <sodipodi:namedview
     id="base"
     pagecolor="#ffffff"
     bordercolor="#666666"
     borderopacity="1.0"
     inkscape:pageopacity="0.0"
     inkscape:pageshadow="2"
     inkscape:zoom="15.839192"
     inkscape:cx="6.4161379"
     inkscape:cy="4.2759474"
     inkscape:document-units="mm"
     inkscape:current-layer="g838"
     inkscape:document-rotation="0"
     showgrid="false"
     units="px"
     inkscape:window-width="1342"
     inkscape:window-height="1040"
     inkscape:window-x="72"
     inkscape:window-y="0"
     inkscape:window-maximized="0"
     inkscape:pagecheckerboard="true" />
  <metadata
     id="metadata835">
    <rdf:RDF>
      <cc:Work
         rdf:about="">
        <dc:format>image/svg+xml</dc:format>
        <dc:type
           rdf:resource="http://purl.org/dc/dcmitype/StillImage" />
        <dc:title />
      </cc:Work>
    </rdf:RDF>
  </metadata>
  <g
     inkscape:label="Layer 1"
     inkscape:groupmode="layer"
     id="layer1">
    <g
       id="g8"
       style="fill:#aa00ff;fill-opacity:1"
       transform="matrix(-0.44983984,0,0,0.44983984,25.232155,-2.6573104)">
      <g
         id="g838"
         transform="matrix(0.9468237,0,0,0.9468237,1.2844822,3.3217611)">
        <path
           style="fill:#5a247e;fill-opacity:1;stroke:none;stroke-width:2.22301px;stroke-linecap:butt;stroke-linejoin:miter;stroke-opacity:1"
           d="M 12.583254,20.012303 35.600477,9.0650873 35.8,12 29.775998,19.240384 39.460073,30.67882 36.442571,34.748939 19.670875,29.134981 Z"
           id="path833" />
        <path
           d="m 3.5,51.560568 c 2,-0.3 4.1,-0.5 6.4,-0.5 2.8,0 5.3,0.3 7.6,0.8 -0.128974,-4.839521 0.04376,-7.10965 1.352673,-10.006375 0.301878,-6.641309 19.339862,3.640022 21.694673,-6.600781 C 39.847346,34.253412 38.7,33.6 37.6,32.7 24.628571,28.384665 24.04124,28.015556 16.4,20.2 21.3,19 27.017558,15.138604 30.117558,13.338604 31.517558,12.538604 34.2,12.5 35.8,12 v 0 0 0 c -3.7,1.8 -6.8,6.5 -6.6,7.5 0.2,1.1 1.5,2.5 4.9,6.2 0.8,0.8 1.947346,2.394692 2.647346,3.194692 1.4,0.7 2.852654,0.905308 4.652654,2.205308 -2.2,-3 -6.1,-6.5 -6.6,-7.4 -0.9,-1.8 -3.6,-4.4 -3.6,-5 0,-0.1 0,-0.2 0.1,-0.4 0.3,-1 1.5,-3.2 4.5,-4.7 1.6,1 2.9,3 3,5.5 0.8,-1.9 0.7,-4.3 -0.3,-6.5 v 0 h 0.1 c 0.5,-0.1 0.9,-0.3 1.3,-0.4 1.4,1.1 2.4,2.9 2.5,5.1 0.8,-1.9 0.7,-4.3 -0.3,-6.5 0.4,-0.5 0.5,-1 0.5,-1.5 4.110467,-11.4261687 -0.05107,-16.7107568 -0.351072,-17.1107568 -0.7,-0.9 -3.7,-4.6000002 -9.7,-3.3000002 -6,1.4000002 -10.3,3.9000002 -12.6,4.4000002 -2.4,0.4 -13.8999998,6.30000004 -15.7999998,9.3 C -3.765307,11.867802 3.2801182,35.015538 3.5,51.560568 Z"
           id="path2"
           style="fill:#9c4dcc;fill-opacity:1"
           sodipodi:nodetypes="csccccccsccscccccscccsccccccccccc" />
        <path
           d="m 22.068344,25.288087 c 21.755252,4.087503 24.317888,22.903895 24.317888,22.903895 0.630077,-6.284192 -3.718801,-13.878757 -3.718801,-13.878757 3.816856,1.291198 10.52018,8.42017 10.52018,8.42017 C 41.967162,24.914617 22.068344,25.288087 22.068344,25.288087 Z"
           id="path4"
           style="fill:#ff0066;fill-opacity:1;stroke-width:1.59648" />
      </g>
    </g>
  </g>
</svg>
