<?xml version="1.0" encoding="UTF-8" standalone="no"?>
<svg
   xmlns:dc="http://purl.org/dc/elements/1.1/"
   xmlns:cc="http://creativecommons.org/ns#"
   xmlns:rdf="http://www.w3.org/1999/02/22-rdf-syntax-ns#"
   xmlns:svg="http://www.w3.org/2000/svg"
   xmlns="http://www.w3.org/2000/svg"
   xmlns:sodipodi="http://sodipodi.sourceforge.net/DTD/sodipodi-0.dtd"
   xmlns:inkscape="http://www.inkscape.org/namespaces/inkscape"
   width="20"
   height="20"
   viewBox="0 0 20 20"
   version="1.1"
   id="svg838"
   inkscape:version="1.0.1 (3bc2e813f5, 2020-09-07)"
   sodipodi:docname="muscle_extremelystrong.svg">
  <defs
     id="defs832" />
  <sodipodi:namedview
     id="base"
     pagecolor="#ffffff"
     bordercolor="#666666"
     borderopacity="1.0"
     inkscape:pageopacity="0.0"
     inkscape:pageshadow="2"
     inkscape:zoom="22.4"
     inkscape:cx="10.797456"
     inkscape:cy="8.8981649"
     inkscape:document-units="mm"
     inkscape:current-layer="layer1"
     inkscape:document-rotation="0"
     showgrid="false"
     units="px"
     inkscape:window-width="1277"
     inkscape:window-height="1040"
     inkscape:window-x="75"
     inkscape:window-y="5"
     inkscape:window-maximized="0"
     inkscape:pagecheckerboard="true" />
  <metadata
     id="metadata835">
    <rdf:RDF>
      <cc:Work
         rdf:about="">
        <dc:format>image/svg+xml</dc:format>
        <dc:type
           rdf:resource="http://purl.org/dc/dcmitype/StillImage" />
        <dc:title></dc:title>
      </cc:Work>
    </rdf:RDF>
  </metadata>
  <g
     inkscape:label="Layer 1"
     inkscape:groupmode="layer"
     id="layer1">
    <path
       inkscape:connector-curvature="0"
       d="M 1.4926082,2.4817957 4.3738668,0.17850326 C 4.698944,-0.08515656 5.2141012,-0.03141166 5.4777761,0.29366534 L 8.1551368,3.5115091 C 8.4187966,3.8365863 8.3650517,4.351751 8.0399746,4.615426 L 6.2520275,6.0656231 c -0.040705,0.032882 -0.044447,0.06977 -0.048265,0.1065071 v 0 c -0.015496,0.1471748 0.1609323,0.24 0.2828598,0.141052 L 7.218052,5.7199249 c 0.4063446,-0.3296126 0.9583144,-0.2720126 1.2879005,0.1343244 0,0 0.6415711,0.6248844 0.2758678,0.9215131 L 5.7380231,9.2108968 C 5.5348357,9.3757214 5.3063821,9.4262913 5.085601,9.4032364 c 0.5296025,0.9851706 1.0438488,2.1175356 1.4438665,3.2751826 -0.4002407,0.627809 -0.6610016,1.344555 -0.7784013,2.113459 -0.00378,0.03704 0.025323,0.114255 0.062098,0.11811 0.073587,0.0076 0.1142174,-0.02532 0.1218898,-0.09887 0,0 0,0 0,0 0.5063584,-3.071769 3.3722835,-5.227871 6.536832,-4.8978028 1.251103,0.1304698 2.390227,0.6212828 3.277871,1.3834208 v 0 c 0.06591,0.08126 0.13561,0.125707 0.238413,0.21086 0,0 0,0 0,0 0.06595,0.08126 0.135685,0.125707 0.2016,0.207042 0,0 0,0 0,0 0.03288,0.04071 0.06977,0.04445 0.110362,0.01172 0.07744,-0.0291 0.08511,-0.10269 0.05594,-0.18017 -0.538862,-0.539773 -1.195789,-1.017457 -1.904863,-1.351801 1.232822,-0.7641517 2.799073,-1.1587522 4.454941,-0.9860392 1.103917,0.1151618 2.074401,0.439577 2.952113,0.9402652 l -1.208984,11.591104 c -0.0155,0.147175 -0.207005,0.2016 -0.302022,0.0429 -1.11744,-2.125209 -3.778345,-2.291161 -3.778345,-2.291161 v 0 c -0.599599,0.755807 -1.404627,1.341392 -2.297011,1.694684 -1.025813,0.562556 -8.0443615,1.876357 -8.0443615,1.876357 0,0 -4.0266671,-2.763424 -5.24116538,-7.167802 C 0.12742394,12.717707 0.42410174,7.0202562 0.35818678,6.938985 -0.41589449,5.444745 0.11100567,3.6026335 1.4926158,2.4820263 Z"
       id="path6386"
       style="fill:#000000;stroke-width:0.369967" />
  </g>
</svg>
