<?xml version="1.0" encoding="UTF-8" standalone="no"?>
<svg
   xmlns:dc="http://purl.org/dc/elements/1.1/"
   xmlns:cc="http://creativecommons.org/ns#"
   xmlns:rdf="http://www.w3.org/1999/02/22-rdf-syntax-ns#"
   xmlns:svg="http://www.w3.org/2000/svg"
   xmlns="http://www.w3.org/2000/svg"
   xmlns:sodipodi="http://sodipodi.sourceforge.net/DTD/sodipodi-0.dtd"
   xmlns:inkscape="http://www.inkscape.org/namespaces/inkscape"
   width="20"
   height="20"
   viewBox="0 0 20 20"
   version="1.1"
   id="svg838"
   inkscape:version="1.0.1 (3bc2e813f5, 2020-09-07)"
   sodipodi:docname="muscle_strong.svg">
  <defs
     id="defs832" />
  <sodipodi:namedview
     id="base"
     pagecolor="#ffffff"
     bordercolor="#666666"
     borderopacity="1.0"
     inkscape:pageopacity="0.0"
     inkscape:pageshadow="2"
     inkscape:zoom="22.4"
     inkscape:cx="10.797456"
     inkscape:cy="8.8981649"
     inkscape:document-units="mm"
     inkscape:current-layer="layer1"
     inkscape:document-rotation="0"
     showgrid="false"
     units="px"
     inkscape:window-width="1277"
     inkscape:window-height="1040"
     inkscape:window-x="75"
     inkscape:window-y="5"
     inkscape:window-maximized="0"
     inkscape:pagecheckerboard="true" />
  <metadata
     id="metadata835">
    <rdf:RDF>
      <cc:Work
         rdf:about="">
        <dc:format>image/svg+xml</dc:format>
        <dc:type
           rdf:resource="http://purl.org/dc/dcmitype/StillImage" />
        <dc:title></dc:title>
      </cc:Work>
    </rdf:RDF>
  </metadata>
  <g
     inkscape:label="Layer 1"
     inkscape:groupmode="layer"
     id="layer1">
    <g
       style="fill:#000000"
       id="g4978"
       transform="matrix(0.21767032,0,0,0.21767032,-1.7644278,-0.49126625)">
      <path
         id="path4967"
         d="M 83.221,61.938 V 61.932 C 83.11,61.868 82.984,61.825 82.87,61.764 82.474,61.555 82.072,61.358 81.657,61.184 81.427,61.086 81.189,61.002 80.956,60.916 80.625,60.795 80.29,60.682 79.952,60.584 79.685,60.502 79.417,60.432 79.146,60.367 78.817,60.289 78.484,60.226 78.147,60.172 77.87,60.123 77.591,60.07 77.307,60.035 76.914,59.99 76.513,59.974 76.113,59.959 c -0.21,-0.008 -0.415,-0.041 -0.625,-0.041 -5.297,0 -10.017,2.615 -13.015,6.668 -0.144,-0.033 -0.279,-0.045 -0.423,-0.076 -3.202,-2.111 -7.344,-3.393 -11.879,-3.393 -2.721,0 -5.441,0.453 -7.983,1.434 -1.859,0.717 -3.666,1.627 -5.214,2.896 -0.438,0.357 -0.85,0.754 -1.231,1.172 -0.518,0.566 -0.9,1.254 -1.584,1.65 -0.136,0.08 -0.301,0.137 -0.471,0.176 H 33.104 C 32.887,70.4 32.685,70.302 32.547,70.097 32.539,70.085 32.527,70.083 32.52,70.074 32.109,69.416 32.183,68.428 32.152,67.681 32.109,66.763 32.077,65.845 31.987,64.929 31.979,64.851 31.981,64.771 31.973,64.689 31.823,63.347 31.705,62 31.6,60.65 31.455,58.896 31.344,57.121 31.257,55.392 l -0.013,-0.297 c -0.184,-3.537 -0.274,-7.322 0.281,-11.03 0.518,-3.439 1.547,-6.902 2.98,-10.014 0.252,-0.549 0.541,-1.102 0.82,-1.635 0.188,-0.351 0.379,-0.719 0.562,-1.086 0.055,-0.108 0.111,-0.226 0.17,-0.35 0.294,-0.621 0.658,-1.389 1.144,-1.676 0.191,-0.109 0.435,-0.161 0.772,-0.161 0.199,0 0.416,0.019 0.623,0.034 0.148,0.014 0.306,0.027 0.455,0.031 0.302,0.014 0.609,0.035 0.914,0.051 0.559,0.035 1.139,0.069 1.715,0.069 0.521,0 0.975,-0.026 1.396,-0.088 0.383,-0.054 0.73,-0.231 1.038,-0.387 0.099,-0.051 0.193,-0.099 0.281,-0.138 1.261,-0.576 2.551,-1.143 3.8,-1.686 0.481,-0.21 0.967,-0.422 1.453,-0.635 0.918,0.047 1.831,0.055 2.708,-0.289 1.225,-0.48 1.631,-2.092 1.552,-3.263 -0.019,-0.263 -0.072,-0.487 -0.157,-0.682 -0.248,-0.581 -0.77,-0.879 -1.394,-1.001 0.263,-0.805 0.579,-1.521 0.987,-2.349 l 0.035,-0.071 c 0.486,-0.985 0.989,-2.264 0.561,-3.414 l -0.004,-0.002 c 0,-0.003 0,-0.003 0,-0.005 -0.65,-1.728 -7.911,-6.76 -9.419,-7.79 -0.229,-0.186 -2.103,-1.711 -3.77,-1.672 -1.135,0.026 -4.861,3.116 -6.982,4.956 -2.654,2.304 -5.808,5.3 -6.465,6.436 -0.505,0.865 -1.07,1.965 -1.115,2.559 L 25.59,21.19 c -1.112,2.58 -2.596,5.688 -4.164,8.977 -0.263,0.549 -0.518,1.1 -0.778,1.648 -0.622,1.309 -1.242,2.614 -1.853,3.926 -0.164,0.35 -0.326,0.688 -0.491,1.043 -0.732,1.576 -1.443,3.163 -2.152,4.753 -2.578,5.815 -5.014,11.928 -6.577,17.715 -0.24,0.883 -0.433,1.742 -0.603,2.586 -0.151,0.799 -0.313,1.602 -0.419,2.402 -0.026,0.178 -0.048,0.354 -0.072,0.525 -0.186,1.521 -0.321,3.045 -0.363,4.566 0,0.07 0,0.141 -0.003,0.211 -0.035,1.605 0.029,3.215 0.239,4.824 0.23,1.764 0.584,3.529 0.743,5.301 0,0.004 0,0.004 0,0.006 l 0.032,0.211 c -0.03,0.152 -0.063,0.348 -0.101,0.564 -0.069,0.496 -0.151,0.994 -0.204,1.469 -0.013,0.115 -0.019,0.236 -0.03,0.354 -0.037,0.635 -0.034,1.281 0.133,1.898 0.247,0.908 0.94,1.764 1.741,2.367 0.36,0.219 0.87,0.506 1.549,0.834 0.719,0.332 1.45,0.652 2.19,0.953 0.303,0.119 0.582,0.236 0.919,0.359 0.049,0.02 0.104,0.035 0.153,0.059 0.924,0.346 1.877,0.621 2.819,0.922 0.512,0.158 1.006,0.311 1.576,0.467 6.718,1.846 14.509,2.859 21.995,3.414 1.964,0.141 3.934,0.26 5.9,0.35 0.828,0.037 1.651,0.078 2.458,0.104 2.244,0.072 4.488,0.117 6.733,0.127 0.439,0.004 0.908,0.012 1.33,0.014 1.165,0 2.327,-0.025 3.49,-0.037 3.258,-0.039 6.595,-0.113 10.043,-0.26 l 0.617,-0.025 c 0,0 1.702,0.049 2.802,0.057 1.59,-0.115 3.168,-0.299 4.682,-0.709 0.162,-0.041 0.802,-0.229 1.473,-0.451 0.862,-0.283 1.771,-0.633 1.809,-0.846 5.158,-2.861 8.679,-8.494 8.679,-14.969 0.005,-6.467 -3.511,-12.096 -8.664,-14.961 z"
         inkscape:connector-curvature="0"
         style="fill:#000000" />
    </g>
  </g>
</svg>
