<svg version="1.1" viewBox="0 0 20 20" xmlns="http://www.w3.org/2000/svg">
 <style/>
 <g>
  <g transform="matrix(.042738 0 0 .042738 -.71812 -5.5849)">
   <path d="m402.21 458.72a10.32 10.32 0 0 0-14.53-4.42c-21.17 12.42-66.06 32.52-134.7 32.52s-113.53-20.1-134.7-32.52a10.32 10.32 0 0 0-14.53 4.42c-18.77 38.83-38.93 86.66-46.46 125.5a15 15 0 0 0 14.74 18h93.24a5.26 5.26 0 0 0 4.59-7.84l-12.73-22.63a9 9 0 0 1 2.95-12.17 8.8 8.8 0 0 1 12.2 3.23l20.7 36.69a5.28 5.28 0 0 0 4.59 2.68h110.9a5.28 5.28 0 0 0 4.59-2.68l20.48-36.41a9 9 0 0 1 11.92-3.81 8.8 8.8 0 0 1 3.52 12.11l-12.91 23a5.26 5.26 0 0 0 4.59 7.84h93.32a15 15 0 0 0 14.74-18c-7.58-38.85-27.74-86.68-46.51-125.51z"/>
   <path d="m414.85 147.57a29 29 0 0 0-24.74-13.77h-274.26a29 29 0 0 0-24.74 13.77c-11.74 19.08-27.91 55.49-11.35 93.26a69.12 69.12 0 0 0 71.89 40.65l0.75-0.1c0.33 0 26.77-3.54 46.53-17.84a8.79 8.79 0 0 1 12.85 2.87 9 9 0 0 1-2.8 11.58c-23.46 16.86-53.11 20.7-54.36 20.86a117.92 117.92 0 0 1-15.52 1.06 98.79 98.79 0 0 1-14.8-1.09 5.1 5.1 0 0 0-5.67 6.42l6.71 23.94a5.11 5.11 0 0 0 4.25 3.69c19.27 2.49 61.28 6.75 123.36 6.75s104.13-4.25 123.36-6.75a5.08 5.08 0 0 0 4.25-3.69l6.71-23.95a5.09 5.09 0 0 0-5.67-6.42 99.2 99.2 0 0 1-14.83 1.09 118.39 118.39 0 0 1-15.56-1.06c-1.1-0.14-28.89-3.74-51.95-19.23a9 9 0 0 1-3.13-11.44 8.8 8.8 0 0 1 12.76-3.28c19.52 13.2 44.33 16.47 44.58 16.5l0.81 0.11a69.13 69.13 0 0 0 71.9-40.66c16.57-37.79 0.4-74.19-11.33-93.27z"/>
   <path d="m120.13 426.11a7.87 7.87 0 0 0 2.76 10.32c16.53 10.38 60.3 32.8 130.09 32.8s113.56-22.42 130.09-32.8a7.87 7.87 0 0 0 2.76-10.32c-5.85-11.12-10.92-20.51-14.68-27.28a33.48 33.48 0 0 1-3-25.32l3.19-11.4a7.88 7.88 0 0 0-8.39-10c-23.09 2.4-60 5.06-110 5.06s-86.9-2.66-110-5.06a7.89 7.89 0 0 0-8.4 10l3.2 11.4a33.48 33.48 0 0 1-3 25.32c-3.7 6.77-8.77 16.16-14.62 27.28zm124-11.71a8.8 8.8 0 0 1 17.6 0v5.36a8.8 8.8 0 0 1-17.6 0z"/>
   <path d="m482.09 374.23h-11.32v-8a6.74 6.74 0 0 0-10.6-5.52l-26 18.2a6.74 6.74 0 0 0 0 11l26 18.2a6.74 6.74 0 0 0 10.6-5.52v-8h11.32a5.08 5.08 0 0 0 5.08-5.08v-10.2a5.08 5.08 0 0 0-5.08-5.08z"/>
   <path d="m35.192 394.61v8a6.74 6.74 0 0 0 10.6 5.52l26-18.2a6.74 6.74 0 0 0 0-11l-26-18.2a6.74 6.74 0 0 0-10.6 5.52v8h-11.32a5.08 5.08 0 0 0-5.08 5.08v10.22a5.08 5.08 0 0 0 5.08 5.08z"/>
  </g>
 </g>
</svg>
