<svg version="1.1" viewBox="0 0 20 20" xmlns="http://www.w3.org/2000/svg">
 <style/>
 <g>
  <path d="m16.472 14.02a0.44106 0.44106 0 0 0-0.62099-0.1889c-0.90477 0.53081-2.8233 1.3898-5.7569 1.3898-2.9336 0-4.8521-0.85904-5.7569-1.3898a0.44106 0.44106 0 0 0-0.62099 0.1889c-0.8022 1.6595-1.6638 3.7037-1.9856 5.3637a0.64107 0.64107 0 0 0 0.62996 0.76929h3.9849a0.2248 0.2248 0 0 0 0.19617-0.33507l-0.54406-0.96717a0.38464 0.38464 0 0 1 0.12608-0.52013 0.3761 0.3761 0 0 1 0.52141 0.13804l0.88468 1.5681a0.22566 0.22566 0 0 0 0.19617 0.11454h4.7397a0.22566 0.22566 0 0 0 0.19617-0.11454l0.87528-1.5561a0.38464 0.38464 0 0 1 0.50944-0.16283 0.3761 0.3761 0 0 1 0.15044 0.51756l-0.55175 0.98298a0.2248 0.2248 0 0 0 0.19617 0.33507h3.9883a0.64107 0.64107 0 0 0 0.62996-0.76929c-0.32396-1.6604-1.1856-3.7046-1.9878-5.3641z" style="stroke-width:.042738"/>
  <path d="m17.012 0.72193c-0.22623-0.36659-0.62658-0.58941-1.0573-0.58851h-11.721c-0.43077-9.0722e-4 -0.83112 0.22192-1.0573 0.58851-0.50175 0.81545-1.1928 2.3715-0.48508 3.9858 0.52758 1.1945 1.7769 1.901 3.0725 1.7373l0.032054-0.00427c0.014104 0 1.1441-0.15129 1.9886-0.76245 0.18275-0.13234 0.44011-0.07486 0.54919 0.12266 0.090634 0.17154 0.039328 0.38373-0.11967 0.49491-1.0026 0.72057-2.2698 0.88468-2.3233 0.89152-0.21986 0.029684-0.44144 0.044818-0.6633 0.045303-0.21171 3.523e-4 -0.42315-0.01522-0.63253-0.046585-0.1564-0.02355-0.28503 0.12209-0.24233 0.27438l2.3298 0.43421c1.5431 0.49529 1.6445 0.7158 3.0952 0.71946 2.6532 0 2.1544 0.022428 2.9763-0.084418 0.0868-0.011158 1.1674-0.70692 1.1906-0.79129l1.8894-0.27839c0.04323-0.15241-0.08574-0.29845-0.24233-0.27438-0.20981 0.031363-0.42167 0.046936-0.63381 0.046585-0.22242-4.68e-4 -0.44458-0.015602-0.66501-0.045303-0.04701-0.00598-1.2347-0.15984-2.2203-0.82186-0.16086-0.10639-0.21806-0.31546-0.13377-0.48893 0.10288-0.2009 0.35832-0.26657 0.54534-0.14018 0.83425 0.56415 1.8946 0.7039 1.9053 0.70518l0.03462 0.0047c1.2958 0.16364 2.5453-0.54296 3.0729-1.7377 0.70817-1.6151 0.0171-3.1708-0.48422-3.9862z" style="stroke-width:.042738"/>
  <path d="m4.5341 13.009c-0.081762 0.17925-0.14836-0.10821 0 0 0.70646 0.5121 2.5771 1.6182 5.5598 1.6182 2.9827 0 4.8534-1.1061 5.5598-1.6182 0.14836-0.10821 0.08176 0.17925 0 0-0.25002-0.5486-3.4961-0.85106-3.6568-1.1851-0.18379-0.38057-0.03893-1.3522-0.03893-1.3522l2.8358-1.6226c0.0654-0.26459 0.23709-0.028366 0 0-0.98683 0.1184-2.5643 0.24963-4.7012 0.24963-2.1369 0-3.714-0.13123-4.7012-0.24963-0.23708-0.02821 0.49118 0.074058 0.55618 0.33875l1.7885 1.155c1.1508 0.47114 0.52433 1.5385-0.17286 1.6614-0.15813 0.334-2.7792 0.45608-3.0292 1.0047zm5.1816-1.0868c3.058e-4 -0.57851 0.7525-0.57851 0.75219 0v0.26444c-3.06e-4 0.57851-0.7525 0.57851-0.75219 0z" style="stroke-width:.045918"/>
  <path d="m2.6779 11.646v0.6169a0.51974 0.51974 0 0 0 0.8174 0.42567l2.0049-1.4035a0.51974 0.51974 0 0 0 0-0.84825l-2.0049-1.4035a0.51974 0.51974 0 0 0-0.8174 0.42566v0.61691h-0.87292a0.39174 0.39174 0 0 0-0.39174 0.39173v0.7881a0.39174 0.39174 0 0 0 0.39174 0.39174z" style="stroke-width:.077113"/>
  <path d="m17.248 11.633v0.6169a0.51974 0.51974 0 0 1-0.8174 0.42567l-2.0049-1.4035a0.51974 0.51974 0 0 1 0-0.84825l2.0049-1.4035a0.51974 0.51974 0 0 1 0.8174 0.42566v0.61691h0.87292a0.39174 0.39174 0 0 1 0.39174 0.39173v0.7881a0.39174 0.39174 0 0 1-0.39174 0.39174z" style="stroke-width:.077113"/>
 </g>
</svg>
