<?xml version="1.0" encoding="UTF-8" standalone="no"?>
<svg
   xmlns:dc="http://purl.org/dc/elements/1.1/"
   xmlns:cc="http://creativecommons.org/ns#"
   xmlns:rdf="http://www.w3.org/1999/02/22-rdf-syntax-ns#"
   xmlns:svg="http://www.w3.org/2000/svg"
   xmlns="http://www.w3.org/2000/svg"
   xmlns:sodipodi="http://sodipodi.sourceforge.net/DTD/sodipodi-0.dtd"
   xmlns:inkscape="http://www.inkscape.org/namespaces/inkscape"
   width="20"
   height="20"
   viewBox="0 0 20 20"
   version="1.1"
   id="svg838"
   inkscape:version="1.0.1 (3bc2e813f5, 2020-09-07)"
   sodipodi:docname="per_sexaddict.svg">
  <defs
     id="defs832" />
  <sodipodi:namedview
     id="base"
     pagecolor="#ffffff"
     bordercolor="#666666"
     borderopacity="1.0"
     inkscape:pageopacity="0.0"
     inkscape:pageshadow="2"
     inkscape:zoom="15.839192"
     inkscape:cx="7.041573"
     inkscape:cy="8.6740927"
     inkscape:document-units="mm"
     inkscape:current-layer="g2676"
     inkscape:document-rotation="0"
     showgrid="false"
     units="px"
     inkscape:window-width="1267"
     inkscape:window-height="1040"
     inkscape:window-x="75"
     inkscape:window-y="5"
     inkscape:window-maximized="0"
     inkscape:pagecheckerboard="true" />
  <metadata
     id="metadata835">
    <rdf:RDF>
      <cc:Work
         rdf:about="">
        <dc:format>image/svg+xml</dc:format>
        <dc:type
           rdf:resource="http://purl.org/dc/dcmitype/StillImage" />
        <dc:title></dc:title>
      </cc:Work>
    </rdf:RDF>
  </metadata>
  <g
     inkscape:label="Layer 1"
     inkscape:groupmode="layer"
     id="layer1">
    <g
       id="g2676"
       transform="translate(2.8937368,0.02174023)">
      <path
         style="fill:#ff0000;fill-rule:evenodd;stroke:none;stroke-width:0.999999px;stroke-linecap:butt;stroke-linejoin:miter;stroke-opacity:1"
         d="m 5.250845,19.236878 c 0,0 -0.04883,-1.464846 -2.8808618,-3.515625 C -0.4620459,13.670473 -1.09681,12.059144 -1.7315779,10.154847 -2.366342,8.2505513 -2.1710311,4.6372704 -2.366342,3.5142216 -2.561668,2.3911765 -2.7081247,0.82867441 -2.7081247,0.82867441 L -5.051874,-2.6381237 c 0,0 6.1035164,2.05078301 9.228513,3.6621128 3.125,1.611326 4.882813,2.9296857 4.882813,2.9296857 V 0.34039351 c 0,0 0.390626,0.87890649 2.92969,2.49023619 2.53906,1.611326 4.736326,1.9042961 5.419922,2.6855434 0.683592,0.781251 2.050779,1.8066406 1.660153,4.9316409 -0.390625,3.125 -2.636719,5.615236 -4.003903,6.005862 -1.367191,0.390622 -5.224611,0.781247 -5.664064,0.976562 -0.439453,0.195326 -4.15039,1.80664 -4.15039,1.80664 z"
         id="path5445-2"
         inkscape:connector-curvature="0" />
      <path
         style="fill:#ff6600;fill-rule:evenodd;stroke:none;stroke-width:0.999999px;stroke-linecap:butt;stroke-linejoin:miter;stroke-opacity:1"
         d="m 5.446156,19.676332 c 0,0 -2.0019517,-3.710937 -4.1015624,-5.957031 C -0.7550122,11.473207 -0.5108736,7.4693003 -0.7550122,4.5396112 -0.9991697,1.6099255 -1.585091,-0.00140429 -1.585091,-0.00140429 c 0,0 4.4433589,2.05078299 6.3964827,3.46679809 C 6.764516,4.881409 9.30358,7.0786751 9.30358,7.0786751 L 9.40124,5.2720345 9.88952,3.1724238 c 0,0 2.34375,2.8808617 4.199218,3.173828 1.855469,0.2929512 3.22266,0.488281 3.564454,1.5136745 0.341782,1.025389 0.244157,1.953124 0.244157,1.953124 l 0.390622,-0.976562 c 0,0 0.341783,1.5136697 0.04883,2.5878877 -0.292951,1.074221 -1.318359,3.027345 -3.564453,4.101566 -2.246094,1.074217 -5.322263,2.734375 -5.664061,2.929685 -0.341782,0.195326 -3.662109,1.220705 -3.662109,1.220705 z"
         id="path5447-9"
         inkscape:connector-curvature="0" />
      <path
         style="fill:#ffff00;fill-rule:evenodd;stroke:none;stroke-width:0.999999px;stroke-linecap:butt;stroke-linejoin:miter;stroke-opacity:1"
         d="m 5.787954,18.992736 c 0,0 -1.4648432,-2.001951 -2.5390643,-3.320311 C 2.1746723,14.354065 1.3934213,12.059144 1.3445936,9.3735963 1.2957621,6.6880496 0.9051404,3.123596 0.9051404,3.123596 c 0,0 1.4648428,0.5371087 3.7597682,2.0507831 2.2949214,1.5136705 5.7128884,3.5644532 5.7128884,3.5644532 l 0.976562,-2.5390636 c 0,0 1.855468,1.0253896 3.173828,1.6601576 1.31836,0.634764 1.855468,3.4667937 1.562502,4.6874987 -0.292989,1.220704 -0.195326,1.904296 -0.830079,2.929689 -0.634764,1.02539 -4.492188,1.660154 -4.492188,1.660154 z"
         id="path5449-1"
         inkscape:connector-curvature="0" />
      <path
         style="clip-rule:evenodd;fill:#ff8080;fill-opacity:1;fill-rule:evenodd;stroke-width:0.16679"
         inkscape:connector-curvature="0"
         d="m 9.875906,8.7870863 c 3.912234,-4.2750014 7.802619,0.324585 6.703136,4.0481677 -1.061787,3.595669 -5.748261,5.602655 -10.195057,6.606233 C 7.596382,19.254211 5.587892,16.237948 3.8702818,14.474307 -0.5072944,9.9791413 4.395175,2.3242978 9.875906,8.7870863 Z"
         id="path3593-2-9-2" />
    </g>
  </g>
</svg>
