<?xml version="1.0" encoding="UTF-8" standalone="no"?>
<svg
   xmlns:dc="http://purl.org/dc/elements/1.1/"
   xmlns:cc="http://creativecommons.org/ns#"
   xmlns:rdf="http://www.w3.org/1999/02/22-rdf-syntax-ns#"
   xmlns:svg="http://www.w3.org/2000/svg"
   xmlns="http://www.w3.org/2000/svg"
   xmlns:sodipodi="http://sodipodi.sourceforge.net/DTD/sodipodi-0.dtd"
   xmlns:inkscape="http://www.inkscape.org/namespaces/inkscape"
   width="20"
   height="20"
   viewBox="0 0 20 20"
   version="1.1"
   id="svg838"
   inkscape:version="1.0.1 (3bc2e813f5, 2020-09-07)"
   sodipodi:docname="per_direct.svg">
  <defs
     id="defs832" />
  <sodipodi:namedview
     id="base"
     pagecolor="#ffffff"
     bordercolor="#666666"
     borderopacity="1.0"
     inkscape:pageopacity="0.0"
     inkscape:pageshadow="2"
     inkscape:zoom="15.839192"
     inkscape:cx="7.041573"
     inkscape:cy="8.6740927"
     inkscape:document-units="mm"
     inkscape:current-layer="layer1"
     inkscape:document-rotation="0"
     showgrid="false"
     units="px"
     inkscape:window-width="1267"
     inkscape:window-height="1040"
     inkscape:window-x="75"
     inkscape:window-y="5"
     inkscape:window-maximized="0"
     inkscape:pagecheckerboard="true" />
  <metadata
     id="metadata835">
    <rdf:RDF>
      <cc:Work
         rdf:about="">
        <dc:format>image/svg+xml</dc:format>
        <dc:type
           rdf:resource="http://purl.org/dc/dcmitype/StillImage" />
        <dc:title></dc:title>
      </cc:Work>
    </rdf:RDF>
  </metadata>
  <g
     inkscape:label="Layer 1"
     inkscape:groupmode="layer"
     id="layer1">
    <path
       inkscape:connector-curvature="0"
       d="M 11.736221,1.163112 11.202325,1.270753 A 0.62208175,0.62208175 0 0 0 10.831553,1.465512 0.74047681,0.74047681 0 0 1 10.500466,1.6577388 C 9.988416,1.8140601 9.4697514,1.9504254 8.9576632,2.1070113 A 5.3306193,5.3306193 0 0 0 7.5055309,2.7782251 6.1681308,6.1681308 0 0 1 6.8224947,3.1549684 C 6.5314711,3.3036172 6.2357608,3.441003 5.9402395,3.5796361 A 0.67958405,0.67958405 0 0 0 5.5955466,3.8848708 0.9154246,0.9154246 0 0 1 5.2038364,4.259044 C 5.1127494,4.310294 5.0269545,4.3718251 4.9320884,4.4153653 A 1.0079841,1.0079841 0 0 0 4.401934,4.9671536 0.9823524,0.9823524 0 0 1 4.1498395,5.3113552 2.5532888,2.5532888 0 0 0 3.6819718,5.8354585 1.1616399,1.1616399 0 0 1 3.4461293,6.0966239 2.8184906,2.8184906 0 0 0 2.8403844,6.8595895 C 2.7772663,6.9723329 2.7285104,7.0928242 2.6744631,7.209914 l -0.12737,0.2829354 A 0.64466242,0.64466242 0 0 0 2.4775497,7.6722636 2.1064937,2.1064937 0 0 1 2.1623371,8.5118592 4.0429217,4.0429217 0 0 0 1.8475025,9.3545313 3.14784,3.14784 0 0 0 1.7412978,9.8517282 2.5148409,2.5148409 0 0 0 1.7261798,10.24026 c 0.00144,0.105071 0.022677,0.207609 0.022677,0.312945 a 1.2857309,1.2857309 0 0 0 0.4759559,0.990035 c 0.1451339,0.130696 0.2898898,0.263471 0.4440189,0.383917 a 1.0557219,1.0557219 0 0 0 0.3333544,0.202469 4.8929103,4.8929103 0 0 1 0.7774488,0.365216 3.7221165,3.7221165 0 0 0 0.9289701,0.300888 11.902079,11.902079 0 0 0 1.7161323,0.153789 7.8168447,7.8168447 0 0 0 1.0187717,0.01285 6.2364148,6.2364148 0 0 0 2.0484661,-0.496425 c 0.3205039,-0.143509 0.661342,-0.240907 0.991786,-0.362911 0.110362,-0.04101 0.215433,-0.09483 0.324661,-0.138406 0.218079,-0.08716 0.432643,-0.184516 0.656126,-0.25115 a 3.942293,3.942293 0 0 0 0.80417,-0.400058 1.6477643,1.6477643 0 0 1 0.495005,-0.228095 0.9318344,0.9318344 0 0 0 0.406337,-0.228094 0.8829441,0.8829441 0 0 1 0.328063,-0.205039 2.4449297,2.4449297 0 0 0 0.998211,-0.603553 7.2736926,7.2736926 0 0 0 1.196599,-1.1284311 1.6550197,1.6550197 0 0 1 0.17348,-0.1588914 1.132821,1.132821 0 0 0 0.184441,-0.2024692 q 0.51428,-0.8562558 1.01605,-1.7196851 a 1.3309597,1.3309597 0 0 0 0.103181,-0.294463 C 17.209765,6.408862 17.227915,6.272799 17.371156,6.184358 a 0.46211978,0.46211978 0 0 0 0.130772,-0.2332346 c 0.0446,-0.1230236 0.06161,-0.2562898 0.110362,-0.3754583 A 0.75085154,0.75085154 0 0 0 17.402904,4.7519587 1.465154,1.465154 0 0 0 16.555799,4.2186257 0.58682102,0.58682102 0 0 1 16.189562,4.0135864 0.66398798,0.66398798 0 0 0 15.928397,3.854695 C 15.722035,3.7752494 15.510684,3.7086163 15.300126,3.6394131 A 0.9154246,0.9154246 0 0 0 15.072221,3.5855927 5.602941,5.602941 0 0 1 14.110482,3.4061785 0.66656471,0.66656471 0 0 1 13.850829,3.3241627 0.88592754,0.88592754 0 0 0 13.215528,3.1857564 c -0.156851,0.00643 -0.313701,0.00869 -0.47074,0.00907 -0.161386,3.855e-4 -0.168567,-0.00907 -0.216189,-0.2024693 l -0.03931,-0.097398 a 1.5178418,1.5178418 0 0 0 -0.213166,0.00167 c -0.15496,0.021165 -0.308409,0.053821 -0.463408,0.076876 -0.04989,0.00756 -0.116787,0.020409 -0.151181,-0.00378 a 0.50585693,0.50585693 0 0 0 -0.50022,-0.048718 c -0.05518,-0.099931 -0.0076,-0.128126 0.03402,-0.1563213 a 1.6417292,1.6417292 0 0 1 0.739729,-0.2332346 5.779516,5.779516 0 0 1 1.205556,-0.1153134 c 0.247181,0.020409 0.495042,0.043578 0.740976,0.076876 0.413631,0.056391 0.824731,0.1332661 1.239005,0.1845165 a 4.153722,4.153722 0 0 0 0.5249,0.0037 c 0.435591,0.1845165 0.854401,0.3667654 1.276763,0.539229 a 0.43906474,0.43906474 0 0 0 0.227149,0.018898 0.44157381,0.44157381 0 0 1 0.359433,0.1127811 4.6665635,4.6665635 0 0 1 0.814526,0.8447207 1.1405513,1.1405513 0 0 0 0.460158,0.4044207 0.72827113,0.72827113 0 0 1 0.36548,0.4408139 c 0.05291,0.1460788 0.125103,0.2847496 0.187465,0.4279975 a 0.6951125,0.6951125 0 0 1 0.05556,0.1435087 11.187099,11.187099 0 0 1 0.208252,1.1925052 4.8564292,4.8564292 0 0 1 -0.04611,1.3596019 3.0310725,3.0310725 0 0 0 -0.05216,0.4661858 0.93630993,0.93630993 0 0 0 0.133039,0.6443036 0.34419965,0.34419965 0 0 1 -0.0189,0.1102111 3.447489,3.447489 0 0 0 -0.358299,0.9449315 3.5540172,3.5540172 0 0 1 -0.788826,1.428286 9.9531743,9.9531743 0 0 1 -0.689121,0.748358 6.3987501,6.3987501 0 0 1 -0.557896,0.542558 9.5958196,9.5958196 0 0 1 -1.459238,0.918274 1.0633165,1.0633165 0 0 0 -0.429203,0.382636 0.98214887,0.98214887 0 0 1 -0.266835,0.28165 1.4418955,1.4418955 0 0 0 -0.4224,0.507447 8.707044,8.707044 0 0 1 -1.187187,1.649205 2.2840861,2.2840861 0 0 0 -0.264945,0.340346 c -0.299338,0.494891 -0.712554,0.901875 -1.046475,1.369852 a 1.25264,1.25264 0 0 1 -0.315591,0.288076 0.42089197,0.42089197 0 0 1 -0.512428,-0.01965 0.62384501,0.62384501 0 0 1 -0.306142,-0.596636 14.570847,14.570847 0 0 1 0.20674,-1.751463 c 0.04346,-0.189657 0.05858,-0.385198 0.08655,-0.578185 a 0.59746719,0.59746719 0 0 0 -0.439521,-0.02381 c -0.359433,0.06663 -0.717581,0.148649 -1.08,0.194797 A 8.0191874,8.0191874 0 0 1 8.8856214,16.05409 C 8.584775,16.05749 8.2836223,16.03367 7.9830364,16.04123 A 8.8604286,8.8604286 0 0 1 6.6132978,15.96179 6.7963832,6.7963832 0 0 1 5.0584758,15.563518 8.0076598,8.0076598 0 0 1 2.7535309,14.173419 C 2.6635781,14.096549 2.5785387,14.014528 2.4825387,13.947895 A 4.8257795,4.8257795 0 0 1 1.2323466,12.506785 C 1.1280317,12.342754 1.0248506,12.177475 0.9292285,12.006259 A 2.1450772,2.1450772 0 0 1 0.5728191,10.862963 0.6407971,0.6407971 0 0 0 0.5320002,10.673307 5.9278829,5.9278829 0 0 1 0.364945,9.3139619 3.094542,3.094542 0 0 1 0.5191498,8.3510932 4.9466155,4.9466155 0 0 1 1.0913325,7.1073338 9.227005,9.227005 0 0 1 2.1745828,5.5711486 13.191676,13.191676 0 0 1 3.6245608,4.3138056 0.89820111,0.89820111 0 0 0 3.9216317,4.0134465 0.79472425,0.79472425 0 0 1 4.331597,3.6195328 10.384238,10.384238 0 0 1 5.5474332,3.0785123 C 6.0804978,2.8632304 6.6052474,2.6282156 7.1348348,2.4052462 A 13.214798,13.214798 0 0 1 8.798923,1.7168582 6.0091186,6.0091186 0 0 1 9.970879,1.4185401 3.2149033,3.2149033 0 0 0 10.652177,1.2391259 2.490633,2.490633 0 0 1 11.737846,1.1622503 Z m 1.258809,1.6902123 -0.0076,0.028347 0.02646,0.019653 0.0189,-0.04868 z m -1.283868,-0.00907 0.01134,-0.030614 -0.03024,-0.010583 -0.01512,0.028346 z"
       id="path4210-6"
       style="stroke-width:6.78093" />
  </g>
</svg>
