<?xml version="1.0" encoding="UTF-8" standalone="no"?>
<svg
   xmlns:dc="http://purl.org/dc/elements/1.1/"
   xmlns:cc="http://creativecommons.org/ns#"
   xmlns:rdf="http://www.w3.org/1999/02/22-rdf-syntax-ns#"
   xmlns:svg="http://www.w3.org/2000/svg"
   xmlns="http://www.w3.org/2000/svg"
   xmlns:sodipodi="http://sodipodi.sourceforge.net/DTD/sodipodi-0.dtd"
   xmlns:inkscape="http://www.inkscape.org/namespaces/inkscape"
   width="20"
   height="20"
   viewBox="0 0 20 20"
   version="1.1"
   id="svg838"
   inkscape:version="1.0.1 (3bc2e813f5, 2020-09-07)"
   sodipodi:docname="per_playful.svg">
  <defs
     id="defs832" />
  <sodipodi:namedview
     id="base"
     pagecolor="#ffffff"
     bordercolor="#666666"
     borderopacity="1.0"
     inkscape:pageopacity="0.0"
     inkscape:pageshadow="2"
     inkscape:zoom="15.839192"
     inkscape:cx="7.041573"
     inkscape:cy="8.6740927"
     inkscape:document-units="mm"
     inkscape:current-layer="layer1"
     inkscape:document-rotation="0"
     showgrid="false"
     units="px"
     inkscape:window-width="1267"
     inkscape:window-height="1040"
     inkscape:window-x="75"
     inkscape:window-y="0"
     inkscape:window-maximized="0"
     inkscape:pagecheckerboard="true" />
  <metadata
     id="metadata835">
    <rdf:RDF>
      <cc:Work
         rdf:about="">
        <dc:format>image/svg+xml</dc:format>
        <dc:type
           rdf:resource="http://purl.org/dc/dcmitype/StillImage" />
        <dc:title />
      </cc:Work>
    </rdf:RDF>
  </metadata>
  <g
     inkscape:label="Layer 1"
     inkscape:groupmode="layer"
     id="layer1">
    <g
       id="g4646"
       transform="matrix(-0.3399484,0,0,0.3399484,20.878349,-0.8783488)"
       style="fill:#000000">
      <path
         inkscape:connector-curvature="0"
         d="M 6,45.99805 4,46 c 0,0.12988 0.14844,13 13,13 V 57 C 6.16406,57 6.00146,46.44727 6,45.99805 Z"
         id="path4622"
         style="fill:#000000" />
      <rect
         x="24"
         y="48"
         width="4"
         height="12"
         id="rect4624"
         style="fill:#000000" />
      <path
         inkscape:connector-curvature="0"
         d="M 46,43.44366 V 60 h 4 V 43.44366 a 3.87309,3.87309 0 0 1 -4,0 z"
         id="path4626"
         style="fill:#000000" />
      <circle
         cx="48"
         cy="40"
         r="2"
         id="circle4628"
         style="fill:#000000" />
      <circle
         cx="21"
         cy="13"
         r="1"
         id="circle4630"
         style="fill:#000000" />
      <path
         inkscape:connector-curvature="0"
         d="m 6,38 v 4 h 16.55634 a 3.87309,3.87309 0 0 1 0,-4 z"
         id="path4632-9"
         style="fill:#000000" />
      <polygon
         points="32,18 30,18 30,20 32,20 32,22 30,22 30,26 34,26 34,10 30,10 30,12 32,12 32,14 30,14 30,16 32,16 "
         id="polygon4634"
         style="fill:#000000" />
      <path
         inkscape:connector-curvature="0"
         d="m 56,28 v 21 a 1.001,1.001 0 0 0 1,1 h 3 V 28 Z"
         id="path4636"
         style="fill:#000000" />
      <path
         inkscape:connector-curvature="0"
         d="M 53,16 H 50.16211 L 47,17.05371 43.83789,16 H 41 a 1.001,1.001 0 0 0 -1,1 v 4 a 1.001,1.001 0 0 0 1,1 h 2.83789 L 47,20.94629 50.16211,22 H 53 a 1.001,1.001 0 0 0 1,-1 v -4 a 1.001,1.001 0 0 0 -1,-1 z m -10,4 a 1,1 0 1 1 1,-1 1.00115,1.00115 0 0 1 -1,1 z m 8,0 a 1,1 0 1 1 1,-1 1.00115,1.00115 0 0 1 -1,1 z"
         id="path4638"
         style="fill:#000000" />
      <circle
         cx="26"
         cy="40"
         r="2"
         id="circle4640"
         style="fill:#000000" />
      <polygon
         points="48,23.388 47,23.054 46,23.388 46,26 48,26 "
         id="polygon4642"
         style="fill:#000000" />
      <path
         inkscape:connector-curvature="0"
         d="M 44,28 H 28 V 6 A 2,2 0 0 0 24,6 V 8 H 7 a 3.00328,3.00328 0 0 0 -3,3 v 4 h 4 v 2 H 4 v 3 h 16 v 16 h 6 a 4,4 0 0 1 0,8 h -6 v 2 h 24 v -6 a 4,4 0 0 1 8,0 v 6 h 2 V 28 Z M 21,16 a 3,3 0 1 1 3,-3 3.00328,3.00328 0 0 1 -3,3 z"
         id="path4644"
         style="fill:#000000" />
    </g>
  </g>
</svg>
