<?xml version="1.0" encoding="UTF-8" standalone="no"?>
<svg
   xmlns:dc="http://purl.org/dc/elements/1.1/"
   xmlns:cc="http://creativecommons.org/ns#"
   xmlns:rdf="http://www.w3.org/1999/02/22-rdf-syntax-ns#"
   xmlns:svg="http://www.w3.org/2000/svg"
   xmlns="http://www.w3.org/2000/svg"
   xmlns:sodipodi="http://sodipodi.sourceforge.net/DTD/sodipodi-0.dtd"
   xmlns:inkscape="http://www.inkscape.org/namespaces/inkscape"
   width="20"
   height="20"
   viewBox="0 0 20 20"
   version="1.1"
   id="svg838"
   inkscape:version="1.0.1 (3bc2e813f5, 2020-09-07)"
   sodipodi:docname="per_peaceful.svg">
  <defs
     id="defs832" />
  <sodipodi:namedview
     id="base"
     pagecolor="#ffffff"
     bordercolor="#666666"
     borderopacity="1.0"
     inkscape:pageopacity="0.0"
     inkscape:pageshadow="2"
     inkscape:zoom="15.839192"
     inkscape:cx="7.041573"
     inkscape:cy="8.6740927"
     inkscape:document-units="mm"
     inkscape:current-layer="layer1"
     inkscape:document-rotation="0"
     showgrid="false"
     units="px"
     inkscape:window-width="1267"
     inkscape:window-height="1040"
     inkscape:window-x="75"
     inkscape:window-y="5"
     inkscape:window-maximized="0"
     inkscape:pagecheckerboard="true" />
  <metadata
     id="metadata835">
    <rdf:RDF>
      <cc:Work
         rdf:about="">
        <dc:format>image/svg+xml</dc:format>
        <dc:type
           rdf:resource="http://purl.org/dc/dcmitype/StillImage" />
        <dc:title></dc:title>
      </cc:Work>
    </rdf:RDF>
  </metadata>
  <g
     inkscape:label="Layer 1"
     inkscape:groupmode="layer"
     id="layer1">
    <path
       inkscape:connector-curvature="0"
       d="M 18.238299,6.518973 C 17.787764,5.454019 17.143151,4.497931 16.322139,3.676923 15.501328,2.856305 14.54544,2.212092 13.480683,1.76136 12.377597,1.294936 11.206568,1.058546 9.99998,1.058546 8.7933921,1.058546 7.6225625,1.294955 6.519273,1.761561 5.4543268,2.212288 4.4982349,2.856505 3.6772232,3.67712 2.8566046,4.498131 2.2119986,5.454019 1.7616603,6.51917 1.2950398,7.622463 1.058449,8.793292 1.058449,10.000077 c 0,1.206187 0.2365984,2.37781 0.7032113,3.480703 0.4300763,1.016281 1.0379377,1.935424 1.8063043,2.729817 3.969e-4,4e-4 8.277e-4,8.23e-4 0.0012,0.0016 2.003e-4,0 5.972e-4,4e-4 9.751e-4,8.27e-4 0.035528,0.03666 0.071131,0.0731 0.107074,0.109455 0.8208152,0.820812 1.7769071,1.465425 2.8420536,1.915956 1.1032895,0.466625 2.2741191,0.703019 3.4807027,0.703019 1.206391,0 2.377618,-0.236409 3.480711,-0.703019 1.064549,-0.450531 2.020641,-1.095144 2.841452,-1.915956 l 0.01928,-0.01928 c 0.03591,-0.0291 0.0689,-0.06021 0.09914,-0.0912 0.03024,-0.03175 0.059,-0.06478 0.08723,-0.101707 0.723477,-0.771946 1.298959,-1.656919 1.710553,-2.629697 0.466825,-1.103089 0.703215,-2.27452 0.703215,-3.480707 0,-1.206781 -0.236409,-2.377811 -0.703011,-3.4811 z m -4.346611,8.842209 c -0.810883,0.590377 -1.751679,0.990652 -2.73518,1.165066 V 12.72314 Z M 15.498149,13.696115 11.156708,9.508424 V 3.473706 c 3.127113,0.553428 5.470753,3.338872 5.470753,6.526371 0,1.324781 -0.389945,2.6003 -1.129312,3.696038 z m -6.6550902,-0.96364 v 3.793973 C 7.8623319,16.352438 6.9235199,15.952954 6.1138317,15.365747 Z M 3.3722985,10.000077 c 0,-3.187499 2.3438476,-5.972742 5.4707603,-6.526371 v 6.04405 L 4.5057826,13.701678 C 3.7638349,12.604942 3.3722985,11.327439 3.3722985,10.000077 Z"
       id="path3916-4"
       style="fill:#000000;stroke-width:0.198648" />
  </g>
</svg>
