<?xml version="1.0" encoding="UTF-8" standalone="no"?>
<svg
   xmlns:dc="http://purl.org/dc/elements/1.1/"
   xmlns:cc="http://creativecommons.org/ns#"
   xmlns:rdf="http://www.w3.org/1999/02/22-rdf-syntax-ns#"
   xmlns:svg="http://www.w3.org/2000/svg"
   xmlns="http://www.w3.org/2000/svg"
   xmlns:sodipodi="http://sodipodi.sourceforge.net/DTD/sodipodi-0.dtd"
   xmlns:inkscape="http://www.inkscape.org/namespaces/inkscape"
   width="20"
   height="20"
   viewBox="0 0 20 20"
   version="1.1"
   id="svg838"
   inkscape:version="1.0.1 (3bc2e813f5, 2020-09-07)"
   sodipodi:docname="per_smart.svg">
  <defs
     id="defs832" />
  <sodipodi:namedview
     id="base"
     pagecolor="#ffffff"
     bordercolor="#666666"
     borderopacity="1.0"
     inkscape:pageopacity="0.0"
     inkscape:pageshadow="2"
     inkscape:zoom="15.839192"
     inkscape:cx="7.0431287"
     inkscape:cy="8.6727398"
     inkscape:document-units="mm"
     inkscape:current-layer="layer1"
     inkscape:document-rotation="0"
     showgrid="false"
     units="px"
     inkscape:window-width="1267"
     inkscape:window-height="1040"
     inkscape:window-x="75"
     inkscape:window-y="5"
     inkscape:window-maximized="0"
     inkscape:pagecheckerboard="true" />
  <metadata
     id="metadata835">
    <rdf:RDF>
      <cc:Work
         rdf:about="">
        <dc:format>image/svg+xml</dc:format>
        <dc:type
           rdf:resource="http://purl.org/dc/dcmitype/StillImage" />
        <dc:title></dc:title>
      </cc:Work>
    </rdf:RDF>
  </metadata>
  <g
     inkscape:label="Layer 1"
     inkscape:groupmode="layer"
     id="layer1">
    <path
       inkscape:connector-curvature="0"
       d="m -0.20665826,17.190585 c 1.1408126,0.08417 4.01759246,-0.136932 5.97233766,-4.046653 v 3.568898 c 0,0.274583 0.2225008,0.497288 0.4972876,0.497288 h 1.282628 c 0.2748095,0 0.4975181,-0.222728 0.4975181,-0.497288 0,-0.274582 -0.7067565,-0.497287 -0.7067565,-0.497287 l 0.1973669,-1.448156 1.0582791,-1.623221 h 2.4348284 l 0.418474,3.568895 c 0.03288,0.206665 0.222689,0.497288 0.497287,0.497288 h 1.282859 c 0.274582,0 0.497053,-0.228511 0.497053,-0.497288 0,-0.268762 -0.706292,-0.497753 -0.706292,-0.497753 v -1.783865 c 0,-0.985512 0.919019,-2.07936 1.816649,-2.80704 1.53371,-1.242871 1.096173,-2.4580761 1.873372,-2.4580761 0.441491,0 0.981324,0.1959685 1.444668,0.4140586 0.59633,0.2805921 1.375619,0.246652 1.787354,-0.1655433 0.144831,-0.1448315 0.279911,-0.2796851 0.394299,-0.3940649 0.194116,-0.1943811 0.166715,-0.4754343 -0.0593,-0.6316649 -0.479388,-0.3319937 -1.247989,-0.8815899 -1.578119,-1.2117203 -0.497288,-0.4972838 0,-1.4107238 -1.491628,-2.405299 V 2.9819464 c 0,-0.1099465 -0.08954,-0.1997103 -0.198804,-0.1918111 -0.864382,0.063912 -1.327265,0.5588939 -1.790378,1.4848895 -0.497053,0.9941065 -0.497053,3.3994092 -6.4645082,3.3994092 -8.71079066,0 -5.1767661,4.709707 -9.10601586,9.087421 -0.1841385,0.203905 -0.1243842,0.408245 0.1494804,0.428704 z"
       id="path5080"
       style="fill:#000000;stroke-width:0.232486" />
  </g>
</svg>
