<?xml version="1.0" encoding="UTF-8" standalone="no"?>
<svg
   xmlns:dc="http://purl.org/dc/elements/1.1/"
   xmlns:cc="http://creativecommons.org/ns#"
   xmlns:rdf="http://www.w3.org/1999/02/22-rdf-syntax-ns#"
   xmlns:svg="http://www.w3.org/2000/svg"
   xmlns="http://www.w3.org/2000/svg"
   xmlns:sodipodi="http://sodipodi.sourceforge.net/DTD/sodipodi-0.dtd"
   xmlns:inkscape="http://www.inkscape.org/namespaces/inkscape"
   width="20"
   height="20"
   viewBox="0 0 20 20"
   version="1.1"
   id="svg838"
   inkscape:version="1.0.1 (3bc2e813f5, 2020-09-07)"
   sodipodi:docname="per_active.svg">
  <defs
     id="defs832" />
  <sodipodi:namedview
     id="base"
     pagecolor="#ffffff"
     bordercolor="#666666"
     borderopacity="1.0"
     inkscape:pageopacity="0.0"
     inkscape:pageshadow="2"
     inkscape:zoom="15.839192"
     inkscape:cx="7.041573"
     inkscape:cy="8.6740927"
     inkscape:document-units="mm"
     inkscape:current-layer="layer1"
     inkscape:document-rotation="0"
     showgrid="false"
     units="px"
     inkscape:window-width="1267"
     inkscape:window-height="1040"
     inkscape:window-x="75"
     inkscape:window-y="5"
     inkscape:window-maximized="0"
     inkscape:pagecheckerboard="true" />
  <metadata
     id="metadata835">
    <rdf:RDF>
      <cc:Work
         rdf:about="">
        <dc:format>image/svg+xml</dc:format>
        <dc:type
           rdf:resource="http://purl.org/dc/dcmitype/StillImage" />
        <dc:title></dc:title>
      </cc:Work>
    </rdf:RDF>
  </metadata>
  <g
     inkscape:label="Layer 1"
     inkscape:groupmode="layer"
     id="layer1">
    <g
       id="g3938"
       transform="matrix(0.12609422,0.06739514,-0.06739514,0.12609422,39.258367,16.229982)"
       style="fill:#000000">
      <path
         style="fill:#000000;stroke-width:0.264583"
         id="path3915"
         d="m -165.12939,5.1877124 h -10.74209 c -1.48166,0 -2.69875,-1.190625 -2.69875,-2.69875 V -12.274787 c 0,-1.508125 -1.19062,-2.69875 -2.69875,-2.69875 h -34.925 c -1.48166,0 -2.69875,1.190625 -2.69875,2.69875 V 2.4889624 c 0,1.4816667 -1.19062,2.69875 -2.69875,2.69875 h -10.74208 c -3.70417,0 -6.72042,3.01625 -6.72042,6.7204166 V 112.71438 c 0,3.70416 3.01625,6.72041 6.72042,6.72041 h 67.20417 c 3.70416,0 6.72041,-3.01625 6.72041,-6.72041 V 11.908129 c 0,-3.7041666 -3.01625,-6.7204166 -6.72041,-6.7204166 z M -178.88773,56.252295 -200.5571,97.76542 c -1.34938,2.38125 -4.97417,1.42875 -4.97417,-1.322917 v -28.09875 c 0,-1.481666 -1.19062,-2.672291 -2.67229,-2.672291 h -7.96396 c -2.03729,0 -3.33375,-2.2225 -2.30187,-4.021667 l 21.29895,-41.804166 c 1.34938,-2.38125 4.97417,-1.42875 4.97417,1.322917 v 28.389791 c 0,1.481666 1.19063,2.672291 2.67229,2.672291 h 8.36084 c 2.01083,0.02646 3.30729,2.248959 2.27541,4.021667 z"
         inkscape:connector-curvature="0" />
    </g>
  </g>
</svg>
