<?xml version="1.0" encoding="UTF-8" standalone="no"?>
<svg
   xmlns:dc="http://purl.org/dc/elements/1.1/"
   xmlns:cc="http://creativecommons.org/ns#"
   xmlns:rdf="http://www.w3.org/1999/02/22-rdf-syntax-ns#"
   xmlns:svg="http://www.w3.org/2000/svg"
   xmlns="http://www.w3.org/2000/svg"
   xmlns:sodipodi="http://sodipodi.sourceforge.net/DTD/sodipodi-0.dtd"
   xmlns:inkscape="http://www.inkscape.org/namespaces/inkscape"
   width="20"
   height="20"
   viewBox="0 0 20 20"
   version="1.1"
   id="svg838"
   inkscape:version="1.0.1 (3bc2e813f5, 2020-09-07)"
   sodipodi:docname="per_patient.svg">
  <defs
     id="defs832" />
  <sodipodi:namedview
     id="base"
     pagecolor="#ffffff"
     bordercolor="#666666"
     borderopacity="1.0"
     inkscape:pageopacity="0.0"
     inkscape:pageshadow="2"
     inkscape:zoom="15.839192"
     inkscape:cx="7.041573"
     inkscape:cy="8.6740927"
     inkscape:document-units="mm"
     inkscape:current-layer="layer1"
     inkscape:document-rotation="0"
     showgrid="false"
     units="px"
     inkscape:window-width="1267"
     inkscape:window-height="1040"
     inkscape:window-x="75"
     inkscape:window-y="0"
     inkscape:window-maximized="0"
     inkscape:pagecheckerboard="true" />
  <metadata
     id="metadata835">
    <rdf:RDF>
      <cc:Work
         rdf:about="">
        <dc:format>image/svg+xml</dc:format>
        <dc:type
           rdf:resource="http://purl.org/dc/dcmitype/StillImage" />
        <dc:title />
      </cc:Work>
    </rdf:RDF>
  </metadata>
  <g
     inkscape:label="Layer 1"
     inkscape:groupmode="layer"
     id="layer1">
    <path
       inkscape:connector-curvature="0"
       d="m 0.86673021,14.854958 c -0.0189,-0.852585 2.62404999,-2.684133 3.73111099,-3.412747 1.217726,-0.589213 3.960001,-1.9053542 4.550401,-2.1074682 0,0 -2.906986,0.7770972 -4.628561,1.9914592 -0.811578,0.192718 -0.315969,-0.526991 -0.315969,-0.526991 l -0.205606,-0.205492 2.926526,-1.8226247 c 2.618533,-2.8237834 4.9802088,-3.1831484 4.9802088,-3.1831484 1.15525,-0.3337701 2.361675,-1.9253707 2.361675,-1.9253707 1.668511,-2.87490897 4.235679,-1.103898 4.235679,-1.103898 1.925103,0.5134828 1.026709,1.668514 1.026709,1.668514 0.102803,-0.5904189 -0.795666,-0.3851943 -0.795666,-0.3851943 -0.949077,0.5084183 -0.898659,1.4374564 -0.898659,1.4374564 0.590438,0.6417902 0.0771,2.0792429 0.0771,2.0792429 -1.360517,3.0034658 -3.311471,4.2612358 -3.311471,4.2612358 -0.795666,0.718734 -0.61595,2.387241 -0.61595,2.387241 l 0.354898,0.849932 3.776693,-0.983792 0.310299,1.191935 -1.867238,0.486705 1.511018,1.377645 -0.8304,0.910469 -2.102892,-1.91814 -7.9028778,2.058992 -0.310301,-1.192173 5.0074588,-1.304326 -0.663004,-1.733628 c -0.06954,-0.07744 -0.142866,-0.1536 -0.226016,-0.225978 l 0.0026,-7.22e-4 c -0.944239,0.162558 -2.4255868,0.226243 -2.4255868,0.226243 -1.360744,1.437452 -3.491378,1.155023 -3.491378,1.155023 -3.978784,3.106213 -4.107099,2.413051 -4.107099,2.413051 -0.92424599,-0.231042 2.233361,-3.054837 2.233361,-3.054837 l -0.09978,0.05356 c 0.604876,-0.595238 2.598274,-2.331761 6.292234,-3.486067 0,0 -4.546546,0.792533 -6.390426,3.539131 l -2.18944299,1.177218 c -1.360516,0.66808 0,-0.692436 0,-0.692436 z M 17.506214,3.2646325 c 0,0 -0.282331,-0.6159836 -0.82148,0 2.64e-4,0 0.539074,0.4876724 0.82148,0 z m -5.395994,10.7936995 0.534463,1.240649 0.979465,-0.255156 -0.563906,-1.600736 -1.026708,-0.146872 z"
       id="path4164-2"
       style="fill:#000000;stroke-width:0.241184" />
  </g>
</svg>
