<?xml version="1.0" encoding="UTF-8" standalone="no"?>
<svg
   xmlns:dc="http://purl.org/dc/elements/1.1/"
   xmlns:cc="http://creativecommons.org/ns#"
   xmlns:rdf="http://www.w3.org/1999/02/22-rdf-syntax-ns#"
   xmlns:svg="http://www.w3.org/2000/svg"
   xmlns="http://www.w3.org/2000/svg"
   xmlns:sodipodi="http://sodipodi.sourceforge.net/DTD/sodipodi-0.dtd"
   xmlns:inkscape="http://www.inkscape.org/namespaces/inkscape"
   width="20"
   height="20"
   viewBox="0 0 20 20"
   version="1.1"
   id="svg838"
   inkscape:version="1.0.1 (3bc2e813f5, 2020-09-07)"
   sodipodi:docname="per_proud.svg">
  <defs
     id="defs832" />
  <sodipodi:namedview
     id="base"
     pagecolor="#ffffff"
     bordercolor="#666666"
     borderopacity="1.0"
     inkscape:pageopacity="0.0"
     inkscape:pageshadow="2"
     inkscape:zoom="15.839192"
     inkscape:cx="5.7895932"
     inkscape:cy="14.240429"
     inkscape:document-units="mm"
     inkscape:current-layer="layer1"
     inkscape:document-rotation="0"
     showgrid="false"
     units="px"
     inkscape:window-width="1313"
     inkscape:window-height="1040"
     inkscape:window-x="75"
     inkscape:window-y="0"
     inkscape:window-maximized="0"
     inkscape:pagecheckerboard="true" />
  <metadata
     id="metadata835">
    <rdf:RDF>
      <cc:Work
         rdf:about="">
        <dc:format>image/svg+xml</dc:format>
        <dc:type
           rdf:resource="http://purl.org/dc/dcmitype/StillImage" />
        <dc:title />
      </cc:Work>
    </rdf:RDF>
  </metadata>
  <g
     inkscape:label="Layer 1"
     inkscape:groupmode="layer"
     id="layer1">
    <g
       id="g846"
       transform="matrix(0.15848168,0,0,0.15848168,6.8582206,4.6577266)">
      <path
         d="m 25.174244,6.0732308 -5.4,5.4000002 -5.4,-5.4000002 H 7.5742436 l -14.7,15.4000002 7.49999996,14.2 4.10000004,-2.3 2,3.5 -6.80000004,3.8 3.90000004,9.5 H 13.974244 l 5.7,-4.6 5.7,4.6 h 10.1 l 4,-9.6 -0.1,-0.1 -6.6,-3.5 1.9,-3.5 4.1,2.2 7.5,-14.1 -14.7,-15.4000002 h -6.4 z m 16.8,18.1000002 h -12.5 l -1.5,10.7 -0.1,5.6 -8.2,3.3 -7.9,-3.4 v -5 0 l -1.9000004,-11.2 h -12.5 v -4 H 13.274244 l 2.4,14.4 8.2,0.1 2,-14.5 h 16 z"
         id="path2" />
      <polygon
         points="-197,442 -201.3,445.4 -205.4,445.4 -203,452 -191,452 -188.6,445.4 -192.7,445.4 "
         id="polygon4"
         transform="translate(216.77424,-391.22677)" />
      <path
         d="M 64.874244,10.273231 V -9.0267692 h -16.1 l -6.9,-8.2999998 H -2.3257564 l -7.1,8.4999998 H -25.225756 V 10.173231 l -5.1,6.1 c 0,0 4.446334,48.111888 21.9999996,60.4 15.3740277,10.762298 40.9259724,10.762298 56.3000004,0 17.553666,-12.288112 22,-60.4 22,-60.4 z m -4,-15.3000002 V 11.473231 l -14.8,-16.5000002 z m -82.1,0.2 H -6.7257564 L -21.225756,11.373231 Z m 63.6,42.3000002 2.3,1.3 -6.4,15.4 h -5.9 l -3.9,10.6 h -17.5 l -3.9000004,-10.6 H 0.87424356 l -6.39999996,-15.4 2.3,-1.3 -8.8999996,-16.7 L 5.6742436,1.9732308 h 4.5000004 l -5.0000004,-5 2.8,-2.8 11.8000004,11.6 11.6,-11.5 2.8,2.8 -5,5 h 4.2 l 17.8,18.8000002 z"
         id="path6"
         sodipodi:nodetypes="cccccccccsscccccccccccccccccccccccccccccccc" />
    </g>
  </g>
</svg>
