<?xml version="1.0" encoding="UTF-8" standalone="no"?>
<svg
   xmlns:dc="http://purl.org/dc/elements/1.1/"
   xmlns:cc="http://creativecommons.org/ns#"
   xmlns:rdf="http://www.w3.org/1999/02/22-rdf-syntax-ns#"
   xmlns:svg="http://www.w3.org/2000/svg"
   xmlns="http://www.w3.org/2000/svg"
   xmlns:sodipodi="http://sodipodi.sourceforge.net/DTD/sodipodi-0.dtd"
   xmlns:inkscape="http://www.inkscape.org/namespaces/inkscape"
   width="20"
   height="20"
   viewBox="0 0 20 20"
   version="1.1"
   id="svg838"
   inkscape:version="1.0.1 (3bc2e813f5, 2020-09-07)"
   sodipodi:docname="per_decisive.svg">
  <defs
     id="defs832" />
  <sodipodi:namedview
     id="base"
     pagecolor="#ffffff"
     bordercolor="#666666"
     borderopacity="1.0"
     inkscape:pageopacity="0.0"
     inkscape:pageshadow="2"
     inkscape:zoom="15.839192"
     inkscape:cx="7.041573"
     inkscape:cy="8.6740927"
     inkscape:document-units="mm"
     inkscape:current-layer="layer1"
     inkscape:document-rotation="0"
     showgrid="false"
     units="px"
     inkscape:window-width="1267"
     inkscape:window-height="1040"
     inkscape:window-x="75"
     inkscape:window-y="5"
     inkscape:window-maximized="0"
     inkscape:pagecheckerboard="true" />
  <metadata
     id="metadata835">
    <rdf:RDF>
      <cc:Work
         rdf:about="">
        <dc:format>image/svg+xml</dc:format>
        <dc:type
           rdf:resource="http://purl.org/dc/dcmitype/StillImage" />
        <dc:title></dc:title>
      </cc:Work>
    </rdf:RDF>
  </metadata>
  <g
     inkscape:label="Layer 1"
     inkscape:groupmode="layer"
     id="layer1">
    <path
       inkscape:connector-curvature="0"
       d="M 19.216074,8.5862357 18.535078,9.4465734 17.602442,9.7619749 16.191469,9.5546679 13.393145,8.6519579 12.272023,8.5946981 10.769094,7.8284934 9.0327036,6.5479289 9.3377114,6.6070785 8.9432799,6.1831554 8.3022343,5.9977318 9.0695162,6.0173853 8.3483067,5.381578 7.3381146,5.1880662 8.3332264,5.0695025 7.2501272,4.4941979 5.9804705,4.4760561 6.8665807,4.0990482 5.6930374,3.7887112 4.5118594,3.9750419 5.0912988,3.4484403 3.8790909,3.3066703 2.8643255,3.8771673 3.1530815,3.2225796 2.0446216,3.9066589 1.5352925,4.6365954 1.3928043,4.4011686 0.5870468,6.0025884 0.7178185,6.0792374 0.334083,6.5765703 0.5975161,6.879953 0.6942721,7.0592538 0.8768233,7.0694588 0.9440993,7.1732068 1.1576426,7.313843 1.0896106,7.059821 1.6716956,6.9342651 1.980483,7.1542336 1.8308137,7.3167533 1.5435696,7.4493013 1.3576169,7.2396131 1.3020579,7.4285517 1.404861,7.6631092 1.364798,7.7528732 1.5609555,7.8845519 1.5685155,8.050322 2.1842384,8.3530621 2.1540021,8.1698306 2.6727423,8.1490436 2.4837659,7.944609 2.870147,7.770335 2.6535801,7.5563003 2.8032494,7.4434058 3.209284,7.4362258 3.553599,7.6240306 3.5649376,7.4632873 4.0426699,7.834588 4.0162129,7.5761817 4.4503672,7.875218 4.8003515,7.855564 5.0789026,7.892603 4.8332334,7.898273 4.005668,8.0553124 l -0.8491843,0.028346 -1.388674,0.5051981 -0.00756,0.00907 C 1.6090695,8.7809699 1.437479,8.981043 1.3955262,9.0190121 c -0.039307,0.00718 -0.040819,0.054576 -0.048378,0.2909481 -0.002,0.069694 -0.00378,0.159685 -0.00756,0.2048882 l -0.00756,0.033638 c -0.011339,0.040479 -0.011339,0.043843 0.3291968,0.2356535 L 1.672564,9.7905699 2.2391158,9.7671319 2.5996827,9.4010847 3.1168736,9.0083825 4.8283949,8.8449935 5.6183917,8.7390912 5.5114311,8.8183478 6.56025,9.4963044 l 3.1965355,0.7115946 1.8914645,2.284406 2.088265,1.141221 1.726337,1.976878 0.422891,0.814689 0.4032,0.352327 0.320882,-0.0291 0.494287,-0.289399 0.0189,-0.530528 -0.290646,-0.541667 -0.704617,-0.377424 -0.87496,-1.940178 -0.890495,-0.842431 -0.962986,-2.3743891 -0.01134,-0.017764 c -0.102804,-0.08606 -0.21052,-0.177978 -0.292158,-0.2496378 0.01134,0.00529 0.02646,0.010583 0.0378,0.016252 l 0.01134,0.00454 0.523313,-0.053065 2.411301,0.5484399 1.549682,0.2256 0.01134,0.0013 1.206085,-0.3942427 0.775786,-0.7919736 0.04346,-0.6602683 z M 1.4296547,5.6771598 1.3907257,5.9964921 1.1061273,6.0899601 1.0139073,6.1980924 0.9874503,6.1791944 1.3873998,5.5792095 1.6470534,5.6033985 Z"
       id="path3780-7"
       style="stroke-width:0.218415" />
  </g>
</svg>
