<?xml version="1.0" encoding="UTF-8" standalone="no"?>
<svg
   xmlns:dc="http://purl.org/dc/elements/1.1/"
   xmlns:cc="http://creativecommons.org/ns#"
   xmlns:rdf="http://www.w3.org/1999/02/22-rdf-syntax-ns#"
   xmlns:svg="http://www.w3.org/2000/svg"
   xmlns="http://www.w3.org/2000/svg"
   xmlns:sodipodi="http://sodipodi.sourceforge.net/DTD/sodipodi-0.dtd"
   xmlns:inkscape="http://www.inkscape.org/namespaces/inkscape"
   width="20"
   height="20"
   viewBox="0 0 20 20"
   version="1.1"
   id="svg838"
   inkscape:version="1.0.1 (3bc2e813f5, 2020-09-07)"
   sodipodi:docname="per_dominant.svg">
  <defs
     id="defs832" />
  <sodipodi:namedview
     id="base"
     pagecolor="#ffffff"
     bordercolor="#666666"
     borderopacity="1.0"
     inkscape:pageopacity="0.0"
     inkscape:pageshadow="2"
     inkscape:zoom="15.839192"
     inkscape:cx="10.208388"
     inkscape:cy="9.9122724"
     inkscape:document-units="mm"
     inkscape:current-layer="g50"
     inkscape:document-rotation="0"
     showgrid="false"
     units="px"
     inkscape:window-width="1267"
     inkscape:window-height="1040"
     inkscape:window-x="75"
     inkscape:window-y="0"
     inkscape:window-maximized="0"
     inkscape:pagecheckerboard="true" />
  <metadata
     id="metadata835">
    <rdf:RDF>
      <cc:Work
         rdf:about="">
        <dc:format>image/svg+xml</dc:format>
        <dc:type
           rdf:resource="http://purl.org/dc/dcmitype/StillImage" />
        <dc:title />
      </cc:Work>
    </rdf:RDF>
  </metadata>
  <g
     inkscape:label="Layer 1"
     inkscape:groupmode="layer"
     id="layer1">
    <g
       id="g50"
       transform="matrix(0.06649713,0,0,0.06649713,2.3420175,-1.9237398)">
      <g
         id="g891"
         transform="matrix(2.7794334,0,0,2.7794334,-145.18222,-60.248424)">
        <path
           d="m 122.4389,210.80551 -5.72945,-70.24429 v -17.63307 c -0.0119,0 -0.0222,0.002 -0.0341,0.002 h -0.0119 -0.0647 c -2.5346,-0.0298 -4.35098,-0.71054 -5.85895,-1.34697 -1.48582,-0.65686 -2.73565,-1.36484 -3.83723,-1.99103 l -0.4456,-0.25474 c -2.07537,-1.18336 -4.2172,-2.40934 -6.56606,-3.33117 -1.00446,-0.39616 -1.88624,-0.96613 -2.641927,-1.6511 -0.377422,-0.0179 -0.75655,-0.0443 -1.132257,-0.0443 -6.441687,0.0298 -10.684465,2.43746 -15.176009,4.98654 -0.748021,0.42428 -1.494348,0.846 -2.244919,1.25666 l -0.647496,0.32458 c -1.717551,0.86815 -3.858534,1.94673 -7.278316,2.04813 h -0.0281 -0.09632 c -0.0068,0 -0.01444,-8.6e-4 -0.02045,-8.6e-4 v 17.63562 l -7.267242,89.1076 c -0.472839,5.80016 3.845759,10.88127 9.642513,11.35411 5.797601,0.47283 10.882115,-3.84235 11.354955,-9.64166 l 6.329224,-77.5993 h 5.965446 l 4.958418,60.8003 c 4.01274,-2.93757 8.95497,-4.67726 14.29678,-4.67726 2.26367,0 4.45321,0.31862 6.5337,0.90051 z"
           id="path2"
           style="stroke-width:0.851962" />
        <circle
           cx="93.66729"
           cy="58.320427"
           r="19.169153"
           id="circle4"
           style="stroke-width:0.851962" />
        <path
           d="m 66.429189,120.05108 c 1.372512,0.6986 2.906894,1.00361 4.216364,1.00361 0.02296,0 0.04691,0 0.07074,-0.002 3.363551,-0.0979 5.257463,-1.24813 7.082363,-2.14526 5.276203,-2.87197 10.24144,-6.43486 18.318904,-6.4715 1.277938,0 2.635961,0.0946 4.09964,0.31267 3.72222,0.56059 7.19311,-2.00381 7.75285,-5.72604 0.55889,-3.72563 -2.00467,-7.193111 -5.72773,-7.752863 -2.12821,-0.320338 -4.171215,-0.466872 -6.12476,-0.466872 -8.294708,-0.01618 -14.819895,2.684535 -19.370219,5.093035 -2.16484,1.14162 -3.935222,2.21511 -5.168004,2.87879 -0.0315,-0.0563 -0.06309,-0.11672 -0.09458,-0.17808 -0.206168,-0.40978 -0.386783,-0.93373 -0.514576,-1.52074 l 1.720109,-1.07773 c 0.911602,-0.52055 1.996997,-1.13652 3.184632,-1.76101 6.750949,-3.572282 13.351954,-5.307728 20.174473,-5.307728 2.169946,0 4.326265,0.162727 6.475765,0.486469 2.2364,0.337376 4.13969,1.508818 5.46022,3.146299 2.18358,0.96272 4.0971,1.98848 5.84873,2.97505 0.28115,0.16017 0.55036,0.31522 0.81192,0.46432 l 1.71925,1.07603 c -0.12779,0.58615 -0.30926,1.10926 -0.51713,1.51904 -0.0315,0.0613 -0.0613,0.12013 -0.0928,0.17636 -0.74887,-0.40723 -1.72691,-0.96527 -2.84043,-1.60254 -1.00958,-0.56995 -2.15376,-1.19786 -3.42233,-1.83257 0.40383,1.24131 0.5427,2.58741 0.33567,3.96163 -0.62023,4.11157 -4.14225,7.2289 -8.26574,7.38567 2.23385,0.97124 4.26577,2.13417 6.26533,3.27665 1.15441,0.65346 2.30285,1.30264 3.64385,1.8939 1.34098,0.56741 2.92563,1.17316 5.1501,1.19957 0.0179,0 0.0366,0 0.0546,0 1.31799,0 2.85578,-0.30585 4.22829,-1.00361 3.36098,-1.69711 5.71751,-4.47366 7.16671,-7.41976 1.4577,-2.97334 2.11797,-6.19119 2.12479,-9.444 -0.0137,-4.78802 -1.45089,-9.808635 -4.91582,-13.943208 -3.21275,-3.899434 -8.43273,-6.595043 -14.40157,-6.854891 -0.24707,-0.02726 -0.49754,-0.04601 -0.75314,-0.04601 h -0.0477 -32.867861 c -0.253883,0 -0.503511,0.01789 -0.750571,0.04601 -5.968856,0.261551 -11.189678,2.957161 -14.400725,6.854891 -3.465783,4.135429 -4.905599,9.156884 -4.918379,13.943208 0.0068,3.18634 0.646639,6.34458 2.04471,9.2668 0.02811,0.058 0.05197,0.11843 0.08008,0.17636 1.446632,2.95034 3.808271,5.72775 7.164152,7.41974 z"
           id="path6"
           style="stroke-width:0.851962" />
      </g>
    </g>
  </g>
</svg>
