<svg version="1.1" viewBox="0 0 20 20" xmlns="http://www.w3.org/2000/svg">
 <g>
  <g transform="matrix(4.5466 0 0 4.5466 -1.3076 -1.3392)" data-name="Layer 2">
   <path d="m2.5732 2.02c0.06168-0.00637 0.12342-0.012 0.18539-0.01493a1.4887 1.4887 0 0 1 0.29174 0.01187c0.04265-0.01166 0.08582-0.0219 0.128-0.03592a0.88586 0.88586 0 0 0 0.19287-0.09302 0.82817 0.82817 0 0 0 0.28371-0.30192 0.8683 0.8683 0 0 0 1e-3 -0.79811 0.93069 0.93069 0 0 0-0.58806-0.45958 0.964 0.964 0 0 0-0.77127 0.145 1.0406 1.0406 0 0 0-0.42356 0.62562 1.0469 1.0469 0 0 1 0.1957-0.02956 1.4193 1.4193 0 0 1 0.36323 0.035c0.04669-0.03428 0.09042-0.07264 0.13708-0.107a0.50817 0.50817 0 0 1 0.3307-0.12763 0.25231 0.25231 0 0 1 0.1819 0.09974 0.27216 0.27216 0 0 0-0.0211-0.10226c-0.00216-0.00474 0.0043-0.01 0.00783-0.00552a0.31132 0.31132 0 0 1 0.0546 0.086 0.22521 0.22521 0 0 1 0.01112 0.11053 0.30513 0.30513 0 0 1-0.01529 0.06272 0.20788 0.20788 0 0 1-0.17235 0.15569 0.48792 0.48792 0 0 1-0.18923-0.01239c-0.0655-0.014-0.13048-0.03047-0.19559-0.04619a2.0541 2.0541 0 0 0-0.396-0.06682 0.96144 0.96144 0 0 0-0.35583 0.052 0.84244 0.84244 0 0 0-0.49916 0.45571 0.7391 0.7391 0 0 0 0.0225 0.64538 0.70645 0.70645 0 0 0 0.5443 0.35953 2.9659 2.9659 0 0 0 0.79967-0.07166 0.797 0.797 0 0 1 0.37963 0.00791l0.0137 0.00538a0.13736 0.13736 0 0 1 0.04958 0.01844 0.16227 0.16227 0 0 1 0.06661 0.08316 0.15741 0.15741 0 0 1 0.00157 0.10479 0.19851 0.19851 0 0 1-0.06909 0.081c-0.00426 0.00351-0.00994-0.00248-0.00588-0.00632a0.12916 0.12916 0 0 0 0.03377-0.07889 0.11472 0.11472 0 0 1-0.042 0.02949 0.19657 0.19657 0 0 1-0.16177-0.01988 1.0956 1.0956 0 0 0-0.17789-0.072 0.52475 0.52475 0 0 0-0.35148 0.013 0.40054 0.40054 0 0 0-0.22053 0.29062l-6.3e-4 0.0119-7e-5 0.00232c-1e-4 0.0048 0 0.0096 1e-4 0.0144a0.28854 0.28854 0 0 0 0.04017 0.13587 0.4278 0.4278 0 0 0 0.185 0.15731 0.933 0.933 0 0 0 0.21707 0.07022c0.06709 0.01491 0.15316 0.02033 0.18938 0.08854a0.101 0.101 0 0 1-0.05768 0.14368c-0.03326 0.01407-0.06873 0.02138-0.10146 0.03684a0.37394 0.37394 0 0 0-0.08624 0.05594 0.416 0.416 0 0 0-0.11591 0.19859c-0.026 0.08362-0.04739 0.169-0.07011 0.25353-0.02331 0.08674-0.05024 0.17264-0.07219 0.25974a0.35464 0.35464 0 0 0-0.01087 0.1298 0.172 0.172 0 0 0 0.04484 0.08334 0.19777 0.19777 0 0 0 0.13764-0.00922 0.595 0.595 0 0 0 0.198-0.19984 1.0258 1.0258 0 0 1 0.18258-0.16989 0.49847 0.49847 0 0 0 0.15653-0.19091 1.5247 1.5247 0 0 0 0.07443-0.2369 0.77781 0.77781 0 0 0 0.02772-0.2758 0.42865 0.42865 0 0 0-0.08336-0.21867 0.31187 0.31187 0 0 0-0.16664-0.12375 0.697 0.697 0 0 1-0.371-0.15342 0.09719 0.09719 0 0 1-0.03225-0.093 0.10382 0.10382 0 0 1 0.07413-0.07652c0.04706-0.01339 0.082 0.01155 0.12532 0.02311 0.00481 0.00128 0.00251 0.00823-0.00219 0.00727a0.159 0.159 0 0 0-0.12316 0.03129l0.0067-0.00108a0.23424 0.23424 0 0 1 0.11474 0.05086c0.05539 0.03435 0.11155 0.06784 0.165 0.10511 0.03327 0.01335 0.06616 0.02734 0.10053 0.03824a0.53577 0.53577 0 0 0 0.26575 0.02369 0.49471 0.49471 0 0 0 0.34137-0.29184 0.58382 0.58382 0 0 0 0.0113-0.44218 0.5957 0.5957 0 0 0-0.28366-0.31187 1.0493 1.0493 0 0 0-0.56882-0.08068 0.49017 0.49017 0 0 1-0.06006 0.00509c-0.09415 0.00876-0.18741 0.02064-0.2771 0.02846a1.3077 1.3077 0 0 1-0.49874-0.02636 0.1726 0.1726 0 0 1-0.1196-0.10041 0.18569 0.18569 0 0 1 0.00389-0.13606 0.19648 0.19648 0 0 1 0.06875-0.08576 0.35541 0.35541 0 0 1 0.09814-0.04148c5e-3 -0.00167 0.00806 0.00681 0.00317 0.00869a0.20312 0.20312 0 0 0-0.10008 0.11567 0.20581 0.20581 0 0 1 0.06753-0.01689 1.1954 1.1954 0 0 1 0.47461 0.11419 1.4489 1.4489 0 0 0 0.20731 0.05986zm-0.08183 2.2354a0.0284 0.0284 0 0 1-0.05141-0.0086 0.11575 0.11575 0 0 1 0.01291-0.06957 0.59882 0.59882 0 0 1 0.04463-0.0491 0.00607 0.00607 0 0 1 0.01093 0.00492 0.39171 0.39171 0 0 0 0.00114 0.06141 0.14871 0.14871 0 0 1-0.0182 0.06099z"/>
   <path d="m1.8469 2.7421c0.00122 0.015 0.0011 0.03042 0.00169 0.04548q0.00228 0.05836 0.00582 0.11661a1.1278 1.1278 0 0 1-0.00259 0.21559 0.41444 0.41444 0 0 1-0.16359 0.29995 0.24588 0.24588 0 0 1-0.284-5.7e-4 0.26813 0.26813 0 0 1-0.092-0.10694 0.286 0.286 0 0 0 0.05777 0.1268 0.30664 0.30664 0 0 0 0.27283 0.10936 0.41915 0.41915 0 0 0 0.26986-0.14095 1.0871 1.0871 0 0 0 0.20771-0.65508 1.3131 1.3131 0 0 1-0.2735-0.01025z"/>
  </g>
 </g>
</svg>
