<?xml version="1.0" encoding="UTF-8" standalone="no"?>
<svg
   xmlns:dc="http://purl.org/dc/elements/1.1/"
   xmlns:cc="http://creativecommons.org/ns#"
   xmlns:rdf="http://www.w3.org/1999/02/22-rdf-syntax-ns#"
   xmlns:svg="http://www.w3.org/2000/svg"
   xmlns="http://www.w3.org/2000/svg"
   xmlns:sodipodi="http://sodipodi.sourceforge.net/DTD/sodipodi-0.dtd"
   xmlns:inkscape="http://www.inkscape.org/namespaces/inkscape"
   width="20"
   height="20"
   viewBox="0 0 20 20"
   version="1.1"
   id="svg838"
   inkscape:version="1.0.1 (3bc2e813f5, 2020-09-07)"
   sodipodi:docname="per_humble.svg">
  <defs
     id="defs832" />
  <sodipodi:namedview
     id="base"
     pagecolor="#ffffff"
     bordercolor="#666666"
     borderopacity="1.0"
     inkscape:pageopacity="0.0"
     inkscape:pageshadow="2"
     inkscape:zoom="11.2"
     inkscape:cx="12.315434"
     inkscape:cy="3.8256095"
     inkscape:document-units="mm"
     inkscape:current-layer="layer1"
     inkscape:document-rotation="0"
     showgrid="false"
     units="px"
     inkscape:window-width="1317"
     inkscape:window-height="1040"
     inkscape:window-x="75"
     inkscape:window-y="0"
     inkscape:window-maximized="0"
     inkscape:pagecheckerboard="true" />
  <metadata
     id="metadata835">
    <rdf:RDF>
      <cc:Work
         rdf:about="">
        <dc:format>image/svg+xml</dc:format>
        <dc:type
           rdf:resource="http://purl.org/dc/dcmitype/StillImage" />
        <dc:title />
      </cc:Work>
    </rdf:RDF>
  </metadata>
  <g
     inkscape:label="Layer 1"
     inkscape:groupmode="layer"
     id="layer1">
    <path
       d="m 1.2512492,15.67547 1.7550729,2.857974 H 4.3793125 L 2.5788814,15.608065 3.729797,13.748968 c 0.1791767,0.358819 0.3789296,1.062905 -0.1607528,1.926502 l 1.7553209,2.857974 H 6.6971076 L 4.8969244,15.608065 6.2064082,13.492459 c 0.9598491,0 1.942964,0 2.8368709,0 l 0.9484546,5.040985 h 1.2430473 l -0.906025,-5.040985 c 0.30522,0 0.586232,0 0.836908,0 l 0.948702,5.040985 h 1.243047 l -0.910891,-5.067648 c 1.526221,-0.195909 1.721384,-1.503183 1.721384,-1.503183 l 0.810269,-3.9271848 c 0.540178,-2.3071192 2.340113,-2.9161427 2.880293,-2.9588199 0.457977,-0.035899 0.90019,-0.1352806 0.90019,-0.7651834 0,-0.8097723 -0.810021,-0.8097723 -0.810021,-0.8097723 h -2.159971 c 0.0965,-0.069341 0.189353,-0.1449879 0.272994,-0.2356548 0.46406,-0.5009033 0.586506,-1.1957528 0.378708,-1.7994385 L 14.555351,3.5016526 H 14.2581 l -2.51e-4,9.653e-4 h -0.529007 c 0.09722,-0.069341 0.190545,-0.1459561 0.274682,-0.236623 0.464061,-0.5009033 0.586233,-1.1957528 0.378955,-1.7994385 L 12.495977,3.5026198 H 9.5369086 C 9.3308222,3.4943778 7.616465,3.4803253 6.7853663,4.9946543 6.6483727,5.2438895 6.7395349,5.5561595 6.9885481,5.6934016 c 0.078775,0.042652 0.1634087,0.063507 0.2472739,0.063507 0.1818554,0 0.3578766,-0.096501 0.4516965,-0.2671847 C 8.2381249,4.4864766 9.4486493,4.5286569 9.4976323,4.5310901 H 9.8816766 C 9.6397185,5.0741738 9.1465577,5.0601218 8.9928562,5.0392675 8.7113711,4.9951506 8.4488039,5.1866638 8.404687,5.4674287 c -0.044391,0.2807649 0.1476447,0.5440521 0.4281639,0.588169 0.076364,0.01214 0.1634067,0.019414 0.2577005,0.019414 0.6175372,0 1.5497296,-0.3025878 1.8620026,-1.5007735 l 0.01043,-0.043149 h 1.132715 l -0.06934,0.2899759 c -0.350577,1.3441164 -1.518447,1.2195108 -1.646704,1.2010895 -0.281708,-0.044142 -0.5440498,0.147893 -0.5881694,0.4286333 -0.044115,0.2802678 0.1473988,0.5440524 0.4284104,0.5881934 0.100373,0.015988 0.214551,0.025198 0.338685,0.025198 0.816822,0 2.051131,-0.4024663 2.46596,-1.9934103 l 0.129443,-0.5391817 h 0.85682 l -0.29288,1.2199837 c -0.54065,2.37358 -3.105522,2.1830108 -3.105522,2.1830108 0,0 -3.8253461,0 -6.7509724,0 -2.92537834,0 -2.6101787,2.4976892 -2.6101787,2.4976892 z"
       id="path2"
       style="stroke-width:0.193246" />
  </g>
</svg>
