<?xml version="1.0" encoding="UTF-8" standalone="no"?>
<svg
   xmlns:dc="http://purl.org/dc/elements/1.1/"
   xmlns:cc="http://creativecommons.org/ns#"
   xmlns:rdf="http://www.w3.org/1999/02/22-rdf-syntax-ns#"
   xmlns:svg="http://www.w3.org/2000/svg"
   xmlns="http://www.w3.org/2000/svg"
   xmlns:sodipodi="http://sodipodi.sourceforge.net/DTD/sodipodi-0.dtd"
   xmlns:inkscape="http://www.inkscape.org/namespaces/inkscape"
   width="20"
   height="20"
   viewBox="0 0 20 20"
   version="1.1"
   id="svg838"
   inkscape:version="1.0.1 (3bc2e813f5, 2020-09-07)"
   sodipodi:docname="per_slow.svg">
  <defs
     id="defs832" />
  <sodipodi:namedview
     id="base"
     pagecolor="#ffffff"
     bordercolor="#666666"
     borderopacity="1.0"
     inkscape:pageopacity="0.0"
     inkscape:pageshadow="2"
     inkscape:zoom="15.839192"
     inkscape:cx="7.0431287"
     inkscape:cy="8.6727398"
     inkscape:document-units="mm"
     inkscape:current-layer="layer1"
     inkscape:document-rotation="0"
     showgrid="false"
     units="px"
     inkscape:window-width="1267"
     inkscape:window-height="1040"
     inkscape:window-x="75"
     inkscape:window-y="5"
     inkscape:window-maximized="0"
     inkscape:pagecheckerboard="true" />
  <metadata
     id="metadata835">
    <rdf:RDF>
      <cc:Work
         rdf:about="">
        <dc:format>image/svg+xml</dc:format>
        <dc:type
           rdf:resource="http://purl.org/dc/dcmitype/StillImage" />
        <dc:title></dc:title>
      </cc:Work>
    </rdf:RDF>
  </metadata>
  <g
     inkscape:label="Layer 1"
     inkscape:groupmode="layer"
     id="layer1">
    <g
       id="g5427"
       transform="matrix(0.65125905,0,0,0.65125905,-27.969951,-3.0191467)"
       style="fill:#000000">
      <g
         transform="matrix(0.03695181,0,0,0.03695181,42.659568,4.3481095)"
         id="g5105"
         style="clip-rule:evenodd;fill:#000000;fill-rule:evenodd;image-rendering:optimizeQuality;shape-rendering:geometricPrecision;text-rendering:geometricPrecision">
        <path
           id="path5103"
           d="m 423.33,799.09 h 64.85 c 0,0 5.87,-16.79 21.92,-36.19 -13.94,-0.56 -27.35,-3.64 -38.13,-13.64 0,-0.75 -11.09,-9.27 -12.62,-10.35 -24.42,-17.11 -47.53,-17.08 -71.97,-0.02 -4.21,2.93 -8.48,6.39 -12.68,10.31 -10.77,10.05 -24.2,13.15 -38.14,13.7 16.06,19.4 21.92,36.19 21.92,36.19 z M 310.99,664.39 c -20.21,-5.33 -12.12,-36.07 8.1,-30.75 39.82,10.59 48.33,43.28 48.34,43.35 5.07,20.34 -25.83,27.97 -30.87,7.71 0,-0.02 -3.82,-14.53 -25.57,-20.31 z m 224.68,0 c 20.22,-5.33 12.12,-36.07 -8.09,-30.75 -39.83,10.59 -48.33,43.28 -48.35,43.35 -5.07,20.34 25.84,27.97 30.87,7.71 0,-0.02 3.83,-14.53 25.57,-20.31 z m 12.87,65.26 c 28.25,-18.08 61.94,-34.54 56.2,-61.9 -1.13,-5.44 -2.37,-10.47 -3.66,-15.18 -38.36,-4.78 -63.74,-30.88 -87.7,-55.5 -18.46,-18.98 -35.89,-36.88 -54.03,-36.88 h -72.04 c -18.16,0 -35.57,17.9 -54.03,36.88 -23.96,24.61 -49.33,50.72 -87.69,55.5 -1.29,4.71 -2.54,9.74 -3.67,15.18 -5.73,27.36 27.96,43.82 56.2,61.9 5.34,0 11.04,0.37 16.89,0.75 12.47,0.81 26,1.69 29.92,-1.98 5.49,-5.09 11.08,-9.63 16.71,-13.55 39.23,-27.39 84.23,-27.42 123.45,0.01 1.6,1.13 16.62,13.5 16.65,13.48 4,3.71 17.52,2.85 29.96,2.04 5.82,-0.38 11.52,-0.75 16.84,-0.75 z m 38.07,-114.81 c -13.09,-25.95 -26.18,-39.09 -26.18,-71.87 0,-49.26 74.69,-61.56 74.69,-115.75 0,-9.46 -1.27,-17.78 -3.39,-25.23 15.02,-1.64 28.29,-2.68 37.86,-2.68 46.79,0 128.89,-83.73 128.89,-83.73 0,0 -7.07,-1.21 -59,-31.12 -43.57,-25.09 -95.82,-12.97 -145.16,9.57 0.15,-7.31 -0.49,-12.87 -3.6,-19.83 113.31,-31.61 180.14,-66.99 142.9,-226.64 0,0 -13.96,45.15 -43.51,84.56 -26.24,34.98 -77.07,62.17 -175.99,67.86 H 514.1 C 494.14,183.35 478,170.4 478,170.4 c 0,0 -54.67,-1.75 -54.67,-1.75 0,0 -54.67,1.75 -54.67,1.75 0,0 -16.14,12.95 -36.1,29.58 h -0.01 C 233.62,194.29 182.79,167.1 156.55,132.12 127,92.71 113.05,47.56 113.05,47.56 75.81,207.21 142.63,242.59 255.94,274.2 c -3.11,6.96 -3.74,12.52 -3.6,19.83 -49.33,-22.54 -101.58,-34.66 -145.15,-9.57 -51.93,29.91 -59.01,31.12 -59.01,31.12 0,0 82.11,83.73 128.89,83.73 9.58,0 22.85,1.04 37.87,2.68 -2.12,7.45 -3.4,15.77 -3.4,25.23 0,54.19 74.7,66.49 74.7,115.75 0,32.77 -13.08,45.92 -26.19,71.86 17.38,-8.52 32.42,-23.98 46.82,-38.79 23.89,-24.55 46.42,-47.71 80.44,-47.71 h 72.04 c 34.03,0 56.55,23.16 80.45,47.71 14.4,14.81 29.43,30.28 46.81,38.8 z m -255.3,-267.2 c 17.37,0 31.47,14.08 31.47,31.47 0,17.4 -14.1,31.48 -31.47,31.48 -17.4,0 -31.5,-14.08 -31.5,-31.48 0,-17.39 14.1,-31.47 31.5,-31.47 z m 184.08,0 c 17.38,0 31.48,14.08 31.48,31.47 0,17.4 -14.1,31.48 -31.48,31.48 -17.39,0 -31.49,-14.08 -31.49,-31.48 0,-17.39 14.1,-31.47 31.49,-31.47 z"
           class="fil0"
           inkscape:connector-curvature="0"
           style="fill:#000000" />
      </g>
    </g>
  </g>
</svg>
