<?xml version="1.0" encoding="UTF-8" standalone="no"?>
<svg
   xmlns:dc="http://purl.org/dc/elements/1.1/"
   xmlns:cc="http://creativecommons.org/ns#"
   xmlns:rdf="http://www.w3.org/1999/02/22-rdf-syntax-ns#"
   xmlns:svg="http://www.w3.org/2000/svg"
   xmlns="http://www.w3.org/2000/svg"
   xmlns:sodipodi="http://sodipodi.sourceforge.net/DTD/sodipodi-0.dtd"
   xmlns:inkscape="http://www.inkscape.org/namespaces/inkscape"
   width="20"
   height="20"
   viewBox="0 0 20 20"
   version="1.1"
   id="svg838"
   inkscape:version="1.0.1 (3bc2e813f5, 2020-09-07)"
   sodipodi:docname="per_serious.svg">
  <defs
     id="defs832" />
  <sodipodi:namedview
     id="base"
     pagecolor="#ffffff"
     bordercolor="#666666"
     borderopacity="1.0"
     inkscape:pageopacity="0.0"
     inkscape:pageshadow="2"
     inkscape:zoom="15.839192"
     inkscape:cx="7.041573"
     inkscape:cy="8.6740927"
     inkscape:document-units="mm"
     inkscape:current-layer="layer1"
     inkscape:document-rotation="0"
     showgrid="false"
     units="px"
     inkscape:window-width="1267"
     inkscape:window-height="1040"
     inkscape:window-x="75"
     inkscape:window-y="5"
     inkscape:window-maximized="0"
     inkscape:pagecheckerboard="true" />
  <metadata
     id="metadata835">
    <rdf:RDF>
      <cc:Work
         rdf:about="">
        <dc:format>image/svg+xml</dc:format>
        <dc:type
           rdf:resource="http://purl.org/dc/dcmitype/StillImage" />
        <dc:title></dc:title>
      </cc:Work>
    </rdf:RDF>
  </metadata>
  <g
     inkscape:label="Layer 1"
     inkscape:groupmode="layer"
     id="layer1">
    <g
       id="g3891"
       transform="matrix(1.1022834,0,0,1.1022834,5.1083421,-19.882786)"
       style="fill:#000000">
      <path
         style="fill:#000000;stroke-width:0.264583"
         id="path3863"
         d="m 4.4377497,18.90781 v 0 a 8.2232499,8.2232499 0 0 0 -8.2020832,8.202083 8.2020832,8.2020832 0 0 0 8.2020832,8.202084 v 0 A 8.2232499,8.2232499 0 0 0 12.639833,27.109893 8.2020832,8.2020832 0 0 0 4.4377497,18.90781 Z m 0,14.816667 v 0 A 6.6145832,6.6145832 0 0 1 -2.1768336,27.109893 6.6331041,6.6331041 0 0 1 4.4377497,20.49531 v 0 a 6.6145832,6.6145832 0 0 1 6.6145833,6.614583 6.6331041,6.6331041 0 0 1 -6.6145833,6.614584 z"
         inkscape:connector-curvature="0" />
      <path
         style="fill:#000000;stroke-width:0.264583"
         id="path3865"
         d="M 4.702333,26.580727 V 22.87656 h -1.5875 v 3.704167 a 1.8520833,1.8520833 0 0 0 1.8520834,1.852083 h 3.1749999 v -1.5875 H 4.9669164 A 0.26458333,0.26458333 0 0 1 4.702333,26.580727 Z"
         inkscape:connector-curvature="0" />
    </g>
  </g>
</svg>
