<?xml version="1.0" encoding="UTF-8" standalone="no"?>
<svg
   xmlns:dc="http://purl.org/dc/elements/1.1/"
   xmlns:cc="http://creativecommons.org/ns#"
   xmlns:rdf="http://www.w3.org/1999/02/22-rdf-syntax-ns#"
   xmlns:svg="http://www.w3.org/2000/svg"
   xmlns="http://www.w3.org/2000/svg"
   xmlns:sodipodi="http://sodipodi.sourceforge.net/DTD/sodipodi-0.dtd"
   xmlns:inkscape="http://www.inkscape.org/namespaces/inkscape"
   width="20"
   height="20"
   viewBox="0 0 20 20"
   version="1.1"
   id="svg838"
   inkscape:version="1.0.1 (3bc2e813f5, 2020-09-07)"
   sodipodi:docname="per_gregarious.svg">
  <defs
     id="defs832" />
  <sodipodi:namedview
     id="base"
     pagecolor="#ffffff"
     bordercolor="#666666"
     borderopacity="1.0"
     inkscape:pageopacity="0.0"
     inkscape:pageshadow="2"
     inkscape:zoom="15.839192"
     inkscape:cx="12.270795"
     inkscape:cy="6.5046536"
     inkscape:document-units="mm"
     inkscape:current-layer="layer1"
     inkscape:document-rotation="0"
     showgrid="false"
     units="px"
     inkscape:window-width="1340"
     inkscape:window-height="1040"
     inkscape:window-x="75"
     inkscape:window-y="0"
     inkscape:window-maximized="0"
     inkscape:pagecheckerboard="true" />
  <metadata
     id="metadata835">
    <rdf:RDF>
      <cc:Work
         rdf:about="">
        <dc:format>image/svg+xml</dc:format>
        <dc:type
           rdf:resource="http://purl.org/dc/dcmitype/StillImage" />
        <dc:title />
      </cc:Work>
    </rdf:RDF>
  </metadata>
  <g
     inkscape:label="Layer 1"
     inkscape:groupmode="layer"
     id="layer1">
    <g
       id="g863"
       transform="matrix(0.17014274,0,0,0.17014274,7.2071107,8.4104089)">
      <path
         d="m -11.712285,56.088234 h -9.393 c -2.803,0 -5.14,-2.144 -5.38,-4.936 l -2.014,-23.341 c -0.129,-1.507 0.378,-2.999 1.401,-4.114 1.023,-1.114 2.466,-1.749 3.979,-1.749 h 13.4190005 c 1.513,0 2.956,0.635 3.979,1.749 1.022,1.115 1.53,2.607 1.401,4.114 l -2.013,23.342 c -0.239,2.792 -2.576,4.935 -5.3790005,4.935 z"
         id="path2" />
      <path
         d="m -23.915285,1.6222341 -0.007,-0.013 c -0.025,0.014 -0.047,0.032 -0.071,0.047 -0.026,0.012 -0.053,0.021 -0.079,0.033 l 0.007,0.014 c -3.915,2.448 -5.992,7.809 -3.311,12.7899999 1.049,1.948 4.671,4.131 7.657,5.447 1.727,0.76 3.008,0.816 5.3,-0.317 l 0.004,0.008 c 0.026,-0.015 0.046,-0.028 0.072,-0.044 0.027,-0.014 0.05,-0.022 0.077,-0.035 l -0.005,-0.01 c 2.209,-1.288 2.867,-2.389 3.184,-4.248 0.546,-3.218 0.719,-7.4449999 -0.33,-9.3919999 -2.678,-4.98200004 -8.298,-6.20000004 -12.498,-4.28 z"
         id="path4" />
      <path
         d="m 39.164715,51.153234 -2.014,-23.342 c -0.129,-1.507 0.379,-2.999 1.4,-4.114 1.023,-1.114 2.467,-1.749 3.979,-1.749 h 13.42 c 1.514,0 2.957,0.635 3.979,1.749 1.022,1.115 1.53,2.607 1.401,4.114 l -2.013,23.342 c -0.24,2.792 -2.577,4.936 -5.381,4.936 h -9.393 c -2.802,-10e-4 -5.138,-2.144 -5.378,-4.936 z"
         id="path6" />
      <path
         d="m 56.746715,1.6222341 0.007,-0.013 c 0.024,0.014 0.047,0.032 0.071,0.047 0.025,0.012 0.053,0.021 0.078,0.033 l -0.008,0.014 c 3.916,2.448 5.992,7.809 3.312,12.7899999 -1.051,1.948 -4.672,4.131 -7.658,5.447 -1.727,0.76 -3.008,0.816 -5.301,-0.317 l -0.004,0.008 c -0.026,-0.015 -0.047,-0.028 -0.072,-0.044 -0.027,-0.014 -0.05,-0.022 -0.077,-0.035 l 0.005,-0.01 c -2.209,-1.288 -2.867,-2.389 -3.184,-4.248 -0.546,-3.218 -0.719,-7.4449999 0.33,-9.3919999 2.681,-4.98200004 8.302,-6.20000004 12.501,-4.28 z"
         id="path8" />
      <path
         d="m 16.517715,-31.446766 v -0.019 c -0.035,0.002 -0.067,0.007 -0.101,0.009 -0.034,-0.002 -0.066,-0.008 -0.101,-0.01 v 0.019 c -5.486,0.357 -10.6909995,4.807 -10.6909995,11.543 0,2.635 2.566,6.969 4.9549995,10.0330001 1.381,1.773 2.693,2.554 5.736,2.659 v 0.012 c 0.036,-10e-4 0.065,-0.004 0.101,-0.006 0.036,10e-4 0.065,0.005 0.101,0.006 v -0.012 c 3.044,-0.105 4.354,-0.886 5.737,-2.659 2.388,-3.0640001 4.953,-7.3980001 4.953,-10.0330001 0,-6.736 -5.204,-11.186 -10.69,-11.542 z"
         id="path10" />
      <path
         d="m 54.926715,-22.243766 c -2.285,-2.285 -5.988,-2.285 -8.273,0 l -19.592,18.4420001 H 16.416715 5.7717155 L -13.820285,-22.243766 c -2.285,-2.285 -5.989,-2.285 -8.273,0 -2.285,2.284 -2.285,5.988 0,8.273 L -3.7482845,5.5192341 -0.38228455,47.750234 c 0.372,4.68 4.27800005,8.286 8.97200005,8.286 h 7.8269995 7.828 c 4.693,0 8.599,-3.606 8.972,-8.286 l 3.365,-42.2309999 18.346,-19.4900001 c 2.283,-2.285 2.283,-5.989 -10e-4,-8.273 z"
         id="path12" />
    </g>
  </g>
</svg>
