<?xml version="1.0" encoding="UTF-8" standalone="no"?>
<svg
   xmlns:dc="http://purl.org/dc/elements/1.1/"
   xmlns:cc="http://creativecommons.org/ns#"
   xmlns:rdf="http://www.w3.org/1999/02/22-rdf-syntax-ns#"
   xmlns:svg="http://www.w3.org/2000/svg"
   xmlns="http://www.w3.org/2000/svg"
   xmlns:sodipodi="http://sodipodi.sourceforge.net/DTD/sodipodi-0.dtd"
   xmlns:inkscape="http://www.inkscape.org/namespaces/inkscape"
   width="20"
   height="20"
   viewBox="0 0 20 20"
   version="1.1"
   id="svg838"
   inkscape:version="1.0.1 (3bc2e813f5, 2020-09-07)"
   sodipodi:docname="per_curious.svg">
  <defs
     id="defs832" />
  <sodipodi:namedview
     id="base"
     pagecolor="#ffffff"
     bordercolor="#666666"
     borderopacity="1.0"
     inkscape:pageopacity="0.0"
     inkscape:pageshadow="2"
     inkscape:zoom="5.6"
     inkscape:cx="-9.8534785"
     inkscape:cy="26.288624"
     inkscape:document-units="mm"
     inkscape:current-layer="g1138"
     inkscape:document-rotation="0"
     showgrid="false"
     units="px"
     inkscape:window-width="1267"
     inkscape:window-height="1040"
     inkscape:window-x="637"
     inkscape:window-y="0"
     inkscape:window-maximized="0"
     inkscape:pagecheckerboard="true" />
  <metadata
     id="metadata835">
    <rdf:RDF>
      <cc:Work
         rdf:about="">
        <dc:format>image/svg+xml</dc:format>
        <dc:type
           rdf:resource="http://purl.org/dc/dcmitype/StillImage" />
        <dc:title></dc:title>
      </cc:Work>
    </rdf:RDF>
  </metadata>
  <g
     inkscape:label="Layer 1"
     inkscape:groupmode="layer"
     id="layer1">
    <g
       id="g4569"
       transform="matrix(3.7795276,0,0,3.7795276,-147.67079,-36.4521)">
      <g
         id="g1043"
         transform="matrix(0.26458333,0,0,0.26458333,34.724503,-2.639608)">
        <g
           id="g1138"
           transform="matrix(0.22553487,0,0,0.22553487,15.136306,45.398217)">
          <g
             id="g16">
            <g
               id="g8">
              <path
                 d="m 50.2,60.8 c -1.3,0.2 -2.7,-0.3 -3.7,-1.3 -7.1,-7.8 -2.7,-13.6 1.3,-17.4 1.3,-1.2 2.8,-2.4 4.4,-3.7 3.3,-2.6 8.7,-7.1 8.5,-9.6 -0.1,-1.2 -1.8,-2.8 -4.6,-4.3 -5.7,-3.2 -10.4,-2 -11.4,-0.4 -0.6,0.9 0.7,2.5 2.3,3.8 1.8,1.5 2.1,4.1 0.6,5.9 -1.5,1.8 -4.1,2.1 -5.9,0.6 -6.7,-5.4 -6.4,-11.5 -4,-15 3.5,-5.3 12.9,-7.5 22.4,-2.2 5.6,3.1 8.5,6.7 8.8,10.9 0.6,6.9 -5.9,12.2 -11.6,16.8 -1.5,1.2 -2.9,2.3 -3.9,3.3 -2,1.9 -2.3,2.7 -2.4,3 -0.1,0.3 0.3,1.2 1.6,2.6 1.6,1.7 1.4,4.4 -0.3,5.9 -0.4,0.6 -1.2,1 -2.1,1.1 z"
                 id="path6" />
            </g>
            <g
               id="g14">
              <g
                 id="g12">
                <path
                   id="path10"
                   d="m 50.144531,63.445312 c -2.550173,0.308224 -4.444987,3.026842 -3.871093,5.529297 0.361759,2.85206 3.897118,4.779598 6.447265,3.353516 2.828135,-1.378881 3.353217,-5.76954 0.925348,-7.775215 -0.939926,-0.850617 -2.242471,-1.265232 -3.50152,-1.107598 z" />
              </g>
            </g>
          </g>
          <g
             id="g28">
            <g
               id="g20">
              <path
                 d="m 33.9,77 c -0.9,0.5 -2,0.6 -3,0.2 -7.5,-3.4 -6.1,-8.9 -4.4,-12.8 0.6,-1.3 1.3,-2.6 2,-4 1.5,-2.9 4,-7.7 3.1,-9.4 -0.4,-0.8 -2.1,-1.4 -4.6,-1.7 -5,-0.5 -8,1.8 -8.3,3.2 -0.2,0.8 1.3,1.6 2.8,2 1.7,0.5 2.7,2.3 2.3,4 -0.5,1.7 -2.3,2.7 -4,2.3 -6.5,-1.8 -8.1,-6.2 -7.4,-9.5 0.9,-4.8 6.9,-9.3 15.4,-8.4 4.9,0.5 8.1,2.2 9.6,5.1 2.5,4.8 -0.5,10.5 -3.1,15.5 -0.7,1.3 -1.3,2.5 -1.8,3.6 -0.9,2 -0.8,2.7 -0.8,2.9 0.1,0.3 0.6,0.8 1.9,1.4 1.6,0.7 2.4,2.7 1.6,4.3 -0.3,0.5 -0.7,1 -1.3,1.3 z"
                 id="path18" />
            </g>
            <g
               id="g26">
              <g
                 id="g24">
                <path
                   id="path22"
                   d="m 36.021484,78.068359 c -2.562527,0.206209 -4.170804,3.381445 -2.997881,5.620898 0.951178,2.581167 4.954074,3.196297 6.583819,0.949415 1.853948,-2.202266 0.411731,-6.209743 -2.501953,-6.539063 -0.359333,-0.04782 -0.722523,-0.05576 -1.083985,-0.03125 z" />
              </g>
            </g>
          </g>
          <g
             id="g40">
            <g
               id="g32">
              <path
                 d="m 65.3,78.1 c -1,-0.2 -1.9,-0.9 -2.3,-1.9 -3.2,-7.6 1.6,-10.7 5.4,-12.4 1.3,-0.6 2.7,-1.1 4.2,-1.6 3.1,-1.1 8.2,-2.9 8.7,-4.8 0.2,-0.9 -0.6,-2.5 -2.2,-4.3 -3.3,-3.8 -7.1,-4.1 -8.2,-3.3 -0.7,0.5 -0.1,2 0.7,3.4 0.9,1.5 0.5,3.5 -1.1,4.5 -1.5,0.9 -3.5,0.5 -4.5,-1.1 -3.5,-5.7 -1.7,-10 1,-12 4,-2.9 11.4,-2.2 17,4.2 3.3,3.7 4.5,7.1 3.6,10.3 -1.3,5.2 -7.4,7.4 -12.8,9.3 -1.4,0.5 -2.7,1 -3.7,1.4 -2,0.9 -2.4,1.4 -2.5,1.6 -0.1,0.2 -0.1,1 0.5,2.3 0.7,1.7 -0.1,3.6 -1.7,4.3 -0.8,0.2 -1.5,0.3 -2.1,0.1 z"
                 id="path30" />
            </g>
            <g
               id="g38">
              <g
                 id="g36">
                <path
                   id="path34"
                   d="m 63.580078,79.634766 c -2.955644,-0.0098 -4.951159,3.89695 -3.193359,6.279296 1.264451,2.149921 4.725345,2.349046 6.210675,0.330152 1.622143,-1.863407 1.09717,-5.250317 -1.25755,-6.250073 -0.545539,-0.260118 -1.155458,-0.388398 -1.759766,-0.359375 z" />
              </g>
            </g>
          </g>
        </g>
      </g>
    </g>
  </g>
</svg>
