<?xml version="1.0" encoding="UTF-8" standalone="no"?>
<svg
   xmlns:dc="http://purl.org/dc/elements/1.1/"
   xmlns:cc="http://creativecommons.org/ns#"
   xmlns:rdf="http://www.w3.org/1999/02/22-rdf-syntax-ns#"
   xmlns:svg="http://www.w3.org/2000/svg"
   xmlns="http://www.w3.org/2000/svg"
   xmlns:sodipodi="http://sodipodi.sourceforge.net/DTD/sodipodi-0.dtd"
   xmlns:inkscape="http://www.inkscape.org/namespaces/inkscape"
   width="20"
   height="20"
   viewBox="0 0 20 20"
   version="1.1"
   id="svg838"
   inkscape:version="1.0.1 (3bc2e813f5, 2020-09-07)"
   sodipodi:docname="per_independent.svg">
  <defs
     id="defs832" />
  <sodipodi:namedview
     id="base"
     pagecolor="#ffffff"
     bordercolor="#666666"
     borderopacity="1.0"
     inkscape:pageopacity="0.0"
     inkscape:pageshadow="2"
     inkscape:zoom="15.839192"
     inkscape:cx="7.041573"
     inkscape:cy="8.6740927"
     inkscape:document-units="mm"
     inkscape:current-layer="g4569"
     inkscape:document-rotation="0"
     showgrid="false"
     units="px"
     inkscape:window-width="1267"
     inkscape:window-height="1040"
     inkscape:window-x="75"
     inkscape:window-y="5"
     inkscape:window-maximized="0"
     inkscape:pagecheckerboard="true" />
  <metadata
     id="metadata835">
    <rdf:RDF>
      <cc:Work
         rdf:about="">
        <dc:format>image/svg+xml</dc:format>
        <dc:type
           rdf:resource="http://purl.org/dc/dcmitype/StillImage" />
        <dc:title></dc:title>
      </cc:Work>
    </rdf:RDF>
  </metadata>
  <g
     inkscape:label="Layer 1"
     inkscape:groupmode="layer"
     id="layer1">
    <g
       id="g4569"
       transform="matrix(3.7795276,0,0,3.7795276,-147.67079,-36.4521)">
      <path
         inkscape:connector-curvature="0"
         d="m 42.115176,14.40278 c 0.0554,0.04984 0.0997,0.0443 0.14398,0.02768 0.0665,-0.02215 0.12183,0 0.17721,0.03322 0.0609,0.03323 0.0941,0.116289 0.072,0.171667 -0.0166,0.06645 -0.0831,0.09968 -0.16059,0.09415 -0.14398,-0.01103 -0.28796,-0.03877 -0.43194,-0.03323 -0.21043,0.0056 -0.41532,0.02768 -0.62022,0.05538 -0.0665,0.01103 -0.13844,-0.0056 -0.20489,0.01103 -0.0997,0.02216 -0.14398,-0.0443 -0.1772,-0.116288 -0.0332,-0.07199 -0.006,-0.127366 0.0554,-0.177205 0.0498,-0.0443 0.13844,-0.110746 0.0941,-0.155054 -0.0665,-0.06091 -0.12183,0.03877 -0.17167,0.08306 -0.12183,0.12183 -0.24919,0.23812 -0.38764,0.343335 -0.0332,0.02768 -0.0664,0.06645 -0.12183,0.01661 -0.0443,-0.03877 -0.0775,0.01103 -0.11074,0.02768 -0.072,0.03323 -0.13844,0.08306 -0.21043,0 -0.0277,-0.03323 -0.0554,0.0056 -0.0775,0.01661 -0.07753,0.03323 -0.143984,0.110747 -0.232586,0.0056 -0.02215,-0.02768 -0.07752,0.0056 -0.116288,0.01661 -0.06645,0.01103 -0.127366,0.03877 -0.182741,-0.03322 -0.0443,-0.04984 -0.116289,-0.02215 -0.177205,-0.01661 -0.03877,0.0056 -0.07199,0.01661 -0.09968,-0.02215 -0.02768,-0.03877 -0.02215,-0.08306 0,-0.116288 0.0443,-0.05538 0.07752,-0.09968 0.16613,-0.09968 0.276882,0.0056 0.548227,-0.0443 0.82511,-0.07752 0.0831,-0.01103 0.14951,-0.03877 0.21043,-0.09415 0.14398,-0.138441 0.27688,-0.271345 0.35994,-0.465162 0.11076,-0.249193 0.17721,-0.509463 0.26581,-0.764194 0.0665,-0.177205 0.13844,-0.348871 0.21597,-0.520539 0.11629,-0.238118 0.29903,-0.409785 0.54823,-0.503925 0.29903,-0.116289 0.53161,-0.326721 0.72543,-0.581453 0.0997,-0.132904 0.1772,-0.28242 0.28796,-0.39871 -0.0166,-0.0443 -0.0554,-0.03323 -0.0831,-0.03877 -0.0997,-0.02215 -0.12183,-0.06645 -0.072,-0.149516 0.0443,-0.07199 0.0941,-0.138442 0.16059,-0.193817 0.0775,-0.06645 0.14951,-0.132903 0.22704,-0.18828 0.11629,-0.08306 0.21597,-0.182743 0.29903,-0.299033 0.0775,-0.116289 0.17167,-0.193817 0.32119,-0.171667 0.072,0.01103 0.14398,-0.02215 0.18828,-0.08861 0.0498,-0.07199 0.12183,-0.1273636 0.16059,-0.2104296 0.0443,-0.09415 0.0997,-0.0886 0.16613,-0.0056 0.0277,0.03323 0.0609,0.06091 0.0831,0.09413 0.0388,0.04984 0.0609,0.105218 0.0388,0.1716676 -0.0166,0.0443 -0.0277,0.08861 -0.0498,0.132903 -0.14952,0.293495 -0.19936,0.614678 -0.21043,0.941398 -0.006,0.07753 0.0221,0.155054 0.0554,0.227044 0.0388,0.0886 0.0443,0.171667 -0.006,0.254732 -0.0886,0.160591 -0.12183,0.343333 -0.14952,0.526076 -0.0277,0.199355 -0.1329,0.348871 -0.23258,0.503925 -0.0498,0.08306 -0.11075,0.16613 -0.16613,0.243657 -0.0388,0.05538 -0.0554,0.116288 -0.0443,0.177204 0.0443,0.232582 0.011,0.459624 -0.0609,0.675593 -0.0941,0.276882 0,0.509463 0.13844,0.736506 0.0332,0.05538 0.0775,0.110747 0.11076,0.171666 0.0388,0.08306 0.006,0.14398 -0.0831,0.155056 -0.0554,0.01103 -0.11629,0.01103 -0.17167,0.01103 -0.0886,0 -0.16059,-0.03322 -0.18828,-0.127365 -0.0222,-0.07199 -0.0831,-0.132903 -0.0775,-0.215969 0,-0.03877 -0.0332,-0.0443 -0.0609,-0.06091 -0.12183,-0.06091 -0.1329,-0.07199 -0.10521,-0.199355 0.0388,-0.160592 0.0554,-0.315646 0.0388,-0.481775 -0.006,-0.08306 -0.0277,-0.16613 -0.0498,-0.243656 -0.0332,-0.09968 -0.0609,-0.110747 -0.18275,-0.09413 -0.11075,0.01661 -0.12736,0.02215 -0.12736,0.132903 0,0.199356 -0.0609,0.37656 -0.18274,0.537152 -0.0388,0.04984 -0.072,0.09415 -0.12737,0.132904 -0.0831,0.05538 -0.14398,0.13844 -0.22151,0.215967 z"
         id="path4186-0"
         style="fill:#000000;stroke-width:0.0553765" />
    </g>
  </g>
</svg>
