<?xml version="1.0" encoding="UTF-8" standalone="no"?>
<svg
   xmlns:dc="http://purl.org/dc/elements/1.1/"
   xmlns:cc="http://creativecommons.org/ns#"
   xmlns:rdf="http://www.w3.org/1999/02/22-rdf-syntax-ns#"
   xmlns:svg="http://www.w3.org/2000/svg"
   xmlns="http://www.w3.org/2000/svg"
   xmlns:sodipodi="http://sodipodi.sourceforge.net/DTD/sodipodi-0.dtd"
   xmlns:inkscape="http://www.inkscape.org/namespaces/inkscape"
   width="20"
   height="20"
   viewBox="0 0 20 20"
   version="1.1"
   id="svg838"
   inkscape:version="1.0.1 (3bc2e813f5, 2020-09-07)"
   sodipodi:docname="per_studious.svg">
  <defs
     id="defs832" />
  <sodipodi:namedview
     id="base"
     pagecolor="#ffffff"
     bordercolor="#666666"
     borderopacity="1.0"
     inkscape:pageopacity="0.0"
     inkscape:pageshadow="2"
     inkscape:zoom="15.839192"
     inkscape:cx="7.041573"
     inkscape:cy="8.6740927"
     inkscape:document-units="mm"
     inkscape:current-layer="layer1"
     inkscape:document-rotation="0"
     showgrid="false"
     units="px"
     inkscape:window-width="1267"
     inkscape:window-height="1040"
     inkscape:window-x="75"
     inkscape:window-y="0"
     inkscape:window-maximized="0"
     inkscape:pagecheckerboard="true" />
  <metadata
     id="metadata835">
    <rdf:RDF>
      <cc:Work
         rdf:about="">
        <dc:format>image/svg+xml</dc:format>
        <dc:type
           rdf:resource="http://purl.org/dc/dcmitype/StillImage" />
        <dc:title />
      </cc:Work>
    </rdf:RDF>
  </metadata>
  <g
     inkscape:label="Layer 1"
     inkscape:groupmode="layer"
     id="layer1">
    <path
       style="clip-rule:evenodd;fill:#000000;fill-rule:evenodd;stroke-width:0.105106"
       inkscape:connector-curvature="0"
       d="m 18.601914,17.865671 v -3.404504 c 0,-0.404869 -0.331187,-0.736056 -0.736063,-0.736056 h -0.416748 v 4.876515 h 0.416748 c 0.404238,1.06e-4 0.736063,-0.331085 0.736063,-0.735955 z M 7.268389,6.1288531 h -0.00222 l -0.00127,-6.348e-4 c 0.00127,3.106e-4 0.00242,6.348e-4 0.00338,6.348e-4 z M 4.7916593,4.9748872 5.3725825,4.6844864 5.3735347,5.2639375 Z m 8.9169187,-1.168464 c 0.442287,-6.381e-4 1.203677,-0.1813106 1.205888,1.1033002 0.0022,1.3706912 -0.714202,1.2100912 -1.201999,1.2107226 -0.353362,4.355e-4 -0.357137,-2.3135028 -0.004,-2.3140228 z M 7.4449659,6.1063631 c 0.012492,0.00979 0.031063,0.021946 0.038963,0.021946 L 13.40584,6.121556 C 13.119085,5.7912128 13.158859,4.0319363 13.40182,3.8076378 l -5.9172812,0.00675 c -0.014181,0 -0.025998,0.010129 -0.044771,0.022622 0.00115,0.7300705 0.3819712,0.8592467 0.3816471,0.9128498 -1.013e-4,0.044669 -0.4556332,0.3164663 -0.452061,0.800174 0.00159,0.2198011 0.01722,0.323219 0.075766,0.5564378 z M 5.4257636,4.7503829 6.1239883,4.3946899 7.2437921,3.8242807 c -0.00607,0.00372 -0.012155,0.0081 -0.019583,0.013168 0.00115,0.7299625 0.3818495,0.8592433 0.3816469,0.9128465 -3.174e-4,0.044568 -0.4557378,0.3164663 -0.4521656,0.8001773 0.00166,0.2195647 0.01722,0.3229827 0.075901,0.556225 0.00507,0.00406 0.011817,0.00878 0.017557,0.01283 L 6.1255549,5.5518499 5.4260742,5.1977642 5.5586976,5.2636708 5.5577455,4.6842196 Z m 1.832216,-0.9333478 0.00406,-0.00222 h 0.00675 c -0.00372,0 -0.00776,8.305e-4 -0.011142,0.00222 z M 17.546329,8.4085079 V 7.1511207 c 0,-0.404873 -0.331086,-0.7360636 -0.73606,-0.7360636 h -0.286822 v 2.7297238 h 0.286822 c 0.404765,-1.047e-4 0.73606,-0.3312886 0.73606,-0.736273 z M 15.790527,6.8602911 V 8.6992329 H 13.8861 V 6.8602911 Z m 0.505455,-0.445234 H 3.1897313 c -0.4049742,0 -0.7361682,0.3314236 -0.7361682,0.7360636 v 1.2573872 c 0,0.4047649 0.3314911,0.7361683 0.7361682,0.7361683 H 16.295982 Z m 1.890653,6.2371239 v -2.422808 c 0,-0.4048699 -0.331186,-0.7361686 -0.736161,-0.7361686 h -1.264961 v 3.8952466 h 1.264961 c 0.404975,-1.02e-4 0.736161,-0.331289 0.736161,-0.73627 z M 3.6447364,10.022311 V 12.85924 H 2.9171881 V 10.022311 Z M 15.698659,9.4932044 H 2.5494213 c -0.4048695,0 -0.7360568,0.3316262 -0.7360568,0.7361686 v 2.422808 c 0,0.404552 0.3316262,0.736168 0.7360568,0.736168 H 15.698659 Z m 1.263593,4.2319066 H 3.1869964 v 4.876515 H 16.962252 Z m -14.2621066,0 H 2.1342539 c -0.4049742,0 -0.7361683,0.331694 -0.7361683,0.736056 v 3.404504 c 0,0.404346 0.3316937,0.736061 0.7361683,0.736061 h 0.5658915 z"
       id="path3893" />
  </g>
</svg>
