<svg version="1.1" viewBox="0 0 20 20" xmlns="http://www.w3.org/2000/svg">
 <g>
  <g transform="matrix(.31083 0 0 .31083 -.14445 -.21025)">
   <polygon points="39.1 8.4 46.5 8.4 41.1 3 37.3 3"/>
   <polygon points="29 10.4 33 22.2 37 10.4"/>
   <polygon points="39.1 10.4 35.3 21.6 46.5 10.4"/>
   <polygon points="37 8.4 35.2 3 30.8 3 29 8.4"/>
   <polygon points="19.5 10.4 30.7 21.6 26.9 10.4"/>
   <polygon points="26.9 8.4 28.7 3 24.9 3 19.5 8.4"/>
   <path d="m43.2 16.6-5.5 5.5c8 2.1 13.6 9.3 13.6 17.7 0 10-8.2 18.2-18.3 18.2s-18.3-8.2-18.3-18.3c0-8.4 5.6-15.5 13.6-17.6l-5.5-5.5c-9.1 4-15.1 13.1-15.1 23.1 0 14 11.4 25.3 25.3 25.3s25.3-11.3 25.3-25.3c0-10-6-19.1-15.1-23.1z"/>
   <path d="m50.9 16.8h0.9v0.9c0 0.6 0.4 1 1 1s1-0.4 1-1v-0.9h0.9c0.6 0 1-0.4 1-1s-0.4-1-1-1h-0.9v-0.9c0-0.6-0.4-1-1-1s-1 0.4-1 1v0.9h-0.9c-0.6 0-1 0.4-1 1s0.4 1 1 1z"/>
   <path d="m11.4 5.5h0.9v0.9c0 0.6 0.4 1 1 1s1-0.4 1-1v-0.9h0.9c0.6 0 1-0.4 1-1s-0.4-1-1-1h-0.9v-0.9c0-0.6-0.4-1-1-1s-1 0.4-1 1v0.9h-0.9c-0.6 0-1 0.4-1 1s0.5 1 1 1z"/>
   <path d="m9.2 15.5h0.9v0.9c0 0.6 0.4 1 1 1s1-0.4 1-1v-0.9h0.9c0.6 0 1-0.4 1-1s-0.4-1-1-1h-0.9v-0.9c0-0.6-0.4-1-1-1s-1 0.4-1 1v0.9h-0.9c-0.6 0-1 0.4-1 1s0.5 1 1 1z"/>
   <path d="m50.9 4.9h0.9v0.9c0 0.6 0.4 1 1 1s1-0.4 1-1v-0.9h0.9c0.6 0 1-0.4 1-1s-0.4-1-1-1h-0.9v-0.9c0-0.6-0.4-1-1-1s-1 0.4-1 1v0.9h-0.9c-0.6 0-1 0.4-1 1s0.4 1 1 1z"/>
  </g>
 </g>
</svg>
