<?xml version="1.0" encoding="UTF-8" standalone="no"?>
<svg
   xmlns:dc="http://purl.org/dc/elements/1.1/"
   xmlns:cc="http://creativecommons.org/ns#"
   xmlns:rdf="http://www.w3.org/1999/02/22-rdf-syntax-ns#"
   xmlns:svg="http://www.w3.org/2000/svg"
   xmlns="http://www.w3.org/2000/svg"
   xmlns:sodipodi="http://sodipodi.sourceforge.net/DTD/sodipodi-0.dtd"
   xmlns:inkscape="http://www.inkscape.org/namespaces/inkscape"
   width="20"
   height="20"
   viewBox="0 0 20 20"
   version="1.1"
   id="svg838"
   inkscape:version="1.0.1 (3bc2e813f5, 2020-09-07)"
   sodipodi:docname="per_lunatic.svg">
  <defs
     id="defs832" />
  <sodipodi:namedview
     id="base"
     pagecolor="#ffffff"
     bordercolor="#666666"
     borderopacity="1.0"
     inkscape:pageopacity="0.0"
     inkscape:pageshadow="2"
     inkscape:zoom="15.839192"
     inkscape:cx="7.041573"
     inkscape:cy="8.6740927"
     inkscape:document-units="mm"
     inkscape:current-layer="layer1"
     inkscape:document-rotation="0"
     showgrid="false"
     units="px"
     inkscape:window-width="1267"
     inkscape:window-height="1040"
     inkscape:window-x="75"
     inkscape:window-y="5"
     inkscape:window-maximized="0"
     inkscape:pagecheckerboard="true" />
  <metadata
     id="metadata835">
    <rdf:RDF>
      <cc:Work
         rdf:about="">
        <dc:format>image/svg+xml</dc:format>
        <dc:type
           rdf:resource="http://purl.org/dc/dcmitype/StillImage" />
        <dc:title></dc:title>
      </cc:Work>
    </rdf:RDF>
  </metadata>
  <g
     inkscape:label="Layer 1"
     inkscape:groupmode="layer"
     id="layer1">
    <g
       transform="matrix(0.08421026,0,0,0.08421026,3.6865037,0.08424189)"
       id="g3493"
       style="clip-rule:evenodd;fill:#000000;fill-rule:evenodd;image-rendering:optimizeQuality;shape-rendering:geometricPrecision;text-rendering:geometricPrecision">
      <path
         id="path3489"
         d="m 30,47 c 1,10 1,20 2,29 1,17 3,34 -4,50 -22,52 35,39 37,33 3,-14 7,-99 3,-110 -2,0 -8,1 -17,11 C 54,44 58,30 75,0 92,30 95,44 98,60 90,50 84,49 82,49 c -5,11 0,96 3,110 2,6 58,19 37,-33 -7,-16 -5,-33 -4,-50 0,-9 1,-19 1,-29 18,34 31,52 31,70 -12,-23 -18,-25 -21,-24 -5,19 3,27 7,40 11,33 -11,44 -48,55 -3,0 -3,2 -3,6 6,4 9,7 9,9 0,4 -11,8 -3,21 -5,4 -27,4 -32,0 8,-13 -3,-17 -4,-21 0,-2 4,-5 10,-9 0,-4 0,-6 -3,-6 C 25,177 2,166 13,133 18,120 25,112 21,93 18,92 11,94 0,117 -1,99 12,81 30,47 Z"
         class="fil0"
         inkscape:connector-curvature="0"
         style="fill:#000000" />
      <path
         id="path3491"
         d="m 88,228 v 6 c -9,2 -18,2 -26,0 v -6 c 6,2 19,2 26,0 z"
         class="fil1"
         inkscape:connector-curvature="0"
         style="fill:#000000" />
    </g>
  </g>
</svg>
