<?xml version="1.0" encoding="UTF-8" standalone="no"?>
<svg
   xmlns:dc="http://purl.org/dc/elements/1.1/"
   xmlns:cc="http://creativecommons.org/ns#"
   xmlns:rdf="http://www.w3.org/1999/02/22-rdf-syntax-ns#"
   xmlns:svg="http://www.w3.org/2000/svg"
   xmlns="http://www.w3.org/2000/svg"
   xmlns:sodipodi="http://sodipodi.sourceforge.net/DTD/sodipodi-0.dtd"
   xmlns:inkscape="http://www.inkscape.org/namespaces/inkscape"
   width="20"
   height="20"
   viewBox="0 0 20 20"
   version="1.1"
   id="svg838"
   inkscape:version="1.0.1 (3bc2e813f5, 2020-09-07)"
   sodipodi:docname="per_empath.svg">
  <defs
     id="defs832" />
  <sodipodi:namedview
     id="base"
     pagecolor="#ffffff"
     bordercolor="#666666"
     borderopacity="1.0"
     inkscape:pageopacity="0.0"
     inkscape:pageshadow="2"
     inkscape:zoom="15.839192"
     inkscape:cx="7.041573"
     inkscape:cy="8.6740927"
     inkscape:document-units="mm"
     inkscape:current-layer="layer1"
     inkscape:document-rotation="0"
     showgrid="false"
     units="px"
     inkscape:window-width="1267"
     inkscape:window-height="1040"
     inkscape:window-x="75"
     inkscape:window-y="5"
     inkscape:window-maximized="0"
     inkscape:pagecheckerboard="true" />
  <metadata
     id="metadata835">
    <rdf:RDF>
      <cc:Work
         rdf:about="">
        <dc:format>image/svg+xml</dc:format>
        <dc:type
           rdf:resource="http://purl.org/dc/dcmitype/StillImage" />
        <dc:title></dc:title>
      </cc:Work>
    </rdf:RDF>
  </metadata>
  <g
     inkscape:label="Layer 1"
     inkscape:groupmode="layer"
     id="layer1">
    <g
       id="g4982"
       transform="matrix(3.7795276,0,0,3.7795276,-236.83034,-156.74255)">
      <path
         inkscape:connector-curvature="0"
         d="m 65.602849,46.537703 c 0.127257,-0.127257 0.158808,-0.321673 0.07832,-0.482647 l -0.37398,-0.747965 -0.37398,0.747959 c -0.08048,0.160974 -0.04893,0.355389 0.07832,0.482646 0.163286,0.163293 0.428027,0.163293 0.591313,7e-6 z"
         id="path4693"
         style="fill:#000000;stroke-width:0.0628241" />
      <path
         inkscape:connector-curvature="0"
         d="m 66.459475,45.097229 c -0.08048,0.160974 -0.04894,0.355389 0.07832,0.482646 0.163286,0.163286 0.428027,0.163286 0.591313,0 0.127263,-0.127257 0.158807,-0.321672 0.07832,-0.482646 l -0.37398,-0.747959 z"
         id="path4695"
         style="fill:#000000;stroke-width:0.0628241" />
      <path
         inkscape:connector-curvature="0"
         d="m 63.406951,45.097229 c -0.08048,0.160974 -0.04894,0.355389 0.07832,0.482646 0.163286,0.163286 0.428021,0.163286 0.591313,0 0.127263,-0.127257 0.158807,-0.321672 0.07832,-0.482646 l -0.37398,-0.747959 z"
         id="path4697"
         style="fill:#000000;stroke-width:0.0628241" />
      <path
         inkscape:connector-curvature="0"
         d="m 65.307193,44.858026 1.698677,-1.698677 c 0.362571,-0.36257 0.362571,-0.950417 0,-1.312987 v 0 c -0.362571,-0.362571 -0.950417,-0.362571 -1.312987,0 l -0.38569,0.385691 -0.38569,-0.385691 c -0.36257,-0.362571 -0.950416,-0.362571 -1.312986,0 v 7e-6 c -0.362572,0.36257 -0.362572,0.950416 0,1.312986 z"
         id="path4699-8"
         style="fill:#000000;stroke-width:0.0628241" />
    </g>
  </g>
</svg>
