<?xml version="1.0" encoding="UTF-8" standalone="no"?>
<svg
   xmlns:dc="http://purl.org/dc/elements/1.1/"
   xmlns:cc="http://creativecommons.org/ns#"
   xmlns:rdf="http://www.w3.org/1999/02/22-rdf-syntax-ns#"
   xmlns:svg="http://www.w3.org/2000/svg"
   xmlns="http://www.w3.org/2000/svg"
   xmlns:sodipodi="http://sodipodi.sourceforge.net/DTD/sodipodi-0.dtd"
   xmlns:inkscape="http://www.inkscape.org/namespaces/inkscape"
   width="20"
   height="20"
   viewBox="0 0 20 20"
   version="1.1"
   id="svg838"
   inkscape:version="1.0.1 (3bc2e813f5, 2020-09-07)"
   sodipodi:docname="per_logical.svg">
  <defs
     id="defs832" />
  <sodipodi:namedview
     id="base"
     pagecolor="#ffffff"
     bordercolor="#666666"
     borderopacity="1.0"
     inkscape:pageopacity="0.0"
     inkscape:pageshadow="2"
     inkscape:zoom="15.839192"
     inkscape:cx="7.041573"
     inkscape:cy="8.6740927"
     inkscape:document-units="mm"
     inkscape:current-layer="layer1"
     inkscape:document-rotation="0"
     showgrid="false"
     units="px"
     inkscape:window-width="1267"
     inkscape:window-height="1040"
     inkscape:window-x="75"
     inkscape:window-y="5"
     inkscape:window-maximized="0"
     inkscape:pagecheckerboard="true" />
  <metadata
     id="metadata835">
    <rdf:RDF>
      <cc:Work
         rdf:about="">
        <dc:format>image/svg+xml</dc:format>
        <dc:type
           rdf:resource="http://purl.org/dc/dcmitype/StillImage" />
        <dc:title></dc:title>
      </cc:Work>
    </rdf:RDF>
  </metadata>
  <g
     inkscape:label="Layer 1"
     inkscape:groupmode="layer"
     id="layer1">
    <path
       inkscape:connector-curvature="0"
       d="m 12.643252,14.207764 a 1.5645213,1.5645213 0 1 1 1.564521,-1.56452 1.5665042,1.5665042 0 0 1 -1.564521,1.56452 z M 11.14615,9.8731075 A 3.1528375,3.1528375 0 1 1 9.873115,11.146143 1.8104029,1.8104029 0 0 1 8.0171062,11.033136 1.8104029,1.8104029 0 0 1 6.2324813,12.50644 H 5.7724447 v 0.573059 a 0.79316667,0.79316667 0 0 0 0.6583257,0.78127 l 1.0291352,0.180435 a 5.3399948,5.3399948 0 0 0 0.5314242,1.282953 l -0.594875,0.856619 a 0.79316667,0.79316667 0 0 0 0.089235,1.015253 l 0.6166904,0.616686 a 0.79316667,0.79316667 0 0 0 1.0152491,0.08923 L 9.9742517,17.30707 a 5.3340458,5.3340458 0 0 0 1.2829493,0.531424 l 0.180434,1.029131 a 0.79316667,0.79316667 0 0 0 0.769372,0.650397 h 0.872486 a 0.79316667,0.79316667 0 0 0 0.779275,-0.654369 l 0.180434,-1.029135 a 5.3538751,5.3538751 0 0 0 1.282949,-0.53142 l 0.856619,0.594871 a 0.79316667,0.79316667 0 0 0 1.015253,-0.08924 l 0.616687,-0.616687 a 0.79316667,0.79316667 0 0 0 0.08923,-1.015252 l -0.594882,-0.856604 a 5.3280972,5.3280972 0 0 0 0.531424,-1.282945 l 1.029131,-0.180435 a 0.79316667,0.79316667 0 0 0 0.652381,-0.777305 V 12.207029 A 0.79316667,0.79316667 0 0 0 18.863633,11.427744 L 17.834502,11.24731 A 5.3300799,5.3300799 0 0 0 17.303108,9.9643377 L 17.897983,9.1077191 A 0.79316667,0.79316667 0 0 0 17.808748,8.09247 L 17.192061,7.4757796 a 0.79316667,0.79316667 0 0 0 -1.015253,-0.089235 l -0.856622,0.594875 a 5.3360289,5.3360289 0 0 0 -1.28293,-0.531424 L 13.86079,6.430778 A 0.79316667,0.79316667 0 0 0 13.081504,5.776417 H 12.506459 V 6.250332 A 1.8104029,1.8104029 0 0 1 11.03315,8.0349569 1.8104029,1.8104029 0 0 1 11.146158,9.8731188 Z M 0.48202085,6.2443717 V 5.5562973 A 0.62461875,0.62461875 0 0 1 0.99758245,4.941595 L 1.8085934,4.7988422 A 4.2057665,4.2057665 0 0 1 2.2269909,3.787554 L 1.7530721,3.1133619 A 0.62461875,0.62461875 0 0 1 1.8224641,2.320194 L 2.3082771,1.8343811 A 0.62461875,0.62461875 0 0 1 3.101445,1.7649891 l 0.6741884,0.473915 A 4.1998175,4.1998175 0 0 1 4.7869216,1.8205102 L 4.9297121,1.0095029 A 0.62461875,0.62461875 0 0 1 5.5563125,0.48205095 H 6.244383 A 0.62461875,0.62461875 0 0 1 6.8590892,0.99760498 L 7.0018419,1.8086198 A 4.2037834,4.2037834 0 0 1 8.0170948,2.230982 L 8.691287,1.7570633 a 0.62461875,0.62461875 0 0 1 0.7931679,0.069392 L 9.9702678,2.3122682 A 0.62461875,0.62461875 0 0 1 10.03966,3.1054323 L 9.5657412,3.7796246 a 4.2037834,4.2037834 0 0 1 0.4183974,1.0112882 l 0.8110104,0.1427527 a 0.62461875,0.62461875 0 0 1 0.515562,0.6147062 V 6.2364422 A 0.62461875,0.62461875 0 0 1 10.795149,6.8511484 L 9.9841386,6.9939011 A 4.2018006,4.2018006 0 0 1 9.5697059,8.0170873 L 10.043625,8.6912794 A 0.62461875,0.62461875 0 0 1 9.9742325,9.4844435 L 9.488412,9.9702564 A 0.62461875,0.62461875 0 0 1 8.6952479,10.039649 L 8.0170911,9.5696983 A 4.2097323,4.2097323 0 0 1 7.0058029,9.9880958 L 6.8590438,10.793158 A 0.62461875,0.62461875 0 0 1 6.2443377,11.30872 H 5.5563049 A 0.62461875,0.62461875 0 0 1 4.9416025,10.793188 L 4.798812,9.9821771 A 4.2037834,4.2037834 0 0 1 3.7875239,9.5637796 L 3.1133317,10.037695 A 0.62461875,0.62461875 0 0 1 2.3201639,9.968302 L 1.8284056,9.4864504 A 0.62461875,0.62461875 0 0 1 1.7590135,8.6932863 L 2.2309443,8.01711 A 4.2057665,4.2057665 0 0 1 1.8125505,7.0058218 L 1.0015395,6.863069 A 0.62461875,0.62461875 0 0 1 0.48201325,6.2443981 Z M 4.0512743,5.9013417 A 1.8579929,1.8579929 0 1 0 5.9013342,4.0512781 1.8579929,1.8579929 0 0 0 4.0512743,5.9013417 Z"
       id="path4357-1"
       style="stroke-width:0.198292" />
  </g>
</svg>
