<?xml version="1.0" encoding="UTF-8" standalone="no"?>
<svg
   xmlns:dc="http://purl.org/dc/elements/1.1/"
   xmlns:cc="http://creativecommons.org/ns#"
   xmlns:rdf="http://www.w3.org/1999/02/22-rdf-syntax-ns#"
   xmlns:svg="http://www.w3.org/2000/svg"
   xmlns="http://www.w3.org/2000/svg"
   xmlns:sodipodi="http://sodipodi.sourceforge.net/DTD/sodipodi-0.dtd"
   xmlns:inkscape="http://www.inkscape.org/namespaces/inkscape"
   width="20"
   height="20"
   viewBox="0 0 20 20"
   version="1.1"
   id="svg838"
   inkscape:version="1.0.1 (3bc2e813f5, 2020-09-07)"
   sodipodi:docname="per_dreamy.svg">
  <defs
     id="defs832" />
  <sodipodi:namedview
     id="base"
     pagecolor="#ffffff"
     bordercolor="#666666"
     borderopacity="1.0"
     inkscape:pageopacity="0.0"
     inkscape:pageshadow="2"
     inkscape:zoom="10.24"
     inkscape:cx="21.980107"
     inkscape:cy="10.396085"
     inkscape:document-units="mm"
     inkscape:current-layer="layer1"
     inkscape:document-rotation="0"
     showgrid="false"
     units="px"
     inkscape:window-width="1267"
     inkscape:window-height="1040"
     inkscape:window-x="75"
     inkscape:window-y="0"
     inkscape:window-maximized="0"
     inkscape:pagecheckerboard="true" />
  <metadata
     id="metadata835">
    <rdf:RDF>
      <cc:Work
         rdf:about="">
        <dc:format>image/svg+xml</dc:format>
        <dc:type
           rdf:resource="http://purl.org/dc/dcmitype/StillImage" />
        <dc:title />
      </cc:Work>
    </rdf:RDF>
  </metadata>
  <g
     inkscape:label="Layer 1"
     inkscape:groupmode="layer"
     id="layer1">
    <g
       id="g867"
       transform="matrix(-0.03908945,0,0,0.03908945,20.006836,-0.0066045)">
      <path
         d="m 339.93,434.55 c 0,0 49.51,21.9 78,39 a 3.58,3.58 0 0 0 4.92,-4.9 l -19.66,-28.16 a 12.19,12.19 0 0 0 -9.81,-5.21 l -10,-0.15 a 9.55,9.55 0 0 1 -6.71,-2.9 l -42.89,-42.64 a 25.94,25.94 0 0 0 -16,-7.74 l -9.63,-1 a 13.38,13.38 0 0 1 -8.64,-4.4 c -7,-7.81 -22.36,-26.58 -30.31,-48.53 l 17.42,-10.25 a 5.33,5.33 0 0 0 0.57,-9.71 c -6.12,-3.16 -13.81,-3 -23,-6.56 a 59.06,59.06 0 0 0 16.81,-23.23 6.55,6.55 0 0 0 -7.18,-8.86 c -10.55,1.76 -27.1,4.05 -38.75,3.51 a 37.23,37.23 0 0 1 -7.2,-1.13 53.42,53.42 0 0 0 -14,-1.64 10.18,10.18 0 0 1 -8.56,-4.26 254.87,254.87 0 0 1 -14.63,-22.23 3.71,3.71 0 0 1 4.38,-5.37 207.74,207.74 0 0 0 49.17,9.23 c 2.3,0.17 4.61,0.25 6.93,0.26 12.49,0.08 35,-1.07 69.62,-2.84 a 7.58,7.58 0 0 0 7.19,-8.16 v 0 a 7.83,7.83 0 0 0 -7.36,-7.05 c -14.41,-0.48 -34.53,0 -46.93,0.05 -8.89,0 -12.24,-0.64 -21,-2 -14.47,-2.28 -34.77,-10.87 -47.53,-18.16 0,0 -22.92,-13.6 -45.75,-10.52 l -2,-26.26 5.87,-5.87 a 12.68,12.68 0 0 0 3.26,-5.61 l 1.94,-7.13 a 5,5 0 0 0 -1.71,-5.27 l -0.89,-0.71 a 7.18,7.18 0 0 1 -2.68,-5.32 c -0.28,-6.63 -2.56,-21.78 -17.29,-27 a 26.52,26.52 0 0 0 -18.71,0.55 c -1.32,0.53 -2.81,1.16 -4.44,1.91 a 35.41,35.41 0 0 0 -20.62,32.19 v 28.25 a 42.86,42.86 0 0 0 8.12,20 6.73,6.73 0 0 0 9,1.6 L 131,192 a 3.67,3.67 0 0 1 5.75,2.67 l 1.08,11.66 c 0,0 -15.41,9.92 -18.19,37.67 l -2.74,34.85 a 23.33,23.33 0 0 1 -6.43,14.33 L 99,305.27 a 50.08,50.08 0 0 1 -31.24,15.12 c -2.52,0.25 -5.14,0.42 -7.76,0.48 a 7.69,7.69 0 0 0 -7.44,7.62 v 0 a 7.63,7.63 0 0 0 7.62,7.63 h 18.65 a 36.34,36.34 0 0 0 23.29,-8.44 l 26.13,-21.29 a 41,41 0 0 0 12.67,-18.56 l 5.56,-16.67 17.52,19.31 a 16.86,16.86 0 0 1 3,18 c -5.22,12.11 -15.16,32.4 -28.26,46.4 a 4.65,4.65 0 0 0 4.07,7.81 c 9.28,-1.42 20.83,-4.07 28.29,-8.93 0,0 -1.21,19.06 -6.94,33.84 a 4.34,4.34 0 0 0 5.94,5.43 75.33,75.33 0 0 0 15.19,-9.67 v 52.77 a 16.85,16.85 0 0 0 12.16,16.2 c 26.23,7.62 89.67,25.21 138.27,31.86 a 3.55,3.55 0 0 0 2.66,-6.31 c -6.91,-5.41 -15.79,-12.66 -21.74,-18.64 a 9.54,9.54 0 0 0 -7.23,-2.83 l -14.73,0.72 a 16.42,16.42 0 0 1 -10.81,-3.37 c -10.76,-8.26 -38,-27.67 -57.36,-28.64 0,0 5,-31.28 12.43,-52.25 0.06,0.05 32.55,35.19 100.99,61.69 z"
         id="path4" />
      <path
         d="M 462.29,116.88 C 345.16,74.4 248,136.2 210.23,166.1 a 15.15,15.15 0 0 0 3.32,25.74 c 30.47,13.41 67.71,17.6 94.36,18.72 a 162.66,162.66 0 0 0 76.21,-15.05 c 36.28,-17.1 65.94,-41.36 82.59,-56.59 a 13.14,13.14 0 0 0 -4.42,-22.04 z"
         id="path6" />
      <path
         d="m 204.93,150.49 c 38.12,-27.24 71.8,-42.61 89.78,-49.75 a 26.15,26.15 0 0 0 16.17,-20.33 l 6.83,-44.09 a 7.4,7.4 0 0 0 -10.84,-7.65 c -49.59,27.48 -89.56,82.22 -110,114.26 -3.28,5.21 3.03,11.16 8.06,7.56 z"
         id="path8" />
      <path
         d="m 436.55,327.45 a 1.18,1.18 0 0 0 -0.15,-2.22 c -6.39,-1.8 -17.67,-7.65 -21.69,-26.6 a 1.18,1.18 0 0 0 -2.32,0 c -3.89,18.38 -14.61,24.43 -21.08,26.43 a 1.17,1.17 0 0 0 -0.1,2.21 c 12.65,4.87 18.87,21.47 21.2,29.57 a 1.18,1.18 0 0 0 2.27,0 c 2.32,-7.84 8.42,-23.7 21.87,-29.39 z"
         id="path10" />
      <path
         d="m 100,410.16 a 1.18,1.18 0 0 0 -2.32,0 c -3.89,18.37 -14.61,24.43 -21.09,26.42 a 1.18,1.18 0 0 0 -0.09,2.22 c 12.65,4.86 18.86,21.47 21.2,29.56 a 1.17,1.17 0 0 0 2.26,0 c 2.29,-7.84 8.43,-23.7 21.87,-29.38 a 1.18,1.18 0 0 0 -0.15,-2.22 C 115.3,435 104,429.11 100,410.16 Z"
         id="path12" />
      <path
         d="m 65.24,101.58 c 2.28,-7.84 8.42,-23.7 21.87,-29.39 A 1.17,1.17 0 0 0 87,70 C 80.61,68.19 69.33,62.35 65.31,43.39 a 1.18,1.18 0 0 0 -2.31,0 C 59.06,61.75 48.34,67.81 41.87,69.8 a 1.17,1.17 0 0 0 -0.1,2.21 C 54.42,76.88 60.64,93.49 63,101.58 a 1.18,1.18 0 0 0 2.24,0 z"
         id="path14" />
    </g>
  </g>
</svg>
