<svg version="1.1" viewBox="0 0 20 20" xmlns="http://www.w3.org/2000/svg">
 <g>
  <path d="m12.944 0.16594c-1.1503 0-2.1381 0.68251-2.5996 1.6597-1.5274 0.069466-2.7514 1.3238-2.7514 2.8679 0 0.86378 0.39001 1.6311 0.99398 2.1598-1.3804 0.18868-2.6783 0.63894-3.77 1.3188-0.50203-0.38704-1.1127-0.59726-1.7515-0.59726-0.2276 0-0.41174 0.18414-0.41174 0.41174 0 0.56802 0.17386 1.1236 0.49511 1.5983-0.55182 0.64428-0.94162 1.3621-1.1442 2.1061h-0.17402c-0.90806 0-1.6466 0.73812-1.6466 1.6462 0 0.91614 0.46437 1.7523 1.2418 2.2373l2.8745 1.791v2.1458c0 0.2276 0.18374 0.41174 0.41134 0.41174h1.6466c0.15588 0 0.29813-0.08812 0.36807-0.2276l0.48741-0.97442c1.8216 0.50242 3.8761 0.50242 5.6979 0l0.48741 0.97442c0.06994 0.13948 0.21219 0.2276 0.36807 0.2276h1.6466c0.2276 0 0.41134-0.18414 0.41134-0.41174v-2.1794c1.5725-1.1568 2.4696-2.752 2.4696-4.406 0-0.59983-0.12012-1.1781-0.3337-1.7268 0.27877-0.31098 0.56565-0.716 0.78436-1.2425 0.2525 0.057099 0.51606 0.087921 0.78416 0.087921 0.2276 0 0.41174-0.18414 0.41174-0.41174 0-0.2274-0.18414-0.41134-0.41174-0.41134-0.1869 0-0.3663-0.019164-0.53601-0.053344 0.07844-0.35444 0.12427-0.74781 0.12427-1.1815 0-0.68083-0.55379-1.2348-1.2348-1.2348-0.68083 0-1.2348 0.55399-1.2348 1.2348 0 0.67648 0.54154 1.3148 1.3182 1.6963-0.11894 0.2762-0.2602 0.50756-0.4064 0.70651-1.0039-1.6622-2.9588-2.9302-5.3437-3.4162 0.35741-0.27561 0.64863-0.63499 0.84738-1.057 1.5322-0.06421 2.7614-1.3214 2.7614-2.8689 0-1.5885-1.2925-2.8814-2.881-2.8814zm0 0.82308c1.1346 0 2.0579 0.92355 2.0579 2.0583 0 1.1348-0.92325 2.0579-2.0579 2.0579-1.1347 0-2.0583-0.92325-2.0583-2.0579 0-1.1347 0.92345-2.0583 2.0583-2.0583zm0 0.82348c-0.2276 0-0.41174 0.18384-0.41174 0.41134v1.6466c0 0.2276 0.18414 0.41174 0.41174 0.41174 0.2276 0 0.41134-0.18414 0.41134-0.41174v-1.6466c0-0.2275-0.18374-0.41134-0.41134-0.41134zm-2.844 0.86635c-0.01581 0.1219-0.03735 0.24242-0.03735 0.36847 0 0.20962 0.02529 0.41273 0.06796 0.6097-0.03932 0.063024-0.06796 0.13356-0.06796 0.21338v1.6466c0 0.2276 0.18414 0.41134 0.41174 0.41134s0.41134-0.18374 0.41134-0.41134v-0.45955c0.35148 0.35978 0.79878 0.6184 1.2969 0.75591-0.37341 0.57335-1.009 0.93846-1.7082 0.93846-1.1348 0-2.0583-0.92345-2.0583-2.0583 0-0.99991 0.71778-1.8329 1.6839-2.0146zm7.7833 4.896c0.22721 0 0.41134 0.18453 0.41134 0.41174 0 0.3252-0.03023 0.62235-0.08298 0.89322-0.45738-0.26-0.7401-0.61879-0.7401-0.89322 0-0.22701 0.18453-0.41174 0.41174-0.41174zm-7.8207 0.83158c1.074 0 2.148 0.14107 3.0094 0.42379 0.21634 0.070731 0.3337 0.30347 0.26277 0.51922-0.0569 0.17366-0.21752 0.28332-0.39079 0.28332-0.04268 0-0.08594-0.00631-0.12842-0.020547-1.5596-0.51191-3.9463-0.51191-5.5059-9e-7 -0.21417 0.072509-0.4477-0.046429-0.51922-0.26277-0.070928-0.21575 0.046429-0.44849 0.26277-0.51922 0.86141-0.28272 1.9354-0.42379 3.0094-0.42379zm-5.7624 2.4611c0.45382 0 0.82308 0.36966 0.82308 0.82348 0 0.45382-0.36926 0.82308-0.82308 0.82308-0.45382 0-0.82348-0.36926-0.82348-0.82308 0-0.45382 0.36966-0.82348 0.82348-0.82348z" style="stroke-width:.19757"/>
 </g>
</svg>
