<?xml version="1.0" encoding="UTF-8" standalone="no"?>
<svg
   xmlns:dc="http://purl.org/dc/elements/1.1/"
   xmlns:cc="http://creativecommons.org/ns#"
   xmlns:rdf="http://www.w3.org/1999/02/22-rdf-syntax-ns#"
   xmlns:svg="http://www.w3.org/2000/svg"
   xmlns="http://www.w3.org/2000/svg"
   xmlns:sodipodi="http://sodipodi.sourceforge.net/DTD/sodipodi-0.dtd"
   xmlns:inkscape="http://www.inkscape.org/namespaces/inkscape"
   width="20"
   height="20"
   viewBox="0 0 20 20"
   version="1.1"
   id="svg838"
   inkscape:version="1.0.1 (3bc2e813f5, 2020-09-07)"
   sodipodi:docname="per_cruel.svg">
  <defs
     id="defs832" />
  <sodipodi:namedview
     id="base"
     pagecolor="#ffffff"
     bordercolor="#666666"
     borderopacity="1.0"
     inkscape:pageopacity="0.0"
     inkscape:pageshadow="2"
     inkscape:zoom="15.839192"
     inkscape:cx="7.041573"
     inkscape:cy="8.6740927"
     inkscape:document-units="mm"
     inkscape:current-layer="layer1"
     inkscape:document-rotation="0"
     showgrid="false"
     units="px"
     inkscape:window-width="1267"
     inkscape:window-height="1040"
     inkscape:window-x="75"
     inkscape:window-y="5"
     inkscape:window-maximized="0"
     inkscape:pagecheckerboard="true" />
  <metadata
     id="metadata835">
    <rdf:RDF>
      <cc:Work
         rdf:about="">
        <dc:format>image/svg+xml</dc:format>
        <dc:type
           rdf:resource="http://purl.org/dc/dcmitype/StillImage" />
        <dc:title></dc:title>
      </cc:Work>
    </rdf:RDF>
  </metadata>
  <g
     inkscape:label="Layer 1"
     inkscape:groupmode="layer"
     id="layer1">
    <g
       id="g4046-5-8"
       transform="matrix(0.23001925,0,0,0.23001925,-1.5009397,-1.5222402)"
       style="fill:#000000">
      <path
         inkscape:connector-curvature="0"
         d="M 58.333,91.184 C 69.396,60.49 39.058,50.927 39.058,50.927 34.634,49.506 34.634,46.186 34.634,46.186 L 33.23,35.553 h 9.018 c 8.246,0 6.762,-10.335 6.762,-10.335 H 24.489 c 0,0 -2.646,0 -3.11,2.713 l -2.765,22.495 c 0,0 -5.625,31.942 21.312,39.525 10e-4,0 16.984,5.182 18.407,1.233 z"
         id="path4030-2-7"
         style="fill:#000000" />
      <path
         inkscape:connector-curvature="0"
         d="m 69.199,40.243 c 0,1.61 -1.305,2.914 -2.914,2.914 H 61.32 c -1.609,0 -2.913,-1.304 -2.913,-2.914 v -25.78 c 0,-1.608 1.304,-2.914 2.913,-2.914 h 4.965 c 1.609,0 2.914,1.305 2.914,2.914 z"
         id="path4032-5-9"
         style="fill:#000000" />
      <path
         inkscape:connector-curvature="0"
         d="m 81.874,40.243 c 0,1.61 -1.303,2.914 -2.913,2.914 h -4.964 c -1.61,0 -2.914,-1.304 -2.914,-2.914 V 16.362 c 0,-1.609 1.304,-2.915 2.914,-2.915 h 4.964 c 1.61,0 2.913,1.306 2.913,2.915 z"
         id="path4034-4-2"
         style="fill:#000000" />
      <g
         id="g4040-7-0"
         style="fill:#000000">
        <path
           inkscape:connector-curvature="0"
           d="m 43.847,40.243 v -1.955 c -0.516,0.071 -1.048,0.109 -1.6,0.109 h -5.774 l 0.628,4.76 h 3.832 c 1.608,0 2.914,-1.304 2.914,-2.914 z"
           id="path4036-4-2"
           style="fill:#000000" />
        <path
           inkscape:connector-curvature="0"
           d="m 43.847,22.374 v -7.673 c 0,-1.609 -1.306,-2.914 -2.914,-2.914 h -4.965 c -1.609,0 -2.914,1.305 -2.914,2.914 v 7.673 z"
           id="path4038-4-3"
           style="fill:#000000" />
      </g>
      <path
         inkscape:connector-curvature="0"
         d="m 49.008,22.374 h 2.464 l 0.352,2.44 c 0.097,0.674 0.853,6.708 -2.508,10.585 -0.969,1.119 -2.181,1.933 -3.584,2.43 v 2.413 c 0,1.61 1.304,2.914 2.913,2.914 h 4.964 c 1.609,0 2.912,-1.304 2.912,-2.914 V 10.431 c 0,-1.61 -1.303,-2.914 -2.912,-2.914 h -4.964 c -1.609,0 -2.913,1.304 -2.913,2.914 v 11.943 z"
         id="path4042-3-7"
         style="fill:#000000" />
      <path
         inkscape:connector-curvature="0"
         d="m 79.066,46.001 h -4.964 c -1.48,0 -2.834,-0.562 -3.855,-1.487 -1.021,0.924 -2.373,1.487 -3.856,1.487 h -4.963 c -1.481,0 -2.835,-0.562 -3.857,-1.487 -1.021,0.924 -2.372,1.487 -3.855,1.487 h -4.964 c -1.482,0 -2.834,-0.562 -3.855,-1.487 -1.022,0.924 -2.375,1.487 -3.856,1.487 h -3.546 l -0.012,0.133 c 0.055,0.336 0.392,1.423 2.438,2.084 0.71,0.224 14.504,4.744 20.733,17.324 3.684,7.438 3.924,16.031 0.72,25.554 l 12.789,-3.727 c 6.978,-2.152 7.139,-11.98 7.139,-11.98 v -29.84 c -0.688,0.29 -1.444,0.452 -2.236,0.452 z"
         id="path4044-0-5"
         style="fill:#000000" />
    </g>
  </g>
</svg>
