<svg version="1.1" viewBox="0 0 20 20" xmlns="http://www.w3.org/2000/svg">
 <g>
  <path d="m10.488 15.102c0 0.0991-0.08035 0.17946-0.17946 0.17946h-1.6288c-0.099107 0-0.17946-0.08035-0.17946-0.17946v-1.2641h1.9879v1.2641zm2.3542-3.494h-1.831v1.5812h1.831zm0 1.9158h-1.831v1.5779c0 0.0991 0.08035 0.17946 0.17946 0.17946h1.4719c0.0991 0 0.17946-0.08036 0.17946-0.17946v-1.5779zm-2.3542-0.80201h-1.9879v0.78125h1.9879zm0-5.1339h-1.9879v0.78125h1.9879zm-0.17946-1.5038h-1.6288c-0.099107 0-0.17946 0.080357-0.17946 0.17946v0.98929h1.9879v-0.98929c-2.24e-4 -0.099107-0.08058-0.17946-0.17969-0.17946zm2.3542 0h-1.4719c-0.0991 0-0.17946 0.080357-0.17946 0.17946v5.0094h1.831v-5.0094c-2.23e-4 -0.099107-0.08058-0.17946-0.17969-0.17946zm2.4109 0.58616c-0.01031-0.097768-0.09709-0.16897-0.19509-0.16004l-1.4071 0.12924c-0.09978 0.00916-0.17254 0.097991-0.16228 0.19754l0.91741 8.2837c0.01031 0.09777 0.09709 0.16897 0.19509 0.16004l1.4074-0.12924c0.09978-0.0092 0.17254-0.09799 0.16228-0.19754zm-4.5857 2.0337h-1.9879v3.683h1.9879zm-8.7192 9.2007h1.7089v-0.97656h-1.7089zm15.172 0h1.7089v-0.97656h-1.7089zm-16.84-2.2882v0.97679h20.089v-0.97679zm5.7721-7.3004-1.0946-0.38326c-0.093527-0.032812-0.19576 0.016295-0.22857 0.1096l-2.4978 6.6286c-0.033035 0.09375 0.016295 0.19643 0.11004 0.22924l1.0949 0.38304c0.093527 0.03259 0.19576-0.01629 0.22857-0.10982l2.4975-6.6283c0.032812-0.093527-0.016295-0.19621-0.11004-0.22902zm12.355-0.80201v7.5879c0 0.0991-0.08035 0.17969-0.17946 0.17969h-1.2812c-0.0991 0-0.17946-0.08035-0.17946-0.17969v-7.5879c0-0.099107 0.08035-0.17946 0.17946-0.17946h1.2812c0.09888 0 0.17946 0.080357 0.17946 0.17946zm-0.70848 2.1996c0-0.0616-0.05-0.11161-0.11161-0.11161-0.0616 0-0.11161 0.05-0.11161 0.11161v3.2645c0 0.06161 0.05 0.11161 0.11161 0.11161 0.0616 0 0.11161-0.05 0.11161-0.11161zm-9.4234-2.0116-1.0801 7.4366c-0.013393 0.09822-0.10402 0.16696-0.20223 0.15357l-1.2853-0.17612c-0.098214-0.013392-0.16696-0.10402-0.15357-0.20223l1.0801-7.4366c0.013393-0.098215 0.10402-0.16696 0.20223-0.15357l1.2853 0.17612c0.098215 0.013393 0.16696 0.10402 0.15357 0.20223zm-1.0016 2.1944c0.00938-0.06072-0.03259-0.11786-0.093303-0.12723-0.059152-0.0092-0.11763 0.03259-0.12723 0.0933l-0.49754 3.2266c-0.00938 0.06072 0.03259 0.11786 0.093303 0.12723 0.00558 8.93e-4 0.011607 0.0014 0.017187 0.0014 0.054018 0 0.10156-0.03951 0.11004-0.09465z" style="stroke-width:.22321"/>
 </g>
</svg>
