<svg version="1.1" viewBox="0 0 20 20" xmlns="http://www.w3.org/2000/svg">
 <g>
  <g transform="matrix(.041061 0 0 .041061 9.2837 14.103)">
   <path d="m-164.48-182.35c1.85 15.3 24.19 14.7 25.29-0.67a95.89 95.89 0 0 0-0.24-16.14c0-0.44-0.09-0.87-0.13-1.3-1.63-15.43-24.26-15-25.31 0.45-0.21 3-0.29 6.14-0.2 9.4 0.07 2.93 0.28 5.72 0.59 8.26z"/>
   <path d="m-163.27 133.32a102.44 102.44 0 0 0 37.3 6.73h110.18a9.86 9.86 0 0 0 7.89-15.78 9.76 9.76 0 0 0-7.17-3.92c-14.88-1-63.51-7.54-79.82-49a7.09 7.09 0 0 0-12.22-1.85 87.46 87.46 0 0 1-9.26 10.44 13.62 13.62 0 0 1-19.9-1.43c-4.24-5.25-7.66-12.87-4.44-22.4a27.9 27.9 0 0 1 15.27-16.32c17-7.58 62.42-23.52 145.17-23.52s128.22 15.94 145.17 23.52a27.94 27.94 0 0 1 15.28 16.32c3.21 9.53-0.21 17.15-4.45 22.4a13.62 13.62 0 0 1-19.9 1.43 87.46 87.46 0 0 1-9.26-10.44 7.09 7.09 0 0 0-12.22 1.85c-16.31 41.46-64.94 48-79.82 49a9.76 9.76 0 0 0-7.17 3.92 9.86 9.86 0 0 0 7.89 15.78h110.14a102.44 102.44 0 0 0 37.3-6.73c33.54-13 54.77-46.36 53.54-82.32-0.95-27.59-2.85-58.13-4.77-84.59-0.55-7.71-11.46-8.63-13.35-1.14-1.23 4.85-2.49 9-3.69 12.54-4.38 12.81-22.68 12.43-26.43-0.58l-0.06-0.19a13.44 13.44 0 0 1-0.48-3.46 488.21 488.21 0 0 0-7-77.4c-2.44-14.13-22.93-13.58-24.53 0.67-9.6 85.41-32.52 88.33-32.52 88.33-0.61 0.26-1.21 0.52-1.81 0.75-19.37 7.68-40.66-5.79-42.77-26.52l-2.43-24.3c-0.93-9.14-13.7-10.31-16.37-1.52-19.17 63.23-60.29 59.82-60.29 59.82s-41.12 3.41-60.29-59.78c-2.67-8.79-15.44-7.62-16.37 1.52l-2.47 24.26c-2.11 20.73-23.4 34.2-42.77 26.52-0.6-0.23-1.2-0.49-1.81-0.75 0 0-22.92-2.92-32.51-88.33-1.61-14.25-22.1-14.8-24.54-0.67a488.21 488.21 0 0 0-7 77.4 13.44 13.44 0 0 1-0.48 3.46l-0.06 0.19c-3.75 13-22 13.39-26.43 0.58-1.2-3.53-2.46-7.69-3.69-12.54-1.89-7.49-12.8-6.57-13.35 1.14-1.92 26.46-3.82 57-4.77 84.59-1.18 35.96 20.04 69.32 53.54 82.32z"/>
   <path d="m203.94-182.35c0.31-2.58 0.52-5.33 0.59-8.26 0.09-3.26 0-6.39-0.2-9.4-1.05-15.48-23.68-15.88-25.31-0.45 0 0.43-0.09 0.86-0.13 1.3a95.89 95.89 0 0 0-0.24 16.14c1.08 15.37 23.44 15.97 25.29 0.67z"/>
   <path d="m71.374 70.942c-7.18 3.65-16.75 6.18-24.78 7.83a2.13 2.13 0 0 0 0.31 4.22 207.51 207.51 0 0 0 38.41-1.69 50.91 50.91 0 0 0 8.32-1.78c16.48-5.14 16.1-28.44-0.53-33.07-32.28-9-73.37-8.63-73.37-8.63s-41.09-0.36-73.37 8.63c-16.63 4.63-17 27.93-0.53 33.07a50.91 50.91 0 0 0 8.32 1.78 207.51 207.51 0 0 0 38.41 1.69 2.13 2.13 0 0 0 0.31-4.22c-8-1.65-17.6-4.18-24.78-7.83a5.42 5.42 0 0 1-2.93-4.44 5.46 5.46 0 0 1 4.72-5.84c10.46-1.38 34.57-2.25 49.85-2.25s39.39 0.87 49.85 2.25a5.47 5.47 0 0 1 1.79 10.28z"/>
  </g>
  <g transform="matrix(.023378 0 0 .023378 24.957 6.9297)">
   <path d="m-720.32 95.897a176.66 176.66 0 0 0 129.8 14.2 7.93 7.93 0 0 0 5.46-10.11l-1.58-4.73a7.91 7.91 0 0 0-9.67-5.12 155.92 155.92 0 0 1-114-12.47 4.76 4.76 0 0 0-6.35 1.88l-5.55 9.75a4.79 4.79 0 0 0 1.89 6.6z"/>
   <path d="m-472.39 1.3671a6.77 6.77 0 0 0-4.29-8.76l-6.88-2.24a6.78 6.78 0 0 0-8.44 4.11 155 155 0 0 1-59.24 74.94l-23.18-35c-4.28-6.45-14.33-2.26-12.75 5.32a58.56 58.56 0 0 0 4.29 12.84l44.39 94.43a18 18 0 0 0 16.33 10.36h5.57a12.7 12.7 0 0 0 10.58-19.71l-33.75-50.94a175.72 175.72 0 0 0 67.37-85.35z"/>
   <path d="m-724.79 20.367-29 23.13a155.41 155.41 0 0 1-18.5-180.63 10.87 10.87 0 0 0-3.35-14.5l-3.37-2.24a6.13 6.13 0 0 0-8.62 1.87 176.19 176.19 0 0 0 17.59 208.5l-95.34 76.13a24.88 24.88 0 0 0-9.37 19.46v0.49a24.91 24.91 0 0 0 44 16l115.48-138.47c5.27-6.33-3.08-14.86-9.52-9.74z"/>
   <path d="m-461.53-59.633a174.34 174.34 0 0 0-45-117.58l65.21-62.69a14.47 14.47 0 0 0 0.21-20.67l-10.32-10.34a14.48 14.48 0 0 0-22 1.84l-89.66 125.79a7.44 7.44 0 0 0 11.22 9.65l30.36-29.19a153.71 153.71 0 0 1 39.2 103.19c0 2.55-0.09 5.1-0.21 7.65h-10.86c-8.35 0-9.57 12-1.38 13.71l94.23 19.17v-32.88h-61.18c0.07-2.55 0.18-5.11 0.18-7.65z"/>
   <circle transform="rotate(-9.22)" cx="-556.14" cy="-312.37" r="14.34"/>
   <path d="m-523.57-55.333-37.38-7.3a76.78 76.78 0 0 0-93.87-71.77 9.4 9.4 0 0 0-7.17 10.71l4.8 28.68a4.31 4.31 0 0 1-7.86 3.06l-18.79-28.98-45.69-67.2c9.15-10 17.34-18.14 31.41-28a4.44 4.44 0 0 0 2-3.95 4.22 4.22 0 0 0-5.79-3.55 174.38 174.38 0 0 0-37.8 20.52l-54.42-80a31 31 0 0 0-25.65-13.63h-12.57a11.73 11.73 0 0 0-9 19.19l142.01 172.25a76.42 76.42 0 0 0-15.05 47c0.68 40.44 33.31 73.82 73.73 75.38a76.74 76.74 0 0 0 71.13-41.31 7.6 7.6 0 0 0-2.42-9.72l-9.95-6.95a3.78 3.78 0 0 1 2.16-6.88l55 1.91c5.93 0.31 6.99-8.32 1.17-9.46z"/>
  </g>
 </g>
</svg>
