<svg version="1.1" viewBox="0 0 20 20" xmlns="http://www.w3.org/2000/svg">
 <g>
  <g transform="matrix(.28691 0 0 .28691 -3.8291 -3.087)">
   <path d="m62.845 71.552h11.999c0.492 0 0.859-0.359 0.859-0.68v-34.266c0-0.16-0.056-0.297-0.158-0.388l-0.11-0.104c-0.131-0.117-0.338-0.188-0.591-0.188h-11.999c-0.492 0-0.859 0.358-0.859 0.679v34.267c0 0.321 0.367 0.68 0.859 0.68z"/>
   <path d="m23.777 52.916v17.956c0 0.321 0.367 0.681 0.858 0.681h12c0.492 0 0.859-0.359 0.859-0.68v-17.956c0-0.169-0.057-0.299-0.179-0.41-0.219-0.198-0.426-0.269-0.677-0.269h-12.002c-0.491-1e-3 -0.859 0.357-0.859 0.678z"/>
   <path d="m56.298 44.583c-0.118-0.097-0.317-0.161-0.557-0.161h-12.001c-0.491 0-0.858 0.358-0.858 0.679v25.769c0 0.322 0.367 0.683 0.858 0.683h12c0.491 0 0.858-0.359 0.858-0.68v-25.771c0-0.169-0.055-0.298-0.172-0.403z"/>
   <polygon points="62.865 14.971 47.775 17.587 51.131 22.14 30.687 37.213 32.103 39.135 52.548 24.061 55.904 28.612"/>
   <path d="m17.955 25.988c0-1.228-1-2.227-2.228-2.227s-2.227 0.999-2.227 2.227v52.814c0 1.228 0.999 2.227 2.227 2.227h64.546c1.228 0 2.227-0.999 2.227-2.227s-0.999-2.228-2.227-2.228h-62.318z"/>
  </g>
 </g>
</svg>
