<svg version="1.1" viewBox="0 0 20 20" xmlns="http://www.w3.org/2000/svg">
 <path class="fil0" d="m18.359 0.20168c-2.8265 0.45835-5.5766 1.2987-7.9447 2.9793v14.896c2.4445-1.2987 5.1182-2.2154 7.9447-2.3681zm-17.494 1.2223-0.84031-0.15278v15.813c3.514 0.15278 6.7988 1.1459 10.007 2.5973 3.132-1.4514 6.4169-2.4445 9.9309-2.5973v-15.813l-0.84031 0.15278v14.667c0 0.15278-0.15278 0.30557-0.38196 0.30557-3.132 0.15278-5.8057 1.1459-8.5558 2.5973-0.22917 0.22917-0.45835 0-0.68752-0.15278-2.5209-1.375-5.3474-2.2917-8.2503-2.4445-0.22917 0-0.38196-0.15278-0.38196-0.30557zm0.76391-1.2223v15.507c2.8265 0.15278 5.5002 1.0695 8.0211 2.3681v-14.896c-2.3681-1.6806-5.1946-2.5209-8.0211-2.9793z" clip-rule="evenodd" fill="#0ff" image-rendering="optimizeQuality" shape-rendering="geometricPrecision" stroke-width=".076391"/>
</svg>
