<svg version="1.1" viewBox="0 0 20 20" xmlns="http://www.w3.org/2000/svg">
 <style type="text/css">.st0{fill:#010202;}</style>
 <path class="st0" d="m-194-65.426" style="fill:#010202"/>
 <g transform="matrix(.29974 0 0 .29974 -5.611 -4.5738)" style="fill:#000000">
  <path d="m46.4 32.4c0.5 0.2 2.4 0.5 2.4 0.5l6.7-17.5-10 10.3 1.9-4.5-10.3 13s5.1-1.3 5.9-1.6c0.9-0.2 2.9-0.4 3.4-0.2z" style="fill:#000000"/>
  <path d="m33.6 67.2v-1.8l1 0.5v-1.7l8.9-3.2c2.4 0.4 5.2 0 8.1-2.2 0.5-0.4 1-0.8 1.4-1.2 0 0 2.9-1.8 5.6-4 0 0 3.5-5.6 1.2-9.5-2.3-3.8-2.3-3.8-2.3-3.8s6.1 3 5.1 9.7c0.4-0.5 0.8-1 1-1.5 1.5-3.3 1.6-7.6 1.6-9.4s5.1-22.1 5.1-22.1l-8.6 10 0.3-2.5-7.7 6.5-5 3.3c-1.2-0.5-2.6-0.8-3.9-0.6-3.8 0.6-10.3 1.7-12.1 4.8-1.4 2.3-3 5.7-3.4 8.3l-6.3 4.6c-0.5 0-1 0.1-1.5 0.3-0.7 0.4-1.1 1-1.2 1.6h0.1s-1.1 5.7 1.1 7.7c2.3 2 8.1 5.5 9.4 5.2 1.3-0.1 2.1 1 2.1 1zm-3.1-9.9h-1.4l1.1-0.7h0.2c0.2 0 0.1 0.7 0.1 0.7zm-2.7-1.7-0.6 1.7s-0.6-4 3.7-3.5l0.5 0.3s-2.9-0.3-3.6 1.5z" style="fill:#000000"/>
  <path d="m82.7 66.6-11.8-19.8c-7.3 17.6-20.3 17-20.3 17s3.5-0.1 11.1-5.6c5.8-4.2 7.3-9.5 7.9-13.6l-3.5-5.9s2.5 13.7-10.5 19.5c-0.2 0.1-0.6 0.3-1.2 0.5-0.4 0.1-0.7 0.3-1.1 0.4v0.1c-0.6 0.3-1.2 0.6-1.7 0.8-1.8 1-4.1 1.8-4.1 1.8l-15.9 14.2s0.2 0.2 0.6 0.4c0.4 0.3 1 0.6 1.7 1.1l14.2-13.2-13 13.8c1.2 0.6 2.7 1.4 4.5 2.1 25.4 6.6 40.6-9.8 43.4-13.2z" style="fill:#000000"/>
 </g>
 <path d="m7.8201 8.4646-1.9775 1.4382s2.4569 1.0786 1.9775-1.4382z" style="fill-rule:evenodd;fill:#ffff00"/>
</svg>
