<svg version="1.1" viewBox="0 0 20 20" xmlns="http://www.w3.org/2000/svg">
 <style type="text/css">.st0{fill:#010202;}</style>
 <path class="st0" d="m-194-65.426" style="fill:#010202"/>
 <g transform="matrix(.082023 0 0 .082023 3.6078 .15748)">
  <path d="m71.482 195.5c3.076-0.167 6.025-0.259 8.788-0.259 2.761 0 5.71 0.092 8.785 0.259l-8.786-51.419z"/>
  <path d="m122.52 122.86c-1.826 1.234-3.953 1.887-6.151 1.887-3.413 0-6.606-1.571-8.682-4.234l13.4 78.404c21.069 3.028 39.453 6.83 39.453 6.83s-6.687-51.855-21.733-96.969c-4.057 4.786-9.407 9.424-16.287 14.082z"/>
  <path d="m39.451 198.91 13.398-78.4c-2.078 2.662-5.27 4.23-8.68 4.23-2.195 0-4.321-0.652-6.149-1.887-6.886-4.665-12.235-9.301-16.287-14.082-15.046 45.114-21.733 96.968-21.733 96.968s18.383-3.801 39.451-6.829z"/>
  <path d="m123.42 92.795c2.209-3.141 2.511-4.996 2.525-6.258-6e-3 -1.555-0.622-3.105-1.998-4.999-1.45-1.989-3.825-4.188-6.684-6.189-0.318-0.226-0.649-0.451-0.986-0.676l-7.243 30.86c0.367-0.324 0.755-0.626 1.166-0.904 7.649-5.159 11.41-9.283 13.22-11.834z"/>
  <path d="m36.743 81.334c-1.486 1.979-2.146 3.59-2.152 5.231 0.016 1.234 0.318 3.09 2.531 6.237 1.804 2.545 5.567 6.669 13.214 11.823 0.415 0.282 0.805 0.586 1.169 0.91l-7.242-30.864c-3.261 2.193-5.981 4.591-7.52 6.663z"/>
  <circle transform="matrix(.2268 -.9739 .9739 .2268 40.152 95.577)" cx="80.27" cy="22.5" r="22.495"/>
  <path d="m39.14 121.2c1.544 1.043 3.296 1.543 5.03 1.543 2.889 0 5.727-1.388 7.467-3.961 2.782-4.118 1.699-9.713-2.419-12.495-7.024-4.737-11.361-8.988-13.732-12.332-2.381-3.386-2.873-5.637-2.895-7.394 6e-3 -1.997 0.742-4.011 2.546-6.418 2.336-3.146 6.507-6.326 10.431-8.661l10.292 43.851c-0.142 0.49-0.265 0.989-0.353 1.503l-18.089 105.85c-1.255 7.351 3.683 14.325 11.034 15.58 0.77 0.132 1.537 0.195 2.292 0.195 6.456 0 12.163-4.648 13.289-11.228l15.532-90.897h1.409l15.532 90.897c1.125 6.579 6.833 11.228 13.291 11.228 0.756 0 1.521-0.063 2.292-0.195 7.349-1.255 12.288-8.23 11.032-15.58l-18.087-105.85c-0.088-0.514-0.211-1.013-0.352-1.502l10.291-43.847c1.141 0.678 2.304 1.42 3.44 2.224 2.862 2.002 5.493 4.374 7.155 6.651 1.686 2.322 2.373 4.26 2.379 6.198-0.02 1.756-0.512 4.006-2.894 7.392-2.373 3.347-6.707 7.597-13.731 12.333-4.119 2.783-5.201 8.377-2.417 12.496 1.739 2.574 4.576 3.962 7.465 3.962 1.734 0 3.486-0.499 5.031-1.544 8.244-5.582 14.202-11.06 18.307-16.795 4.093-5.694 6.26-11.877 6.24-17.845 6e-3 -6.874-2.763-12.796-6.212-17.306-5.233-6.808-12.043-11.276-17.564-14.391-5.531-3.076-9.847-4.665-10.145-4.778-1.257-0.462-2.549-0.616-3.802-0.517-0.499-0.084-1.006-0.142-1.526-0.142h-52.857c-0.521 0-1.028 0.059-1.529 0.143-1.253-0.098-2.544 0.056-3.801 0.517-0.401 0.163-7.925 2.891-15.989 8.379-4.031 2.768-8.242 6.232-11.72 10.788-3.45 4.51-6.218 10.433-6.212 17.307-0.021 5.968 2.146 12.15 6.24 17.845 4.104 5.736 10.064 11.212 18.309 16.796z"/>
 </g>
</svg>
