<svg version="1.1" viewBox="0 0 20 20" xmlns="http://www.w3.org/2000/svg">
 <g>
  <path d="m10.982 4.1422a2.3242 2.3242 0 0 1-0.60492-0.96564l-0.64391-1.9393a1.9613 1.9613 0 0 0-0.88364-1.0812 0.29753 0.29753 0 0 0-0.42165 0.1398 1.9617 1.9617 0 0 0-0.06094 1.3954l0.12278 0.37012a4.6669 4.6669 0 0 0-2.4775 3.4055 0.38312 0.38312 0 0 0 0.31635 0.44003 0.36923 0.36923 0 0 0 0.062284 0.00538 0.38357 0.38357 0 0 0 0.37774-0.32128 3.9024 3.9024 0 0 1 1.9662-2.7929l0.27647 0.83166c0.31366 0.94413-0.025543 1.6884-0.28812 2.0823a2.3045 2.3045 0 0 1-1.1426 0.81373l-1.9393 0.64391a1.9613 1.9613 0 0 0-1.0812 0.88364 0.29753 0.29753 0 0 0 0.14025 0.42165 1.9582 1.9582 0 0 0 1.3949 0.06094l0.3979-0.13219a4.6655 4.6655 0 0 0 2.9574 2.3417 0.38312 0.38312 0 1 0 0.19402-0.74114 3.902 3.902 0 0 1-2.4094-1.8466l0.80074-0.26527c1.0938-0.36385 1.9205 0.14966 2.2405 0.40328a2.3216 2.3216 0 0 1 0.60492 0.96608l0.6448 1.9407a1.9613 1.9613 0 0 0 0.88364 1.0812 0.29753 0.29753 0 0 0 0.42076-0.14025 1.9595 1.9595 0 0 0 0.06094-1.3954l-0.12278-0.36968a4.6736 4.6736 0 0 0 2.469-3.3553 0.38345 0.38345 0 0 0-0.75503-0.13443 3.9087 3.9087 0 0 1-1.9591 2.7504l-0.27558-0.82987c-0.31366-0.94413 0.02509-1.6884 0.28767-2.0823a2.2992 2.2992 0 0 1 1.1431-0.81194l1.9393-0.64435a1.9586 1.9586 0 0 0 1.0812-0.88319 0.29753 0.29753 0 0 0-0.1398-0.42165 1.9595 1.9595 0 0 0-1.3954-0.06094l-0.3979 0.13443a4.6646 4.6646 0 0 0-3.4001-2.4358 0.38325 0.38325 0 1 0-0.12143 0.75683 3.8984 3.8984 0 0 1 2.7822 1.9268l-0.80163 0.26617c-1.0942 0.35713-1.921-0.15594-2.2431-0.4109z" style="stroke-width:.044809"/>
  <path d="m2.5844 1.1472a0.24555 0.24555 0 0 0-0.4454-0.030022c-0.39522 0.72322-0.88229 1.1269-1.3622 1.3259a0.246 0.246 0 0 0-0.029574 0.44003c0.44809 0.26124 0.87736 0.72636 1.1722 1.4957a0.24555 0.24555 0 0 0 0.4454 0.030022c0.39566-0.72322 0.88229-1.1269 1.3617-1.3259a0.24555 0.24555 0 0 0 0.030022-0.43913c-0.44854-0.26213-0.87691-0.72725-1.1722-1.4966z" style="stroke-width:.044809"/>
  <path d="m19.287 9.8984c-0.45929-0.24152-0.90783-0.68782-1.2358-1.4437a0.246 0.246 0 0 0-0.44809-0.010754c-0.36385 0.73935-0.833 1.165-1.303 1.3833a0.246 0.246 0 0 0-0.01075 0.44092c0.45929 0.24152 0.90783 0.68782 1.2358 1.4442a0.246 0.246 0 0 0 0.44809 0.01031c0.3634-0.73935 0.83255-1.165 1.303-1.3833a0.246 0.246 0 0 0 0.01075-0.44092z" style="stroke-width:.044809"/>
  <path d="m16.802 13.916a0.97594 0.97594 0 0 0-1.2547 0.10037c-0.60716 0.60403-1.3842 1.2435-1.9828 1.7131-1.1973 0.94099-2.7992 1.2072-4.2242 0.67214a8.6482 8.6482 0 0 1-1.5871-0.80208 0.35847 0.35847 0 0 1 0.27109-0.64884 22.711 22.711 0 0 0 2.4618 0.41896 1.1507 1.1507 0 0 0 0.45795-2.2458c-1.2641-0.37953-2.853-0.915-3.9338-1.2874a2.4036 2.4036 0 0 0-2.2754 0.38805l-3.9163 3.1003a0.58252 0.58252 0 0 0-0.11516 0.79357l2.4148 3.4324a0.58252 0.58252 0 0 0 0.78281 0.16176l0.74742-0.4584a1.2954 1.2954 0 0 1 1.1556-0.09992c0.33786 0.13443 0.72322 0.26079 1.0974 0.37192a10.384 10.384 0 0 0 4.3097 0.34682c0.33965-0.04481 0.65332-0.09724 0.92307-0.14742a3.3607 3.3607 0 0 0 1.7108-0.87915c1.1973-1.1516 2.4295-2.6227 3.1528-3.5215a0.97818 0.97818 0 0 0-0.19582-1.4088z" style="stroke-width:.044809"/>
 </g>
</svg>
