<svg version="1.1" viewBox="0 0 20 20" xmlns="http://www.w3.org/2000/svg">
 <path d="m19.757 18.19a4.1144 4.1144 0 0 0-1.7174 0.33159 3.5415 3.5415 0 0 1-1.4931 0.28972 3.5417 3.5417 0 0 1-1.4932-0.28972 4.1136 4.1136 0 0 0-1.7173-0.33159 4.1128 4.1128 0 0 0-1.7171 0.33159 3.5408 3.5408 0 0 1-1.493 0.28972 3.5396 3.5396 0 0 1-1.4928-0.28972 4.1131 4.1131 0 0 0-1.7171-0.33159 4.1131 4.1131 0 0 0-1.7171 0.33159 3.5397 3.5397 0 0 1-1.4928 0.28972 3.5396 3.5396 0 0 1-1.4928-0.28972 4.1131 4.1131 0 0 0-1.7171-0.33159 0.31066 0.31066 0 0 0 0 0.62131 3.5396 3.5396 0 0 1 1.4928 0.28972 4.1131 4.1131 0 0 0 1.7171 0.33159 4.1135 4.1135 0 0 0 1.7172-0.33159 3.5396 3.5396 0 0 1 1.4928-0.28972 3.5396 3.5396 0 0 1 1.4928 0.28972 4.1131 4.1131 0 0 0 1.7171 0.33159 4.1129 4.1129 0 0 0 1.7172-0.33159 3.5407 3.5407 0 0 1 1.4929-0.28972 3.5415 3.5415 0 0 1 1.4931 0.28972 4.1144 4.1144 0 0 0 1.7174 0.33159 4.1136 4.1136 0 0 0 1.7173-0.33159 3.5417 3.5417 0 0 1 1.4932-0.28972 0.31066 0.31066 0 0 0 0-0.62131z" style="stroke-width:.15533"/>
 <path d="m15.053 12.308a4.1136 4.1136 0 0 0-1.7173-0.33159 4.1128 4.1128 0 0 0-1.7171 0.33159 4.565 4.565 0 0 1-0.56221 0.1885 6.1206 6.1206 0 0 0 0.01899 0.62342c2.79e-4 0.0033 7.45e-4 0.0068 1e-3 0.01015a4.6644 4.6644 0 0 0 0.7664-0.24268 3.5407 3.5407 0 0 1 1.4929-0.28972 3.5415 3.5415 0 0 1 1.4931 0.28972 4.1144 4.1144 0 0 0 1.7174 0.33159 4.1136 4.1136 0 0 0 1.7173-0.33159 3.5417 3.5417 0 0 1 1.4932-0.28972 0.31066 0.31066 0 0 0 0-0.62131 4.1144 4.1144 0 0 0-1.7174 0.33159 3.5415 3.5415 0 0 1-1.4931 0.28972 3.5417 3.5417 0 0 1-1.4932-0.28972z" style="stroke-width:.15533"/>
 <path d="m0.49599 12.598a3.5396 3.5396 0 0 1 1.4928 0.28972 4.1131 4.1131 0 0 0 1.7171 0.33159 4.1135 4.1135 0 0 0 1.7172-0.33159 3.5396 3.5396 0 0 1 1.4928-0.28972 4.6449 4.6449 0 0 1 0.47592 0.02273 6.0563 6.0563 0 0 0 0.18075-0.60468 5.0816 5.0816 0 0 0-0.65667-0.03935 4.1131 4.1131 0 0 0-1.7171 0.33159 3.5397 3.5397 0 0 1-1.4928 0.28972 3.5396 3.5396 0 0 1-1.4928-0.28972 4.1131 4.1131 0 0 0-1.7171-0.33159 0.31066 0.31066 0 0 0 0 0.62131z" style="stroke-width:.15533"/>
 <path d="m0.49599 14.151a3.5396 3.5396 0 0 1 1.4928 0.28972 4.1131 4.1131 0 0 0 1.7171 0.33159 4.1135 4.1135 0 0 0 1.7172-0.33159 3.479 3.479 0 0 1 1.2458-0.28395q0.18504-0.32176 0.33506-0.626c-0.029255-4.03e-4 -0.057841-0.0011-0.088139-0.0011a4.1131 4.1131 0 0 0-1.7171 0.3316 3.5397 3.5397 0 0 1-1.4928 0.28972 3.5396 3.5396 0 0 1-1.4928-0.28972 4.1131 4.1131 0 0 0-1.7171-0.33159 0.31066 0.31066 0 0 0 0 0.62131z" style="stroke-width:.15533"/>
 <path d="m19.757 13.53a4.1144 4.1144 0 0 0-1.7174 0.33159 3.5415 3.5415 0 0 1-1.4931 0.28972 3.5417 3.5417 0 0 1-1.4932-0.28972 4.1136 4.1136 0 0 0-1.7173-0.33159 4.1128 4.1128 0 0 0-1.7171 0.33159c-0.13703 0.05302-0.27162 0.10487-0.42134 0.14983 0.03723 0.19691 0.0817 0.39922 0.13422 0.60892 0.18767-0.05414 0.35064-0.11709 0.51131-0.1793a3.5407 3.5407 0 0 1 1.4929-0.28972 3.5415 3.5415 0 0 1 1.4931 0.28972 4.1144 4.1144 0 0 0 1.7174 0.33159 4.1136 4.1136 0 0 0 1.7173-0.33159 3.5417 3.5417 0 0 1 1.4932-0.28972 0.31066 0.31066 0 0 0 0-0.62131z" style="stroke-width:.15533"/>
 <path d="m5.5348 7.8915c0.29512 0.23144 0.61665 0.43647 0.92575 0.63529 0.73936 0.4753 1.4383 0.92265 1.6977 1.6573 0.25163 0.70985 0.1895 1.603-0.18484 2.653a9.9519 9.9519 0 0 1-0.76577 1.6325 4.0473 4.0473 0 0 1 1.4259 0.32308 3.5267 3.5267 0 0 0 1.4927 0.29046 4.2937 4.2937 0 0 0 0.67257-0.04815 10.071 10.071 0 0 1-0.34328-1.8655c-0.09009-1.1137 0.08077-1.9913 0.50637-2.608 0.43802-0.63529 1.2271-0.88071 2.0612-1.1401 0.35103-0.10873 0.71296-0.22056 1.0578-0.36502 1.5812-0.6648 2.5614-1.6076 2.9155-2.8037a2.7538 2.7538 0 0 0 0.10407-1.0811 1.237 1.237 0 0 0-0.0466-0.20348c-0.0047-0.015533-0.01242-0.040385-0.01709-0.060579a0.62216 0.62216 0 0 0-0.54209-0.60112 0.6768 0.6768 0 0 0-0.07921-0.00466 0.52656 0.52656 0 0 0-0.08544 0.00621 0.61388 0.61388 0 0 0-0.24697 0.09009 0.60771 0.60771 0 0 0-0.1895 0.18795 0.72645 0.72645 0 0 0-0.0466 0.083878 0.65012 0.65012 0 0 1-0.64772 0.41473 1.0997 1.0997 0 0 1-0.32152-0.046598 0.72046 0.72046 0 0 0-0.22988-0.041939 0.53856 0.53856 0 0 0-0.42404 0.20348c-0.04815 0.041939-0.32308 0.25474-0.8978 0.25474a2.9601 2.9601 0 0 1-0.66479-0.080768 3.7916 3.7916 0 0 0-0.85896-0.10096 3.4728 3.4728 0 0 0-1.6232 0.39764 3.5799 3.5799 0 0 0-2.3144-0.95216c-1.064-0.045045-1.4181-0.51724-1.4663-0.58869a0.56137 0.56137 0 0 0-0.53743-0.32929c-0.017086 0-0.035726 0.00155-0.054364 0.00311h-0.013979c-0.32619 0-0.7347-0.11028-0.82634-0.63374a0.62194 0.62194 0 0 0-0.612-0.51259 0.6556 0.6556 0 0 0-0.10873 0.0093198 0.62048 0.62048 0 0 0-0.48773 0.43492c-0.010869 0.01864-0.023299 0.040385-0.032619 0.054365a1.2365 1.2365 0 0 0-0.096303 0.18484 2.7119 2.7119 0 0 0-0.18018 1.0718c0.032619 1.2457 0.7347 2.4169 2.0861 3.4793z" style="stroke-width:.15533"/>
 <path d="m19.757 15.083c-0.0932 0-0.18018 0.0016-0.2625 0.0062a4.0597 4.0597 0 0 0-1.4554 0.32464 3.4842 3.4842 0 0 1-1.2318 0.28425c-0.08233 0.0047-0.16931 0.0062-0.26095 0.0062-0.09165 0-0.17863-0.0016-0.26095-0.0062a3.4843 3.4843 0 0 1-1.2318-0.28425 4.0513 4.0513 0 0 0-1.4554-0.32464c-0.08233-0.0047-0.16931-0.0062-0.2625-0.0062-0.0932 0-0.18018 0.0016-0.2625 0.0062a3.483 3.483 0 0 0-1.2302 0.28426 4.1099 4.1099 0 0 1-1.7164 0.33085 4.1183 4.1183 0 0 1-1.7179-0.33085 3.5378 3.5378 0 0 0-1.4927-0.29046c-0.027958 0-0.055918 0-0.083878 0.0016-0.041939 0-0.082324 0.0016-0.12116 0.0031-0.062131 0.0016-0.1196 0.0047-0.17552 0.0093a4.0257 4.0257 0 0 0-1.3358 0.31687 3.4843 3.4843 0 0 1-1.2317 0.28425c-0.082324 0.0047-0.16931 0.0062-0.26095 0.0062-0.091643 0-0.18018-0.0016-0.2625-0.0062a3.4843 3.4843 0 0 1-1.2317-0.28428 4.0416 4.0416 0 0 0-1.4539-0.32464c-0.082324-0.0047-0.16931-0.0062-0.2625-0.0062a0.31066 0.31066 0 0 0 0 0.62131 3.5378 3.5378 0 0 1 1.4927 0.29046 4.1125 4.1125 0 0 0 1.7179 0.33085 4.1098 4.1098 0 0 0 1.7164-0.33085 3.4744 3.4744 0 0 1 1.3576-0.28891c0.043492-0.0016 0.088537-0.0016 0.13514-0.0016 0.046598 0 0.093196 0 0.13669 0.0016a3.5008 3.5008 0 0 1 1.356 0.28891 4.0751 4.0751 0 0 0 1.5797 0.3293c0.045045 0.0016 0.090089 0.0016 0.13824 0.0016 0.0466 0 0.0932 0 0.13824-0.0016a4.073 4.073 0 0 0 1.5781-0.3293 3.5378 3.5378 0 0 1 1.4927-0.29046 3.5266 3.5266 0 0 1 1.4927 0.29046 4.124 4.124 0 0 0 1.7179 0.33085 4.1183 4.1183 0 0 0 1.7179-0.33085 3.5378 3.5378 0 0 1 1.4927-0.29046 0.31066 0.31066 0 0 0 0-0.62131z" style="stroke-width:.15533"/>
 <path d="m19.757 16.636a4.1144 4.1144 0 0 0-1.7174 0.33159 3.5415 3.5415 0 0 1-1.4931 0.28972 3.5417 3.5417 0 0 1-1.4932-0.28972 4.1136 4.1136 0 0 0-1.7173-0.33159 4.1128 4.1128 0 0 0-1.7171 0.33159 3.5408 3.5408 0 0 1-1.493 0.28972 3.5396 3.5396 0 0 1-1.4928-0.28972 4.1131 4.1131 0 0 0-1.7171-0.33159 4.1131 4.1131 0 0 0-1.7171 0.33159 3.5397 3.5397 0 0 1-1.4928 0.28972 3.5396 3.5396 0 0 1-1.4928-0.28972 4.1131 4.1131 0 0 0-1.7171-0.33159 0.31066 0.31066 0 0 0 0 0.62131 3.5396 3.5396 0 0 1 1.4928 0.28972 4.1131 4.1131 0 0 0 1.7171 0.33159 4.1135 4.1135 0 0 0 1.7172-0.33159 3.5396 3.5396 0 0 1 1.4928-0.28972 3.5396 3.5396 0 0 1 1.4928 0.28972 4.1131 4.1131 0 0 0 1.7171 0.33159 4.1129 4.1129 0 0 0 1.7172-0.33159 3.5407 3.5407 0 0 1 1.4929-0.28972 3.5415 3.5415 0 0 1 1.4931 0.28972 4.1144 4.1144 0 0 0 1.7174 0.33159 4.1136 4.1136 0 0 0 1.7173-0.33159 3.5417 3.5417 0 0 1 1.4932-0.28972 0.31066 0.31066 0 0 0 0-0.62131z" style="stroke-width:.15533"/>
</svg>
