<svg style="enable-background:new 0 0 100 100" version="1.1" viewBox="0 0 100 100" xml:space="preserve" xmlns="http://www.w3.org/2000/svg"><path d="m82.328 2.7182v11.532h-4.459v-11.532c0-1.2685 1.0033-2.3064 2.2295-2.3064s2.2295 1.0379 2.2295 2.3064zm-60.196 0c0-1.2685-1.0033-2.3064-2.2295-2.3064s-2.2295 1.0379-2.2295 2.3064v11.532h4.459zm11.147 41.516h8.9179v-9.2257c0-8.8798-7.0229-16.145-15.606-16.145h-8.9179v9.2257c0 8.8798 7.0229 16.145 15.606 16.145zm24.524-9.2257v9.2257h8.9179c8.5835 0 15.606-7.2653 15.606-16.145v-9.2257h-8.9179c-8.5835 0-15.606 7.2653-15.606 16.145zm-4.459 2.3064h-6.6885v6.9193h6.6885zm-48.714 28.715c-0.66885 1.0379-0.33442 2.5371 0.66885 3.229l5.9081 3.8056-5.9081 3.8056c-1.0033 0.69193-1.3377 2.0758-0.66885 3.229 0.4459 0.69193 1.1147 1.0379 1.8951 1.0379 0.4459 0 0.78032-0.11532 1.2262-0.34596l5.4622-3.575v-8.3031l-5.4622-3.575c-1.1147-0.69193-2.4524-0.34596-3.1213 0.69193zm90.071 10.84-5.9081-3.8056 5.9081-3.8056c1.0033-0.69193 1.3377-2.0758 0.66885-3.229-0.66885-1.0379-2.0065-1.3839-3.1213-0.69193l-5.4622 3.575v8.3031l5.4622 3.575c0.33442 0.23064 0.78032 0.34596 1.2262 0.34596 0.78032 0 1.4492-0.34596 1.8951-1.0379 0.66885-1.1532 0.33442-2.5371-0.66885-3.229zm-77.029-0.34596h4.459c12.82 0 23.298 10.148 24.413 23.064h6.9114c1.1147-12.916 11.593-23.064 24.413-23.064h4.459v-6.9193h-64.655z" style="fill:#000000;stroke-width:1.1338"/></svg>
