<svg version="1.1" viewBox="0 0 20 20" xmlns="http://www.w3.org/2000/svg">
 <path d="m4.1013 15.603h11.718c1.8514-1.6287 3.0226-4.0134 3.0226-6.6673 0-1.315-0.28826-2.5638-0.80365-3.6876l-0.85679 1.4996-1.4085-2.4657-2.4655-1.4085 1.9099-1.0909c-1.4731-1.0855-3.2911-1.7282-5.2568-1.7282-4.8968 0-8.8813 3.9845-8.8813 8.8813 0 2.6537 1.171 5.0386 3.0224 6.6673zm13.633-4.4276-0.70477 0.40212-0.40212 0.70476-0.40232-0.70476-0.70456-0.40212 0.70456-0.40212 0.40232-0.70476 0.40212 0.70476zm-4.9813-6.6415 1.4085 2.4657 2.4659 1.4085-2.4659 1.4085-1.4085 2.4657-1.4085-2.4657-2.4657-1.4085 2.4657-1.4085zm-2.7671-1.1069 0.40212 0.70477 0.70476 0.40212-0.70476 0.40232-0.40212 0.70477-0.40212-0.70477-0.70477-0.40232 0.70477-0.40212zm-0.025969-1.7122v1.1069c-3.3716 0-6.114 2.743-6.114 6.114h-1.1069c0-3.9819 3.2396-7.2208 7.2208-7.2208zm6.6242 1.7559-1.0464-0.59729 1.0464-0.59709 0.59649-1.0454 0.59689 1.0454 1.0462 0.59709-1.0462 0.59729-0.59689 1.0454zm-13.24 15.453h13.283v1.1069h-13.283zm1.1069-1.1069v-1.1069h11.069v1.1069zm6.6589-9.4089 1.0464-0.59729 0.59649-1.0454 0.59669 1.0454 1.0464 0.59729-1.0464 0.59709-0.59669 1.0454-0.59649-1.0454z" fill="#f0f" stroke-width=".19976"/>
</svg>
