<svg version="1.1" viewBox="0 0 20 20" xmlns="http://www.w3.org/2000/svg">
 <g>
  <path d="m6.088 14.881c-0.10915-0.10526-0.25744-0.17065-0.42079-0.17065h-3.6834v-9.494c0-0.33571-0.27202-0.60773-0.60773-0.60773s-0.60773 0.27202-0.60773 0.60773v14.06c0 0.33571 0.27202 0.60773 0.60773 0.60773s0.60773-0.27202 0.60773-0.60773v-3.3501h3.2203v3.3503c0 0.33571 0.27202 0.60773 0.60773 0.60773s0.60773-0.27202 0.60773-0.60773v-3.8567c0-0.2358-0.13565-0.43781-0.33158-0.53845z" style="stroke-width:.24309"/>
  <circle cx="3.9097" cy="3.652" r="1.6144" style="stroke-width:.24309"/>
  <path d="m7.9572 11.735h-2.7484v-1.0604c0.054939 0.0068 0.10988 0.01094 0.1653 0.01094 0.28879 0 0.57978-0.09311 0.82433-0.28515 0.58124-0.4558 0.68261-1.2964 0.22681-1.8772l-1.2206-1.5558c-0.045702-0.76429-0.67823-1.3706-1.4539-1.3706-0.80537 0-1.4586 0.65319-1.4586 1.4586v6.1381c0 0.80537 0.65319 1.4586 1.4586 1.4586h2.7487v3.7487c0 0.80537 0.65319 1.4586 1.4586 1.4586 0.80537 0 1.4586-0.65319 1.4586-1.4586v-5.2073c-7.293e-4 -0.80561-0.65368-1.4586-1.4593-1.4586z" style="stroke-width:.24309"/>
  <path d="m18.896 4.6088c-0.33571 0-0.60773 0.27202-0.60773 0.60773v9.4938h-3.6831c-0.33571 0-0.60773 0.27202-0.60773 0.60773 0 0.33571 0.27202 0.60773 0.60773 0.60773h3.6831v3.3503c0 0.33571 0.27202 0.60773 0.60773 0.60773s0.60773-0.27202 0.60773-0.60773v-14.06c0-0.33547-0.27202-0.60773-0.60773-0.60773z" style="stroke-width:.24309"/>
  <line x1="14.461" x2="14.461" y1="15.42" y2="19.276" stroke-miterlimit="10" style="fill:none;stroke-linecap:round;stroke-miterlimit:10;stroke-width:1.2155;stroke:#000000"/>
  <circle cx="16.363" cy="3.652" r="1.6144" style="stroke-width:.24309"/>
  <path d="m16.523 5.597c-0.77571 0-1.4082 0.60627-1.4539 1.3706l-1.2206 1.5558c-0.4558 0.58099-0.35443 1.4214 0.22681 1.8772 0.2448 0.19204 0.53554 0.28515 0.82433 0.28515 0.05542 0 0.11036-0.0044 0.1653-0.01094v1.0604h-2.7491c-0.80537 0-1.4586 0.65319-1.4586 1.4586v5.2073c0 0.80537 0.65319 1.4586 1.4586 1.4586 0.80537 0 1.4586-0.65319 1.4586-1.4586v-3.7487h2.7487c0.80537 0 1.4586-0.65319 1.4586-1.4586v-6.1381c0-0.80537-0.65319-1.4586-1.4586-1.4586z" style="stroke-width:.24309"/>
 </g>
</svg>
