<svg version="1.1" viewBox="0 0 20 20" xmlns="http://www.w3.org/2000/svg">
 <path d="m20.099 9.1462c-0.1273-0.19095 0.14852 0.16973 0 0-0.14852-0.21216-0.40312-0.33946-0.55163-0.55163-0.19095-0.23338-0.23338-0.5092-0.36068-0.78501-0.23338-0.46676-0.6365-0.93353-0.99718-1.273 0 0 0.46676-1.082 0.36068-1.1457-0.14852-0.14852-0.67893 0.46676-0.67893 0.46676 0.31825-1.1033-0.82744-0.06365-1.1033 0.21217 0.02121-0.06365 0.02121-0.1273 0.04244-0.19095-0.02121 0.021216-0.04244 0.063649-0.06365 0.084867 0-0.042433 0-0.10608 0.02121-0.14852-0.02121 0.021216-0.04243 0.042433-0.08487 0.063649 0.02121-0.042433 0.02121-0.084867 0.02121-0.1273-0.04243 0.042433-0.06365 0.06365-0.10608 0.10608v-0.1273c-0.04244 0.042433-0.08487 0.063649-0.10608 0.10608 0-0.063649 0.02121-0.14852 0.04244-0.21217-0.06365 0.063649-0.10608 0.10608-0.16973 0.16973 0-0.063649 0.02121-0.14852 0.04244-0.21217-0.04244 0.063649-0.10608 0.10608-0.14852 0.16973v-0.19095c-0.04243 0.042433-0.21216 0.14852-0.2546 0.19095 0-0.042433-0.02121-0.10608-0.02121-0.14852-0.04244 0.042433-0.06365 0.084867-0.1273 0.1273 0-0.063649 0-0.1273-0.04243-0.14852-0.02121 0.021216-0.08487 0.084867-0.08487 0.084867l-0.02121-0.14852-0.10608 0.06365s-0.02121-0.084867-0.04243-0.1273c-0.02121 0.021216-0.06365 0.06365-0.08487 0.084866v-0.042433c-0.04243 0.021216-0.04243 0.021216-0.08487 0.021216 0-0.084866 0.04243-0.19095-0.14852-0.06365 0.02121-0.042433 0.04244-0.084866 0.06365-0.10608-0.08487 0.021216-0.16973 0.042433-0.23338 0.06365 0.02121-0.06365 0.04243-0.10608 0.08487-0.14852-0.08487 0.042433-0.14852 0.063649-0.23338 0.10608 0.02121-0.042433 0.02121-0.084867 0.04243-0.1273-0.06365 0.042433-0.1273 0.063649-0.19095 0.10608 0-0.042433 0.02121-0.084867 0.04244-0.1273-0.08487 0.042433-0.16973 0.084867-0.2546 0.1273 0-0.021216 0.04244-0.1273 0.04244-0.14852-0.04244 0.021216-0.1273 0.1273-0.19095 0.1273 0.02121-0.063649 0.04243-0.1273 0.06365-0.19095-0.04243 0.042433-0.08487 0.084867-0.10608 0.1273 0.02121-0.06365 0.04244-0.14852 0.04244-0.21217-0.06365 0.042433-0.1273 0.084867-0.16973 0.1273 0.02121-0.084867 0.02121-0.14852 0.04244-0.23338-0.06365 0.042433-0.14852 0.10608-0.21216 0.16973 0.02121-0.063649 0.04243-0.1273 0.06365-0.16973-0.06365 0.063649-0.1273 0.1273-0.16973 0.19095 0.04243-0.1273 0.06365-0.27582 0.06365-0.40311-0.04243 0.1273-0.1273 0.23338-0.19095 0.33946 0.02121-0.10608 0.04243-0.19095 0.02121-0.31825-0.08487 0.063649-0.16973 0.14852-0.23338 0.23338 0-0.084867 0.02121-0.19095 0.02121-0.27582-0.04244 0.063649-0.04244 0.084867-0.1273 0.10608v-0.19095c-0.02121 0.021216-0.10608 0.16973-0.1273 0.19095 0.02121-0.14852 0.04244-0.31825 0.02121-0.46676-0.08487 0.10608-0.14852 0.21217-0.21217 0.33946 0-0.06365 0.02121-0.14852 0.04243-0.21217-0.06365 0.084867-0.1273 0.14852-0.19095 0.23338 0.02121-0.10608 0.02121-0.21217 0.02121-0.29703-0.06365 0.084867-0.14852 0.14852-0.19095 0.2546v-0.2546c-0.06365 0.042433-0.10608 0.10608-0.14852 0.14852v-0.23338c-0.06365 0.084867-0.10608 0.16973-0.16973 0.2546 0-0.084867-0.02121-0.16973 0-0.2546-0.04244 0.084867-0.08487 0.16973-0.1273 0.2546v-0.21217c0 0.06365-0.02121 0.10608-0.04243 0.16973 0-0.1273-0.04243-0.2546-0.1273-0.33946-0.02121 0.1273-0.04244 0.27581-0.08487 0.40311 0-0.14852-0.04243-0.29703-0.10608-0.42433 0 0.1273-0.02121 0.23338-0.06365 0.33946-0.02121-0.1273-0.04243-0.23338-0.08487-0.33946 0 0.10608-0.02122 0.21217-0.02122 0.31825-0.04243-0.16973-0.14852-0.31825-0.27581-0.42433 0.02121 0.14852 0.04243 0.29703 0.04243 0.44555-0.04243-0.19095-0.10608-0.36068-0.21217-0.5092 0 0.1273 0.02121 0.23338 0.02121 0.36068-0.06365-0.10608-0.14852-0.16973-0.2546-0.23338 0 0.084867 0 0.19095 0.02121 0.27582-0.06365-0.042433-0.1273-0.084867-0.19095-0.1273v0.19095c0-0.042433-0.2546-0.1273-0.27582-0.1273 0.02121 0.063649 0.02121 0.14852 0.02121 0.23338-0.08487-0.042433-0.16973-0.10608-0.2546-0.14852v0.19095c-0.04243-0.021216-0.08487-0.042433-0.1273-0.063649v0.23338c-0.06365-0.021216-0.1273-0.042433-0.19095-0.084867 0 0.06365 0 0.10608-0.02121 0.16973-0.08483-0.042435-0.19091-0.10608-0.27578-0.16973 0.021216 0.042433 0.021216 0.10608 0.021216 0.14852-0.063649-0.021216-0.14852-0.084867-0.21217-0.1273 0.021216 0.063649 0.021216 0.1273 0.021216 0.21217l-0.063649-0.063649v0.1273c-0.042434-0.042434-0.084867-0.084867-0.1273-0.10608-0.021216 0.042433-0.021216 0.084867-0.042433 0.1273-0.084867-0.042433-0.16973-0.10608-0.2546-0.14852 0 0.084866 0.021216 0.16973 0.042433 0.2546-0.063649-0.042433-0.1273-0.084867-0.19095-0.1273 0 0.10608-0.021216 0.21217-0.084866 0.27582-0.021216-0.021216-0.2546-0.1273-0.2546-0.1273v0.1273c-0.21217 0-0.44555-0.021216-0.65771-0.063649 0.042433 0.021216 0.084867 0.063649 0.1273 0.10608-0.1273 0.021216-0.2546 0.021216-0.3819-0.042433 0.042433 0.042433 0.084867 0.084867 0.1273 0.10608-0.10611 0.042434-0.29706-0.042432-0.40314-0.063649 0.042433 0.063649 0.063649 0.1273 0.10608 0.19095-0.16973 0-0.31825-0.042433-0.46676-0.10608 0.021216 0.042433 0.042433 0.084866 0.063649 0.1273-0.063649-0.021216-0.14852-0.063649-0.21217-0.084866 0 0.021216 0.084866 0.10608 0.084866 0.10608h-0.40311s0.042433 0.084867 0.063649 0.10608c-0.14852 0.042433-0.42433-0.042433-0.42433-0.042433s0.021216 0.10608 0.042433 0.10608c-0.084867 0.042433-0.40311-0.063649-0.40311-0.063649l-0.021216 0.19095-0.31825-0.06365c-0.1273 0.36068-0.86988 0.42433-1.1669 0.53041-0.61528 0.14852-1.2518 0.5092-1.6761 1.0396-0.57285 0.48798-1.1881 0.93353-1.4427 1.6761-0.19095 0.5092-0.27582 1.0608-0.23338 1.6125 0.021216 0.42433 0.14852 0.78501 0.27582 1.1881l-0.042433-0.53041v-0.19095l0.10608 0.36068 0.042433-0.59406 0.10608 0.3819v-0.61528l0.14852 0.5092-0.042433-0.61528 0.021216-0.02121 0.084867 0.31825v-0.57285l0.10608 0.29703s-0.042433-0.61528-0.042433-0.61528l0.042433 0.10608 0.084867 0.31825-0.042433-0.61528 0.10608 0.2546-0.042433-0.53041s0.1273 0.23338 0.1273 0.23338c0-0.29703-0.042433-0.57285 0.021216-0.86988 0.021216-0.14852 0.063649-0.27582 0.10608-0.42433l0.084866-0.14852c-0.21217 1.0396 0.27582 2.1853-0.21217 3.0976-0.19095 0.36068-0.48798 0.7638-0.78501 1.0396-0.23338 0.21217-0.61528 0.27582-0.80623 0.5092-0.42433 0.5092-0.27582 1.6761-0.40311 2.3126-0.042433 0.27582-0.29703 0.80623-0.21217 1.0608 0.084866 0.27582 0.10608 0.21217 0.44555 0.21217 0.16973 0 0.74258 0.06365 0.89109-0.06365 0.36068-0.33946-0.14851-0.40311-0.27581-0.59406-0.33946-0.44555-0.084866-1.3579 0.23338-1.761 0.61528-0.80623 1.6125-1.2093 2.3763-1.8034 0.53041-0.40311 0.84866-0.93353 1.2306-1.4852 0.14852 0.59406 0.36068 1.1881 0.59406 1.761 0.10608 0.27582 0.2546 0.57285 0.31825 0.86988 0.063649 0.33946 0.021216 0.6365 0.21217 0.93353 0.36068 0.55163 1.082 0.91231 1.4852 1.4427 0.40311 0.53041 0.40311 0.74258 1.082 0.57285 0.3819-0.08487 1.0184-0.55163 0.53041-0.80623-0.33947-0.16974-0.72136-0.12731-1.0608-0.38191-0.33946-0.21217-0.61528-0.5092-0.80623-0.84866-0.5092-0.84866-0.46676-2.0156-0.48798-2.9703 1.1033 0.19095 1.9519-0.23338 2.9067-0.78501 0.19095 1.2942-0.021216 2.6096 0.042433 3.9038 0.021216 0.5092-0.021216 1.0184 0 1.5276 0.021216 0.6365 0.10608 0.61528 0.70015 0.6365 0.27582 0 1.273 0.14852 1.0608-0.33946-0.1273-0.31825-0.57285-0.21216-0.78501-0.33946-0.14852-0.10608-0.19095-0.31825-0.2546-0.5092-0.16973-0.70015 0.16973-1.5064 0.2546-2.2277 0.06365-0.55163 0.16973-1.082 0.29703-1.6125 0.53041 0.55163 1.9307 1.0184 2.1217 1.8458 0.16973 0.7638-0.93353 1.6549-0.53041 2.249 0.14852 0.23338 0.7638 0.48798 0.93353 0.29703 0.16973-0.16973 0.1273-0.80623 0.16973-1.0608 0.1273-0.99718 0.65771-1.8458-0.21216-2.6309-0.3819-0.33946-0.84866-0.61528-1.1033-1.082-0.33946-0.55163-0.10608-0.78501 0.2546-1.2093 0.23338-0.27582 0.48798-0.80623 0.80623-0.97596 0.23338-0.1273 0.70015-0.04243 0.95474-0.04243 0.86988 0 2.1853-0.23338 2.9915 0.10608 0.61528 0.2546 1.2093 0.91231 1.9307 0.55163 0.42433 0.10608 1.0184-0.19095 0.7638-0.53041z" style="stroke-width:.21217"/>
</svg>
