<svg version="1.1" viewBox="0 0 20 20" xmlns="http://www.w3.org/2000/svg">
 <path d="m18.347 14.331c-1.4548-0.02246-1.9186-0.33325-2.0655-0.51644-0.10404-0.12917-0.08381-0.23343-0.08381-0.23454l0.0045-0.03379c0-0.19453 0.26055-0.54423 0.56224-0.94929 0.68251-0.91616 1.7141-2.3007 1.7141-4.2667 0-2.9495-1.7616-5.3494-3.927-5.3494-2.1654 0-3.927 2.3999-3.927 5.3494 0 1.9662 1.0313 3.3505 1.7141 4.2667 0.30168 0.40506 0.56224 0.75476 0.56224 0.94929l0.0035 0.03045c8.9e-4 0.0045 0.0209 0.10871-0.08315 0.23788-0.14695 0.18319-0.6107 0.49398-2.0655 0.51644-0.17607 0.0027-0.4642 0.01027-0.73964 0.10049-0.27546-0.090482-0.56358-0.097816-0.73988-0.10049-1.4546-0.022457-1.9186-0.33325-2.0655-0.51644-0.1036-0.12917-0.083813-0.23343-0.083813-0.23454l0.00445-0.03379c0-0.19453 0.26055-0.54423 0.56224-0.94929 0.68251-0.91616 1.7138-2.3007 1.7138-4.2667 0-2.9495-1.7616-5.3494-3.9268-5.3494-2.1651 0-3.9263 2.3999-3.9263 5.3494 0 1.9662 1.0313 3.3505 1.7138 4.2667 0.3019 0.40506 0.56224 0.75476 0.56224 0.94929l0.00356 0.03068c8.893e-4 0.0043 0.020898 0.10849-0.082924 0.23766-0.14695 0.18319-0.6107 0.49398-2.0655 0.51644-0.50065 0.0078-1.6734 0.02668-1.6734 1.7634v0.13339h20.008v-0.13338c0-1.737-1.1727-1.7556-1.6734-1.7634zm-9.2621 1.63h-8.8037c0.052022-1.3417 0.89704-1.355 1.4084-1.363 1.2098-0.018671 1.9777-0.23165 2.2821-0.63249 0.14873-0.19586 0.13539-0.37305 0.12494-0.43307-0.0084481-0.28056-0.26367-0.62315-0.61493-1.0947-0.66139-0.88793-1.6609-2.2298-1.6609-4.1073 0-2.8025 1.6418-5.0826 3.66-5.0826s3.66 2.2801 3.66 5.0826c0 1.8775-0.99953 3.2194-1.6609 4.1073-0.35126 0.47153-0.60648 0.81412-0.61493 1.0947-0.010449 0.06003-0.023788 0.23699 0.12494 0.43307 0.30435 0.40106 1.0722 0.61381 2.2821 0.63249 0.12183 0.0018 0.24766 0.0058 0.37327 0.02156-0.34948 0.26322-0.53734 0.71252-0.56024 1.3415zm0.39772-0.68273v0.68273h-0.12805c0.010671-0.269 0.053134-0.49621 0.12805-0.68273zm0.26678-0.39861c0.040906-0.03646 0.086036-0.06825 0.13339-0.09715v1.1785h-0.13339zm0.40017-0.09715c0.04735 0.0289 0.09248 0.06069 0.13339 0.09715v1.0813h-0.13339zm0.40017 1.1785v-0.68273c0.07492 0.18652 0.11738 0.41373 0.12805 0.68273z" style="stroke-width:.22232"/>
</svg>
