<svg version="1.1" viewBox="0 0 20 20" xmlns="http://www.w3.org/2000/svg">
 <g>
  <path d="m0.75751 3.43v8.75h5.3125v-1.25h-2.5v-0.3125c0-0.6875-0.5625-1.25-1.25-1.25h-0.3125v-3.125h0.3125c0.6875 0 1.25-0.5625 1.25-1.25v-0.3125h7.5v0.3125c0 0.6875 0.5625 1.25 1.25 1.25h0.3125v1.5625h1.25v-4.375z" style="stroke-width:.3125"/>
  <path d="m10.476 5.305h-6.3125c-0.125 0.78125-0.75 1.4062-1.5312 1.5312v1.9375c0.78125 0.125 1.4062 0.75 1.5312 1.5313h1.9062v-2.5h5.9375v-0.96875c-0.78125-0.125-1.4062-0.75-1.5312-1.5312z" style="stroke-width:.3125"/>
  <path d="m18.258 6.555h-3.75v0.625h3.75c0.34375 0 0.625 0.28125 0.625 0.625s-0.28125 0.625-0.625 0.625h-11.562v8.75h11.562c0.6875 0 1.25-0.5625 1.25-1.25v-8.125c0-0.6875-0.5625-1.25-1.25-1.25zm-9.375 7.1875c-0.53125 0-0.9375-0.40625-0.9375-0.9375s0.40625-0.9375 0.9375-0.9375 0.9375 0.40625 0.9375 0.9375-0.40625 0.9375-0.9375 0.9375z" style="stroke-width:.3125"/>
 </g>
</svg>
