<svg version="1.1" viewBox="0 0 20 20" xmlns="http://www.w3.org/2000/svg">
 <g fill="#8a6f91">
  <g stroke-width=".19506">
   <path d="m16.466 2.1263-2.4896-0.5518-0.14844-0.45775c-0.041519-0.12803-0.17912-0.19824-0.30715-0.15672l-0.94054 0.30501-5.5044-1.2202c-0.17296-0.03824-0.35276 0.020066-0.47036 0.15253l-3.7409 4.2183-0.94054 0.30501c-0.12803 0.041519-0.19824 0.17912-0.15672 0.30715l0.14844 0.45775-1.6919 1.9078c-0.11456 0.12922-0.15224 0.30959-0.098926 0.47399l3.0086 9.2774c0.083097 0.25624 0.35806 0.39654 0.6143 0.31344l15.772-5.1146c0.25624-0.0831 0.39654-0.35806 0.31344-0.6143l-3.0086-9.2774c-0.053313-0.1644-0.18967-0.28832-0.35826-0.32572zm-2.1405 0.52456 1.5077 0.33418-0.99246 1.2547zm-7.1807-1.5917 3.6056 0.79932-6.0559 1.9639zm-4.8384 4.0503 11.133-3.6103 1.0378 3.2003-4.363 5.5161-6.7699-1.9058zm-0.041586 1.4526 0.51525 1.5888-1.5399-0.43345zm16.49 5.0044-14.844 4.8137-2.6424-8.1483 8.8701 2.4971c0.09478 0.02668 0.19627-0.0062 0.25736-0.08346l5.7164-7.2274z"/>
   <path d="m3.9176 6.1249 8.8135-2.8581c0.12803-0.041519 0.19824-0.17912 0.15672-0.30715-0.041519-0.12803-0.17912-0.19824-0.30715-0.15672l-8.8135 2.8581c-0.12803 0.041519-0.19824 0.17912-0.15672 0.30715 0.041519 0.12803 0.17912 0.19824 0.30715 0.15672z"/>
   <path d="m4.2185 7.0526 8.8135-2.8581c0.12803-0.041519 0.19824-0.17912 0.15672-0.30715-0.041519-0.12803-0.17912-0.19824-0.30715-0.15672l-8.8135 2.8581c-0.12803 0.041519-0.19824 0.17912-0.15672 0.30715 0.041519 0.12803 0.17912 0.19824 0.30715 0.15672z"/>
   <path d="m11.17 5.5672c-0.04152-0.12803-0.17912-0.19824-0.30715-0.15672l-6.4942 2.106c-0.12803 0.041519-0.19824 0.17912-0.15672 0.30715 0.041519 0.12803 0.17912 0.19824 0.30715 0.15672l6.4942-2.106c0.12803-0.041519 0.19824-0.17912 0.15672-0.30715z"/>
  </g>
  <polygon transform="matrix(.11137 -.24439 .24439 .11137 -4.7965 19.647)" points="43.343 79.156 45 80.333 46.657 79.156 46.657 78.698 43.343 78.698"/>
  <g stroke-width=".26857">
   <rect transform="rotate(-65.5)" x="-8.5177" y="20.889" width="1.4735" height="3.4925"/>
   <path d="m13.342 16.883 1.699-3.7281c-0.59302-0.29926-1.2003-0.59317-1.8136-0.87266-6.0613-2.7623-10.288-3.3504-10.65-2.5561-0.36197 0.79427 2.8548 3.5983 8.9161 6.3606 0.61328 0.27948 1.2335 0.545 1.8484 0.79621z"/>
   <path d="m13.127 18.651c-0.20695 0.46993 0.0026 1.0221 0.47131 1.2357 0.47206 0.21513 1.0314 6e-3 1.2466-0.46619 0.17458-0.38308 0.06941-0.82564-0.24042-1.0941l-0.19624 0.43062c-0.06151 0.13498-0.22068 0.19458-0.35577 0.13302-0.13507-0.06155-0.19453-0.22079-0.13302-0.35577l2.7467-6.0272c0.0615-0.13495 0.2207-0.19457 0.35577-0.13302 0.13508 0.06156 0.19452 0.22082 0.13302 0.35577l-0.19624 0.43062c0.40587 0.05769 0.80886-0.15326 0.98344-0.53634 0.2152-0.47221 6e-3 -1.0316-0.46602-1.2467-0.46873-0.21361-1.023-0.0094-1.2419 0.45521-0.0049 0.0152-0.01068 0.02727-0.01871 0.04105l-3.0699 6.7363c-0.0053 0.01544-0.01074 0.02739-0.01869 0.04102z"/>
  </g>
 </g>
</svg>
