<svg version="1.1" viewBox="0 0 20 20" xmlns="http://www.w3.org/2000/svg">
 <path d="m19.72 18.518-8.7111-8.7111 0.54697-0.54697c0.32175-0.32257 0.32175-0.84479 0-1.1665l-0.29535-0.29535c0.50407-0.2574 1.7902-0.32422 3.498 0.29782 0.23017 0.083324 0.4884 0.060225 0.70042-0.06435 0.21202-0.12457 0.35805-0.33742 0.396-0.5808 0.02145-0.12787 0.47932-3.1688-1.8133-5.4606-2.2902-2.291-5.3319-1.8331-5.4598-1.8133-0.24337 0.038775-0.45622 0.1848-0.5808 0.39682s-0.1485 0.4686-0.063524 0.69959c0.65669 1.8067 0.71692 3.1977 0.5148 3.7166l-0.2871-0.2871c-0.15427-0.1551-0.36382-0.24172-0.58327-0.24172-0.21945 0-0.42817 0.086624-0.58327 0.24172l-2.2605 2.2605c-0.1551 0.1551-0.24172 0.36465-0.24172 0.58327s0.086624 0.429 0.24172 0.58327l0.2871 0.2871c-0.51892 0.20212-1.9082 0.1419-3.7158-0.51562-0.23017-0.084149-0.4884-0.060224-0.70042 0.063524-0.21202 0.1254-0.35805 0.33825-0.39682 0.5808-0.020625 0.12787-0.4785 3.1688 1.8142 5.4606 1.6129 1.6137 3.5961 1.8645 4.6752 1.8645 0.45375 0 0.74662-0.04455 0.78457-0.05115 0.24337-0.03878 0.45622-0.18397 0.5808-0.396s0.1485-0.4686 0.063525-0.70042c-0.6204-1.7077-0.5544-2.9947-0.297-3.498l0.29535 0.29535c0.1617 0.16087 0.37207 0.24172 0.58327 0.24172 0.2112 0 0.4224-0.08085 0.58327-0.24172l0.54697-0.54697 8.7111 8.7111c0.16087 0.16087 0.37207 0.24172 0.58327 0.24172 0.2112 0 0.4224-0.08085 0.58327-0.24172 0.32257-0.32257 0.32257-0.84397 0-1.1665" fill="#f00" fill-rule="evenodd"/>
</svg>
