<svg version="1.1" viewBox="0 0 20 20" xmlns="http://www.w3.org/2000/svg">
 <g fill="#fca" stroke-width=".30338" style="fill:#000000">
  <path d="m19.042 17.204h-4.402v2.9124h5.1331c0.16685 0 0.30338-0.1365 0.30338-0.30338v-1.5715c0-0.57339-0.46416-1.0376-1.0345-1.0376z" style="fill:#000000"/>
  <path d="m13.73 17.204h-6.8564c-0.16685 0-0.30338 0.13654-0.30338 0.30338v2.3057c0 0.16687 0.13652 0.30338 0.30338 0.30338h6.8564c0.16685 0 0.30338-0.1365 0.30338-0.30338v-2.3057c0-0.16684-0.13652-0.30338-0.30338-0.30338z" style="fill:#000000"/>
  <path d="m0.053541 18.242v1.5715c0 0.16687 0.13349 0.30338 0.30338 0.30338h5.6064v-2.9124h-4.8783c-0.56732 0-1.0315 0.46418-1.0315 1.0376z" style="fill:#000000"/>
  <path d="m13.561 12.383c0-0.18558 0.13569-0.336 0.30338-0.336s0.30338 0.15043 0.30338 0.336v1.9143h1.8342v-3.8362h-3.4009v3.8362h0.95989z" style="fill:#000000"/>
  <path d="m17.895 16.024c0-0.61587-0.50058-1.1194-1.1164-1.1194h-3.3948v1.6928h4.5112z" style="fill:#000000"/>
  <path d="m7.4499 14.298v-3.8362h-3.4039v3.8362h1.8341v-1.9143c0-0.18558 0.13569-0.336 0.30338-0.336s0.30338 0.15043 0.30338 0.336v1.9143z" style="fill:#000000"/>
  <path d="m7.2224 14.905h-3.8741c-0.61585 0-1.1164 0.50358-1.1164 1.1194v0.57339h4.9906z" style="fill:#000000"/>
  <path d="m10.026 11.947c-0.73721 0-1.3379 0.60068-1.3379 1.3379v1.0133h2.6758v-1.0133c0-0.73719-0.6007-1.3379-1.3379-1.3379z" style="fill:#000000"/>
  <path d="m7.8291 15.208v1.3895h4.9481v-1.3895c0-0.12136-0.07281-0.22753-0.17596-0.27305-0.03944-0.02122-0.0819-0.03033-0.12741-0.03033h-4.3413c-0.16989 0-0.30338 0.1365-0.30338 0.30338z" style="fill:#000000"/>
  <path d="m2.6444 8.7369h1.4016v1.1179h3.4039v-1.1179h5.1514v1.1179h3.4009v-1.1179h1.4016c0.11832 0 0.22753-0.06979 0.27607-0.179 0.04855-0.10618 0.03035-0.23361-0.0455-0.32462l-2.4209-2.8153c-0.057643-0.066752-0.1426-0.10619-0.23057-0.10619h-0.92228v-1.793h1.6382c0.11225 0 0.2154-0.063716 0.26697-0.1608 0.05461-0.097065 0.04853-0.21842-0.01215-0.31247l-1.8627-2.8154c-0.057643-0.084936-0.15169-0.13651-0.25181-0.13651h-7.6269c-0.10314 0-0.19718 0.051569-0.25179 0.13651l-1.8627 2.8154c-0.060679 0.094047-0.066753 0.2154-0.015166 0.31247 0.054606 0.097083 0.15471 0.1608 0.26696 0.1608h1.6382v1.793h-0.92226c-0.087991 0-0.17293 0.039441-0.23057 0.10619l-2.421 2.8153c-0.075845 0.091009-0.094046 0.21844-0.045514 0.32462 0.051569 0.10921 0.15776 0.179 0.27607 0.179zm5.5427-5.2181h3.6769v1.793h-3.6769z" style="fill:#000000"/>
 </g>
</svg>
