<svg version="1.1" viewBox="0 0 20 20" xmlns="http://www.w3.org/2000/svg">
 <path d="m3.6726 12.548c-2.0712 0-3.75 1.679-3.75 3.75s1.6788 3.75 3.75 3.75c2.0712 0 3.75-1.679 3.75-3.75s-1.6788-3.75-3.75-3.75zm0 5c-0.69 0-1.25-0.55975-1.25-1.25s0.56-1.25 1.25-1.25 1.25 0.55975 1.25 1.25-0.56 1.25-1.25 1.25z" style="stroke-width:.25"/>
 <path d="m17.423 15.048c-1.3802 0-2.5 1.119-2.5 2.5s1.1198 2.5 2.5 2.5 2.5-1.119 2.5-2.5-1.1198-2.5-2.5-2.5zm0 3.3332c-0.45975 0-0.83325-0.3725-0.83325-0.83325s0.3735-0.83325 0.83325-0.83325 0.83325 0.3725 0.83325 0.83325-0.3735 0.83325-0.83325 0.83325z" style="stroke-width:.25"/>
 <polygon transform="matrix(.25 0 0 .25 -2.5774 -2.4518)" points="53.333 45.677 76.667 50.481 76.667 36.667 53.333 36.667"/>
 <path d="m-0.077373 6.715v6.2875c0.917-1.0428 2.2563-1.7042 3.75-1.7042 2.7572 0 5 2.243 5 5 0 0.744-0.1675 1.4485-0.4605 2.0832h5.4605v-0.83325c0-2.0678 1.6822-3.75 3.75-3.75 0.9635 0 1.8352 0.376 2.5 0.97475v-1.3915c0-0.6875-0.551-1.363-1.224-1.5022l-12.555-2.5845-1.784-8.0257c-0.14875-0.67225-0.83325-1.2208-1.5208-1.2208h-2.9167v1.6668h2.8295l0.741 3.3332h-1.904c-0.9165 0-1.6665 0.75025-1.6665 1.6668z" style="stroke-width:.25"/>
</svg>
