<svg version="1.1" viewBox="0 0 20 20" xmlns="http://www.w3.org/2000/svg">
 <g>
  <g transform="matrix(.37855 0 0 .37855 .14277 .10972)">
   <path d="m49.989 45.109-21.732-21.732-3.7189 1.1509-1.1558 3.7344 21.727 21.727c0.65997 0.65002 1.52 1.01 2.44 1.01s1.78-0.35998 2.43-1.01c0.65997-0.64996 1.02-1.51 1.02-2.43s-0.36005-1.79-1.01-2.45z"/>
   <path d="m33.389 19.109c0.06-0.38-0.09998-0.76001-0.40997-0.97998l-8.34-5.9 0.12-10.22c0-0.38-0.20996-0.72998-0.54999-0.90002-0.32996-0.16998-0.73999-0.14001-1.05 0.090027l-8.19 6.1-9.67-3.28c-0.35999-0.11999-0.76001-0.030029-1.03 0.23999-0.26996 0.27002-0.35999 0.66998-0.23999 1.03l3.28 9.67-6.11 8.2c-0.22998 0.31-0.25995 0.72003-0.089966 1.05 0.16998 0.33997 0.48999 0.51996 0.89996 0.54999l10.23-0.13 5.9 8.34c0.19 0.27002 0.5 0.42004 0.82001 0.42004 0.04999 0 0.10004 0 0.16003-0.01001 0.37-0.06 0.67999-0.33002 0.79999-0.69l3.02-9.76 9.7599-3.02c0.36005-0.12 0.63-0.42999 0.69-0.79999z"/>
  </g>
 </g>
</svg>
