<svg version="1.1" viewBox="0 0 20 20" xmlns="http://www.w3.org/2000/svg">
 <g transform="matrix(.19235 0 0 .19235 .261 .30211)">
  <path d="m9.3 6.8-2.6 3.4c-0.5-0.4-1.1-0.8-1.7-1.2v50.4c0 0.1 0.1 0.1 0.1 0.2 2.2 4.3 5.4 10.7 11.1 18.6 4.3 5.9 7.8 8.8 10.5 8.6 2.3-0.2 4.8-2.8 7.6-8 4.5-8.4 7.1-20.1 9-29.9-1.1 0.4-2.2 0.8-3.3 1.3l-0.9 0.4-1.6-4 0.9-0.4c1.8-0.7 3.6-1.4 5.4-1.9l0.3 1c0-0.2 0.1-0.5 0.1-0.7 0.4-2 0.7-3.9 1.1-5.5 2.9-13.8 11.4-14.9 14-14.9 6.2 0 11.6 4.8 13 11.3 0.2 0.8 0.4 1.9 0.6 3.3 1.2 6.3 3.5 18 6.6 27.9 0.2 0.7 0.5 1.6 0.9 2.7 0.6-1.7 1-3.7 1.4-5.8l4.2 0.8c-0.4 2.4-1 4.5-1.6 6.5l-3.9-1.3c0.6 1.6 1.3 3.6 2.1 5.5 0 0 0.1 0.1 0.1 0.2 1.9 4.3 4.3 8.4 6.8 8.4h1.3c1.6 0 3 0 4.2-0.2v-58.3c-0.8 1.2-1.6 2.6-2.3 4.1l-3.9-1.8c1-2.2 2.2-4.2 3.5-5.9l2.7 2.1v-18.7h-88.2c0.8 0.6 1.7 1.2 2.5 1.8zm77.8 24.9 4.1 1.4c-0.6 1.8-1.2 3.8-1.7 6l-4.2-1c0.5-2.3 1.2-4.4 1.8-6.4zm-2.6 10.7 4.2 0.7c-0.3 2-0.6 4.1-0.9 6.2l-4.3-0.5c0.3-2.1 0.6-4.3 1-6.4zm-1.4 11.6 0.1-0.7 4.3 0.3-0.1 0.7c-0.1 2-0.3 4-0.6 5.8l-4.3-0.6c0.3-1.7 0.5-3.6 0.6-5.5zm-53.2-6c0.9 0.3 2.1 0.3 3.8-0.2l1.1 4.1c-1.3 0.4-2.5 0.5-3.6 0.5s-2-0.2-2.9-0.5c-0.5-0.2-1-0.4-1.4-0.7l2.3-3.6c0.2 0.2 0.5 0.3 0.7 0.4zm-2.5-2.7-3.9 1.8c-0.9-2.1-1.5-4.5-1.8-6.7l4.2-0.8c0.3 1.9 0.8 4.1 1.5 5.7zm-2.2-9.8-4.2 0.7c-0.3-1.8-0.7-4-1.2-6.2l4.2-1c0.5 2.3 0.9 4.5 1.2 6.5zm-2.4-10.8-4.1 1.3c-0.7-2-1.5-3.8-2.4-5.5l3.7-2.1c1.1 1.9 2 4 2.8 6.3zm-10-15.1c1.7 1.6 3.3 3.2 4.6 5l-3.4 2.6c-1.2-1.5-2.6-3-4.1-4.4z"/>
  <path d="m90.7 88h-1.2c-3.5 0-6.6-2.7-9.5-8.4-0.4 0.5-0.9 1-1.3 1.4l-2.9-3.1c0.8-0.7 1.5-1.7 2.2-2.8-0.8-2.1-1.7-4.5-2.5-7.1-3.2-10.2-5.5-22-6.7-28.4-0.3-1.3-0.5-2.4-0.6-3.2-0.9-4.6-4.6-7.9-8.8-7.9-4.6 0-8.3 4.3-9.8 11.5-0.3 1.6-0.7 3.5-1.1 5.5-2.1 10.5-4.9 25.1-10.4 35.3-4.7 8.8-8.6 10.1-11.1 10.3h-0.6c-4.2 0-8.5-3.2-13.7-10.4-3.2-4.6-5.7-8.6-7.7-12.1v26.4h90v-7.2c-1.3 0.2-2.8 0.3-4.3 0.2zm-42.2-40 0.3-4.3c2.9 0.2 5.2 1.6 6.9 4.2l-3.6 2.3c-0.9-1.4-2.1-2.1-3.6-2.2zm5.1 5.6 4.1-1.2c0.7 2.2 1.3 4.4 1.8 6.3l-4.1 1.1c-0.6-2-1.2-4-1.8-6.2zm3.7 15.7c-0.2-1.5-0.5-3.2-1-5.5l4.2-0.9c0.5 2.5 0.8 4.3 1.1 5.8l0.1 0.6-4.3 0.7zm5 11.5c-1.5-1.3-2.6-2.8-3.1-4.2-0.3-0.8-0.5-1.5-0.7-2.2l4.1-1.2c0.2 0.6 0.4 1.2 0.6 1.9 0.3 0.8 1 1.7 1.9 2.5zm8.6 3.5c-1.4 0-2.9-0.3-4.4-0.8l1.6-4c1.7 0.6 3.3 0.7 4.8 0.2l1.3 4.1c-1 0.3-2.1 0.5-3.3 0.5z"/>
 </g>
</svg>
