<svg version="1.1" viewBox="0 0 20 20" xmlns="http://www.w3.org/2000/svg">
 <g>
  <g transform="matrix(3.7592 0 0 3.7592 -154.93 -50.442)">
   <path d="m44.654 18.291h-0.16433l-0.13735-0.4921 0.1376-0.23297c0.0082-0.01378 0.01078-0.03011 0.0075-0.04574l-0.08638-0.40521c-4e-3 -0.01901-0.01659-0.03515-0.03394-0.04383-0.0089-0.0045-0.01869-0.0067-0.02845-0.0067-0.0092 0-0.01844 2e-3 -0.02698 6e-3l-0.55156 0.25772c-0.01952 0.0091-0.03311 0.02743-0.03611 0.04874l-0.06245 0.43698c-0.0023 0.01608 0.0016 0.03234 0.01091 0.04568l0.51194 0.73018c0.01193 0.01703 0.03145 0.02718 0.05225 0.02718h0.44374c0.01895 0 0.03687-0.0084 0.04899-0.02297 0.01212-0.01455 0.01716-0.03368 0.01378-0.05231l-0.0363-0.19827c-0.0057-0.03037-0.03209-0.05237-0.06284-0.05237zm1.7092-2.2062-0.12465-0.04644c-0.0072-0.0027-0.0148-4e-3 -0.02226-4e-3 -0.01295 0-0.02577 4e-3 -0.03668 0.01161-0.01722 0.01206-0.02737 0.03183-0.02711 0.05288l0.0016 0.1547-0.22972 0.06781-0.21938-0.23565c-0.01219-0.01308-0.02915-0.02029-0.0467-0.02029-4e-3 0-8e-3 3.97e-4 -0.01193 0.0012l-0.23406 0.04459c-0.03413 0.0065-0.05678 0.03911-0.05097 0.07336l0.05569 0.32719c0.0032 0.01876 0.01461 0.03509 0.03113 0.04459l0.26697 0.15342c0.0098 0.0056 0.02073 0.0085 0.03177 0.0085 0.0077 0 0.01538-0.0014 0.02271-0.0041l0.5897-0.22436c0.02443-0.0093 0.0407-0.03253 0.04108-0.05869l0.0043-0.28541c4.5e-4 -0.02705-0.0162-0.05142-0.04147-0.06079zm-2.7188-2.2134c-0.05767-0.0061-0.11559-0.0035-0.17218 0.0075l-0.01168 0.0024c-0.145 0.02839-0.27131 0.17594-0.28528 0.19266-0.0199 0.02386-0.01965 0.05856 5.08e-4 0.08223 0.01531 0.01793 0.03872 0.02552 0.06079 0.02124 7e-3 -0.0014 0.01391-4e-3 0.02035-0.0078l0.12963-0.077 0.05556 0.03483c0.01378 0.0087 0.03056 0.01123 0.04638 0.0081 0.0084-0.0017 0.01646-0.0048 0.02373-0.0096 1.91e-4 -1.28e-4 0.02245-0.01448 0.06819-0.02341 0.04083-8e-3 0.08721-0.0094 0.13792-4e-3 0.14009 0.01467 0.25651 0.11502 0.29651 0.25562 0.0071 0.02507 0.02877 0.04325 0.05467 0.04599l0.01321 0.0014c0.0064 6.27e-4 0.01276 3.86e-4 0.01888-8.2e-4 0.01352-0.0026 0.02596-0.0096 0.03534-0.02009 0.01365-0.01531 0.01914-0.03623 0.01467-0.05626-0.05422-0.24496-0.25805-0.42697-0.50722-0.45299zm2.2382 2.9475c-0.01091-0.0078-0.02386-0.0118-0.037-0.0118-0.0059 0-0.01193 8.2e-4 -0.0178 0.0026l-0.14819 0.04312-0.38927-0.28732-0.01148-0.39405c-1.27e-4 -0.0041-6.35e-4 -0.0082-0.0015-0.01219l-0.05651-0.25032c0.0029-0.0222 0.0076-0.0421 0.01588-0.0569 0.0104-0.0069 0.04312-0.01461 0.06309-0.01926 0.05499-0.01289 0.11725-0.02749 0.14309-0.08172 0.01563-0.03273 0.01231-0.06654 0.0019-0.09933h0.2856c0.02954 0 0.05524-0.02029 0.06207-0.04906l0.03139-0.13224c0.0045-0.01901 6.4e-5 -0.03898-0.01206-0.05429-0.01212-0.01531-0.03056-0.02424-0.05001-0.02424h-0.18047l-0.05384-0.05518 0.11247-0.05225 0.16318 0.08842c0.0096 0.0052 0.02009 0.0077 0.03043 0.0077 0.01869 0 0.03706-0.0082 0.04957-0.02354l0.20733-0.25517c0.01078-0.01333 0.01582-0.03043 0.01384-0.04746-0.0019-0.01703-0.01065-0.03253-0.02418-0.04312l-0.39956-0.31137c0.0013-0.0088 0.0022-0.01665 0.0025-0.02348 0.0059-0.0096 0.02367-0.02807 0.03464-0.03949 0.03885-0.04051 0.0872-0.0909 0.06226-0.15164-0.02469-0.06003-0.09422-0.06284-0.1501-0.06513-0.01161-5.05e-4 -0.02845-0.0012-0.04096-0.0026 6.4e-5 -0.01199 0.0011-0.02762 0.0019-0.03853 0.0038-0.05595 0.0085-0.12548-0.04765-0.15795-0.01346-0.0078-0.02851-0.01174-0.04472-0.01174-0.0391 0-0.07585 0.02379-0.11138 0.04682-0.0095 0.0062-0.02316 0.01499-0.03413 0.02112-0.0059-0.01001-0.01269-0.0229-0.01741-0.03209-0.02565-0.04931-0.05754-0.11062-0.12146-0.11062-0.03483 0-0.06756 0.01958-0.11279 0.04676-0.05563 0.03336-0.13173 0.07898-0.21607 0.08682-0.0021 1.92e-4 -0.0043 2.65e-4 -0.0064 2.65e-4 -0.02813 0-0.06737-0.01365-0.10896-0.02807-0.05269-0.01831-0.1124-0.03904-0.1723-0.03904-0.02845 0-0.05531 0.0047-0.07981 0.01403-0.07598 0.0289-0.11604 0.10239-0.15476 0.17352-0.02424 0.04459-0.04938 0.09065-0.07993 0.11674-0.02188 0.01869-0.06296 0.03228-0.10641 0.0467-0.07917 0.02622-0.16892 0.05595-0.21709 0.13862-0.03764 0.06456-0.02622 0.14239-0.01525 0.2176 0.0079 0.05422 0.01614 0.11023 0.0041 0.15272-0.0088 0.031-0.04695 0.06494-0.08389 0.09773-0.0504 0.04472-0.10252 0.09103-0.11636 0.15655-0.01576 0.07457 0.01748 0.14589 0.04682 0.20886 0.0111 0.02373 0.02246 0.04899 0.02915 0.07075l-0.11597 0.1163-0.33357-0.24586 0.0585-0.51098c0.0021-0.01824-0.0038-0.03655-0.01614-0.05014l-0.22408-0.24704 0.15093-0.36509c0.01072-0.02596 0.0033-0.05588-0.01844-0.07368-0.01506-0.01238-0.03445-0.01691-0.05276-0.01333-0.0081 0.0016-0.01595 0.0048-0.02309 0.0095l-0.20994 0.13983c0.0019-0.0192 0.0045-0.03834 0.0082-0.05735 0.02456-0.12867 0.09046-0.24682 0.18564-0.33274 0.07591-0.06858 0.16886-0.11515 0.26882-0.13467 0.23048-0.0451 0.4648 0.05767 0.59704 0.26174 0.01416 0.02188 0.04019 0.03292 0.06577 0.02794l0.02035-4e-3c0.02009-4e-3 0.03713-0.01729 0.04574-0.03592 0.0085-0.01863 0.0077-0.04025-0.0024-0.05812-0.1855-0.32745-0.55805-0.49893-0.92703-0.42671-0.36911 0.07215-0.6496 0.37134-0.69809 0.74453-0.0091 0.07036-0.0098 0.14066-0.0022 0.20982-0.0056 0.0068-0.01021 0.01429-0.01263 0.02303l-0.19757 0.70338c-0.0056 0.0199-0.0012 0.04121 0.01174 0.05729 0.01295 0.01607 0.03292 0.02488 0.05352 0.02367l0.1679-0.01008c0.0029-1.91e-4 0.0057-5.05e-4 0.0084-0.0011 0.0125-0.0024 0.02411-0.0086 0.03317-0.0178l0.13843-0.14015-0.08918 0.4514c-0.0025 0.0127-0.0011 0.02584 4e-3 0.0377l0.33549 0.69011-0.35341 0.35444c-0.0091 0.0092-0.01531 0.02092-0.01761 0.03362l-0.01085 0.05965-0.51832 0.31833-0.48559-0.2775 0.15878-1.0881h0.3906l-0.03075 0.13709-0.12255-0.01697c-0.01767-0.0024-0.03553 0.0034-0.04829 0.01582-0.01282 0.01244-0.0192 0.03005-0.01729 0.04784l0.05831 0.53988c0.0029 0.02641 0.02335 0.04753 0.04969 0.05116l0.1029 0.01423c-0.01856 0.04804-0.02679 0.09212-0.02348 0.1316-1.92e-4 5.83e-4 -5.79e-4 9.53e-4 -6.98e-4 0.0015-8.92e-4 4e-3 -0.02367 0.09881-0.15419 0.11464-0.01748 0.0021-0.02992 0.01799-0.02788 0.03547 2e-3 0.0162 0.01576 0.02807 0.03164 0.02807 0.0013 0 0.0026-6.4e-5 0.0039-2.65e-4 0.09397-0.01135 0.14596-0.05512 0.17492-0.0948 0.04536 0.07017 0.12746 0.08765 0.13141 0.08842 0.0021 4.5e-4 0.0042 6.35e-4 0.0063 6.35e-4 0.0148 0 0.02807-0.0104 0.03113-0.02545 0.0035-0.01729-0.0076-0.03407-0.02482-0.0377-7.7e-4 -1.27e-4 -0.07885-0.01729-0.10232-0.08427-0.01084-0.03094-0.0111-0.07904 0.01888-0.14896l0.09314 0.01289c0.02635 0.0036 0.0518-0.0111 0.06169-0.03579l0.20261-0.50379c0.0066-0.01659 0.0053-0.03528-0.0036-0.05072s-0.0245-0.0259-0.04223-0.02832l-0.08229-0.01136 0.09378-0.41778c0.0017-0.0058 0.0027-0.01199 0.0027-0.01831 0-0.03521-0.02839-0.06379-0.0636-0.06379h-0.91409c-0.02985 0-0.05575 0.02073-0.06226 0.04989l-0.24433 1.4716c-0.0061 0.0273 0.0063 0.05544 0.03062 0.06928l0.78032 0.44591c0.0098 0.0056 0.02073 0.0084 0.03164 0.0084 0.01161 0 0.02316-0.0031 0.03336-0.0094l0.50952-0.3129 0.10143 0.11279-0.28388 0.33638c-0.01219 0.01448-0.01735 0.03362-0.01403 0.05225l0.1665 0.94088c0.0054 0.03049 0.0319 0.05269 0.06284 0.05269h0.5934c0.02022 0 0.0393-0.0096 0.05129-0.0259 0.01206-0.01627 0.01563-0.03732 0.0096-0.05665l-0.06379-0.20727c-0.0082-0.02679-0.03298-0.04504-0.06099-0.04504h-0.17709l0.07968-0.42626 0.41829-0.1725c0.02092-0.0086 0.03572-0.02769 0.03885-0.05008l0.05856-0.41548 0.63755-0.2805c0.0062-0.0027 0.01193-0.0064 0.01697-0.01097l0.28286-0.2546 0.10673 0.23087c0.0074 0.01608 0.02124 0.02832 0.03808 0.03387l0.8267 0.27048c0.0064 0.0021 0.01314 0.0032 0.01984 0.0032 0.0092 0 0.01837-2e-3 0.02686-0.0059l0.24477-0.11381c0.0236-0.01097 0.03815-0.03515 0.03681-0.06111l-0.01072-0.21045c-7.68e-4 -0.01946-0.01065-0.03745-0.02654-0.04874z" style="fill:#000000"/>
  </g>
 </g>
</svg>
