<svg version="1.1" viewBox="0 0 20 20" xmlns="http://www.w3.org/2000/svg">
 <g>
  <g transform="matrix(.28039 0 0 .28039 -3.8525 1.4003)" style="fill:#000000">
   <path d="m40 22.8c-0.4 1 0.1 2.1 0.2 3-0.1 0.7-0.5 4.3 0.4 6.1l0.4-1.1s1.2-2 1.2-2.8c0 0 0.2 3 1.1 5.7l1.1 2.5s1-6.4 1.3-7.2 2.9 4.9 2.9 4.9 1.3-4.1 1.1-6c0 0 1.1 3.8 3.8 4.6 0 0-1.1-2.5-0.8-3.8s1-2.7 1-3.8c0 0 3.3 2.7 4.8 3.5l-0.3-2.7 3.6 0.8c1.5 0.1 2.2-0.1 2.2-0.1-2-0.8-4-3.3-4-3.3-0.2-0.2-0.3-0.3-0.5-0.4-0.5-0.4-0.9-1-1.4-1.6 1.3-0.1 4.5-0.1 4.5-0.1s-1.3-0.7-2.5-0.8c-1.3-0.1-3.8-1.8-3.8-1.8-1.1-0.1-2.7-0.5-3.9-1.8 0.9 0.5 3.1 0.7 3.1 0.7 2.2 0 3.4-1.1 3.2-1.3-2.7-1.7-5-3.5-5-3.5-0.4-1-2.1-4.6-4.9-5.2-0.9-0.2-1.6-0.7-2.1-1.4l-3.9-3.9s-1.8-0.3-2.4 2.4c-0.1 0.4-0.1 0.9 0 1.3l-1.1 2.5 1.6-1.2c0.2 0.3 0.4 0.6 0.5 0.9l-0.9 2 1.5-1.3c0.4 0.4 0.7 0.8 0.7 1 0.6 3.7-1.9 3.1-3.7 2.2l0.3-1.2-1 0.8v0.1c-0.1-0.1-0.3-0.2-0.4-0.2l0.4-1.5-1 1.1s-1.1 2.5 0 3.6c1.1 0.9 4.7 3.1 2.7 8.3zm7.8-13.9 0.8 1.5s-1 0.5-1.9-1.6z" style="fill:#000000"/>
   <path d="m63.1 65.6 0.5-2.7 3.7 2.9-0.9-3.3 3.5 2.2-3.3-7.4-0.2-0.7-0.4 1.2s-1-1.2-1.4-1.6l0.2 1.2s-2.8-0.8-3.8-2c0 0-2.6-0.7-3.2-2.8v-0.4s-4.4 0.5-7.4 0.5-6.6-1.6-7.2-3.4l-0.8 0.5s-5.9 4.8-7.4 8.5-0.7 5.9-0.7 5.9l2.2-1.7 1.8 2.3 3.3-1.7 4.3 4s2.3-8.6 4.2-9.9c1.3-0.9 2.1-0.3 2.5 0.2 1 2.6 3.4 7.9 6.2 9.2l0.7-2.2 2 0.2z" style="fill:#000000"/>
   <path d="m47.1 74.9c0.4-2-2.8-7.4-2.8-7.4l-2.8-2.8-3.5 2-2-2.7-1.3 1.3c0 0.3 0.1 0.7 0.1 1l-0.1-0.3s0.2 10.7 0.2 7.4c0-0.2 0.4-1.6 0.8-2.7 0.1 0.2 0.1 0.4 0.2 0.5 0 1.4 0.2 4.7 1.1 6.7l0.5-3c0.5 1 1.1 2.1 1.8 3.2 2.4 4.1 2 4.6 2 5.4 0 0.9-3.7 3.5-4.6 3.5s-5.2 0.9-6.5 2.2c-0.4 0.4-0.5 0.8-0.5 1.1-0.4 0.3-1.1 0.9-0.8 1.7l0.4 1.2s0.1-1.2 1.3-1.2l5-2.8s-2.4 1.7-3.7 3c-0.2 0.2-0.4 0.5-0.4 0.7-0.3 0.3-0.8 0.9-0.4 1.9l0.6 0.9s0.5-1 1.3-1.5h1.6l1.3-1.7 4.1-2.5c-1.1 0.7-2.4 2.6-2.4 2.6-1.1 0.4-1.3 2-1.3 2s5.7-0.9 7-1.7c1.3-0.9 2.6-3.9 4.4-5 1.7-1.1 0.4-5.4-0.2-7-0.8-1.6-0.8-4-0.4-6z" style="fill:#000000"/>
   <path d="m74.6 95.5c0.3-0.7 0.7-2 0-3.2-0.5-0.9-1.3-2.6-2-4.1-1-2.2-1.8-4.8-1.4-7.2 1-5.2 0.9-9.2 0.8-10.7-0.2-4.1-3.7-5.5-3.7-5.5l-0.1 3.1-3.8-2.9-0.4 2.4-3.8-1.6-0.7 2.3c0.4 2.4 1 4.1 1.8 5.6 0.4 1.1 2.6 7.9 2.3 6.7-0.2-0.7-0.1-2.1-0.1-3.2 0.2 0.3 0.5 0.7 0.6 1 1.1 2 2.4 5.4 2.4 5.4s0.7 2-1.3 4.6-2.8 1.5-3.7 4.1c-0.3 1 0 1.7 0.4 2.2-0.1 0.6-0.2 1.9 0.9 2.8 0 0 0.2-1.1 1-1.7 0 0 1.3-5 1.6-4 0.2 0.6 0 2.5 0.2 3.7-0.1 0.3-0.3 1.2 0.3 2.1 0 0 0.3-0.7 0.7-1.2 0.2-0.1 0.4-0.4 0.6-0.6 0.8-1.2 1.5-3.3 1.5-3.3s0.1 2.4 0.8 3.6c0 0 0.4 1.5 1.1 2.3l0.5-1.9c0.9-1 0.7-3.8 0.7-3.8 0.4 1.3 1.1 2.4 1.7 3.1 0.1 0.3 0.5 1.7 0.2 2.1 0.1-0.4 0.8-1.2 0.9-2.2z" style="fill:#000000"/>
   <path d="m73.6 97.5v0c-0.1 0.1 0 0 0 0z" style="fill:#000000"/>
   <path d="m73.6 97.5z" style="fill:#000000"/>
   <path d="m31.6 60.7s-1.6 1.3-1.9 0.4-1.9-1.6-2.3-2.3 0-2.9 0-3.8 1.5-2 1.5-2-0.1 0.9-0.4 2.8 0.6 3 0.6 3l1.6 1.5s-0.6-1.9-0.1-2.2c0.4-0.3 0-2.2 0-2.2 1.9-0.9 2.6-1.9 2.6-1.9l0.1-1.6s3.8-2.9 4.9-4.9c1.2-2 0.4-3 0.4-3 1.6-0.7 2.2-3.7 2.2-3.7s-2.4-2.3-2.8-4c-0.7-2.8 0-3.9 0-3.9s-0.2 1.1 0.7 3.3 4.2 4.4 4.2 4.4c0.4 1.2 1.7 6.4 1.4 7.2-0.2 0.6 0.4 1.5 0.9 2.1 0.3 0.4 0.7 0.7 1.2 0.9 3.6 1.5 11.4 0.3 11.4 0.3l0.4-1.9c1-3.3 2.9-3.6 2.9-3.6s0.1-2.9 0.9-3.3c0.7-0.4 3.8-4.8 3.8-4.8-1.2 0.1-2.5-2.2-2.5-2.2l-2.2-3.6c0.9 0 3.6 3.6 4.9 4.6s2.6 1 2.6 1-1.9 1.3-2.1 3.3l-0.2 2 1.3-2c-0.3 1.3-0.6 2.5-1 3.2-0.9 1.5-2 1.6-2 1.6s-3.2 1.2-3.9 1.7c-0.7 0.6-1.6 3.9-1.6 3.9-0.4 2.2 1.7 3 1.7 3-0.4-0.7-0.1-2-0.1-2s0.9-1.9 1.2-2.3 2.9-1.5 2.9-1.5l-1.5 1.6c-1.5 1.6-1.7 3-1.7 3-0.7 2 2.6 3.2 2 2.8s-0.4-2.2-0.4-2.2l1-0.4c0-1.6 2.6-3.3 2.6-3.3l-0.9 1.3c-0.9 1.3-0.6 2.6-0.6 2.6-0.9 1.2 0.3 2.3 0.3 2.3s0.4-1.9 1.2-2c0.7-0.1 2.5-3.5 2.5-3.5s0 1.7-0.6 2.8c-0.6 1-0.3 1.6-0.3 1.6l-0.9 1.5c0.7 0 2.2-1.2 3-2 0.9-0.9 1-3.8 0.9-4.8s-0.3-2.6-0.3-2.6l1-1.7c0.3-0.5 0.5-1 0.8-1.4v2.6c-0.1 0.2 1.8-3.3 1.3-6.1 0.4-1.3 0.5-2.5 0.5-3.2 0-1.6-3.2-7.4-3.2-7.4 0 1.6-1.6 3-1.6 3l0.6-2c0.4-1.3-0.2-3.8-1.5-5.7l2 0.8c-2.3-3.1-4.9-3.2-4.9-3.2-3.3-1.2-6.3-0.7-6.3-0.7l5.3 5c-1.9 1.8-5.9 0.1-5.9 0.1l0.2 2.9c-1.2-0.1-5.2-3.3-5.2-3.3s-0.5 1.1-0.6 2c-0.1 2 1 5.3 1 5.3-3.2-0.4-4.5-2.9-4.5-2.9 0 0.9-1.4 5.1-1.4 5.1l-2.7-4.9c-0.4 1.7-1 5-1 5l-0.6 1.9c-1.5-1.5-2.7-7-2.7-7l-1.4 2.5s-1.1-2.1-1.4-3.4c-0.2-1.2 0.1-3.6 0.1-3.6v-3.1l0.4-1.4 0.3-1.6s-0.4 0-2.5 1.7c-0.5 0.5-1 1.1-1.3 1.8v-0.2s-1.9 3.7-1.8 6.6v1.6l1.2-2.6c0.3 1.3 0.3 4.2 0.3 4.2s-1.2 7.6-2.3 9c-0.4 0.5-0.8 1.2-1.2 2v-0.1s-2.7 2.3-3 3.5l2-1.2c-0.3 0.8-0.6 1.6-0.7 2.1-0.4 2.2-4.9 2.6-5.1 5.1-0.3 3.2-0.4 4.1 0.6 6.5 1 2.5 2.6 2.3 3.9 2.6s1.8-2.4 1.8-2.4zm14.6-21.4c1.9-0.2 3.4-2.3 3.4-2.3s1 0.9 1.8 1.3c1.4 0.7 5.1 0.9 6.7 0.8 1.9-0.1 4.8-1.8 4.8-1.8s-0.5 1.6-3.7 2.4-8.4-0.5-8.4-0.5l0.1 4c0.8 0.1 3.2 0.3 4.5 0.1 1.8-0.2 3-1.4 3-1.4s-1.4 2.4-3.4 2.4h-4.1l0.2 5.7c-0.2-1-0.6-3.5-0.9-5.9-0.8 0.4-2.4 0.1-2.9 0-0.6-0.2-1.6-1.6-1.6-1.6 1 0.9 2.5 1 4.4 0.6-0.3-2.2-0.5-4.1-0.5-4.1-3.2 1.8-5.8 0.6-5.8 0.6z" style="fill:#000000"/>
  </g>
 </g>
</svg>
