<svg version="1.1" viewBox="0 0 20 20" xmlns="http://www.w3.org/2000/svg">
 <g transform="matrix(.21345 0 0 .21345 6.7467 8.316)">
  <path d="m37.074-25.872c-5 0.1-9.9 0.2-14.9 0.2-6.9 0.1-13.7 0.2-20.6 0.3-3.5 0-7-0.1-10.5 0.2-2.3 0.2-4 2.1-4 4.3v-0.2c0.1 1.1 0.3 2.1 1.1 2.9 1.2 1.3 2.8 1.4 4.4 1.4 4.5 0 9.1-0.1 13.6-0.1 5 0 9.9-0.1 14.9-0.1 2.2 0 4.4-0.2 6.6 0.2 6.8 1.1 11.9 7.5 11.5 14.3-0.2 3.7-1.8 7.2-4.5 9.7-3.2 3-7.1 3.7-11.3 3.7h-16.3-8.2c-2.5 0-5.1-0.1-7.6 0h0.2c-0.9 0-1.7 0.2-2.5 0.8-0.7 0.5-1.2 1.2-1.4 2 0 0.2-0.1 1.3-0.2 0.8 0.1 1.6 0.7 3 2.2 3.7 1.4 0.7 3.3 0.4 4.8 0.4 6.3 0 12.6 0.1 18.9 0.1h9.2c1.3 0 2.6 0 3.8 0.1 4.9 0.5 9.3 3.6 11.2 8.1 1.5 3.4 1.5 7.3 0.1 10.7-2.1 4.8-6.8 8-12.1 8.2-5.6 0.2-11.2-0.1-16.7-0.1-5.5-0.1-11-0.1-16.5-0.2-3.5 0-7-0.2-10.5-0.1-5 0.1-8.5 4.7-10.8 8.7-3.2-5.6 0.6-12.9 5.8-15.6 2.9-1.5 6-1.3 9.2-1.4 8.9-0.2 17.7-0.2 26.6-0.3 4.1 0 8.1 0 12.2-0.1 2.7-0.1 4.5-2 4.5-4.6v0.2c-0.2-2.5-2.1-4.1-4.5-4.1h0.2c-9 0-18 0.1-27.1 0.1-3.1 0-6.4 0.4-9.5-0.2-4.2-0.8-7.9-3.6-9.7-7.5-3-6.1-1-13.8 4.6-17.7 2.3-1.6 5.1-2.4 7.9-2.4 4.7-0.1 9.3 0 14 0h16.2c1.9 0 4.4 0.5 6-0.8 1-0.8 1.4-2 1.4-3.2v0.2c-0.1-2.3-1.9-3.8-4-3.9h0.2c-2.8-0.1-5.7 0-8.5 0h-10.7-10.1c-2.6 0-5.4 0.2-7.9-0.5-9.7-2.5-13.5-14.6-7-22.1 2-2.3 4.7-3.9 7.7-4.4 1.5-0.3 3.1-0.2 4.6-0.2 4.8 0.1 9.6 0.1 14.4 0.2 7.5 0.1 15 0.2 22.5 0.4 1.4 0 2.9 0 4.3 0.1 0.6 0 1.7-0.2 2.3 0 0.4 0.2 0.2 1.1 0.2 1.6v5.1c0.3 0.4 0.3 0.8 0.3 1.1z"/>
  <path d="m56.274-24.872c-2.1 1.2-4.3 2.1-6.7 1.1-1.1-0.5-2-1.2-3-1.7s-2-0.6-3.1-0.4c0.9-0.4 1.8-0.6 2.9-0.4s2.1 0.7 3.1 1c2.2 0.6 3.6-0.5 5.2-1.9 0.5 0.7 1.1 1.5 1.6 2.3z"/>
  <path d="m39.874-17.872c-3.1-3.6-6.2-7.2-9.2-10.8l-3-3.6c4.7-0.9 9.4-1.9 14.1-2.8 0.7-0.1 1.4-0.3 2.1-0.4 0.2 0 0.8-0.2 1.1-0.2 0.3 0.1 0.1-0.1 0.3 0.3 0.3 0.6 0.4 1.4 0.6 2.1 0.2 0.5 1 2.2 0.7 2.6-0.2 0.2-0.9 0.4-1.1 0.5-0.6 0.3-1.2 0.5-1.8 0.8-2.6 1.1-5.2 2.3-7.8 3.4l2.1-5.7c1.2 2.8 2.5 5.7 3.7 8.5 0.3 0.7 0.6 1.5 1 2.2 0.1 0.2 0.5 0.9 0.5 1.1-0.1 0.3-1.2 0.8-1.5 0.9-0.6 0.3-1.2 0.7-1.8 1.1z"/>
  <path d="m57.274-30.772c-0.1 1.7-0.3 3.5-0.4 5.2-0.3-0.6-0.6-1.3-0.9-1.9 1.8 1.1 3.6 2.1 5.4 3.2l-8.4-0.6c1.3-2 2.8-3.9 4.3-5.9z"/>
 </g>
</svg>
