<svg version="1.1" viewBox="0 0 20 20" xmlns="http://www.w3.org/2000/svg">
 <path d="m10.012 1.7754c-0.014068 3.495e-4 -0.028092 0-0.04181 0.00524-0.067459 0.014417-0.12409 0.060071-0.15273 0.12285l-8.9723 13.415h-0.56573c-0.2954-0.0044-0.2954 0.44108 0 0.43688h0.56403v1.5291c-0.004369 0.29542 0.44106 0.29542 0.43688 0v-1.5291h0.61693c0.2954 0.0044 0.2954-0.44103 0-0.43688h-0.52563l7.3195-10.945-5.8621 12.823c-0.06662 0.14483 0.039363 0.30997 0.19882 0.30971h13.98c0.15945 2.62e-4 0.26544-0.16488 0.19882-0.30971l-5.8612-12.822 7.3187 10.943h-0.52563c-0.2954-0.0044-0.2954 0.44108 0 0.43688h0.61693v1.5291c-0.0044 0.29542 0.44106 0.29542 0.43688 0v-1.5291h0.56402c0.2954 0.0044 0.2954-0.44103 0-0.43688h-0.56573l-8.9723-13.415c-0.029577-0.065139-0.089185-0.11167-0.15956-0.12456-0.01437-0.00437-0.02892-0.00437-0.04351-0.00437h-0.0017zm-0.41982 6.2435c-0.283 2.8722-0.70352 5.7418-1.4642 8.608l-1.6212-1.2168c1.0044-1.6441 2.0791-4.4714 3.0855-7.3912zm0.85158 0c1.0063 2.9195 2.0812 5.7462 3.0855 7.3903l-1.6212 1.2176c-0.76072-2.8661-1.1812-5.7358-1.4642-8.608zm-0.42579 0.54951c0.29792 2.829 0.76093 5.6615 1.5368 8.4962l0.0017 0.0044h-3.0769l0.00175-0.0044c0.77583-2.8346 1.2389-5.6673 1.5368-8.4962z" color="#000000" color-rendering="auto" fill="#0f0" fill-rule="evenodd" image-rendering="auto" shape-rendering="auto" solid-color="#000000" style="isolation:auto;mix-blend-mode:normal;text-decoration-color:#000000;text-decoration-line:none;text-decoration-style:solid;text-indent:0;text-transform:none;white-space:normal"/>
</svg>
