<svg version="1.1" viewBox="0 0 20 20" xmlns="http://www.w3.org/2000/svg">
 <g>
  <g transform="matrix(2.2655 0 0 2.2655 .49867 .99145)">
   <path d="m2.5507 0.40024a0.26461 0.26461 0 0 0-0.26562 0.26407v1.0196h-2.0195a0.26461 0.26461 0 0 0-0.027387 0 0.26461 0.26461 0 0 0-0.23823 0.26355v1.5255c0 0.55243 0.42603 0.99573 1.0211 1.3141 0.53326 0.28531 1.2736 0.45741 2.0707 0.56069v-0.77153a0.26461 0.26461 0 0 1 0.26562-0.26562h1.7539a0.26461 0.26461 0 0 1 0.26355 0.26562v0.77153c0.79793-0.10319 1.5385-0.27513 2.0722-0.56069 0.5951-0.3184 1.0196-0.7617 1.0196-1.3141v-1.5255a0.26461 0.26461 0 0 0-0.26355-0.26355h-2.0216v-1.0196a0.26461 0.26461 0 0 0-0.26355-0.26407zm0.26355 0.52968h2.8381v0.75396h-2.8381zm0.80667 3.9098v0.68781h1.2247v-0.68781zm4.5723 0.09198c-0.1555 0.1217-0.32362 0.22939-0.49661 0.32195-0.51323 0.2746-1.1382 0.4235-1.7927 0.5333v0.0021c-1.3817 0.20205-2.0974 0.2072-3.3414 0v-0.0021c-0.65391-0.10989-1.2783-0.25893-1.7911-0.5333-0.17248-0.092282-0.34079-0.19915-0.49609-0.32039v2.8675a0.26461 0.26461 0 0 0 0.26355 0.26562h7.3908a0.26461 0.26461 0 0 0 0.26355-0.26562z" style="color-rendering:auto;color:#000000;dominant-baseline:auto;fill:#000000;font-feature-settings:normal;font-variant-alternates:normal;font-variant-caps:normal;font-variant-ligatures:normal;font-variant-numeric:normal;font-variant-position:normal;image-rendering:auto;isolation:auto;mix-blend-mode:normal;paint-order:stroke fill markers;shape-padding:0;shape-rendering:auto;solid-color:#000000;text-decoration-color:#000000;text-decoration-line:none;text-decoration-style:solid;text-indent:0;text-orientation:mixed;text-transform:none;white-space:normal"/>
  </g>
 </g>
</svg>
