<svg version="1.1" viewBox="0 0 20 20" xmlns="http://www.w3.org/2000/svg">
 <defs>
  <style type="text/css">.fil1 {fill:black}
    .fil0 {fill:black;fill-rule:nonzero}</style>
 </defs>
 <g transform="matrix(.064674 0 0 .064674 -.08705 3.7039)" style="clip-rule:evenodd;fill-rule:evenodd;image-rendering:optimizeQuality;shape-rendering:geometricPrecision">
  <path class="fil0" d="m95 0h123c52 0 94 43 94 95s-42 94-94 94h-123c-52 0-95-42-95-94s43-95 95-95zm123 20h-123c-41 0-75 34-75 75s34 74 75 74h123c41 0 74-33 74-74s-33-75-74-75z" style="fill-rule:nonzero;fill:#000000"/>
  <path class="fil1" d="m95 44c28 0 51 23 51 51s-23 50-51 50-51-22-51-50c0-29 23-51 51-51z" style="fill:#000000"/>
 </g>
</svg>
