<svg version="1.1" viewBox="0 0 20 20" xmlns="http://www.w3.org/2000/svg">
 <path d="m6.8061 8.0565h-0.37159c0.041288 0.5161 0.16515 1.0322 0.41288 1.507l0.30966-0.18579c0.14451-0.082578 0.3303-0.041289 0.39223 0.10322l0.041288 0.082578c0.082575 0.14451 0.041288 0.3303-0.10322 0.39223l-0.30966 0.18579c1.2799 1.8579 3.7778 2.436 5.739 1.3006 0.55738-0.3303 1.0115-0.76382 1.3625-1.2799l-0.30966-0.18579c-0.14451-0.082578-0.1858-0.26837-0.10322-0.39223l0.04129-0.082578c0.08258-0.14451 0.26837-0.18579 0.39223-0.10322l0.30966 0.18579c0.22708-0.47481 0.37159-0.9909 0.41288-1.507h-0.37159c-0.16515 0-0.28902-0.12386-0.28902-0.28901v-0.082575c0-0.16515 0.12386-0.28901 0.28902-0.28901h0.37159c-0.041291-0.5161-0.16515-1.0322-0.41288-1.507l-0.30966 0.18579c-0.14451 0.082576-0.3303 0.041288-0.39223-0.10322l-0.06193-0.12386c-0.08258-0.14451-0.04129-0.3303 0.10322-0.39223l0.30966-0.1858c-0.30966-0.45416-0.68125-0.82575-1.1148-1.1148l-0.1858 0.30966c-0.08258 0.14451-0.26837 0.18579-0.39223 0.10322l-0.082578-0.041288c-0.1445-0.082575-0.18579-0.26837-0.10322-0.39223l0.18579-0.30966c-0.47481-0.22708-0.9909-0.37159-1.507-0.41288v0.37159c0 0.16515-0.12386 0.28901-0.28901 0.28901h-0.08258c-0.16515 0-0.28902-0.12386-0.28902-0.28901v-0.37159c-0.51609 0.041288-1.0322 0.16515-1.507 0.41288l0.18579 0.30966c0.082576 0.14451 0.041288 0.3303-0.10322 0.39223l-0.10322 0.061931c-0.14451 0.082576-0.3303 0.041288-0.39223-0.10322l-0.18579-0.30966c-0.45416 0.30966-0.82575 0.68125-1.1148 1.1148l0.30966 0.18579c0.14451 0.082576 0.18579 0.26837 0.10322 0.39223l-0.041288 0.082576c-0.082575 0.14451-0.26837 0.18579-0.39223 0.10322l-0.30966-0.20644c-0.22708 0.47481-0.37159 0.99091-0.41288 1.507h0.37159c0.16515 0 0.28901 0.12386 0.28901 0.28901v0.082576c0 0.18579-0.12386 0.30966-0.28901 0.30966zm3.4888-1.0528c0.22708-0.14451 0.5161-0.14451 0.74318-0.061932l1.7341-0.82575c0.16515-0.082576 0.35095-0.020644 0.45416 0.12386 0.08258 0.14451 0.04129 0.35095-0.10322 0.45416l-1.5483 1.1148c-0.020643 0.24773-0.16515 0.49545-0.41288 0.63996-0.39223 0.24773-0.92897 0.10322-1.1561-0.28901-0.22708-0.41288-0.10322-0.92897 0.28901-1.1561zm0.08258 0.61932c0.04129-0.20644 0.24773-0.30966 0.45416-0.26837 0.20644 0.041288 0.30966 0.24773 0.26837 0.45416-0.04129 0.20644-0.24773 0.30966-0.45416 0.26837-0.20644-0.041288-0.33031-0.24773-0.26837-0.45416zm-7.2873-0.41288-0.020644 0.20644c0 0.70189-0.26837 1.7754-0.57803 2.3947-0.3303 0.63996-0.68125 1.2799-0.9909 1.7341-0.28901 0.43352 0.041288 1.0322 0.55738 1.0322h1.0115v3.6746c0 0.74318 0.59867 1.3418 1.3419 1.3418h2.1057v1.8579c0 0.35094 0.35095 0.59867 0.68125 0.47481l8.8356-3.014c0.30966-0.10322 0.5161-0.39223 0.5161-0.72253v-3.4475c1.218-1.4038 1.9199-3.2411 1.8786-5.2435-0.12386-3.9017-3.2411-7.1634-7.1221-7.4318-4.3352-0.30966-7.9479 2.9521-8.2163 7.1428zm4.81-4.3146c2.6631-1.5689 6.1106-0.6606 7.6795 2.0025 1.5689 2.6631 0.6606 6.1106-2.0025 7.6795-2.6631 1.5689-6.1106 0.6606-7.6795-2.0025-1.5689-2.6837-0.6606-6.1106 2.0025-7.6795z" style="stroke-width:.20644"/>
</svg>
