<svg version="1.1" viewBox="0 0 20 20" xmlns="http://www.w3.org/2000/svg">
 <g transform="matrix(.20594 0 0 .20594 -.27094 -.20883)">
  <path d="m98 57.2h-33c-0.7 0-1.2 0.6-1.2 1.2 0 7.9-6.5 24.8-13.8 24.8s-13.8-16.8-13.8-24.7c0-0.7-0.6-1.2-1.2-1.2h-33c-0.7 0-1.2 0.6-1.2 1.2s0.6 1.2 1.2 1.2h31.8c0.3 4.4 2 10.4 4.5 15.4 3.4 6.9 7.5 10.7 11.7 10.7s8.3-3.8 11.7-10.6c2.5-5 4.2-11 4.5-15.4h31.8c0.7 0 1.2-0.6 1.2-1.2s-0.5-1.4-1.2-1.4z"/>
  <path d="m33 22.8h12.8v4.3c-4.2 1.7-7 5.8-7 10.4 0 0.8 0.1 20.8 10.2 37.9 0.2 0.4 0.6 0.6 1.1 0.6s0.9-0.2 1.1-0.6c10.1-17.1 10.2-37 10.2-37.9 0-4.6-2.8-8.7-7-10.4v-4.3h12.6c2.3 0 4.2-1.9 4.2-4.2s-1.9-4.2-4.2-4.2h-34c-2.3 0-4.2 1.9-4.2 4.2s1.9 4.2 4.2 4.2z"/>
 </g>
</svg>
