<svg version="1.1" viewBox="0 0 20 20" xmlns="http://www.w3.org/2000/svg">
 <g transform="matrix(.40575 0 0 .40575 .2303 .2696)" data-name="22-crow">
  <path d="m36 19c0-1.1915-1.1019-3.6375-2.0191-5.2159l-24.056 14.216h19.075c3.7041 0 7-5.0332 7-9z"/>
  <path d="m48 16v-11a5 5 0 0 0-5-5h-1a5 5 0 0 0-5 5c-7 0-9 5-9 5h9v2l-1.2966 0.76624c1.0436 1.7825 2.2966 4.528 2.2966 6.2338 0 4.9824-4.0146 11-9 11h-22.46l-4.7593 2.8125a4 4 0 0 0-1.7812 3.3282v0.40686l7.4453-4.3796a1 1 0 0 1 1.1094 1.664l-8.5547 5.0322v3.1358l13-8h9s0.67175 2.6683 4.7345 3.6453l6.266 8.3547h-4.9e-4a1 1 0 0 0 0 2h4a1 1 0 0 0 0-2h-1.5005l-6.0139-8.0186c0.17309 0.00519 0.3334 0.01862 0.5144 0.01862a15.97 15.97 0 0 0 2.8173-0.2442l6.1832 8.2442h-4.9e-4a1 1 0 0 0 0 2h6a1 1 0 0 0 0-2h-3.5005l-6.5953-8.7938c11.514-3.9171 13.096-21.206 13.096-21.206zm-8.8945-9.5527a1 1 0 0 1 0.44726-1.3418l4-2a1.0001 1.0001 0 0 1 0.89454 1.7891l-4 2a1.1542 1.1542 0 0 1-1.3418-0.44726z"/>
 </g>
</svg>
