<svg version="1.1" viewBox="0 0 20 20" xmlns="http://www.w3.org/2000/svg">
 <defs>
  <style>.cls-1{fill:#010101;}</style>
 </defs>
 <g transform="matrix(.20973 0 0 .20973 -.78372 -.23243)" data-name="Shape 22">
  <path class="cls-1" d="m61.36 40c-1.56-2.19-4.58-2.7-7.27-2.78a46.2 46.2 0 0 0-7.51 0.38 9.72 9.72 0 0 0-4.58 1.4c-2.23 1.63-2.89 4.73-2.61 7.48 0.61 5.41 5.22 10.81 10.61 10.03-2.59 1.32-5.91 0.46-8.06-1.5a13.93 13.93 0 0 1-3.86-7.66c-0.62-3.06-0.59-6.49 1.26-9 2-2.73 5.61-3.67 8.94-4.32 5.46-1.03 11.72-1.67 16.1 1.78 2.85 2.24 4.33 5.78 5.34 9.26 1.25 4.33 1.95 9 0.88 13.35-2.09 8.58-10.44 14.28-18.88 16.84-7.38 2.25-15.53 2.74-22.72-0.14a32.75 32.75 0 0 1-10.89-7.36c-8.47-8.42-13.17-20.71-11.85-32.6s8.82-23.06 19.6-28.25c10.14-4.91 21.91-4.38 33.08-3.26a52.92 52.92 0 0 1 11.45 2.07c8.36 2.77 15.1 9.4 19.24 17.18s5.89 16.63 6.37 25.42a55.15 55.15 0 0 1-0.82 14.83c-3.56 16.85-19.34 29.85-36.49 31.85s-34.69-6.31-45.46-19.78a74.12 74.12 0 0 0 20.53 11.35 33.74 33.74 0 0 0 9.1 2.15 34.11 34.11 0 0 0 11-1.4c9.45-2.51 19-7.38 23.52-16.05 4.24-8.14 3.24-18 1-26.89-1.64-6.38-4.38-13.24-10.32-16.05-3.67-1.74-7.92-1.59-12-1.4-5.62 0.26-11.36 0.54-16.59 2.63a17.47 17.47 0 0 0-5.83 3.64c-5.51 5.41-5 15.31 0.35 20.9s14.28 6.9 21.49 4.07a11.86 11.86 0 0 0 4.93-3.23c2.3-2.74 2.47-6.66 2.23-10.23a9.11 9.11 0 0 0-1.28-4.71z" style="fill:#010101"/>
 </g>
</svg>
