<svg version="1.1" viewBox="0 0 20 20" xmlns="http://www.w3.org/2000/svg">
 <g>
  <path d="m19.681 6.5205c-0.20083 1.259-0.81054 0.65254-1.3328 1.797 0.02491-0.078672 1.552-3.7092-0.93379-5.8936 0.2583 0.76399-0.39904 0.83676-0.34004 1.7657-0.36954-1.9305-2.8792-3.7443-5.1982-3.5149 0.6757 0.44428 0.16871 0.82671 0.89489 1.3184-1.0905-0.39926-2.3864-0.83567-3.5645-0.83567-0.37959 0-0.94231 0.054633-1.4268 0.27928 0.82671 0.19406 1.1327 0.50372 1.4268 0.79502-1.9594 0.13658-4.0955 0.46045-5.0815 2.0306 0.91281-0.50984 1.5066 0.12587 2.0997 0.18204-0.80223 1.1525-2.6541 1.0863-2.7843 2.4858 0.8313-1.0778 1.7574 0.33348 2.4648 0.047859l0.15756 2.0984-0.25743 0.75088c-0.073208 0.30245-0.24039 0.57409-0.47749 0.77645l-0.045673 0.0389 0.012456 0.1285c0.035402 0.36189-0.19034 0.69843-0.53934 0.80354l-0.00612 0.0017c0.17701 0.46198 0.081076 0.85818-0.21438 1.1348 0.26748 0.71613 0.75678 0.98165 1.3807 0.98165h0.015297c-0.051792-0.1462-0.074738-0.29808-0.074738-0.45324 0-0.14817 0.020761-0.29917 0.0566-0.45083 0.18291 0.10227 0.37609 0.16106 0.58239 0.18291-0.024694-0.13265-0.038462-0.26289-0.038462-0.39183 0-0.21984 0.039992-0.43554 0.13396-0.65166 0.087413 0.06949 0.18051 0.13309 0.2736 0.19253 0.021855-0.57688 0.16543-1.1221 0.39817-1.6481 1.0804-0.87894 1.4725-1.2306 1.9017-1.5664 0.12566 0.22094 0.12566 0.22094 0.27164 0.43707-0.01792 0.42767-0.043706 0.84223-0.075394 1.255l-0.49388 0.15647 0.45564 0.30594c-0.050263 0.2299-0.053104 0.24192-0.10337 0.47181l-0.54699 0.08938 0.52972 0.42395c-0.0094 0.07605-0.095062 0.34638-0.10511 0.42286l-0.60271-0.10249 0.42483 0.5365c-0.097028 0.21241-0.19253 0.4174-0.23121 0.4174-0.10883 0-0.54196-0.08829-0.65451-0.1344 0.06403 0.24476 0.46285 0.52885 0.65385 0.69909 0.35992-0.23645 0.70717-0.44974 1.0876-0.62872-0.13593-0.44034 0.24563-1.2902 0.26683-1.764 0.07365-1.6508 0.0861-2.1853 0.75831-2.9137-0.6073-1.2747 0.4292-1.6335 0.83239-2.2035 1.5133-0.091128 2.1158 1.384 1.8612 2.7529 0.38287-0.43357 0.9139-0.90669 1.2314-1.3934 0.01311 0.027972 1.0682 1.342-0.02535 3.5518 0.54983-0.13855 0.5577-0.11976 1.0935-0.31294-0.72028 1.3459-0.93925 2.101-3.0824 3.2446 0.37653 0.0531 0.75656 0.07955 1.1379 0.08807-0.3195 0.42789-1.7122 1.3455-3.4321 1.5459-0.27928 0.03256-0.74804 0.12019-0.98012 0.09462 0.25546 0.21482 0.53344 0.39882 0.82889 0.55595-0.16171 0.01399-0.32518 0.02404-0.48973 0.02098-1.8931-0.035618-4.5081-0.36822-5.6277-2.7791-0.11123 0.26858-0.17985 0.54174-0.21372 0.83501-1.1665-1.3516-2.2732-3.8298-2.2732-5.9917 0-2.9924 1.2382-5.1436 3.5057-6.806-0.024039 0.3031-0.04021 0.60708-0.054852 0.91106 0.54065-0.6521 1.6759-1.5487 2.3894-2.0138-0.15166-0.008523-1.0656 0-1.2135 0-0.75481 0-1.4624 0.11123-2.1351 0.33501 0.12631 0.048951 0.4882 0.41958 0.61408 0.47028-0.62194 0.37631-2.4572 1.2035-3.6222 2.707 0.44952-0.34747 0.91216-0.67614 1.3934-0.98034-0.91653 1.021-1.6523 2.1488-2.1587 3.375 0.24345-0.21635 0.49257-0.42352 0.75175-0.62282-0.51661 1.4192-0.86801 2.9712-0.94931 4.5129 0.17461-0.32059 0.36582-0.6285 0.57518-0.93051-0.021198 0.34594-0.031906 0.69712-0.031906 1.0516 0 2.2782 0.46176 5.0145 1.5656 7.0142-0.17352-1.0199 0.58436-0.63746 0.57518-1.7588 0.74257 1.4106 1.8617 2.6397 3.2454 3.3451-0.40166-0.41893-0.054852-1.0199-0.55595-1.4764 0.98383 1.0009 4.5169 2.7107 10.42 0.89161-1.0042 0-0.54764-0.54633-1.625-0.783 1.4084-0.34397 4.9115-1.4386 5.391-4.9456-0.55966 0.59594-0.86823 0.09331-1.5173 0.60162 2.031-1.9731 1.6687-5.2345 1.4578-6.9653zm-13.143 2.556 0.46897-1.9412 0.25634 0.99891c-0.51399 0.71023-0.35009 0.5271-0.72531 0.94231z" style="stroke-width:.21853"/>
 </g>
</svg>
