<?xml version="1.0" encoding="UTF-8" standalone="no"?>
<svg
   xmlns:dc="http://purl.org/dc/elements/1.1/"
   xmlns:cc="http://creativecommons.org/ns#"
   xmlns:rdf="http://www.w3.org/1999/02/22-rdf-syntax-ns#"
   xmlns:svg="http://www.w3.org/2000/svg"
   xmlns="http://www.w3.org/2000/svg"
   xmlns:sodipodi="http://sodipodi.sourceforge.net/DTD/sodipodi-0.dtd"
   xmlns:inkscape="http://www.inkscape.org/namespaces/inkscape"
   width="20"
   height="20"
   viewBox="0 0 20 20"
   version="1.1"
   id="svg838"
   inkscape:version="1.0.1 (3bc2e813f5, 2020-09-07)"
   sodipodi:docname="race_wolfkin.svg">
  <defs
     id="defs832" />
  <sodipodi:namedview
     id="base"
     pagecolor="#ffffff"
     bordercolor="#666666"
     borderopacity="1.0"
     inkscape:pageopacity="0.0"
     inkscape:pageshadow="2"
     inkscape:zoom="22.4"
     inkscape:cx="15.436921"
     inkscape:cy="16.806548"
     inkscape:document-units="mm"
     inkscape:current-layer="layer1"
     inkscape:document-rotation="0"
     showgrid="false"
     units="px"
     inkscape:window-width="1303"
     inkscape:window-height="1040"
     inkscape:window-x="52"
     inkscape:window-y="0"
     inkscape:window-maximized="0"
     inkscape:pagecheckerboard="true" />
  <metadata
     id="metadata835">
    <rdf:RDF>
      <cc:Work
         rdf:about="">
        <dc:format>image/svg+xml</dc:format>
        <dc:type
           rdf:resource="http://purl.org/dc/dcmitype/StillImage" />
        <dc:title />
      </cc:Work>
    </rdf:RDF>
  </metadata>
  <g
     inkscape:label="Layer 1"
     inkscape:groupmode="layer"
     id="layer1">
    <g
       id="g1751"
       transform="matrix(0.85201655,0,0,0.85201655,-36.096721,4.611795)"
       style="fill:#000000;fill-opacity:1">
      <path
         style="fill:#000000;stroke-width:0.264583;fill-opacity:1"
         id="path1703"
         d="m 60.191144,-2.4574592 a 5.9901666,5.9901666 0 0 0 -2.457979,1.87854159 10.998729,10.998729 0 0 1 -0.388937,-1.32291669 c 0.484187,-0.28575 1.500187,-1.2276666 3.656541,-1.7832916 -0.03704,1.8520833 -0.214312,3.36020829 -1.158875,4.9926874 A 5.2334583,5.2334583 0 0 1 58.500457,0.15133238 c 0.216958,-1.04774998 0.918104,-1.86266668 1.690687,-2.60879158 z"
         inkscape:connector-curvature="0" />
      <path
         style="fill:#000000;stroke-width:0.264583;fill-opacity:1"
         id="path1705"
         d="m 42.813311,9.6895614 c 1.336146,0.4471456 2.495021,0.7143746 3.653896,1.4684376 A 12.673542,12.673542 0 0 1 48.583874,8.2052489 C 47.861561,7.554374 47.054582,7.1469156 46.467207,6.3902073 44.345249,7.7210615 43.445665,8.7502906 42.813311,9.6895614 Z"
         inkscape:connector-curvature="0" />
      <path
         style="fill:#000000;stroke-width:0.264583;fill-opacity:1"
         id="path1707"
         d="m 45.006707,5.4059573 c 0,-0.111125 -0.01588,-0.2275416 -0.01588,-0.3439583 A 7.7761041,7.7761041 0 0 1 45.131056,3.363374 C 45.723723,2.6040199 46.644473,2.2918115 47.41441,2.0589782 a 14.898687,14.898687 0 0 0 0.391584,2.1166666 5.2308124,5.2308124 0 0 0 -2.799292,1.2303125 z"
         inkscape:connector-curvature="0" />
      <path
         style="fill:#000000;stroke-width:0.264583;fill-opacity:1"
         id="path1709"
         d="m 50.298374,16.999999 c -2.495021,-0.79375 -3.299355,-1.058333 -4.1275,-2.307167 1.090083,-1.307041 2.489729,-2.518833 4.037541,-2.95275 a 7.0828957,7.0828957 0 0 0 0.08996,5.259917 z"
         inkscape:connector-curvature="0" />
      <path
         style="fill:#000000;stroke-width:0.264583;fill-opacity:1"
         id="path1711"
         d="M 65.228811,9.7742281 C 63.950873,8.9196239 63.064519,7.5517281 61.94004,6.5516031 61.445269,5.4086032 61.246832,4.125374 61.077498,2.8818323 59.915978,2.2097907 58.468707,1.1382282 57.592936,0.05608239 57.360103,0.84983238 57.111394,1.5668532 56.833582,2.3129782 a 13.805958,13.805958 0 0 0 0.09525,-1.58749999 c 0,-1.96585411 -0.494771,-3.83910411 -1.870604,-5.34458331 -2.288646,1.1853334 -4.572,3.8020625 -4.661959,6.4875833 -0.71702,-0.3545417 -1.455208,-0.6852708 -2.164291,-1.03452082 0,0.0582083 0,0.11641666 0,0.17462502 a 8.1544582,8.1544582 0 0 0 1.404937,4.8048332 17.499541,17.499541 0 0 1 -2.217208,-0.7937499 7.9057499,7.9057499 0 0 0 3.14325,3.5030832 7.0564374,7.0564374 0 0 0 -2.8575,3.2332081 c 1.307042,-0.5715 3.225271,-1.248833 4.572,-1.248833 0.08996,0 0.179917,0 0.264583,0 a 7.4215624,7.4215624 0 0 0 -1.690687,2.989792 8.3687707,8.3687707 0 0 1 4.267729,-1.248834 5.4001458,5.4001458 0 0 1 2.852208,0.764646 17.727083,17.727083 0 0 1 3.254375,-0.701146 7.4083332,7.4083332 0 0 0 1.407583,0.140229 6.5854791,6.5854791 0 0 0 2.759605,-0.605895 18.325041,18.325041 0 0 1 -0.164042,-2.0716879 z M 54.073978,-0.69798011 A 1.4155208,1.4155208 0 0 0 53.90729,-0.02858428 3.0665208,3.0665208 0 0 0 54.330623,1.315499 2.5532291,2.5532291 0 0 1 53.27229,0.72283238 C 52.899228,1.267874 52.801332,2.3235615 52.793394,3.252249 A 3.175,3.175 0 0 1 52.436207,1.7494157 c 0,-1.70656248 1.148292,-3.5480625 2.25425,-4.6196249 a 8.5010624,8.5010624 0 0 1 1.322916,2.91041659 c -0.613833,-0.381 -1.272645,-0.50535417 -1.939395,-0.7381875 z m 3.439583,7.53533321 -1.158875,-1.7832916 2.145771,1.158875 0.981604,1.158875 z"
         inkscape:connector-curvature="0" />
      <path
         style="fill:#000000;stroke-width:0.264583;fill-opacity:1"
         id="path1713"
         d="m 55.740853,13.166186 c 0,0 -2.053167,2.674938 -1.695979,4.101042 0,0 -1.960563,-2.137833 -1.870605,-3.209396 0,0 0.71173,-0.891646 3.566584,-0.891646 z"
         inkscape:connector-curvature="0" />
    </g>
  </g>
</svg>
