<?xml version="1.0" encoding="UTF-8" standalone="no"?>
<svg
   xmlns:dc="http://purl.org/dc/elements/1.1/"
   xmlns:cc="http://creativecommons.org/ns#"
   xmlns:rdf="http://www.w3.org/1999/02/22-rdf-syntax-ns#"
   xmlns:svg="http://www.w3.org/2000/svg"
   xmlns="http://www.w3.org/2000/svg"
   xmlns:sodipodi="http://sodipodi.sourceforge.net/DTD/sodipodi-0.dtd"
   xmlns:inkscape="http://www.inkscape.org/namespaces/inkscape"
   width="20"
   height="20"
   viewBox="0 0 20 20"
   version="1.1"
   id="svg838"
   inkscape:version="1.0.1 (3bc2e813f5, 2020-09-07)"
   sodipodi:docname="race_greenskin.svg">
  <defs
     id="defs832" />
  <sodipodi:namedview
     id="base"
     pagecolor="#ffffff"
     bordercolor="#666666"
     borderopacity="1.0"
     inkscape:pageopacity="0.0"
     inkscape:pageshadow="2"
     inkscape:zoom="7.9195959"
     inkscape:cx="16.726491"
     inkscape:cy="17.985262"
     inkscape:document-units="mm"
     inkscape:current-layer="layer1"
     inkscape:document-rotation="0"
     showgrid="false"
     units="px"
     inkscape:window-width="1300"
     inkscape:window-height="1040"
     inkscape:window-x="52"
     inkscape:window-y="0"
     inkscape:window-maximized="0"
     inkscape:pagecheckerboard="true" />
  <metadata
     id="metadata835">
    <rdf:RDF>
      <cc:Work
         rdf:about="">
        <dc:format>image/svg+xml</dc:format>
        <dc:type
           rdf:resource="http://purl.org/dc/dcmitype/StillImage" />
        <dc:title />
      </cc:Work>
    </rdf:RDF>
  </metadata>
  <g
     inkscape:label="Layer 1"
     inkscape:groupmode="layer"
     id="layer1">
    <path
       inkscape:connector-curvature="0"
       d="m 18.10224,5.1801355 c 0,0 -0.994621,1.658528 -1.438065,1.823882 -0.440931,0.165317 -0.440931,0.165317 -0.440931,0.165317 0,0 0.09271,-2.209697 -0.846807,-3.923346 -0.9395,-1.713646 -2.480273,-2.137047 -5.3764395,-2.137047 -2.896161,0 -4.436942,0.423394 -5.376434,2.137047 -0.9395,1.713649 -0.8468,3.923346 -0.8468,3.923346 0,0 0,0 -0.440946,-0.165317 -0.440935,-0.165392 -1.438057,-1.823882 -1.438057,-1.823882 0,0 0.110211,2.09947 0.330709,2.818499 0.220459,0.719029 1.325325,1.823883 1.270204,3.0940835 -0.05507,1.270205 -0.330708,1.603416 -0.330708,1.603416 -0.05507,6.576491 6.832032,6.190669 6.832032,6.190669 0,0 6.8871495,0.385833 6.8320405,-6.190669 0,0 -0.275565,-0.330709 -0.330709,-1.603416 -0.05507,-1.2702005 1.049726,-2.3775565 1.270201,-3.0940835 0.22046,-0.716526 0.330709,-2.818499 0.33071,-2.818499 z M 5.2423775,13.56047 c 0,0 -0.601281,-1.052239 -0.413374,-2.329954 0.18788,-1.2777255 0.413374,-1.6159445 0.413374,-1.6159445 0,0 1.089823,2.7809195 1.352875,3.1567215 0.263055,0.375799 -0.601282,1.014656 -1.352875,0.789177 z m 1.277722,-4.1463225 c -0.563709,-0.0378 -0.413378,-1.089823 -0.676448,-1.370419 -0.263055,-0.28063 -1.014656,-0.508581 -1.014656,-0.508581 0,0 0.676437,0 1.164975,0.263055 0.48855,0.263055 1.991747,0.789184 2.179643,0.751601 0.18788,-0.0378 0.413374,-0.187881 0.413374,-0.187881 -0.338192,1.8038395 -1.503209,1.08982 -2.066903,1.05224 z m 3.231874,2.4051205 h -0.864347 c 0,0 -0.263055,-0.225487 0,-0.375798 0.263055,-0.150312 0.450965,-0.02759 0.563705,-0.333241 0.112705,-0.305651 0.300661,-0.568714 0.300661,-0.568714 z m 1.2351275,0 h -0.864344 v -1.277722 c 0,0 0.187881,0.263055 0.300662,0.568713 0.112705,0.30565 0.300661,0.182891 0.563701,0.333241 0.263055,0.150312 0,0.375798 0,0.375798 z m 0.28063,-3.4573605 c 0,0 0.225487,0.150312 0.413375,0.187881 0.18788,0.0378 1.691104,-0.488538 2.179642,-0.751601 0.488538,-0.263055 1.164975,-0.263055 1.164975,-0.263055 0,0 -0.751593,0.228019 -1.014652,0.508581 -0.263055,0.28063 -0.112705,1.332835 -0.676437,1.370415 -0.563709,0.03779 -1.728684,0.7515995 -2.066903,-1.052232 z m 3.457354,5.1985625 c -0.751593,0.225487 -1.615941,-0.413375 -1.352875,-0.789177 0.263054,-0.375798 1.352875,-3.1567215 1.352875,-3.1567215 0,0 0.225485,0.338192 0.413373,1.6159445 0.18788,1.277715 -0.413373,2.329954 -0.413373,2.329954 z"
       id="path1660"
       style="fill:#000000;stroke-width:0.0250533;fill-opacity:1" />
  </g>
</svg>
