<?xml version="1.0" encoding="UTF-8" standalone="no"?>
<svg
   xmlns:dc="http://purl.org/dc/elements/1.1/"
   xmlns:cc="http://creativecommons.org/ns#"
   xmlns:rdf="http://www.w3.org/1999/02/22-rdf-syntax-ns#"
   xmlns:svg="http://www.w3.org/2000/svg"
   xmlns="http://www.w3.org/2000/svg"
   xmlns:sodipodi="http://sodipodi.sourceforge.net/DTD/sodipodi-0.dtd"
   xmlns:inkscape="http://www.inkscape.org/namespaces/inkscape"
   width="20"
   height="20"
   viewBox="0 0 20 20"
   version="1.1"
   id="svg838"
   inkscape:version="1.0.1 (3bc2e813f5, 2020-09-07)"
   sodipodi:docname="race_demon.svg">
  <defs
     id="defs832" />
  <sodipodi:namedview
     id="base"
     pagecolor="#ffffff"
     bordercolor="#666666"
     borderopacity="1.0"
     inkscape:pageopacity="0.0"
     inkscape:pageshadow="2"
     inkscape:zoom="7.9195959"
     inkscape:cx="16.726491"
     inkscape:cy="17.985262"
     inkscape:document-units="mm"
     inkscape:current-layer="layer1"
     inkscape:document-rotation="0"
     showgrid="false"
     units="px"
     inkscape:window-width="1267"
     inkscape:window-height="1040"
     inkscape:window-x="52"
     inkscape:window-y="0"
     inkscape:window-maximized="0"
     inkscape:pagecheckerboard="true" />
  <metadata
     id="metadata835">
    <rdf:RDF>
      <cc:Work
         rdf:about="">
        <dc:format>image/svg+xml</dc:format>
        <dc:type
           rdf:resource="http://purl.org/dc/dcmitype/StillImage" />
        <dc:title />
      </cc:Work>
    </rdf:RDF>
  </metadata>
  <g
     inkscape:label="Layer 1"
     inkscape:groupmode="layer"
     id="layer1">
    <path
       inkscape:connector-curvature="0"
       d="M 17.751709,2.2712271 V 5.7113342 L 16.031654,7.4313897 14.311602,5.7113342 H 5.7342707 L 4.0142147,7.4313897 2.2941627,5.7113342 V 2.2712271 L 0.57410775,3.9912826 v 5.1372243 l 1.72005495,1.7200561 0.848561,0.848557 h 0.848557 v 1.742989 l 1.720055,1.720052 v 0.84856 l 1.720052,1.720052 h 5.1372273 l 1.720048,-1.720052 v -0.84856 l 1.720056,-1.720052 v -1.720055 h 0.84856 l 0.848557,-0.848561 1.720056,-1.7200551 V 3.9912826 Z M 9.1743737,13.440109 8.3258167,14.288666 h -0.848561 -0.894429 l -0.848556,-0.848557 v -0.848561 -0.84856 h 0.848556 0.848561 l 0.8485571,0.84856 h 0.8485639 z m 5.1372283,0 -0.84856,0.848557 h -0.848561 -0.848557 l -0.894429,-0.848557 v -0.848561 h 0.848561 l 0.84856,-0.84856 h 0.894426 0.84856 v 0.84856 z"
       id="path1783"
       style="fill:#000000;fill-opacity:1" />
  </g>
</svg>
