<svg version="1.1" viewBox="0 0 20 20" xmlns="http://www.w3.org/2000/svg">
 <g>
  <path d="m10.015 16.554c1.2297 0 2.3684-0.38945 3.2996-1.0517v1.2251l6.4963 2.2596c0.63857 0.22211 0.47901 1.1666-0.19709 1.1666h-19.198c-0.6761 0-0.83566-0.94444-0.19709-1.1666l6.4963-2.2596v-1.2251c0.93116 0.66229 2.0699 1.0517 3.2996 1.0517zm4.7994-7.1991v1.4998c0 2.6506-2.1488 4.7994-4.7994 4.7994-2.6506 0-4.7994-2.1488-4.7994-4.7994v-1.4998zm-5.0935-7.722c0.18262-0.10273 0.40561-0.10273 0.58824 0 2.9364 1.6517 4.4944 3.5318 4.5702 5.6257 0.3008 0.032363 0.53502 0.28706 0.53502 0.59646 0 0.33133-0.2686 0.59993-0.59993 0.59993h-9.5988c-0.33133 0-0.59993-0.2686-0.59993-0.59993 0-0.3094 0.23421-0.56409 0.53502-0.59646 0.075849-2.0939 1.6338-3.974 4.5702-5.6257z" style="fill:#000000;stroke-width:.29996"/>
 </g>
</svg>
