<?xml version="1.0" encoding="UTF-8" standalone="no"?>
<svg
   xmlns:dc="http://purl.org/dc/elements/1.1/"
   xmlns:cc="http://creativecommons.org/ns#"
   xmlns:rdf="http://www.w3.org/1999/02/22-rdf-syntax-ns#"
   xmlns:svg="http://www.w3.org/2000/svg"
   xmlns="http://www.w3.org/2000/svg"
   xmlns:sodipodi="http://sodipodi.sourceforge.net/DTD/sodipodi-0.dtd"
   xmlns:inkscape="http://www.inkscape.org/namespaces/inkscape"
   version="1.1"
   x="0px"
   y="0px"
   viewBox="0 0 20 20"
   xml:space="preserve"
   id="svg889"
   sodipodi:docname="race_elf.svg"
   width="20"
   height="20"
   inkscape:version="1.0.1 (3bc2e813f5, 2020-09-07)"><metadata
     id="metadata895"><rdf:RDF><cc:Work
         rdf:about=""><dc:format>image/svg+xml</dc:format><dc:type
           rdf:resource="http://purl.org/dc/dcmitype/StillImage" /><dc:title /></cc:Work></rdf:RDF></metadata><defs
     id="defs893" /><sodipodi:namedview
     pagecolor="#ffffff"
     bordercolor="#666666"
     borderopacity="1"
     objecttolerance="10"
     gridtolerance="10"
     guidetolerance="10"
     inkscape:pageopacity="0"
     inkscape:pageshadow="2"
     inkscape:window-width="1275"
     inkscape:window-height="1040"
     id="namedview891"
     showgrid="false"
     inkscape:zoom="22.627417"
     inkscape:cx="19.650719"
     inkscape:cy="10.61262"
     inkscape:window-x="509"
     inkscape:window-y="11"
     inkscape:window-maximized="0"
     inkscape:current-layer="svg889"
     inkscape:pagecheckerboard="true"
     inkscape:document-rotation="0" /><g
     id="g1542"
     transform="matrix(1.3657304,0,0,1.3657304,-6.3664281,-0.07615171)"
     style="fill:#000000"><path
       d="m 9.981,13.433 c 1.179,0.889 2.868,0.89 4.042,-0.016 0.465,-0.344 0.828,-0.8 1.059,-1.324 0.191,-0.42 0.287,-0.869 0.287,-1.34 V 7.525 C 14.54,6.73 13.161,6.675 12.28,7.411 12.121,7.543 11.89,7.544 11.731,7.41 10.851,6.679 9.476,6.729 8.644,7.524 v 3.23 c 0,0.471 0.096,0.919 0.285,1.334 0.233,0.545 0.596,1.008 1.052,1.345 z M 13.911,8.7 c 0.293,0 0.527,0.234 0.527,0.527 0,0.293 -0.234,0.527 -0.527,0.527 C 13.604,9.754 13.37,9.52 13.37,9.227 13.369,8.934 13.603,8.7 13.911,8.7 Z m -3.797,0 c 0.293,0 0.527,0.234 0.527,0.527 0,0.293 -0.234,0.527 -0.527,0.527 C 9.807,9.754 9.573,9.52 9.573,9.227 9.573,8.934 9.807,8.7 10.114,8.7 Z"
       id="path865"
       sodipodi:nodetypes="cccsccccsccssscssssss"
       style="fill:#000000;fill-opacity:1" /><path
       d="m 16.225,10.754 c 0,0.329 -0.046,0.648 -0.12,0.958 0.497,-0.197 0.863,-0.619 0.973,-1.143 0.116,-0.625 0.333,-1.26 0.641,-1.878 l 1.095709,-1.6703901 c -0.209,0.004 -0.214285,0.020424 -0.399285,0.058423 C 17.985424,7.1700334 16.579,8.479 16.226,8.709 v 2.045 z"
       id="path869"
       style="fill:#000000;fill-opacity:1"
       sodipodi:nodetypes="ccccccccc" /><path
       d="M 14.382,2.122 C 13.981,1.196 13.064,0.55 12,0.55 10.935,0.55 10.017,1.198 9.616,2.125 10.344,1.79 11.147,1.591 12,1.591 c 0.852,0 1.654,0.198 2.382,0.531 z"
       id="path873"
       style="fill:#000000;fill-opacity:1" /><path
       d="m 12.004,6.548 c 1.217,-0.81 2.96,-0.643 4.004,0.4 L 16.1,7.039 c 0.023,0.024 0.036,0.053 0.053,0.08 0.013,0.02 0.029,0.037 0.039,0.059 0.022,0.053 0.033,0.109 0.033,0.165 v 0.38 C 16.437,7.62 16.662,7.546 16.891,7.478 V 7.329 c 0,-2.691 -2.194,-4.88 -4.891,-4.88 -2.691,0 -4.88,2.189 -4.88,4.88 V 7.483 C 7.347,7.547 7.57,7.619 7.786,7.724 V 7.353 C 7.783,7.239 7.823,7.125 7.909,7.038 L 8,6.947 C 9.046,5.905 10.789,5.739 12.004,6.548 Z"
       id="path875"
       style="fill:#000000;fill-opacity:1" /><path
       d="m 7.789,10.762 c 0,0.329 0.046,0.648 0.12,0.958 C 7.412,11.523 7.046,11.101 6.936,10.577 6.82,9.9520004 6.603,9.3170004 6.295,8.6990004 L 5.199291,7.0286108 c 0.209,0.004 0.214285,0.020424 0.399285,0.058423 0.43,0.091 1.836424,1.3999666 2.189424,1.6299666 V 10.762 Z"
       id="path869-7"
       style="fill:#000000;fill-opacity:1"
       sodipodi:nodetypes="ccccccccc" /></g></svg>
