<?xml version="1.0" encoding="UTF-8" standalone="no"?>
<svg
   xmlns:dc="http://purl.org/dc/elements/1.1/"
   xmlns:cc="http://creativecommons.org/ns#"
   xmlns:rdf="http://www.w3.org/1999/02/22-rdf-syntax-ns#"
   xmlns:svg="http://www.w3.org/2000/svg"
   xmlns="http://www.w3.org/2000/svg"
   xmlns:sodipodi="http://sodipodi.sourceforge.net/DTD/sodipodi-0.dtd"
   xmlns:inkscape="http://www.inkscape.org/namespaces/inkscape"
   width="20"
   height="20"
   viewBox="0 0 20 20"
   version="1.1"
   id="svg838"
   inkscape:version="1.0.1 (3bc2e813f5, 2020-09-07)"
   sodipodi:docname="skill_flight.svg">
  <defs
     id="defs832" />
  <sodipodi:namedview
     id="base"
     pagecolor="#ffffff"
     bordercolor="#666666"
     borderopacity="1.0"
     inkscape:pageopacity="0.0"
     inkscape:pageshadow="2"
     inkscape:zoom="15.839192"
     inkscape:cx="8.6218938"
     inkscape:cy="6.2999683"
     inkscape:document-units="mm"
     inkscape:current-layer="layer1"
     inkscape:document-rotation="0"
     showgrid="false"
     units="px"
     inkscape:window-width="1267"
     inkscape:window-height="1040"
     inkscape:window-x="52"
     inkscape:window-y="0"
     inkscape:window-maximized="0"
     inkscape:pagecheckerboard="true" />
  <metadata
     id="metadata835">
    <rdf:RDF>
      <cc:Work
         rdf:about="">
        <dc:format>image/svg+xml</dc:format>
        <dc:type
           rdf:resource="http://purl.org/dc/dcmitype/StillImage" />
        <dc:title></dc:title>
      </cc:Work>
    </rdf:RDF>
  </metadata>
  <g
     inkscape:label="Layer 1"
     inkscape:groupmode="layer"
     id="layer1">
    <g
       transform="matrix(0.19396312,0,0,0.19396312,67.420454,-49.352715)"
       id="g5476">
      <path
         id="path5472"
         d="m -341.761,348.574 c 2.624,-0.109 4.585,-17.474 4.966,-34.197 0.008,-0.307 0.257,-0.553 0.566,-0.554 10e-4,0 0.002,0 0.002,0 0.307,0 0.558,0.242 0.566,0.548 0.411,12.211 1.848,22.815 3.137,23.159 0.051,-10e-4 0.183,-10e-4 0.386,-0.211 2.959,-3.044 2.945,-26.777 2.691,-35.665 -0.007,-0.312 0.233,-0.571 0.544,-0.583 0.315,0.003 0.574,0.227 0.588,0.539 0.587,11.48 1.929,23.843 3.173,24.87 0.314,-0.02 0.616,-0.179 0.921,-0.488 3.645,-3.725 4.183,-24.43 3.959,-34.859 -0.008,-0.314 0.241,-0.574 0.554,-0.581 0.352,-0.004 0.572,0.24 0.58,0.555 0,0.003 0,0.007 0,0.01 0.245,11.219 1.296,23.245 2.633,23.958 2.294,-0.008 3.944,-10.677 4.368,-18.25 0.015,-0.28 0.233,-0.508 0.515,-0.534 0.282,-0.03 0.537,0.157 0.602,0.429 1.138,4.665 3.57,11.232 5.415,11.232 1.582,-0.095 3.892,-1.394 6.723,-3.761 v -23.348 c -9.835,-1.687 -9.49,-7.179 -9.235,-11.205 0.063,-0.988 0.123,-1.92 0.021,-2.676 -0.218,-1.631 -1.499,-3.537 -4.399,-3.537 -0.387,0 -0.797,0.035 -1.218,0.103 -26.453,4.325 -33.907,49.55 -32.02,72.802 0.686,8.46 2.466,12.245 3.925,12.245 z"
         inkscape:connector-curvature="0" />
      <path
         id="path5474"
         d="m -250.314,348.574 c -2.623,-0.109 -4.586,-17.474 -4.966,-34.197 -0.008,-0.307 -0.257,-0.553 -0.565,-0.554 -0.001,0 -0.003,0 -0.003,0 -0.306,0 -0.556,0.242 -0.566,0.548 -0.41,12.211 -1.847,22.815 -3.136,23.159 -0.052,-10e-4 -0.183,-10e-4 -0.387,-0.211 -2.959,-3.044 -2.944,-26.777 -2.691,-35.665 0.008,-0.312 -0.234,-0.571 -0.544,-0.583 -0.314,0.003 -0.573,0.227 -0.588,0.539 -0.588,11.48 -1.93,23.843 -3.174,24.87 -0.313,-0.02 -0.615,-0.179 -0.92,-0.488 -3.645,-3.725 -4.184,-24.43 -3.96,-34.859 0.007,-0.314 -0.239,-0.574 -0.554,-0.581 -0.352,-0.004 -0.573,0.24 -0.581,0.555 0,0.003 0,0.007 0,0.01 -0.243,11.219 -1.296,23.245 -2.632,23.958 -2.293,-0.008 -3.944,-10.677 -4.368,-18.25 -0.016,-0.28 -0.232,-0.508 -0.515,-0.534 -0.281,-0.03 -0.537,0.157 -0.603,0.429 -1.138,4.665 -3.569,11.232 -5.413,11.232 -1.583,-0.095 -3.894,-1.394 -6.724,-3.761 v -23.348 c 9.834,-1.687 9.489,-7.179 9.234,-11.205 -0.062,-0.988 -0.122,-1.92 -0.02,-2.676 0.218,-1.631 1.498,-3.537 4.396,-3.537 0.39,0 0.8,0.035 1.221,0.103 26.453,4.325 33.907,49.55 32.02,72.802 -0.686,8.46 -2.467,12.245 -3.925,12.245 z"
         inkscape:connector-curvature="0" />
    </g>
  </g>
</svg>
