<?xml version="1.0" encoding="UTF-8" standalone="no"?>
<svg
   xmlns:dc="http://purl.org/dc/elements/1.1/"
   xmlns:cc="http://creativecommons.org/ns#"
   xmlns:rdf="http://www.w3.org/1999/02/22-rdf-syntax-ns#"
   xmlns:svg="http://www.w3.org/2000/svg"
   xmlns="http://www.w3.org/2000/svg"
   xmlns:sodipodi="http://sodipodi.sourceforge.net/DTD/sodipodi-0.dtd"
   xmlns:inkscape="http://www.inkscape.org/namespaces/inkscape"
   width="20"
   height="20"
   viewBox="0 0 20 20"
   version="1.1"
   id="svg838"
   inkscape:version="1.0.1 (3bc2e813f5, 2020-09-07)"
   sodipodi:docname="skill_connected.svg">
  <defs
     id="defs832" />
  <sodipodi:namedview
     id="base"
     pagecolor="#ffffff"
     bordercolor="#666666"
     borderopacity="1.0"
     inkscape:pageopacity="0.0"
     inkscape:pageshadow="2"
     inkscape:zoom="15.839192"
     inkscape:cx="7.3813864"
     inkscape:cy="4.6059719"
     inkscape:document-units="mm"
     inkscape:current-layer="layer1"
     inkscape:document-rotation="0"
     showgrid="false"
     units="px"
     inkscape:window-width="1267"
     inkscape:window-height="1040"
     inkscape:window-x="52"
     inkscape:window-y="0"
     inkscape:window-maximized="0"
     inkscape:pagecheckerboard="true" />
  <metadata
     id="metadata835">
    <rdf:RDF>
      <cc:Work
         rdf:about="">
        <dc:format>image/svg+xml</dc:format>
        <dc:type
           rdf:resource="http://purl.org/dc/dcmitype/StillImage" />
        <dc:title />
      </cc:Work>
    </rdf:RDF>
  </metadata>
  <g
     inkscape:label="Layer 1"
     inkscape:groupmode="layer"
     id="layer1">
    <g
       id="g5658"
       transform="matrix(0.24086937,0,0,0.24086937,-2.0434685,-231.43835)">
      <path
         id="path5656"
         transform="translate(0,952.36218)"
         d="m 19.90625,9.96875 c -5.409294,0 -9.84375,4.5641 -9.84375,10.125 0,4.518239 2.935322,8.397058 6.9375,9.6875 V 41.6875 c 0,6.2034 5.104997,11.28125 11.3125,11.28125 h 8.625 c 0.23461,1.07691 0.595379,2.095939 1.0625,3.0625 h -9.78125 c -6.207486,0 -11.3125,5.07785 -11.3125,11.28125 V 70.25 c -3.954113,1.32026 -6.84375,5.173425 -6.84375,9.65625 0,5.5609 4.434456,10.125 9.84375,10.125 5.409294,0 9.875,-4.5641 9.875,-10.125 0,-4.493303 -2.906667,-8.344718 -6.875,-9.65625 v -2.9375 c 0,-2.9738 2.31582,-5.28125 5.3125,-5.28125 h 15.375 c 1.086633,0.609158 2.260282,1.064848 3.5,1.34375 V 70.25 C 43.139637,71.57026 40.25,75.423425 40.25,79.90625 c 0,5.5609 4.434456,10.125 9.84375,10.125 5.409294,0 9.84375,-4.5641 9.84375,-10.125 0,-4.482825 -2.889637,-8.33599 -6.84375,-9.65625 V 63.28125 C 57.96258,62.043685 61.796818,58.041536 62.90625,53 H 71.6875 C 74.684178,53 77,55.30755 77,58.28125 v 12 c -3.920294,1.340724 -6.78125,5.167103 -6.78125,9.625 0,5.5609 4.465706,10.125 9.875,10.125 5.409294,0 9.84375,-4.5641 9.84375,-10.125 0,-4.518231 -2.935322,-8.397041 -6.9375,-9.6875 V 58.28125 C 83,52.07785 77.894986,47 71.6875,47 h -8.78125 c -0.236805,-1.076095 -0.593471,-2.097055 -1.0625,-3.0625 h 9.9375 c 6.207486,0 11.3125,-5.07781 11.3125,-11.28125 V 29.75 c 3.954113,-1.320243 6.84375,-5.173417 6.84375,-9.65625 0,-5.5609 -4.434456,-10.125 -9.84375,-10.125 -5.409294,0 -9.875,4.5641 -9.875,10.125 0,4.493311 2.906667,8.344736 6.875,9.65625 v 2.90625 c 0,2.97376 -2.31582,5.28125 -5.3125,5.28125 H 56.1875 c -1.021784,-0.565666 -2.124352,-0.97392 -3.28125,-1.25 V 29.75 C 56.860363,28.429757 59.75,24.576583 59.75,20.09375 c 0,-5.5609 -4.434456,-10.125 -9.84375,-10.125 -5.409294,0 -9.84375,4.5641 -9.84375,10.125 0,4.482833 2.889637,8.336007 6.84375,9.65625 v 6.9375 c -4.931464,1.189039 -8.838598,5.201532 -9.96875,10.28125 h -8.625 C 25.315839,46.96875 23,44.66127 23,41.6875 V 29.71875 c 3.920294,-1.340707 6.78125,-5.167095 6.78125,-9.625 0,-5.5609 -4.465706,-10.125 -9.875,-10.125 z m 0,6.0625 c 2.211156,0 3.9375,1.78933 3.9375,4.0625 0,2.27317 -1.726344,4.0625 -3.9375,4.0625 -2.211156,0 -3.9375,-1.78933 -3.9375,-4.0625 0,-2.27317 1.726344,-4.0625 3.9375,-4.0625 z m 30,0 c 2.211156,0 3.9375,1.78933 3.9375,4.0625 0,2.27317 -1.726344,4.0625 -3.9375,4.0625 -2.211156,0 -3.9375,-1.78933 -3.9375,-4.0625 0,-2.27317 1.726344,-4.0625 3.9375,-4.0625 z m 30.1875,0 c 2.211156,0 3.9375,1.78933 3.9375,4.0625 0,2.27317 -1.726344,4.0625 -3.9375,4.0625 -2.211156,0 -3.9375,-1.78933 -3.9375,-4.0625 0,-2.27317 1.726344,-4.0625 3.9375,-4.0625 z m -30.1875,26.375 c 4.121226,0 7.40625,3.35713 7.40625,7.59375 0,4.2367 -3.285024,7.59375 -7.40625,7.59375 -4.121226,0 -7.375,-3.35705 -7.375,-7.59375 0,-4.23662 3.253774,-7.59375 7.375,-7.59375 z m -30,33.4375 c 2.211156,0 3.9375,1.7893 3.9375,4.0625 0,2.2731 -1.726344,4.0625 -3.9375,4.0625 -2.211156,0 -3.9375,-1.7894 -3.9375,-4.0625 0,-2.2732 1.726344,-4.0625 3.9375,-4.0625 z m 30.1875,0 c 2.211156,0 3.9375,1.7893 3.9375,4.0625 0,2.2731 -1.726344,4.0625 -3.9375,4.0625 -2.211156,0 -3.9375,-1.7894 -3.9375,-4.0625 0,-2.2732 1.726344,-4.0625 3.9375,-4.0625 z m 30,0 c 2.211156,0 3.9375,1.7893 3.9375,4.0625 0,2.2731 -1.726344,4.0625 -3.9375,4.0625 -2.211156,0 -3.9375,-1.7894 -3.9375,-4.0625 0,-2.2732 1.726344,-4.0625 3.9375,-4.0625 z"
         style="color:#000000;font-style:normal;font-variant:normal;font-weight:normal;font-stretch:normal;font-size:medium;line-height:normal;font-family:Sans;-inkscape-font-specification:Sans;text-indent:0;text-align:start;text-decoration:none;text-decoration-line:none;letter-spacing:normal;word-spacing:normal;text-transform:none;writing-mode:lr-tb;direction:ltr;baseline-shift:baseline;text-anchor:start;display:inline;overflow:visible;visibility:visible;opacity:1;fill:#000000;fill-opacity:1;stroke:none;stroke-width:6;marker:none;enable-background:accumulate"
         inkscape:connector-curvature="0" />
    </g>
  </g>
</svg>
