<?xml version="1.0" encoding="UTF-8" standalone="no"?>
<svg
   xmlns:dc="http://purl.org/dc/elements/1.1/"
   xmlns:cc="http://creativecommons.org/ns#"
   xmlns:rdf="http://www.w3.org/1999/02/22-rdf-syntax-ns#"
   xmlns:svg="http://www.w3.org/2000/svg"
   xmlns="http://www.w3.org/2000/svg"
   xmlns:sodipodi="http://sodipodi.sourceforge.net/DTD/sodipodi-0.dtd"
   xmlns:inkscape="http://www.inkscape.org/namespaces/inkscape"
   width="20"
   height="20"
   viewBox="0 0 20 20"
   version="1.1"
   id="svg838"
   inkscape:version="1.0.1 (3bc2e813f5, 2020-09-07)"
   sodipodi:docname="skill_charming.svg">
  <defs
     id="defs832" />
  <sodipodi:namedview
     id="base"
     pagecolor="#ffffff"
     bordercolor="#666666"
     borderopacity="1.0"
     inkscape:pageopacity="0.0"
     inkscape:pageshadow="2"
     inkscape:zoom="15.839192"
     inkscape:cx="8.6218938"
     inkscape:cy="6.2999683"
     inkscape:document-units="mm"
     inkscape:current-layer="layer1"
     inkscape:document-rotation="0"
     showgrid="false"
     units="px"
     inkscape:window-width="1267"
     inkscape:window-height="1040"
     inkscape:window-x="52"
     inkscape:window-y="0"
     inkscape:window-maximized="0"
     inkscape:pagecheckerboard="true" />
  <metadata
     id="metadata835">
    <rdf:RDF>
      <cc:Work
         rdf:about="">
        <dc:format>image/svg+xml</dc:format>
        <dc:type
           rdf:resource="http://purl.org/dc/dcmitype/StillImage" />
        <dc:title></dc:title>
      </cc:Work>
    </rdf:RDF>
  </metadata>
  <g
     inkscape:label="Layer 1"
     inkscape:groupmode="layer"
     id="layer1">
    <g
       transform="matrix(0.81850594,0,0,0.81850594,-1.450032,-27.327806)"
       id="g5732">
      <path
         inkscape:connector-curvature="0"
         d="m 22.638819,45.098608 c -0.170494,-0.280967 -0.415854,-0.530511 -0.622661,-0.713235 -0.132566,-0.25568 -0.320636,-0.535983 -0.559486,-0.835852 -0.291994,-0.367686 -0.994119,-1.481188 -1.367526,-2.096595 l -0.04315,-0.07088 -0.04282,-0.0713 -0.05965,-0.05862 -0.05882,-0.05903 C 19.517015,40.828068 19.292302,40.417023 19.210473,40.253285 18.907,39.007051 18.311531,38.269856 17.391239,38.00116 17.320149,37.97405 17.218837,37.935 17.127476,37.900015 16.981894,37.787512 16.81944,37.682803 16.641318,37.586467 c 0.123488,-0.301361 0.206435,-0.685628 0.206435,-1.189195 0,-1.50722 -1.317822,-2.362804 -2.623418,-2.542211 l -0.04626,-0.04773 -0.04626,-0.04773 h -0.04659 -0.04664 -0.0994 -0.04659 -0.04664 l -0.04626,0.04773 -0.04626,0.02701 c -1.305967,0.179407 -2.623375,1.045348 -2.623375,2.552568 0,0.503568 0.08253,0.893013 0.206393,1.194374 -0.178081,0.0965 -0.340907,0.203635 -0.486158,0.316138 -0.09252,0.03557 -0.195656,0.07641 -0.266789,0.103351 -0.920333,0.276158 -1.5150552,1.014083 -1.816582,2.252026 -0.081413,0.163738 -0.3069572,0.575522 -0.6734403,0.939974 l -0.059982,0.05994 -0.058117,0.05836 -0.043194,0.07059 -0.043194,0.0709 c -0.3730326,0.615159 -1.0747028,1.728339 -1.3690165,2.097268 -0.2381047,0.299869 -0.4253879,0.579846 -0.5580365,0.83536 -0.2071391,0.182475 -0.4524978,0.432023 -0.6225783,0.711994 -0.3153307,0.521144 -0.3443473,1.209508 -0.077972,1.84332 0.2342906,0.557125 0.6424755,0.929536 1.1492764,1.048588 0.1116322,0.02603 0.2262489,0.03897 0.3420258,0.03897 0.5565026,0 1.1951642,-0.358068 1.6331538,-0.658517 0.5335789,-0.366856 0.65317,-0.916686 0.7063124,-1.212657 0.3042213,-0.226084 0.7518281,-0.648983 1.1317002,-1.038308 -0.180028,1.916939 -0.102057,2.976387 -0.07296,3.263405 0.0267,0.266956 0.09704,0.586888 0.178453,0.957807 0.0478,0.218206 0.174641,0.795975 0.176548,0.946115 -0.0057,0.110513 -0.03934,0.32126 -0.07221,0.524958 -0.06956,0.433596 -0.14069,0.876973 -0.120006,1.319521 0.02483,0.532585 0.256427,1.077274 0.501412,1.653963 0.08104,0.191098 0.210621,0.495527 0.257628,0.649813 -0.820929,0.691764 -0.799954,1.404501 -0.704778,1.785617 0.162826,0.655864 0.723888,1.106041 1.499759,1.204616 0.13298,0.01708 0.266001,0.02562 0.394422,0.02562 0.894341,0 1.45159,-0.414858 1.727168,-0.671119 0.345093,0.319352 0.878673,0.671119 1.726381,0.671119 0.128379,0 0.261815,-0.0085 0.395914,-0.02578 0.774337,-0.09841 1.334653,-0.548503 1.498598,-1.20412 0.09522,-0.381198 0.116607,-1.095344 -0.70511,-1.786361 0.04738,-0.154204 0.175801,-0.457472 0.256799,-0.647657 0.246147,-0.578431 0.47737,-1.122705 0.502242,-1.654294 0.02098,-0.443959 -0.05049,-0.887668 -0.11926,-1.317119 -0.03325,-0.20635 -0.06728,-0.417677 -0.07341,-0.539631 0.0023,-0.138536 0.128461,-0.714562 0.176214,-0.931442 0.08257,-0.377386 0.152506,-0.696405 0.179243,-0.963112 0.02906,-0.287018 0.107031,-1.347296 -0.07258,-3.261333 0.38182,0.391811 0.831623,0.816784 1.132072,1.039219 0.05273,0.296636 0.172733,0.846962 0.707017,1.212492 0.435336,0.299288 1.072837,0.657191 1.631247,0.657191 0.116234,0 0.230851,-0.01293 0.341652,-0.03897 0.50759,-0.119219 0.915773,-0.492293 1.150479,-1.050246 0.266002,-0.633729 0.236902,-1.321844 -0.07797,-1.840252 z m -0.551943,1.575783 c -0.147487,0.351021 -0.387914,0.58183 -0.675719,0.64973 -0.05998,0.01393 -0.122659,0.02122 -0.186496,0.02122 -0.418506,0 -1.011695,-0.377468 -1.24524,-0.538387 -0.325196,-0.22227 -0.387499,-0.576857 -0.428414,-0.811562 -0.0099,-0.05604 -0.02483,-0.140441 -0.03594,-0.169707 -0.04129,-0.101642 -0.05924,-0.114493 -0.128378,-0.152463 -0.290874,-0.159427 -1.384728,-1.232804 -1.726796,-1.675352 -0.08067,-0.08606 -0.362711,-0.386837 -0.681814,-0.766212 -0.01111,0.453907 0.0027,1.019736 0.07296,1.714235 0.203326,2.003492 0.124607,3.083749 0.09634,3.366374 -0.02292,0.22915 -0.08983,0.532418 -0.166639,0.88344 -0.08025,0.366192 -0.201419,0.91942 -0.191843,1.11375 0.0084,0.158598 0.04353,0.378546 0.081,0.611512 0.06342,0.395623 0.129582,0.804927 0.112006,1.178664 -0.01915,0.408808 -0.22741,0.898531 -0.447565,1.417021 -0.127674,0.300365 -0.27251,0.640941 -0.312222,0.83071 -0.07764,0.371334 0.0034,0.428457 0.06305,0.47049 0.681814,0.482178 0.736449,0.938654 0.661959,1.236783 -0.05505,0.221688 -0.248426,0.606701 -0.922613,0.69201 -0.105124,0.01352 -0.20946,0.0204 -0.308822,0.0204 -0.7025,0 -1.103389,-0.319932 -1.373991,-0.598494 l -0.03631,-0.03747 c -0.08983,-0.09169 -0.212528,-0.216881 -0.316491,-0.376224 -0.104337,0.159508 -0.227037,0.284862 -0.317197,0.376804 l -0.03594,0.03706 c -0.159013,0.163406 -0.581332,0.598328 -1.373618,0.598328 -0.09936,0 -0.203326,-0.0069 -0.308823,-0.0204 -0.673813,-0.08531 -0.867605,-0.470322 -0.922612,-0.692175 -0.07453,-0.298295 -0.0199,-0.755104 0.662745,-1.236617 0.05886,-0.0417 0.139861,-0.09899 0.06226,-0.470904 -0.03971,-0.18919 -0.184215,-0.529683 -0.311848,-0.829883 -0.220529,-0.518656 -0.428497,-1.008792 -0.44798,-1.418179 -0.01716,-0.372993 0.04858,-0.781965 0.112005,-1.17734 0.03747,-0.232964 0.07263,-0.453078 0.08104,-0.612092 0.0095,-0.194577 -0.111632,-0.748551 -0.192257,-1.11491 -0.07681,-0.350608 -0.143302,-0.653129 -0.166267,-0.881699 -0.02869,-0.28221 -0.107031,-1.360229 0.09634,-3.366955 0.0703,-0.694498 0.08407,-1.260328 0.073,-1.714234 -0.319144,0.379374 -0.600443,0.680155 -0.68144,0.765797 -0.3417369,0.441802 -1.4363367,1.515925 -1.726796,1.675517 -0.069599,0.03805 -0.087175,0.05107 -0.1284206,0.151966 -0.01111,0.02844 -0.02599,0.114078 -0.036312,0.170288 -0.040914,0.23429 -0.1035904,0.58838 -0.4272944,0.811147 -0.2361978,0.16208 -0.8309192,0.538968 -1.2467733,0.538968 -0.063422,0 -0.1256842,-0.0071 -0.1860809,-0.02122 C 6.2783922,47.256471 6.038381,47.026159 5.8912653,46.675552 5.708915,46.242869 5.7207704,45.785977 5.9229766,45.452283 6.0792948,45.195027 6.3376695,44.957088 6.5127241,44.812834 6.6017646,44.616431 6.7634301,44.341433 7.0542625,43.975489 7.4074391,43.532276 8.1978181,42.260342 8.4726492,41.80743 l 0.043153,-0.07105 0.059236,-0.0587 c 0.4949455,-0.492458 0.7682431,-1.040877 0.8397071,-1.19533 0.3153312,-1.370924 0.9299087,-1.700887 1.3858467,-1.832209 0.09629,-0.03631 0.275578,-0.105125 0.394423,-0.150805 0.350483,-0.29448 0.807209,-0.489806 1.170292,-0.61093 -0.277443,-0.262976 -0.552647,-0.635387 -0.552647,-1.491137 0,-1.252286 1.278484,-1.880073 2.034043,-1.983704 l 0.04589,-0.124801 h 0.04659 0.0994 0.04664 l 0.04585,0.1248 c 0.755599,0.103632 2.033296,0.672252 2.033296,1.924538 0,0.855915 -0.274832,1.25791 -0.552275,1.52072 0.363499,0.121125 0.820225,0.331242 1.170666,0.625721 0.124233,0.04775 0.315289,0.12877 0.407438,0.163507 l -0.0039,0.0012 c 0.440683,0.125022 1.059489,0.453435 1.376686,1.83124 0.07263,0.157106 0.345507,0.704542 0.840081,1.195923 l 0.05886,0.05949 0.04357,0.07128 c 0.27479,0.452912 1.065211,1.725211 1.417186,2.16776 0.291619,0.366193 0.453285,0.641414 0.542326,0.837817 0.175054,0.144504 0.43347,0.382471 0.589747,0.640058 0.20179,0.332119 0.213648,0.788874 0.03208,1.221557 z"
         id="path5704"
         style="stroke-width:0.264583" />
      <path
         inkscape:connector-curvature="0"
         d="m 20.893702,45.233081 c 0,0 -0.04742,-0.258002 -0.505266,-0.832288 -0.456394,-0.574534 -1.466888,-2.238694 -1.466888,-2.238694 -0.697897,-0.693421 -1.010533,-1.465851 -1.010533,-1.465851 -0.288926,-1.327398 -0.817158,-1.347295 -0.961993,-1.40193 -0.144089,-0.05447 -0.529352,-0.202952 -0.529352,-0.202952 -0.505266,-0.495111 -1.539511,-0.693255 -1.539511,-0.693255 0,-0.09907 -0.120005,-0.415854 0.02371,-0.732884 0.14525,-0.317196 0.577893,-0.340513 0.577893,-1.330984 1e-6,-0.990471 -1.443175,-1.251726 -1.443175,-1.251726 h -0.09899 c 0,0 -1.443591,0.261255 -1.443591,1.251726 0,0.990471 0.433471,0.982274 0.577892,1.29947 0.143716,0.31703 0.02371,0.649569 0.02371,0.748641 0,0 -1.034244,0.206022 -1.53947,0.701133 0,0 -0.384515,0.152423 -0.529393,0.206892 -0.144048,0.05463 -0.673026,0.0765 -0.961992,1.4039 0,0 -0.312595,0.773415 -1.0097882,1.466835 0,0 -1.0104922,1.664653 -1.4676329,2.239187 -0.4570574,0.574285 -0.5052669,0.832533 -0.5052669,0.832533 0,0 -0.4089304,0.29709 -0.5774774,0.574161 -0.1681734,0.277732 0.048168,0.812451 0.2166731,0.851997 0.1685882,0.03955 0.7453196,-0.316751 0.89057,-0.415988 0.1436751,-0.09891 0.1200055,-0.435902 0.215927,-0.673177 0.096336,-0.237773 0.2167149,-0.376631 0.433015,-0.495352 0.2163415,-0.119052 1.4431761,-1.347209 1.5395122,-1.525539 0,0 0.8901551,-0.931192 1.3950491,-1.703621 0,0 0.337093,-0.356824 0.384847,0.07893 0.04779,0.436081 0.193003,1.426718 0.02446,3.09063 -0.168547,1.664243 -0.144837,2.753537 -0.09667,3.229166 0.04817,0.475462 0.385262,1.624531 0.360805,2.099994 -0.02371,0.475296 -0.215596,1.208096 -0.192258,1.72352 0.02404,0.514843 0.625273,1.564922 0.745651,2.139374 0.120006,0.574452 0,0.931028 -0.336719,1.168883 -0.336721,0.237774 -0.6734,0.614081 -0.0478,0.693338 0.624941,0.07934 0.913451,-0.17833 1.106124,-0.376473 0.192631,-0.197979 0.408931,-0.395957 0.360804,-0.673358 -0.04817,-0.277567 -0.215968,-0.81239 -0.168173,-1.109606 0.04779,-0.296968 0.288924,-2.575208 -0.09634,-3.031021 0,0 0.385261,-1.409385 0.456726,-2.598001 0,0 0.02487,-0.498172 0.240799,-0.498172 h 0.09899 c 0.2163,0 0.240012,0.498172 0.240012,0.498172 0.07262,1.188615 0.457886,2.646048 0.457886,2.646048 -0.385262,0.455813 -0.144877,2.710029 -0.09634,3.006997 0.04775,0.297217 -0.120752,0.820027 -0.16892,1.097594 -0.0478,0.277401 0.16892,0.469375 0.360804,0.667352 0.192631,0.198145 0.481183,0.452811 1.106828,0.373472 0.625273,-0.07926 0.288926,-0.457068 -0.04779,-0.69484 -0.337466,-0.237855 -0.457472,-0.595184 -0.337466,-1.169634 0.120792,-0.574452 0.721981,-1.624907 0.746065,-2.139749 0.02446,-0.515424 -0.168547,-1.248412 -0.192631,-1.723708 -0.02408,-0.475464 0.312636,-1.624625 0.360804,-2.100088 0.04813,-0.475628 0.07259,-1.564969 -0.09592,-3.229213 -0.168588,-1.663911 -0.02412,-2.654571 0.02367,-3.090653 0.04854,-0.435752 0.384888,-0.07894 0.384888,-0.07894 0.505268,0.772429 1.395382,1.703618 1.395382,1.703618 0.09596,0.178329 1.322796,1.406487 1.539885,1.525538 0.2163,0.118721 0.336719,0.257586 0.432641,0.495358 0.09634,0.237276 0.07188,0.574286 0.216342,0.673192 0.144462,0.09924 0.721607,0.455565 0.889782,0.416018 0.168132,-0.03954 0.385219,-0.574203 0.2163,-0.851935 -0.168175,-0.27707 -0.577105,-0.574037 -0.577105,-0.574037 z"
         id="path5706"
         style="stroke-width:0.264583" />
    </g>
  </g>
</svg>
