<?xml version="1.0" encoding="UTF-8" standalone="no"?>
<svg
   xmlns:dc="http://purl.org/dc/elements/1.1/"
   xmlns:cc="http://creativecommons.org/ns#"
   xmlns:rdf="http://www.w3.org/1999/02/22-rdf-syntax-ns#"
   xmlns:svg="http://www.w3.org/2000/svg"
   xmlns="http://www.w3.org/2000/svg"
   xmlns:sodipodi="http://sodipodi.sourceforge.net/DTD/sodipodi-0.dtd"
   xmlns:inkscape="http://www.inkscape.org/namespaces/inkscape"
   width="20"
   height="20"
   viewBox="0 0 20 20"
   version="1.1"
   id="svg838"
   inkscape:version="1.0.1 (3bc2e813f5, 2020-09-07)"
   sodipodi:docname="skill_alchemy.svg">
  <defs
     id="defs832" />
  <sodipodi:namedview
     id="base"
     pagecolor="#ffffff"
     bordercolor="#666666"
     borderopacity="1.0"
     inkscape:pageopacity="0.0"
     inkscape:pageshadow="2"
     inkscape:zoom="15.839192"
     inkscape:cx="8.6218938"
     inkscape:cy="6.2999683"
     inkscape:document-units="mm"
     inkscape:current-layer="layer1"
     inkscape:document-rotation="0"
     showgrid="false"
     units="px"
     inkscape:window-width="1267"
     inkscape:window-height="1040"
     inkscape:window-x="52"
     inkscape:window-y="0"
     inkscape:window-maximized="0"
     inkscape:pagecheckerboard="true" />
  <metadata
     id="metadata835">
    <rdf:RDF>
      <cc:Work
         rdf:about="">
        <dc:format>image/svg+xml</dc:format>
        <dc:type
           rdf:resource="http://purl.org/dc/dcmitype/StillImage" />
        <dc:title></dc:title>
      </cc:Work>
    </rdf:RDF>
  </metadata>
  <g
     inkscape:label="Layer 1"
     inkscape:groupmode="layer"
     id="layer1">
    <g
       transform="matrix(0.87241705,0,0,0.87241705,-14.19421,-21.779849)"
       id="g5572">
      <path
         inkscape:connector-curvature="0"
         d="m 16.925532,46.228848 0.592666,-6.432021 a 4.5719999,4.5719999 0 0 0 8.440209,0 l 0.582083,6.432021 0.529167,-0.04762 -0.751417,-8.268229 a 0.06614583,0.06614583 0 0 1 0,-0.01852 0.26458333,0.26458333 0 0 1 0,-0.04498 h -9.151938 a 0.35454166,0.35454166 0 0 0 0,0.05292 v 0 l -0.769937,8.278813 0.264583,0.02381 z m 9.117541,-8.292042 z m -8.598958,0 z"
         id="path5504"
         style="stroke-width:0.264583" />
      <path
         inkscape:connector-curvature="0"
         d="m 37.795865,35.632286 a 1.3387916,1.3387916 0 0 0 0.830791,-2.33098 l -0.709083,-0.640291 -0.150812,0.04498 -0.320146,0.09525 -0.219604,0.05821 -0.264584,0.06879 -0.219604,0.05027 -0.243417,0.04762 -0.216958,0.03969 -0.216958,0.04233 -0.214313,0.0291 -0.174625,0.01852 -0.211666,0.02117 h -0.134938 l -0.375708,0.01588 h -0.224896 -0.193146 -0.02117 l 2.320396,2.098146 a 1.3229166,1.3229166 0 0 0 0.960438,0.341313 z"
         id="path5506"
         style="stroke-width:0.264583" />
      <path
         inkscape:connector-curvature="0"
         d="m 37.459844,32.248265 -3.175,-2.865438 -1.796521,1.987021 1.322917,1.203854 c 0.28575,0.0635 1.545166,0.291042 3.648604,-0.325437 z"
         id="path5508"
         style="stroke-width:0.264583" />
      <rect
         x="-1.7740149"
         y="44.14114"
         width="3.3284583"
         height="0.47360417"
         transform="rotate(-47.85)"
         id="rect5510"
         style="stroke-width:0.264583" />
      <path
         inkscape:connector-curvature="0"
         d="m 29.387406,45.940452 h 6.035146 a 1.2144375,1.2144375 0 0 0 1.013354,-1.886479 l -1.505479,-2.259542 a 5.1858333,5.1858333 0 0 1 -0.304271,-0.529166 l -0.111125,-0.05556 -0.132291,-0.0635 -0.137584,-0.05821 -0.127,-0.05292 -0.124354,-0.04233 -0.124354,-0.03969 -0.116417,-0.0291 -0.119062,-0.0291 -0.103188,-0.01852 -0.111125,-0.0079 h -0.0926 c -0.03969,0 -0.07673,0 -0.116416,0 h -0.195792 -0.07408 l -0.111125,0.01323 h -0.06615 l -0.111125,0.02117 -0.05556,0.01588 -0.111125,0.0344 -0.04763,0.01588 c -0.03704,0 -0.07673,0.02646 -0.111125,0.04233 l -0.04498,0.03439 -0.116417,0.05027 h -0.01852 c -0.1905,0.0926 -0.367771,0.201084 -0.529167,0.304271 l -0.111125,0.06879 -0.03175,0.01852 -0.0926,0.05556 -0.0291,0.01588 c -0.07937,0.04498 -0.15875,0.08731 -0.240771,0.124354 h -0.02646 l -0.100541,0.04233 h -0.02381 a 1.1773958,1.1773958 0 0 1 -0.248708,0.06085 h -0.0344 -0.09525 -0.08202 -0.05821 -0.04498 -0.06085 -0.04233 l -0.0635,-0.01852 -0.04498,-0.01852 -0.0635,-0.02646 -0.04498,-0.02381 -0.06615,-0.03704 -0.02646,-0.01588 c -0.0291,0.04763 -0.0635,0.0979 -0.09525,0.150812 l -1.505479,2.256896 a 1.2117917,1.2117917 0 0 0 0.153458,1.531937 1.1959167,1.1959167 0 0 0 0.849312,0.354542 z"
         id="path5512"
         style="stroke-width:0.264583" />
      <path
         inkscape:connector-curvature="0"
         d="m 30.742073,36.830848 v 2.116667 a 5.1196874,5.1196874 0 0 1 -0.497417,2.230437 c 0.33073,0.227542 0.587375,0.08996 1.100667,-0.224896 0.664104,-0.407458 1.545167,-0.949854 2.995083,-0.396875 a 5.1964166,5.1964166 0 0 1 -0.264583,-1.608666 v -2.116667 z"
         id="path5514"
         style="stroke-width:0.264583" />
      <polygon
         points="59.88,50.07 74.45,50.07 76.01,50.07 76.01,47.21 58.32,47.21 58.32,50.07 "
         id="polygon5516"
         transform="matrix(0.26458333,0,0,0.26458333,14.63424,23.053994)" />
      <path
         inkscape:connector-curvature="0"
         d="m 17.481157,37.322973 h 8.514291 a 4.3365208,4.3365208 0 0 0 -1.259416,-2.38125 3.2014583,3.2014583 0 0 1 -0.645584,-0.894292 l -0.105833,-0.01852 -0.137583,-0.01323 c -0.05821,0 -0.119063,0 -0.177271,0 -0.05821,0 -0.08731,0 -0.132292,0 h -0.185208 -0.129646 l -0.195792,0.03175 -0.121708,0.02117 c -0.06879,0 -0.140229,0.0291 -0.209021,0.04762 l -0.111125,0.02646 q -0.113771,0.02646 -0.230187,0.0635 l -0.08996,0.02381 -0.264583,0.08467 -0.04763,0.01588 -0.320146,0.103187 -0.185208,0.06085 -0.08467,0.0291 -0.111125,0.0344 -0.09525,0.0291 -0.103187,0.03175 -0.09525,0.02646 -0.113771,0.03175 -0.08202,0.02117 -0.179917,0.04233 -0.07408,0.01323 -0.116417,0.02117 h -0.07938 l -0.108479,0.01323 h -0.07673 -0.111125 -0.08996 -0.07673 -0.08202 -0.07938 -0.07408 a 0.59531249,0.59531249 0 0 1 -0.0926,-0.02381 h -0.05556 a 1.2885208,1.2885208 0 0 1 -0.14023,-0.05556 l -0.03175,-0.01323 -0.0926,-0.05027 -0.04763,-0.03704 a 0.63499999,0.63499999 0 0 1 -0.06879,-0.04762 3.175,3.175 0 0 1 -0.33073,0.373063 4.2756666,4.2756666 0 0 0 -1.272645,2.389187 z"
         id="path5518"
         style="stroke-width:0.264583" />
      <path
         inkscape:connector-curvature="0"
         d="m 19.711594,27.969952 v 4.609042 a 3.3390416,3.3390416 0 0 1 -0.346604,1.497542 c 0.394229,0.391583 1.058333,0.198437 2.092854,-0.14023 0.756708,-0.246062 1.5875,-0.529166 2.420938,-0.468312 a 3.3549166,3.3549166 0 0 1 -0.116417,-0.873125 v -4.624917 z m 1.029229,3.526896 a 0.27516666,0.27516666 0 0 1 0,-0.550333 0.27516666,0.27516666 0 0 1 0,0.550333 z m 1.852084,1.140354 a 0.206375,0.206375 0 1 1 0.206375,-0.206375 0.206375,0.206375 0 0 1 -0.198438,0.206375 z m 0.06879,-2.775479 a 0.26458333,0.26458333 0 1 1 0.277813,-0.264583 0.26458333,0.26458333 0 0 1 -0.269875,0.264583 z"
         id="path5520"
         style="stroke-width:0.264583" />
      <rect
         x="18.949594"
         y="26.62587"
         width="5.5774164"
         height="0.81491661"
         id="rect5522"
         style="stroke-width:0.264583" />
    </g>
  </g>
</svg>
