<?xml version="1.0" encoding="UTF-8" standalone="no"?>
<svg
   xmlns:dc="http://purl.org/dc/elements/1.1/"
   xmlns:cc="http://creativecommons.org/ns#"
   xmlns:rdf="http://www.w3.org/1999/02/22-rdf-syntax-ns#"
   xmlns:svg="http://www.w3.org/2000/svg"
   xmlns="http://www.w3.org/2000/svg"
   xmlns:sodipodi="http://sodipodi.sourceforge.net/DTD/sodipodi-0.dtd"
   xmlns:inkscape="http://www.inkscape.org/namespaces/inkscape"
   width="20"
   height="20"
   viewBox="0 0 20 20"
   version="1.1"
   id="svg838"
   inkscape:version="1.0.1 (3bc2e813f5, 2020-09-07)"
   sodipodi:docname="skill_animal.svg">
  <style
     id="style837"></style>
  <defs
     id="defs832" />
  <sodipodi:namedview
     id="base"
     pagecolor="#ffffff"
     bordercolor="#666666"
     borderopacity="1.0"
     inkscape:pageopacity="0.0"
     inkscape:pageshadow="2"
     inkscape:zoom="15.839192"
     inkscape:cx="0.42982532"
     inkscape:cy="9.9725195"
     inkscape:document-units="mm"
     inkscape:current-layer="g2772"
     inkscape:document-rotation="0"
     showgrid="false"
     units="px"
     inkscape:window-width="1267"
     inkscape:window-height="1040"
     inkscape:window-x="-16"
     inkscape:window-y="47"
     inkscape:window-maximized="0"
     inkscape:pagecheckerboard="true" />
  <metadata
     id="metadata835">
    <rdf:RDF>
      <cc:Work
         rdf:about="">
        <dc:format>image/svg+xml</dc:format>
        <dc:type
           rdf:resource="http://purl.org/dc/dcmitype/StillImage" />
        <dc:title />
      </cc:Work>
    </rdf:RDF>
  </metadata>
  <g
     inkscape:label="Layer 1"
     inkscape:groupmode="layer"
     id="layer1">
    <g
       id="g2772"
       transform="matrix(3.7795276,0,0,3.7795276,-84.180647,-60.12407)"
       style="fill:#000000">
      <g
         id="g842"
         transform="matrix(1.0505257,0,0,1.0505257,-0.96639065,-0.80380116)">
        <path
           id="path5512-3"
           d="m 23.513319,20.270724 c -0.01825,0.04808 -0.03158,0.09272 -0.06056,0.202682 -0.03771,0.143496 -0.04099,0.150742 -0.09891,0.211198 -0.07516,0.0787 -0.132124,0.115516 -0.263878,0.1701 -0.06765,0.02798 -0.09695,0.04432 -0.118425,0.06511 -0.02893,0.02798 -0.04004,0.05495 -0.04427,0.105784 -0.0049,0.06146 0.02962,0.11155 0.102822,0.149261 0.01529,0.0078 0.03708,0.01687 0.04882,0.01989 0.01,0.0026 0.01952,0.0038 0.02766,0.0038 0.01645,0 0.02761,-0.005 0.02761,-0.01391 0,-0.0026 -0.01529,-0.02084 -0.0338,-0.04073 -0.04723,-0.04977 -0.05855,-0.07606 -0.04623,-0.108693 0.0101,-0.02571 0.05469,-0.06083 0.107688,-0.08463 0.02539,-0.01142 0.174703,-0.07093 0.208236,-0.0833 0.03962,-0.01449 0.06871,-0.0219 0.09288,-0.0219 0.02735,0 0.0485,0.0094 0.07146,0.02883 l 0.0156,0.01296 0.318198,-6.88e-4 0.318568,-9.52e-4 -0.001,-0.02449 c -0.003,-0.06336 -0.01952,-0.07606 -0.105731,-0.08098 -0.02444,-0.0013 -0.04554,-0.0032 -0.04623,-0.0042 -0.0029,-0.0026 0.0098,-0.03253 0.03089,-0.07421 0.03771,-0.07389 0.08944,-0.144131 0.119059,-0.161427 0.01,-0.0058 0.01449,-0.0077 0.02645,-0.0077 0.004,0 0.0088,3.18e-4 0.01486,6.35e-4 0.03063,0.0016 0.04781,0.0088 0.06347,0.02671 0.01301,0.01486 0.01656,0.02729 0.02179,0.07712 0.0033,0.03015 0.0068,0.04744 0.01433,0.06638 0.03681,0.09521 0.146087,0.200408 0.20813,0.200408 4.76e-4,0 9.52e-4,0 0.0014,0 0.02116,-3.17e-4 0.03057,-0.0069 0.04231,-0.02962 0.01042,-0.02052 0.01174,-0.04358 0.0036,-0.05961 -0.003,-0.0058 -0.01983,-0.02533 -0.03708,-0.04358 -0.07712,-0.08003 -0.100865,-0.143496 -0.100865,-0.269749 0,-0.128157 0.02507,-0.222252 0.08008,-0.299686 0.0078,-0.01111 0.03417,-0.04168 0.05855,-0.06828 0.07775,-0.08494 0.09304,-0.117791 0.09304,-0.199456 -3.18e-4,-0.04723 -0.0035,-0.0722 -0.01724,-0.122974 -0.02311,-0.08748 -0.01534,-0.129797 0.03348,-0.184487 0.03322,-0.0374 0.03613,-0.05041 0.02438,-0.112607 -0.01301,-0.06802 -0.01788,-0.0979 -0.02475,-0.157407 -0.0088,-0.0749 -0.01529,-0.0915 -0.0384,-0.101235 -0.0066,-0.0029 -0.01322,-0.0043 -0.02005,-0.0043 -0.0081,0 -0.01634,0.002 -0.02481,0.0059 -0.0078,0.0036 -0.02835,0.02179 -0.05109,0.04517 -0.04327,0.04496 -0.06411,0.06024 -0.09209,0.06738 -0.01206,0.003 -0.02359,0.0047 -0.03549,0.0047 -0.03248,0 -0.06813,-0.01217 -0.126888,-0.04147 -0.04649,-0.02311 -0.05823,-0.02798 -0.07161,-0.02798 -0.0015,0 -0.0029,0 -0.0041,0 -0.011,0 -0.01343,0.0017 -0.01931,0.01037 -0.0095,0.0137 -0.01269,0.03909 -0.0098,0.0768 0.0026,0.04126 0.011,0.07579 0.03771,0.156878 0.02602,0.07944 0.0329,0.107317 0.03353,0.137889 6.35e-4,0.03062 -0.0062,0.05083 -0.02179,0.0667 -0.01788,0.01761 -0.03353,0.02253 -0.114246,0.03586 -0.124296,0.02079 -0.204692,0.04459 -0.281121,0.08267 -0.151377,0.07601 -0.265571,0.210986 -0.336816,0.39907 z"
           inkscape:connector-curvature="0"
           style="fill:#000000;stroke-width:0.052892" />
        <path
           id="path5514-6"
           d="m 25.784955,18.619911 0.382303,-0.937828 h 0.372994 c 0.0923,0 0.167721,-0.07437 0.167721,-0.167826 0,-0.05977 -0.03258,-0.11266 -0.07981,-0.142015 l -0.572379,-0.306455 c -0.01698,-0.009 -0.03708,-0.01354 -0.05517,-0.01465 l -0.243409,0.0011 c -0.02359,-0.0293 -0.04517,-0.06421 -0.06082,-0.09801 -0.01798,-0.03829 -0.01016,-0.08452 0.02142,-0.117155 0.02042,-0.02031 0.04728,-0.0293 0.07426,-0.0293 h 0.422607 c 0.05633,0 0.102558,-0.04617 0.102558,-0.103615 0,-0.05633 -0.04628,-0.102558 -0.102558,-0.102558 h -0.427103 c -0.05178,0 -0.09907,0.01243 -0.140798,0.03613 0.03385,-0.292969 0.283977,-0.52051 0.585885,-0.52051 0.05749,0 0.103615,-0.04845 0.103615,-0.104779 0,-0.05744 -0.04612,-0.103669 -0.103615,-0.103669 -0.441596,0 -0.799886,0.358291 -0.799992,0.798881 0,0.125037 0.02935,0.243356 0.07992,0.349299 l -0.203793,-0.0011 c -0.0237,0 -0.04284,0.01915 -0.04284,0.04395 0,0.01243 0.0056,0.0237 0.0146,0.03158 l 0.279375,0.278212 -0.336869,0.518235 H 23.10166 c -0.167826,0 -0.307514,0.138577 -0.315395,0.305293 v 0.848493 c 0,0.01349 0.01127,0.02359 0.02364,0.02359 0.0101,0 0.01909,-0.0057 0.02253,-0.01481 l 0.156613,-0.244361 v 0.38077 l -0.201624,0.319996 0.0011,0.84167 c 0,0.119378 0.09684,0.215059 0.215217,0.215059 0.119377,0 0.216276,-0.09573 0.216276,-0.215059 v -0.79449 l 0.244466,-0.327825 v 0.374 l 0.18454,0.316558 c 0.05252,-0.05342 0.111814,-0.09737 0.178511,-0.130802 0.06136,-0.03047 0.125248,-0.05236 0.208289,-0.07061 l -0.182636,-0.317986 0.194959,-0.296248 h 0.866424 v 1.262902 c 0,0.118266 0.09579,0.215164 0.215112,0.215164 0.119536,0 0.216328,-0.09679 0.216328,-0.215164 v -1.173885 l 0.137942,-0.137995 z"
           inkscape:connector-curvature="0"
           style="fill:#000000;stroke-width:0.052892"
           sodipodi:nodetypes="ccssccccccssssscssscccscccscsscccccsscccccccccsssccc" />
        <g
           transform="matrix(0.05289199,0,0,0.05289199,22.257557,15.909409)"
           id="g5522"
           style="fill:#000000">
          <path
             id="path5518-7"
             d="m 22.911,11.586 c -0.105,-0.018 -0.22,-0.027 -0.341,-0.027 -0.6,0 -1.387,0.23 -2.167,0.538 -0.533,-2.512 -4.845,-8.016 -4.845,-8.594 7.741,-0.65 12.453,9.831 12.77,10.366 -0.003,0.099 -0.042,0.19 -0.099,0.275 -0.541,0.268 -1.129,0.346 -1.459,0.366 -0.672,-0.771 -2.489,-2.721 -3.859,-2.924 z"
             inkscape:connector-curvature="0"
             style="fill:#000000" />
          <path
             id="path5520-5"
             d="m 22.815,12.193 c 1.384,0.198 3.676,2.937 3.676,2.937 0,0 0.023,10e-4 0.066,10e-4 0.374,0 2.208,-0.07 3.069,-1.411 0.057,-0.707 -1.723,-2.287 1.777,-2.739 1.51,-0.339 8.874,-3.928 10.06,-5.764 4.859,11.187 -5.706,12.797 -5.706,12.797 0,0 -0.198,0.734 -0.594,1.159 -0.132,0.142 -0.437,0.188 -0.785,0.188 -0.664,0 -1.483,-0.171 -1.554,-0.187 0.12,0.046 2.056,0.764 2.96,0.846 0.068,0.006 0.167,0.009 0.292,0.009 1.61,0 7.59,-0.461 7.59,-0.461 -1.439,4.771 -4.662,6.028 -7.655,6.028 -3.33,0 -6.375,-1.553 -6.375,-1.553 l 2.618,-0.689 c 0,0 -3.417,-0.133 -4.521,-0.48 -5.35,-1.689 -5.96,-5.876 -5.96,-5.876 0,0 -0.098,-1.954 -4.068,-2.854 0.401,-0.303 3.427,-1.97 4.865,-1.97 0.088,0 0.17,0.006 0.245,0.019 z"
             inkscape:connector-curvature="0"
             style="fill:#000000" />
        </g>
      </g>
    </g>
  </g>
</svg>
