<?xml version="1.0" encoding="UTF-8" standalone="no"?>
<svg
   xmlns:dc="http://purl.org/dc/elements/1.1/"
   xmlns:cc="http://creativecommons.org/ns#"
   xmlns:rdf="http://www.w3.org/1999/02/22-rdf-syntax-ns#"
   xmlns:svg="http://www.w3.org/2000/svg"
   xmlns="http://www.w3.org/2000/svg"
   xmlns:sodipodi="http://sodipodi.sourceforge.net/DTD/sodipodi-0.dtd"
   xmlns:inkscape="http://www.inkscape.org/namespaces/inkscape"
   width="20"
   height="20"
   viewBox="0 0 20 20"
   version="1.1"
   id="svg838"
   inkscape:version="1.0.1 (3bc2e813f5, 2020-09-07)"
   sodipodi:docname="skill_trainer.svg">
  <defs
     id="defs832" />
  <sodipodi:namedview
     id="base"
     pagecolor="#ffffff"
     bordercolor="#666666"
     borderopacity="1.0"
     inkscape:pageopacity="0.0"
     inkscape:pageshadow="2"
     inkscape:zoom="15.839192"
     inkscape:cx="8.6218938"
     inkscape:cy="6.2999683"
     inkscape:document-units="mm"
     inkscape:current-layer="layer1"
     inkscape:document-rotation="0"
     showgrid="false"
     units="px"
     inkscape:window-width="1267"
     inkscape:window-height="1040"
     inkscape:window-x="52"
     inkscape:window-y="0"
     inkscape:window-maximized="0"
     inkscape:pagecheckerboard="true" />
  <metadata
     id="metadata835">
    <rdf:RDF>
      <cc:Work
         rdf:about="">
        <dc:format>image/svg+xml</dc:format>
        <dc:type
           rdf:resource="http://purl.org/dc/dcmitype/StillImage" />
        <dc:title></dc:title>
      </cc:Work>
    </rdf:RDF>
  </metadata>
  <g
     inkscape:label="Layer 1"
     inkscape:groupmode="layer"
     id="layer1">
    <g
       transform="matrix(0.22360297,0,0,0.22360297,-1.1801485,-1.1801485)"
       id="g5578"
       data-name="Group">
      <path
         id="path5576"
         d="m 11,65.89 a 4,4 0 0 0 3,-1.41 v 4 a 4,4 0 0 0 7,2.7 V 73 a 4,4 0 0 0 8,0 V 54 h 42 v 19 a 4,4 0 0 0 8,0 v -1.82 a 4,4 0 0 0 6.9,-2.74 v -4 a 4,4 0 0 0 7,-2.59 V 38.11 a 4,4 0 0 0 -7,-2.59 v -4 A 4,4 0 0 0 79,28.82 V 27 a 4,4 0 1 0 -8,0 V 46 H 29 V 27 a 4,4 0 0 0 -8,0 v 1.87 a 4,4 0 0 0 -6.9,2.74 v 4 a 4,4 0 0 0 -7,2.59 v 23.69 a 4,4 0 0 0 3.9,4 z"
         data-name="Path"
         inkscape:connector-curvature="0" />
    </g>
  </g>
</svg>
