<?xml version="1.0" encoding="UTF-8" standalone="no"?>
<svg
   xmlns:dc="http://purl.org/dc/elements/1.1/"
   xmlns:cc="http://creativecommons.org/ns#"
   xmlns:rdf="http://www.w3.org/1999/02/22-rdf-syntax-ns#"
   xmlns:svg="http://www.w3.org/2000/svg"
   xmlns="http://www.w3.org/2000/svg"
   xmlns:sodipodi="http://sodipodi.sourceforge.net/DTD/sodipodi-0.dtd"
   xmlns:inkscape="http://www.inkscape.org/namespaces/inkscape"
   width="20"
   height="20"
   viewBox="0 0 20 20"
   version="1.1"
   id="svg838"
   inkscape:version="1.0.1 (3bc2e813f5, 2020-09-07)"
   sodipodi:docname="skill_weaponmaster.svg">
  <defs
     id="defs832" />
  <sodipodi:namedview
     id="base"
     pagecolor="#ffffff"
     bordercolor="#666666"
     borderopacity="1.0"
     inkscape:pageopacity="0.0"
     inkscape:pageshadow="2"
     inkscape:zoom="15.839192"
     inkscape:cx="8.6218938"
     inkscape:cy="6.2999683"
     inkscape:document-units="mm"
     inkscape:current-layer="layer1"
     inkscape:document-rotation="0"
     showgrid="false"
     units="px"
     inkscape:window-width="1267"
     inkscape:window-height="1040"
     inkscape:window-x="52"
     inkscape:window-y="0"
     inkscape:window-maximized="0"
     inkscape:pagecheckerboard="true" />
  <metadata
     id="metadata835">
    <rdf:RDF>
      <cc:Work
         rdf:about="">
        <dc:format>image/svg+xml</dc:format>
        <dc:type
           rdf:resource="http://purl.org/dc/dcmitype/StillImage" />
        <dc:title></dc:title>
      </cc:Work>
    </rdf:RDF>
  </metadata>
  <g
     inkscape:label="Layer 1"
     inkscape:groupmode="layer"
     id="layer1">
    <g
       transform="matrix(0.31303877,0,0,0.31303877,-0.01724064,-0.01724064)"
       id="g5618">
      <path
         id="path5602"
         d="M 46,3 H 30 c -0.552,0 -1,0.449 -1,1 v 12 c 0,0.551 0.448,1 1,1 h 4 v -4 c 0,-2.206 1.794,-4 4,-4 2.206,0 4,1.794 4,4 v 4 h 4 c 0.552,0 1,-0.449 1,-1 V 4 C 47,3.449 46.552,3 46,3 Z"
         inkscape:connector-curvature="0" />
      <path
         id="path5604"
         d="m 38,11 c -1.103,0 -2,0.897 -2,2 v 46 c 0,1.103 0.897,2 2,2 1.103,0 2,-0.897 2,-2 V 13 c 0,-1.103 -0.897,-2 -2,-2 z"
         inkscape:connector-curvature="0" />
      <path
         id="path5606"
         d="M 60.813,9.769 49,7.237 v 5.525 L 60.812,10.231 C 60.922,10.208 61,10.111 61,10 61,9.889 60.922,9.792 60.813,9.769 Z"
         inkscape:connector-curvature="0" />
      <rect
         id="rect5608"
         height="2"
         width="4"
         y="49"
         x="53" />
      <path
         id="path5610"
         d="M 55,22.154 C 52.378,27.47 51,33.357 51,39.296 V 47 h 3 V 33 h 2 v 14 h 3.002 L 59,39.296 C 59,33.357 57.622,27.471 55,22.154 Z"
         inkscape:connector-curvature="0" />
      <rect
         id="rect5612"
         height="2"
         width="4"
         y="53"
         x="53" />
      <path
         id="path5614"
         d="m 53,59 c 0,1.103 0.897,2 2,2 1.103,0 2,-0.897 2,-2 v -2 h -4 z"
         inkscape:connector-curvature="0" />
      <path
         id="path5616"
         d="M 17.594,11.068 C 16.327,10.882 15.112,10.484 13.979,9.884 12.925,9.326 11.972,8.608 11.145,7.749 L 7.315,3.769 C 6.845,3.28 6.187,3 5.508,3 4.125,3 3,4.125 3,5.507 v 9.674 c 0,1.747 0.318,3.46 0.945,5.09 l 2.977,7.738 C 7.637,29.871 8,31.825 8,33.818 v 3.15 c 0,2.463 0.646,4.896 1.868,7.035 1.395,2.442 2.132,5.218 2.132,8.028 v 8.31 c 0,0.453 0.495,0.787 0.923,0.604 L 18.395,58.6 C 18.762,58.442 19,58.082 19,57.682 V 48.565 C 19,38.814 20.274,29.093 22.787,19.67 22.928,19.139 23,18.59 23,18.04 v -0.712 c 0,-3.115 -2.324,-5.806 -5.406,-6.26 z M 7,9 H 5 V 7 h 2 z m 4,18 H 9 v -2 h 2 z m 3,9 h -2 v -2 h 2 z m 3,8 h -2 v -2 h 2 z M 13,22 c -2.206,0 -4,-1.794 -4,-4 0,-2.206 1.794,-4 4,-4 v 2 c -1.103,0 -2,0.897 -2,2 0,1.103 0.897,2 2,2 1.103,0 2,-0.897 2,-2 h 2 c 0,2.206 -1.794,4 -4,4 z m 8,-3 h -2 v -2 h 2 z"
         inkscape:connector-curvature="0" />
    </g>
  </g>
</svg>
