<?xml version="1.0" encoding="UTF-8" standalone="no"?>
<svg
   xmlns:dc="http://purl.org/dc/elements/1.1/"
   xmlns:cc="http://creativecommons.org/ns#"
   xmlns:rdf="http://www.w3.org/1999/02/22-rdf-syntax-ns#"
   xmlns:svg="http://www.w3.org/2000/svg"
   xmlns="http://www.w3.org/2000/svg"
   xmlns:sodipodi="http://sodipodi.sourceforge.net/DTD/sodipodi-0.dtd"
   xmlns:inkscape="http://www.inkscape.org/namespaces/inkscape"
   width="20"
   height="20"
   viewBox="0 0 20 20"
   version="1.1"
   id="svg838"
   inkscape:version="1.0.1 (3bc2e813f5, 2020-09-07)"
   sodipodi:docname="skill_entertain.svg">
  <defs
     id="defs832" />
  <sodipodi:namedview
     id="base"
     pagecolor="#ffffff"
     bordercolor="#666666"
     borderopacity="1.0"
     inkscape:pageopacity="0.0"
     inkscape:pageshadow="2"
     inkscape:zoom="15.839192"
     inkscape:cx="8.6218938"
     inkscape:cy="6.2999683"
     inkscape:document-units="mm"
     inkscape:current-layer="layer1"
     inkscape:document-rotation="0"
     showgrid="false"
     units="px"
     inkscape:window-width="1267"
     inkscape:window-height="1040"
     inkscape:window-x="52"
     inkscape:window-y="0"
     inkscape:window-maximized="0"
     inkscape:pagecheckerboard="true" />
  <metadata
     id="metadata835">
    <rdf:RDF>
      <cc:Work
         rdf:about="">
        <dc:format>image/svg+xml</dc:format>
        <dc:type
           rdf:resource="http://purl.org/dc/dcmitype/StillImage" />
        <dc:title></dc:title>
      </cc:Work>
    </rdf:RDF>
  </metadata>
  <g
     inkscape:label="Layer 1"
     inkscape:groupmode="layer"
     id="layer1">
    <g
       transform="matrix(0.33412796,0,0,0.33412796,-0.52503074,-0.69209472)"
       id="g5796">
      <path
         id="path5756"
         d="m 23.414,38 -4.707,4.707 a 1,1 0 0 1 -1.414,0 L 12.586,38 H 9.237 a 31.978,31.978 0 0 0 -1.2,7.546 l 4.253,-4.253 a 1,1 0 0 1 1.414,0 L 18,45.586 22.293,41.293 a 1,1 0 0 1 1.414,0 l 4.253,4.253 A 31.978,31.978 0 0 0 26.763,38 Z"
         inkscape:connector-curvature="0" />
      <polygon
         id="polygon5758"
         points="23,43.414 20.414,46 25.586,46 " />
      <path
         id="path5760"
         d="m 18,60 a 9.1,9.1 0 0 0 7.066,-4 H 10.934 A 9.1,9.1 0 0 0 18,60 Z"
         inkscape:connector-curvature="0" />
      <polygon
         id="polygon5762"
         points="13,43.414 10.414,46 15.586,46 " />
      <path
         id="path5764"
         d="m 9.685,54 h 16.63 a 15.342,15.342 0 0 0 1.643,-6 H 8.042 a 15.342,15.342 0 0 0 1.643,6 z M 23,50 h 2 v 2 h -2 z m -4,0 h 2 v 2 h -2 z m -4,0 h 2 v 2 h -2 z m -4,0 h 2 v 2 h -2 z"
         inkscape:connector-curvature="0" />
      <path
         id="path5766"
         d="m 18,28 c -3.281,0 -6.246,3.2 -8.082,8 H 26.082 C 24.246,31.2 21.281,28 18,28 Z m -1,6 h -2 v -2 h 2 z m 4,0 h -2 v -2 h 2 z"
         inkscape:connector-curvature="0" />
      <path
         id="path5768"
         d="m 18,26 a 6.978,6.978 0 0 1 1.414,0.159 C 19.726,24 20.161,20.873 20.5,18 h -5 c 0.337,2.873 0.772,6 1.084,8.159 A 6.978,6.978 0 0 1 18,26 Z"
         inkscape:connector-curvature="0" />
      <path
         id="path5770"
         d="M 20.719,16 C 20.888,14.359 21,12.926 21,12 h -6 c 0,0.926 0.112,2.359 0.281,4 z"
         inkscape:connector-curvature="0" />
      <path
         id="path5772"
         d="m 21,7 a 3,3 0 0 0 -6,0 v 3 h 6 z"
         inkscape:connector-curvature="0" />
      <polygon
         id="polygon5774"
         points="18,40.586 20.586,38 15.414,38 " />
      <polygon
         id="polygon5776"
         points="40,20.586 42.586,18 37.414,18 " />
      <polygon
         id="polygon5778"
         points="45,23.414 42.414,26 47.586,26 " />
      <path
         id="path5780"
         d="m 50.707,22.707 a 1,1 0 0 1 -1.414,0 L 45,18.414 40.707,22.707 a 1,1 0 0 1 -1.414,0 L 35.04,18.454 A 31.978,31.978 0 0 0 36.237,26 h 3.349 l 4.707,-4.707 a 1,1 0 0 1 1.414,0 L 50.414,26 h 3.349 a 31.978,31.978 0 0 0 1.2,-7.546 z"
         inkscape:connector-curvature="0" />
      <polygon
         id="polygon5782"
         points="50,20.586 52.586,18 47.414,18 " />
      <path
         id="path5784"
         d="M 45,4 A 9.1,9.1 0 0 0 37.934,8 H 52.066 A 9.1,9.1 0 0 0 45,4 Z"
         inkscape:connector-curvature="0" />
      <path
         id="path5786"
         d="m 53.315,10 h -16.63 a 15.342,15.342 0 0 0 -1.643,6 H 54.958 A 15.342,15.342 0 0 0 53.315,10 Z M 40,14 h -2 v -2 h 2 z m 4,0 h -2 v -2 h 2 z m 4,0 h -2 v -2 h 2 z m 4,0 h -2 v -2 h 2 z"
         inkscape:connector-curvature="0" />
      <path
         id="path5788"
         d="M 42.281,48 C 42.112,49.641 42,51.074 42,52 h 6 c 0,-0.926 -0.112,-2.359 -0.281,-4 z"
         inkscape:connector-curvature="0" />
      <path
         id="path5790"
         d="M 45,38 A 6.978,6.978 0 0 1 43.586,37.841 C 43.274,40 42.839,43.127 42.5,46 h 5 C 47.163,43.127 46.728,40 46.416,37.841 A 6.978,6.978 0 0 1 45,38 Z"
         inkscape:connector-curvature="0" />
      <path
         id="path5792"
         d="m 42,57 a 3,3 0 0 0 6,0 v -3 h -6 z"
         inkscape:connector-curvature="0" />
      <path
         id="path5794"
         d="m 45,36 c 3.281,0 6.246,-3.2 8.082,-8 H 36.918 c 1.836,4.8 4.801,8 8.082,8 z m 1,-6 h 2 v 2 h -2 z m -4,0 h 2 v 2 h -2 z"
         inkscape:connector-curvature="0" />
    </g>
  </g>
</svg>
