<?xml version="1.0" encoding="UTF-8" standalone="no"?>
<svg
   xmlns:dc="http://purl.org/dc/elements/1.1/"
   xmlns:cc="http://creativecommons.org/ns#"
   xmlns:rdf="http://www.w3.org/1999/02/22-rdf-syntax-ns#"
   xmlns:svg="http://www.w3.org/2000/svg"
   xmlns="http://www.w3.org/2000/svg"
   xmlns:sodipodi="http://sodipodi.sourceforge.net/DTD/sodipodi-0.dtd"
   xmlns:inkscape="http://www.inkscape.org/namespaces/inkscape"
   width="20"
   height="20"
   viewBox="0 0 20 20"
   version="1.1"
   id="svg838"
   inkscape:version="1.0.1 (3bc2e813f5, 2020-09-07)"
   sodipodi:docname="skill_hypnotic.svg">
  <defs
     id="defs832" />
  <sodipodi:namedview
     id="base"
     pagecolor="#ffffff"
     bordercolor="#666666"
     borderopacity="1.0"
     inkscape:pageopacity="0.0"
     inkscape:pageshadow="2"
     inkscape:zoom="15.839192"
     inkscape:cx="8.6218938"
     inkscape:cy="6.2999683"
     inkscape:document-units="mm"
     inkscape:current-layer="layer1"
     inkscape:document-rotation="0"
     showgrid="false"
     units="px"
     inkscape:window-width="1267"
     inkscape:window-height="1040"
     inkscape:window-x="52"
     inkscape:window-y="0"
     inkscape:window-maximized="0"
     inkscape:pagecheckerboard="true" />
  <metadata
     id="metadata835">
    <rdf:RDF>
      <cc:Work
         rdf:about="">
        <dc:format>image/svg+xml</dc:format>
        <dc:type
           rdf:resource="http://purl.org/dc/dcmitype/StillImage" />
        <dc:title />
      </cc:Work>
    </rdf:RDF>
  </metadata>
  <g
     inkscape:label="Layer 1"
     inkscape:groupmode="layer"
     id="layer1">
    <path
       style="stroke-width:0.659834"
       id="path5734"
       d="m 13.861695,10.615324 c -0.136599,0 -0.26791,0.02054 -0.399201,0.04157 l -2.92439,-7.7530466 h 0.647958 V -0.00140628 H 8.2814675 V 2.9038454 H 9.0317039 L 6.4398693,10.646335 c -0.09898,-0.01182 -0.1979605,-0.03112 -0.3008924,-0.03112 -1.4397622,0 -2.6096485,1.169886 -2.6096485,2.609645 0,1.439763 1.1698863,2.609649 2.6096485,2.609649 1.4390995,0 2.6089889,-1.169886 2.6089889,-2.609649 0,-1.157349 -0.7621102,-2.129287 -1.8066299,-2.469762 L 9.5707773,2.9044023 h 0.4216352 l 2.9718955,7.8797327 c -0.99503,0.368191 -1.711611,1.31835 -1.711611,2.440729 0,1.439762 1.169886,2.609648 2.608329,2.609648 1.439759,0 2.609645,-1.169886 2.609645,-2.609648 0,-1.439759 -1.169886,-2.609646 -2.608986,-2.609646 z m -5.6627069,2.609649 c 0,1.136234 -0.9244272,2.060665 -2.0600019,2.060665 -1.1362374,0 -2.0606646,-0.924431 -2.0606646,-2.060665 0,-1.135578 0.9244272,-2.060005 2.0606646,-2.060005 1.1355747,0 2.0600019,0.924427 2.0600019,2.060005 z"
       inkscape:connector-curvature="0" />
  </g>
</svg>
