<?xml version="1.0" encoding="UTF-8" standalone="no"?>
<svg
   xmlns:dc="http://purl.org/dc/elements/1.1/"
   xmlns:cc="http://creativecommons.org/ns#"
   xmlns:rdf="http://www.w3.org/1999/02/22-rdf-syntax-ns#"
   xmlns:svg="http://www.w3.org/2000/svg"
   xmlns="http://www.w3.org/2000/svg"
   xmlns:sodipodi="http://sodipodi.sourceforge.net/DTD/sodipodi-0.dtd"
   xmlns:inkscape="http://www.inkscape.org/namespaces/inkscape"
   width="20"
   height="20"
   viewBox="0 0 20 20"
   version="1.1"
   id="svg838"
   inkscape:version="1.0.1 (3bc2e813f5, 2020-09-07)"
   sodipodi:docname="skill_intimidating.svg">
  <defs
     id="defs832" />
  <sodipodi:namedview
     id="base"
     pagecolor="#ffffff"
     bordercolor="#666666"
     borderopacity="1.0"
     inkscape:pageopacity="0.0"
     inkscape:pageshadow="2"
     inkscape:zoom="15.839192"
     inkscape:cx="8.6218938"
     inkscape:cy="6.2999683"
     inkscape:document-units="mm"
     inkscape:current-layer="layer1"
     inkscape:document-rotation="0"
     showgrid="false"
     units="px"
     inkscape:window-width="1298"
     inkscape:window-height="1040"
     inkscape:window-x="52"
     inkscape:window-y="0"
     inkscape:window-maximized="0"
     inkscape:pagecheckerboard="true" />
  <metadata
     id="metadata835">
    <rdf:RDF>
      <cc:Work
         rdf:about="">
        <dc:format>image/svg+xml</dc:format>
        <dc:type
           rdf:resource="http://purl.org/dc/dcmitype/StillImage" />
        <dc:title />
      </cc:Work>
    </rdf:RDF>
  </metadata>
  <g
     inkscape:label="Layer 1"
     inkscape:groupmode="layer"
     id="layer1">
    <g
       id="g5583"
       transform="matrix(-1.7040175,0,0,1.7040175,76.84343,-52.783179)">
      <path
         style="stroke-width:0.264583"
         id="path5540"
         d="m 41.074721,37.569664 c -1.171575,-1.327415 -3.441964,-4.405842 -4.677039,-5.799667 -0.581025,-0.655373 -1.625865,-0.619125 -2.24499,0 -0.619389,0.61939 -0.654579,1.663435 0,2.24499 1.416844,1.258887 4.56565,3.599127 5.893065,4.770966 0.0299,0.02646 0.06535,0.05821 0.09895,0.08837 l 1.107281,-1.107281 c -0.06535,-0.07197 -0.126206,-0.1397 -0.177271,-0.197379 z"
         inkscape:connector-curvature="0" />
      <path
         style="stroke-width:0.264583"
         id="path5542"
         d="m 42.333344,38.930416 -1.02235,1.02235 c 0.129117,0.121179 0.257969,0.242887 0.385498,0.363008 l 1.000654,-1.00039 c -0.120385,-0.127 -0.242094,-0.255852 -0.363802,-0.384968 z"
         inkscape:connector-curvature="0" />
      <path
         style="stroke-width:0.264583"
         id="path5544"
         d="m 43.822419,40.497543 c -0.161396,-0.168804 -0.436827,-0.4572 -0.761206,-0.798513 l -0.980281,0.980282 c 0.342106,0.324643 0.631825,0.600868 0.800629,0.762 0.07038,-0.109273 0.151077,-0.216694 0.251354,-0.316971 l 0.374121,-0.374121 c 0.0979,-0.0979 0.204787,-0.181504 0.315383,-0.252677 z"
         inkscape:connector-curvature="0" />
      <path
         style="stroke-width:0.264583"
         id="path5546"
         d="m 41.609973,38.157303 -1.073679,1.073679 c 0.121973,0.112713 0.252148,0.233098 0.388144,0.360098 l 1.046427,-1.046427 c -0.125413,-0.134144 -0.24765,-0.265112 -0.360892,-0.38735 z"
         inkscape:connector-curvature="0" />
      <path
         style="stroke-width:0.264583"
         id="path5548"
         d="m 44.723061,40.843882 c -0.0463,-0.04604 -0.119592,-0.05583 -0.172773,-0.05583 -0.160867,0 -0.421217,0.08837 -0.669131,0.336286 l -0.374121,0.374121 c -0.316177,0.316177 -0.410369,0.712258 -0.280723,0.842168 0.04604,0.04604 0.119327,0.05583 0.172773,0.05583 0.160866,0 0.420952,-0.08837 0.669131,-0.336285 l 0.374385,-0.374385 c 0.161925,-0.161925 0.278871,-0.358246 0.320146,-0.538428 0.03149,-0.13626 0.01693,-0.246856 -0.03969,-0.303477 z"
         inkscape:connector-curvature="0" />
    </g>
  </g>
</svg>
