<?xml version="1.0" encoding="UTF-8" standalone="no"?>
<svg
   xmlns:dc="http://purl.org/dc/elements/1.1/"
   xmlns:cc="http://creativecommons.org/ns#"
   xmlns:rdf="http://www.w3.org/1999/02/22-rdf-syntax-ns#"
   xmlns:svg="http://www.w3.org/2000/svg"
   xmlns="http://www.w3.org/2000/svg"
   xmlns:sodipodi="http://sodipodi.sourceforge.net/DTD/sodipodi-0.dtd"
   xmlns:inkscape="http://www.inkscape.org/namespaces/inkscape"
   width="20"
   height="20"
   viewBox="0 0 20 20"
   version="1.1"
   id="svg838"
   inkscape:version="1.0.1 (3bc2e813f5, 2020-09-07)"
   sodipodi:docname="skill_greatmemory.svg">
  <defs
     id="defs832" />
  <sodipodi:namedview
     id="base"
     pagecolor="#ffffff"
     bordercolor="#666666"
     borderopacity="1.0"
     inkscape:pageopacity="0.0"
     inkscape:pageshadow="2"
     inkscape:zoom="15.839192"
     inkscape:cx="8.6218938"
     inkscape:cy="6.2999683"
     inkscape:document-units="mm"
     inkscape:current-layer="layer1"
     inkscape:document-rotation="0"
     showgrid="false"
     units="px"
     inkscape:window-width="1267"
     inkscape:window-height="1040"
     inkscape:window-x="52"
     inkscape:window-y="0"
     inkscape:window-maximized="0"
     inkscape:pagecheckerboard="true" />
  <metadata
     id="metadata835">
    <rdf:RDF>
      <cc:Work
         rdf:about="">
        <dc:format>image/svg+xml</dc:format>
        <dc:type
           rdf:resource="http://purl.org/dc/dcmitype/StillImage" />
        <dc:title></dc:title>
      </cc:Work>
    </rdf:RDF>
  </metadata>
  <g
     inkscape:label="Layer 1"
     inkscape:groupmode="layer"
     id="layer1">
    <path
       style="stroke-width:0.206235"
       id="path5682"
       d="M 18.191495,5.770276 C 18.025271,4.4408875 16.892007,3.4117751 15.517449,3.4117751 c -0.05734,0 -0.113839,0.00312 -0.170343,0.0068 0.286034,0.4871282 0.451037,1.0538608 0.451037,1.65854 0,0.170759 -0.138368,0.3093543 -0.309354,0.3093543 -0.170759,0 -0.309354,-0.1383685 -0.309354,-0.3093543 0,-1.4708638 -1.196576,-2.6672354 -2.667236,-2.6672354 -0.0049,0 -0.0094,-0.00125 -0.01436,-0.00148 C 11.948636,2.4112797 11.438411,2.5774958 11.01295,2.861085 10.489933,2.2906425 9.7388272,1.9330312 8.9041903,1.9330312 c -0.6945978,0 -1.3306243,0.2480881 -1.8257954,0.6599508 0.5219793,0.3037984 0.9614666,0.7513171 1.2578269,1.3093871 0.08005,0.1507653 0.022677,0.3380409 -0.1280504,0.4182463 -0.046186,0.024567 -0.095887,0.036283 -0.1447559,0.036283 -0.1107401,0 -0.2178141,-0.059603 -0.2734488,-0.1643716 C 7.4486754,3.5496938 6.8746935,3.0862821 6.2069039,2.883348 5.9870488,2.8272598 5.757314,2.7967212 5.519937,2.7967212 c -1.3262967,0 -2.4350174,0.9278513 -2.7146684,2.1695888 -1.2396813,0.2425323 -2.17536757,1.3343433 -2.17536757,2.6451742 0,0.4122633 0.0940724,0.8018381 0.25942678,1.1512025 C 1.3059224,8.4811875 1.7920188,8.2947396 2.3164736,8.2367881 c 0.1827402,-0.020409 0.3421607,0.1243465 0.3421607,0.3081071 0,0.1569638 -0.1175434,0.2893228 -0.2734489,0.3064818 -1.2848428,0.1410521 -2.2844635,1.230187 -2.2844635,2.552776 0,1.372082 1.0757215,2.492761 2.429862,2.56515 h 3.206332 c 0.1487244,0 0.2852031,0.09963 0.3144945,0.245216 0.039798,0.198841 -0.111156,0.373266 -0.3027402,0.373266 H 3.7422135 c 0.011716,1.026641 0.8472113,1.855495 1.8767395,1.855495 h 0.9833235 v 1.623689 H 8.0991321 L 10.5424,14.404648 c 0.325833,0.120869 0.677893,0.187049 1.045198,0.187049 1.559547,0 2.846045,-1.190177 2.999479,-2.709925 0.525282,0 2.245077,0.0049 2.302613,0.0049 1.662051,0 3.009588,-1.347541 3.009588,-3.0097927 0,-1.1316132 -0.318198,-2.0980271 -1.707832,-3.1067263 z M 8.1264014,11.983105 c -0.045581,0.02381 -0.094639,0.03515 -0.142715,0.03515 -0.1115717,0 -0.2192504,-0.06066 -0.2745071,-0.166412 -0.2470677,-0.473931 -0.9257954,-0.602624 -1.2033828,-0.636031 -0.4706268,0.637886 -1.2270992,1.052621 -2.0788498,1.052621 -0.170759,0 -0.3093543,-0.138369 -0.3093543,-0.309355 0,-0.170985 0.1383685,-0.309354 0.3093543,-0.309354 1.0831446,0 1.9641827,-0.881238 1.9641827,-1.9641787 0,-0.1707591 0.1383685,-0.3093543 0.3093543,-0.3093543 0.1709859,0 0.3093544,0.1383685 0.3093544,0.3093543 0,0.3371717 -0.065575,0.6591227 -0.1837606,0.9546597 0.4425789,0.08806 1.1155276,0.319445 1.4316813,0.925791 0.078992,0.15137 0.020409,0.33823 -0.1313763,0.417211 z M 12.340813,8.8945317 c 0.0057,0.1901481 -0.161273,0.3400819 -0.349984,0.315326 C 11.837984,9.1898262 11.72766,9.0601506 11.722104,8.9060593 11.710388,8.5785254 11.597947,8.2632221 11.394381,7.9980051 11.135975,7.6612114 10.761858,7.4452946 10.34114,7.3900265 c -0.296995,-0.039194 -0.5980797,0.00718 -0.8678397,0.1303559 -0.034772,0.015874 -0.068674,0.034394 -0.1020851,0.053216 -0.138822,0.078576 -0.6209726,0.3268913 -1.2064743,0.3268913 -0.1748788,0 -0.3512315,-0.019276 -0.5261066,-0.057524 C 7.0061115,7.7037651 6.4657751,7.3265494 6.1170343,6.7808536 6.0190689,6.6274048 6.073343,6.4203623 6.240965,6.3368309 6.3840957,6.2654735 6.558143,6.3243585 6.6451855,6.4584939 6.9052548,6.8589991 7.3059603,7.130819 7.7716436,7.2390949 8.4334502,7.3929217 9.12702,7.0006823 9.1325834,6.9969405 9.7081904,6.6290413 10.024344,5.9779308 9.9577337,5.2975629 9.9411037,5.1276353 10.065375,4.9762275 10.235302,4.9597487 c 0.169323,-0.017008 0.321336,0.107641 0.337814,0.2775685 0.0534,0.5463156 -0.07816,1.0777852 -0.356976,1.5230438 0.06849,0.0025 0.137121,0.00794 0.205417,0.01663 0.415151,0.054652 0.797099,0.2221229 1.112433,0.481973 0.416594,-0.2435906 0.69233,-0.6723251 0.735435,-1.1604813 0.01436,-0.1598362 0.138369,-0.2947276 0.298847,-0.2996788 0.187465,-0.00567 0.333279,0.1517859 0.319068,0.3334678 -0.05155,0.6537637 -0.398033,1.2339061 -0.929707,1.5904856 0.239206,0.3491527 0.370394,0.7531692 0.383169,1.1716196 z m 1.7101,1.7509343 c -0.170759,0 -0.309354,-0.138369 -0.309354,-0.309354 0,-0.17076 0.138368,-0.309355 0.309354,-0.309355 1.083145,0 1.964183,-0.8812419 1.964183,-1.9641824 0,-0.1707591 0.138368,-0.3093544 0.309354,-0.3093544 0.170986,0 0.309354,0.1383685 0.309354,0.3093544 -2.07e-4,1.4242583 -1.158837,2.5828834 -2.582887,2.5828834 z"
       inkscape:connector-curvature="0" />
  </g>
</svg>
