<svg version="1.1" viewBox="0 0 20 20" xmlns="http://www.w3.org/2000/svg">
 <defs>
  <style type="text/css">.str0 {stroke:black;stroke-width:8.46}
    .fil0 {fill:none}
    .fil1 {fill:black}</style>
  <style type="text/css">.fil0 {fill:black}</style>
 </defs>
 <g>
  <path d="m10.214 0.96449 0.15625 1.6183 2.3214-0.22321-0.08929-1.3281z" style="fill-rule:evenodd;fill:#ffff00"/>
  <g transform="matrix(.058733 0 0 .058733 .60613 .63649)" style="clip-rule:evenodd;fill-rule:evenodd;fill:#80b3ff;image-rendering:optimizeQuality;shape-rendering:geometricPrecision;stroke-width:5.1078;stroke:#000000">
   <path class="fil0" d="m8 288 9 19 33 34 83-24 47-66-1 10-14 24c20 16 42 2 44-9l-1-21 13 11 2 20-15 21 2 12 24 2 47-17c-8-8-24-12-37-12l1-16 31-46c-19-34-40-53-66-44l-15 25 4-28c8-5 22-4 35-1l-4-40 46 6 17-23 32-6-15-6 14-12-18 3 8-20-16 19-10-16 1 20-15 21-12-9 16-3-13-5 14-11-14 1 5-18-15 18-6-13-2 18-13-9c-2.5114-3.1981-3.5471-3.7587-11-13l34-14v-20l-57-3 53-17v-19l-43-18-61 5-17 25 3 40 26 21-16 25-6 105-50 93-43 11s-39-30-38-30zm174-277c5 0 10 3 10 6s-5 5-10 5c-6 0-10-2-10-5s4-6 10-6z" style="fill:#80b3ff;stroke-width:5.1078;stroke:#000000"/>
  </g>
  <g transform="translate(.50424 -.47521)" style="fill-rule:evenodd">
   <path d="m3.1027 20.848s3.8393-1.3393 4.4196-1.7411c0.58036-0.40179 3.2813-3.7054 3.2813-3.7054l-3.0134 4.2411z"/>
   <path d="m15.784 18.942-2.4465 0.11048 0.36302-0.39459-0.0947-3.3461-1.8309-1.7362-0.9628 1.752 2.4149 1.3416 0.15784 1.2469-0.91545 1.2943 0.06313 0.44194 1.2627 0.17362 2.2097-0.80496z"/>
   <path d="m12.042 15.658-1.1719-0.35714-0.08929 1.1607-0.75893 1.3728 0.84821 0.33482 0.75893-0.18973 0.65848-0.625z"/>
   <path d="m9.7859 5.9841 1.389 0.29989-2.4465 1.31z"/>
   <path d="m16.241 9.6933-2.2255-0.91545-0.55243 0.53664z"/>
   <path d="m8.0826 3.9407 1.1335 1.1547 1.0064 0.60381 0.95244 0.58484-1.617-0.23872-1.1681-1.0453-0.44492-0.63559-0.010593-0.48729 0.21186 0.11653z"/>
   <path d="m11.175 6.284s0.3268 3.4958 0.26127 3.7221c-0.06553 0.22625-1.0992 3.1026-1.4588 3.9715-0.35955 0.8689-4.6483 5.1651-4.6483 5.1651l2.9366-5.4622 0.3524-6.167z"/>
   <path d="m2.8036 19.789 0.19261 1.2 2.4719-1.7827-2.6645 0.58279"/>
   <path d="m11.568 14.025 0.44492-1.0169 0.42373-0.65678 1.6314 1.6737 0.7839 0.72034-1.2712 2.9237-0.36017-1.8432-1.5042-0.36017z"/>
   <path d="m14.367 9.0039-1.8577-1.3183 1.1236 1.9475z"/>
   <path d="m15.196 5.223-2.8022 0.45496 0.80528 0.36731z"/>
   <path d="m8.3051 1.9068 0.084746 3.0932-0.35899-0.18812-0.34017-2.5449z"/>
  </g>
 </g>
</svg>
