<svg version="1.1" viewBox="0 0 20 20" xmlns="http://www.w3.org/2000/svg">
 <defs>
  <style type="text/css">.str0 {stroke:black;stroke-width:8.46}
    .fil0 {fill:none}
    .fil1 {fill:black}</style>
  <style type="text/css">.fil0 {fill:black}</style>
  <clipPath id="b">
   <path d="m5.497 11.472c-0.129-2.465 0.76-4.876 2.459-6.667 1.7-1.791 4.06-2.805 6.529-2.805h3.07c2.469 0 4.829 1.014 6.529 2.805 1.699 1.791 2.588 4.202 2.459 6.667-0.129 2.453-0.258 4.91-0.353 6.72-0.099 1.868-0.671 3.68-1.665 5.265-0.537 0.857-1.155 1.843-1.746 2.786-1.465 2.338-4.03 3.757-6.789 3.757-2.79 0-5.379-1.449-6.839-3.826-0.573-0.934-1.169-1.906-1.688-2.75-0.96-1.564-1.513-3.344-1.61-5.178-0.095-1.815-0.225-4.296-0.356-6.774z" style="clip-rule:evenodd"/>
  </clipPath>
 </defs>
 <path d="m23.424-16.407h37.22v37.22h-37.22z" style="fill:none;stroke-width:1.1631"/>
 <path d="m0.059322-0.025424h20.475v20.475h-20.475z" style="fill:none;stroke-width:.63983"/>
 <path d="m11.185 0.99153 0.08874 5.7627e-4c0.2161 0.004034 0.43163 0.016712 0.64658 0.041492 0.4783 0.055322 0.94969 0.16481 1.4032 0.32675 0.83098 0.29678 1.598 0.76817 2.2377 1.3767 0.60508 0.5757 1.092 1.2701 1.4292 2.0319l0.34959 1.0493 2.1768-2.1471v1.4424l-1.0511 6.8323-0.01268 0.07434c-0.01613 0.07492-0.01901 0.09393-0.03919 0.1677-0.03688 0.13658-0.08644 0.2697-0.1481 0.39763-0.11871 0.24607-0.28122 0.46966-0.47773 0.65925v5.2026l-0.48753 0.30081-0.66502-0.33251v1.0165h-1.2666l-2.6589-0.5319c-0.20054 0.09278-0.40685 0.17403-0.61719 0.24319-0.57914 0.19075-1.1883 0.28814-1.798 0.28871h-0.0052c-0.06224 0-0.12448-0.0012-0.18671-0.0029-0.58492-0.01901-1.1664-0.12736-1.719-0.32098-0.17346-0.06051-0.34346-0.12909-0.51-0.20631l-2.6497 0.53019h-1.2666v-1.0165l-0.66502 0.33251-0.48753-0.30081v-5.2026c-0.21668-0.20919-0.39186-0.45986-0.51288-0.7359-0.079525-0.18095-0.13139-0.36939-0.16481-0.56302l-1.0511-6.8323v-1.4424l2.2615 1.8928 0.28041-0.77892c0.21783-0.49617 0.49847-0.9641 0.83502-1.3888 0.71688-0.9059 1.681-1.6066 2.7644-2.0089 0.476-0.17634 0.97332-0.29563 1.4781-0.35383 0.21495-0.02478 0.43047-0.037458 0.64658-0.041492l0.088746-5.7627e-4z" style="stroke-width:.57627"/>
 <path d="m7.7373 10.212v8.3178l-3.1992 0.63983v-1.9195l-1.2797 0.63983v-7.678zm9.5975 0v7.678l-1.2797-0.63983v1.9195l-3.1992-0.63983v-8.3178z" style="fill:#e6e6e6;stroke-width:.63983"/>
 <path d="m19.085 5.5526-0.0723 0.12989-0.95719 6.2262s0.01472 0.10173 0.03135 0.10877c-0.10557 0.469-0.46644 0.84202-0.93799 0.95975-0.74796 0.18747-1.7339 0.4338-1.7339 0.4338v-5.1186l3.839-3.839z" style="fill:#827599;stroke-width:.63983"/>
 <path d="m1.5079 5.5526 0.072301 0.12989 0.95719 6.2262s-0.014716 0.10173-0.031352 0.10877c0.10557 0.469 0.46644 0.84202 0.93799 0.95975 0.74796 0.18747 1.7339 0.4338 1.7339 0.4338v-5.1186l-3.839-3.839z" style="fill:#827599;stroke-width:.63983"/>
 <path d="m19.085 5.5526-0.9815 6.3778c-0.0045 0.02943-0.01024 0.05886-0.01664 0.08702-0.13948-0.0627-0.26745-0.151-0.3775-0.26105-0.23994-0.23994-0.37494-0.56561-0.37494-0.90472v-3.5312c0.58992-0.58289 1.1734-1.1722 1.7506-1.7679z" style="fill:#664e79;stroke-width:.63983"/>
 <path d="m1.5079 5.5526 0.9815 6.3778c0.00448 0.02943 0.010237 0.05886 0.016636 0.08702 0.13948-0.0627 0.26745-0.151 0.3775-0.26105 0.23994-0.23994 0.37494-0.56561 0.37494-0.90472v-3.5312c-0.58992-0.58289-1.1734-1.1722-1.7506-1.7679z" style="fill:#664e79;stroke-width:.63983"/>
 <path d="m3.5765 7.3147c-0.082538-1.5772 4.1711-4.7808 5.7508-4.7808h1.9643c1.5797 0 5.8333 3.2036 5.7508 4.7808-0.0787 1.4959-0.1574 2.9938-0.21754 4.1339-0.06846 1.304-0.46836 2.5683-1.1613 3.6745-0.32247 0.51442-0.68334 1.0903-1.0295 1.6424-0.93735 1.4959-2.5785 2.4038-4.3438 2.4038-1.7851 0-3.4416-0.92711-4.3758-2.448-0.33527-0.54706-0.68398-1.1146-0.99494-1.6207-0.6699-1.0922-1.0564-2.3347-1.1235-3.6144-0.060144-1.144-0.13948-2.6591-0.21946-4.1717z" style="fill:#827599;stroke-width:.63983"/>
 <path d="m9.0169 9.4709c0-0.14268-0.056945-0.27961-0.15804-0.3807-0.10109-0.10109-0.23802-0.15804-0.3807-0.15804h-2.6604c-0.2425 0-0.46388 0.13692-0.57201 0.35383-0.10877 0.2169-0.085097 0.47603 0.060144 0.6699 0.26361 0.35191 0.54769 0.73069 0.7678 1.0237 0.10173 0.13564 0.25337 0.22522 0.42165 0.24953 0.16764 0.02367 0.33847-0.01983 0.47411-0.12157 0.63599-0.47667 1.6725-1.2541 1.9668-1.4754 0.050547-0.03775 0.080619-0.09726 0.080619-0.1606zm2.5593-0.0058c0-0.29432 0.23866-0.53298 0.53298-0.53298h2.6662c0.2425 0 0.46388 0.13692 0.57201 0.35383 0.10877 0.2169 0.0851 0.47603-0.06014 0.6699-0.26361 0.35191-0.5477 0.73069-0.7678 1.0237-0.10173 0.13564-0.25337 0.22522-0.42165 0.24953-0.16764 0.02367-0.33847-0.01983-0.47411-0.12157-0.63215-0.47412-1.661-1.2458-1.9624-1.4716-0.05375-0.04031-0.0851-0.10365-0.0851-0.1702v-6.4e-4z" style="stroke-width:.63983"/>
 <path d="m3.5765 7.3147c-0.082538-1.5772 0.48627-3.1198 1.5733-4.2658 1.0877-1.1459 2.5977-1.7947 4.1775-1.7947h1.9643c1.5797 0 3.0897 0.64879 4.1775 1.7947 1.0871 1.1459 1.6559 2.6886 1.5733 4.2658-0.08254 1.5695-0.16508 3.1416-0.22586 4.2997-0.06334 1.1952-0.42933 2.3546-1.0653 3.3687-0.34359 0.54834-0.739 1.1792-1.1171 1.7826-0.93735 1.4959-2.5785 2.4038-4.3438 2.4038-1.7851 0-3.4416-0.92711-4.3758-2.448-0.36662-0.5976-0.74796-1.2195-1.08-1.7595-0.61424-1.0007-0.96806-2.1396-1.0301-3.313-0.060784-1.1613-0.14396-2.7487-0.22778-4.3342z" style="fill:none;stroke-width:.63983"/>
 <g transform="matrix(.63983 0 0 .63983 .059322 -.025424)" clip-path="url(#b)">
  <path d="m16 10-3-3v6c-1.657 0-3-1.343-3-3v-1l-3 10-2-2.5v-15.5h22v15.5l-2 2.5-3-10v1.002c0 0.795-0.316 1.558-0.878 2.12s-1.325 0.878-2.12 0.878h-2e-3v-6z" style="fill:#e6e6e6"/>
 </g>
 <path d="m12.879 14.691c0.10877 0.0064 0.21178 0.03391 0.30584 0.09086 0.05183 0.03071 0.09853 0.06846 0.13948 0.11197 0.17467 0.18747 0.2201 0.469 0.11389 0.70189-0.03519 0.07614-0.0851 0.14588-0.14588 0.20283-0.07166 0.0659-0.15484 0.11133-0.24634 0.14268-0.47603 0.13308-0.95847 0.24378-1.439 0.36022-0.37302 0.08382-0.7518 0.13628-1.1344 0.14844-0.35191 0.01024-0.70509-0.01088-1.0532-0.06462-0.14524-0.0224-0.28984-0.05183-0.43317-0.08383-0.469-0.11389-0.93607-0.23354-1.4044-0.35063-0.092775-0.02623-0.17851-0.06654-0.25337-0.12861-0.064623-0.05375-0.11837-0.11965-0.1574-0.19387-0.028153-0.05311-0.047987-0.11005-0.060144-0.16892-0.044148-0.21306 0.026233-0.4402 0.18363-0.5912 0.051826-0.04927 0.11197-0.09022 0.17723-0.12029 0.12221-0.05567 0.25401-0.06782 0.38582-0.04607 0.47603 0.10493 0.94567 0.23866 1.4198 0.35319 0.29048 0.06526 0.58481 0.10621 0.88233 0.11517 0.38966 0.01216 0.77676-0.02943 1.1562-0.11517 0.4626-0.11197 0.92328-0.23034 1.3846-0.34551 0.03583-0.0077 0.03519-0.0077 0.07102-0.01344 0.03583-0.0038 0.07102-0.0058 0.10749-0.0051zm-0.65391-1.6917-0.94567 0.56817-0.05247 0.03007c-0.1542 0.0819-0.3148 0.14716-0.48499 0.18811-0.35511 0.08446-0.73197 0.0659-1.0768-0.05438-0.12284-0.04287-0.23865-0.09918-0.35126-0.1638l-0.94567-0.56817 0.65775-1.0967c0.32056 0.19195 0.63727 0.38902 0.96103 0.57521 0.14716 0.0787 0.31736 0.10173 0.47923 0.05758 0.05823-0.016 0.11197-0.04095 0.16444-0.07102l0.93671-0.56177c0.21946 0.36534 0.43828 0.73133 0.65774 1.0967z" style="fill:#54396a;stroke-width:.63983"/>
</svg>
