<?xml version="1.0" encoding="UTF-8" standalone="no"?>
<svg
   xmlns:dc="http://purl.org/dc/elements/1.1/"
   xmlns:cc="http://creativecommons.org/ns#"
   xmlns:rdf="http://www.w3.org/1999/02/22-rdf-syntax-ns#"
   xmlns:svg="http://www.w3.org/2000/svg"
   xmlns="http://www.w3.org/2000/svg"
   xmlns:sodipodi="http://sodipodi.sourceforge.net/DTD/sodipodi-0.dtd"
   xmlns:inkscape="http://www.inkscape.org/namespaces/inkscape"
   width="20"
   height="20"
   viewBox="0 0 20 20"
   version="1.1"
   id="svg838"
   inkscape:version="1.0.1 (3bc2e813f5, 2020-09-07)"
   sodipodi:docname="race_humandesert.svg">
  <defs
     id="defs832" />
  <sodipodi:namedview
     id="base"
     pagecolor="#ffffff"
     bordercolor="#666666"
     borderopacity="1.0"
     inkscape:pageopacity="0.0"
     inkscape:pageshadow="2"
     inkscape:zoom="3.959798"
     inkscape:cx="-14.765942"
     inkscape:cy="21.642911"
     inkscape:document-units="mm"
     inkscape:current-layer="layer1"
     inkscape:document-rotation="0"
     showgrid="false"
     units="px"
     inkscape:window-width="1267"
     inkscape:window-height="1040"
     inkscape:window-x="52"
     inkscape:window-y="0"
     inkscape:window-maximized="0" />
  <metadata
     id="metadata835">
    <rdf:RDF>
      <cc:Work
         rdf:about="">
        <dc:format>image/svg+xml</dc:format>
        <dc:type
           rdf:resource="http://purl.org/dc/dcmitype/StillImage" />
        <dc:title></dc:title>
      </cc:Work>
    </rdf:RDF>
  </metadata>
  <g
     inkscape:label="Layer 1"
     inkscape:groupmode="layer"
     id="layer1">
    <g
       id="g2123"
       transform="matrix(-3.7795276,0,0,3.7795276,60.81802,-97.902459)">
      <rect
         y="26.434994"
         x="11.458503"
         height="4.5185256"
         width="3.783534"
         id="rect1892-6"
         style="opacity:1;fill:#a05a2c;fill-opacity:1;stroke:none;stroke-width:0.529167;stroke-miterlimit:4;stroke-dasharray:none;stroke-opacity:1" />
      <path
         style="stroke-width:0.0563027"
         id="path1827-6"
         d="m 14.018269,28.166809 c 0,0.06542 0.021,0.119193 0.06312,0.161195 0.04206,0.04206 0.09583,0.06306 0.161194,0.06306 0.06081,0 0.112155,-0.021 0.154213,-0.06306 0.04679,-0.04206 0.0701,-0.09583 0.0701,-0.161195 0,-0.06081 -0.02331,-0.112155 -0.0701,-0.154269 -0.04206,-0.04673 -0.09341,-0.0701 -0.154213,-0.0701 -0.06537,0 -0.119136,0.02337 -0.161194,0.0701 -0.04211,0.04211 -0.06312,0.09352 -0.06312,0.154269 z m 0.18929,-0.02804 c 0.0093,-0.0093 0.02106,-0.01402 0.03502,-0.01402 0.0093,0 0.01869,0.0047 0.02804,0.01402 0.0093,0.0093 0.01402,0.01875 0.01402,0.0281 0,0.01402 -0.0047,0.02573 -0.01402,0.03502 -0.0093,0.0093 -0.01869,0.01402 -0.02804,0.01402 -0.01396,0 -0.02567,-0.0047 -0.03502,-0.01402 -0.0093,-0.0093 -0.01402,-0.021 -0.01402,-0.03502 0,-0.0094 0.0047,-0.01881 0.01402,-0.0281 z"
         inkscape:connector-curvature="0" />
      <path
         style="stroke-width:0.0563027"
         id="path1831-61"
         d="m 15.364242,27.942499 v -1.345972 c 0,-0.121502 -0.04437,-0.226675 -0.133156,-0.315465 -0.08885,-0.08879 -0.193963,-0.133212 -0.31552,-0.133212 h -3.14051 c -0.126174,0 -0.233656,0.04442 -0.322502,0.133212 -0.08417,0.08879 -0.126174,0.193907 -0.126174,0.315465 v 1.345972 c -0.126174,0 -0.233656,0.04437 -0.322502,0.133213 -0.08406,0.08879 -0.126174,0.193906 -0.126174,0.315407 v 0.448677 c 0,0.126174 0.04211,0.233656 0.126174,0.322502 0.08885,0.08412 0.196328,0.126174 0.322502,0.126174 v 1.345973 c 0,0.126174 0.04206,0.233656 0.126174,0.322502 0.08885,0.08406 0.196328,0.126174 0.322502,0.126174 h 3.14051 c 0.121501,0 0.226618,-0.04211 0.31552,-0.126174 0.08879,-0.08879 0.133156,-0.196271 0.133156,-0.322502 v -1.346029 c 0.121501,0 0.226619,-0.04206 0.315464,-0.126175 0.08879,-0.08879 0.133212,-0.196271 0.133212,-0.322502 v -0.448676 c 0,-0.121501 -0.04442,-0.226618 -0.133212,-0.315408 -0.08879,-0.08879 -0.193963,-0.133156 -0.315464,-0.133156 z m -0.22431,2.467523 h -0.22431 v 0.224367 h -0.224366 v 0.22431 h -2.69189 v -0.22431 H 11.775113 V 30.410022 H 11.55069 v -3.364819 c 0.06075,0 0.112211,-0.02106 0.154213,-0.06311 0.04673,-0.04206 0.07015,-0.09583 0.07015,-0.161251 v -0.22431 c 0,0.126174 0.04206,0.233656 0.126175,0.322502 0.08873,0.08406 0.196215,0.126174 0.322445,0.126174 v -0.448676 c 0,0.126174 0.04206,0.233656 0.126175,0.322502 0.08885,0.08406 0.196327,0.126174 0.322502,0.126174 v -0.448676 c 0,0.126174 0.04206,0.233656 0.126174,0.322502 0.08873,0.08406 0.196215,0.126174 0.322446,0.126174 v -0.448676 c 0,0.126174 0.04211,0.233656 0.126174,0.322502 0.08885,0.08406 0.196328,0.126174 0.322502,0.126174 v -0.448676 c 0,0.126174 0.04206,0.233656 0.126175,0.322502 0.08873,0.08406 0.196271,0.126174 0.322445,0.126174 v -0.448676 c 0,0.126174 0.04212,0.233656 0.126175,0.322502 0.08879,0.08406 0.196327,0.126174 0.322502,0.126174 v -0.448676 c 0,0.126174 0.04206,0.233656 0.12623,0.322502 0.08873,0.08406 0.196215,0.126174 0.322446,0.126174 v -0.224366 c 0,0.06542 0.02106,0.119192 0.06311,0.161251 0.042,0.04211 0.09577,0.06311 0.161195,0.06311 z"
         inkscape:connector-curvature="0" />
      <polygon
         transform="matrix(0.05441327,-0.0144635,0.0144635,0.05441327,10.248079,26.981043)"
         id="polygon1833-8"
         points="64.691,34.796 76.645,34.796 76.645,30.811 52.739,30.811 52.739,34.796 " />
      <path
         style="stroke-width:0.0563027"
         id="path1837-9"
         d="m 13.184088,29.001047 c 0.04206,0.04206 0.09577,0.06311 0.161251,0.06311 0.06075,0 0.112155,-0.02106 0.154213,-0.06311 0.04673,-0.04206 0.0701,-0.09583 0.0701,-0.161251 h -0.448676 c 0,0.06542 0.02106,0.119193 0.06311,0.161251 z"
         inkscape:connector-curvature="0" />
      <polygon
         transform="matrix(0.05013048,0.02563066,-0.02563066,0.05013048,11.643633,25.344727)"
         id="polygon1839-20"
         points="44.77,30.811 20.865,30.811 20.865,34.796 32.817,34.796 44.77,34.796 " />
      <path
         style="stroke-width:0.0563027"
         id="path1841-2"
         d="m 12.223676,28.166809 c 0,0.06542 0.02106,0.119193 0.06312,0.161195 0.04206,0.04206 0.09577,0.06306 0.161194,0.06306 0.06075,0 0.112212,-0.021 0.154214,-0.06306 0.04673,-0.04206 0.07015,-0.09583 0.07015,-0.161195 0,-0.06081 -0.02342,-0.112155 -0.07015,-0.154269 -0.04206,-0.04673 -0.09346,-0.0701 -0.154214,-0.0701 -0.06542,0 -0.119192,0.02337 -0.161194,0.0701 -0.04206,0.04211 -0.06312,0.09352 -0.06312,0.154269 z m 0.18929,-0.02804 c 0.0093,-0.0093 0.02106,-0.01402 0.03502,-0.01402 0.0093,0 0.01869,0.0047 0.02804,0.01402 0.0093,0.0093 0.01402,0.01875 0.01402,0.0281 0,0.01402 -0.0047,0.02573 -0.01402,0.03502 -0.0093,0.0093 -0.01869,0.01402 -0.02804,0.01402 -0.01402,0 -0.02567,-0.0047 -0.03502,-0.01402 -0.0093,-0.0093 -0.01402,-0.021 -0.01402,-0.03502 0,-0.0094 0.0047,-0.01881 0.01402,-0.0281 z"
         inkscape:connector-curvature="0" />
      <polygon
         transform="matrix(0.05587568,-0.00692128,0.00692128,0.05587568,9.50502,28.48668)"
         id="polygon1833-8-7"
         points="64.691,34.796 76.645,34.796 76.645,30.811 52.739,30.811 52.739,34.796 " />
      <path
         inkscape:connector-curvature="0"
         id="path2107"
         d="m 11.322455,26.737706 4.027809,-0.03544 0.460658,-1.068964 0.04725,0.566965 -0.496094,0.927222 -4.045527,0.02362 z"
         style="fill:#000000;fill-rule:evenodd;stroke:#000000;stroke-width:0.264583px;stroke-linecap:butt;stroke-linejoin:miter;stroke-opacity:1" />
      <path
         inkscape:connector-curvature="0"
         id="path2109"
         d="m 15.139924,27.045203 0.704037,0.757278 -0.05847,-0.601357 -0.657385,-0.581144"
         style="fill:#000000;fill-rule:evenodd;stroke:#000000;stroke-width:0.264583px;stroke-linecap:butt;stroke-linejoin:miter;stroke-opacity:1" />
    </g>
  </g>
</svg>
