<svg version="1.1" viewBox="0 0 20 20" xmlns="http://www.w3.org/2000/svg">
 <defs>
  <style type="text/css">.str0 {stroke:black;stroke-width:8.46}
    .fil0 {fill:none}
    .fil1 {fill:black}</style>
 </defs>
 <path d="m0.31986 9.5127 1.7703 1.791 5.3432 7.2655 4.4742 0.77724 6.0836-7.9414 1.9957-1.7572-1.9313-0.13517-2.2854-5.9138-2.8004-1.5545-3.6695-0.16897-3.4119 0.10138-2.9613 5.711-0.45063 1.6559-0.41845 0.20276z" style="fill-rule:evenodd;fill:#6c5367"/>
 <path d="m5.6465 3.6966 4.5749 2.9869 5.2577-3.0825 0.40969 0.64517-5.6901 3.3692-5.508-3.3454z" style="fill-rule:evenodd;fill:#000000"/>
 <path d="m13.595 8.1785-0.74471 0.36651c-0.11637-0.19645-0.32329-0.32727-0.56003-0.32727-0.3649 0-0.66038 0.31045-0.66038 0.69331s0.29548 0.69284 0.66038 0.69284c0.36446 0 0.66016-0.30998 0.66016-0.69284 0-0.024527-0.0011-0.048587-0.0037-0.072414l0.61142-0.3011c0.02358-0.011679 0.0336-0.041113 0.02247-0.065874-0.01091-0.024527-0.03894-0.035038-0.0623-0.023593l-0.58918 0.29012c-0.0087-0.036441-0.02003-0.071947-0.03426-0.10605l0.74003-0.36441c0.02337-0.011446 0.03382-0.040878 0.0227-0.06564-0.01091-0.024761-0.03894-0.035507-0.06252-0.023593z" style="fill:#ff0000;stroke-width:.22798"/>
 <path d="m18.564 9.338c-0.07454-0.26513-0.17822-0.51694-0.3075-0.75147 0.2828-0.51227 0.44433-1.1075 0.44433-1.7426 0-0.30624-0.03804-0.60361-0.10858-0.88696-0.07765-0.31045-0.19513-0.60384-0.34621-0.87387-2.8865-6.6665-7.9653-4.0734-7.9653-4.0734h-0.18045s-5.0788-2.5931-7.9657 4.0734c-0.1513 0.27003-0.26833 0.56343-0.34599 0.87387-0.070754 0.28335-0.1088 0.58071-0.1088 0.88696 0 0.63514 0.16198 1.2303 0.44411 1.7426-0.12905 0.23453-0.23229 0.48634-0.30727 0.75147h-1.7141l0.21315 0.28896c0.25454 0.34595 0.79254 1.0182 1.4563 1.5146 0.075427 0.33077 0.19424 0.64355 0.35222 0.92994-0.28235 0.51274-0.44411 1.1077-0.44411 1.7426 0 0.89583 0.32173 1.7122 0.85062 2.3299-0.52888 0.61739-0.85062 1.4343-0.85062 2.3296 0 1.9246 1.4865 3.4855 3.3197 3.4855h10.382c1.8336 0 3.3197-1.5609 3.3197-3.4855 0-0.89537-0.32151-1.7122-0.85084-2.3296 0.52933-0.61762 0.85084-1.434 0.85084-2.3299 0-0.63491-0.16176-1.2299-0.44433-1.7426 0.1464-0.26536 0.25944-0.55338 0.33531-0.85706 0.7091-0.50176 1.2889-1.2243 1.5562-1.5877l0.21315-0.28896h-1.7974zm-17.756 0.35857h2.0715c0.090113 0.049988 0.15708 0.088064 0.19402 0.10932l1.2155 1.1313c-0.2403 0.33124-0.51842 0.48611-0.86641 0.48611-0.10991 0-0.22806-0.01588-0.35177-0.04812l-0.30215-0.07825c-0.79566-0.27938-1.535-1.072-1.9607-1.6004zm5.2517-5.3834 4.1423 2.5438 4.0864-2.5093c0.13394 0.12614 0.25899 0.24761 0.3738 0.363l-4.4602 2.7387-4.4947-2.7601c0.11837-0.13455 0.23652-0.26022 0.35244-0.37609zm4.1087-0.6557h0.0445c1.4289-1.5389 2.8073-0.92083 3.7945 0.013081l0.23407 0.29059-4.0395 2.4805-4.0548-2.4901 0.2265-0.28101c0.98701-0.93414 2.3656-1.552 3.7947-0.013081zm4.4571 9.7388-3.8045 1.9484c0 0.0039 6.67e-4 0.0075 6.67e-4 0.01191v2.5413c0 0.24037-0.18601 0.43542-0.41474 0.43542h-0.41741c-0.22917 0-0.41496-0.19505-0.41496-0.43542v-2.5413c0-0.01612 8.903e-4 -0.03201 0.00241-0.04766l-3.758-1.937-0.63212-1.4567 0.12927-6.9333 0.06319-0.078721 4.7392 2.9106h0.16732l4.7234-2.9008 0.05563 0.06891 0.12594 6.7593zm3.0694-2.0993-0.30238 0.07825c-0.12326 0.03223-0.24186 0.04812-0.35155 0.04812-0.34777 0-0.62567-0.15487-0.86641-0.48611l1.2153-1.1313c0.03693-0.021257 0.10391-0.059333 0.19424-0.10932h2.0712c-0.42542 0.52839-1.165 1.321-1.9604 1.6004z" style="fill:#ffffff;stroke-width:.22798;stroke:#000000"/>
 <path d="m7.8179 8.2177c-0.24831 0-0.46413 0.14389-0.57672 0.35623l-0.7278-0.35857c-0.023585-0.011679-0.051397-9.343e-4 -0.062745 0.023827-0.011124 0.024995-8.9e-4 0.054194 0.022695 0.06564l0.72824 0.35903c-0.012683 0.034572-0.02314 0.070078-0.03026 0.10745l-0.58117-0.28639c-0.023586-0.011679-0.05162-9.344e-4 -0.062745 0.023592-0.011124 0.024761-0.00111 0.054194 0.022917 0.065873l0.6092 0.30017c-4.449e-4 0.012147-0.00156 0.02406-0.00156 0.036207 0 0.38239 0.29548 0.69284 0.66016 0.69284s0.66038-0.31045 0.66038-0.69284c-2.193e-4 -0.38263-0.29592-0.69307-0.6606-0.69307z" style="fill:#ff0000;stroke-width:.22798"/>
 <path d="m2.3462 5.2498-0.59177 1.7444 0.40969 2.0789z" style="fill-rule:evenodd;fill:#333333"/>
 <path d="m5.123 3.2665s0.79662-1.601 1.707-1.7444c0.91042-0.14337 1.9574 0.023895 1.9574 0.023895s-1.9119 0.40622-2.3216 0.69297c-0.40969 0.28674-1.3429 1.0275-1.3429 1.0275z" style="fill-rule:evenodd;fill:#333333"/>
 <path d="m17.994 5.0518 0.59177 1.7444-0.40969 2.0789z" style="fill-rule:evenodd;fill:#333333"/>
 <path d="m14.921 3.2597s-0.79662-1.601-1.707-1.7444c-0.91042-0.14337-1.9574 0.023895-1.9574 0.023895s1.9119 0.40622 2.3216 0.69297c0.40969 0.28674 1.3429 1.0275 1.3429 1.0275z" style="fill-rule:evenodd;fill:#333333"/>
 <path d="m10.07 10.309-0.22097 1.168" style="fill:none;stroke-width:.37795;stroke:#000000"/>
</svg>
