<svg version="1.1" viewBox="0 0 20 20" xmlns="http://www.w3.org/2000/svg">
 <defs>
  <style type="text/css">.str0 {stroke:black;stroke-width:8.46}
    .fil0 {fill:none}
    .fil1 {fill:black}</style>
  <style type="text/css">.fil0 {fill:black}</style>
 </defs>
 <g>
  <path d="m1.4965 23.689c0.45479-0.82558 0.93385-1.4678 1.5771-2.1146 0.93225-0.29542 1.7441-0.4468 2.7102-0.50684 0.00224-0.0016 0.00447-0.0035 0.00639-0.0054 0.01022-0.0093 0.022675-0.03098 0.032576-0.05365 0.016927-0.46692 0.15426-0.86103 0.42189-1.2098-0.47523-1.0415-0.60745-2.0922-0.4088-3.2442-0.63906 0.27242-1.2187 0.3858-1.9006 0.37175-3.193e-4 3.19e-4 -3.193e-4 9.58e-4 -6.387e-4 0.0019-0.00319 0.0115-0.00479 0.02204-0.00511 0.0313 0.29446 0.15298 0.55635 0.28041 0.85241 0.42828-0.48034 0.31842-0.83867 0.49056-1.4774 0.55858v0.08048c0.63875 0.12807 1.0172 0.19673 1.5819 0.22899-0.00192 0.0029-0.017246 0.0198-0.032257 0.04663-0.19705 0.43147-0.40369 0.77416-0.68122 1.143-0.015969-9.58e-4 -0.034173-0.0016-0.050141-0.0032-1.2171 0.04216-2.2436 0.57806-3.0676 1.6026-0.10986 0.06675-0.22069 0.1121-0.34684 0.11466-0.23282-0.0939-0.4666-0.06132-0.67292 0.09358-0.0035131 0.0077-0.0067068 0.01501-0.01022 0.02236-0.26284 0.52984-0.4765 0.98207-0.72019 1.5234 0.003513 0.0029 0.006707 0.0057 0.01022 7e-3 0.026508 0.01278 0.059403 0.0064 0.095173-0.0115 0.35738-0.29925 0.69432-0.49822 1.1149-0.65727 0.002874 0.0032 0.003194 0.0093 0.001916 0.02012-3.1937e-4 0.0054-0.001597 0.0089-0.007346 0.01757-0.20504 0.22228-0.35578 0.44265-0.4912 0.71923-0.078246 0.17981-0.12104 0.35418-0.13446 0.51738-0.11306 0.0064-0.22771 0.02715-0.34141 0.0626-0.027785 0.0086-0.051419 0.01661-0.078885 0.02715-0.006387 0.0099-0.012136 0.0214-0.017566 0.03385-0.40433 0.76618-0.61735 1.5058-0.68984 2.3969 0.00639 0.0029 0.013414 0.0048 0.02044 0.0045 0.30053-0.55762 0.66366-0.95588 1.1632-1.2762 0.016607-0.0016 0.032576-9.58e-4 0.045351 0.0064 0.0028744 0.0013 0.0063874 0.0067 0.0099006 0.01469 0.070901 0.58509 0.12967 1.0788 0.19769 1.6639 0.006707 0.02012 0.019482 0.03098 0.059403 0.0297 0.016927 0 0.022356-0.0029 0.035131-0.02523 0.2951-0.60074 0.64258-1.0472 1.1299-1.4525 0.062597-0.03769 0.094215-0.06867 0.091021-0.1402-0.060363-0.2533-0.16448-0.4791-0.30021-0.6704 0.095812-0.10507 0.18939-0.23666 0.27817-0.39762z" style="clip-rule:evenodd;fill-rule:evenodd;fill:#1a1a1a;stroke-width:.3;stroke:#000000"/>
  <path d="m0.44671 14.431c9.5811e-4 0.01757 0.001916 0.03513 0.003194 0.05238-0.064833 0.87572 0.59276 1.6384 1.4688 1.7032 0.53367 0.0396 1.0067-0.16352 1.3465-0.57679 0.36856 0.20536 0.83388 0.07409 1.0415-0.29382 0.12807-0.22739 0.13541-0.47874 0.021079-0.71316-0.013094-0.01757-0.027785-0.02587-0.045351-0.0214-0.00351 6.39e-4 -0.00798 0.0032-0.013094 7e-3 -0.00639 0.01437-0.012455 0.02619-0.019801 0.03992-0.1533 0.28105-0.50557 0.38452-0.7863 0.23154-0.00224-0.0057-0.00319-0.01437-0.00319-0.02491 0.12743-0.36472-0.033534-0.75979-0.36377-0.93672-0.2967-0.20791-0.70581-0.13573-0.91404 0.16096-0.12967 0.18492-0.15585 0.40209-0.074414 0.61256 0.016288 0.0029 0.033215 0.0019 0.050141-0.0022 0.028424-0.10603 0.10859-0.18045 0.21622-0.20089 0.15042-0.02874 0.29574 0.07026 0.32416 0.22069-0.00287 0.02012-0.00671 0.04024-0.012136 0.06164-0.086231 0.35163-0.44105 0.56657-0.79268 0.48066-0.4187-0.05621-0.73807-0.41838-0.73041-0.85081 0.068026 0.02012 0.27498 0.07825 0.37622 0.08719 0.060361 0.0057 0.14563-0.02938 0.16384-0.10891 0.00255-0.0099 0.0016-0.02044-0.00128-0.03226-0.44041-0.3545-0.68761-0.74733-0.73679-1.3104-0.004791-0.0313-0.00511 0.03577-0.00511 0.03577h-0.048864c-0.20504 0.63874-0.52728 1.0322-1.0252 1.4576-0.022037 0.02268-0.024911-8e-3 -0.026508 0.0061-0.001597 0.01469-9.5812e-4 0.0077 0.002874 0.01788 0.20695-0.01916 0.38101-0.06196 0.58445-0.10284z" style="clip-rule:evenodd;fill-rule:evenodd;fill:#1a1a1a;stroke-width:.3;stroke:#000000"/>
  <path d="m2.2336 9.1716c0.42029-0.1731 0.84027-0.17246 1.2602 0.00192-6.388e-4 0.0083-0.00287 0.019162-0.00575 0.032895-0.16001 0.45063-0.30245 0.83835-0.46788 1.2705-0.022356 0.05142 6.388e-4 0.11146 0.052058 0.13414 0.051419 0.02267 0.11146-6.39e-4 0.13382-0.05238 0.21334-0.41039 0.57583-0.68346 1.0392-0.77895 0.13637 3.194e-4 0.23378 0.083037 0.28488 0.18747 0.092618 0.41327 0.080482 0.78789-0.039283 1.1881-0.015011 0.04312 0.00798 0.09038 0.051419 0.10507 0.035131 0.01246 0.073136 3.19e-4 0.094534-0.03034 0.33534-0.46341 0.94854-1.2216 1.3743-1.5161 0.17981-0.12487 0.42988-0.29478 0.63236-0.28169 0.12615 0.00862 0.21334 0.057168 0.26763 0.16288 0.03545 0.20472 0.1137 0.37015 0.24911 0.52792 0.5902-0.03226 1.045-0.53431 1.0182-1.1258-6.387e-4 -0.013414-0.00128-0.024911-0.00255-0.038005-0.37654-0.36121-0.60937-0.7847-0.71987-1.3082-0.18332-0.85879-0.048864-1.6812 0.40209-2.4585 0.022995-0.034812 0.015969-0.082079-0.017246-0.10859-0.02012-0.015969-0.045032-0.021398-0.068346-0.016288-0.35546 0.21142-0.66877 0.36792-1.0511 0.52569-0.038325 0.018204-0.06132 0.029063-0.06132 0.029063s-3.193e-4 -3.193e-4 -0.011817-0.013094c-0.23314-0.22037-0.40528-0.43307-0.57168-0.70773 0.16512-0.53431 0.37494-0.96546 0.69336-1.426 0.02044-0.070581 0.016288-0.1549-0.067707-0.14531-0.01501 0.00192-0.021079 0.00351-0.04056 0.014372-0.46309 0.2424-0.84091 0.47331-1.2682 0.77448-0.012136 0.00575-0.024592 0.011497-0.037686 0.016927-0.00256 6.388e-4 -0.00511 0.00192-0.00798 0.00319-0.54198 0.12743-1.0035 0.28488-1.4857 0.50972-1.3685 0.63811-2.2487 1.7993-2.493 3.2895-0.14691 0.88211-0.029382 1.8169 0.39091 2.6837 0.043115-0.54102 0.19162-0.99868 0.47363-1.4506z" style="clip-rule:evenodd;fill-rule:evenodd;fill:#ab37c8;stroke-width:.3;stroke:#000000"/>
  <path d="m14.518 14.706c0.16128 0.41231 0.66206 0.62853 1.1188 0.48257 0.0096-0.0029 0.0182-0.0057 0.02747-0.0093 0.0048-0.01788-0.0019-0.0511-0.0115-0.0808-0.14308-0.13637-0.21111-0.29893-0.20216-0.4864 0 0 0.26636 0.09326 0.38069 0.1105 0.12966 9.58e-4 0.23602-0.09326 0.23697-0.21047 9.59e-4 -0.06004-0.02299-0.11146-0.07026-0.15362-0.38804-0.15585-0.64833-0.46022-0.7205-0.84698 0.0067 0 0.01245 3.19e-4 0.01948 6.38e-4 0.0089 3.2e-4 0.0182 6.39e-4 0.02651 0.0013 0.21494 0.07282 0.43786 0.04759 0.6199-0.06611 0.09901-0.01852 0.16288-0.10603 0.14212-0.19514-0.01629-0.07122-0.0808-0.122-0.15649-0.13062-0.34205-0.01501-0.62757-0.15841-0.82206-0.41295-0.03226-0.0045-0.09805-0.0054-0.14276-0.0022-0.42413 0.1862-0.92235 0.07186-1.1964-0.27498-0.14052-0.14308-0.2654-0.28328-0.34237-0.30181-0.4979 0.25805-0.84282 0.63076-1.0619 1.1465 0.183 0.40241 0.6001 0.64801 1.084 0.63651 0.03385 0.0073 0.061 0.01852 0.08176 0.03832 0.09485 0.68665 0.4468 1.242 1.0549 1.6633 0.04918 0.01245 0.11466-0.01086 0.13637-0.0725-0.11529-0.30915-0.19162-0.57711-0.25454-0.8984 0.01277 0.01693 0.0313 0.03833 0.05206 0.0626z" style="clip-rule:evenodd;fill-rule:evenodd;fill:#660080;stroke-width:.3;stroke:#000000"/>
  <path d="m18.421 10.985c-1.2456 2.2672-2.2634 4.2004-3.4275 6.5104 0.35227 0.24656 0.79524 0.25486 1.1577 0.01852 0.01246-0.01309 0.02395-0.02715 0.03449-0.04248 1.1747-2.2289 2.1111-4.1394 3.1538-6.4331 0.02651-0.03289 0.04535-0.06835 0.03449-0.09517-0.33215 0.05653-0.62278 0.06962-0.95301 0.04184z" style="clip-rule:evenodd;fill-rule:evenodd;fill:#000000;stroke-width:.3;stroke:#000000"/>
  <path d="m12.44 1.6634c-0.03034 0.058126-0.03353 0.096131 0.01182 0.12583 0.01373 0.00926 0.03289 0.019801 0.04471 0.019482 0.04503-6.387e-4 0.11657 0.050141 0.17725 0.037047 0.10412-0.022995 0.16959 0.028105 0.24751 0.028105h0.0016c0.07601 0 0.15202-0.00351 0.23825-0.013733 0.05142-0.00287 0.09485-0.072817 0.10156-0.12583 0.0019-0.012775 0.0013-0.038963-0.0016-0.051738 0.03226-0.16575 0.11593-0.30788 0.2523-0.41295 0.13605-0.10763 0.40752-0.28073 0.48098-0.35834 0.05876-0.06132 0.06004-0.14276-3.19e-4 -0.24272-0.045991-0.076011-0.1319-0.10188-0.22516-0.098367-0.6001 0.16799-1.0495 0.53655-1.3289 1.0932z" style="clip-rule:evenodd;fill-rule:evenodd;fill:#000000;stroke-width:.3;stroke:#000000"/>
  <path d="m20.808 7.9388c-0.09677-0.010539-0.19961-0.019801-0.27754-0.01022-0.11561 0.014052-0.56114 0.21111-0.73871 0.19418-0.061-0.00575-0.09709-0.027147-0.07537-0.064513 0.01118-0.02044 0.03928-0.042796 0.06962-0.06132 0.1747-0.04599 0.31362-0.12136 0.44712-0.24272 0.0495-0.086231 0.03513-0.19865-0.04088-0.26923-0.03545-0.032895-0.07665-0.052696-0.12232-0.057168-0.1632-0.00862-0.30372 0.021398-0.44936 0.095812-0.12424 0.042477-0.32097 0.057487-0.48449 0.094534-0.47139 0.12903-0.80769 0.47523-0.92267 0.94981-1.3165 0.41039-2.4988 0.54389-3.873 0.43658-0.43499-0.3957-0.95492-0.59627-1.5426-0.59435-0.3577 0.00383-0.66046-0.024272-1.0115-0.093257-0.0073-0.00415-0.01469-0.00798-0.0214-0.012136 0.05685-0.41518 0.29127-0.75021 0.65184-0.93959 0.14691-0.07154 0.30053-0.085273 0.44936-0.041519 0.18619 0.053655 0.36472 0.03066 0.5308-0.067707 0.17534-0.093576 0.35259-0.1402 0.55826-0.14659 0.13956-0.028424 0.33598-0.087508 0.41646-0.15649 0.06292-0.053655 0.09709-0.13478 0.07665-0.21462-0.06388-0.1335-0.02172-0.28967 0.09996-0.37303 0.12488-0.09677 0.34652-0.2357 0.35738-0.26508 6.39e-4 -0.00224 0.0016-0.00415 0.0019-0.00671-0.01437-0.090382-0.09933-0.15202-0.19003-0.13765-0.0029 3.194e-4 -0.0054 6.388e-4 -0.0077 0.00128-0.0045-6.387e-4 -0.0067-6.387e-4 -0.0067-6.387e-4s0.23825-0.1402 0.28456-0.19801c0.03322-0.041199 0.05142-0.085911 0.05142-0.085911l-0.11748-0.18268s0.11402-0.099964 0.20887-0.15617c0.09837-0.058126 0.22452-0.073775 0.31969-0.11753 0.11306-0.052377 0.38676-0.24624 0.2638-0.39922-0.0089-0.011178-0.01852-0.019801-0.03066-0.02523-0.039282-0.019482-0.10507-0.012456-0.14978-0.032257-0.11976-0.052696-0.11497-0.25518-0.14308-0.38357-0.02555-0.11529-0.11434-0.206-0.22292-0.22005-0.10092-0.013414-0.47139 0.024592-0.61639 0.028744-0.10507-0.00255-0.19226-0.074414-0.21398-0.17757 0.0313-0.10667 0.16096-0.17118 0.2523-0.20631 0.11338-0.043435 0.29893-0.069943 0.46596-0.10667 0.54517-0.071859 0.9463-0.52856 0.9645-1.0606 0.01629-0.54229-0.32384-1.0079-0.84506-1.1577-0.23538-0.057168-0.46501-0.030979-0.68921 0.078566-0.0051 0.00511-0.0083 0.0099-0.01022 0.014372-0.0096 0.029382 9.58e-4 0.079524 0.03768 0.085592 0.0048 6.387e-4 0.0099 0.00128 0.01533 0.00128 0.15873-0.059084 0.32895-0.01533 0.4385 0.10859 0.04471 0.038963 0.07569 0.080482 0.09996 0.13478 0.08783 0.19546 0 0.42508-0.19482 0.51259-0.12104 0.057806-0.25262 0.078566-0.39379 0.061639-8e-3 -6.387e-4 -0.01661-9.581e-4 -0.02491-0.00224-0.39858-0.16128-0.7863-0.26189-1.1807-0.30436-0.41998-0.047586-0.78246-0.03034-1.196 0.057168-0.06579 0.021079-0.13669 0.00958-0.19418-0.034173-0.06483-0.049183-0.09326-0.12807-0.08176-0.20312 0.18268-0.63172 0.49918-1.122 0.99868-1.5486 0.04344-0.089105 0.07058-0.21302-0.01437-0.31075-3.19e-4 -3.1937e-4 -6.38e-4 -6.3874e-4 -9.58e-4 -0.001277-1.0255 0.23985-1.7706 0.99804-1.9916 2.0184-0.0019 0.032257-0.01277 0.058765-0.03385 0.082717-0.05046 0.058445-0.13829 0.064833-0.19641 0.014372-0.72689-0.45894-1.2168-1.0619-1.5199-1.8696-0.00224-0.002874-0.00415-0.005429-0.00543-0.007026-0.044073-0.049503-0.10699-0.088147-0.17597-0.045351-0.38197 0.73743-0.29542 1.5761 0.22995 2.2193 0.016927 0.012455 0.030021 0.02555 0.037047 0.037367 3.194e-4 3.194e-4 6.388e-4 0.00128 9.581e-4 0.00192-0.13893 0.60298 0.23729 1.2047 0.84027 1.3436 0.11753 0.027147 0.22196 0.034812 0.33917 0.02523 0.08048-0.010539 0.13957-0.078246 0.14084-0.15681-0.09709-0.20472-0.14947-0.39187-0.17246-0.61703 9.58e-4 6.388e-4 0.0022 9.581e-4 0.0035 0.00192 0.30149 0.20759 0.59467 0.3363 0.9447 0.41263 0.01246 0.10252 0.0048 0.19194-0.02523 0.29063-0.11338 0.37462-0.5094 0.58669-0.88434 0.47331-0.14787-0.039921-0.23729-0.069943-0.34748 0.015011-0.10634 0.27082-0.2788 0.47011-0.53142 0.61383-0.35259 0.17214-0.78885 0.089744-1.052-0.22196-0.00703-0.021079-0.029702-0.032576-0.05078-0.025869-0.020759 0.00703-0.032257 0.030021-0.02523 0.0511 0.00255 0.00735 0.00671 0.013094 0.012775 0.018524 0.33726 0.61862 0.938 0.98079 1.6457 0.99037-0.27274 0.24017-0.58637 0.35897-0.94343 0.3577-0.03034 0.013414-0.044073 0.048225-0.03066 0.078566 0.00479 0.011497 0.012136 0.019801 0.022356 0.026508 0.44073 0.11497 0.82462 0.19162 1.28 0.2555 6.38e-4 0.00958 9.59e-4 0.016927 0.0016 0.026508 0.017881 0.48002-0.32832 0.88977-0.79173 0.96227-0.17853-0.011817-0.33662 0.077608-0.41902 0.23634-0.22675 0.40433-0.31011 0.83228-0.25167 1.2912 0.14883 1.2695-0.63236 2.4339-1.8057 2.8095-0.84793 0.084633-1.5614 0.45606-2.0893 1.083-0.54325 0.86997-0.38708 1.9782 0.3165 2.668 0.29414 0.28552 0.60968 0.46149 1.0073 0.5621-0.00128 0.48832 0.011178 0.90031 0.042477 1.3877 0.075691 0.95492 0.27083 1.8552 0.6017 2.8095 0.039283 0.07473 0.078885 0.1501 0.11146 0.22356 0.10571 0.17182 0.10667 0.38804 0.00256 0.56114-0.092937 0.17406-0.22292 0.305-0.38005 0.38484-1.8865 1.0201-3.2653 2.4355-4.3546 4.4706-0.00926 0.04727-0.00128 0.09422 0.027147 0.10539 0.00798 0.0026 0.019162 0.0032 0.032576 0.0013 0.40049-0.2341 0.74765-0.41359 1.1663-0.60234 0.043435-0.0019 0.084634-0.0019 0.084634-0.0019-0.23091 0.42477-0.29255 0.83963-0.29255 1.3209v0.0035c0 0.03864-0.19258 0.08272-0.28233 0.13382-0.00224 0.0019-0.00958 0.0038-0.011817 0.0057-0.1913 0.18588-0.53207 1.6515-0.62182 2.0283-0.013094 0.04567 0.012455 0.09294 0.058126 0.10603 0.030979 0.0083 0.061 3.19e-4 0.083676-0.02268 0.36951-0.42476 0.70613-0.75883 1.1277-1.1181 0.033534-0.01916 0.065152-0.03417 0.090382-0.03928 0.02523-0.0051 0.047267 0.0083 0.068026 0.02938 0.16001 0.34939 0.31937 0.63204 0.53016 0.93991 0.028424 0.03194 0.076969 0.03417 0.10859 0.0061 0.019801-0.0182 0.028744-0.04248 0.024911-0.06898 0.076649-0.60042 0.41966-1.0718 0.9265-1.2695 0.12935-0.05589 0.22612-0.10986 0.20631-0.25741-0.00798-0.05972-0.04599-0.11817-0.098686-0.17214-0.21334-0.15873-0.4369-0.27817-0.66557-0.35802 0.1236-0.21558 0.24751-0.47714 0.36856-0.7914 0.62278-1.2507 1.4503-2.1625 2.5735-2.8373 0.31682-0.15458 0.60298-0.26061 0.92554-0.34045 0.21334-0.01884 0.3858-0.1648 0.46437-0.39251 0.1814-0.30181 0.5094-0.87444 0.53463-0.93832 0.073136-0.18683 0.098686-0.35929 0.01501-0.55826-0.085911-0.2044-0.23506-0.37047-0.25965-0.53016-0.010539-0.0693-0.00287-0.17086 0.00703-0.26827 0.067388-0.66525 0.21206-1.7435 0.29286-2.3998 0.061958-0.97888 0.054932-1.8099-0.022676-2.7878 0.97983-0.87093 1.7026-1.7342 2.3899-2.8539 0.57934-0.64769 1.3382-0.89201 2.2369-1.0894 0.19546-0.0428 0.49024-0.09166 0.65918-0.10954 0.64034 0.0029 1.1961-0.05397 1.7977-0.18651 0.49088-0.11338 0.92011-0.14979 1.4231-0.12008 0.68729-0.01629 1.303-0.14915 1.9629-0.42093 0.15585-0.08495 0.23602-0.19514 0.24464-0.42253 0.0061-0.17821-0.02267-0.24368 0.04535-0.31394 0.15106-0.10475 0.28648-0.18108 0.45511-0.2555 0.11146-0.080801 0.16735-0.22516 0.1303-0.366-0.0198-0.076011-0.05876-0.13478-0.1204-0.18332-0.03769-0.02555-0.07154-0.050142-0.07537-0.068026-0.0035-0.013414-0.0048-0.028744-0.0054-0.038964 0.22675-0.034812 0.41359-0.09677 0.61607-0.20408 0.03673-0.033534 0.04503-0.07122 0.0035-0.13573-0.08591-0.13414-0.53846-0.18747-0.70358-0.20536z" style="clip-rule:evenodd;fill-rule:evenodd;fill:#ab37c8;stroke-width:.3;stroke:#000000"/>
  <path d="m25.076 4.1645c-0.26668-0.55699-0.29734-1.1002-0.091979-1.6643 0.10859-0.14372 0.122-0.30692 0.03449-0.46405-0.0061-0.00511-0.01182 0-0.01884-0.00319-0.03289-0.018204-0.07122-0.013733-0.10284-3.194e-4 -0.11497 0.15617-0.21015 0.29255-0.31937 0.45319-0.20536 0.25997-0.45862 0.46341-0.76202 0.61032-0.14052 0.033215-0.25039 0.10284-0.34109 0.21526 0.0019 0.00798 0.0064 0.015011 0.01214 0.02044 0.02587 0.022356 0.30788 0.065471 0.41231 0.08144-0.10603 0.4797-0.29159 0.86678-0.60074 1.25-8e-3 0.00511-0.01661 0.0099-0.02491 0.015011-0.31969 0.074414-0.60745 0.074733-0.9249 0.00192 0.3446-1.1363 0.74446-2.0641 1.3343-3.095 0.01214-0.00862 0.02332-0.00415 0.03833 0.011497 0.07026 0.13573 0.17566 0.22835 0.31937 0.28009 0.0073-0.00575 0.01437-0.013094 0.02044-0.02012 0.01277-0.014372 0.01469-0.02012 0.01118-0.047586-0.12647-0.75723-0.07633-1.426 0.16032-2.1558-3.2e-4 -6.3874e-4 -3.2e-4 -0.001277-6.39e-4 -0.001916 0-0.04567-0.03737-0.083037-0.08336-0.083037-0.02108 0-0.03928 0.006707-0.05525 0.020759 0 0-3.19e-4 0-9.58e-4 3.1937e-4 -0.39826 0.65535-0.87284 1.1296-1.5292 1.5282-0.02236 0.01533-0.02587 0.02012-0.02874 0.039602-9.59e-4 0.00894-0.0022 0.018843-0.0016 0.028424 0.13318 0.075372 0.2721 0.094534 0.42061 0.059403 0.02172 9.582e-4 0.03226 0.00671 0.03385 0.021398-0.39666 1.1191-0.83867 2.028-1.4749 3.0308-0.26252-0.1929-0.44968-0.41135-0.60234-0.70262-0.0019-0.00958-0.0035-0.019482-0.0051-0.028744 0.08847-0.48385 0.25997-0.877 0.55507-1.2705 0.08016 0.068665 0.29702 0.2539 0.33055 0.25933 8e-3 0.0016 0.01597-3.194e-4 0.02331-0.00415 0.02555-0.1418 0.0064-0.27019-0.06004-0.39826-0.08719-0.32608-0.09901-0.64992-0.03577-0.97473 0.05014-0.18747 0.08942-0.34716 0.13318-0.53623-0.01022-0.033215-0.03545-0.061639-0.0709-0.074733-7e-3 -0.002555-0.01437-0.004791-0.02172-0.006068-0.17598 0.036728-0.30532 0.16512-0.34301 0.34109-0.29382 0.52409-0.7534 0.87955-1.3497 1.0412-0.01437 0.00224-0.02332 0.00319-0.02332 0.00319s6.39e-4 6.388e-4 0.0022 0.00224c0.21717 0.17917 0.48257 0.23506 0.75308 0.15873 0 0-0.0016 0.00319-0.0045 0.00862-0.2111 0.44489-0.41454 0.80833-0.68314 1.221-0.05046 0.029382-0.15138 0.078566-0.25262 0.12743-0.38868 0.065471-0.6512 0.43403-0.58541 0.82334 0.03034 0.18045 0.11497 0.32448 0.25805 0.43914 8e-3 0.00639 0.01597 0.013094 0.02427 0.018843 0.37654 0.16192 0.63268 0.45383 0.74478 0.84825 0.13126 0.44776 0.05174 0.90798-0.22899 1.3002 0.29223 0.40656 0.73232 0.61639 1.2321 0.58733 0.0064-0.00319 0.01214-0.00798 0.01788-0.014052 0.11338-0.46884 0.41071-0.82941 0.83516-1.022 0.37239-0.17246 0.76043-0.16863 1.1296 0.011178 0.0096 0.00192 0.0198 0.00383 0.02938 0.00575 0.17981 0.033534 0.3446 0.00383 0.5011-0.091341 0.33758-0.20376 0.44584-0.64322 0.24145-0.98079-0.02874-0.10795-0.05749-0.21653-0.06803-0.27402 0.13733-0.47267 0.27977-0.86454 0.47938-1.3142 0.0026-0.00607 0.0042-0.083995 0.0042-0.083995 0.11976 0.25454 0.33534 0.39187 0.61288 0.39187h0.0032s-0.0051 0.067388-0.01246 0.054932z" style="clip-rule:evenodd;fill-rule:evenodd;fill:#000000;stroke-width:.3;stroke:#000000"/>
  <path d="m5.2679 15.446s0.73661 0.33482 1.25 0.17857 0.9375-0.55804 0.9375-0.55804-0.625 1.1607-0.71429 1.6964-0.24554 1.6741-0.24554 1.6741l-0.22321-2.2545-0.91518-0.625" style="fill-rule:evenodd;fill:#000000"/>
  <path d="m8.7946 15.045s0.60268 1.1384 0.66964 1.3616c0.066964 0.22321 0.20089 1.942 0.20089 1.942l0.13393-3.5491s-0.73661 0.15625-1.0045 0.24554z" style="fill-rule:evenodd;fill:#000000"/>
  <path d="m8.8388 15.044s1.6731-1.4205 1.894-2.1939 0.78918-2.7148 0.78918-2.7148 0.7734 0.44194 1.1206 0.58399c0.34724 0.14205 1.8309 0.07892 1.894 0.07892 0.06313 0-2.1939 1.0417-2.1939 1.0417l-0.61556 1.0102-1.3574 1.4994-0.82075 0.69448-0.56821 0.04735" style="fill-rule:evenodd;fill:#000000"/>
  <path d="m7.0759 11.875z" style="fill:none;stroke-width:1px;stroke:#000000"/>
  <path d="m6.808 12.031s0.47991-0.07813 0.79241-0.0558c0.3125 0.02232 0.32366 0.03348 0.32366 0.03348l0.33482-0.90402-1.183 0.70312" style="fill-rule:evenodd;fill:#000000"/>
  <path d="m19.808 8.2728 0.59978 0.15784-0.26832 0.33146 0.26832 0.1894-0.15784 0.37881 0.07892 0.25254-0.07892 0.52086 0.26832 0.01578 0.047351-0.63134 0.61556-0.50508-0.23675-0.48929 0.53664-0.12627-0.83653-0.39459z" style="fill-rule:evenodd;fill:#000000"/>
  <path d="m2.0536 9.2634s0.84821-1.7188 1.5402-2.2321 1.0491-0.58036 1.0491-0.58036l-1.183 2.8795s0.95982-0.9375 1.317-1.25c0.35714-0.3125 0.37946-0.35714 0.37946-0.35714s-0.73661 1.7411-0.71429 1.8973c0.022321 0.15625 0.13393 1.1384 0.13393 1.1384s0.49107-1.1607 0.9375-1.6741c0.44643-0.51339 0.51339-0.55804 0.51339-0.55804l-0.71429 1.9196-0.80357 0.71429-0.066964-1.2946-0.44643-0.13393-0.84821 0.75893 0.26786-1.4286-0.91518 0.11161z" style="fill-rule:evenodd;fill:#000000"/>
  <path d="m14.308 4.1853s0.5692 0.26786 0.625 0.24554c0.0558-0.022321 0.42411 0.15625 0.42411 0.15625l-0.033482-0.27902-0.74777-0.10045" style="fill-rule:evenodd;fill:#000000"/>
  <path d="m14.922 1.5625s0.41295 0.16741 0.54688 0.61384c0.13393 0.44643 0.14509 1.1384 0.14509 1.1384s0.30134-0.80357 0.29018-0.92634c-0.011161-0.12277-0.17857-0.61384-0.2567-0.69196s-0.41295-0.24554-0.41295-0.24554l-0.24554-0.022321" style="fill-rule:evenodd;fill:#000000"/>
  <path d="m11.033 4.2322-1.0102 0.71026 0.39459 0.26832-0.44194 0.29989 0.36302 0.1894-0.56821 0.41037 0.55243 0.12627-0.26832 0.20519-0.91545-0.094702 0.83653-0.55243-1.4047-0.61556 0.80497-0.22097 0.58399-0.69448 0.78918 0.094702" style="fill-rule:evenodd;fill:#000000"/>
 </g>
</svg>
