<svg version="1.1" viewBox="0 0 20 20" xmlns="http://www.w3.org/2000/svg">
 <defs>
  <style type="text/css">.str0 {stroke:black;stroke-width:8.46}
    .fil0 {fill:none}
    .fil1 {fill:black}</style>
 </defs>
 <g>
  <path d="m0.31986 9.5127 1.7703 1.791 5.3432 7.2655 4.4742 0.77724 6.0836-7.9414 1.9957-1.7572-1.9313-0.13517-2.2854-5.9138-2.8004-1.5545-3.6695-0.16897-3.4119 0.10138-2.9613 5.711-0.45063 1.6559-0.41845 0.20276z" style="fill-rule:evenodd;fill:#e9c6af"/>
  <path d="m5.6465 3.6966 4.5749 2.9869 5.2577-3.0825 0.40969 0.64517-5.6901 3.3692-5.508-3.3454z" style="fill-rule:evenodd;fill:#008000"/>
  <path d="m13.595 8.1785-0.74471 0.36651c-0.11637-0.19645-0.32329-0.32727-0.56003-0.32727-0.3649 0-0.66038 0.31045-0.66038 0.69331 0 0.38286 0.29548 0.69284 0.66038 0.69284 0.36446 0 0.66016-0.30998 0.66016-0.69284 0-0.024527-0.0011-0.048587-0.0037-0.072414l0.61142-0.3011c0.02358-0.011679 0.0336-0.041113 0.02247-0.065874-0.01091-0.024527-0.03894-0.035038-0.0623-0.023593l-0.58918 0.29012c-0.0087-0.036441-0.02003-0.071947-0.03426-0.10605l0.74003-0.36441c0.02337-0.011446 0.03382-0.040878 0.0227-0.06564-0.01091-0.024761-0.03894-0.035507-0.06252-0.023593z" style="fill:#000000;stroke-width:.22798"/>
  <path d="m18.564 9.338c-0.074539-0.26513-0.17822-0.51694-0.3075-0.75147 0.2828-0.51227 0.44433-1.1075 0.44433-1.7426 0-0.30624-0.03804-0.60361-0.10858-0.88696-0.077653-0.31045-0.19513-0.60384-0.34621-0.87387-2.8865-6.6665-7.9653-4.0734-7.9653-4.0734h-0.18045s-5.0788-2.5931-7.9657 4.0734c-0.1513 0.27003-0.26833 0.56343-0.34599 0.87387-0.070754 0.28335-0.1088 0.58071-0.1088 0.88696 0 0.63514 0.16198 1.2303 0.44411 1.7426-0.12905 0.23453-0.23229 0.48634-0.30727 0.75147h-1.7141l0.21315 0.28896c0.25454 0.34595 0.79254 1.0182 1.4563 1.5146 0.075427 0.33077 0.19424 0.64355 0.35222 0.92994-0.28235 0.51274-0.44411 1.1077-0.44411 1.7426 0 0.89583 0.32173 1.7122 0.85062 2.3299-0.52888 0.61739-0.85062 1.4343-0.85062 2.3296 0 1.9246 1.4865 3.4855 3.3197 3.4855h10.382c1.8336 0 3.3197-1.5609 3.3197-3.4855 0-0.89537-0.32151-1.7122-0.85084-2.3296 0.52933-0.61762 0.85084-1.434 0.85084-2.3299 0-0.63491-0.16176-1.2299-0.44433-1.7426 0.1464-0.26536 0.25944-0.55338 0.33531-0.85706 0.7091-0.50176 1.2889-1.2243 1.5562-1.5877l0.21315-0.28896h-1.7974zm-17.756 0.35857h2.0715c0.090113 0.049988 0.15708 0.088064 0.19402 0.10932l1.2155 1.1313c-0.2403 0.33124-0.51842 0.48611-0.86641 0.48611-0.10991 0-0.22806-0.01588-0.35177-0.04812l-0.30215-0.078253c-0.79566-0.27938-1.535-1.072-1.9607-1.6004zm5.2517-5.3834 4.1423 2.5438 4.0864-2.5093c0.13394 0.12614 0.25899 0.24761 0.3738 0.363l-4.4602 2.7387-4.4947-2.7601c0.11837-0.13455 0.23652-0.26022 0.35244-0.37609zm4.1087-0.6557h0.0445c1.4289-1.5389 2.8073-0.92083 3.7945 0.013081l0.23407 0.29059-4.0395 2.4805-4.0548-2.4901 0.2265-0.28101c0.98701-0.93414 2.3656-1.552 3.7947-0.013081zm4.4571 9.7388-3.8045 1.9484c0 0.0039 6.67e-4 0.0075 6.67e-4 0.01191v2.5413c0 0.24037-0.18601 0.43542-0.41474 0.43542h-0.41741c-0.22917 0-0.41496-0.19505-0.41496-0.43542v-2.5413c0-0.01612 8.903e-4 -0.03201 0.00241-0.04766l-3.758-1.937-0.63212-1.4567 0.12927-6.9333 0.06319-0.078721 4.7392 2.9106h0.16732l4.7234-2.9008 0.05563 0.06891 0.12594 6.7593zm3.0694-2.0993-0.30238 0.07825c-0.12326 0.03223-0.24186 0.04812-0.35155 0.04812-0.34777 0-0.62567-0.15487-0.86641-0.48611l1.2153-1.1313c0.03693-0.021257 0.10391-0.059333 0.19424-0.10932h2.0712c-0.42542 0.52839-1.165 1.321-1.9604 1.6004z" style="fill:#000000;stroke-width:.22798"/>
  <path d="m7.8179 8.2177c-0.24831 0-0.46413 0.14389-0.57672 0.35623l-0.7278-0.35857c-0.023585-0.011679-0.051397-9.343e-4 -0.062745 0.023827-0.011124 0.024995-8.9e-4 0.054194 0.022695 0.06564l0.72824 0.35903c-0.012683 0.034572-0.02314 0.070078-0.03026 0.10745l-0.58117-0.28639c-0.023586-0.011679-0.05162-9.344e-4 -0.062745 0.023592-0.011124 0.024761-0.00111 0.054194 0.022917 0.065873l0.6092 0.30017c-4.449e-4 0.012147-0.00156 0.02406-0.00156 0.036207 0 0.38239 0.29548 0.69284 0.66016 0.69284 0.36468 0 0.66038-0.31045 0.66038-0.69284-2.193e-4 -0.38263-0.29592-0.69307-0.6606-0.69307z" style="fill:#000000;stroke-width:.22798"/>
  <path d="m5.3797 0.88469-2.9725 3.8116-0.098145 2.0653z" style="fill-rule:evenodd;fill:#de8787"/>
  <path d="m2.3462 5.2498-0.59177 1.7444 0.40969 2.0789z" style="fill-rule:evenodd;fill:#008000"/>
  <path d="m5.123 3.2665s0.79662-1.601 1.707-1.7444c0.91042-0.14337 1.9574 0.023895 1.9574 0.023895s-1.9119 0.40622-2.3216 0.69297c-0.40969 0.28674-1.3429 1.0275-1.3429 1.0275z" style="fill-rule:evenodd;fill:#008000"/>
  <path d="m14.812 0.60205 3.0458 3.7472 0.1382 2.0628z" style="fill-rule:evenodd;fill:#de8787"/>
  <path d="m17.994 5.0518 0.59177 1.7444-0.40969 2.0789z" style="fill-rule:evenodd;fill:#008000"/>
  <path d="m14.921 3.2597s-0.79662-1.601-1.707-1.7444c-0.91042-0.14337-1.9574 0.023895-1.9574 0.023895s1.9119 0.40622 2.3216 0.69297c0.40969 0.28674 1.3429 1.0275 1.3429 1.0275z" style="fill-rule:evenodd;fill:#008000"/>
  <path d="m18.172 4.0448s0.32576-0.48587 0.14712-0.52527c-0.28526-0.062912-0.65794-0.011846-1.0046 0.1602-0.20407 0.10137-0.37146 0.23087-0.49189 0.37077 0.03793-0.16116 0.03994-0.34156-0.0017-0.52621-0.07671-0.3395-0.28258-0.61309-0.53203-0.75042-0.14959-0.082639-0.35827 0.4468-0.35827 0.4468s-0.42876-0.40686-0.5317-0.27135c-0.16376 0.21573-0.23028 0.53574-0.15481 0.86983 0.04343 0.19222 0.1281 0.36319 0.23861 0.49998-0.17678-0.095057-0.39961-0.16118-0.64721-0.1826-0.39994-0.034695-0.76973 0.055336-1.004 0.22104-0.14076 0.099124 0.37431 0.42212 0.37431 0.42212s-0.59043 0.23457-0.47579 0.3576c0.18448 0.19632 0.51494 0.34277 0.90883 0.3769 0.24357 0.021045 0.47473-0.00412 0.6717-0.064093-0.15463 0.11639-0.29277 0.27371-0.39304 0.46177-0.1709 0.31808-0.19386 0.64744-0.08912 0.88689 0.06331 0.14336 0.59022-0.18599 0.59022-0.18599s0.0635 0.55191 0.23754 0.49233c0.2774-0.0942 0.54868-0.32326 0.71677-0.63631 0.09989-0.18686 0.14963-0.37731 0.15171-0.55158 0.07731 0.1588 0.20496 0.31608 0.37764 0.4514 0.29494 0.23097 0.65022 0.34462 0.94958 0.32696 0.17924-0.010384-0.0101-0.5365-0.0101-0.5365s0.6298 0.10571 0.62271-0.053804c-0.012766-0.2544-0.176-0.54273-0.46566-0.77074-0.16779-0.13116-0.35468-0.22488-0.54035-0.27763 0.20412-0.016724 0.42353-0.076384 0.63406-0.18121 0.35255-0.17535 0.59522-0.43468 0.67499-0.68436 0.048273-0.15068-0.59554-0.14654-0.59554-0.14654zm-1.0251 0.64317c-0.01835 0.00908-0.03755 0.014357-0.05672 0.016815-0.039 0.00503-0.07903-0.00328-0.10991-0.023467l-0.27505 0.13665-0.07086 0.035824c0.0048 0.012099 9e-3 0.024851 0.01188 0.037846 0.01785 0.079055-0.0026 0.15737-0.04938 0.22143l0.0425 0.033813 0.24692 0.19311c0.03646-0.013587 0.07688-0.014941 0.11362-0.00375 0.01837 0.0056 0.03545 0.014251 0.05063 0.026086 0.06246 0.049272 0.06565 0.13333 0.0077 0.18818-0.0585 0.055525-0.15613 0.060235-0.21858 0.010963-0.01517-0.011835-0.02694-0.026003-0.03489-0.04088-0.01683-0.030713-0.01893-0.065818-0.0064-0.09812l-0.24539-0.19227-0.04396-0.034105c-0.04053 0.027331-0.0887 0.047061-0.14173 0.056978-0.05303 0.00991-0.10584 0.00907-0.15494-0.00151l-0.02184 0.040202-0.14587 0.27164c0.02541 0.025158 0.0388 0.058208 0.03606 0.092583-2.51e-4 0.016413-5e-3 0.033649-0.01372 0.04997-0.03603 0.067688-0.12777 0.098388-0.20561 0.068359-0.07709-0.029604-0.11058-0.10799-0.07456-0.17568 0.0088-0.016321 0.02077-0.030408 0.03522-0.04214 0.02891-0.02341 0.06732-0.036857 0.10667-0.037443l0.14473-0.27086 0.02223-0.041405c-0.07069-0.04203-0.12345-0.10672-0.14131-0.18577-3e-3 -0.012995-0.0046-0.026234-0.0055-0.039042l-0.06312-0.00569-0.3295-0.02868c-0.01962 0.029631-0.0528 0.051637-0.09082 0.061003-0.01869 0.00463-0.03862 0.00666-0.05942 0.0049-0.08455-0.00732-0.14537-0.072705-0.13491-0.14577 0.01034-0.073606 0.08775-0.12702 0.17293-0.11981 0.0208 0.00177 0.03979 0.00724 0.05664 0.014804 0.03394 0.016229 0.05971 0.043011 0.07148 0.074674l0.32749 0.028491 0.06513 0.00588c0.03107-0.086506 0.1061-0.15923 0.20658-0.19495l-0.07523-0.333c-0.0384-0.00693-0.07181-0.026643-0.0933-0.05479-0.01092-0.01376-0.01858-0.029824-0.02249-0.04715-0.01626-0.072016 0.03881-0.1427 0.12277-0.1584 0.08395-0.0157 0.16522 0.02949 0.18148 0.10151 0.0038 0.017328 0.0037 0.034842-2.24e-4 0.051398-0.0076 0.033579-0.02975 0.063692-0.06198 0.083828l0.07523 0.33301c0.10782-0.00323 0.20828 0.036674 0.27438 0.10502l0.07565-0.037849 0.27024-0.13462c-0.0029-0.033329 0.0091-0.067178 0.03331-0.094266 0.01214-0.01299 0.02729-0.024854 0.04563-0.033927 0.07521-0.037204 0.16881-0.015765 0.21022 0.048162 0.04199 0.063256 0.01444 0.14516-0.06009 0.18223z" style="fill:#ff5555;stroke-width:.23693;stroke:#000000"/>
  <path d="m10.07 10.309-0.22097 1.168" style="fill:none;stroke-width:.37795;stroke:#000000"/>
 </g>
</svg>
