<svg version="1.1" viewBox="0 0 20 20" xmlns="http://www.w3.org/2000/svg">
 <path d="m9.788 1.9604s-0.89166-0.17833-2.0381-0.73881c-1.1464-0.56047-2.8024-1.2738-2.8024-1.2738s1.07 1.2229 1.6814 1.7324c0.61143 0.50952 1.9107 0.66238 1.9107 0.66238z" style="fill-rule:evenodd;fill:#000000"/>
 <path d="m16.693 8.2604-0.70256-0.36029-0.70256 0.1261-0.16213 1.1709h1.9455l-0.23419-0.61249" style="fill-rule:evenodd;fill:#000000"/>
 <path d="m3.8427 19.126s2.3882-2.2683 1.8257-3.7143c-0.56247-1.4461-2.3058-2.8463-3.2426-4.7558-0.93675-1.9095-0.54043-4.5036 1.3691-6.7013 1.9095-2.1977 6.48-2.8295 8.8219-1.7487 2.3419 1.0809 5.2816 4.345 4.8152 5.0637-0.46638 0.71874-0.739 0.9908-0.739 0.9908l0.64115 1.3485s1.0924 0.51141 0.93591 1.0173c-0.15646 0.50587-0.42428 1.001-0.42428 1.001s0.30554 0.8576 0.35958 1.0017c0.05404 0.14411 0.07045 0.44966-0.14456 0.6378l-0.21502 0.18814s0.31631 0.42657 0.24425 0.69678c-0.07205 0.27021-0.32803 0.52132-0.32803 0.52132s-0.39243 1.7028-0.42846 1.883c-0.03603 0.18014-1.2292 0.79069-2.3101 1.115-1.0809 0.32426-1.9691 1.0914-1.9691 1.0914l0.21617 1.8014-10.773-0.07206z" style="fill-rule:evenodd;fill:#bc5fd3;stroke-width:.57067;stroke:#000000"/>
 <path d="m14.474 9.4499 2.1515-1.5778-2.4959-0.14344-0.028685 1.377" style="fill-rule:evenodd;fill:#000000;stroke-width:1.2852"/>
 <path d="m13.768 7.2389s-1.0349 0.018476-1.2103 0.055427c-0.1754 0.036952-0.64899 0.44342-0.64899 0.44342s0.45605 0.79446 0.61391 0.90531 0.52621 0.5358 0.85948 0.72055c0.33326 0.18476 1.5962 0.51732 1.5962 0.51732l0.40342-0.77598-0.29818-0.38799 0.14033-0.92379z" style="fill-rule:evenodd;fill:#000000;stroke-width:1.2852"/>
 <path d="m12.22 7.3862s1.3096-0.49113 2.0627-0.065483c0.75306 0.42564 1.015 0.49113 1.4079 0.45839 0.3929-0.032742 0.81854-0.26194 0.81854-0.26194" style="fill:none;stroke-width:.73342;stroke:#000000"/>
 <path d="m14.721 8.5326-1.146-0.032742 1.2769 0.94952" style="fill:none;stroke-width:.73342;stroke:#ff0000"/>
 <path d="m14.315 3.1984s1.0809 0.86469 1.4772 1.6933c0.39632 0.82866 0.54043 1.3691 0.54043 1.3691l-3.2426-1.5132 1.3691 1.4411s-1.7294-0.57646-1.8735-0.61249c-0.14412-0.036028-0.10808 0.46837-0.10808 0.46837l-2.6661-0.90072 0.93675 0.86469-1.9816-0.43234 0.57646 0.5044-1.0088-0.28823-0.61249 0.32426-3.0624-0.72057 1.9095 2.4139 0.18014 0.54043s0.10809 1.9455 0.10809 2.4139c0 0.46837 2.7177 2.9371 3.0298 3.1173 2.8328 1.6351-3.136 2.5644-3.136 2.5644s-4.5414-5.4294-4.7216-6.7985c-0.18014-1.3691 0.18014-4.5756 2.486-6.1249 2.3058-1.5492 5.008-2.0176 6.0888-1.9455 1.0809 0.072057 3.711 1.6213 3.711 1.6213z" style="fill-rule:evenodd;fill:#000000"/>
 <path d="m13.457 18.494-2.089-0.10191 1.8088 0.84071 0.45857-0.71333" style="fill-rule:evenodd;fill:#000000"/>
 <path d="m5.4883 15.844 1.5492 1.261-2.0176 0.82866 0.64852-1.8375" style="fill-rule:evenodd;fill:#000000"/>
 <path d="m6.8934 17.105-4.1073 3.3507 2.5941-3.1345z" style="fill-rule:evenodd;fill:#000000"/>
 <path d="m6.9092 16.991 1.3757 0.61143s1.2993 1.6559 1.8852 2.089c0.58595 0.43309 1.2993 0.84071 1.1974 0.76428-0.10191-0.07642-9.0185 0.07642-9.0185 0.07642l4.2545-3.5157" style="fill-rule:evenodd;fill:#000000"/>
 <path d="m17.762 14.673-4.1281 3.4031 3.8544-1.3196 0.52003-2.0111" style="fill-rule:evenodd;fill:#000000"/>
 <path d="m17.486 9.8456-0.90694 0.54893" style="fill-rule:evenodd;fill:#000000;stroke-width:.57067;stroke:#000000"/>
 <path d="m15.917 12.975 0.35038 0.93201 2.0551-0.13482-0.95387-0.52849" style="fill-rule:evenodd;fill:#000000;stroke-width:1.8065"/>
 <path d="m1.9034 0.94656s2.8102 3.0805 4.3415 3.3146c1.5312 0.23419 2.3779-0.090072 3.9271 0.27022 1.5492 0.36029 3.3327 1.1889 4.7198 1.4952 1.3871 0.30624 2.2878 0.27022 2.2878 0.27022s0.36029-0.73859 0.03603-1.1529c-0.32426-0.41433-0.95476-1.207-1.9636-1.6213-1.0088-0.41433-1.1349-0.3783-1.1349-0.3783l1.5132 1.3691s-0.61249-0.1261-2.0897-0.6305c-1.4772-0.5044-2.504-0.73859-5.044-1.0809-2.54-0.34227-3.5849-0.41433-4.6657-0.97277-1.0809-0.55844-1.9275-0.8827-1.9275-0.8827z" style="fill-rule:evenodd;fill:#660080;stroke-width:.3424;stroke:#000000"/>
 <path d="m17.432 7.2696s-0.48639-0.68454-1.1529-1.0448c-0.66653-0.36029-2.1257-0.86469-2.1257-0.86469l2.4319 0.5044-1.7252-0.62176 1.8224 0.34936-1.9346-2.1775s1.207 0.48639 1.7114 0.95476 0.91873 1.0989 0.97278 1.5132c0.05404 0.41433-0.14412 0.61249-0.14412 0.61249z" style="fill-rule:evenodd;fill:#000000"/>
 <path d="m16.832 5.629-1.3884-0.61143 1.3248 0.31845-1.2229-0.535 0.95536 0.21655 0.64964 0.22929" style="fill-rule:evenodd;fill:#1a1a1a"/>
 <path d="m5.5207 3.0177s0.61143 0.16559 1.5158 0.25476c0.9044 0.089166 1.2865 0.20381 1.2865 0.20381s-1.2738 0.15286-1.8852-0.025476c-0.61143-0.17833-0.91714-0.43309-0.91714-0.43309z" style="fill-rule:evenodd;fill:#000000"/>
 <path d="m7.7881 3.1196s2.089 0.30571 2.968 0.54774c0.87893 0.24202 0.89166 0.22929 0.89166 0.22929s-3.1973-0.54774-3.8596-0.77702z" style="fill-rule:evenodd;fill:#000000"/>
 <path d="m9.9408 4.1514s1.3248 0.21655 2.2164 0.52226c0.89166 0.30571 1.4904 0.57321 1.4904 0.57321s-0.91714-0.73881-2.0508-0.94262c-1.1337-0.20381-1.6559-0.15286-1.6559-0.15286z" style="fill-rule:evenodd;fill:#000000"/>
 <path d="m2.2088 1.2089 1.6305 1.6942-0.61143-0.98083 1.4012 0.25476z" style="fill-rule:evenodd;fill:#000000"/>
 <path d="m6.2946 12.768 1.5179 2.5 3.0251-0.64544 0.89132 2.0437-0.25575 1.7267 0.71429 0.17857s-0.26786 1.1607-0.26786 1.4286 0.04464 0.625 0.04464 0.625l-4.0179-0.53572-2.0089-2.7232-0.625-3.1696z" style="fill-rule:evenodd;fill:#000000"/>
 <path d="m8.0406 6.6704s-0.84071-0.68786-2.7005-0.94262c-1.8598-0.25476-2.0636-0.025476-2.0636-0.025476s1.0445 1.5795 1.9871 2.624c0.94262 1.0445 2.7259 2.4712 2.7259 2.4712s-0.38214-0.89166-0.43309-1.5286c-0.050952-0.6369-0.076428-1.1974-0.076428-1.1974s-0.91714-0.6369-1.5031-0.99357c-0.58595-0.35667-1.4012-0.78976-1.4012-0.78976s1.8088 0.58595 2.3948 0.81524c0.58595 0.22929 0.81524 0.35667 0.81524 0.35667z" style="fill-rule:evenodd;fill:#000000;stroke-width:.57067;stroke:#bc5fd3"/>
</svg>
