<svg version="1.1" viewBox="0 0 20 20" xmlns="http://www.w3.org/2000/svg">
 <defs>
  <style type="text/css">.str0 {stroke:black;stroke-width:8.46}
    .fil0 {fill:none}
    .fil1 {fill:black}</style>
 </defs>
 <g>
  <path d="m2.7779 8.0991 0.17362 1.0102 0.34724 0.36302 0.75761-1.1049 0.69448-0.063134 1.0259 0.48929 0.66291-0.58399 0.61556 0.42616 0.71026-0.8681-0.89967-0.52086-3.3303 0.26832z" style="fill-rule:evenodd;fill:#ffffff"/>
  <path d="m3.4093 12.566 0.33146-1.2627 0.55243 0.26832 0.29989 0.6787 0.83653-0.44194 0.53664-1.6888 1.8309-0.58399 0.97859 0.74183-0.078918 1.6731-4.9403 1.4521z" style="fill-rule:evenodd;fill:#ffffff"/>
  <path d="m8.3969 19.211 7.292-3.4408 2.6201-8.5863 1.8309-0.82075-5.2402-2.4307-1.0733-0.25254-2.4307-2.7464-0.66291 1.7046-1.5152 0.72605-2.5569 1.0102 0.15784 1.168-0.91545-0.063134-2.9358-0.34724-2.3675 0.78918 0.91545 2.1781 1.5784-0.22097 1.0417 0.25254 2.7148-0.78918 1.389 0.72605 0.31567 1.4205 0.37881 1.9256-0.94702 0.06314-0.88388-0.22097-1.9887 0.56821-1.1364 0.91545 0.69448 0.82075 2.9358-0.56821 1.8625 0.75761 0.031567 1.9256z" style="fill-rule:evenodd;fill:#916f6f"/>
  <path d="m10.102 4.8161-1.7678-0.22097-1.0417 0.94702-0.094702 0.34724 1.7046 0.15784z" style="fill-rule:evenodd;fill:#ff0000"/>
  <path d="m7.4183 5.7931c0.21904-0.34089 0.42164-0.84327 1.0541-0.84327 0.42164 0 0.63709 0.059029 1.0547 0.21967-0.19269 0.28102-0.81249 0.58671-1.2757 0.63119-0.41152 0-0.62234-0.00758-0.83315-0.00758m10.119 1.8974c-1.173-1.1047-2.767-1.8158-4.4272-1.8974 1.4553 0.85592 2.5018 2.0405 3.1623 3.3731-0.58903-0.020871-1.4127 0.05144-2.1082 0.42164 0.66682 1.0313 0.89788 1.9851 1.0541 2.9515-0.84981 0.0017-1.5289 0.29051-2.1082 0.63246 0.16612 0.79331 0.08875 1.6688-0.15116 2.3622-1.5554-1.7234-3.6653-2.6445-5.9626-2.9947-0.56478 0.2591-1.0885 0.44124-1.6865 0.63246-0.33204-0.064721-0.62465-0.1948-0.84327-0.42164 0.72332-0.65543 1.5584-1.0925 2.5298-1.2649 0.60631 0.31813 1.3636 0.42164 1.8974 0.42164 0.17498 0.29452 0.3449 0.51313 0.63246 0.63246 0-1.3952-0.18657-2.5726-0.63246-3.5839 0.54307-0.50322 1.126-0.6879 1.6865-0.84327-1.2504-0.6898-2.8922-1.0686-4.0055-1.0541-0.68368 0.3664-1.6663 0.63246-2.5298 0.63246-1.0672-0.5886-1.766-0.11342-2.319 0.21082-0.4073-0.46275-0.72395-0.95775-0.84327-1.6865 0.22452-0.047646 0.44314-0.057344 0.63246 0 0.035841 0.30527 0.22136 0.63498 0.42164 0.84327 0.89197-0.33183 1.8196-0.25973 2.7406 0-0.76654-0.6411-1.4055-0.7853-2.319-0.63246-0.11996-0.11532-0.1988-0.34595-0.21019-0.54665 0.5612-0.2494 1.2204-0.43197 1.8967-0.50744 0.79373 0.1539 1.679 0.52388 2.319 1.0541 0.13661-0.19522 0.18657-0.22726 0.21082-0.42164 0.59092 0.24792 1.3775 0.39845 2.1082 0.42164 0.6529-0.042796 1.4123-0.15432 1.8974-0.42164-0.18426-0.20365-0.38327-0.33963-0.63246-0.42164 0.53464-0.14568 1.3547-0.43028 1.8974-0.84327-0.80132-0.2591-2.3346-0.42164-3.1623-0.42164-0.57047 0.10899-0.97841 0.3858-1.2649 0.63246-0.17751-0.068727-0.34511-0.25657-0.42164-0.42164 0.94004-0.68811 1.9448-1.0258 3.7106-1.0524a5.9662 5.9662 0 0 1-0.1267 0.41995c0.71109-0.63435 1.0102-1.5204 1.0541-2.319a3.8738 3.8738 0 0 1 0.44483 0.41932c0.04111 0.5009-0.04195 0.91959-0.23401 1.2672 0.36451 0.088544 0.71763 0.13007 1.1407 0.031201a8.1129 8.1129 0 0 1 0.54581 1.2337 2.0196 2.0196 0 0 0 0.49078-0.41046c2.0671 0.30885 4.0207 1.2109 5.4121 2.3078-0.22241 0.2007-0.5184 0.33752-0.84327 0.42164-0.32445-0.3917-0.93962-0.73344-1.4757-0.84327 0.27343 0.52388 0.43365 1.0779 0.42164 1.6865m-8.6554 10.553c0.73428-1.2691 1.0986-2.5488 1.2417-3.8843a14.155 14.155 0 0 1 1.4038 0.79774c-0.47919 1.2352-1.4007 2.2638-2.6456 3.0866m-2.518-8.0233c0.31328 0.06641 0.62128 0.22916 0.84327 0.42164 0.20217-0.20407 0.38833-0.33794 0.63246-0.42164 0.25003 0.25235 0.37779 0.50807 0.42164 0.84327-0.34279 0.05228-0.79247-0.05966-1.0541-0.21082-0.47666 0.04659-0.84391 0.18383-1.2649 0.42164 0.043218-0.38327 0.18278-0.81334 0.42164-1.0541m0.63246-1.8974a1.8569 1.8569 0 0 1-0.47413-0.27554 0.19437 0.19437 0 0 0-0.28081 0.040266c-0.14673 0.20449-0.29915 0.34427-0.50997 0.44609-0.29177-0.071889-0.51123-0.22853-0.63246-0.42164 0.56563-0.15074 1.0461-0.38875 1.4757-0.63246 0.41004 0.046169 0.67947 0.22579 0.84327 0.42164-0.05397 0.15263-0.23127 0.34743-0.42164 0.42164m-3.7947 0.84327c-0.16549-0.25657-0.2378-0.49627-0.20492-0.86056 0.19859 0.11595 0.36999 0.20323 0.62655 0.22811-0.066196 0.19859-0.1735 0.45052-0.42164 0.63246m0.42164 3.1623c0-0.23822 0.10182-0.6255 0.21082-0.84327 0.2085 0.13366 0.3645 0.34363 0.42164 0.63246-0.10815 0.13766-0.42016 0.21082-0.63246 0.21082m17.498 0.21082c-0.32572-1.8014-1.3851-3.8628-2.5298-5.0596 0.64363-0.16992 1.3269-0.57996 1.8974-1.0541-1.8459-1.6444-3.862-2.658-6.1137-2.9515-0.73302-1.5533-2.0306-2.8073-3.5839-3.5839 0.091915 0.39233 0.14314 0.82556 0.15938 1.2712-0.62212-0.42838-1.6347-0.79753-2.4784-0.8496 0.54518 0.85297 0.89619 1.7622 1.0191 2.65-1.333 0.21398-2.5867 0.72311-3.5489 1.5664 0.00485 0.24581 0.089386 0.48678 0.21082 0.63246-0.49395-0.22684-1.3661-0.62191-2.1082-0.63246-1.0444 0.12227-2.0882 0.45242-2.7406 0.84327-0.42227-0.11932-0.90041-0.10541-1.2649 0 0 0.75431 0.10288 1.5261 0.42164 2.1082 0.15052 0.030558 0.28418 0.036262 0.42164 0 0.079268 0.43408 0.30927 0.77897 0.63246 1.0541 0.30505 0 0.63267-0.081164 0.84327-0.21082 0.11637 0.51081 0.47012 0.94426 0.84327 1.2649 0.38769-0.23232 0.70624-0.77918 0.84327-1.0541 0.27702 0.047646 0.56794 0.02426 0.84327 0 0.24054 0.2026 0.50575 0.35312 0.84327 0.42164 0.27301-0.13935 0.52958-0.38706 0.63246-0.63246 0.16254 0.19227 0.37462 0.33373 0.63246 0.42164 0.31496-0.1501 0.50301-0.37968 0.63246-0.63246 0.25088 0.25277 0.38917 0.68158 0.42164 1.0541-0.43597-0.11131-0.98452-0.11131-1.4757 0-0.57026 0.2513-1.11 0.56984-1.4757 0.84327-0.43914-0.14947-0.90821-0.23801-1.2649-0.21082 0.11806 0.78656 0.69296 1.45 1.2649 1.6865-0.094236 0.18826-0.2534 0.34743-0.42164 0.42164-0.24771-0.3839-0.63688-0.68453-1.0541-0.84327-0.28165 0.29135-0.42164 0.77792-0.42164 1.2649-0.31117-0.08897-0.60315-0.08897-0.84327 0 0 1.0788 0.81523 2.2553 1.6865 2.5298 0.3761-0.17709 0.70329-0.56647 0.84327-0.84327 0.27575-0.03268 0.7269-0.07695 1.0541 0 0.45136-0.14778 0.92022-0.36893 1.2649-0.63246 0.69275 0.11131 1.3977 0.32276 2.0909 0.60484-0.226 2.4824-0.97187 4.6441-2.7234 6.9846 1.9768-0.25699 3.6967-0.98579 4.8488-2.1082 0.81734 0.58355 1.5483 1.3539 2.1082 2.1082 1.6714-0.71236 2.6622-1.578 3.3731-2.7406 0.90673 0.10983 1.7167 0.52452 2.5298 1.0541 0.44946-1.8164 0.43281-4.3197 0-5.9029 0.47076-0.41447 1.0832-0.7503 1.6865-0.84327" style="fill-rule:evenodd;fill:#000000"/>
 </g>
</svg>
