<?xml version="1.0" encoding="UTF-8" standalone="no"?>
<svg
   xmlns:dc="http://purl.org/dc/elements/1.1/"
   xmlns:cc="http://creativecommons.org/ns#"
   xmlns:rdf="http://www.w3.org/1999/02/22-rdf-syntax-ns#"
   xmlns:svg="http://www.w3.org/2000/svg"
   xmlns="http://www.w3.org/2000/svg"
   xmlns:sodipodi="http://sodipodi.sourceforge.net/DTD/sodipodi-0.dtd"
   xmlns:inkscape="http://www.inkscape.org/namespaces/inkscape"
   width="20"
   height="20"
   viewBox="0 0 20 20"
   version="1.1"
   id="svg838"
   inkscape:version="1.0.1 (3bc2e813f5, 2020-09-07)"
   sodipodi:docname="race_humankingdom.svg">
  <defs
     id="defs832" />
  <sodipodi:namedview
     id="base"
     pagecolor="#ffffff"
     bordercolor="#666666"
     borderopacity="1.0"
     inkscape:pageopacity="0.0"
     inkscape:pageshadow="2"
     inkscape:zoom="7.9195959"
     inkscape:cx="16.726491"
     inkscape:cy="17.985262"
     inkscape:document-units="mm"
     inkscape:current-layer="layer1"
     inkscape:document-rotation="0"
     showgrid="false"
     units="px"
     inkscape:window-width="1267"
     inkscape:window-height="1040"
     inkscape:window-x="52"
     inkscape:window-y="0"
     inkscape:window-maximized="0"
     inkscape:pagecheckerboard="true" />
  <metadata
     id="metadata835">
    <rdf:RDF>
      <cc:Work
         rdf:about="">
        <dc:format>image/svg+xml</dc:format>
        <dc:type
           rdf:resource="http://purl.org/dc/dcmitype/StillImage" />
        <dc:title></dc:title>
      </cc:Work>
    </rdf:RDF>
  </metadata>
  <g
     inkscape:label="Layer 1"
     inkscape:groupmode="layer"
     id="layer1">
    <g
       id="g1905"
       transform="matrix(3.7795276,0,0,3.7795276,-83.941232,-59.719622)">
      <rect
         y="16.266157"
         x="22.968475"
         height="4.5185256"
         width="3.783534"
         id="rect1892"
         style="opacity:1;fill:#ffb380;fill-opacity:1;stroke:none;stroke-width:0.529167;stroke-miterlimit:4;stroke-dasharray:none;stroke-opacity:1" />
      <g
         transform="matrix(0.21279768,0,0,0.21279768,27.802018,15.97854)"
         id="g1890">
        <path
           inkscape:connector-curvature="0"
           d="m -10.685153,9.489922 c 0,0.3074459 0.09869,0.560123 0.296598,0.757502 0.197644,0.197644 0.450321,0.296333 0.7575022,0.296333 0.28575,0 0.52705,-0.09869 0.7246937,-0.296333 0.2198688,-0.197644 0.3294063,-0.4503207 0.3294063,-0.757502 0,-0.28575 -0.1095375,-0.52705 -0.3294063,-0.7249583 -0.1976437,-0.2196042 -0.4389437,-0.3294062 -0.7246937,-0.3294062 -0.3071812,0 -0.5598582,0.109802 -0.7575022,0.3294062 -0.197908,0.1979083 -0.296598,0.4394729 -0.296598,0.7249583 z m 0.8895294,-0.1317625 c 0.043921,-0.043921 0.098954,-0.065881 0.1645708,-0.065881 0.043921,0 0.087842,0.02196 0.1317625,0.065881 0.043921,0.043921 0.065881,0.088106 0.065881,0.1320271 0,0.065881 -0.02196,0.1209146 -0.065881,0.1645708 -0.043921,0.043921 -0.087842,0.065881 -0.1317625,0.065881 -0.065617,0 -0.12065,-0.02196 -0.1645708,-0.065881 -0.043921,-0.043921 -0.065881,-0.098689 -0.065881,-0.1645708 0,-0.044185 0.02196,-0.088371 0.065881,-0.1320271 z"
           id="path1827"
           style="stroke-width:0.264583" />
        <path
           inkscape:connector-curvature="0"
           d="m -8.9060945,15.090093 c 0.2198688,0.197644 0.3294063,0.439208 0.3294063,0.724694 v -1.0541 h -1.0541 c 0.2854854,0 0.52705,0.110066 0.7246937,0.329406 z"
           id="path1829"
           style="stroke-width:0.264583" />
        <path
           inkscape:connector-curvature="0"
           d="M -4.3600237,8.435822 V 2.110693 c 0,-0.5709709 -0.2084917,-1.0652125 -0.6257396,-1.48246044 C -5.4032758,0.21098464 -5.8972528,0.0022284 -6.4684883,0.0022284 H -21.226682 c -0.592931,0 -1.098021,0.20875624 -1.515533,0.62600416 -0.395552,0.41724794 -0.592931,0.91122494 -0.592931,1.48246044 v 6.325129 c -0.592932,0 -1.098021,0.2084917 -1.515534,0.6260042 -0.395023,0.4172479 -0.592931,0.911225 -0.592931,1.4821958 v 2.108465 c 0,0.592931 0.197908,1.09802 0.592931,1.515533 0.417513,0.395287 0.922602,0.592931 1.515534,0.592931 v 6.325129 c 0,0.592931 0.197643,1.098021 0.592931,1.515534 0.417512,0.395022 0.922602,0.592931 1.515533,0.592931 h 14.7581937 c 0.5709709,0 1.0649479,-0.197909 1.482725,-0.592931 0.4172479,-0.417248 0.6257396,-0.922338 0.6257396,-1.515534 v -6.325393 c 0.5709708,0 1.0649479,-0.197644 1.4824604,-0.592932 0.4172479,-0.417248 0.6260042,-0.922337 0.6260042,-1.515533 v -2.108465 c 0,-0.5709704 -0.2087563,-1.0649475 -0.6260042,-1.4821954 C -3.2948112,8.6443137 -3.7890529,8.435822 -4.3600237,8.435822 Z m -1.0541,11.595629 h -1.0541 v 1.054365 h -1.0543645 v 1.0541 H -20.172582 v -1.0541 h -1.053835 v -1.054365 h -1.054629 V 4.2191575 c 0.285485,0 0.527314,-0.098954 0.724693,-0.2965979 0.219605,-0.1976437 0.329671,-0.4503208 0.329671,-0.7577667 V 2.110693 c 0,0.5929312 0.197644,1.0980208 0.592931,1.5155333 0.416984,0.3950229 0.922073,0.5929312 1.515269,0.5929312 V 2.110693 c 0,0.5929312 0.197644,1.0980208 0.592931,1.5155333 0.417513,0.3950229 0.922602,0.5929312 1.515534,0.5929312 V 2.110693 c 0,0.5929312 0.197643,1.0980208 0.592931,1.5155333 0.416983,0.3950229 0.922073,0.5929312 1.515269,0.5929312 V 2.110693 c 0,0.5929312 0.197908,1.0980208 0.592931,1.5155333 0.417512,0.3950229 0.922602,0.5929312 1.515533,0.5929312 V 2.110693 c 0,0.5929312 0.197644,1.0980208 0.592931,1.5155333 0.416984,0.3950229 0.922338,0.5929312 1.515269,0.5929312 V 2.110693 c 0,0.5929312 0.197909,1.0980208 0.592931,1.5155333 0.4172484,0.3950229 0.9226025,0.5929312 1.5155338,0.5929312 V 2.110693 c 0,0.5929312 0.1976437,1.0980208 0.5931958,1.5155333 0.4169833,0.3950229 0.9220729,0.5929312 1.5152687,0.5929312 V 3.1647929 c 0,0.3074459 0.098954,0.560123 0.2965979,0.7577667 0.1973792,0.1979083 0.4500563,0.2965979 0.7575021,0.2965979 z"
           id="path1831"
           style="stroke-width:0.264583" />
        <polygon
           points="76.645,34.796 76.645,30.811 52.739,30.811 52.739,34.796 64.691,34.796 "
           id="polygon1833"
           transform="matrix(0.26458333,0,0,0.26458333,-26.747213,-0.77061951)" />
        <path
           inkscape:connector-curvature="0"
           d="m -18.525551,18.38442 c 0.417513,0.395287 0.922602,0.592931 1.515534,0.592931 h 6.324864 c 0.570971,0 1.0652127,-0.197644 1.4827252,-0.592931 0.4175125,-0.417248 0.6257396,-0.922338 0.6257396,-1.515533 H -19.118482 c 0,0.593195 0.197644,1.098285 0.592931,1.515533 z"
           id="path1835"
           style="stroke-width:0.264583" />
        <path
           inkscape:connector-curvature="0"
           d="m -14.605219,13.410253 c 0.197643,0.197644 0.450056,0.296598 0.757766,0.296598 0.285486,0 0.52705,-0.09895 0.724694,-0.296598 0.219604,-0.197644 0.329406,-0.450321 0.329406,-0.757766 h -2.108464 c 0,0.307445 0.09895,0.560122 0.296598,0.757766 z"
           id="path1837"
           style="stroke-width:0.264583" />
        <polygon
           points="20.865,30.811 20.865,34.796 32.817,34.796 44.77,34.796 44.77,30.811 "
           id="polygon1839"
           transform="matrix(0.26458333,0,0,0.26458333,-26.747213,-0.77061951)" />
        <path
           inkscape:connector-curvature="0"
           d="m -19.118482,9.489922 c 0,0.3074459 0.09895,0.560123 0.296598,0.757502 0.197644,0.197644 0.450056,0.296333 0.757502,0.296333 0.285486,0 0.527315,-0.09869 0.724694,-0.296333 0.219604,-0.197644 0.329671,-0.4503207 0.329671,-0.757502 0,-0.28575 -0.110067,-0.52705 -0.329671,-0.7249583 -0.197644,-0.2196042 -0.439208,-0.3294062 -0.724694,-0.3294062 -0.307446,0 -0.560123,0.109802 -0.757502,0.3294062 -0.197644,0.1979083 -0.296598,0.4394729 -0.296598,0.7249583 z m 0.889529,-0.1317625 c 0.04392,-0.043921 0.09895,-0.065881 0.164571,-0.065881 0.04392,0 0.08784,0.02196 0.131763,0.065881 0.04392,0.043921 0.06588,0.088106 0.06588,0.1320271 0,0.065881 -0.02196,0.1209146 -0.06588,0.1645708 -0.04392,0.043921 -0.08784,0.065881 -0.131763,0.065881 -0.06588,0 -0.12065,-0.02196 -0.164571,-0.065881 -0.04392,-0.043921 -0.06588,-0.098689 -0.06588,-0.1645708 0,-0.044185 0.02196,-0.088371 0.06588,-0.1320271 z"
           id="path1841"
           style="stroke-width:0.264583" />
        <path
           inkscape:connector-curvature="0"
           d="m -19.118482,15.815051 c 0,-0.285485 0.09895,-0.52705 0.296598,-0.724694 0.197644,-0.219339 0.450056,-0.329406 0.757502,-0.329406 h -1.0541 z"
           id="path1843"
           style="stroke-width:0.264583" />
      </g>
    </g>
  </g>
</svg>
