<svg version="1.1" viewBox="0 0 20 20" xmlns="http://www.w3.org/2000/svg">
 <defs>
  <style type="text/css">.str0 {stroke:black;stroke-width:8.46}
    .fil0 {fill:none}
    .fil1 {fill:black}</style>
  <style type="text/css">.fil0 {fill:black}</style>
 </defs>
 <g>
  <rect x="5.4688" y="4.0402" width="8.3929" height="4.8438" style="fill:#f9f9f9;stroke-width:.3;stroke:#000000"/>
  <rect x="8.9844" y="7.2991" width="1.5179" height="1.4286" style="fill:#808000;stroke-width:.3;stroke:#000000"/>
  <path d="m18.452 10.984h-0.0032c-0.2443 0-0.45103 0.17678-0.49279 0.4174-0.26636 1.5346-1.6089 6.6199-7.5419 7.3809-0.09352 0.01208-0.18966-0.01419-0.26478-0.07093-0.09036-0.0683-0.1429-0.17547-0.14211-0.28869l0.05832-6.9461c2.9331 0 5.2424-2.6707 4.6287-5.7131-0.09031-0.44866-0.24819-0.86816-0.45649-1.2551v-4.0272c0-0.34096-0.41241-0.51171-0.65329-0.27056l-2.0529 2.0529c-0.47808-0.15656-0.98532-0.24377-1.5073-0.24377h-0.02023c-0.70793 0-1.3959 0.084846-2.0565 0.24009l-2.0492-2.0492c-0.24114-0.24114-0.65329-0.070399-0.65329 0.27056v2.9066c-2.6912 1.6896-4.4217 4.7685-4.183 8.2317 0.30471 4.4204 3.8859 8.0016 8.306 8.3065 5.0574 0.34884 9.2977-3.5002 9.5845-8.4111 0.01681-0.28764-0.21251-0.53088-0.50067-0.53088zm-8.6777-2.6347c-0.042554 0.068297-0.14211 0.068297-0.18467 0l-0.38877-0.62256c-0.045181-0.072501 0.00683-0.16654 0.092464-0.16654h0.77728c0.08537 0 0.13764 0.094041 0.09246 0.16654z" style="fill:#ffb380;stroke-width:.5;stroke:#000000"/>
  <circle cx="11.953" cy="6.0603" r="1.5234" style="fill:#ffffff;stroke-width:.3;stroke:#000000"/>
  <path d="m11.932 7.541s-0.61942-0.40024-0.625-1.519c-0.0056-1.1188 0.6529-1.5335 0.6529-1.5335s0.66964 0.50151 0.69196 1.5527c0.02232 1.0512-0.71987 1.4997-0.71987 1.4997z" style="fill-rule:evenodd;fill:#ffff00;stroke-width:.3;stroke:#000000"/>
  <circle cx="7.6395" cy="6.0435" r="1.5234" style="fill:#ffffff;stroke-width:.3;stroke:#000000"/>
  <path d="m7.6315 7.5614s-0.57832-0.41049-0.58353-1.5579c-0.00521-1.1474 0.60958-1.5727 0.60958-1.5727s0.62521 0.51434 0.64605 1.5925c0.02084 1.0781-0.6721 1.5381-0.6721 1.5381z" style="fill-rule:evenodd;fill:#ffff00;stroke-width:.3;stroke:#000000"/>
  <path d="m1.7857 7.6116 4.5223 2.588-5.0803-0.04333 4.8714 2.08-4.5334 2.2764 4.3995 0.15756-1.8135 3.3003-2.4651-3.5959-0.6151-3.8835 0.3125-2.2098z" style="fill-rule:evenodd;fill:#000000"/>
  <path d="m5.0192 3.7429s-0.56821 1.894-0.34724 3.1567c0.22097 1.2627 1.7046 3.3461 1.7046 3.3461l-4.6404-2.2097s1.0417-2.9989 1.7678-3.5355c0.72605-0.53664 1.5152-0.75761 1.5152-0.75761z" style="fill-rule:evenodd;fill:#000000"/>
 </g>
</svg>
