<svg version="1.1" viewBox="0 0 20 20" xmlns="http://www.w3.org/2000/svg">
 <defs>
  <style type="text/css">.str0 {stroke:black;stroke-width:8.46}
    .fil0 {fill:none}
    .fil1 {fill:black}</style>
 </defs>
 <g stroke="#000">
  <path d="m5.1217 15.546c0.060348 0.76611 0.18822 1.6793 0.053854 2.5511l4.7661-0.030368-0.18849-3.523-4.5776 0.15185" fill-rule="evenodd" stroke-width=".95444px"/>
  <g stroke-width=".3">
   <path d="m29.806 0.68175c-6.1048 0.44238-12.696 1.5483-14.244 1.9907-1.5483 0.44238-3.539 1.1059-4.3353 4.2026-0.57509 2.2561-1.681 3.1409-2.3004 3.4948-0.26543 0.17695-0.53085 0.3539-0.7078 0.61933 0 0 1.8137 0 2.6543 0.53085 0.88475 0.57509 1.4598 1.858 1.9907 4.1141 0.44238 1.9907 0.66356 1.858 0.66356 1.858l2.2561-1.5926c1.9907-1.0175 2.1234-1.681 1.7695-1.681s-1.0175 0.26542-1.0175 0.26542c0.39814-0.53085 0.88475-0.97323 1.5041-1.3271 0.53085-0.30966 1.1502-0.7078 1.2829-0.92899 0.22119-0.44238-1.4598 0-1.4598 0l2.787-1.0175s3.539-1.1059 4.1141-1.9907-1.5483-0.22119-1.5483-0.22119 3.4505-1.3271 3.4505-1.9907c0-0.66356-2.5658 0.22119-2.5658 0.22119s1.5041-0.79628 2.2119-1.2387c0.92899-0.57509 1.9022-1.1059 1.7695-1.3271-0.3539-0.61933-1.9907-0.044238-2.787 0.22119 1.0617-0.39814 4.4238-1.681 4.0256-2.3446-0.30966-0.57509-2.0792-0.044237-3.0082 0.26543l2.2119-0.79628c3.0524-1.3271 1.2829-1.3271 1.2829-1.3271z" fill="#ececec"/>
   <path d="m3.6357 12.121c0.88475-0.48661 1.4598-0.92899 2.2119-0.92899l-0.22119-0.17695s-0.75204-0.57509-1.3271-0.75204c-0.57509-0.17695-2.1234-1.0617-2.8312-2.7427-0.7078-1.681-2.2561-3.4505-7.1222-5.6624 0 0-3.4948-1.5041-3.4948-0.66356 0 0.84051 2.1676 1.858 2.1676 1.858s-1.5041-0.61933-1.9022-0.48661c-0.39814 0.13271 0.61933 1.0175 2.3004 2.1234 0 0-1.3714-0.48661-1.3714 0s2.2561 1.7695 2.2561 1.7695-1.3271-0.26543-1.6368-0.13271c-0.30966 0.13271 0.61933 0.88475 1.2387 1.2387 0.61933 0.39814 1.9907 1.0617 1.9907 1.0617s-0.88475-0.26543-1.0175-0.088475c-0.13271 0.17695 0.48661 0.75204 2.1234 1.0617 0 0 0.84051 0.17695 1.3271 0.48661 0 0-1.2829 0-1.5041 0.26543-0.22119 0.26542 0.7078 0.61932 1.2387 0.7078 0.53085 0.08847 2.1676 0.7078 2.6543 1.1059 0 0-0.7078-0.22119-1.1059-0.17695-0.39814 0.04424-0.48661 0.26542-0.13271 0.39814 0.39814 0.17695 3.1409 2.0349 3.1409 2.0349s0.13271-1.8137 1.0175-2.3004z" fill="#ececec"/>
   <path d="m4.4581 14.617v-0.08847c-0.044237 0.44238-0.044237 0.92899 0.13271 1.3271 0.3539 0.75204 0.39814 0.79628 0.44238 1.0617 0.17695-0.08847 0.44238-0.22119 0.88475-0.26542-0.088475-0.22119-0.26543-0.61933-0.30966-1.2387 0 0 0.3539 0.88475 0.88475 1.1502 0.48661-0.04424 1.0617-0.04424 1.858-0.04424 0.53085-0.57509 0.61933-1.4598 0.61933-1.4598 0.17695 0.66356 0 1.1944-0.13271 1.4598 0.3539 0 0.75204 0.04424 1.1944 0.08847 0.17695-0.26542 0.53085-0.92899 0.79628-1.8137 0 0-0.30966-0.53085-0.57509-1.7253 0 0 1.3714 2.3004 1.5483 3.0966 0.13271 0.57509 0.26542 1.1059 0.39814 1.5926 0.22119 1.1059 0.61932 2.9197 0.61932 3.1851 0 0 0.3539-0.17695 0.7078-0.26542v0.04424l0.22119 1.2387-0.04424 0.3539c0 0.13271 0.04424 0.22119 0.08847 0.26542-0.04424 0.04424-0.04424 0.04424-0.04424 0.08848 0.08848 0.13271 0.92899 0.08847 1.1944-0.13271 0.26542-0.17695 0.30966-0.79628 0.30966-1.2387 0-0.39814-0.57509-0.61932-0.79628-0.92899v-0.04424c0.26542-0.30966 0.48661-0.84051 0.48661-0.84051l-1.3271-2.3446c-0.13271-0.39814-0.26542-0.66356-0.39814-1.1059s-0.39814-1.9022-0.84051-3.2293-1.0617-2.5658-2.787-2.5215c0 0-2.2119 2.5215-3.0524 2.61-0.79628 0.08848-1.5483-1.6368-1.5483-1.6368s-1.1944 0.13271-1.7695 0.79628c-0.61933 0.66356-0.75204 1.5483-0.75204 2.2119 0 0.61932-0.57509 3.0082-0.66356 3.3178 0 0-0.75204 3.0524-1.2387 3.4063 0 0 0.22119-0.04424 0.7078 0.26542 0.044237 0 0.044237 0.04424 0.088475 0.04424v0.39814s-0.30966 1.0175-0.44238 1.4156c-0.13271 0.3539 0.44238 1.4598 0.79628 1.6368 0.3539 0.13271 1.0175 0 0.79628-0.22119-0.22119-0.22119-0.92899-0.44238-0.79628-1.1944 0 0 0.13271-0.26542 0.3539 0.13271 0.30966 0.53085 0.79628 1.1059 0.3539-0.44238l-0.22119-0.7078c-0.088475-0.26543-0.088475-0.53085 0-0.75204 0.26543 0.04424 0.57509 0 0.79628-0.13271l0.3539-2.9639c0.044238-0.13271 0.088475-0.22119 0.088475-0.30966 0.17695-0.57509 1.0175-3.539 1.0175-3.539zm10.086 6.9011s0.13271 0.30966-0.13271 0.61932c-0.04424 0.08848-0.13271 0.17695-0.22119 0.22119v-0.08847c0.13271-0.84051 0.3539-0.75204 0.3539-0.75204z" fill="#87aade"/>
   <path d="m3.5291 7.8483 0.088475 0.088475s-0.13271-0.66356-0.13271-1.2387c0 0-0.22119 0.044237-0.26543 0.44238-0.044238 0.39814 0.17695 0.61933 0.30966 0.7078z"/>
  </g>
  <path d="m5.8737 3.2049c-1.3714 0.23115-1.7695 1.202-1.9465 1.4332-0.044238 0.09246-0.13271 0.13869-0.17695 0.23115-0.22119 0.23115-0.3539 0.55476-0.3539 0.87837-0.044238 0.73968 0.22119 0.97084 0.30966 1.0171v0.36984c0 1.2482 0.48661 2.3115 1.4598 2.7276 0 0 0.75204 0.41607 1.9022-0.41607 0 0-0.48661 0.64723-1.2387 0.83215 0 0 0.26543 0.601 0.17695 0.83215-0.088475 0.23115-0.7078 0.36984-0.7078 0.36984s0.7078 1.5719 1.3714 1.3407c0.66356-0.23115 2.2561-2.1266 2.2561-2.1266s-0.61933-0.13869-0.84051-0.55476c-0.13271-0.23115-0.13271-1.0633-0.13271-1.0633 0.13271-0.18492 0.26543-0.36984 0.39814-0.601h0.13271c0.88475-0.18492 0.84051-1.202 0.61933-1.5256l-0.13271-0.13869c0-0.41607-0.044238-0.87837-0.088475-1.1095-0.26543-1.8954-1.5926-2.7276-3.0082-2.4964zm-1.7253 3.7446s0.17695-0.23115 0.44238-0.23115 0.48661 0.23115 0.48661 0.23115c-0.48661 0.50853-0.92899 0-0.92899 0zm2.1676 0.04623s0.17695-0.23115 0.44238-0.23115c0.22119 0 0.48661 0.23115 0.48661 0.23115-0.48661 0.50853-0.92899 0-0.92899 0z" fill="#e9c6af" stroke-width=".30668"/>
  <g stroke-width=".3">
   <path d="m9.103 30.985c0.48661-0.30966 0.79628-0.88475 0.97323-1.5483-0.79628-1.1059-3.0966-4.2026-3.2736-5.1758-0.22119-1.1944 0.97323-3.7602 0.97323-3.7602s-0.57509 2.6543-0.57509 3.4948c0 0.66356 2.2119 3.539 3.0524 4.6007 0.08847-1.1059 2.0792-0.97323 3.6275 0.22119 1.5483 1.1944 3.3178 0.57509 3.9371-0.57509 0 0-4.6449-1.3714-4.9546-3.539-0.97323-6.7241-1.7253-6.4144-2.7427-7.6089 0 0-3.7602-0.3539-5.1316 0.44238-0.088475 0.22119-0.30966 0.79628-0.57509 2.3888-0.44238 2.61 1.1059 8.5821 2.6543 12.873l0.44238 0.97323c-0.044238-0.04424 0.92899-2.3446 1.5926-2.787z" fill="#93a7ac"/>
   <path d="m14.456 31.56-1.681-2.7427s-2.1676-1.1059-1.9907 0.30966l2.8754 3.7602s0.44238 1.5483 0.53085 1.9465c0.08848 0.3539 0 1.858 0.75204 1.6368 0.75204-0.22119 0.79628-1.3271 0.75204-1.7695-0.08848-0.44238-0.13271-0.44238-0.3539-1.681-0.08848-0.04424 0-0.7078-0.88475-1.4598z"/>
   <path d="m15.164 37.62v-0.57509s-1.1059 0.48661-1.4598-1.2386l-0.04424-0.57509-3.4948-4.9104s-0.39814 0.75204-0.79628 1.0175c-0.39814 0.30966-0.53085 0.57509-0.53085 0.57509s3.4948 3.4948 4.8661 6.149c1.4156 2.6543 0.53085 2.7427 1.4598 3.6275 0.97323 0.88475 0.79628-1.4156 0.75204-1.7695 0-0.3539-0.75204-1.681-0.75204-2.3004z"/>
   <path d="m7.7759 34.037s0.44238 0.61933 0.92899 0.61933 2.2561 0.22119 2.2561 0.22119l-2.2561-2.4773c0-0.04424-0.48661 0.44238-0.92899 1.6368z"/>
   <path d="m15.429 29.79c-1.4156-0.17695-1.9907-0.79628-1.9907-0.79628l1.2829 2.1234s0.97323 0.08847 1.3714-0.48661c0.39814-0.57509 1.7695-0.26542 1.9465-1.5926l-0.17695-0.48661c0.04424 0.04424-0.66356 1.5041-2.4331 1.2387z"/>
  </g>
  <polygon transform="matrix(.44238 0 0 .44238 -11.689 -1.4416)" points="50.6 70.5 50.3 71 55.6 78.8 56.2 77.8" stroke-width=".67816"/>
  <path d="m8.174 8.91 0.13271 0.57509s0.66356-0.26543 0.75204-1.3271c0 0-0.3539 0.3539-0.61933 0.3539 0 0-0.17695 0.30966-0.26543 0.39814z" stroke-width=".3"/>
  <path d="m5.7852 2.0974c1.681-0.17695 2.5658-0.66356 1.9022-1.1059-0.57509-0.3539-2.0792-0.53085-3.4063-0.044238-0.30966 0.088475-0.57509 0.30966-0.79628 0.53085-0.088475 0.13271-0.13271 0.22119-0.13271 0.30966 0.044238 0.30966 0.75204 0.48661 2.4331 0.30966zm-1.9465-0.48661s0.3539-0.48661 1.2387-0.61933c1.0617-0.13271 2.2561-0.088475 2.3446 0.22119 0.088475 0.30966-2.2561 0.61933-2.6985 0.61933-0.30966 0-0.97323 0-0.88475-0.22119z" fill="#ff0" stroke-width=".2"/>
 </g>
 <path d="m3.7249 6.6155-0.35513-0.6787 0.047351-0.73394 0.59978-0.70237 1.1206-1.0891 1.531-0.27621 1.4521 0.69448 0.8681 1.5705 0.015784 1.1127 0.11049 0.37881-0.1973-0.24465s-1.8658-0.66146-2.3393-0.83508c-0.47351-0.17362-0.84354-0.22639-0.84354-0.22639-0.64128 0.068532-0.9723 0.14002-1.5522 0.35121-0.22097 0.15784-0.45773 0.6787-0.45773 0.6787z" fill-rule="evenodd"/>
 <rect x="3.9064" y="6.3314" width="1.5941" height="1.018" fill="#e9c6af"/>
 <rect x="5.8499" y="6.572" width="2.0287" height="1.4102" fill="#e9c6af" stroke-width="1.3623"/>
 <g fill-rule="evenodd">
  <path d="m24.746 8.0085s-3.3475 1.589-5.1907 2.0339c-1.8432 0.44492-3.2839 0.74152-3.2839 0.74152l2.7542 0.25424 3.3263-1.5042z"/>
  <path d="m18.051 12.013s-1.3983 0.74152-2.3305 1.0169-1.2712 0.40254-1.2712 0.40254l2.3093 0.06356 1.4195-1.4619"/>
  <path d="m12.797 8.3475s1.3559-2.9661 4.5339-3.8136c3.178-0.84746 3.9407-1.1017 3.9407-1.1017s-4.1949 1.6949-5.6356 2.7119c-1.4407 1.0169-2.839 2.2034-2.839 2.2034z"/>
  <path d="m15.169 9.8729 4.322-2.2458s-2.1186 0.50847-2.8814 1.1017c-0.76271 0.59322-1.4407 1.1441-1.4407 1.1441z"/>
  <path d="m7.068 9.446-1.3003 0.5616 0.14981 0.794-0.22472 0.56928s-0.15407-0.04632 0.32532-0.07628c0.47939-0.02996 1.1507-0.924 1.1507-0.924z"/>
  <path d="m4.2247 14.682s-1.2135 2.8314-1.2884 3.1161c-0.074905 0.28464-0.10487 3.7303-0.10487 3.7303l0.60914-3.372 1.0175-3.5391"/>
  <path d="m2.6184 14.421-0.35628 2.9722-1.1835 3.3258-0.20974 0.11985 1.4082-5.0486 0.3413-1.3692"/>
  <path d="m12.309 17.987 1.2175 2.6902-0.7078 0.26542z"/>
  <path d="m3.1356 10.975s-1.3559-1.2712-2.2034-1.8644c-0.84746-0.59322-2.1186-0.84746-2.1186-0.84746l2.3305 2.1186z"/>
 </g>
</svg>
