<svg version="1.1" viewBox="0 0 20 20" xmlns="http://www.w3.org/2000/svg">
 <defs>
  <style type="text/css">.str0 {stroke:black;stroke-width:8.46}
    .fil0 {fill:none}
    .fil1 {fill:black}</style>
  <style type="text/css">.fil0 {fill:black}</style>
 </defs>
 <g>
  <path d="m1.0102 10.656s0.59978 4.0722 1.168 5.2086c0.56821 1.1364 2.6517 3.9775 2.7148 4.3563 0.063135 0.37881 1.389-2.5569 1.389-2.5569l2.6517 2.2728-0.25254-2.336 3.2199 1.7678 0.1894-2.3675 3.7249 2.3044-1.5784-3.4093s2.0519 1.4205 3.283 2.0203c1.2311 0.59978 1.389 0.34724 1.389 0.34724s-3.062-7.3552-3.7565-8.7441c-0.69448-1.389-0.78918-2.8095-1.8309-3.9459-1.0417-1.1364-4.1353-1.6099-4.1353-1.6099s-3.504 0.63135-4.5141 1.1364c-1.0102 0.50508-3.4724 4.8929-3.4724 4.8929z" style="fill-rule:evenodd;fill:#000000"/>
  <rect x="7.7009" y="5.9152" width="4.8214" height="2.8125" style="fill:#ff0000"/>
  <path d="m5.3881 13.603c-0.10627 0.19936-0.21183 0.41143-0.31597 0.63637 0.25763-0.02574 0.50475-0.10335 0.72875-0.23055z" style="fill:#008000;stroke-width:.3;stroke:#000000"/>
  <path d="m3.9141 17.74c-0.1129 0.49267-0.21673 1.0173-0.30879 1.5774-0.14164 0.86036 0.44112 1.6729 1.3019 1.8144 0.086771 0.01429 0.17307 0.02124 0.25826 0.02124 0.75922 0 1.4289-0.5492 1.5563-1.3227 0.012869-0.07848 0.026134-0.15562 0.039477-0.2322-0.86668-0.17141-1.6656-0.59121-2.309-1.2237-0.20062-0.19731-0.37993-0.40993-0.53807-0.63448z" style="fill:#008000;stroke-width:.3;stroke:#000000"/>
  <path d="m5.7768 15.486-1.6099 5.3033s-0.63135-1.0102-0.63135-1.1364 0.56821-2.5885 0.56821-2.5885z" style="fill-rule:evenodd;fill:#000000"/>
  <path d="m6.7461 5.1593c0.18531 0.048241 0.33548 0.072085 0.48723 0.081323 0.023134-0.20094 0.06569-0.38719 0.12593-0.55844 0.00379-0.010817 0.00703-0.022107 0.010896-0.032766-0.10825 0.00845-0.22052 0.017765-0.33879 0.028029-0.18609 0.016501-0.36532 0.024792-0.53247 0.024792-0.38293 0-0.71667-0.043898-1.0013-0.13012-0.057794 0.025976-0.11638 0.053136-0.17536 0.080928l0.17591 0.068453c0.59279 0.23054 0.96237 0.36342 1.2479 0.4378z" style="stroke-width:.3;stroke:#000000"/>
  <path d="m17.933 6.5128c-1.0005-1.0343-2.1397-1.6638-3.0726-2.0534-0.33911 0.16099-0.77083 0.24286-1.2945 0.24286-0.16715 0-0.34637-0.00829-0.53262-0.024792-0.11354-0.010027-0.22668-0.019107-0.33848-0.02795 0.0039 0.01058 0.0071 0.021712 0.01082 0.032371 0.06016 0.17125 0.1028 0.35758 0.12601 0.55884 0.15309-0.00884 0.30271-0.032213 0.48825-0.08077 0.28258-0.073822 0.64956-0.20623 1.2468-0.43851l0.3519-0.13691-0.1497 0.34669c-0.15001 0.34708-0.4547 0.67901-0.81283 0.95361-0.25131 0.19257-0.52844 0.3564-0.79815 0.47728-0.13406 0.060084-0.26631 0.11038-0.39216 0.14725-0.31471 1.6494-1.4055 3.3203-2.7328 3.3203-1.3277 0-2.4183-1.6708-2.733-3.3203-0.048165-0.014211-0.097432-0.030396-0.14725-0.048082-0.34187-0.12167-0.71477-0.32498-1.0429-0.57636-0.35837-0.2746-0.66314-0.6066-0.81307-0.95369l-0.09514-0.2202c-0.9026 0.44072-1.9207 1.1022-2.7951 2.1063-0.00166 0.00189-0.00324 0.00403-0.0049 0.00592-0.3635 0.41909-0.69851 0.89952-0.98258 1.4406-0.025581 0.048636-0.050057 0.098456-0.074769 0.14812-0.11038 0.22186-0.21199 0.45343-0.3035 0.69535-0.02037 0.053847-0.039793 0.10856-0.059058 0.16336-0.015317 0.043346-0.032134 0.085191-0.046741 0.12917-0.20686 0.6205 0.12854 1.2912 0.74904 1.498 0.12427 0.04145 0.2506 0.06103 0.37472 0.06103 0.18152 0 0.35837-0.04248 0.51794-0.12009 0.049188-0.024 0.096482-0.05148 0.14188-0.08203 0.19596-0.13146 0.35379-0.32205 0.44412-0.5571 0.00655-0.0169 0.013501-0.03356 0.019344-0.051 0.012791-0.03813 0.027081-0.0743 0.040503-0.11172 0.23828-0.66503 0.57518-1.2073 0.97098-1.6646 3.948e-4 -4.737e-4 7.106e-4 -9.474e-4 0.00111-0.00142 2.369e-4 -2.369e-4 4.737e-4 -4.738e-4 7.106e-4 -7.106e-4 0.35229-0.40756 0.75622-0.74588 1.1688-1.0247-0.27326 0.78551-0.41246 1.6658-0.41246 2.5955 0 0.90616 0.13304 1.6205 0.3928 2.1821l0.58489 0.57502 0.5905 0.58063c0.2566-0.46978 0.29142-1.0164 0.12072-1.5033-0.091745-0.26181-0.24184-0.50649-0.45106-0.71224-0.00584-0.0058-0.00987-0.0094-0.013896-0.01311l-0.012317-0.01129-0.19217-0.18199 0.25155-0.08282c0.46291-0.15238 0.94563-0.22992 1.4348-0.22992 0.21175 0 0.4213 0.01516 0.62768 0.0435 0.54486 0.07453 1.0671 0.24602 1.546 0.50578 0.094587 0.05124 0.18736 0.10619 0.27847 0.1643 0.26773 0.17094 0.51999 0.37014 0.75164 0.59776 0.58173 0.57178 0.98716 1.2707 1.1985 2.0226 0.16549 0.5886 0.21215 1.2097 0.13051 1.8282 0.4213 0.94666 0.84931 2.2772 1.1532 4.1236 0.12727 0.77359 0.79696 1.3229 1.5563 1.323 0.08519 0 0.17149-0.0069 0.25834-0.02124 0.86044-0.14164 1.4433-0.95408 1.3016-1.8144-0.51107-3.1087-1.376-5.1465-2.2215-6.4637 0.5785-0.62476 0.87584-1.5543 0.87584-2.9125 0-1.1028-0.19675-2.1353-0.58008-3.0232 0.17101 0.08835 0.34471 0.18602 0.51786 0.29481 0.48691 0.3046 0.96766 0.68958 1.3816 1.1695 0.41435 0.48083 0.76475 1.0539 1.003 1.7666 0.16541 0.49623 0.62745 0.81015 1.1233 0.81015 0.1242 0 0.25044-0.01966 0.37472-0.06103 0.62042-0.20686 0.95582-0.87758 0.74904-1.4981-0.39453-1.1864-1.0328-2.1444-1.7504-2.8867z" style="fill:#008000;stroke-width:.3;stroke:#000000"/>
  <path d="m10.543 11.729s1.7678 1.5784 2.3044 2.4307c0.53664 0.85232 1.1364 5.0192 1.5152 5.6821 0.37881 0.66291 1.2311 1.3574 1.2311 1.3574s-1.4521 0.06313-1.5784-0.0947c-0.12627-0.15784-0.53664-0.2841-0.78918-1.2311s-0.53664-3.1252-0.53664-3.1252l-1.4837-1.8309-1.894-1.3258" style="fill-rule:evenodd;fill:#000000"/>
  <path d="m9.2966 9.7091s-1.5784-0.52086-2.2413-1.4363c-0.66291-0.91545-1.1364-1.2943-1.1364-1.2943s-0.61556-0.34724-1.0575-0.66291c-0.44194-0.31567-0.99437 0.14205-1.3416 0.37881-0.34724 0.23675-1.752 2.6043-1.9098 2.9831-0.15784 0.37881-0.28411 1.0575-0.28411 1.0575s-0.41037-0.97859-0.41037-1.1049 0.80497-2.0834 0.80497-2.0834l1.7993-1.8467 1.7678-0.93123 2.4149 1.3732 0.85232 2.115" style="fill-rule:evenodd;fill:#000000"/>
  <path d="m-0.080539 7.0117c0.11796-0.19833 0.14914-0.3804 0.062926-0.46528-0.12712-0.12491-0.45896 0.0072638-0.74177 0.29466-0.28266 0.28779-0.40875 0.62192-0.2821 0.74651 0.086534 0.084955 0.26805 0.050768 0.46433-0.070664l1.4933 1.468c0.091666-0.23615 0.19431-0.46662 0.30776-0.69109z" style="fill:#916f6f;stroke-width:.3;stroke:#000000"/>
  <path d="m11.9 13.903c-0.20212-0.71074-0.58544-1.3804-1.15-1.9356-0.22147-0.21776-0.46014-0.40693-0.71153-0.56839-0.0031-2e-3 -6e-3 -0.0041-0.0091-6e-3 -0.64063-0.40946-1.3634-0.63645-2.095-0.68232-0.55994-0.03506-1.1251 0.03553-1.6629 0.2127 0.0094 0.0089 0.019107 0.01745 0.028029 0.02637 0.20725 0.2037 0.35964 0.44167 0.46007 0.69543 0.23047 0.58189 0.17954 1.2486-0.15333 1.7939-0.018475 0.03032-0.036082 0.06095-0.056294 0.0904l-0.70962-0.69764-0.17591-0.17291-2.3805-2.3403c-0.099798 0.22486-0.25676 0.41348-0.45059 0.55078l2.6334 2.5888 0.58647 0.5766c-0.31621 0.2251-0.68319 0.34653-1.055 0.36745-0.54794 0.03095-1.1063-0.15862-1.5286-0.57384-0.00908-0.0089-0.017844-0.01848-0.026844-0.02779-0.38506 1.2394-0.21049 2.6144 0.52015 3.7292 0.16999 0.25928 0.3699 0.50467 0.60005 0.7308 0.63574 0.625 1.4129 1.0176 2.2264 1.1799 0.74698 0.14906 1.5246 0.1039 2.2518-0.13564-0.00924-0.0091-0.018949-0.01745-0.028029-0.02653-0.74698-0.73451-0.80154-1.9071-0.1568-2.7056l1.2896 1.0811 0.09238-0.09419-1.1028-1.271c0.78725-0.65816 1.9607-0.62358 2.7077 0.11069 0.0091 0.0089 0.01776 0.01848 0.02684 0.02779 0.10193-0.32829 0.16446-0.66614 0.18807-1.006 0.03514-0.50949-0.01769-1.0237-0.1583-1.5183z" style="fill:#916f6f;stroke-width:.3;stroke:#000000"/>
  <path d="m6.2042 5.7577c0.38277 0.293 0.82949 0.51912 1.1979 0.61655 0.00339 9.474e-4 0.00647 0.00158 0.00987 0.00237 0.00821 0.00197 0.016501 0.00395 0.024713 0.00592 0.27113 1.5777 1.3299 3.2892 2.5956 3.2892 1.2656 0 2.3243-1.7116 2.5955-3.2892 0.01153-0.00276 0.0225-0.00505 0.03458-0.00837 0.0799-0.021081 0.16375-0.048872 0.2495-0.081402 0.31013-0.11748 0.64877-0.30571 0.94855-0.53523 0.33682-0.25794 0.62421-0.56752 0.76301-0.88887-0.53594 0.20844-0.89321 0.33871-1.1722 0.41861-0.30445 0.087165-0.51581 0.11401-0.7638 0.11606-0.0225-0.33595-0.09482-0.61971-0.20883-0.85823-0.01153-0.024397-0.02313-0.048715-0.03561-0.072085 0.18657 0.012633 0.38688 0.028029 0.60376 0.047215 0.70001 0.061742 1.2228 0.00142 1.6076-0.14441 2.1506-0.81536-0.03798-4.3192-0.03798-4.3192s0.24515 3.7031-1.5942 2.6977c-1.0656-0.5826-2.2916 0.048873-2.9901 0.53373-0.69842-0.48486-1.9245-1.1163-2.9901-0.53373-1.8393 1.0054-1.5942-2.6977-1.5942-2.6977s-2.393 3.831 0.28439 4.4133c0.34108 0.074217 0.76396 0.096245 1.2853 0.050215 0.21697-0.019107 0.41727-0.034582 0.60384-0.047214-0.012475 0.023449-0.024081 0.047846-0.035766 0.072243-0.11369 0.23852-0.1861 0.5222-0.20852 0.85807-0.24815-0.0019738-0.45935-0.028897-0.76388-0.11598-0.27894-0.079823-0.63621-0.2101-1.1724-0.41869 0.13904 0.32158 0.42651 0.63108 0.76341 0.8891zm2.7181 1.3931c-0.14528 0.17702-0.18752 0.66432-0.074138 0.96529 0 0-0.78583-0.71903-0.29379-1.3 0.49196-0.58071 1.1257 0.42146 1.1257 0.42146s-0.61268-0.26402-0.7578-0.086771zm2.294 0.96529c0.11338-0.30105 0.0709-0.78828-0.07414-0.96529-0.14528-0.17717-0.75796 0.08685-0.75796 0.08685s0.63376-1.0022 1.1259-0.42146c0.49188 0.58087-0.29379 1.2999-0.29379 1.2999z" style="fill:#008000;stroke-width:.3;stroke:#000000"/>
  <path d="m6.9921 11.714s1.1996-0.0947 2.1939 0.50508c0.99437 0.59978 1.5784 1.1996 1.7678 2.0361 0.1894 0.83653 0.06313 1.5468 0.06313 1.5468s-1.4205 0.11049-1.894 0.47351c-0.47351 0.36302-0.71026 1.1364-0.71026 1.3258 0 0.1894-0.031567 0.69448-0.031567 0.69448s-1.3732 0.20519-2.2728-0.44194c-0.89966-0.64713-1.1522-1.0891-1.3258-1.752-0.17362-0.66291-0.078918-1.752-0.078918-1.752s1.1996 0.31567 1.7204-0.55243 0.56821-2.0834 0.56821-2.0834z" style="fill-rule:evenodd;fill:#000000"/>
  <path d="m3.3777 15.817s0.22097 0.36302 0.55243 0.66291 0.26832 0.1894 0.26832 0.1894l-0.17362-0.66291 0.58399 0.82075-0.20519-0.72605 0.64713 0.80497s1.0417 1.0891 1.5941 1.2785c0.55243 0.1894 1.1049 0.41038 1.1049 0.41038l-1.3258-0.15784s0.59978 0.28411 0.66291 0.31567c0.063135 0.03157-0.64713-0.03157-0.64713-0.03157l0.71026 0.61556-1.1996-0.2841s-0.55243-0.07892-1.1206-0.52086c-0.56821-0.44194-1.0417-1.3416-1.0417-1.3416z" style="fill-rule:evenodd;fill:#000000"/>
  <path d="m12.019 14.42s-0.22097-0.36302-0.55243-0.66291c-0.33146-0.29989-0.26832-0.1894-0.26832-0.1894l0.17362 0.66291-0.584-0.82075 0.20519 0.72605-0.64713-0.80497s-1.0417-1.0891-1.5941-1.2785c-0.55243-0.1894-1.1049-0.41038-1.1049-0.41038l1.3258 0.15784s-0.59978-0.28411-0.66291-0.31567c-0.063135-0.03157 0.64713 0.03157 0.64713 0.03157l-0.71026-0.61556 1.1996 0.2841s0.55243 0.07892 1.1206 0.52086c0.56821 0.44194 1.0417 1.3416 1.0417 1.3416z" style="fill-rule:evenodd;fill:#000000"/>
  <path d="m5.2679 0.78125s-0.35714 1.6295-0.26786 1.9866c0.089286 0.35714 0.44643 0.9375 0.80357 1.1607 0.35714 0.22321 1.1384 0.51339 1.1384 0.51339s-0.71429 0.13393-1.317-0.13393c-0.60268-0.26786-0.9375-0.35714-1.1607-0.89286-0.22321-0.53571 0.17857-2.1652 0.17857-2.1652l0.66964-0.69196" style="fill-rule:evenodd;fill:#000000"/>
  <path d="m14.799 0.64732s0.11161 0.91518 0.13393 1.4286c0.02232 0.51339 0.04464 0.75893-0.33482 0.9375-0.37946 0.17857-0.60268 0.26786-1.0268 0.15625-0.42411-0.11161-0.71429-0.24554-0.91518-0.33482s-0.71429-0.17857-0.71429-0.17857l1.808 0.24554s0.53571-0.37946 0.55804-0.51339c0.02232-0.13393 0.26786-1.9866 0.26786-1.9866" style="fill-rule:evenodd;fill:#000000"/>
  <path d="m12.098 2.6562s-0.59152 0.20089-0.81473 0.49107c-0.22321 0.29018-0.84821 0.9375-0.84821 0.9375l-0.49107 0.21205 0.10045-0.91518 1.8192-0.87054s-0.5692 0.044643-0.14509 0.044643 0.37946 0.10045 0.37946 0.10045z" style="fill-rule:evenodd;fill:#000000"/>
  <path d="m9.9753 4.2164s-0.25254-0.50508-0.41037-0.72605c-0.15784-0.22097-1.0131-0.82108-1.0131-0.82108l1.4076 0.58432 0.36302 0.26832z" style="fill-rule:evenodd;fill:#000000"/>
  <path d="m14.688 7.0312-1.0714-0.42411s0.82589 0.98214 1.0714 1.5402c0.24554 0.55804 0.35714 0.82589 0.35714 0.82589z" style="fill-rule:evenodd;fill:#000000"/>
 </g>
</svg>
