<svg version="1.1" viewBox="0 0 20 20" xmlns="http://www.w3.org/2000/svg">
 <g transform="translate(0 -291.71)">
  <path d="m11.442 309.62 3.176-4.5842s4.0749-1.1386 4.1947-1.1685c0.11985-0.03 4.2247 2.5767 4.2247 2.5767l2.7565 6.2921s-2.5468 1.9775-2.6666 2.0075c-0.11985 0.03-9.7077-0.77902-9.7077-0.77902l-2.2771-2.9063" fill-rule="evenodd" stroke="#000" stroke-width="1px"/>
  <rect x="9.4163" y="296.8" width="2.699" height="1.8625" fill="#ff0"/>
  <g fill-rule="evenodd">
   <path class="fil1" d="m2.6839 302.75c0.89437-0.52171 0.81984-2.385 0.81984-2.385-1.1552 1.5651-3.6893 1.5651-3.6893 1.5651l0.14906-0.8571c-0.8571 0.55898-2.0123 0.14906-2.0123 0.14906 0.44718 2.2359 6.5214 4.4718 9.0927 0.0745-2.1241 1.9751-4.36 1.4533-4.36 1.4533z" clip-rule="evenodd" fill="#f60" image-rendering="optimizeQuality" shape-rendering="geometricPrecision" stroke="#000" stroke-width=".3"/>
   <path class="fil1" d="m7.9384 300.18c0.89437-3.6147 3.7265 1.118 0.70804 1.1552 0 0-0.1118 1.0434-1.118 0.59625 0 0-0.037265 1.3043 1.7887 1.8633 0 0-0.22359-2.5713 4.5836-1.0062 0 0 0.14906-1.0434-0.52172-1.5651 0 0 1.3043-0.55898 1.9005 0.18633 0 0 0.37265-1.1552-0.89437-1.3043 0 0 1.4161-1.0807 0.18633-2.385 0 0 1.6397 0.33539 0.9689 1.8633 0 0 3.6147 0.59625-1.2298 4.8072-10.136 3.6147-5.4407 12.223 2.3477 11.478 0 0-3.2421-4.8818 3.5402-5.2544 0 0-4.3612-1.2406-7.8642-0.0109 0 0 3.617-3.6455 7.2574-1.1335 0 0-3.8181-2.7381-7.3572-0.61436 2.2359-5.8134 12.622-0.99886 11.579-5.7316-2.6831 2.9812-5.6271-3.4284 0.55898-2.6831 0 0 2.1987 0.26086 3.3539 2.385 0 0-1.7142-7.6394-9.5027-2.7949 0 0-0.9689-3.652 4.8445-2.6458 0 0-2.2732-2.4595-6.3724-1.4161 0 0 2.8322-1.826 3.093-3.8383 0 0-1.5279 2.9067-5.9625 3.9129 0 0 2.534-1.5651 2.7949-4.2482 0 0-1.4906 2.8694-4.0247 3.9874 0 0 1.1925-1.9751-0.1118-3.4284 0 0 0.26086 3.1676-1.4906 3.5402l-0.14906-1.7887s-1.9751 3.7638-3.2421 4.1737v-0.93163s-1.0434 1.6769-2.9067 1.4533c0 0-0.48445 1.7887 1.3416 2.534l-0.074531-1.1552 1.0062 0.48445-0.14906-0.78257zm3.3539-2.7576s-0.67078 1.0807-1.267 0.78257c0 0-0.63351-1.0062 1.267-0.78257z" clip-rule="evenodd" fill="#f00" image-rendering="optimizeQuality" shape-rendering="geometricPrecision" stroke="#000" stroke-width=".3"/>
   <g transform="translate(.92465 292.28)">
    <path d="m9.7881 2.1186-0.25424 1.8856 0.53546-0.39145z"/>
    <path d="m11.78 0.74153s0.06356 1.1229-0.1483 1.7797c-0.21186 0.65678-0.57203 1.7161-0.57203 1.7161l1.3136-0.99576-0.70112 0.25946s0.44688-1.6366 0.44688-2.1239c0-0.48729-0.40254-1.1017-0.40254-1.1017"/>
    <path d="m14.831 0.91102-1.1229 2.2246s1.6525-1.928 1.6949-2.2246c0.04237-0.29661 0.12712-1.1441 0.12712-1.1441z"/>
    <path d="m18.369 0.55085-3.2415 2.4153-1.9915 0.74153 1.7161 0.65678s-1.4195 0.27542-1.3347 0.27542c0.08475 0 1.4831 0.72034 1.4831 0.72034l-1.3532 0.07811s0.9083 0.19731 1.0778 0.51511c0.16949 0.3178-0.1089 1.3482-0.1089 1.3482s0.87161 0.3891 1.0199 0.70689 0.74153 0.91102 0.16949 1.4619c-0.57203 0.55085-2.0551 2.3517-2.0551 2.3517l3.2415-1.3771 2.839-0.9322s0.63559-1.0593 1.589-1.3136c0.95339-0.25424 2.1186-0.021186 2.1186-0.021186l-0.10593-1.9492-0.86864-0.12712-1.2076-1.3983s0-0.29661-0.02119-0.38136c-0.02118-0.084746-0.74152-0.4661-1.8008-0.63559-1.0593-0.16949-2.1186-0.16949-2.4153-0.19068s-1.3476 0.19143-1.3476 0.19143 1.7078-1.166 2.0044-1.5685c0.29661-0.40254 0.99576-1.822 0.99576-1.822z"/>
    <path d="m14.174 11.335-0.78785 0.77403 2.9489-0.202-2.8814 1.0805s1.4831-0.16949 2.1186-0.16949 0.44492 0.06356 0.44492 0.06356l-1.8644 1.25s2.1398-0.91102 3.1992-0.84746c1.0593 0.06356 1.9068 0 2.4576 0 0.55085 0 2.2458-0.42373 2.2458-0.42373l0.88983-0.95339-0.05614-1.0647s-1.1515 1.0223-1.554 0.8952c-0.40254-0.12712-1.4195-0.95339-1.4195-0.95339l-0.16949-1.9068z"/>
   </g>
   <path d="m12.472 298.11 1.8008-0.63559s0.61441 0.57203 0.67797 0.86864 0.12712 0.91102-0.10593 1.1864c-0.23305 0.27542-0.45904 0.57752-0.45904 0.57752s0.75565 0.0793 0.86158 0.35469c0.10593 0.27542 0.03279 0.94961 0.03279 0.94961s-0.22346-0.35639-0.98618-0.41995c-0.76272-0.0636-0.91433 0.23362-0.91433 0.23362s0.59653 0.46553 0.6389 0.78333-0.11718 0.78177-0.11718 0.78177-1.3235-0.25211-2.0438-0.4216c-0.72034-0.16949-1.8432 0.0847-1.8432 0.0847l-0.04237-0.14831s0.91102-0.57203 1.589-0.57203 1.5466 0.29661 1.5466 0.29661l-0.76271-1.017s1.4619-0.55085 1.6314-0.55085c0.16949 0-0.67797-0.48729-0.67797-0.48729l0.23305-0.33898-0.44492-0.25424 0.48729-0.14831-0.65678-0.52966 0.44492-0.0636z" fill="#1a1a1a"/>
  </g>
 </g>
</svg>
