<svg version="1.1" viewBox="0 0 20 20" xmlns="http://www.w3.org/2000/svg">
 <defs>
  <style type="text/css">.str0 {stroke:black;stroke-width:8.46}
    .fil0 {fill:none}
    .fil1 {fill:black}</style>
  <style type="text/css">.fil0 {fill:black}</style>
  <clipPath id="a">
   <path d="m4.141 11.565c-0.092-0.369-0.077-0.757 0.043-1.118 0.04-0.12 0.085-0.254 0.132-0.396 0.409-1.225 1.555-2.051 2.846-2.051h0.595c0.796 0 1.559 0.316 2.122 0.879l0.535 0.535c0.375 0.375 0.884 0.586 1.414 0.586h8.344c0.53 0 1.039-0.211 1.414-0.586l0.535-0.535c0.563-0.563 1.326-0.879 2.122-0.879h0.595c1.291 0 2.437 0.826 2.846 2.051 0.047 0.142 0.092 0.276 0.132 0.396 0.12 0.361 0.135 0.749 0.043 1.118-0.222 0.888-0.644 2.574-0.799 3.196-0.04 0.159-0.06 0.322-0.06 0.485v4.683c0 1.326-0.527 2.598-1.464 3.535l-4.657 4.657c-0.563 0.563-1.326 0.879-2.122 0.879h-5.514c-0.796 0-1.559-0.316-2.122-0.879l-4.657-4.657c-0.937-0.937-1.464-2.209-1.464-3.535v-4.683c0-0.163-0.02-0.326-0.06-0.485-0.155-0.622-0.577-2.308-0.799-3.196z" style="clip-rule:evenodd"/>
  </clipPath>
 </defs>
 <path d="m23.424-16.407h37.22v37.22h-37.22z" style="fill:none;stroke-width:1.1631"/>
 <path d="m2.9386 8.9449-1.4449-4.3347v-3.6123l2.1674 1.4449 1.4449 2.8898z" style="fill:#a18330;stroke-width:.5;stroke:#000000"/>
 <path d="m17.388 8.9449 1.4449-4.3347v-3.6123l-2.1674 1.4449-1.4449 2.8898z" style="fill:#a18330;stroke-width:.5;stroke:#000000"/>
 <path d="m1.5955 6.4633c-0.066466-0.26659-0.055628-0.5469 0.031069-0.80771 0.028895-0.086695 0.061411-0.1835 0.095364-0.28609 0.29549-0.88501 1.1234-1.4818 2.0561-1.4818h0.42986c0.57508 0 1.1263 0.2283 1.5331 0.63504l0.38652 0.38652c0.27092 0.27092 0.63865 0.42336 1.0216 0.42336h6.0282c0.3829 0 0.75063-0.15244 1.0216-0.42336 0.12065-0.12065 0.25575-0.25575 0.38651-0.38652 0.40674-0.40674 0.95798-0.63504 1.5331-0.63504h0.42986c0.93269 0 1.7606 0.59675 2.0561 1.4818 0.03395 0.10259 0.06647 0.1994 0.09537 0.28609 0.08669 0.26081 0.09753 0.54112 0.03106 0.80771-0.16039 0.64154-0.46526 1.8596-0.57724 2.309-0.0289 0.11487-0.04335 0.23263-0.04335 0.35039v3.3833c0 0.95798-0.38074 1.8769-1.0577 2.5539l-3.3645 3.3645c-0.40674 0.40674-0.95798 0.63504-1.5331 0.63504h-3.9836c-0.57508 0-1.1263-0.2283-1.5331-0.63504-0.84383-0.84383-2.3473-2.3473-3.3645-3.3645-0.67694-0.67694-1.0577-1.5959-1.0577-2.5539v-3.3833c0-0.11776-0.014447-0.23552-0.043348-0.35039-0.11198-0.44937-0.41686-1.6674-0.57724-2.309z" style="fill:#618e29;stroke-width:.5;stroke:#000000"/>
 <g transform="matrix(.72246 0 0 .72246 -1.2249 -1.5705)" clip-path="url(#a)">
  <path d="m11 15 1 3v1e-3c0 0.587 0.4 1.099 0.97 1.241 0.805 0.202 1.916 0.48 2.545 0.637 0.318 0.079 0.652 0.079 0.97 0 0.629-0.157 1.74-0.435 2.545-0.637 0.57-0.142 0.97-0.654 0.97-1.241v-1e-3l1-3s1.379-0.69 2.518-1.259c0.949-0.474 1.67-1.306 2.006-2.313 0.593-1.778 1.476-4.428 1.476-4.428h-22s0.883 2.65 1.476 4.428c0.336 1.007 1.057 1.839 2.006 2.313 1.139 0.569 2.518 1.259 2.518 1.259z" style="fill:#77b84c"/>
  <path d="m3 19 6 2 2 3 1-1 2 2.5h4l2-2.5 1 1 2-3 6-2" style="fill:none;stroke:#2f4d00"/>
  <path d="m17 9.5c0-0.265-0.105-0.52-0.293-0.707-0.187-0.188-0.442-0.293-0.707-0.293s-0.52 0.105-0.707 0.293c-0.188 0.187-0.293 0.442-0.293 0.707v5c0 0.265 0.105 0.52 0.293 0.707 0.187 0.188 0.442 0.293 0.707 0.293s0.52-0.105 0.707-0.293c0.188-0.187 0.293-0.442 0.293-0.707v-5z" style="fill:#618e29"/>
 </g>
 <path d="m6.782 9.1465c-0.14377-0.5758-0.57219-1.0374-1.135-1.2253h-7.453e-4c-0.32583-0.10909-0.682-0.076581-0.98327 0.088862-0.30054 0.16472-0.51945 0.44792-0.60253 0.78098-0.024566 0.099699-0.049851 0.20084-0.075135 0.30054-0.18278 0.73257 0.22902 1.4825 0.94497 1.7216 0.26081 0.08669 0.50717 0.16905 0.6755 0.22468 0.14738 0.04913 0.30199 0.07441 0.45732 0.07441h1.2101s-0.28031-1.1198-0.49127-1.9658z" style="stroke-width:.72246"/>
 <path d="m13.544 9.1465c0.14377-0.5758 0.57218-1.0374 1.135-1.2253h7.46e-4c0.32583-0.10909 0.682-0.076581 0.98326 0.088862 0.30054 0.16472 0.51945 0.44792 0.60253 0.78098 0.02456 0.099699 0.04985 0.20084 0.07513 0.30054 0.18278 0.73257-0.22902 1.4825-0.94497 1.7216-0.26081 0.08669-0.50717 0.16905-0.6755 0.22468-0.14738 0.04913-0.30199 0.07441-0.45732 0.07441h-1.2101s0.28031-1.1198 0.49127-1.9658z" style="stroke-width:.72246"/>
 <path d="m7.584 12.557c-0.22107 0-0.42697-0.11487-0.54329-0.30271-0.11632-0.18856-0.12643-0.42336-0.027454-0.62131v-0.0015c0.14377-0.28682 0.49272-0.40313 0.77953-0.25936 0.17339 0.08598 0.3634 0.18134 0.52595 0.26298 0.24491 0.1221 0.39952 0.37206 0.39952 0.64588v0.99844l-0.72246-0.72239z" style="stroke-width:.72246"/>
 <path d="m12.742 12.557c0.22107 0 0.42697-0.11487 0.54329-0.30271 0.11632-0.18856 0.12643-0.42336 0.02746-0.62131v-0.0015c-0.14377-0.28682-0.49272-0.40313-0.77953-0.25936-0.17339 0.08598-0.3634 0.18134-0.52595 0.26298-0.24491 0.1221-0.39952 0.37206-0.39952 0.64588v0.99844s0.3056-0.3056 0.51945-0.51945c0.13004-0.13004 0.30632-0.20301 0.49055-0.20301z" style="stroke-width:.72246"/>
</svg>
