<?xml version="1.0" encoding="UTF-8" standalone="no"?>
<svg
   xmlns:dc="http://purl.org/dc/elements/1.1/"
   xmlns:cc="http://creativecommons.org/ns#"
   xmlns:rdf="http://www.w3.org/1999/02/22-rdf-syntax-ns#"
   xmlns:svg="http://www.w3.org/2000/svg"
   xmlns="http://www.w3.org/2000/svg"
   xmlns:sodipodi="http://sodipodi.sourceforge.net/DTD/sodipodi-0.dtd"
   xmlns:inkscape="http://www.inkscape.org/namespaces/inkscape"
   width="20"
   height="20"
   viewBox="0 0 20 20"
   version="1.1"
   id="svg838"
   inkscape:version="1.0.1 (3bc2e813f5, 2020-09-07)"
   sodipodi:docname="race_humansea.svg">
  <defs
     id="defs832" />
  <sodipodi:namedview
     id="base"
     pagecolor="#ffffff"
     bordercolor="#666666"
     borderopacity="1.0"
     inkscape:pageopacity="0.0"
     inkscape:pageshadow="2"
     inkscape:zoom="3.959798"
     inkscape:cx="-14.765942"
     inkscape:cy="21.642911"
     inkscape:document-units="mm"
     inkscape:current-layer="layer1"
     inkscape:document-rotation="0"
     showgrid="false"
     units="px"
     inkscape:window-width="1267"
     inkscape:window-height="1040"
     inkscape:window-x="52"
     inkscape:window-y="0"
     inkscape:window-maximized="0"
     inkscape:pagecheckerboard="true" />
  <metadata
     id="metadata835">
    <rdf:RDF>
      <cc:Work
         rdf:about="">
        <dc:format>image/svg+xml</dc:format>
        <dc:type
           rdf:resource="http://purl.org/dc/dcmitype/StillImage" />
        <dc:title></dc:title>
      </cc:Work>
    </rdf:RDF>
  </metadata>
  <g
     inkscape:label="Layer 1"
     inkscape:groupmode="layer"
     id="layer1">
    <g
       id="g2260"
       transform="matrix(3.7795276,0,0,3.7795276,-83.867369,-59.802451)">
      <rect
         y="16.257805"
         x="22.86825"
         height="4.5268774"
         width="3.8336473"
         id="rect2251"
         style="opacity:1;fill:#decd87;fill-opacity:1;stroke:none;stroke-width:0.529167;stroke-miterlimit:4;stroke-dasharray:none;stroke-opacity:1" />
      <g
         transform="matrix(0.21851612,0,0,0.21851612,12.45516,11.448873)"
         id="g2249">
        <polygon
           points="63.939,35.049 75.893,35.049 75.893,31.064 51.986,31.064 51.986,35.049 "
           id="polygon2206"
           transform="matrix(0.26458333,0,0,0.26458333,43.956858,19.688818)" />
        <path
           inkscape:connector-curvature="0"
           d="m 68.253545,33.178864 v -2.108465 c 0,-0.570971 -0.208756,-1.065212 -0.625739,-1.48246 -0.417513,-0.417248 -0.91149,-0.62574 -1.482725,-0.62574 V 22.63707 c 0,-0.570971 -0.208757,-1.065212 -0.626005,-1.482725 -0.416983,-0.416983 -0.911225,-0.626004 -1.48246,-0.626004 H 49.278158 c -0.592931,0 -1.098021,0.209021 -1.515533,0.626004 -0.395288,0.417513 -0.592932,0.91149 -0.592932,1.482725 v 6.325129 c -0.592931,0 -1.097756,0.208492 -1.515268,0.62574 -0.395288,0.417248 -0.592932,0.911225 -0.592932,1.48246 v 2.108465 c 0,0.592931 0.197644,1.097756 0.592932,1.515268 0.417512,0.395288 0.922337,0.592932 1.515268,0.592932 v 6.325129 c 0,0.592931 0.197909,1.098021 0.592932,1.515533 0.417248,0.395288 0.922602,0.592667 1.515533,0.592667 h 14.758458 c 0.570971,0 1.065213,-0.197379 1.48246,-0.592667 0.417248,-0.417248 0.626005,-0.922337 0.626005,-1.515533 v -6.325129 c 0.57097,0 1.064948,-0.197644 1.482725,-0.592932 0.416983,-0.417248 0.625739,-0.922073 0.625739,-1.515268 z M 54.84552,40.854691 c -0.109802,0.08758 -0.208491,0.131498 -0.296333,0.131498 -0.131762,0 -0.241829,-0.03281 -0.329671,-0.09869 -0.06588,-0.08784 -0.09895,-0.197908 -0.09895,-0.329406 0,-0.08784 0.03307,-0.175684 0.09895,-0.263261 0.109802,-0.08837 0.219869,-0.132291 0.329671,-0.132291 0.08784,0 0.175683,0.03307 0.263525,0.09922 0.08784,0.109538 0.132027,0.208492 0.132027,0.296334 -2.64e-4,0.109802 -0.03334,0.208491 -0.09922,0.296598 z m 0,-2.108729 c -0.109802,0.08784 -0.208491,0.131762 -0.296333,0.131762 -0.131762,0 -0.241829,-0.03281 -0.329671,-0.09869 -0.06588,-0.08784 -0.09895,-0.197379 -0.09895,-0.329141 0,-0.08837 0.03307,-0.175948 0.09895,-0.26379 0.109802,-0.08784 0.219869,-0.131762 0.329671,-0.131762 0.08784,0 0.175683,0.03281 0.263525,0.09895 0.08784,0.109537 0.132027,0.208227 0.132027,0.296598 -2.64e-4,0.109537 -0.03334,0.208227 -0.09922,0.296069 z m 0,-2.1082 c -0.109802,0.08811 -0.208491,0.132027 -0.296333,0.132027 -0.131762,0 -0.241829,-0.03281 -0.329671,-0.09896 -0.06588,-0.08784 -0.09895,-0.197643 -0.09895,-0.329141 0,-0.08784 0.03307,-0.175684 0.09895,-0.263525 0.109802,-0.08811 0.219869,-0.132027 0.329671,-0.132027 0.08784,0 0.175683,0.03281 0.263525,0.09895 0.08784,0.109802 0.132027,0.208756 0.132027,0.296598 -2.64e-4,0.109537 -0.03334,0.208227 -0.09922,0.296069 z m 0,-2.1082 c -0.109802,0.08784 -0.208491,0.131497 -0.296333,0.131497 -0.131762,0 -0.241829,-0.03254 -0.329671,-0.09869 -0.06588,-0.08784 -0.09895,-0.197379 -0.09895,-0.329406 0,-0.08784 0.03307,-0.175419 0.09895,-0.263261 0.109802,-0.08784 0.219869,-0.131762 0.329671,-0.131762 0.08784,0 0.175683,0.03281 0.263525,0.09869 0.08784,0.109802 0.132027,0.208492 0.132027,0.296334 -2.64e-4,0.110066 -0.03334,0.208756 -0.09922,0.296598 z m 4.216929,6.325129 c -0.110066,0.08758 -0.208756,0.131498 -0.296597,0.131498 -0.131763,0 -0.2413,-0.03281 -0.329407,-0.09869 -0.06588,-0.08784 -0.09869,-0.197908 -0.09869,-0.329406 0,-0.08784 0.03281,-0.175684 0.09869,-0.263261 0.110067,-0.08837 0.219869,-0.132291 0.329407,-0.132291 0.08784,0 0.175683,0.03307 0.263525,0.09922 0.08811,0.109538 0.132027,0.208492 0.132027,0.296334 0,0.109802 -0.03281,0.208491 -0.09895,0.296598 z m 0,-2.108729 c -0.110066,0.08784 -0.208756,0.131762 -0.296597,0.131762 -0.131763,0 -0.2413,-0.03281 -0.329407,-0.09869 -0.06588,-0.08784 -0.09869,-0.197379 -0.09869,-0.329141 0,-0.08837 0.03281,-0.175948 0.09869,-0.26379 0.110067,-0.08784 0.219869,-0.131762 0.329407,-0.131762 0.08784,0 0.175683,0.03281 0.263525,0.09895 0.08811,0.109537 0.132027,0.208227 0.132027,0.296598 0,0.109537 -0.03281,0.208227 -0.09895,0.296069 z m 0,-2.1082 c -0.110066,0.08811 -0.208756,0.132027 -0.296597,0.132027 -0.131763,0 -0.2413,-0.03281 -0.329407,-0.09896 -0.06588,-0.08784 -0.09869,-0.197643 -0.09869,-0.329141 0,-0.08784 0.03281,-0.175684 0.09869,-0.263525 0.110067,-0.08811 0.219869,-0.132027 0.329407,-0.132027 0.08784,0 0.175683,0.03281 0.263525,0.09895 0.08811,0.109802 0.132027,0.208756 0.132027,0.296598 0,0.109537 -0.03281,0.208227 -0.09895,0.296069 z m 0,-2.1082 c -0.110066,0.08784 -0.208756,0.131497 -0.296597,0.131497 -0.131763,0 -0.2413,-0.03254 -0.329407,-0.09869 -0.06588,-0.08784 -0.09869,-0.197379 -0.09869,-0.329406 0,-0.08784 0.03281,-0.175419 0.09869,-0.263261 0.110067,-0.08784 0.219869,-0.131762 0.329407,-0.131762 0.08784,0 0.175683,0.03281 0.263525,0.09869 0.08811,0.109802 0.132027,0.208492 0.132027,0.296334 0,0.110066 -0.03281,0.208756 -0.09895,0.296598 z m 6.028532,-3.459163 h -4.216929 -8.43333 -4.216664 V 24.74527 c 0.28575,0 0.52705,-0.09869 0.724694,-0.296333 0.219868,-0.197644 0.329406,-0.450321 0.329406,-0.757502 0,0.307445 0.09895,0.560123 0.296333,0.757502 0.197909,0.197643 0.450321,0.296333 0.758032,0.296333 0.285485,0 0.527049,-0.09869 0.724693,-0.296333 0.219604,-0.197644 0.329671,-0.450321 0.329671,-0.757502 0,0.307445 0.09895,0.560123 0.296333,0.757502 0.197644,0.197643 0.450321,0.296333 0.757502,0.296333 0.28575,0 0.52705,-0.09869 0.724694,-0.296333 0.219869,-0.197644 0.329671,-0.450321 0.329671,-0.757502 0,0.307445 0.09869,0.560123 0.296598,0.757502 0.197644,0.197643 0.450056,0.296333 0.757502,0.296333 0.285485,0 0.52705,-0.09869 0.724694,-0.296333 0.219604,-0.197644 0.329671,-0.450321 0.329671,-0.757502 0,0.307445 0.09895,0.560123 0.296333,0.757502 0.197644,0.197643 0.450321,0.296333 0.757502,0.296333 0.28575,0 0.52705,-0.09869 0.724958,-0.296333 0.219604,-0.197644 0.329142,-0.450321 0.329142,-0.757502 0,0.307445 0.09869,0.560123 0.296598,0.757502 0.197644,0.197643 0.450056,0.296333 0.757502,0.296333 0.285485,0 0.52705,-0.09869 0.724694,-0.296333 0.219868,-0.197644 0.329406,-0.450321 0.329406,-0.757502 0,0.307445 0.09895,0.560123 0.296598,0.757502 0.197908,0.197643 0.450056,0.296333 0.757502,0.296333 0.28575,0 0.52705,-0.09869 0.724958,-0.296333 0.21934,-0.197644 0.329142,-0.450321 0.329142,-0.757502 0,0.307445 0.09869,0.560123 0.296598,0.757502 0.197379,0.197643 0.450056,0.296333 0.757502,0.296333 0.28575,0 0.52705,-0.09869 0.724694,-0.296333 0.219868,-0.197644 0.329406,-0.450321 0.329406,-0.757502 0,0.307445 0.09869,0.560123 0.296333,0.757502 0.197909,0.197643 0.450321,0.296333 0.757767,0.296333 v 6.325129 z"
           id="path2208"
           style="stroke-width:0.264583" />
        <path
           inkscape:connector-curvature="0"
           d="m 61.928416,30.016299 c 0,-0.285485 -0.109802,-0.52705 -0.329142,-0.724694 -0.197908,-0.219604 -0.439208,-0.329141 -0.724958,-0.329141 -0.307446,0 -0.559594,0.109802 -0.757502,0.329141 -0.197644,0.197644 -0.296598,0.439473 -0.296598,0.724694 0,0.307711 0.09895,0.560123 0.296598,0.757767 0.197908,0.197644 0.450056,0.296333 0.757502,0.296333 0.28575,0 0.52705,-0.09895 0.724958,-0.296333 0.21934,-0.197909 0.329142,-0.450321 0.329142,-0.757767 z m -0.922337,0.164836 c -0.04392,0.04392 -0.08784,0.06588 -0.131763,0.06588 -0.06588,0 -0.120914,-0.02196 -0.164835,-0.06588 -0.04392,-0.04419 -0.06562,-0.09896 -0.06562,-0.164836 0,-0.04392 0.0217,-0.08784 0.06562,-0.131762 0.04392,-0.04392 0.09895,-0.06588 0.164835,-0.06588 0.04392,0 0.08784,0.02196 0.131763,0.06588 0.04392,0.04392 0.06614,0.08784 0.06614,0.131762 0,0.06588 -0.02222,0.12065 -0.06614,0.164836 z"
           id="path2210"
           style="stroke-width:0.264583" />
        <polygon
           points="32.065,35.049 44.019,35.049 44.019,31.064 20.112,31.064 20.112,35.049 "
           id="polygon2212"
           transform="matrix(0.26458333,0,0,0.26458333,43.956858,19.688818)" />
        <path
           inkscape:connector-curvature="0"
           d="m 53.495087,30.016299 c 0,-0.285485 -0.109802,-0.52705 -0.329671,-0.724694 -0.197644,-0.219604 -0.439208,-0.329141 -0.724694,-0.329141 -0.307445,0 -0.560122,0.109802 -0.757502,0.329141 -0.197643,0.197644 -0.296333,0.439473 -0.296333,0.724694 0,0.307711 0.09895,0.560123 0.296333,0.757767 0.197644,0.197644 0.450321,0.296333 0.757502,0.296333 0.28575,0 0.52705,-0.09895 0.724694,-0.296333 0.219869,-0.197909 0.329671,-0.450321 0.329671,-0.757767 z m -0.922337,0.164836 c -0.04419,0.04392 -0.08811,0.06588 -0.132028,0.06588 -0.06588,0 -0.12065,-0.02196 -0.16457,-0.06588 -0.04392,-0.04419 -0.06588,-0.09896 -0.06588,-0.164836 0,-0.04392 0.02196,-0.08784 0.06588,-0.131762 0.04392,-0.04392 0.09895,-0.06588 0.16457,-0.06588 0.04392,0 0.08784,0.02196 0.132028,0.06588 0.04392,0.04392 0.06588,0.08784 0.06588,0.131762 0,0.06588 -0.02196,0.12065 -0.06588,0.164836 z"
           id="path2214"
           style="stroke-width:0.264583" />
      </g>
    </g>
  </g>
</svg>
