<svg version="1.1" viewBox="0 0 20 20" xmlns="http://www.w3.org/2000/svg">
 <defs>
  <style type="text/css">.str0 {stroke:black;stroke-width:8.46}
    .fil0 {fill:none}
    .fil1 {fill:black}</style>
 </defs>
 <g stroke="#000" stroke-width=".37795">
  <path d="m2.365 7.4912c0.33807-0.23665 0.77757-0.27046 1.1156-0.067615 0.27046 0.13523 0.64234 0.40569 0.98041 0.9128 0.10142 0.13523 0.20284 0.30427 0.30427 0.4395 0.13523-0.033807 0.33807-0.10142 0.54092-0.033807 0.30427 0.13523 0.77757 0.70995 0.33807 1.4537l-0.23665 0.30427c0.10142 0.27046 0.16904 0.50711 0.33807 0.67615 0.4395 0.4733 1.048 0.06761 1.048 0.06761s-0.87899-0.06761 0-1.0142c0.30427-0.33807 0.50711-0.70995 0.60853-1.1156 0.13523-0.77757-0.067615-1.6228-0.50711-2.2989 0.30427-0.13523 0.57472-0.37188 0.70995-0.70995 0.27046-0.67615-0.033807-1.4537-0.70995-1.758-0.67615-0.27046-1.4537 0.033807-1.758 0.70995-0.067615 0.16904-0.10142 0.33807-0.10142 0.4733-0.98041-0.20284-2.0284 0.10142-2.7046 0.60853 0 0-1.2509 0.10142-1.4199 0.9128-0.10142 0.50711 0.4395 0.84518 1.2847 0.9466-0.033807 0.033807-0.23665-0.23665 0.16904-0.50711z" fill="#a80"/>
  <path d="m16.091 22.975s-0.9466-3.4145-2.2651-4.2259c0 0 2.0961-0.03381 4.3611-0.84518 0 0-2.3665-1.2171-3.516-1.3185 0 0 2.0284-0.10142 3.1779-1.2847 0 0-3.4145-0.57472-5.443 0.57472-0.50711 0.30427-0.9128 0.37188-1.2509 0.33807-0.33807 0.16904-1.4199 0.4733-3.9216-0.9466-0.30427-0.16904-1.2847 0.03381-1.8256 0.4733 0.16904 0.57472 0.67615 1.2847 1.3523 1.5213 0.4395 0.16904 0.87899 0.33807 1.2509 0.60853 0.67615 0.4733 1.5889 1.1494 1.6228 1.4537 0 0 0.16904 4.395 0.33807 5.9839 0 0 2.4341-2.7384 2.2989-4.0907 0 0 1.3185 1.4537 3.8202 1.758z" fill="#2aff2a"/>
  <g fill="#e9c6af">
   <path d="m7.3347 15.064c0.54092 0.23665 2.4341 1.2847 3.4483 1.048-0.67615-0.37188-0.9128-1.3185-1.1156-1.6566-0.033807-0.067615-0.13523-0.23665-0.20284-0.40569l4.3273 0.40569c0.81138 0.20284 3.5498 0.4395 3.5498 0.4395s1.5213 0.37188 2.0961 0.50711c0.57472 0.13523 0.4395-0.30427 0.30427-0.50711s0.57472-0.57472 1.0142-0.9466c0.4395-0.37188-0.64234-0.4395-1.3861-0.06761-0.70995 0.37188-1.3861 0.20284-1.3861 0.20284s-3.1779-1.0818-3.9216-1.0142c-0.70995 0.06761-4.733-0.87899-5.443-1.0818-0.57472-0.16904-1.2847-0.13523-1.5889-0.10143-1.2509 0.10142-1.758-0.87899-1.758-0.87899-0.067615-0.20284-0.13523-0.40569-0.20284-0.64234 0.74376-0.4395 0.37188-1.3523-0.033807-1.3861-0.27046-0.033807-0.37188 0.13523-0.40569 0.27046-0.37188-0.84518-0.87899-1.5889-1.5889-1.6904 0 0-0.40569-0.033807-0.50711 0.067615-0.067615 0.067615-0.20284 0.033807-0.13523 0.54092v0.13523s-0.4395 0-0.81138-0.10142c0 0-0.16904 0.50711-0.033807 0.9128 0.13523 0.40569 0.54092 0.60853 0.4395 1.0818-0.10142 0.4733-0.4395 0.4395-0.33807 0.67615 0.10142 0.23665 0.4395 0.30426 0.4395 0.30426s-0.067615 0.27046 0 0.37188l0.20284 0.13523s-0.033807 0.23665 0.13523 0.30427c0.16904 0.06761 0.20284 0.57472 0.54092 0.57472 0.33807 0 0.81138-0.13523 1.1494-0.33807 0 0 0.10142 0.06761 0.27046 0.20284 0.13523 0.16904 0.33807 0.50711 0.4733 1.1156 0 0 0.37188 1.1494 0.50711 1.8932 0.40569-0.27046 1.2847-0.67615 1.9608-0.37188z"/>
   <path d="m25.929 28.181c-0.81138-0.57472-0.50711-1.8256-0.9466-2.0284-0.4395-0.20284-0.64234 0.4395-1.8256-0.20284-1.1494-0.64234-3.5836-2.6032-4.8683-3.0765-0.9466-0.33807-2.3327-1.3185-2.3327-1.3185s0.64234 1.2171 0.60853 1.8594c0 0-1.8594-0.33807-2.1299-0.4733l1.5889 0.9466s0.33807 0.27046 0.84518 0.4733 6.6938 3.3469 6.6938 3.3469 1.4537 1.4537 2.1637 1.5213c0.70995 0.06761 0.87899 1.0142 1.0142 0.64234 0.13523-0.37188 0-1.1156-0.81138-1.6904z"/>
   <path d="m27.315 16.923c-0.27046-0.20284-1.0818 0.4395-1.5889 0.4395-0.50711 0-1.2171-0.40569-1.5889-0.06761-0.67615 0.57472 0.4395 0.81138-1.5889 1.5213-2.0284 0.70995-3.6174 2.1637-4.1245 2.1637-0.50711 0-3.1103-1.5889-3.1103-1.5889l-0.57472-0.33807c0.4733 0.4733 1.0818 1.8932 1.0818 1.8932 0.57472 0.50711 2.0284 1.2847 2.3665 1.4199 0.37188 0.13523 1.3185 0.67615 1.3185 0.67615s2.0284-1.8256 3.2793-2.975c1.2171-1.1494 2.0284-0.9128 2.8398-1.5551 0.57472-0.4733 2.1299-1.2509 1.6904-1.5889z"/>
  </g>
  <g fill="#5fd">
   <path d="m8.4503 11.683 1.0818 0.23665c1.4537-2.975 6.6938-5.0711 6.6938-5.0711 1.1494-5.2401-3.9555-9.3646-3.9555-9.3646s-1.8594 0.77757-3.1779 4.8006c-1.3523 4.0569-0.64234 9.3984-0.64234 9.3984z"/>
   <path d="m9.9379 11.988c0.4395 0.23665 3.854 0.77757 3.854 0.77757 1.3523-0.10142 3.2455 0.74376 3.2455 0.74376 1.758-0.74376 1.758-3.0765 1.758-3.0765-0.03381-2.9412-2.6032-3.2793-2.6032-3.2793-5.4768 2.5017-6.2544 4.8344-6.2544 4.8344z"/>
   <path d="m9.904 14.32s0.23665 0.37188 0.30427 0.60853c0.06761 0.23665 0.27046 0.4395 0.27046 0.4395s2.7384-0.03381 3.7864-0.4733c0 0-0.64234-0.13523-0.70995-0.13523-0.06761-0.03381-3.4145-0.23665-3.6512-0.4395z"/>
   <path d="m7.5713 4.4148c1.1494 1.4537-0.23665 2.5017-0.23665 2.5017 0.64234 1.1494 0.40569 2.4341 0.27046 2.7722-0.13523 0.33807-0.33807 0.50711-0.33807 0.50711 0.10142 0.20284 0.20284 1.3185 0.20284 1.3185l0.033807 0.13523h0.74376s-0.4395-2.2651-0.16904-5.0373 0.81138-4.564 0.81138-4.564l-0.033807-0.13523c-0.13523-0.81138-1.6566-2.5694-1.6566-2.5694-1.3523 2.4341-0.87899 4.6654-0.87899 4.6654 0.70995-0.16904 1.2509 0.40569 1.2509 0.40569z"/>
  </g>
 </g>
 <g fill-rule="evenodd">
  <path d="m9.8035 13.944-1.2018-0.10903 1.5254 1.1653z"/>
  <path d="m10.636 16.653s1.3983 0.27542 2.3093-0.06356c0.91102-0.33898 2.6059-1.1653 2.6059-1.1653l0.19068-0.08475-1.6525 0.04237-1.6525 0.38136-1.1653 0.67797-0.88983-0.04237z"/>
  <path d="m11.229 14.195 1.8644-0.36017 1.6102 0.63559-3.3686-0.3178z"/>
  <path d="m8.9407 11.97s0-4.0678 0.48729-5.9746 1.1653-2.6695 1.1653-2.6695-0.95339 4.428-1.0169 5.2119c-0.063559 0.7839-0.40254 2.7966-0.40254 2.7966s1.2924-2.839 2.4153-4.2161c1.1229-1.3771 1.3347-1.3771 1.3347-1.3771s-2.5847 4.1737-2.7754 4.7246c-0.19068 0.55085-0.6162 1.4535-0.6162 1.4535z"/>
  <path d="m9.5321 11.92s4.1332-1.9196 4.7476-2.1103c0.61441-0.19068 1.4619-0.25424 1.4619-0.25424l-5.8036 2.4329s3.2189-0.4202 4.2782-0.37783c1.0593 0.04237 1.6737 0.16949 1.6737 0.16949l-5.6144 0.40254z"/>
  <path d="m7.6695 17.458s3.2203 1.0169 3.5169 1.4407 0.88983 1.8432 0.88983 1.8432l-2.4153-0.12712-0.027217-1.2907-1.9219-1.6331"/>
  <path d="m17.331 15.487-2.6595 1.0981 1.6002-0.37779 1.4195-0.65678"/>
 </g>
</svg>
