<svg version="1.1" viewBox="0 0 20 20" xmlns="http://www.w3.org/2000/svg">
 <defs>
  <style type="text/css">.str0 {stroke:black;stroke-width:8.46}
    .fil0 {fill:none}
    .fil1 {fill:black}</style>
  <style type="text/css">.fil0 {fill:black}</style>
 </defs>
 <path d="m23.424-16.407h37.22v37.22h-37.22z" style="fill:none;stroke-width:1.1631"/>
 <path d="m0.69492 0.44068h19.034v19.034h-19.034z" style="fill:none;stroke-width:.59481"/>
 <path d="m4.3131 8.7823c0.0069844-1.5067 0.60828-2.9499 1.6737-4.0154 1.0718-1.0718 2.5252-1.6737 4.0408-1.6737s2.969 0.60193 4.0408 1.6737c1.0654 1.0654 1.6667 2.5087 1.6737 4.0154l2.5398-0.60954s-0.36954 1.5842-0.6324 2.7093c-0.1581 0.67875-0.67367 1.2166-1.3448 1.4026l-0.58097 0.16128c-0.11746 1.5505-0.8013 3.0109-1.9302 4.0966-0.32763 0.31493-0.65399 0.62859-0.93908 0.90289-0.59177 0.56891-1.3804 0.88638-2.2007 0.88638h-1.2521c-0.82035 0-1.6089-0.31747-2.2007-0.88638-0.28509-0.2743-0.61145-0.58796-0.93908-0.90289-1.1289-1.0858-1.8128-2.5461-1.9302-4.0966l-0.58097-0.16128c-0.67113-0.18604-1.1867-0.72383-1.3448-1.4026-0.26287-1.1251-0.6324-2.7093-0.6324-2.7093z" style="fill:#e02e31;stroke-width:.5;stroke:#000000"/>
 <path d="m4.948 9.4426h1.9048c0.33652 0 0.65971 0.13397 0.89781 0.37208 0.2381 0.2381 0.37208 0.56129 0.37208 0.89781v0.63494h-1.9048c-0.33652 0-0.65971-0.13397-0.89781-0.37208-0.2381-0.2381-0.37208-0.56129-0.37208-0.89781v-0.63494z" style="stroke-width:.63494"/>
 <path d="m15.107 9.4426h-1.9048c-0.33652 0-0.65971 0.13397-0.89781 0.37208-0.2381 0.2381-0.37208 0.56129-0.37208 0.89781v0.63494h1.9048c0.33652 0 0.65971-0.13397 0.89781-0.37208 0.2381-0.2381 0.37208-0.56129 0.37208-0.89781v-0.63494z" style="stroke-width:.63494"/>
 <path d="m6.8948 13.888 0.040001 0.0038 0.039366 0.0063 0.038731 0.0089 0.038097 0.01143 0.037462 0.01397 0.036827 0.01587 0.035557 0.01778 0.034287 0.02095 0.033017 0.02222 0.031112 0.02476 1.5194 1.2661 1.2496-0.93781 1.2489 0.93908 1.5181-1.2673 0.03175-0.02413 0.03238-0.02286 0.03429-0.02032 0.03556-0.01841 0.03683-0.01587 0.03746-0.01397 0.0381-0.01079 0.03873-0.0089 0.03937-7e-3 0.04-0.0038 0.04-0.0013 0.03937 0.0013 0.04 0.0032 0.03937 0.0064 0.03873 0.0083 0.03873 0.01143 0.03746 0.01333 0.03683 0.01524 0.03556 0.01841 0.03429 0.01968 0.03302 0.02222 0.03175 0.02476 0.02984 0.02603 0.02857 0.02794 0.02667 0.02984 0.02413 0.03175 0.02286 0.03238 0.02032 0.03429 0.01841 0.03556 0.01587 0.03683 0.01397 0.03746 0.01079 0.0381 0.0089 0.03873 7e-3 0.03937 0.0038 0.04 0.0013 0.04-0.0013 0.03937-0.0032 0.04-0.0063 0.03937-0.0083 0.03873-0.01143 0.03873-0.01333 0.03746-0.01524 0.03683-0.01841 0.03556-0.01968 0.03429-0.02222 0.03302-0.02476 0.03175-0.02603 0.02984-0.02794 0.02857-0.02984 0.02667-2.2915 1.9124-1.2908-0.97083-1.2902 0.96702-2.2902-1.9086-0.029842-0.02603-0.027938-0.02857-0.026668-0.02984-0.024128-0.03175-0.022223-0.03302-0.020318-0.03429-0.017778-0.03556-0.015873-0.03683-0.013334-0.03746-0.010794-0.03873-0.00889-0.03873-0.00635-0.03937-0.00317-0.04-0.00127-0.04 0.00127-0.03937 0.00381-0.04 0.00635-0.03937 0.00889-0.03873 0.011429-0.0381 0.013969-0.03746 0.015874-0.03683 0.017778-0.03556 0.020953-0.03429 0.022223-0.03302 0.024763-0.03111 0.026033-0.02984 0.028572-0.02794 0.029842-0.02667 0.031747-0.02413 0.033017-0.02222 0.034287-0.02032 0.035557-0.01778 0.036827-0.01587 0.037462-0.01333 0.038731-0.01079 0.038732-0.0089 0.039366-0.0064 0.040001-0.0032 0.040001-0.0013z" style="fill:#800e0e;stroke-width:.63494"/>
 <path d="m10.028 10.712-1.2699 2.5398h2.5398z" style="fill:#800e0e;stroke-width:.63494"/>
 <g transform="matrix(.63494 0 0 .63494 -.13152 -.71647)" style="fill:#fede30;stroke-width:.78747;stroke:#000000">
  <path d="m10 8h-2.685c-0.848 0-1.656-0.359-2.224-0.987-0.569-0.628-0.845-1.468-0.761-2.312 0.139-1.394 0.27-2.701 0.27-2.701s-0.96 2.953-1.713 5.271c-0.496 1.527 0.297 3.173 1.8 3.736 2.324 0.872 5.313 1.993 5.313 1.993h0.5c1.381 0 2.5-1.119 2.5-2.5s-1.119-2.5-2.5-2.5h-0.5z" style="stroke-width:.78747;stroke:#000000"/>
  <path d="m22 8h2.685c0.848 0 1.656-0.359 2.224-0.987 0.569-0.628 0.845-1.468 0.761-2.312-0.139-1.394-0.27-2.701-0.27-2.701s0.96 2.953 1.713 5.271c0.496 1.527-0.297 3.173-1.8 3.736-2.324 0.872-5.313 1.993-5.313 1.993h-0.5c-1.381 0-2.5-1.119-2.5-2.5s1.119-2.5 2.5-2.5z" style="stroke-width:.78747;stroke:#000000"/>
 </g>
</svg>
