<svg version="1.1" viewBox="0 0 20 20" xmlns="http://www.w3.org/2000/svg">
 <defs>
  <style type="text/css">.str0 {stroke:black;stroke-width:8.46}
    .fil0 {fill:none}
    .fil1 {fill:black}</style>
  <style type="text/css">.fil0 {fill:black}</style>
  <clipPath id="clipPath6170">
   <path d="m0 574h574v-574h-574z"/>
  </clipPath>
 </defs>
 <g>
  <path d="m1.2311 11.319-0.31567-3.6618 1.9256-3.3777-1.1049-2.6517 0.66291-0.59978 2.6517 0.97859 3.9775-0.97859 2.7148 0.094702 3.1252 0.97859 2.2097-0.82075 1.0102 0.31567-0.50508 2.1781-0.03157 0.78918 1.7678 3.283-0.1894 2.5254-1.1364 1.3258-1.4837 1.4521 0.59978 0.75761-0.94702 0.94702-1.4521 1.0417-0.85232 1.6731-0.63134-0.47351-0.82075 1.6099-0.91545 0.12627-2.7148 0.12627-1.6731-1.8625-0.72605 0.031568-0.66291-0.97859-2.336-2.115 0.56821-0.41037-1.7362-1.7362z" style="fill-rule:evenodd;fill:#ff9955;stroke-width:1px;stroke:#000000"/>
  <path d="m7.1205 12.545 2.1205-0.24554 3.0134 0.20089 0.51339 0.69196-0.3125 2.8795-0.69196 1.1161-1.5402 0.33482-1.317-0.35714-1.4732-1.6741z" style="fill-rule:evenodd;fill:#ffffff"/>
  <g transform="matrix(.040859 0 0 -.040859 -1.0545 22.346)">
   <g>
    <g clip-path="url(#clipPath6170)">
     <path d="m264.01 483.19s-67.036-16.102-94.689-27.835c25.372 33.352 96.166 53.553 96.166 53.553zm-86.656-49.217s32.983-9.571 55.055-34.744c-36.596 18.857-67.503 26.92-77.36 26.323 31.94 42.365 106.97 44.042 106.97 44.042l0.47-24.163c-28.944 2.458-57.243-2.24-85.133-11.458m76.001-318.82s9.503-41.946-5.471-46.389c-39.56-14.328-46.484 46.996-46.484 46.996s-9.656-8.32-26.399-23.691c10.857 39.539-22.817 73.954-63.799 72.129l17.416 10.074-67.962 36.567s24.349 2.801 40.698 6.441c0 0-13.62 27.617-59.37 27.933-37.65 109.13 7.758 157.09 39.288 188.85-21.721 23.579-41.103 76.692-15.224 102.32 27.447 1.157 59.328-17.01 80.758-33.805 22.027 4.188 86.257 18.086 75.352 35.957-2.883 3.801 45.611-16.233 45.611-16.233l0.106-1.76-106.92-30.248c3.897-3.806 6.868-7.178 8.604-9.737 0 0-62.937 30.06-78.36 26.121-24.765-6.32-7.508-48.076 22.892-54.707l-8.933-12.012 0.609-0.386s-3.276-3.438-8.057-9.626l-4.195-5.642c-20.486-28.582-55.434-93.216-12.554-158.56 35.859-8.428 71.58-61.931 71.58-61.931l-37.388-0.944s71.087-30.148 69.647-71.991c12.226 6.04 23.025 6.474 23.025 6.474 1.311-36.153 16.802-44.676 40.318-40.08 2.385 0.466 5.212 17.875 5.212 17.875m117.07 341.68c-27.937 11.047-95.346 25.491-95.346 25.491l0.313 25.586s68.846-18.362 95.033-51.077m-7.505-21.574c-28.109 8.529-56.515 12.524-85.39 9.355l-0.125 24.168s75.047 0.174 108.02-41.393c-9.871 0.355-78.904-32.472-75.431-27.963 21.445 25.711 52.922 35.833 52.922 35.833m-75.659-304.44c-0.956 1.027 0 0-0.645 1.511-0.646 1.515-1.989-1.084-2.679-1.888-0.691-0.803-6.463-0.264-7.605 0.272-1.136 0.539-3.108 0.94-3.893 2.127-0.786 1.187-3.064-2.371-3.064-2.371s-6.978-0.743-7.934 0.284c-0.957 1.028-1.814 3.265-1.814 3.265s-2.277-6.62-8.181-5.98c-18.469 7.946-12.82 21.406-10.379 34.064 6.415-10.325 13.838-18.493 15.454-16.564l0.34 7.058c0.048 1.323 9.281 0.357 9.281 0.357 0.379-0.202-0.768-8.471 2.779-8.161 0.819 0.071 0.249 5.707 1.644 6.899 0.682 0.583 7.883 0.627 7.883 0.627l0.501-6.804 3.152 7.087s5.094 0.7 5.949-0.212c0.844-0.915 1.042-5.614 1.693-5.855 1.305-0.489 1.086 4.924 1.879 6.221 0.79 1.297 7.505-0.297 7.505-0.297s1.827-6.353 3.629-5.316c1.803 1.039 9.594 9.089 12.312 19.086 4.904-4.809 7.159-25.246 3.033-32.326-3.187-5.457-11.756-1.617-11.756-1.617s-2.372 3.065-2.168 4.051-2.903-2.381-3.457-4.015c-0.557-1.633-5.708-2.28-5.708-2.28s-6.795-0.251-7.751 0.777m-58.566 54.239c-13.252 17.357-15.546 54.069-15.546 54.069 2.338 3.608 11.917 6.191 19.618-0.596-2.542-15.464-3.688-42.784-4.072-53.473m-110.47 116.72c9.718-6.76 17.857-12.159 24.35-16.331 1.526-3.772 3.462-7.24 5.567-10.359 3.755-5.196 7.871-9.645 12.13-13.266 4.195-3.723 8.52-6.622 12.492-9.25 4.123-2.389 7.812-4.645 11.318-6.207 2.992-1.432 5.632-2.642 7.968-3.554-0.993-0.173-1.999-0.326-2.989-0.507 0.379-5.665 1.752-16.969 4.888-30.642-16.659 15.138-54.539 53.799-75.724 90.116m182.43-61.226s-2.905-15.284-7.219-18.659c-1.464 2.259-2.413 6.598-2.413 6.598l-2.523-2.667-3.399 0.186-1.536 1.805-1.659-1.634-5.298 0.287-2.959 3.192-2.153-3.168-5.181 0.321-1.286 2.441-1.9-2.242-6.127 0.382-1.848 3.818s-1.642-7.54-3.693-10.681c-3.887 2.351-7.261 19.017-7.261 19.017 0.844 5.048 10.039 3.417 10.885 2.029 0.807-1.319 5.424-2.616 6.391-0.23 0.97 2.382 5.816 0.609 9.105 0.038 3.29-0.566 5.746-1.74 7.573-1.46 3.956 2.616 10.075-2.072 12.051 2.606 4.021 1.399 10.45-1.979 10.45-1.979m-100.35 108.36 33.966-21.314c-0.021-1.411-0.018-2.795 0.019-4.194 0.057-1.981 0.168-3.953 0.334-5.924 0.349-3.938 0.893-7.863 1.827-11.716 0.917-3.843 2.221-7.646 4.212-11.087 0.461-0.754 0.937-1.491 1.469-2.193-1.568-0.829-3.098-1.849-4.537-3.14 9.623-4.936 28.588-21.447 26.658-29.289l5.264-7.288 0.992 0.923 6.357 5.91c-1.362 7.963 17.162 23.126 27.116 27.359-1.238 1.282-2.571 2.351-3.95 3.248 0.512 0.544 0.997 1.117 1.434 1.723 0.602 0.792 1.106 1.645 1.61 2.505 1.902 3.493 3.112 7.323 3.934 11.191 0.839 3.875 1.283 7.812 1.538 11.759 0.118 1.973 0.18 3.95 0.186 5.93 3e-3 1.398-0.028 2.782-0.085 4.193l33.107 21.927c2.054-0.853 4.151-1.799 6.293-2.814-0.062-0.899-0.199-1.933-0.372-3.046-1.04-6.269-4.363-15.193-8.739-23.581-4.366-8.424-9.782-16.412-14.599-21.771-2.391-2.697-4.618-4.736-6.278-6.052-0.825-0.669-1.508-1.151-1.988-1.459-0.47-0.322-0.725-0.493-0.725-0.493s0.281 0.116 0.811 0.335c0.534 0.21 1.312 0.547 2.268 1.043 1.927 0.966 4.598 2.56 7.584 4.794 6.011 4.434 13.209 11.414 19.552 19.228 6.344 7.827 11.893 16.411 14.963 24.167 0.035 0.086 0.063 0.169 0.095 0.254 0.519-0.301 1.037-0.613 1.557-0.923-0.486-1.933-1.112-4.175-1.904-6.647-2.737-8.675-7.545-20.101-14.388-30.386-3.392-5.151-7.275-10.002-11.355-14.164-4.066-4.177-8.335-7.643-12.231-10.302-3.912-2.645-7.426-4.51-9.945-5.69-2.522-1.188-4.019-1.759-4.019-1.759s1.562 0.329 4.26 1.121c2.698 0.785 6.517 2.097 10.932 4.175 4.4 2.086 9.372 4.97 14.307 8.668 4.942 3.682 9.843 8.153 14.299 13.053 8.973 9.782 16.052 21.181 20.532 30.187 0.498 0.994 0.961 1.954 1.4 2.884-0.064-0.768-0.136-1.586-0.214-2.462-0.274-1.93-0.471-4.139-0.978-6.509-0.381-2.404-1.039-4.949-1.742-7.661-0.295-1.377-0.82-2.709-1.262-4.115-0.493-1.384-0.865-2.864-1.475-4.265-1.215-2.801-2.297-5.827-3.909-8.631-0.762-1.427-1.482-2.908-2.301-4.334l-2.698-4.151c-1.682-2.894-3.98-5.299-5.986-7.922-0.98-1.344-2.18-2.446-3.318-3.6-1.149-1.151-2.279-2.29-3.395-3.409-1.069-1.188-2.358-2.065-3.53-3.043-1.195-0.963-2.363-1.903-3.501-2.818-2.203-1.962-4.694-3.211-6.824-4.654-2.2-1.323-4.109-2.786-6.044-3.596-1.888-0.923-3.535-1.732-4.892-2.394-2.73-1.336-4.29-2.098-4.29-2.098s1.65 0.535 4.538 1.465c1.453 0.466 3.22 1.037 5.245 1.69 2.078 0.548 4.184 1.72 6.61 2.744 2.364 1.148 5.126 2.083 7.66 3.756 1.313 0.774 2.662 1.57 4.036 2.382 1.363 0.844 2.851 1.585 4.14 2.649 1.337 1.006 2.699 2.026 4.077 3.061 1.377 1.046 2.831 2.051 4.07 3.313 2.529 2.455 5.388 4.744 7.648 7.575l3.586 4.103c1.121 1.42 2.136 2.91 3.203 4.361 2.213 2.853 3.89 5.969 5.686 8.914 0.903 1.473 1.56 3.029 2.33 4.5 0.72 1.493 1.518 2.928 2.078 4.407 1.228 2.917 2.381 5.7 3.212 8.353 0.042 0.11 0.072 0.215 0.112 0.324 0.888-1.346 1.689-2.72 2.355-4.125 2.168-4.341 3.083-8.891 2.842-13.501-0.315-4.605-1.653-9.32-3.89-13.788-0.474-1.141-1.23-2.188-1.819-3.283-0.661-1.064-1.169-2.198-1.944-3.207-1.49-2.037-2.748-4.165-4.396-6.027-3.002-3.899-6.306-7.351-9.329-10.608-3.202-3.089-6.028-6.123-8.81-8.544-2.727-2.481-5.02-4.821-7.078-6.526-2.037-1.739-3.572-3.237-4.652-4.204-0.151-0.142-0.264-0.249-0.392-0.371-26.991 3.04-53.234 4.811-78.489 4.904-25.69 0.094-50.357-1.554-73.76-5.338-0.562 0.482-1.154 0.983-1.816 1.519-2.11 1.661-4.467 3.952-7.265 6.368-2.849 2.36-5.761 5.338-9.054 8.353-3.115 3.197-6.531 6.568-9.66 10.405-3.248 3.75-6.132 7.966-8.701 12.339-2.379 4.457-4.122 9.161-4.835 13.871-0.657 4.72-0.215 9.442 1.481 14.003 0.399 1.161 0.883 2.307 1.436 3.437 0.769-1.961 1.668-3.986 2.612-6.082 0.596-1.465 1.429-2.878 2.185-4.353 0.804-1.454 1.503-2.991 2.44-4.441 1.869-2.899 3.621-5.972 5.907-8.773 1.1-1.421 2.152-2.887 3.308-4.281l3.684-4.01c2.331-2.775 5.245-4.991 7.834-7.386 1.272-1.228 2.748-2.199 4.151-3.209 1.402-1.002 2.79-1.991 4.152-2.96 1.313-1.033 2.819-1.738 4.203-2.544 1.396-0.781 2.76-1.543 4.092-2.287 2.577-1.608 5.359-2.475 7.751-3.562 2.453-0.966 4.582-2.087 6.677-2.583 2.04-0.604 3.818-1.127 5.284-1.559 2.911-0.86 4.574-1.354 4.574-1.354s-1.578 0.728-4.342 1.993c-1.372 0.629-3.036 1.395-4.948 2.275-1.955 0.762-3.901 2.176-6.132 3.444-2.163 1.39-4.685 2.578-6.936 4.485-1.16 0.885-2.353 1.796-3.571 2.724-1.195 0.954-2.506 1.798-3.604 2.959-1.141 1.091-2.301 2.202-3.476 3.325-1.165 1.124-2.395 2.199-3.407 3.515-2.07 2.574-4.427 4.926-6.178 7.771l-2.799 4.087c-0.859 1.403-1.61 2.87-2.409 4.277-1.68 2.761-2.836 5.76-4.12 8.529-0.643 1.387-1.056 2.856-1.58 4.229-0.476 1.394-1.033 2.714-1.364 4.081-0.769 2.695-1.49 5.223-1.93 7.615-0.565 2.358-0.819 4.561-1.139 6.485-0.064 0.578-0.127 1.126-0.186 1.659 0.07 0.069 0.139 0.139 0.211 0.207 0.373-0.736 0.76-1.485 1.172-2.26 4.702-8.894 12.058-20.114 21.269-29.669 4.576-4.791 9.587-9.138 14.619-12.696 5.024-3.575 10.065-6.335 14.516-8.316 4.464-1.963 8.314-3.183 11.029-3.902 2.717-0.722 4.288-1.015 4.288-1.015s-1.511 0.535-4.061 1.657c-2.547 1.12-6.108 2.9-10.083 5.446-3.962 2.563-8.313 5.921-12.483 9.998-4.179 4.058-8.179 8.81-11.7 13.877-7.09 10.111-12.18 21.418-15.133 30.022-0.796 2.292-1.444 4.388-1.96 6.224 0.513 0.355 1.026 0.713 1.541 1.059 3.264-7.671 9.013-16.107 15.543-23.767 6.535-7.655 13.902-14.455 20.019-18.738 3.042-2.158 5.751-3.686 7.7-4.604 0.97-0.475 1.752-0.791 2.293-0.988 0.535-0.204 0.821-0.318 0.821-0.318s-0.258 0.168-0.741 0.48c-0.485 0.295-1.179 0.76-2.022 1.409-1.691 1.273-3.969 3.258-6.423 5.894-4.949 5.236-10.562 13.092-15.133 21.403-4.581 8.279-8.123 17.117-9.316 23.359-0.217 1.185-0.39 2.28-0.463 3.22 2.002 1.076 3.972 2.078 5.907 2.992m224.99-44.362c-19.695-35.762-55.078-74.129-72.019-90.551 2.417 16.963 2.713 29.188 2.713 29.188-1.897 0.228-3.782 0.433-5.673 0.65 1.319 0.51 3.095 1.155 5.249 2.081 2.552 0.991 5.517 2.442 8.917 4.174 3.457 1.634 7.082 3.975 11.132 6.461 3.896 2.714 8.131 5.722 12.222 9.557 2.161 1.759 3.997 4.076 6.072 6.224 1.066 1.05 1.917 2.369 2.858 3.606 0.896 1.286 1.921 2.471 2.73 3.891 0.814 1.408 1.655 2.83 2.446 4.294 0.813 1.45 1.353 3.124 2.032 4.709 0.117 0.262 0.218 0.531 0.323 0.799 5.852 4.013 12.861 8.953 20.998 14.917m-116.82-68.747c8.168 6.215 17.538 2.951 19.609-0.815 0 0-4.922-36.454-19.383-52.812 0.383 10.688 1.199 38.017-0.226 53.627m193.78 14.713c34.939 109.99-11.104 156.34-43.275 187.19 21.131 24.109 39.197 77.682 12.694 102.67-27.467 0.48-58.889-18.467-79.9-35.786-22.125 3.644-86.677 15.955-76.215 34.089 2.787 3.871-45.198-17.352-45.198-17.352l-0.062-1.762 107.64-27.601c-3.804-3.901-6.691-7.347-8.364-9.946 0 0 62.176 31.601 77.692 28.046 24.914-5.71 8.691-47.879-21.535-55.26l9.226-11.784-0.598-0.402s3.355-3.353 8.281-9.413l4.344-5.548c21.182-28.07 57.712-91.821 16.459-158.2-35.643-9.309-70.033-63.681-70.033-63.681l37.402-0.017s-70.323-31.897-67.852-73.69c-12.372 5.738-23.178 5.908-23.178 5.908-0.418-36.177-15.694-45.076-39.317-41.064-2.131 0.359-4.939 14.101-5.536 17.142 34.935 8.489 49.928 53.174 56.335 87.632 8.105-9.721 15.888-22.179 15.622-34.013 25.95 98.298 126.88 122.77 98.38 191.03 0 0-7.532-26.104-19.73-37.91 15.502 64.436-35.17 109.11-60.952 125.58 44.908-64.25 36.751-109.36 21.777-137.9-0.592 4.375-1.895 8.673-3.788 12.541-3.272 6.604-7.877 12.087-12.882 16.543-3.374 2.969-6.925 5.504-10.525 7.725-0.012 0.238-0.03 0.471-0.06 0.701 14.522 1.242 27.799 20.474 22.618 35.906-3.584-12.148-25.252-27.564-50.279-24.947-2.971 0.787-5.858 1.451-8.624 1.91-4.672 0.857-8.997 1.3-12.826 1.523-3.836 0.212-7.156 0.183-9.927 0.023-0.249-6e-3 -0.465-0.023-0.704-0.034l-3.13 3.721-30.335-28.768 1.976 19.219s21.434 16.22 30.528 20.526c43.8-15.475 77.17 10.687 73.928 21.727l-40.376 9.395-71.374-42.781s2.292-46.751 3.225-48.44l2.049 19.93 31.129 23.163c0.85-0.235 1.759-0.494 2.766-0.783 2.541-0.677 5.625-1.737 9.091-2.892 0.599-0.207 1.224-0.428 1.844-0.647l-26.531-22.559-1.355-1.152 0.27-1.436c0.333-1.758 0.603-3.678 0.822-5.538 0.219-1.88 0.386-3.767 0.5-5.658 0.209-3.778 0.236-7.579-0.119-11.344-0.337-3.761-1.045-7.502-2.444-11.01-0.371-0.861-0.751-1.729-1.228-2.541-0.364-0.655-0.779-1.285-1.23-1.888-8.858 5.33-19.602 3.454-23.161-0.718l-10.687 0.384c-3.178 4.316-13.355 6.947-22.42 2.695-0.45 0.753-0.829 1.547-1.197 2.338-1.481 3.471-2.282 7.196-2.714 10.948-0.446 3.751-0.512 7.553-0.397 11.336 0.068 1.891 0.189 3.785 0.361 5.666 0.174 1.867 0.395 3.793 0.685 5.557l0.234 1.44-1.383 1.12-27.56 22.287c0.618 0.245 1.24 0.493 1.835 0.724 1.698 0.731 3.34 1.208 4.838 1.792 1.508 0.583 2.896 1.031 4.162 1.413 0.93 0.3 1.775 0.567 2.572 0.815l32.355-22.861 2.539-19.875c0.893 1.712 2.03 48.506 2.03 48.506l-72.408 41.007-40.13-10.386c-2.97-11.116 31.035-36.448 74.44-19.898 9.196-4.081 31.026-19.769 31.026-19.769l2.448-19.16-31.033 28.009-2.638-3.296c-0.515 0.017-1.042 0.03-1.616 0.024-2.787 0.075-6.122-8e-3 -9.965-0.377-3.836-0.371-8.169-0.989-12.82-2.081-2.357-0.505-4.783-1.161-7.275-1.932-25.797-4.452-47.594 10.94-51.591 23.352-4.801-15.553 8.95-34.453 23.499-35.334-0.047-0.429-0.074-0.867-0.052-1.31 0.012-0.118 0.022-0.246 0.033-0.379 3e-3 -0.011 3e-3 -0.028 7e-3 -0.042-3.263-2.368-6.446-5.043-9.428-8.096l-1.324-0.079s0.058-0.404 0.162-1.136c-4.513-4.824-8.503-10.662-10.985-17.452-1.555-4.285-2.409-8.929-2.496-13.533-16.932 27.847-29.212 73.843 16.129 142.24-25.369-17.098-74.925-63.011-57.837-127.04-12.484 11.497-20.658 37.41-20.658 37.41-26.807-68.941 74.696-90.915 103.06-188.55 0.074 12.313 8.27 25.589 16.355 35.708 10.226-37.558 33.294-85.957 82.346-89.315 5.743-0.395 11.056 0.062 15.979 1.23-0.986-5.289-7.245-41.806 6.739-45.583 39.901-13.347 45.309 48.131 45.309 48.131s9.859-8.079 26.975-23.036c-11.828 39.259 20.989 74.491 62.004 73.681l-17.659 9.636 67.042 38.237s-24.418 2.201-40.847 5.439c0 0 12.277 28.574 58.007 30.022" style="fill:#000000"/>
    </g>
   </g>
  </g>
  <path d="m6.6212 5.8421s-0.40248 0.41037-0.41827 0.72605c-0.015784 0.31567 0.31567 0.59978 0.31567 0.59978s0.41037-0.21308 0.43405-0.5761c0.023676-0.36302-0.29989-0.73394-0.33146-0.74972z" style="fill-rule:evenodd;fill:#ffff00"/>
  <path d="m13.378 5.8091s-0.36505 0.444-0.35317 0.75984c0.01189 0.31584 0.36692 0.56987 0.36692 0.56987s0.39017-0.24815 0.382-0.61185c-0.0082-0.3637-0.36293-0.7049-0.39575-0.71786z" style="fill-rule:evenodd;fill:#ffff00"/>
 </g>
</svg>
