<?xml version="1.0" encoding="UTF-8" standalone="no"?>
<svg
   xmlns:dc="http://purl.org/dc/elements/1.1/"
   xmlns:cc="http://creativecommons.org/ns#"
   xmlns:rdf="http://www.w3.org/1999/02/22-rdf-syntax-ns#"
   xmlns:svg="http://www.w3.org/2000/svg"
   xmlns="http://www.w3.org/2000/svg"
   xmlns:sodipodi="http://sodipodi.sourceforge.net/DTD/sodipodi-0.dtd"
   xmlns:inkscape="http://www.inkscape.org/namespaces/inkscape"
   width="20"
   height="20"
   viewBox="0 0 20 20"
   version="1.1"
   id="svg838"
   inkscape:version="1.0.1 (3bc2e813f5, 2020-09-07)"
   sodipodi:docname="race_humanvale.svg">
  <defs
     id="defs832" />
  <sodipodi:namedview
     id="base"
     pagecolor="#ffffff"
     bordercolor="#666666"
     borderopacity="1.0"
     inkscape:pageopacity="0.0"
     inkscape:pageshadow="2"
     inkscape:zoom="7.9195959"
     inkscape:cx="16.726491"
     inkscape:cy="17.985262"
     inkscape:document-units="mm"
     inkscape:current-layer="layer1"
     inkscape:document-rotation="0"
     showgrid="false"
     units="px"
     inkscape:window-width="1267"
     inkscape:window-height="1040"
     inkscape:window-x="52"
     inkscape:window-y="0"
     inkscape:window-maximized="0"
     inkscape:pagecheckerboard="true" />
  <metadata
     id="metadata835">
    <rdf:RDF>
      <cc:Work
         rdf:about="">
        <dc:format>image/svg+xml</dc:format>
        <dc:type
           rdf:resource="http://purl.org/dc/dcmitype/StillImage" />
        <dc:title></dc:title>
      </cc:Work>
    </rdf:RDF>
  </metadata>
  <g
     inkscape:label="Layer 1"
     inkscape:groupmode="layer"
     id="layer1">
    <g
       id="g2001"
       transform="matrix(3.7795276,0,0,3.7795276,-89.247488,-91.821352)">
      <rect
         y="24.759741"
         x="24.372421"
         height="4.5185256"
         width="3.783534"
         id="rect1892-7"
         style="opacity:1;fill:#e9c6af;fill-opacity:1;stroke:none;stroke-width:0.529167;stroke-miterlimit:4;stroke-dasharray:none;stroke-opacity:1" />
      <path
         style="stroke-width:0.0563027"
         id="path1827-3"
         d="m 26.932189,26.491556 c 0,0.06542 0.021,0.119193 0.06312,0.161195 0.04206,0.04206 0.09583,0.06306 0.161194,0.06306 0.06081,0 0.112155,-0.021 0.154213,-0.06306 0.04679,-0.04206 0.0701,-0.09583 0.0701,-0.161195 0,-0.06081 -0.02331,-0.112155 -0.0701,-0.154269 -0.04206,-0.04673 -0.09341,-0.0701 -0.154213,-0.0701 -0.06537,0 -0.119136,0.02337 -0.161194,0.0701 -0.04211,0.04211 -0.06312,0.09352 -0.06312,0.154269 z m 0.18929,-0.02804 c 0.0093,-0.0093 0.02106,-0.01402 0.03502,-0.01402 0.0093,0 0.01869,0.0047 0.02804,0.01402 0.0093,0.0093 0.01402,0.01875 0.01402,0.0281 0,0.01402 -0.0047,0.02573 -0.01402,0.03502 -0.0093,0.0093 -0.01869,0.01402 -0.02804,0.01402 -0.01396,0 -0.02567,-0.0047 -0.03502,-0.01402 -0.0093,-0.0093 -0.01402,-0.021 -0.01402,-0.03502 0,-0.0094 0.0047,-0.01881 0.01402,-0.0281 z"
         inkscape:connector-curvature="0" />
      <path
         style="stroke-width:0.0563027"
         id="path1831-6"
         d="m 28.278162,26.267246 v -1.345972 c 0,-0.121502 -0.04437,-0.226675 -0.133156,-0.315465 -0.08885,-0.08879 -0.193963,-0.133212 -0.31552,-0.133212 h -3.14051 c -0.126174,0 -0.233656,0.04442 -0.322502,0.133212 -0.08417,0.08879 -0.126174,0.193907 -0.126174,0.315465 v 1.345972 c -0.126174,0 -0.233656,0.04437 -0.322502,0.133213 -0.08406,0.08879 -0.126174,0.193906 -0.126174,0.315407 v 0.448677 c 0,0.126174 0.04211,0.233656 0.126174,0.322502 0.08885,0.08412 0.196328,0.126174 0.322502,0.126174 v 1.345973 c 0,0.126174 0.04206,0.233656 0.126174,0.322502 0.08885,0.08406 0.196328,0.126174 0.322502,0.126174 h 3.14051 c 0.121501,0 0.226618,-0.04211 0.31552,-0.126174 0.08879,-0.08879 0.133156,-0.196271 0.133156,-0.322502 v -1.346029 c 0.121501,0 0.226619,-0.04206 0.315464,-0.126175 0.08879,-0.08879 0.133212,-0.196271 0.133212,-0.322502 V 26.71581 c 0,-0.121501 -0.04442,-0.226618 -0.133212,-0.315408 -0.08879,-0.08879 -0.193963,-0.133156 -0.315464,-0.133156 z m -0.22431,2.467523 h -0.22431 v 0.224367 h -0.224366 v 0.22431 h -2.69189 v -0.22431 H 24.689033 V 28.734769 H 24.46461 V 25.36995 c 0.06075,0 0.112211,-0.02106 0.154213,-0.06311 0.04673,-0.04206 0.07015,-0.09583 0.07015,-0.161251 v -0.22431 c 0,0.126174 0.04206,0.233656 0.126175,0.322502 0.08873,0.08406 0.196215,0.126174 0.322445,0.126174 v -0.448676 c 0,0.126174 0.04206,0.233656 0.126175,0.322502 0.08885,0.08406 0.196327,0.126174 0.322502,0.126174 v -0.448676 c 0,0.126174 0.04206,0.233656 0.126174,0.322502 0.08873,0.08406 0.196215,0.126174 0.322446,0.126174 v -0.448676 c 0,0.126174 0.04211,0.233656 0.126174,0.322502 0.08885,0.08406 0.196328,0.126174 0.322502,0.126174 v -0.448676 c 0,0.126174 0.04206,0.233656 0.126175,0.322502 0.08873,0.08406 0.196271,0.126174 0.322445,0.126174 v -0.448676 c 0,0.126174 0.04211,0.233656 0.126175,0.322502 0.08879,0.08406 0.196327,0.126174 0.322502,0.126174 v -0.448676 c 0,0.126174 0.04206,0.233656 0.12623,0.322502 0.08873,0.08406 0.196215,0.126174 0.322446,0.126174 v -0.224366 c 0,0.06542 0.02106,0.119192 0.06311,0.161251 0.042,0.04211 0.09577,0.06311 0.161195,0.06311 z"
         inkscape:connector-curvature="0" />
      <polygon
         transform="matrix(0.05328257,-0.01819241,0.01819241,0.05328257,23.112825,25.584112)"
         id="polygon1833-2"
         points="52.739,34.796 64.691,34.796 76.645,34.796 76.645,30.811 52.739,30.811 " />
      <path
         style="stroke-width:0.0563027"
         id="path1835-9"
         d="m 27.254691,28.187957 c -0.08885,-0.08412 -0.196327,-0.126174 -0.322502,-0.126174 h -1.345916 c -0.121502,0 -0.226675,0.04206 -0.315521,0.126174 -0.08884,0.08879 -0.133156,0.196271 -0.133156,0.322502 h 2.24327 c 0,-0.126231 -0.04206,-0.233713 -0.126175,-0.322502 z"
         inkscape:connector-curvature="0" />
      <path
         style="stroke-width:0.0563027"
         id="path1837-1"
         d="m 26.098008,27.325794 c 0.04206,0.04206 0.09577,0.06312 0.161251,0.06312 0.06075,0 0.112155,-0.02106 0.154213,-0.06312 0.04673,-0.04206 0.0701,-0.09583 0.0701,-0.161251 h -0.448676 c 0,0.06542 0.02106,0.119193 0.06311,0.161251 z"
         inkscape:connector-curvature="0" />
      <polygon
         transform="matrix(0.05311923,0.01866395,-0.01866395,0.05311923,24.230937,23.800062)"
         id="polygon1839-2"
         points="44.77,34.796 44.77,30.811 20.865,30.811 20.865,34.796 32.817,34.796 " />
      <path
         style="stroke-width:0.0563027"
         id="path1841-7"
         d="m 25.137596,26.491556 c 0,0.06542 0.02106,0.119193 0.06312,0.161195 0.04206,0.04206 0.09577,0.06306 0.161194,0.06306 0.06075,0 0.112212,-0.021 0.154214,-0.06306 0.04673,-0.04206 0.07015,-0.09583 0.07015,-0.161195 0,-0.06081 -0.02342,-0.112155 -0.07015,-0.154269 -0.04206,-0.04673 -0.09346,-0.0701 -0.154214,-0.0701 -0.06542,0 -0.119192,0.02337 -0.161194,0.0701 -0.04206,0.04211 -0.06312,0.09352 -0.06312,0.154269 z m 0.18929,-0.02804 c 0.0093,-0.0093 0.02106,-0.01402 0.03502,-0.01402 0.0093,0 0.01869,0.0047 0.02804,0.01402 0.0093,0.0093 0.01402,0.01875 0.01402,0.0281 0,0.01402 -0.0047,0.02573 -0.01402,0.03502 -0.0093,0.0093 -0.01869,0.01402 -0.02804,0.01402 -0.01402,0 -0.02567,-0.0047 -0.03502,-0.01402 -0.0093,-0.0093 -0.01402,-0.021 -0.01402,-0.03502 0,-0.0094 0.0047,-0.01881 0.01402,-0.0281 z"
         inkscape:connector-curvature="0" />
      <path
         inkscape:connector-curvature="0"
         id="path1955"
         d="m 24.409887,27.552716 c 0,0 0.112212,0.885882 0.448847,1.128023 0.336635,0.242141 0.797293,0.413412 1.606399,0.360259 0.809105,-0.05315 1.210705,-0.360259 1.423316,-0.626023 0.212612,-0.265765 0.307106,-0.962658 0.307106,-0.962658 l -0.08859,1.588681 -0.501791,0.142448 -2.711007,0.123316 -0.549247,-0.543341 0.03544,-1.257951"
         style="fill:#000000;fill-rule:evenodd;stroke:none;stroke-width:0.264583px;stroke-linecap:butt;stroke-linejoin:miter;stroke-opacity:1" />
      <path
         inkscape:connector-curvature="0"
         id="path1957"
         d="m 25.920968,28.623196 0.28815,0.300679 0.354968,-0.321559 z"
         style="fill:#000000;fill-rule:evenodd;stroke:none;stroke-width:0.264583px;stroke-linecap:butt;stroke-linejoin:miter;stroke-opacity:1" />
      <path
         sodipodi:nodetypes="csccccsc"
         inkscape:connector-curvature="0"
         id="path1979"
         d="m 24.53391,28.544848 c 0,0 0.423299,-0.556587 1.73074,-0.539882 0.614162,0.0078 0.985964,-0.02708 1.269446,0.220964 0.283483,0.248047 0.295446,0.733206 0.295446,0.733206 l 0.377824,-0.721394 -0.03543,0.03543 c 0,0 -0.189232,-0.685536 -1.898527,-0.723016 -1.726605,-0.03786 -2.034787,0.864757 -2.034787,0.864757"
         style="fill:#000000;fill-rule:evenodd;stroke:none;stroke-width:0.264583px;stroke-linecap:butt;stroke-linejoin:miter;stroke-opacity:1" />
      <path
         inkscape:connector-curvature="0"
         id="path1981"
         d="m 24.372422,24.759741 0.01592,1.136471 0.492778,-0.676526 0.409256,0.467722 0.125283,-0.225509 0.30903,0.233861 0.141987,-0.334087 0.417609,0.626413 0.317382,-0.492779 0.208805,0.05847 0.121711,-0.183818 0.162263,0.250635 0.286414,-0.250635 c 0,0 0.01426,0.183818 -0.01915,0.3091 -0.03341,0.125283 0.467821,-0.3091 0.467821,-0.3091 l 0.07507,0.375918 0.200452,-0.141987 0.04176,0.07517 0.0091,-0.919314 h -3.783534"
         style="fill:#000000;fill-rule:evenodd;stroke:none;stroke-width:0.264583px;stroke-linecap:butt;stroke-linejoin:miter;stroke-opacity:1" />
      <path
         inkscape:connector-curvature="0"
         id="path1983"
         d="m 24.46461,25.36995 c 0,0 -0.06063,1.013403 -0.03701,1.367755 0.02362,0.354353 0.200799,0.838635 0.248046,0.897694 0.04725,0.05906 0.177177,0.188988 0.177177,0.188988 l 2.598586,0.03543 0.129929,0.02362 c 0,0 0.425224,-0.472471 0.472471,-0.637835 0.04725,-0.165365 0.05906,-0.307106 0.05906,-0.307106 l 0.05906,1.334667 -1.133933,-0.425162 -1.570964,0.02362 -0.992187,0.437035 -0.06496,-0.755953 -0.169587,-1.28547"
         style="fill:#000000;fill-rule:evenodd;stroke:none;stroke-width:0.264583px;stroke-linecap:butt;stroke-linejoin:miter;stroke-opacity:1" />
      <path
         inkscape:connector-curvature="0"
         id="path1985"
         d="m 24.852823,27.824387 0.06046,1.134749 2.278268,0.14092 0.413621,-0.14092 -0.02384,-1.075699 0.590591,0.389726 -0.342387,0.685973 c 0,0 -0.968716,0.329909 -1.051398,0.329909 -0.08268,0 -2.137928,-0.01181 -2.137928,-0.01181 l -0.16537,-0.968578"
         style="fill:#000000;fill-rule:evenodd;stroke:none;stroke-width:0.264583px;stroke-linecap:butt;stroke-linejoin:miter;stroke-opacity:1" />
    </g>
  </g>
</svg>
