<?xml version="1.0" encoding="UTF-8" standalone="no"?>
<svg
   xmlns:dc="http://purl.org/dc/elements/1.1/"
   xmlns:cc="http://creativecommons.org/ns#"
   xmlns:rdf="http://www.w3.org/1999/02/22-rdf-syntax-ns#"
   xmlns:svg="http://www.w3.org/2000/svg"
   xmlns="http://www.w3.org/2000/svg"
   xmlns:sodipodi="http://sodipodi.sourceforge.net/DTD/sodipodi-0.dtd"
   xmlns:inkscape="http://www.inkscape.org/namespaces/inkscape"
   width="20"
   height="20"
   viewBox="0 0 20 20"
   version="1.1"
   id="svg838"
   inkscape:version="1.0.1 (3bc2e813f5, 2020-09-07)"
   sodipodi:docname="tail_werewolf.svg">
  <defs
     id="defs832" />
  <sodipodi:namedview
     id="base"
     pagecolor="#ffffff"
     bordercolor="#666666"
     borderopacity="1.0"
     inkscape:pageopacity="0.0"
     inkscape:pageshadow="2"
     inkscape:zoom="22.4"
     inkscape:cx="9.0218371"
     inkscape:cy="9.5438805"
     inkscape:document-units="mm"
     inkscape:current-layer="g1137"
     inkscape:document-rotation="0"
     showgrid="false"
     units="px"
     inkscape:window-width="1271"
     inkscape:window-height="1040"
     inkscape:window-x="8"
     inkscape:window-y="120"
     inkscape:window-maximized="0"
     inkscape:pagecheckerboard="true" />
  <metadata
     id="metadata835">
    <rdf:RDF>
      <cc:Work
         rdf:about="">
        <dc:format>image/svg+xml</dc:format>
        <dc:type
           rdf:resource="http://purl.org/dc/dcmitype/StillImage" />
        <dc:title />
      </cc:Work>
    </rdf:RDF>
  </metadata>
  <g
     inkscape:label="Layer 1"
     inkscape:groupmode="layer"
     id="layer1">
    <g
       id="g4908"
       transform="matrix(0.2291461,0,0,0.2291461,0.57108022,0.01388097)"
       style="fill:#ac9393;fill-opacity:1">
      <g
         id="g1137"
         transform="matrix(0.83562286,0,0,0.83562286,6.7638022,7.1635071)">
        <g
           id="g836"
           transform="matrix(0.89392589,0,0,0.89392589,-0.06503975,7.4204405)">
          <path
             style="fill:#ac9393;fill-opacity:1"
             d="M 82.296,0.193 C 77.572,3.144 74.031,5.506 70.785,10.228 63.995,20.263 68.424,34.726 68.127,46.237 67.832,60.994 56.321,76.931 42.155,80.768 35.957,82.244 29.168,83.129 22.676,84.015 18.248,84.901 6.147,88.442 3.787,86.67 0.835,84.605 -1.231,77.816 0.835,75.75 3.787,73.094 9.395,72.799 12.641,69.257 18.248,63.65 21.2,56.566 23.266,48.892 27.988,33.544 26.513,15.246 41.86,5.211 53.667,-2.463 69.014,0.784 82.296,0.193"
             id="path4906" />
          <path
             style="fill:#d3c5c5;fill-opacity:1"
             d="m 38.536,12.618 c -0.159,0.139 0.806,0.713 2.418,1.529 -1.488,2.149 -3.111,5.04 -4.742,8.929 2.165,-1.296 3.839,-2.243 6.287,-2.611 0.734,-0.105 1.446,-0.099 2.141,-0.013 -0.307,1.616 -0.555,3.455 -0.711,5.554 1.283,-1.307 2.359,-2.356 3.803,-3.192 0.468,1.8 0.817,3.099 0.817,3.099 0.618,-0.608 1.271,-1.152 1.949,-1.647 0.25,0.595 0.465,1.202 0.594,1.839 0.505,2.584 0.169,4.425 -0.341,6.812 6.082,-3.911 8.746,-7.446 9.911,-9.89 1.323,0.569 2.141,0.917 2.141,0.917 -0.212,-3.676 0.189,-7.24 1.791,-10.518 C 66.856,8.87 69.676,6.353 73.461,3.169 44.828,2.657 38.536,12.618 38.536,12.618 Z"
             id="path1133" />
        </g>
      </g>
    </g>
  </g>
</svg>
