<?xml version="1.0" encoding="UTF-8" standalone="no"?>
<svg
   xmlns:dc="http://purl.org/dc/elements/1.1/"
   xmlns:cc="http://creativecommons.org/ns#"
   xmlns:rdf="http://www.w3.org/1999/02/22-rdf-syntax-ns#"
   xmlns:svg="http://www.w3.org/2000/svg"
   xmlns="http://www.w3.org/2000/svg"
   xmlns:sodipodi="http://sodipodi.sourceforge.net/DTD/sodipodi-0.dtd"
   xmlns:inkscape="http://www.inkscape.org/namespaces/inkscape"
   width="20"
   height="20"
   viewBox="0 0 20 20"
   version="1.1"
   id="svg838"
   inkscape:version="1.0.1 (3bc2e813f5, 2020-09-07)"
   sodipodi:docname="tail_dragonkin.svg">
  <defs
     id="defs832" />
  <sodipodi:namedview
     id="base"
     pagecolor="#ffffff"
     bordercolor="#666666"
     borderopacity="1.0"
     inkscape:pageopacity="0.0"
     inkscape:pageshadow="2"
     inkscape:zoom="11.2"
     inkscape:cx="0.2014099"
     inkscape:cy="3.2839716"
     inkscape:document-units="mm"
     inkscape:current-layer="layer1"
     inkscape:document-rotation="0"
     showgrid="false"
     units="px"
     inkscape:window-width="1364"
     inkscape:window-height="1040"
     inkscape:window-x="52"
     inkscape:window-y="0"
     inkscape:window-maximized="0"
     inkscape:pagecheckerboard="true" />
  <metadata
     id="metadata835">
    <rdf:RDF>
      <cc:Work
         rdf:about="">
        <dc:format>image/svg+xml</dc:format>
        <dc:type
           rdf:resource="http://purl.org/dc/dcmitype/StillImage" />
        <dc:title />
      </cc:Work>
    </rdf:RDF>
  </metadata>
  <g
     inkscape:label="Layer 1"
     inkscape:groupmode="layer"
     id="layer1">
    <path
       inkscape:connector-curvature="0"
       d="m 5.4479213,-10.310127 c 0,0 -2.6377268,-2.307409 -4.64085592,-2.297306 l 0.81035382,1.603214 c 0,0 -4.0159124,-0.933111 -5.6961719,-0.320246 l 0.5782454,1.005971 -3.8517634,1.4650097 C -3.4988061,-25.002713 -20.698921,-22.690371 -25.305796,-18.19288 c 0,0 8.727637,-0.233052 6.865181,3.508751 1.297418,-0.331994 4.252413,0.409857 2.896692,3.565704 0,0 4.771176,-0.492176 4.507043,5.6995309 0,0 -1.568076,-3.0534603 -3.319668,-3.7290551 -3.935059,-2.1147498 -10.658207,-0.115703 -11.777337,7.1743004 0,0 2.627276,-3.3529252 5.294514,-1.6290658 0,0 2.809836,-2.2425079 4.483143,0.4650389 1.126024,-0.7382122 2.127785,-1.0567781 3.222399,0.2468412 0,0 -3.359339,3.41982028 -3.383005,6.8482842 l 2.332763,-1.7972224 c 0,0 -1.54326,5.8023719 0.382785,9.5913207 l 1.308074,-1.7723051 c 0,0 -0.219592,4.3510571 3.6232271,6.1272641 l -0.04333,-2.787208 c 0,0 1.6095129,4.970289 6.530523,5.202437 -1.5074261,-0.906908 -1.303566,-1.443077 -1.4094964,-2.241472 0,0 3.91384354,4.20417 10.9324634,1.375717 L 5.4471468,17.370946 c 0,0 4.7303172,-2.220053 6.1871262,-4.949638 l 0.275411,2.22009 c 1.217432,-2.54922 1.950028,-5.3026655 2.160406,-8.1198263 L 16.006717,9.3669111 14.557615,2.5859625 9.9414273,7.9014749 13.327974,6.2621875 C 12.684105,8.1613303 12.20719,9.2832458 9.6326606,11.276426 l 0.9360854,0.42192 c -1.3482454,0.676266 -4.639085,2.484155 -7.2921138,1.478818 l 0.9883933,1.714457 C 2.9691968,15.999505 -2.3070502,14.081819 -3.4682778,9.6725395 l 2.1558373,0.4250305 c 0,0 -2.6152838,-2.9242381 -1.6608163,-5.0240217 l 1.4460401,-8.4148497 c 0,0 1.17284757,-4.5697886 6.345364,-1.6247343 z"
       id="path5006"
       style="fill:#c83737;fill-opacity:1;stroke-width:0.486601"
       sodipodi:nodetypes="cccccccccccccccccccccccccccccccccccccccccc" />
  </g>
</svg>
