<?xml version="1.0" encoding="UTF-8" standalone="no"?>
<svg
   xmlns:dc="http://purl.org/dc/elements/1.1/"
   xmlns:cc="http://creativecommons.org/ns#"
   xmlns:rdf="http://www.w3.org/1999/02/22-rdf-syntax-ns#"
   xmlns:svg="http://www.w3.org/2000/svg"
   xmlns="http://www.w3.org/2000/svg"
   xmlns:sodipodi="http://sodipodi.sourceforge.net/DTD/sodipodi-0.dtd"
   xmlns:inkscape="http://www.inkscape.org/namespaces/inkscape"
   width="20"
   height="20"
   viewBox="0 0 20 20"
   version="1.1"
   id="svg838"
   inkscape:version="1.0.1 (3bc2e813f5, 2020-09-07)"
   sodipodi:docname="training_mindbreak.svg">
  <defs
     id="defs832" />
  <sodipodi:namedview
     id="base"
     pagecolor="#ffffff"
     bordercolor="#666666"
     borderopacity="1.0"
     inkscape:pageopacity="0.0"
     inkscape:pageshadow="2"
     inkscape:zoom="11.2"
     inkscape:cx="15.665632"
     inkscape:cy="-10.695634"
     inkscape:document-units="mm"
     inkscape:current-layer="layer1"
     inkscape:document-rotation="0"
     showgrid="false"
     units="px"
     inkscape:window-width="1319"
     inkscape:window-height="1040"
     inkscape:window-x="75"
     inkscape:window-y="0"
     inkscape:window-maximized="0"
     inkscape:pagecheckerboard="true" />
  <metadata
     id="metadata835">
    <rdf:RDF>
      <cc:Work
         rdf:about="">
        <dc:format>image/svg+xml</dc:format>
        <dc:type
           rdf:resource="http://purl.org/dc/dcmitype/StillImage" />
        <dc:title />
      </cc:Work>
    </rdf:RDF>
  </metadata>
  <g
     inkscape:label="Layer 1"
     inkscape:groupmode="layer"
     id="layer1">
    <path
       d="m 3.9440636,7.5053801 c -0.010357,1.8006254 1.1656883,2.8655899 1.9714175,4.1358059 0.8107892,1.278192 0.9395352,2.544891 0.453739,4.506096 1.6490227,1.113414 3.6964629,0.940124 5.4292209,1.429018 0.08047,-1.000694 -0.06617,-2.053992 0.297278,-2.419942 0.527871,-0.531491 1.535964,0.697318 2.185248,-0.130384 0.574422,-0.732269 -0.340676,-0.902567 0.505893,-1.835818 0.203959,-0.224843 -0.389798,-0.300402 -0.396369,-0.505893 -0.0057,-0.178569 0.45039,0.06616 0.558046,-0.151246 0.112782,-0.227762 -0.237884,-0.635198 -0.04172,-0.881401 0.241094,-0.302594 0.885159,0.290323 1.121309,-0.276416 0.197825,-0.474763 -0.70668,-1.4415933 -1.147387,-2.352141 -0.227806,-0.4706698 0.178723,-0.9622625 0.192969,-1.5072481 0.0777,-2.9723876 -2.351151,-5.0319695 -5.4998425,-5.0906531 -3.1486907,-0.05868 -5.6100963,1.6551467 -5.6298,5.0802223 z M 7.5739752,4.4126542 9.1385923,5.9720552 10.708426,4.4126542 11.808872,5.5183165 10.23904,7.0777181 11.808872,8.6475508 10.708426,9.7532137 9.1385923,8.1833811 7.5739752,9.7532137 6.4683125,8.6475508 8.0329296,7.0777181 6.4683125,5.5183165 Z"
       fill="#000000"
       id="path2"
       style="fill:#ff0000;fill-opacity:1;stroke-width:0.168363" />
  </g>
</svg>
