<svg version="1.1" viewBox="0 0 20 20" xmlns="http://www.w3.org/2000/svg">
 <style/>
 <g>
  <g transform="matrix(1.0901 0 0 1.0901 -6.4428 -17.096)">
   <g transform="matrix(.15587 0 0 .15587 14.386 19.042)">
    <path d="m-52.357-10.372h18.348a1.8348 1.8348 0 0 0 0-3.6695h-18.348a1.8348 1.8348 0 0 0 0 3.6695z" style="stroke-width:.91738"/>
    <path d="m-52.357-3.0332h9.1738a1.8348 1.8348 0 0 0 0-3.6695h-9.1738a1.8348 1.8348 0 0 0 0 3.6695z" style="stroke-width:.91738"/>
    <path d="m-52.357-17.711h9.1738a1.8348 1.8348 0 1 0 0-3.6695h-9.1738a1.8348 1.8348 0 1 0 0 3.6695z" style="stroke-width:.91738"/>
    <path d="m61.398 85.035h-18.348a1.8348 1.8348 0 0 0 0 3.6695h18.348a1.8348 1.8348 0 0 0 0-3.6695z" style="stroke-width:.91738"/>
    <path d="m61.398 77.696h-9.1738a1.8348 1.8348 0 0 0 0 3.6695h9.1738a1.8348 1.8348 0 0 0 0-3.6695z" style="stroke-width:.91738"/>
    <path d="m61.398 92.374h-9.1738a1.8348 1.8348 0 0 0 0 3.6695h9.1738a1.8348 1.8348 0 0 0 0-3.6695z" style="stroke-width:.91738"/>
    <path d="m-5.2404 43.139a2.7521 2.7521 0 0 0-1.2476-0.30274 2.7521 2.7521 0 1 0 2.6145 1.899 2.7521 2.7521 0 0 0-1.3669-1.5962z" style="stroke-width:.91738"/>
    <path d="m-7.0293 65.88a26.604 26.604 0 0 1-13.761 6.4217c2.587 2.11 6.8345 5.0639 10.733 5.4309 1.5045 0.14678 4.22-1.4219 4.3851-2.1558a8.6417 8.6417 0 0 0-0.39447-3.4218 40.823 40.823 0 0 1-0.96325-6.2749z" style="stroke-width:.91738"/>
    <path d="m-30.661 14.993a32.851 32.851 0 0 0-19.146 16.77c-5.0731 10.009-5.7703 22.421-1.9082 34.007 6.0639 18.274 21.843 30.274 37.888 30.274a31.338 31.338 0 0 0 9.6142-1.5045c13.284-4.2658 22.485-17.219 23.448-33.026a1.8348 1.8348 0 0 0-0.06422-0.57795 47.227 47.227 0 0 0-1.2476-13.109 1.8348 1.8348 0 0 0 0-0.5596c-0.29356-1.1834-0.65134-2.3852-1.0366-3.5686-7.3666-21.889-28.668-34.805-47.548-28.705zm14.449 21.237 5.5043-7.3391a1.8348 1.8348 0 1 1 2.9356 2.2017l-5.5043 7.3391a1.8348 1.8348 0 1 1-2.9356-2.2017zm-26.054 8.4858a1.8348 1.8348 0 0 1 0-3.6695l9.1738-0.04587a1.8348 1.8348 0 0 1 0 3.6695zm8.2564 16.513a6.4217 6.4217 0 1 1 6.1098-8.4216 6.4217 6.4217 0 0 1-4.1099 8.1005 6.4217 6.4217 0 0 1-1.9999 0.27521zm31.98 15.091c-0.60547 2.9448-5.0548 5.0915-7.862 5.0915h-0.45869c-7.4308-0.68804-15.1-8.3206-15.421-8.6417h-0.22934c-0.99077 0-1.6146-0.05504-1.743-0.06422a1.8422 1.8422 0 0 1 0.33026-3.6695c0.61465 0.05504 14.944 1.1651 21.705-10.55a1.8348 1.8348 0 0 1 3.1741 1.8348c-0.30274 0.51373-0.61465 1.0091-0.91738 1.4862a36.071 36.071 0 0 0 1.0091 9.4674 11.302 11.302 0 0 1 0.40365 4.9997zm-2.4494-24.586a6.4217 6.4217 0 1 1 4.1099-8.1005 6.4217 6.4217 0 0 1-4.1282 8.0546z" style="stroke-width:.91738"/>
    <path d="m-34.01 52.01a2.7521 2.7521 0 1 0 2.6145 1.899 2.7521 2.7521 0 0 0-2.6145-1.899z" style="stroke-width:.91738"/>
    <path d="m42.133 17.314a2.7521 2.7521 0 1 0 1.6513 3.5227 2.7521 2.7521 0 0 0-1.6513-3.5227z" style="stroke-width:.91738"/>
    <path d="m16.446 8.1405a2.7521 2.7521 0 1 0 1.6696 3.5044 2.7521 2.7521 0 0 0-1.6696-3.5044z" style="stroke-width:.91738"/>
    <path d="m40.95-19.546c-18.586-6.6785-40.19 5.5777-48.144 27.32q-0.7706 2.11-1.3394 4.2475a45.3 45.3 0 0 1 19.265 13.55 1.8348 1.8348 0 0 1 0.47704 0.29356c0.1743 0.15595 11.22 9.6692 23.852 4.8896a1.835 1.835 0 0 1 1.3027 3.431c-0.5596 0.211-1.11 0.39447-1.6605 0.5596a33.182 33.182 0 0 0-5.0548 7.706 10.834 10.834 0 0 1-2.7521 3.9814 5.385 5.385 0 0 1-3.3851 0.99077 10.559 10.559 0 0 1-2.0274-0.211l1.321 13.972a37.108 37.108 0 0 0 22.292-8.0638l0.1743-0.14678q1.0183-0.79812 1.9999-1.6696l0.24769-0.22017a44.511 44.511 0 0 0 3.4952-3.4952 1.8348 1.8348 0 0 0 0.15595-0.211 47.704 47.704 0 0 0 7.5592-11.678 1.8348 1.8348 0 0 0 0.11009-0.18348c0.29356-0.64217 0.56878-1.3027 0.83482-1.9632v-0.10091l0.12843-0.33943c0.13761-0.3486 0.27521-0.69721 0.40365-1.0458 0.05504-0.15596 0.11009-0.32108 0.16513-0.48621 0.13761-0.3853 0.26604-0.76143 0.39447-1.1467 0.12843-0.3853 0.22017-0.69721 0.33026-1.0458s0.14678-0.45869 0.22017-0.68804v-0.1743c2.9815-10.541 2.3026-21.568-1.9999-30.751a32.732 32.732 0 0 0-18.366-17.32zm-19.384 32.457a6.4217 6.4217 0 1 1-3.853-8.2564 6.4217 6.4217 0 0 1 3.853 8.2564zm2.7521-11.174a1.8348 1.8348 0 0 1-2.5687 0.36695l-7.3391-5.5043a1.8348 1.8348 0 0 1 2.2017-2.9356l7.3391 5.5043a1.8348 1.8348 0 0 1 0.3853 2.5687zm22.935 20.348a6.4217 6.4217 0 1 1-0.22017-4.908 6.4217 6.4217 0 0 1 0.22017 4.908zm3.4952-14.109-9.1738 1.8348a1.8348 1.8348 0 0 1-0.72473-3.5961l9.1738-1.8348a1.8348 1.8348 0 0 1 0.72473 3.5961z" style="stroke-width:.91738"/>
    <path d="m20.437 43.065c1.3761 0.65134 3.5961 0.91738 4.1557 0.51373a8.0087 8.0087 0 0 0 1.7705-2.7521 38.154 38.154 0 0 1 2.9264-5.0823c-0.5596 0-1.1192 0.06422-1.6605 0.06422a27.925 27.925 0 0 1-11.568-2.6512 52.116 52.116 0 0 1 4.2108 9.4123c0.06422 0.16513 0.11926 0.33026 0.16513 0.49539z" style="stroke-width:.91738"/>
   </g>
  </g>
 </g>
</svg>
