<?xml version="1.0" encoding="UTF-8" standalone="no"?>
<svg
   xmlns:dc="http://purl.org/dc/elements/1.1/"
   xmlns:cc="http://creativecommons.org/ns#"
   xmlns:rdf="http://www.w3.org/1999/02/22-rdf-syntax-ns#"
   xmlns:svg="http://www.w3.org/2000/svg"
   xmlns="http://www.w3.org/2000/svg"
   xmlns:sodipodi="http://sodipodi.sourceforge.net/DTD/sodipodi-0.dtd"
   xmlns:inkscape="http://www.inkscape.org/namespaces/inkscape"
   width="20"
   height="20"
   viewBox="0 0 20 20"
   version="1.1"
   id="svg838"
   inkscape:version="1.0.1 (3bc2e813f5, 2020-09-07)"
   sodipodi:docname="training_anal_basic.svg">
  <defs
     id="defs832" />
  <sodipodi:namedview
     id="base"
     pagecolor="#ffffff"
     bordercolor="#666666"
     borderopacity="1.0"
     inkscape:pageopacity="0.0"
     inkscape:pageshadow="2"
     inkscape:zoom="22.4"
     inkscape:cx="10.797456"
     inkscape:cy="8.8981649"
     inkscape:document-units="mm"
     inkscape:current-layer="layer1"
     inkscape:document-rotation="0"
     showgrid="false"
     units="px"
     inkscape:window-width="1267"
     inkscape:window-height="1040"
     inkscape:window-x="75"
     inkscape:window-y="5"
     inkscape:window-maximized="0"
     inkscape:pagecheckerboard="true" />
  <metadata
     id="metadata835">
    <rdf:RDF>
      <cc:Work
         rdf:about="">
        <dc:format>image/svg+xml</dc:format>
        <dc:type
           rdf:resource="http://purl.org/dc/dcmitype/StillImage" />
        <dc:title></dc:title>
      </cc:Work>
    </rdf:RDF>
  </metadata>
  <g
     inkscape:label="Layer 1"
     inkscape:groupmode="layer"
     id="layer1">
    <g
       id="g7595"
       transform="matrix(0.10538052,0,0,0.10538052,0.77656387,-3.4828828)"
       style="fill:#000000">
      <circle
         cx="48.849998"
         cy="22.5"
         r="22.5"
         id="circle7581"
         style="fill:#000000" />
      <path
         inkscape:connector-curvature="0"
         d="m 6.881,63.881 c -6.805,20.174 -8.267,33.305 -5.681,55.52 2.109,10.853 7.811,15.137 14.11,16.744 4.511,14.961 11.035,47.286 -2.031,82.565 -2.398,6.474 0.906,13.666 7.38,16.063 1.432,0.53 2.897,0.782 4.34,0.782 5.08,0 9.856,-3.12 11.723,-8.162 17.947,-48.456 5.455,-91.285 0.226,-105.457 C 35.937,114.345 36.321,106.195 37.3,98.254 23.91,82.875 18.289,69.886 17.906,68.978 15.721,63.795 18.16,57.801 23.343,55.616 c 1.264,-0.533 2.596,-0.803 3.958,-0.803 4.104,0 7.791,2.44 9.394,6.217 0.046,0.105 1.764,3.976 5.528,9.821 0.008,-0.042 0.017,-0.086 0.025,-0.128 2.869,-9.953 -0.885,-21.865 -9.42,-23.992 -8.537,-2.129 -20.912,2.508 -25.947,17.15 z"
         id="path7583"
         style="fill:#000000" />
      <circle
         r="22.5"
         transform="matrix(0.2592,-0.9658,0.9658,0.2592,56.6163,143.8021)"
         cx="122.053"
         cy="34.993"
         id="ellipse7585"
         style="fill:#000000" />
      <path
         inkscape:connector-curvature="0"
         d="m 87.769,112.983 c 0.175,0.095 0.336,0.204 0.503,0.308 0.901,-2.739 1.905,-5.457 2.986,-8.128 C 82.312,86.839 80.252,72.836 80.118,71.86 79.351,66.289 83.26,61.131 88.832,60.364 c 0.464,-0.063 0.933,-0.095 1.396,-0.095 5.053,0 9.394,3.776 10.096,8.783 0.017,0.114 0.674,4.299 2.794,10.92 0.018,-0.038 0.039,-0.078 0.057,-0.116 5.351,-8.869 4.814,-21.347 -2.878,-25.614 -7.693,-4.269 -20.847,-2.999 -29.506,9.838 -6.188,9.291 -10.454,17.095 -13.584,25.604 7.674,7.95 17.73,16.31 30.562,23.299 z"
         id="path7587"
         style="fill:#000000" />
      <path
         inkscape:connector-curvature="0"
         d="m 82.883,132.143 c -1.693,0 -3.378,-0.431 -4.872,-1.244 C 67.659,125.26 58.89,118.897 51.5,112.451 c -0.202,1.229 -0.399,2.485 -0.589,3.777 -0.911,12.94 5.297,18.431 12.326,21.282 4.475,15.5 10.249,46.957 -2.434,81.199 -2.398,6.474 0.906,13.666 7.38,16.063 1.432,0.53 2.897,0.782 4.34,0.782 5.08,0 9.856,-3.12 11.723,-8.162 15.023,-40.562 8.717,-77.179 3.196,-96.348 -1.393,0.698 -2.943,1.099 -4.559,1.099 z"
         id="path7589"
         style="fill:#000000" />
      <path
         inkscape:connector-curvature="0"
         d="m 89.132,62.544 c -4.377,0.603 -7.437,4.639 -6.834,9.016 0.225,1.632 5.908,40.352 41.336,74.092 1.549,1.475 3.534,2.207 5.516,2.207 2.113,0 4.223,-0.832 5.794,-2.483 3.047,-3.199 2.924,-8.263 -0.276,-11.31 -31.175,-29.69 -36.466,-64.312 -36.523,-64.708 -0.613,-4.366 -4.64,-7.411 -9.013,-6.814 z"
         id="path7591"
         style="fill:#000000" />
      <path
         inkscape:connector-curvature="0"
         d="m 24.197,57.643 c -4.071,1.716 -5.98,6.408 -4.264,10.479 0.64,1.518 16.166,37.44 59.13,60.843 1.215,0.662 2.526,0.976 3.819,0.976 2.835,0 5.582,-1.51 7.033,-4.175 2.113,-3.88 0.681,-8.739 -3.199,-10.852 C 48.968,94.353 34.87,62.354 34.669,61.89 32.947,57.831 28.262,55.93 24.197,57.643 Z"
         id="path7593"
         style="fill:#000000" />
    </g>
  </g>
</svg>
