<?xml version="1.0" encoding="UTF-8" standalone="no"?>
<svg
   xmlns:dc="http://purl.org/dc/elements/1.1/"
   xmlns:cc="http://creativecommons.org/ns#"
   xmlns:rdf="http://www.w3.org/1999/02/22-rdf-syntax-ns#"
   xmlns:svg="http://www.w3.org/2000/svg"
   xmlns="http://www.w3.org/2000/svg"
   xmlns:sodipodi="http://sodipodi.sourceforge.net/DTD/sodipodi-0.dtd"
   xmlns:inkscape="http://www.inkscape.org/namespaces/inkscape"
   width="20"
   height="20"
   viewBox="0 0 20 20"
   version="1.1"
   id="svg838"
   inkscape:version="1.0.1 (3bc2e813f5, 2020-09-07)"
   sodipodi:docname="training_pet_basic.svg">
  <defs
     id="defs832" />
  <sodipodi:namedview
     id="base"
     pagecolor="#ffffff"
     bordercolor="#666666"
     borderopacity="1.0"
     inkscape:pageopacity="0.0"
     inkscape:pageshadow="2"
     inkscape:zoom="22.4"
     inkscape:cx="10.797456"
     inkscape:cy="8.8981649"
     inkscape:document-units="mm"
     inkscape:current-layer="layer1"
     inkscape:document-rotation="0"
     showgrid="false"
     units="px"
     inkscape:window-width="1267"
     inkscape:window-height="1040"
     inkscape:window-x="75"
     inkscape:window-y="5"
     inkscape:window-maximized="0"
     inkscape:pagecheckerboard="true" />
  <metadata
     id="metadata835">
    <rdf:RDF>
      <cc:Work
         rdf:about="">
        <dc:format>image/svg+xml</dc:format>
        <dc:type
           rdf:resource="http://purl.org/dc/dcmitype/StillImage" />
        <dc:title></dc:title>
      </cc:Work>
    </rdf:RDF>
  </metadata>
  <g
     inkscape:label="Layer 1"
     inkscape:groupmode="layer"
     id="layer1">
    <g
       id="g7715"
       transform="matrix(0.31477277,0,0,0.31477277,-1.9235625,-0.40324002)"
       style="fill:#000000;fill-opacity:1">
      <path
         inkscape:connector-curvature="0"
         d="m 24.2,42.9 c 0.3,0 0.6,-0.2 0.6,-0.5 l 4,-22.1 c 2.1,0 6.7,-0.5 12,-4.2 l -2,-3.3 c -5.3,3.8 -9.7,3.7 -10.5,3.6 -5.2,-4 -10.7,-4.5 -16.1,-0.8 v 0.1 c 0,0 -0.1,0 -0.1,0.1 -0.2,0.1 -6,3.8 -10.7,12.5 -0.5,0.9 -0.2,2.1 0.8,2.6 0.3,0.2 0.6,0.2 0.9,0.2 0.7,0 1.4,-0.4 1.7,-1 2.5,-4.7 5.4,-7.8 7.3,-9.4 l -0.5,20.4 c 0,0.3 0.2,0.6 0.5,0.6 h 0.1 c -0.1,0.2 -0.1,0.5 -0.1,0.7 -0.3,6.9 -1.5,12.7 -3.9,17.8 -0.7,1.5 0,3.2 1.4,3.9 0.4,0.2 0.8,0.3 1.2,0.3 1.1,0 2.2,-0.6 2.6,-1.7 2.7,-5.8 4.1,-12.4 4.4,-20 0,-0.1 0,-0.3 0,-0.4 h 0.1 c 0,0.2 0.1,0.3 0.1,0.5 1.9,5.2 4,12 3.8,18.6 -0.1,1.6 1.2,2.9 2.8,3 0,0 0.1,0 0.1,0 1.6,0 2.9,-1.2 2.9,-2.8 C 27.8,54.9 26,48.3 24.2,42.9 Z"
         id="path7705"
         style="fill:#000000;fill-opacity:1" />
      <circle
         cx="21.6"
         cy="7.0999999"
         r="5.4000001"
         id="circle7707"
         style="fill:#000000;fill-opacity:1" />
      <path
         inkscape:connector-curvature="0"
         d="m 42.4,12.4 c -0.3,-0.3 -0.6,-0.5 -1,-0.6 l 1.3,2.2 c 0.2,-0.6 0.1,-1.2 -0.3,-1.6 z"
         id="path7709"
         style="fill:#000000;fill-opacity:1" />
      <path
         inkscape:connector-curvature="0"
         d="m 42.7,17.4 c 0.1,0.1 0.2,0.2 0.4,0.2 0.1,0 0.2,0 0.3,-0.1 0.2,-0.1 0.3,-0.4 0.2,-0.7 L 39.1,9.6 C 39,9.4 38.7,9.3 38.4,9.4 38.2,9.5 38.1,9.8 38.2,10.1 Z"
         id="path7711"
         style="fill:#000000;fill-opacity:1" />
      <path
         inkscape:connector-curvature="0"
         d="M 62.6,31.5 C 65.3,31.4 65,29.6 65,29.6 l -1.1,-0.3 0.3,-1.2 c -1.7,-0.4 -4.2,2.1 -4.2,2.1 -2.1,-1.4 -3.8,-0.4 -3.8,-0.4 -0.7,0 -2.7,-0.5 -3.6,-0.8 -0.4,0 -0.6,0.2 -0.6,0.4 -0.6,3.8 3.8,4.5 3.8,4.5 1.8,0.6 1,4.6 1,4.6 C 56,43.6 44.7,41.8 40.2,42 38.4,42 37.6,41.1 35.8,40.2 35,39.7 34.5,40 30.3,39.8 c -0.4,0 -0.6,0.4 -0.3,0.7 l 0.1,0.2 c 0.2,0.2 0.1,0.5 -0.1,0.6 l -0.8,0.5 c -0.3,0.2 -0.2,0.7 0.1,0.8 l 1.5,0.3 c 0.2,0 0.4,0.2 0.3,0.5 0,0.3 0.2,0.5 0.5,0.5 2.9,-0.2 3.8,-0.8 4.9,-0.1 0.7,0.4 1.6,1 1.6,1 0.1,0.1 3.6,-1.6 3.6,-1.6 -2.2,1 -3.7,5.2 -4.3,7.4 -0.2,0.7 -0.6,1.2 -1.2,1.6 -5.3,3.3 -4.3,8.6 -4.5,9.3 h 1.6 C 33.3,61.3 33.2,61 33,60.8 32.7,60.5 32.7,60 32.9,59.6 l 2.2,-3.7 c 1.1,-1.6 2.2,-0.5 2.2,-0.5 -2.5,3.2 -1.5,5.9 -1.5,5.9 1.8,0.2 1.6,-0.3 1.3,-0.7 -0.2,-0.2 -0.2,-0.5 -0.1,-0.8 l 2.4,-4.3 c 0.2,-0.4 0.7,-0.7 1.2,-0.7 0.4,-0.1 2.1,0.4 3.3,-1.2 0.7,-0.7 2.1,-4.4 5.2,-3.2 1,0.4 2.3,0.7 3.5,0.8 1.4,0.2 2.5,1.5 2.5,2.9 L 55,58.8 c 0.5,2.9 2.3,2.6 2.3,2.6 2.1,-0.5 0.1,-1.8 0.1,-1.8 V 58 c -0.5,-3.8 0.9,-5.7 0.9,-5.7 0.3,2.8 2.3,8.8 2.3,8.8 1,0.9 2.3,0.1 2.3,0.1 1.5,-0.8 -0.6,-1.4 -0.9,-2.1 -0.9,-2 -1.7,-7.3 -0.1,-10.4 l 0.4,-0.8 c 2,-3.9 1.5,-7.6 -0.1,-16 0,-0.2 0.2,-0.4 0.4,-0.4 z"
         id="path7713"
         style="fill:#000000;fill-opacity:1" />
    </g>
  </g>
</svg>
