<?xml version="1.0" encoding="UTF-8" standalone="no"?>
<svg
   xmlns:dc="http://purl.org/dc/elements/1.1/"
   xmlns:cc="http://creativecommons.org/ns#"
   xmlns:rdf="http://www.w3.org/1999/02/22-rdf-syntax-ns#"
   xmlns:svg="http://www.w3.org/2000/svg"
   xmlns="http://www.w3.org/2000/svg"
   xmlns:sodipodi="http://sodipodi.sourceforge.net/DTD/sodipodi-0.dtd"
   xmlns:inkscape="http://www.inkscape.org/namespaces/inkscape"
   width="20"
   height="20"
   viewBox="0 0 20 20"
   version="1.1"
   id="svg838"
   inkscape:version="1.0.1 (3bc2e813f5, 2020-09-07)"
   sodipodi:docname="training_pony_basic.svg">
  <defs
     id="defs832" />
  <sodipodi:namedview
     id="base"
     pagecolor="#ffffff"
     bordercolor="#666666"
     borderopacity="1.0"
     inkscape:pageopacity="0.0"
     inkscape:pageshadow="2"
     inkscape:zoom="22.4"
     inkscape:cx="10.797456"
     inkscape:cy="8.8981649"
     inkscape:document-units="mm"
     inkscape:current-layer="layer1"
     inkscape:document-rotation="0"
     showgrid="false"
     units="px"
     inkscape:window-width="1267"
     inkscape:window-height="1040"
     inkscape:window-x="75"
     inkscape:window-y="5"
     inkscape:window-maximized="0"
     inkscape:pagecheckerboard="true" />
  <metadata
     id="metadata835">
    <rdf:RDF>
      <cc:Work
         rdf:about="">
        <dc:format>image/svg+xml</dc:format>
        <dc:type
           rdf:resource="http://purl.org/dc/dcmitype/StillImage" />
        <dc:title></dc:title>
      </cc:Work>
    </rdf:RDF>
  </metadata>
  <g
     inkscape:label="Layer 1"
     inkscape:groupmode="layer"
     id="layer1">
    <g
       style="clip-rule:evenodd;fill:#000000;fill-rule:evenodd;image-rendering:optimizeQuality;shape-rendering:geometricPrecision;text-rendering:geometricPrecision"
       id="g7753"
       transform="matrix(0.03202462,0,0,0.03202462,-2.2622747,1.9712916)">
      <path
         style="fill:#000000"
         inkscape:connector-curvature="0"
         class="fil0"
         d="m 430,359 c 36,-19 35,-65 31,-99 18,-3 37,-28 57,-47 3,1 4,1 4,2 0,3 3,5 6,5 4,1 11,2 15,1 2,-1 2,-2 1,-3 -3,-4 -4,3 -6,0 -2,-2 -3,-4 0,-6 2,-1 4,-1 6,1 4,5 5,2 8,7 3,4 8,5 13,3 0,0 1,-1 1,-1 0,-3 -1,-4 -1,-6 -4,-9 -9,-12 -5,-19 1,-4 1,-8 -1,-11 -9,-14 -18,-15 -24,-24 -1,-1 -3,-9 -4,-10 -3,-4 -7,-7 -8,-13 -1,-8 -4,-13 -12,-17 -11,-7 -19,-12 -30,-18 -13,-7 -19,-2 -21,-18 -1,0 -1,-1 -2,0 -8,13 -5,12 -1,25 0,1 -1,1 -2,0 -3,-2 -3,-2 -6,-5 -1,-2 -2,-1 -1,0 0,2 2,5 2,7 0,0 -1,1 -2,1 -4,-1 -5,-7 -5,-10 1,-5 -10,24 -21,23 -13,11 -24,23 -34,35 -2,-6 -3,-11 -4,-16 1,-3 1,-6 0,-10 -3,-6 -9,-10 -15,-10 -2,0 -4,0 -6,1 l -43,15 -14,-32 c 0,0 0,0 0,0 2,-6 2,-14 -1,-21 -3,-6 -8,-11 -15,-14 l -3,-1 c -14,-5 -29,1 -34,15 -11,23 -28,61 -47,102 -6,13 0,27 12,33 l 51,23 -39,60 c -7,11 -4,26 7,34 4,2 9,4 13,4 8,0 16,-4 20,-11 l 55,-84 c 4,-6 10,-26 -9,-34 -12,-6 -42,-20 -42,-20 l 16,-43 c 8,18 10,26 20,26 9,0 25,-7 57,-20 0,1 1,1 1,1 1,7 4,14 7,21 -7,11 -13,22 -18,34 -3,4 -5,7 -6,10 h -4 c 3,12 1,25 -6,36 l -54,83 c -8,13 -22,20 -37,20 -8,0 -17,-3 -24,-7 -20,-13 -26,-41 -12,-61 l 27,-41 -31,-14 c -8,-3 -14,-9 -19,-16 h -18 c -19,0 -36,7 -49,19 -19,-13 -95,-41 -122,16 -15,45 53,73 13,108 -5,5 -1,8 5,6 20,-6 43,-25 40,-77 6,-40 31,-35 47,-34 -6,12 -10,24 -10,38 0,21 8,40 22,54 l -30,47 c -3,3 -4,7 -4,12 l 7,113 c 0,6 5,12 11,13 8,2 15,-3 17,-11 l 14,-63 22,64 c 2,6 8,11 14,10 8,0 14,-6 14,-14 l -5,-100 33,-49 h 108 l 22,45 1,101 c -1,7 3,14 9,16 8,3 17,-1 20,-8 l 18,-81 37,79 c 1,7 8,12 15,11 8,0 14,-7 14,-15 z m 67,-218 c 2,0 3,1 3,3 0,1 -1,3 -3,3 -1,0 -2,-2 -2,-3 0,-2 1,-3 2,-3 z M 308,73 c 21,0 37,-17 37,-37 0,-20 -16,-36 -37,-36 -20,0 -36,16 -36,36 0,20 16,37 36,37 z m 153,166 c -1,-24 -4,-45 16,-47 5,-1 11,-2 16,-3 1,0 2,1 2,1 2,6 5,9 10,11 -16,17 -30,32 -44,38 z m 36,-99 c 5,2 9,4 9,6 0,2 -4,3 -9,1 -5,-1 -9,-3 -9,-6 0,-1 4,-2 9,-1 z"
         id="path7751" />
    </g>
  </g>
</svg>
