<?xml version="1.0" encoding="UTF-8" standalone="no"?>
<svg
   xmlns:dc="http://purl.org/dc/elements/1.1/"
   xmlns:cc="http://creativecommons.org/ns#"
   xmlns:rdf="http://www.w3.org/1999/02/22-rdf-syntax-ns#"
   xmlns:svg="http://www.w3.org/2000/svg"
   xmlns="http://www.w3.org/2000/svg"
   xmlns:sodipodi="http://sodipodi.sourceforge.net/DTD/sodipodi-0.dtd"
   xmlns:inkscape="http://www.inkscape.org/namespaces/inkscape"
   width="20"
   height="20"
   viewBox="0 0 20 20"
   version="1.1"
   id="svg838"
   inkscape:version="1.0.1 (3bc2e813f5, 2020-09-07)"
   sodipodi:docname="training_dominance_basic.svg">
  <defs
     id="defs832" />
  <sodipodi:namedview
     id="base"
     pagecolor="#ffffff"
     bordercolor="#666666"
     borderopacity="1.0"
     inkscape:pageopacity="0.0"
     inkscape:pageshadow="2"
     inkscape:zoom="11.2"
     inkscape:cx="14.963586"
     inkscape:cy="13.442575"
     inkscape:document-units="mm"
     inkscape:current-layer="layer1"
     inkscape:document-rotation="0"
     showgrid="false"
     units="px"
     inkscape:window-width="1267"
     inkscape:window-height="1040"
     inkscape:window-x="75"
     inkscape:window-y="0"
     inkscape:window-maximized="0"
     inkscape:pagecheckerboard="true" />
  <metadata
     id="metadata835">
    <rdf:RDF>
      <cc:Work
         rdf:about="">
        <dc:format>image/svg+xml</dc:format>
        <dc:type
           rdf:resource="http://purl.org/dc/dcmitype/StillImage" />
        <dc:title />
      </cc:Work>
    </rdf:RDF>
  </metadata>
  <g
     inkscape:label="Layer 1"
     inkscape:groupmode="layer"
     id="layer1">
    <g
       id="g903"
       transform="matrix(-0.19470108,0,0,0.19470108,19.732341,0.25521103)">
      <g
         id="g20">
        <path
           d="M 56.3,81.6 46.6,79.8 43.4,66.3 C 43.1,64.5 41.7,63 39.9,62.6 38.3,62.3 24.3,59.3 16.1,60.3 c -2.1,0.3 -3.9,1.5 -4.8,3.4 -1,1.9 -0.9,4.1 0.1,5.9 l 6,10.7 H 7 c -2.5,0 -4.5,2 -4.5,4.5 0,2.5 2,4.5 4.5,4.5 h 18.2 c 1.6,0 3.1,-0.8 3.9,-2.2 0.8,-1.4 0.8,-3.1 0,-4.5 l -4.4,-7.9 12.9,1.2 2.1,8.1 c 0.4,1.5 1.6,2.6 3.1,2.9 L 55,89.2 c 0.2,0 0.5,0.1 0.7,0.1 1.8,0 3.5,-1.3 3.8,-3.2 0.4,-2 -1,-4.1 -3.2,-4.5 z"
           id="path12" />
        <circle
           cx="54.200001"
           cy="69.199997"
           r="7.6999998"
           id="circle14" />
        <path
           d="m 97.4,51.6 c -0.2,-0.9 -1.8,-9 -3.1,-12.1 -0.1,-0.3 -0.3,-0.8 -0.5,-1.2 -1.3,-3.5 -3.7,-10 -9.9,-10 h -9 c -5.2,0 -7.7,5.2 -9.4,8.7 -0.4,0.8 -0.9,2 -1.2,2.3 -1.5,1.6 -5.5,2.2 -7.2,2.2 -2.1,0 -3.7,1.7 -3.7,3.7 0,2.1 1.7,3.7 3.7,3.7 0.9,0 8.5,-0.1 12.6,-4.6 0.7,-0.8 1.3,-1.8 1.9,-2.9 L 71.9,53.9 68.4,85 c -0.3,2.2 1.3,4.1 3.4,4.4 2.2,0.2 4.1,-1.3 4.4,-3.4 L 79.5,57.8 82.8,86 c 0.2,2 1.9,3.5 3.9,3.5 0.2,0 0.3,0 0.5,0 2.2,-0.3 3.7,-2.2 3.4,-4.4 L 87,53.9 87.2,41.8 c 0.1,0.2 0.1,0.4 0.2,0.5 0.7,1.8 2,7.5 2.6,10.7 0.4,1.8 1.9,3 3.7,3 0.2,0 0.5,0 0.7,-0.1 2.1,-0.3 3.4,-2.3 3,-4.3 z"
           id="path16" />
        <circle
           cx="79.5"
           cy="18.5"
           r="7.9000001"
           id="circle18" />
      </g>
    </g>
  </g>
</svg>
