<?xml version="1.0" encoding="UTF-8" standalone="no"?>
<svg
   xmlns:dc="http://purl.org/dc/elements/1.1/"
   xmlns:cc="http://creativecommons.org/ns#"
   xmlns:rdf="http://www.w3.org/1999/02/22-rdf-syntax-ns#"
   xmlns:svg="http://www.w3.org/2000/svg"
   xmlns="http://www.w3.org/2000/svg"
   xmlns:sodipodi="http://sodipodi.sourceforge.net/DTD/sodipodi-0.dtd"
   xmlns:inkscape="http://www.inkscape.org/namespaces/inkscape"
   width="20"
   height="20"
   viewBox="0 0 20 20"
   version="1.1"
   id="svg838"
   inkscape:version="1.0.1 (3bc2e813f5, 2020-09-07)"
   sodipodi:docname="training_endurance_basic.svg">
  <defs
     id="defs832" />
  <sodipodi:namedview
     id="base"
     pagecolor="#ffffff"
     bordercolor="#666666"
     borderopacity="1.0"
     inkscape:pageopacity="0.0"
     inkscape:pageshadow="2"
     inkscape:zoom="22.4"
     inkscape:cx="10.797456"
     inkscape:cy="8.8981649"
     inkscape:document-units="mm"
     inkscape:current-layer="g855"
     inkscape:document-rotation="0"
     showgrid="false"
     units="px"
     inkscape:window-width="1267"
     inkscape:window-height="1040"
     inkscape:window-x="75"
     inkscape:window-y="0"
     inkscape:window-maximized="0"
     inkscape:pagecheckerboard="true" />
  <metadata
     id="metadata835">
    <rdf:RDF>
      <cc:Work
         rdf:about="">
        <dc:format>image/svg+xml</dc:format>
        <dc:type
           rdf:resource="http://purl.org/dc/dcmitype/StillImage" />
        <dc:title />
      </cc:Work>
    </rdf:RDF>
  </metadata>
  <g
     inkscape:label="Layer 1"
     inkscape:groupmode="layer"
     id="layer1">
    <g
       id="g855"
       transform="matrix(0.76682762,0,0,0.76682762,4.3493226,-31.20571)">
      <g
         id="g6"
         transform="matrix(-0.27558091,0,0,0.27558091,20.069415,47.025754)">
        <path
           d="M 89.5,59.8 H 70.9 L 83.1,46 c 3,-2.7 4.4,-7 3,-11.1 -1.4,-4.3 -5.3,-6.9 -9.6,-7 v -0.1 l -36.8,1.9 c -3.8,-0.3 -8.1,4.4 -8.7,8.5 l -1.8,8.2 -5,16 H 10.3 c -2.6,0 -4.8,2.2 -4.8,4.8 0,2.6 2.2,4.8 4.8,4.8 H 27 c 0.1,0 0.2,-0.1 0.3,-0.1 2.2,0.1 4.2,-1.1 4.9,-3.3 l 5,-15.8 2.2,-0.1 -4.1,13 c -0.8,2.5 0.6,5.2 3.1,6 2.5,0.8 5.2,-0.6 6,-3.1 l 5.3,-16.8 10.9,-1.3 -8.7,12.1 c -1.8,2.3 -1.1,5.8 1.5,7.9 0.9,0.7 1.9,1.1 2.9,1.3 0.4,0.1 0.7,0.1 1.1,0.2 0.1,0 0.3,0 0.4,0 h 31.4 c 3.2,0 5.9,-2.6 5.9,-5.9 v -0.4 c 0.3,-3.2 -2.4,-5.9 -5.6,-5.9 z"
           id="path2" />
        <circle
           cx="16.700001"
           cy="40.599998"
           r="11.2"
           id="circle4" />
      </g>
      <g
         id="g935"
         transform="translate(0.88388349)" />
      <path
         d="M 5.5902695,50.22984 H 3.3987447 c 0.05923,-0.54788 0.088845,-1.095762 0.074038,-1.643644 h 0.1332684 c 0.8736485,0 1.6880668,-0.518266 2.0286418,-1.332684 0.059227,-0.133268 0.1036557,-0.281344 0.1332681,-0.444228 L 5.812378,46.616786 5.6346868,46.601976 C 4.7462367,46.483517 3.8873955,46.912938 3.4431675,47.653317 3.3987445,47.120244 3.3247067,46.601979 3.2210535,46.09852 c 0.4590357,0 0.8440333,-0.355384 0.8884561,-0.814418 0.014807,-0.207307 -0.029615,-0.399807 -0.1332685,-0.577498 0.029615,-0.07404 0.044423,-0.162883 0.05923,-0.23692 0.044423,-0.503459 -0.3109597,-0.947687 -0.8144181,-0.992109 -0.1036534,-0.01481 -0.1924988,0 -0.296152,0.01481 C 2.791633,43.37392 2.6139417,43.31469 2.4510581,43.285075 1.9772148,43.240655 1.5477942,43.56642 1.4589486,44.010647 c -0.2517293,0.148076 -0.414613,0.399806 -0.4442282,0.695957 -0.029615,0.340576 0.1332687,0.666343 0.4146131,0.858841 0.014807,0.444229 0.3553825,0.829226 0.8144183,0.873649 h 0.088845 c 0.1628836,0 0.3109597,-0.04442 0.444228,-0.118461 0.1480762,0.725573 0.2369217,1.465953 0.2369217,2.221141 -0.3257667,-0.607112 -0.9773012,-0.977302 -1.6584511,-0.962495 0.014807,0.05924 0.044423,0.118461 0.05923,0.162884 0.2813445,0.651534 0.9180716,1.080954 1.5992213,1.11057 0,0.414613 -0.029616,0.829227 -0.074038,1.243839 V 50.22984 H 0.9406825 c -0.38499761,0 -0.68114956,0.310961 -0.68114956,0.68115 v 0.133268 c 0,0.281345 0.17769107,0.533074 0.42942032,0.636727 l 0.37019004,1.747297 c 0,0.37019 0.3109597,0.681149 0.6811497,0.681149 h 3.0355589 c 0.3701892,0 0.6811495,-0.296152 0.6811495,-0.681149 l 0.384997,-1.747297 C 6.0937283,51.57733 6.2714195,51.325603 6.2714195,51.044258 V 50.91099 c 0.01481,-0.370189 -0.2961519,-0.68115 -0.68115,-0.68115 z"
         id="path2-4"
         style="stroke-width:0.148075"
         sodipodi:nodetypes="sccsccccccccccccccccscccccccsssccssccscs" />
    </g>
  </g>
</svg>
