<?xml version="1.0" encoding="UTF-8" standalone="no"?>
<svg
   xmlns:dc="http://purl.org/dc/elements/1.1/"
   xmlns:cc="http://creativecommons.org/ns#"
   xmlns:rdf="http://www.w3.org/1999/02/22-rdf-syntax-ns#"
   xmlns:svg="http://www.w3.org/2000/svg"
   xmlns="http://www.w3.org/2000/svg"
   xmlns:sodipodi="http://sodipodi.sourceforge.net/DTD/sodipodi-0.dtd"
   xmlns:inkscape="http://www.inkscape.org/namespaces/inkscape"
   width="20"
   height="20"
   viewBox="0 0 20 20"
   version="1.1"
   id="svg838"
   inkscape:version="1.0.1 (3bc2e813f5, 2020-09-07)"
   sodipodi:docname="training_horny_basic.svg">
  <style
     id="style838"></style>
  <defs
     id="defs832" />
  <sodipodi:namedview
     id="base"
     pagecolor="#ffffff"
     bordercolor="#666666"
     borderopacity="1.0"
     inkscape:pageopacity="0.0"
     inkscape:pageshadow="2"
     inkscape:zoom="15.839192"
     inkscape:cx="10.277156"
     inkscape:cy="9.1074702"
     inkscape:document-units="mm"
     inkscape:current-layer="layer1"
     inkscape:document-rotation="0"
     showgrid="false"
     units="px"
     inkscape:window-width="1267"
     inkscape:window-height="1040"
     inkscape:window-x="75"
     inkscape:window-y="0"
     inkscape:window-maximized="0"
     inkscape:pagecheckerboard="true" />
  <metadata
     id="metadata835">
    <rdf:RDF>
      <cc:Work
         rdf:about="">
        <dc:format>image/svg+xml</dc:format>
        <dc:type
           rdf:resource="http://purl.org/dc/dcmitype/StillImage" />
        <dc:title />
      </cc:Work>
    </rdf:RDF>
  </metadata>
  <g
     inkscape:label="Layer 1"
     inkscape:groupmode="layer"
     id="layer1">
    <g
       id="g856"
       transform="matrix(0.85676458,0,0,0.85676458,3.817142,-3.2567842)">
      <path
         id="path7933-8"
         d="m -0.3552194,13.154284 c -0.1294744,-0.194332 -0.2428902,-0.418233 -0.3001411,-0.658342 -0.028808,-0.104909 -0.050255,-0.618332 0.034957,-0.93391 0.1154942,-0.429287 0.44152,-0.798932 0.44152,-0.798932 0.071226,-0.09731 0.051017,-0.232404 -0.044868,-0.301983 -0.085174,-0.06174 -0.2014644,-0.05068 -0.2765712,0.02078 0,0 -0.4151142,0.334152 -0.6264369,0.754184 l -0.00187,-7.51e-4 c -0.1535716,0.123055 -0.2320316,0.0039 -0.2499338,-0.09027 -0.2954656,-1.8708947 1.319942,-3.263998 3.6366476,-2.17912 2.7924147,1.307505 4.6867498,0.9286734 5.0482618,2.250996 -0.03023,0.260274 -0.103584,0.828902 -0.4832265,1.453012 -0.4472373,0.734553 -1.0348263,1.301094 -1.0348263,1.301094 -0.07095,0.06519 -0.0769,0.174067 -0.01275,0.243883 0.05333,0.05838 0.138544,0.07043 0.206896,0.03496 0,0 0.7046473,-0.178791 1.4077368,-1.199215 0.241095,-0.349315 0.552111,-0.903372 0.579564,-0.966508 2.549511,0.976026 4.820894,1.276239 6.013429,1.457617 1.984188,0.301465 3.246128,0.2872 3.381825,0.320076 4.277841,0.537358 6.393068,4.517029 6.364065,9.690349 0,2.847063 -1.620858,5.50219 -5.143826,5.562323 -0.432215,0.0071 -0.850437,-0.04252 -1.251316,-0.135852 -0.04629,-0.01701 -1.00349,-0.314313 -1.724188,-1.180718 -0.379922,-0.456307 -0.541755,-0.9295 -0.541755,-0.9295 -0.07794,-0.171421 -0.281246,-0.244591 -0.453708,-0.163675 -0.146055,0.06878 -0.223476,0.226028 -0.196268,0.376759 0,0 0.05824,0.329995 0.201512,0.839229 0.143221,0.508757 0.460179,0.925201 0.496958,0.983358 0.03023,0.101509 -0.01654,0.193434 -0.09094,0.229947 -2.532161,-0.274775 -4.418462,-2.420223 -4.170375,-5.041822 0.168825,-1.780159 0.640166,-3.157606 1.303377,-4.198838 0.241096,0.0241 1.709942,0.105246 2.123772,0.105384 0.413557,0.004 1.381831,-0.03779 1.381831,-0.03779 0.09481,-0.0066 0.167549,-0.06788 0.162637,-0.162542 -0.0047,-0.09107 -0.0795,-0.141095 -0.169345,-0.139537 l -0.0016,2.9e-5 c 0,0 -1.761996,-0.146009 -2.723015,-0.240482 -0.130449,-0.01276 -2.537533,-0.321304 -4.267417,-1.050807 0,0 -2.6878018,-0.775295 -6.904789,-3.481494 -0.7220168,-0.469866 -1.5439715,-0.91628 -2.1157659,-1.73184 z"
         inkscape:connector-curvature="0"
         style="stroke-width:1.2498" />
      <path
         style="fill:none;stroke:#000000;stroke-width:0.623622;stroke-linecap:round;stroke-linejoin:miter;stroke-miterlimit:4;stroke-dasharray:none;stroke-opacity:1"
         d="m 4.2809134,8.0998693 1.1364218,-4.73509"
         id="path872" />
      <path
         style="fill:none;stroke:#000000;stroke-width:0.691654;stroke-linecap:round;stroke-linejoin:miter;stroke-miterlimit:4;stroke-dasharray:none;stroke-opacity:1"
         d="M 6.4202372,8.848341 8.518178,5.7730343"
         id="path874" />
      <path
         style="fill:none;stroke:#000000;stroke-width:0.623622;stroke-linecap:round;stroke-linejoin:miter;stroke-miterlimit:4;stroke-dasharray:none;stroke-opacity:1"
         d="M 2.3237427,7.5632258 1.5029938,3.7751538"
         id="path876" />
      <path
         style="fill:none;stroke:#000000;stroke-width:0.623622;stroke-linecap:round;stroke-linejoin:miter;stroke-miterlimit:4;stroke-dasharray:none;stroke-opacity:1"
         d="m 1.5692867,16.577644 -2.3232308,4.279618"
         id="path872-7"
         inkscape:transform-center-x="-1.3092973"
         inkscape:transform-center-y="1.0612697" />
      <path
         style="fill:none;stroke:#000000;stroke-width:0.691654;stroke-linecap:round;stroke-linejoin:miter;stroke-miterlimit:4;stroke-dasharray:none;stroke-opacity:1"
         d="m -0.3034228,15.300978 -2.8224027,2.427531"
         id="path874-4"
         inkscape:transform-center-x="0.81299819"
         inkscape:transform-center-y="-1.1414398" />
      <path
         style="fill:none;stroke:#000000;stroke-width:0.623622;stroke-linecap:round;stroke-linejoin:miter;stroke-miterlimit:4;stroke-dasharray:none;stroke-opacity:1"
         d="M 3.3208753,17.602554 3.1332328,21.473976"
         id="path876-6"
         inkscape:transform-center-x="-4.12868"
         inkscape:transform-center-y="1.8820817" />
    </g>
  </g>
</svg>
