<?xml version="1.0" encoding="UTF-8" standalone="no"?>
<svg
   xmlns:dc="http://purl.org/dc/elements/1.1/"
   xmlns:cc="http://creativecommons.org/ns#"
   xmlns:rdf="http://www.w3.org/1999/02/22-rdf-syntax-ns#"
   xmlns:svg="http://www.w3.org/2000/svg"
   xmlns="http://www.w3.org/2000/svg"
   xmlns:sodipodi="http://sodipodi.sourceforge.net/DTD/sodipodi-0.dtd"
   xmlns:inkscape="http://www.inkscape.org/namespaces/inkscape"
   width="20"
   height="20"
   viewBox="0 0 20 20"
   version="1.1"
   id="svg838"
   inkscape:version="1.0.1 (3bc2e813f5, 2020-09-07)"
   sodipodi:docname="trauma_social.svg">
  <defs
     id="defs832" />
  <sodipodi:namedview
     id="base"
     pagecolor="#ffffff"
     bordercolor="#666666"
     borderopacity="1.0"
     inkscape:pageopacity="0.0"
     inkscape:pageshadow="2"
     inkscape:zoom="15.839192"
     inkscape:cx="15.214804"
     inkscape:cy="8.8616792"
     inkscape:document-units="mm"
     inkscape:current-layer="layer1"
     inkscape:document-rotation="0"
     showgrid="false"
     units="px"
     inkscape:window-width="1267"
     inkscape:window-height="1040"
     inkscape:window-x="52"
     inkscape:window-y="0"
     inkscape:window-maximized="0"
     inkscape:pagecheckerboard="true" />
  <metadata
     id="metadata835">
    <rdf:RDF>
      <cc:Work
         rdf:about="">
        <dc:format>image/svg+xml</dc:format>
        <dc:type
           rdf:resource="http://purl.org/dc/dcmitype/StillImage" />
        <dc:title></dc:title>
      </cc:Work>
    </rdf:RDF>
  </metadata>
  <g
     inkscape:label="Layer 1"
     inkscape:groupmode="layer"
     id="layer1">
    <path
       style="fill:#000000;stroke-width:0.424146"
       inkscape:connector-curvature="0"
       d="m 17.823546,4.5645536 h -0.699855 v 1.2724423 h 0.704088 c 0.35641,0 0.648945,0.2926488 0.648945,0.6489449 v 7.8848932 c 0,0.402939 -0.233197,0.648945 -0.356409,0.648945 H 15.214916 V 17.35259 L 13.255345,15.393026 12.881927,15.01976 H 6.8844977 l -1.187603,1.18761 c 0.173858,0.05087 0.351874,0.08485 0.538658,0.08485 h 6.1204533 l 2.773909,2.773924 c 0.292535,0.292648 0.564132,0.432631 0.784667,0.432631 0.347717,0 0.57687,-0.347792 0.57687,-0.996745 v -2.20981 h 1.628712 c 0.899187,0 1.628711,-0.861018 1.628711,-1.921384 V 6.4859445 c 0,-1.060369 -0.861014,-1.9213909 -1.925631,-1.9213909 z m -4.063332,7.6643384 c 1.060346,0 1.921361,-0.861018 1.921361,-1.921387 V 2.4226122 c 0,-1.0646098 -0.861015,-1.92138703 -1.921361,-1.92138703 H 2.1725232 c -1.0603842,0 -1.92139843,0.86101793 -1.92139843,1.92138703 v 7.8848928 c 0,1.06461 0.7295244,1.921387 1.62871183,1.921387 h 1.6287497 v 2.209803 c 0,1.060369 0.6065007,1.31486 1.3614994,0.564117 l 2.773908,-2.77392 z M 10.888718,5.7733752 c 0.500523,0 0.903458,0.4029391 0.903458,0.9034318 0,0.496252 -0.402935,0.9034318 -0.903458,0.9034318 -0.496252,0 -0.9034203,-0.4029392 -0.9034203,-0.9034318 0,-0.4962559 0.4029353,-0.9034318 0.9034203,-0.9034318 z M 5.0439817,7.5802388 c -0.5004852,0 -0.9034206,-0.4029392 -0.9034206,-0.9034318 0,-0.5004926 0.4071685,-0.9034318 0.9034206,-0.9034318 0.496252,0 0.90342,0.4029392 0.90342,0.9034318 0,0.5004926 -0.407168,0.9034318 -0.90342,0.9034318 z m 2.018948,-0.8991912 c 0,-0.5004965 0.407168,-0.9034318 0.90342,-0.9034318 0.500485,0 0.903459,0.4029353 0.903459,0.9034318 0,0.496252 -0.407207,0.9034318 -0.903459,0.9034318 -0.500485,-0.00416 -0.90342,-0.4071798 -0.90342,-0.9034318 z"
       id="path915" />
  </g>
</svg>
