<?xml version="1.0" encoding="UTF-8" standalone="no"?>
<svg
   xmlns:dc="http://purl.org/dc/elements/1.1/"
   xmlns:cc="http://creativecommons.org/ns#"
   xmlns:rdf="http://www.w3.org/1999/02/22-rdf-syntax-ns#"
   xmlns:svg="http://www.w3.org/2000/svg"
   xmlns="http://www.w3.org/2000/svg"
   xmlns:sodipodi="http://sodipodi.sourceforge.net/DTD/sodipodi-0.dtd"
   xmlns:inkscape="http://www.inkscape.org/namespaces/inkscape"
   width="20"
   height="20"
   viewBox="0 0 20 20"
   version="1.1"
   id="svg838"
   inkscape:version="1.0.1 (3bc2e813f5, 2020-09-07)"
   sodipodi:docname="trauma_intrigue.svg">
  <defs
     id="defs832" />
  <sodipodi:namedview
     id="base"
     pagecolor="#ffffff"
     bordercolor="#666666"
     borderopacity="1.0"
     inkscape:pageopacity="0.0"
     inkscape:pageshadow="2"
     inkscape:zoom="15.839192"
     inkscape:cx="15.214804"
     inkscape:cy="8.8616792"
     inkscape:document-units="mm"
     inkscape:current-layer="layer1"
     inkscape:document-rotation="0"
     showgrid="false"
     units="px"
     inkscape:window-width="1267"
     inkscape:window-height="1040"
     inkscape:window-x="52"
     inkscape:window-y="0"
     inkscape:window-maximized="0"
     inkscape:pagecheckerboard="true" />
  <metadata
     id="metadata835">
    <rdf:RDF>
      <cc:Work
         rdf:about="">
        <dc:format>image/svg+xml</dc:format>
        <dc:type
           rdf:resource="http://purl.org/dc/dcmitype/StillImage" />
        <dc:title></dc:title>
      </cc:Work>
    </rdf:RDF>
  </metadata>
  <g
     inkscape:label="Layer 1"
     inkscape:groupmode="layer"
     id="layer1">
    <g
       id="g5595"
       transform="matrix(3.6773,0,0,3.6773,-29.290412,-131.30568)">
      <path
         inkscape:export-ydpi="42.950001"
         inkscape:export-xdpi="42.950001"
         style="fill:#000000;stroke-width:0.0528692"
         id="path962"
         d="m 12.442803,36.291813 -0.674765,-0.149562 -0.04023,-0.124066 c -0.01126,-0.0347 -0.04854,-0.05373 -0.08324,-0.04248 l -0.254921,0.08267 -1.4919033,-0.330709 c -0.0469,-0.01038 -0.09562,0.0054 -0.12749,0.04134 l -1.013959,1.143332 -0.25492,0.08267 c -0.03469,0.01126 -0.05372,0.04855 -0.04249,0.08325 l 0.04023,0.124066 -0.458558,0.517099 c -0.03107,0.03502 -0.04127,0.08391 -0.02678,0.128467 l 0.815434,2.514548 c 0.02252,0.06945 0.09706,0.107477 0.166507,0.08496 l 4.2747203,-1.386255 c 0.06945,-0.02252 0.107464,-0.09705 0.08494,-0.166502 l -0.815434,-2.514545 c -0.0143,-0.04456 -0.0514,-0.07815 -0.09712,-0.08828 z m -0.580144,0.142178 0.408645,0.09058 -0.269011,0.340064 z m -1.9462613,-0.431422 0.9772543,0.216645 -1.6413673,0.532292 z m -1.311396,1.097784 3.0174673,-0.978533 0.281307,0.867419 -1.182566,1.495084 -1.8349013,-0.516551 z m -0.01126,0.393714 0.139665,0.430643 -0.41738,-0.117483 z m 4.4694103,1.356393 -4.0233003,1.304712 -0.716186,-2.208528 2.4041493,0.676823 c 0.02557,0.0072 0.0532,-0.0018 0.06976,-0.02261 l 1.549364,-1.95891 z"
         inkscape:connector-curvature="0" />
      <path
         inkscape:export-ydpi="42.950001"
         inkscape:export-xdpi="42.950001"
         style="fill:#000000;stroke-width:0.0528692"
         id="path964"
         d="m 9.0416467,37.375606 2.3888103,-0.774672 c 0.0347,-0.01126 0.05375,-0.04855 0.04249,-0.08325 -0.01126,-0.0347 -0.04854,-0.05373 -0.08324,-0.04248 l -2.3888403,0.774673 c -0.0347,0.01126 -0.05372,0.04855 -0.04246,0.08325 0.01126,0.0347 0.04854,0.05373 0.08324,0.04248 z"
         inkscape:connector-curvature="0" />
      <path
         inkscape:export-ydpi="42.950001"
         inkscape:export-xdpi="42.950001"
         style="fill:#000000;stroke-width:0.0528692"
         id="path966"
         d="m 9.1231807,37.62706 2.3888413,-0.774673 c 0.03469,-0.01126 0.05372,-0.04855 0.04246,-0.08325 -0.01126,-0.0347 -0.04854,-0.05373 -0.08324,-0.04247 l -2.3888113,0.77467 c -0.03469,0.01126 -0.05375,0.04855 -0.04249,0.08325 0.01126,0.0347 0.04854,0.05373 0.08324,0.04248 z"
         inkscape:connector-curvature="0" />
      <path
         inkscape:export-ydpi="42.950001"
         inkscape:export-xdpi="42.950001"
         style="fill:#000000;stroke-width:0.0528692"
         id="path968"
         d="m 11.007386,37.224453 c -0.01126,-0.0347 -0.04854,-0.05373 -0.08324,-0.04248 l -1.7601843,0.570812 c -0.0347,0.01126 -0.05372,0.04855 -0.04249,0.08325 0.01126,0.0347 0.04857,0.05373 0.08327,0.04248 l 1.7601843,-0.570813 c 0.03469,-0.01126 0.05372,-0.04855 0.04246,-0.08325 z"
         inkscape:connector-curvature="0" />
      <g
         inkscape:export-ydpi="42.950001"
         inkscape:export-xdpi="42.950001"
         style="fill:#000000"
         transform="matrix(0.03183683,0.07164142,-0.07164142,0.03183683,8.9392347,36.562818)"
         id="g1104">
        <polygon
           style="fill:#000000"
           points="46.6568,78.69818 43.34332,78.69818 43.34332,79.15619 45,80.33301 46.6568,79.15619 "
           id="polygon934"
           transform="matrix(-0.61575092,-0.69499697,0.69499697,-0.61575092,40.490329,49.531845)" />
        <rect
           x="-24.68825"
           y="56.601944"
           width="5.0942278"
           height="12.074534"
           id="rect936"
           transform="rotate(-131.54019)"
           style="fill:#000000;stroke-width:0.928531" />
        <path
           inkscape:connector-curvature="0"
           d="m 57.224446,-11.656557 -9.392985,-10.601845 c -1.778063,1.453414 -3.559309,2.95948 -5.303334,4.504646 -17.2371,15.2716632 -25.029335,27.799613 -23.028144,30.058353 2.00119,2.25874 15.376636,-3.9674496 32.613735,-19.239113 1.744026,-1.5451654 3.453715,-3.131998 5.110728,-4.722041 z"
           id="path938"
           style="fill:#000000;stroke-width:0.928531" />
        <path
           inkscape:connector-curvature="0"
           d="m 62.507753,-8.4936836 c 1.19412,1.313623 3.232811,1.426888 4.565794,0.2458962 1.342442,-1.1893722 1.467123,-3.2502096 0.277375,-4.5930766 -0.965189,-1.089407 -2.51104,-1.378468 -3.794201,-0.776551 l 1.084966,1.224599 c 0.340085,0.383853 0.304899,0.970404 -0.07925,1.310748 -0.384104,0.340307 -0.970663,0.304607 -1.310748,-0.07925 L 48.065976,-28.301406 c -0.340012,-0.383771 -0.304858,-0.970441 0.07925,-1.310748 0.384146,-0.340344 0.970736,-0.304524 1.310748,0.07925 l 1.084965,1.224598 c 0.752118,-1.20129 0.651446,-2.770671 -0.313744,-3.860079 -1.189748,-1.342866 -3.250596,-1.467377 -4.593038,-0.278004 -1.332983,1.180991 -1.465863,3.218811 -0.305445,4.562753 0.04111,0.03687 0.07115,0.07204 0.103428,0.116738 l 16.972269,19.1565701 c 0.04134,0.0384 0.07145,0.072379 0.103348,0.1166483 z"
           id="path940"
           style="fill:#000000;stroke-width:0.928531" />
      </g>
    </g>
  </g>
</svg>
