<?xml version="1.0" encoding="UTF-8" standalone="no"?>
<svg
   xmlns:dc="http://purl.org/dc/elements/1.1/"
   xmlns:cc="http://creativecommons.org/ns#"
   xmlns:rdf="http://www.w3.org/1999/02/22-rdf-syntax-ns#"
   xmlns:svg="http://www.w3.org/2000/svg"
   xmlns="http://www.w3.org/2000/svg"
   xmlns:sodipodi="http://sodipodi.sourceforge.net/DTD/sodipodi-0.dtd"
   xmlns:inkscape="http://www.inkscape.org/namespaces/inkscape"
   width="20"
   height="20"
   viewBox="0 0 20 20"
   version="1.1"
   id="svg838"
   inkscape:version="1.0.1 (3bc2e813f5, 2020-09-07)"
   sodipodi:docname="vagina_gape.svg">
  <defs
     id="defs832" />
  <sodipodi:namedview
     id="base"
     pagecolor="#ffffff"
     bordercolor="#666666"
     borderopacity="1.0"
     inkscape:pageopacity="0.0"
     inkscape:pageshadow="2"
     inkscape:zoom="15.839192"
     inkscape:cx="3.2390679"
     inkscape:cy="5.3646174"
     inkscape:document-units="mm"
     inkscape:current-layer="layer1"
     inkscape:document-rotation="0"
     showgrid="false"
     units="px"
     inkscape:window-width="1267"
     inkscape:window-height="1040"
     inkscape:window-x="75"
     inkscape:window-y="5"
     inkscape:window-maximized="0"
     inkscape:pagecheckerboard="true" />
  <metadata
     id="metadata835">
    <rdf:RDF>
      <cc:Work
         rdf:about="">
        <dc:format>image/svg+xml</dc:format>
        <dc:type
           rdf:resource="http://purl.org/dc/dcmitype/StillImage" />
        <dc:title></dc:title>
      </cc:Work>
    </rdf:RDF>
  </metadata>
  <g
     inkscape:label="Layer 1"
     inkscape:groupmode="layer"
     id="layer1">
    <path
       inkscape:connector-curvature="0"
       d="M 9.9999989,0.2437361 A 9.7562639,9.7562639 0 1 0 19.756264,9.9999966 9.7562639,9.7562639 0 0 0 9.9999989,0.2437361 Z m -0.003,9.3437515 c 0.9189661,0 1.6954661,1.6009404 1.6954661,3.4958824 0,1.304455 -0.367937,2.469453 -0.896965,3.068977 a 5.3761588,5.3761588 0 0 0 0.239849,-1.668567 c 0,-1.206728 -0.325001,-2.505464 -1.0383581,-2.505464 -0.713378,0 -1.038361,1.298732 -1.038361,2.505464 a 5.3756618,5.3756618 0 0 0 0.239925,1.668737 c -0.52916,-0.599479 -0.897165,-1.76456 -0.897165,-3.069147 -4e-6,-1.894953 0.776496,-3.4958824 1.695609,-3.4958824 z M 10.425594,14.48378 c 0,1.153734 -0.293556,1.793419 -0.4285911,1.889144 -0.135043,-0.09574 -0.428595,-0.73541 -0.428595,-1.889144 0,-1.153735 0.293556,-1.793571 0.428595,-1.889296 0.1350421,0.09574 0.4285911,0.735561 0.4285911,1.889296 z M 9.9999779,19.146496 A 9.1397636,9.1397636 0 0 1 3.3225637,3.758772 L 5.974439,6.5513136 c 0.041235,0.04392 1.0026289,1.099692 0.4632759,2.935393 -0.0021,0.0068 -0.0038,0.01398 -0.0053,0.02079 -0.057335,0.262602 -1.3569414,6.4425954 2.72132,7.5646124 a 3.1834385,3.1834385 0 0 0 0.8489951,0.117468 3.0239647,3.0239647 0 0 0 0.712041,-0.085 c 4.230104,-1.022581 2.905323,-7.3291104 2.846815,-7.5970744 -0.0015,-0.0068 -0.0033,-0.01398 -0.0053,-0.02079 -0.53935,-1.835702 0.422045,-2.891475 0.462089,-2.93435 0.0038,-0.0038 0.0079,-0.0083 0.01134,-0.01247 L 16.534012,3.6082334 A 9.1402886,9.1402886 0 0 1 10.000154,19.146534 Z"
       id="path5226"
       style="fill:#000000;stroke-width:0.152442" />
  </g>
</svg>
