<?xml version="1.0" encoding="UTF-8" standalone="no"?>
<svg
   xmlns:dc="http://purl.org/dc/elements/1.1/"
   xmlns:cc="http://creativecommons.org/ns#"
   xmlns:rdf="http://www.w3.org/1999/02/22-rdf-syntax-ns#"
   xmlns:svg="http://www.w3.org/2000/svg"
   xmlns="http://www.w3.org/2000/svg"
   xmlns:sodipodi="http://sodipodi.sourceforge.net/DTD/sodipodi-0.dtd"
   xmlns:inkscape="http://www.inkscape.org/namespaces/inkscape"
   width="20"
   height="20"
   viewBox="0 0 20 20"
   version="1.1"
   id="svg838"
   inkscape:version="1.0.1 (3bc2e813f5, 2020-09-07)"
   sodipodi:docname="value_low.svg">
  <defs
     id="defs832" />
  <sodipodi:namedview
     id="base"
     pagecolor="#ffffff"
     bordercolor="#666666"
     borderopacity="1.0"
     inkscape:pageopacity="0.0"
     inkscape:pageshadow="2"
     inkscape:zoom="11.2"
     inkscape:cx="9.2603771"
     inkscape:cy="-0.41153021"
     inkscape:document-units="mm"
     inkscape:current-layer="g6"
     inkscape:document-rotation="0"
     showgrid="false"
     units="px"
     inkscape:window-width="1267"
     inkscape:window-height="1040"
     inkscape:window-x="52"
     inkscape:window-y="0"
     inkscape:window-maximized="0"
     inkscape:pagecheckerboard="true" />
  <metadata
     id="metadata835">
    <rdf:RDF>
      <cc:Work
         rdf:about="">
        <dc:format>image/svg+xml</dc:format>
        <dc:type
           rdf:resource="http://purl.org/dc/dcmitype/StillImage" />
        <dc:title />
      </cc:Work>
    </rdf:RDF>
  </metadata>
  <g
     inkscape:label="Layer 1"
     inkscape:groupmode="layer"
     id="layer1">
    <rect
       style="opacity:1;fill:#aa0000;fill-opacity:1;stroke:none;stroke-width:1.98922;stroke-miterlimit:4;stroke-dasharray:none;stroke-opacity:1"
       id="rect1494-606"
       width="19.999977"
       height="20"
       x="1.1513453e-05"
       y="0" />
    <path
       style="opacity:1;fill:#ff8080;fill-opacity:1;fill-rule:evenodd;stroke:none;stroke-width:0.99461px;stroke-linecap:butt;stroke-linejoin:miter;stroke-opacity:1"
       d="M 20,19.999992 2.668777,17.394028 0,7.6332178e-6 17.519594,2.5745827 Z"
       id="path1496-26"
       inkscape:connector-curvature="0"
       inkscape:export-xdpi="119.35343"
       inkscape:export-ydpi="119.35343" />
    <g
       id="g6"
       transform="matrix(0.21356624,0,0,0.21356624,-6.7807836,6.4542724)">
      <g
         id="g850"
         transform="matrix(-1.1414999,0,0,1.1414999,169.83073,-2.4753332)">
        <g
           id="g838"
           transform="matrix(0.38936279,0,0,0.38936279,46.834302,13.870437)">
          <path
             id="path2"
             d="m 40.978516,28.763672 c -6.490182,0.297583 -13.052434,1.988029 -18.496664,5.621626 -3.65617,2.561578 -6.505199,6.648011 -6.638886,11.219192 -0.235597,4.353676 1.675172,9.005806 5.521807,11.286373 4.18734,2.629469 9.338878,3.027977 14.15677,2.669254 8.948372,-0.785153 17.455524,-4.659655 24.441348,-10.220273 1.040263,-0.873567 2.275812,-1.854227 2.27119,-3.349943 0.196711,-2.456559 -2.366372,-4.771254 -4.792675,-4.013339 -1.432929,0.441136 -2.385978,1.693183 -3.639932,2.450696 -4.706324,3.439685 -10.232061,6.053552 -15.90499,7.100086 -3.554322,0.619608 -7.322538,0.830105 -10.792871,-0.321825 -1.385062,-0.465224 -2.804151,-1.290362 -3.261816,-2.773878 -0.701992,-1.951552 -0.37497,-4.234262 0.967013,-5.840159 1.959935,-2.284803 4.788049,-3.632197 7.599854,-4.564119 1.740774,-0.563853 3.426347,-0.937449 5.179618,-1.255153 2.26132,-0.354385 4.551462,-0.424643 6.77041,-0.26073 6.752873,0.518032 13.448497,2.601311 19.12373,6.33227 3.420443,2.305115 6.684236,5.417199 7.71148,9.55216 0.527884,2.00659 0.582016,4.306447 0.515082,6.236902 -0.393381,8.317638 -4.750799,16.299038 -11.436262,21.239909 -4.44738,3.37807 -9.777675,5.413399 -15.210222,6.555013 -1.245987,0.265234 -2.736439,0.533418 -4.035829,0.72024 -4.390647,0.678527 -8.840664,0.918894 -13.280577,0.840307 -1.383,-0.03466 -3.000689,-0.096 -4.471495,-0.210319 C 17.421978,87.367599 11.61968,86.332489 5.9530473,84.833858 4.0429319,84.386173 2.0251445,85.76027 1.6300416,87.656631 c -0.5438405,1.88435 0.5962931,4.161498 2.5966376,4.535129 4.3265014,1.400035 8.8460998,2.08485 13.3399368,2.698893 11.67521,1.461887 23.740349,0.981513 35.017295,-2.561855 C 60.74097,89.701995 68.226546,84.606291 73.067354,77.464965 78.361302,69.77733 80.679496,59.917916 78.673828,50.738281 77.408459,45.252074 73.632562,40.670717 69.177677,37.386823 62.068601,32.217596 53.383576,29.39096 44.644531,28.835938 c -1.220955,-0.06768 -2.443261,-0.09298 -3.666015,-0.07227 z" />
          <path
             id="path4"
             d="m 78.983517,12.433214 c -1.011115,3.540024 -2.540455,6.930463 -4.600591,9.985798 -1.775777,2.722127 -3.896743,5.201041 -6.090815,7.586467 -1.032863,1.294327 -1.21309,3.247058 -0.165264,4.588134 1.284023,1.89486 4.407614,2.266654 5.906108,0.427347 5.469563,-5.631717 9.993585,-12.369409 12.144542,-19.980757 0.188475,-0.607966 0.377165,-1.215865 0.565786,-1.823786 -2.471996,-0.614613 -4.943155,-1.232595 -7.414063,-1.851563 -0.115234,0.35612 -0.230469,0.71224 -0.345703,1.06836 z" />
        </g>
        <path
           d="m 80.980136,14.586361 1.970249,0.488301 v 0 c 4.290524,0.749821 8.404912,-0.482313 10.194371,-3.050531 0.276637,0.0077 0.582188,0.01372 0.938513,0.01372 3.479939,0 10.307821,-0.515702 11.808221,-4.4473662 1.70137,-4.4605463 -0.20916,-8.8977449 -4.64737,-10.7920275 l 4e-5,-2.05e-5 c -4.148281,-1.778919 -8.806047,2.95356375 -10.680641,5.1563102 -1.509656,-1.30269545 -3.415209,-2.41948445 -5.600326,-3.2244828 -2.137778,-0.7874904 -4.029752,-0.8773451 -5.642077,-0.5069463 -1.79898,-4.2925611 -5.317853,-8.3683849 -8.797412,-8.4446429 -0.03655,-9.85e-4 -0.0731,-9.85e-4 -0.111664,-9.85e-4 -2.629238,0 -5.307187,2.0282753 -6.850218,5.2005959 -1.465879,3.0200736 -1.394818,6.0908965 0.184762,8.0135784 2.038546,2.4793821 6.959097,3.4605155 9.507129,3.8134085 0.525202,3.2920102 3.511264,6.4132082 7.726423,7.7811222 z M 73.354338,4.1525493 C 70.574869,3.7381166 66.995704,2.7922441 65.782989,1.3178829 c -0.903482,-1.10042785 -0.844604,-3.1368112 0.15025,-5.1874149 1.067933,-2.1977985 2.903316,-3.7164637 4.480859,-3.7164637 h 0.05278 c 2.063806,0.045053 4.881091,3.120449 6.423478,6.82294185 -1.843388,1.1726322 -3.056997,3.03479325 -3.536025,4.91560315 z m 30.072382,2.4979055 c -0.80883,2.124327 -5.836985,2.731901 -9.323764,2.74662 0.228279,-1.904677 -0.404411,-3.8094788 -1.705445,-5.524175 1.70443,-2.0288992 5.422934,-5.6666922 7.811189,-4.65027795 3.59565,1.5349017 4.2088,4.83616335 3.21802,7.42783295 z"
           id="path843"
           sodipodi:nodetypes="ccccscccccccsccccccccscccccccc"
           style="stroke-width:2.07903" />
      </g>
    </g>
  </g>
</svg>
