<svg version="1.1" viewBox="0 0 20 20" xmlns="http://www.w3.org/2000/svg">
 <rect x="2.7678e-7" width="20" height="20" style="fill:#165044"/>
 <path d="M 20,20 2.669,17.394 2e-4,0 l 17.52,2.5746 z" style="fill-rule:evenodd;fill:#000000"/>
 <g transform="matrix(1.1331,0,0,1.1331,4.2119,-63.311)" style="fill:#808000;stroke-width:.33355;stroke:#00ffff">
  <polygon transform="matrix(.26458 0 0 .26458 -3.3585 56.232)" points="26.62 25 27 25.76 27.38 25" style="fill:#808000;stroke-width:1.2607;stroke:#00ffff"/>
  <polygon transform="matrix(.26458 0 0 .26458 -3.3585 56.232)" points="24.62 21 23.62 23 25.62 23 28.38 23 30.38 23 29.38 21 25.38 21" style="fill:#808000;stroke-width:1.2607;stroke:#00ffff"/>
  <polygon transform="matrix(.26458 0 0 .26458 -3.3585 56.232)" points="31.62 21 32 21.76 32.38 21" style="fill:#808000;stroke-width:1.2607;stroke:#00ffff"/>
  <polygon transform="matrix(.26458 0 0 .26458 -3.3585 56.232)" points="33.62 25 30.38 25 29.62 25 28.62 27 35.38 27 34.38 25" style="fill:#808000;stroke-width:1.2607;stroke:#00ffff"/>
  <polygon transform="matrix(.26458 0 0 .26458 -3.3585 56.232)" points="34.38 17 29.62 17 28.62 19 30.62 19 33.38 19 35.38 19" style="fill:#808000;stroke-width:1.2607;stroke:#00ffff"/>
  <polygon transform="matrix(.26458 0 0 .26458 -3.3585 56.232)" points="18.62 27 25.38 27 24.38 25 20.38 25 19.62 25" style="fill:#808000;stroke-width:1.2607;stroke:#00ffff"/>
  <polygon transform="matrix(.26458 0 0 .26458 -3.3585 56.232)" points="43.62 25 39.62 25 38.62 27 45.38 27 44.38 25" style="fill:#808000;stroke-width:1.2607;stroke:#00ffff"/>
  <polygon transform="matrix(.26458 0 0 .26458 -3.3585 56.232)" points="34.62 21 33.62 23 35.62 23 38.38 23 40.38 23 39.38 21 38.62 21" style="fill:#808000;stroke-width:1.2607;stroke:#00ffff"/>
  <polygon transform="matrix(.26458 0 0 .26458 -3.3585 56.232)" points="36.62 25 37 25.76 37.38 25" style="fill:#808000;stroke-width:1.2607;stroke:#00ffff"/>
  <path d="m-1.144 70.519h-0.097896v0.52917h0.52917v-0.0979a0.43127 0.43127 0 0 0-0.43127-0.43127z" style="fill:#808000;stroke-width:.33355;stroke:#00ffff"/>
  <path d="m10.929 70.951v0.0979h0.52917v-0.52917h-0.0979a0.43127 0.43127 0 0 0-0.43127 0.43127z" style="fill:#808000;stroke-width:.33355;stroke:#00ffff"/>
  <path d="m11.458 69.99v-5.5562h-5.0271v2.323a0.8546 0.8546 0 0 1-0.85196 0.85196h-0.94192a0.8546 0.8546 0 0 1-0.85196-0.85196v-2.323h-5.0271v5.5562h0.097896a0.96308 0.96308 0 0 1 0.96044 0.96044v0.0979h10.583v-0.0979a0.96308 0.96308 0 0 1 0.96044-0.96044z" style="fill:#808000;stroke-width:.33355;stroke:#00ffff"/>
  <path d="m4.6372 67.08h0.94192a0.32279 0.32279 0 0 0 0.32279-0.32279v-2.323h-1.5875v2.323a0.32279 0.32279 0 0 0 0.32279 0.32279zm0.20638-1.5875h0.52917v1.0583h-0.52917z" style="fill:#808000;stroke-width:.33355;stroke:#00ffff"/>
  <polygon transform="matrix(.26458 0 0 .26458 -3.3585 56.232)" points="2 54 2 62 10 62 10 58 6 58 6 54" style="fill:#808000;stroke-width:1.2607;stroke:#00ffff"/>
  <polygon transform="matrix(.26458 0 0 .26458 -3.3585 56.232)" points="54 58 54 62 62 62 62 54 58 54 58 58" style="fill:#808000;stroke-width:1.2607;stroke:#00ffff"/>
  <rect x="11.987" y="64.434" width="1.0583" height="5.5563" style="fill:#808000;stroke-width:.33355;stroke:#00ffff"/>
  <rect x="-2.8294" y="64.434" width="1.0583" height="5.5563" style="fill:#808000;stroke-width:.33355;stroke:#00ffff"/>
  <polygon transform="matrix(.26458 0 0 .26458 -3.3585 56.232)" points="58 29 58 2 6 2 6 29 8 29 15.38 29 18.38 23 21.38 23 23.38 19 26.38 19 28.38 15 35.62 15 37.62 19 40.62 19 42.62 23 45.62 23 48.62 29 56 29" style="fill:#808000;stroke-width:1.2607;stroke:#00ffff"/>
  <rect x="-.18354" y="71.578" width="10.583" height="1.0583" style="fill:#808000;stroke-width:.33355;stroke:#00ffff"/>
 </g>
</svg>
