<svg version="1.1" viewBox="0 0 20 20" xmlns="http://www.w3.org/2000/svg">
 <g transform="matrix(.20888 0 0 .20888 -.34345 -199.47)" fill="#f00">
  <path transform="translate(0 952.36)" d="m35.182 10.164v9.9883l3.2363 1.6582h0.0039v31.82h-6.9277v-9.5l3.2051-1.6543h0.03125v-9.7715h-6.5039v3.2676h-5.1094v-3.4844h-6.5039v3.4844h-5.1094v-3.4844h-6.5039v9.9883l3.3359 1.6543v45.703h32.92v-16.291c0-4.8932 3.8508-8.7422 8.7441-8.7422 4.8934 0 8.7441 3.8488 8.7441 8.7422v16.291h32.92v-45.703l3.3359-1.6543v-9.7715h-6.5039v3.2676h-5.1094v-3.4844h-6.5039v3.4844h-5.1094v-3.4844h-6.5039v9.9883l3.2363 1.6562v9.502h-6.9277v-31.824h0.0059l3.3301-1.6523v-9.9883h-6.5059v3.4844h-5.1074v-3.4844h-6.5059v3.4844h-5.1075v-3.4844zm14.818 14.77c2.0599 0 3.7188 1.6588 3.7188 3.7188v7.3047h-7.4375v-7.3047c0-2.06 1.6588-3.7188 3.7188-3.7188zm-30.135 17.674c2.0599 0 3.7188 1.6588 3.7188 3.7188v7.3047h-7.4375v-7.3047c1e-5 -2.0599 1.6588-3.7188 3.7188-3.7188zm60.27 0c2.0599 0 3.7188 1.6588 3.7188 3.7188v7.3047h-7.4375v-7.3047c0-2.0599 1.6588-3.7188 3.7188-3.7188z" fill="#f00"/>
 </g>
</svg>
