<svg version="1.1" viewBox="0 0 20 20" xmlns="http://www.w3.org/2000/svg">
 <g transform="matrix(.18729 0 0 .18729 1.1622 .56494)" fill="#f00">
  <path d="m94.436 10.072s-35.266 10.539-47.165-10.072c-11.743 20.337-47.221 8.145-47.221 8.145s-3.462 78.274 47.221 91.855c50.184-13.446 47.165-89.928 47.165-89.928zm-88.332 5.778s1.681 0.787 4.458 1.596l-4.293 2.477c-0.152-2.495-0.165-4.073-0.165-4.073zm23.83 66.483c0.677 0.645 1.378 1.262 2.092 1.872-0.714-0.61-1.415-1.227-2.092-1.872zm8.2 6.33c0.914 0.557 1.84 1.098 2.807 1.596-0.958-0.489-1.899-1.043-2.807-1.596zm9.137 4.292c-0.934-0.315-1.805-0.681-2.697-1.046-0.979-0.399-1.932-0.862-2.862-1.32 0.943 0.461 1.866 0.914 2.862 1.32l2.697-1.541zm0-9.851-9.356 5.448c-1.973-1.218-3.824-2.558-5.559-4.018l14.915-8.586zm0-14.419-19.648 11.337c-1.455-1.583-2.808-3.225-4.072-4.953l23.72-13.65zm0-14.53-27.133 15.685c-1.07-1.797-2.059-3.636-2.972-5.503l30.105-17.392zm0-14.474-32.692 18.877c-0.802-1.996-1.543-4.004-2.202-5.998l34.893-20.144v7.265zm0-14.474-36.709 21.188c-0.587-2.192-1.043-4.3-1.486-6.385-0.487-2.289-0.873-4.461-1.211-6.549-0.392-2.417-0.76-4.68-0.991-6.714-0.068-0.602-0.133-1.168-0.192-1.714-8e-3 -0.07-0.017-0.146-0.024-0.215-0.064-0.592-0.122-1.157-0.169-1.703 0.047 0.549 0.105 1.115 0.169 1.703 8e-3 0.07 0.016 0.144 0.024 0.215 0.06 0.55 0.124 1.114 0.192 1.714l13.154-7.65c0.019 1e-3 0.036-1e-3 0.055 0 4.866 0.348 10.56 0 16.4-2.201h-1e-3l-28.617 16.565c0.337 2.079 0.727 4.271 1.211 6.549l38.195-22.069zm0-14.64v0.108l-0.551 0.329c0.187-0.15 0.365-0.287 0.551-0.442z"/>
  <path d="m6.874 26.747c-0.068-0.6-0.132-1.165-0.192-1.714 0.059 0.546 0.124 1.113 0.192 1.714z"/>
  <path d="m9.076 40.01c-0.484-2.278-0.874-4.47-1.211-6.549 0.338 2.088 0.724 4.26 1.211 6.549z"/>
  <path d="m6.682 25.033c-8e-3 -0.071-0.016-0.145-0.024-0.215 7e-3 0.069 0.016 0.144 0.024 0.215z"/>
  <polygon points="36.483 16.896 36.484 16.896"/>
  <path d="m6.658 24.818c-0.064-0.588-0.122-1.154-0.169-1.703 0.047 0.546 0.105 1.111 0.169 1.703z"/>
  <path d="m40.941 90.259c-0.967-0.498-1.893-1.039-2.807-1.596 0.908 0.553 1.849 1.107 2.807 1.596z"/>
  <path d="m44.574 91.909c-0.996-0.406-1.919-0.859-2.862-1.32 0.93 0.458 1.882 0.921 2.862 1.32z"/>
 </g>
</svg>
