<?xml version="1.0" encoding="UTF-8" standalone="no"?>
<svg
   xmlns:dc="http://purl.org/dc/elements/1.1/"
   xmlns:cc="http://creativecommons.org/ns#"
   xmlns:rdf="http://www.w3.org/1999/02/22-rdf-syntax-ns#"
   xmlns:svg="http://www.w3.org/2000/svg"
   xmlns="http://www.w3.org/2000/svg"
   xmlns:sodipodi="http://sodipodi.sourceforge.net/DTD/sodipodi-0.dtd"
   xmlns:inkscape="http://www.inkscape.org/namespaces/inkscape"
   width="20"
   height="20"
   viewBox="0 0 20 20"
   version="1.1"
   id="svg838"
   inkscape:version="1.0.1 (3bc2e813f5, 2020-09-07)"
   sodipodi:docname="wings_angel.svg">
  <defs
     id="defs832" />
  <sodipodi:namedview
     id="base"
     pagecolor="#ffffff"
     bordercolor="#666666"
     borderopacity="1.0"
     inkscape:pageopacity="0.0"
     inkscape:pageshadow="2"
     inkscape:zoom="15.839192"
     inkscape:cx="12.686043"
     inkscape:cy="10.77133"
     inkscape:document-units="mm"
     inkscape:current-layer="layer1"
     inkscape:document-rotation="0"
     showgrid="false"
     units="px"
     inkscape:window-width="1267"
     inkscape:window-height="1040"
     inkscape:window-x="52"
     inkscape:window-y="0"
     inkscape:window-maximized="0"
     inkscape:pagecheckerboard="true" />
  <metadata
     id="metadata835">
    <rdf:RDF>
      <cc:Work
         rdf:about="">
        <dc:format>image/svg+xml</dc:format>
        <dc:type
           rdf:resource="http://purl.org/dc/dcmitype/StillImage" />
        <dc:title />
      </cc:Work>
    </rdf:RDF>
  </metadata>
  <g
     inkscape:label="Layer 1"
     inkscape:groupmode="layer"
     id="layer1">
    <path
       inkscape:connector-curvature="0"
       d="m 10.395699,8.1133432 c 4.670894,-2.0281101 5.555462,-6.4278611 5.555462,-6.4278611 0,0 1.939186,3.7844537 -0.340722,7.2531466 -1.873351,2.8499633 -4.141089,3.9070753 -4.141089,3.9070753 0,0 1.964458,-0.257725 3.972911,-1.485512 0,0 -0.951964,3.699585 -4.709895,4.423776 0,0 0.911713,0.320442 1.896439,0.190643 0,0 -0.537606,1.090187 -1.792538,1.640273 -1.2549327,0.550086 -1.8424604,0.180346 -1.8424604,0.180346 0,0 0.8377649,-3.401921 -1.8692943,-3.220328 0.5853444,0.14696 1.2271632,0.517637 1.346354,1.156335 0.4739534,2.540442 -3.5729065,3.913941 -4.9002269,0.73792 -1.3454172,-3.219391 2.1538532,-6.327703 6.8250596,-8.3558138 z"
       id="path4716"
       style="fill:#ffffff;fill-opacity:1;stroke:none;stroke-width:0.312017" />
  </g>
</svg>
