<?xml version="1.0" encoding="UTF-8" standalone="no"?>
<svg
   xmlns:dc="http://purl.org/dc/elements/1.1/"
   xmlns:cc="http://creativecommons.org/ns#"
   xmlns:rdf="http://www.w3.org/1999/02/22-rdf-syntax-ns#"
   xmlns:svg="http://www.w3.org/2000/svg"
   xmlns="http://www.w3.org/2000/svg"
   xmlns:sodipodi="http://sodipodi.sourceforge.net/DTD/sodipodi-0.dtd"
   xmlns:inkscape="http://www.inkscape.org/namespaces/inkscape"
   width="20"
   height="20"
   viewBox="0 0 20 20"
   version="1.1"
   id="svg838"
   inkscape:version="1.0.1 (3bc2e813f5, 2020-09-07)"
   sodipodi:docname="wings_demon.svg">
  <defs
     id="defs832" />
  <sodipodi:namedview
     id="base"
     pagecolor="#ffffff"
     bordercolor="#666666"
     borderopacity="1.0"
     inkscape:pageopacity="0.0"
     inkscape:pageshadow="2"
     inkscape:zoom="11.2"
     inkscape:cx="4.9753127"
     inkscape:cy="8.8274607"
     inkscape:document-units="mm"
     inkscape:current-layer="g855"
     inkscape:document-rotation="0"
     showgrid="false"
     units="px"
     inkscape:window-width="1299"
     inkscape:window-height="1040"
     inkscape:window-x="52"
     inkscape:window-y="0"
     inkscape:window-maximized="0"
     inkscape:pagecheckerboard="true" />
  <metadata
     id="metadata835">
    <rdf:RDF>
      <cc:Work
         rdf:about="">
        <dc:format>image/svg+xml</dc:format>
        <dc:type
           rdf:resource="http://purl.org/dc/dcmitype/StillImage" />
        <dc:title />
      </cc:Work>
    </rdf:RDF>
  </metadata>
  <g
     inkscape:label="Layer 1"
     inkscape:groupmode="layer"
     id="layer1">
    <g
       id="g4778"
       transform="matrix(0.25721038,0,0,0.25721038,-0.14694949,0.9399537)"
       style="fill:#800080">
      <g
         id="g855"
         transform="matrix(0.85041247,0,0,0.85041247,5.9012282,5.3477543)">
        <g
           id="g4748"
           style="fill:#9c4dcc;fill-opacity:1">
          <path
             inkscape:connector-curvature="0"
             d="m 35.6,26.7 c -0.1,0.2 -1.5,3.4 -3.3,3.3 -1.8,-0.1 -2.9,-3.4 -3.3,-4.8 -0.6,-2 -1.5,-6.4 0.9,-12.4 -0.8,0.5 -2,1.3 -3.3,2.4 -3.5,3.1 -4.5,6 -5.4,5.7 -0.9,-0.3 -0.7,-3.9 -0.3,-6.2 0.6,-4.5 2.2,-8 3.5,-10.4 -1.5,0.5 -3.4,1.5 -5,3.3 -3.4,3.7 -3.2,8.6 -4.3,8.6 -0.4,0 -1,-0.8 -1.7,-4.3 -0.5,0.6 -1.2,1.4 -1.9,2.4 C 10.1,16.2 9.3,18 9,18.9 7.2,24 10.5,29.3 9.5,29.8 9.1,30 10.2,28.7 9.4,27.9 9,27.5 9.1,29.2 8.8,29.5 8.6,29.7 9,33.9 9,34.2 c 0.2,1.8 -2,0 0,6.3 -0.1,0.8 -0.3,1.7 -0.3,2.6 -0.6,5.9 0.6,11 2,14.9 -0.1,-1.1 -0.1,-2.8 0.3,-4.7 0.4,-1.7 1.3,-4.4 2.1,-4.3 0.6,0.1 0.9,2.1 1,2.9 0.5,2.9 2.4,7 8.8,12.3 -0.3,-1.1 -0.7,-2.7 -1,-4.7 -0.2,-1.5 -1.6,-10.2 0.7,-11.4 0.7,-0.4 3.3,-0.8 12.8,11.4 z"
             id="path4744"
             style="fill:#9c4dcc;fill-opacity:1" />
          <path
             inkscape:connector-curvature="0"
             d="M 13.2,69.1 9.2,58.5 C 7.3,53.3 6.6,48.1 7.1,43 7.2,42.2 7.3,41.4 7.4,40.7 6.2,36.8 6.4,35.4 7.4,34.3 7,30.2 7.1,29.2 7.5,28.7 c 0,-0.1 0,-0.2 0,-0.3 0,-0.2 0.1,-0.5 0.2,-0.8 -0.6,-2.2 -1.4,-5.7 -0.2,-9.1 0.4,-1.2 1.3,-3.1 2.6,-5 0.6,-0.9 1.3,-1.8 2,-2.6 l 2.1,-2.3 0.6,3.1 c 0,0.2 0.1,0.5 0.1,0.7 0.6,-1.7 1.5,-3.8 3.2,-5.7 1.5,-1.6 3.4,-2.9 5.6,-3.7 l 3.9,-1.4 -2,3.7 c -1.7,3.1 -2.8,6.4 -3.3,9.8 -0.2,1.1 -0.2,2 -0.3,2.7 0.8,-1 1.9,-2.3 3.3,-3.6 1.1,-1 2.3,-1.8 3.5,-2.6 L 33,9 31.3,13.3 c -1.6,4.1 -1.9,8 -0.8,11.4 1,3.3 1.7,3.7 1.8,3.7 0.3,0 1.2,-1 1.8,-2.3 l 3.1,-7 -0.2,45 -2.8,-3.6 C 25.8,49.7 23.3,49.6 23.2,49.6 v 0 c -0.1,0.3 -0.8,2.7 0.3,9.7 0.2,1.5 0.6,3 1,4.5 l 1.4,4.9 -4,-3.2 c -5.1,-4.2 -8.2,-8.4 -9.2,-12.4 -0.1,0.2 -0.1,0.4 -0.2,0.7 -0.3,1.4 -0.4,2.8 -0.3,4.2 z M 13,47.4 c 0.1,0 0.2,0 0.3,0 1.8,0.2 2.1,2.4 2.4,3.9 0.5,2.7 2,5.5 4.7,8.3 -1.7,-11.2 0.7,-12.4 1.5,-12.9 1.8,-0.9 4.6,-0.5 11.9,8.3 L 34,31.1 c -0.5,0.3 -1.1,0.4 -1.7,0.4 -3,-0.1 -4.2,-4.1 -4.7,-6 -0.8,-2.7 -1,-5.7 -0.4,-8.8 -1.4,1.3 -2.3,2.5 -3,3.5 -1,1.3 -1.9,2.5 -3.3,2.1 -0.8,-0.2 -2.5,-0.7 -1.5,-8 0.3,-2.1 0.8,-4.1 1.5,-6.1 -0.1,0.1 -0.2,0.2 -0.3,0.4 -1.8,1.9 -2.4,4.3 -2.9,6 -0.5,1.6 -0.9,3.2 -2.5,3.2 0,0 0,0 0,0 -1.2,0 -1.9,-0.9 -2.5,-2.4 -1.4,2 -2,3.8 -2.1,4.1 -1,2.8 -0.2,5.7 0.4,7.7 0,0 0,0 0,0.1 0.4,0.6 0.4,1.3 0.4,1.8 0.1,0.9 -0.1,1.7 -0.9,2.1 0.1,1.1 0.2,2.5 0.2,2.9 0.1,1.3 -0.5,2 -0.8,2.3 -0.1,0.1 -0.2,0.8 0.7,3.7 l 0.1,0.4 -0.1,0.4 c -0.1,0.8 -0.3,1.6 -0.3,2.5 -0.2,2.3 -0.2,4.6 0.2,6.9 0.9,-2.6 1.9,-2.9 2.5,-2.9 z M 7.8,28.3 c 0,0.1 0,0.1 0,0 0,0.1 0,0.1 0,0 z"
             id="path4746"
             style="fill:#9c4dcc;fill-opacity:1" />
        </g>
        <g
           id="g4754"
           style="fill:#9c4dcc;fill-opacity:1">
          <polyline
             points="8.9,42.3 3.1,23.3 8.1,27.5   "
             id="polyline4750"
             style="fill:#9c4dcc;fill-opacity:1" />
          <polygon
             points="10.4,41.8 7.4,42.7 0,18.6 9.1,26.3 7.1,28.7 6.1,27.9 "
             id="polygon4752"
             style="fill:#9c4dcc;fill-opacity:1" />
        </g>
        <g
           id="g4760"
           style="fill:#9c4dcc;fill-opacity:1">
          <path
             inkscape:connector-curvature="0"
             d="m 43.3,27.5 c 0.1,0.2 1.5,3.4 3.3,3.3 1.8,-0.1 2.9,-3.4 3.3,-4.8 0.6,-2 1.5,-6.4 -0.9,-12.4 0.8,0.5 2,1.3 3.3,2.4 3.5,3.1 4.5,6 5.4,5.7 0.9,-0.3 0.7,-3.9 0.3,-6.2 -0.6,-4.5 -2.2,-8 -3.5,-10.4 1.5,0.5 3.4,1.5 5,3.3 3.4,3.7 3.2,8.6 4.3,8.6 0.4,0 1,-0.8 1.7,-4.3 0.5,0.6 1.2,1.4 1.9,2.4 1.3,1.9 2.1,3.7 2.4,4.7 1.8,5.1 -1.5,10.4 -0.5,10.9 0.4,0.2 -0.7,-1.1 0.1,-1.9 0.4,-0.4 0.3,1.3 0.6,1.6 0.2,0.1 -0.2,4.3 -0.2,4.7 -0.2,1.8 2,0 0,6.3 0.1,0.8 0.3,1.7 0.3,2.6 0.5,5.9 -0.6,11 -2.1,14.8 0.1,-1.1 0.1,-2.8 -0.3,-4.7 -0.4,-1.7 -1.3,-4.4 -2.1,-4.3 -0.6,0.1 -0.9,2.1 -1,2.9 -0.5,2.9 -2.4,7 -8.8,12.3 0.3,-1.1 0.7,-2.7 1,-4.7 C 57,58.8 58.4,50.1 56.1,48.9 55.4,48.5 52.8,48.1 43.3,60.3 Z"
             id="path4756"
             style="fill:#9c4dcc;fill-opacity:1" />
          <path
             inkscape:connector-curvature="0"
             d="m 65.8,69.9 0.9,-11.3 c 0.1,-1.4 0,-2.8 -0.3,-4.2 -0.1,-0.2 -0.1,-0.5 -0.2,-0.7 -1,4 -4.1,8.2 -9.2,12.4 l -4,3.2 1.4,-4.9 c 0.4,-1.5 0.8,-3 1,-4.5 1.1,-6.9 0.4,-9.4 0.1,-9.8 0,0.1 -2.5,0.4 -10.7,11 l -2.8,3.7 -0.2,-45.2 3.1,7.2 c 0.5,1.2 1.4,2.3 1.8,2.3 0.1,0 0.8,-0.4 1.8,-3.7 1,-3.4 0.7,-7.3 -0.8,-11.4 L 46,9.7 l 4,2.4 c 1.3,0.8 2.4,1.6 3.5,2.6 1.5,1.3 2.6,2.6 3.3,3.6 0,-0.8 -0.1,-1.7 -0.3,-2.7 C 56,12.2 54.9,8.9 53.2,5.8 l -2,-3.7 3.9,1.4 c 2.3,0.8 4.2,2.1 5.6,3.7 1.7,1.9 2.6,4 3.2,5.7 0,-0.2 0.1,-0.4 0.1,-0.7 l 0.6,-3.1 2.1,2.3 c 0.7,0.8 1.4,1.7 2,2.6 1.3,1.9 2.2,3.9 2.6,5 1.2,3.5 0.4,6.9 -0.2,9.1 0.1,0.3 0.1,0.6 0.2,0.8 0,0.1 0,0.2 0,0.3 0.3,0.5 0.5,1.5 0.1,5.6 1,1.1 1.2,2.5 0,6.4 0.1,0.8 0.2,1.5 0.3,2.3 0.5,5.1 -0.3,10.4 -2.2,15.5 z M 55.7,47.1 c 0.5,0 0.9,0.1 1.3,0.3 0.9,0.5 3.2,1.7 1.5,12.9 2.6,-2.8 4.2,-5.5 4.6,-8 0.3,-1.9 0.7,-4.1 2.4,-4.2 0.5,0 1.8,-0.2 2.9,2.7 0.3,-2.3 0.4,-4.6 0.2,-6.9 C 68.5,43 68.4,42.2 68.3,41.4 L 68.2,41 68.3,40.6 c 0.9,-2.9 0.8,-3.6 0.8,-3.7 -0.3,-0.3 -1,-1 -0.8,-2.3 0,-0.4 0.1,-1.8 0.2,-2.9 -0.8,-0.5 -1,-1.3 -0.9,-2.2 -0.1,-0.5 0,-1.2 0.4,-1.8 0,0 0,-0.1 0,-0.1 0.5,-2 1.3,-4.9 0.4,-7.7 -0.1,-0.3 -0.7,-2 -2.1,-4.1 -0.6,1.5 -1.3,2.4 -2.4,2.4 0,0 0,0 0,0 -1.6,0 -2.1,-1.6 -2.5,-3.2 -0.5,-1.7 -1.2,-4.1 -2.9,-6 -0.1,-0.1 -0.2,-0.2 -0.3,-0.4 0.7,2 1.2,4.1 1.5,6.1 1,7.2 -0.6,7.7 -1.5,8 -1.5,0.4 -2.4,-0.8 -3.3,-2.1 -0.7,-0.9 -1.6,-2.2 -3,-3.5 0.5,3.1 0.4,6.1 -0.4,8.8 -0.6,1.9 -1.8,5.8 -4.7,6 -0.6,0 -1.2,-0.1 -1.7,-0.4 l 0.1,23.9 c 5.7,-6.5 8.6,-8.3 10.5,-8.3 z"
             id="path4758"
             style="fill:#9c4dcc;fill-opacity:1" />
        </g>
        <g
           id="g4766"
           style="fill:#9c4dcc;fill-opacity:1">
          <polyline
             points="70,43 75.9,24 70.8,28.3   "
             id="polyline4762"
             style="fill:#9c4dcc;fill-opacity:1" />
          <polygon
             points="78.9,19.3 71.5,43.5 68.5,42.6 72.8,28.7 71.8,29.5 69.8,27 "
             id="polygon4764"
             style="fill:#9c4dcc;fill-opacity:1" />
        </g>
      </g>
    </g>
  </g>
</svg>
