<?xml version="1.0" encoding="UTF-8" standalone="no"?>
<svg
   xmlns:dc="http://purl.org/dc/elements/1.1/"
   xmlns:cc="http://creativecommons.org/ns#"
   xmlns:rdf="http://www.w3.org/1999/02/22-rdf-syntax-ns#"
   xmlns:svg="http://www.w3.org/2000/svg"
   xmlns="http://www.w3.org/2000/svg"
   xmlns:sodipodi="http://sodipodi.sourceforge.net/DTD/sodipodi-0.dtd"
   xmlns:inkscape="http://www.inkscape.org/namespaces/inkscape"
   width="20"
   height="20"
   viewBox="0 0 20 20"
   version="1.1"
   id="svg838"
   inkscape:version="1.0.1 (3bc2e813f5, 2020-09-07)"
   sodipodi:docname="wings_dragonkin.svg">
  <defs
     id="defs832" />
  <sodipodi:namedview
     id="base"
     pagecolor="#ffffff"
     bordercolor="#666666"
     borderopacity="1.0"
     inkscape:pageopacity="0.0"
     inkscape:pageshadow="2"
     inkscape:zoom="15.839192"
     inkscape:cx="6.1004553"
     inkscape:cy="13.283406"
     inkscape:document-units="mm"
     inkscape:current-layer="g4681"
     inkscape:document-rotation="0"
     showgrid="false"
     units="px"
     inkscape:window-width="1327"
     inkscape:window-height="1040"
     inkscape:window-x="52"
     inkscape:window-y="0"
     inkscape:window-maximized="0"
     inkscape:pagecheckerboard="true" />
  <metadata
     id="metadata835">
    <rdf:RDF>
      <cc:Work
         rdf:about="">
        <dc:format>image/svg+xml</dc:format>
        <dc:type
           rdf:resource="http://purl.org/dc/dcmitype/StillImage" />
        <dc:title />
      </cc:Work>
    </rdf:RDF>
  </metadata>
  <g
     inkscape:label="Layer 1"
     inkscape:groupmode="layer"
     id="layer1">
    <g
       style="clip-rule:evenodd;fill:#ff0000;fill-opacity:1;fill-rule:evenodd;image-rendering:optimizeQuality;shape-rendering:geometricPrecision;text-rendering:geometricPrecision"
       id="g4681"
       transform="matrix(0.42888203,0,0,0.42888203,-17.535276,-5.1148957)">
      <path
         style="fill:#c83737;fill-opacity:1;fill-rule:nonzero"
         inkscape:connector-curvature="0"
         class="fil0"
         d="m 70.125067,33.818121 c -1.02,1.11 -0.77,1.93 0.06,2.6 0.24,0.17 1.44,0.61 2.1,0.12 -0.7,-0.5 -0.63,-0.88 -0.58,-1.38 1.73,1.9 6.16,1.77 6.07,1.78 -0.45,0.08 -0.85,0.18 -1.27,0.28 -1.74,0.44 -2.66,1.05 -3.79,2.18 -0.36,0.37 -0.82,1.03 -0.81,1.05 l -0.09,-0.57 c -0.03,-0.2 0,-0.46 0.05,-0.71 0.06,-0.29 0.15,-0.49 0.3,-0.73 0.35,-0.58 0.5,-0.71 -0.35,-0.5 -2.48,0.79 -3.01,2.02 -1.26,3.93 1.7,1.86 4.7,3.46 6.45,4.48 -0.13,0.21 -0.67,0.29 -1.26,0.29 -3.83,-0.02 -5.98,-0.9 -4.88,2.28 0.57,3.24 -0.02,5.38 -3.43,6.32 1.57,-1.78 2.46,-4.96 0,-7.45 -4.35,-2.79 -7.95,-4.24 -13.06,-4.14 -1.95,0.28 -3.3,0.41 -4.38,1.36 0.2,1.07 -0.63,1.56 -1.55,1.75 -2.77,0.17 -4.77,-2 -4.14,-4.42 0.18,-0.71 1.16,-1.39 1.59,-2.03 1.89,-4.37 3.46,-6.72 5.19,-8.83 5.52,-6.19 10.53,-9.27 17.09,-12.06 1.08,-0.46 6.85,-2 7.39,-2.77 -0.9,-0.29 -0.94,-0.71 -1.06,-1.25 2.44,1.41 7.01,-0.2 6.92,-0.15 -0.44,0.23 -0.83,0.47 -1.23,0.71 -1.66,1.03 -2.42,1.97 -3.23,3.53 -0.25,0.5 -0.51,1.35 -0.5,1.36 l -0.27,-0.56 c -0.1,-0.2 -0.16,-0.48 -0.19,-0.76 -0.03,-0.31 -0.01,-0.55 0.07,-0.86 0.17,-0.72 0.29,-0.91 -0.53,-0.4 -4.16,2.95 1.14,7.68 3.16,5.78 -0.74,-0.42 -0.7,-0.81 -0.71,-1.31 1.92,1.71 6.31,1.12 6.22,1.15 -0.44,0.12 -0.83,0.26 -1.23,0.41 -1.69,0.61 -2.54,1.31 -3.54,2.56 -0.33,0.4 -0.71,1.11 -0.71,1.12 l -0.14,-0.55 c -0.05,-0.2 -0.05,-0.46 -0.03,-0.72 0.03,-0.29 0.1,-0.49 0.22,-0.76 0.3,-0.6 0.43,-0.75 -0.4,-0.45 -0.3,0.13 -0.57,0.25 -0.8,0.36 -2.3,1.11 -1.82,6 0.52,4.97 -0.55,-0.72 -0.37,-1.1 -0.2,-1.61 1.18,2.48 5.49,3.58 5.4,3.57 -0.45,-0.04 -0.87,-0.05 -1.3,-0.06 -1.79,-0.03 -2.84,0.35 -4.22,1.22 -0.44,0.27 -1.06,0.87 -1.06,0.86 l 0.07,-0.61 c 0.02,-0.22 0.11,-0.49 0.23,-0.74 0.13,-0.28 0.26,-0.46 0.47,-0.68 0.75,-0.76 -4.93,-1.4 -7.37,1.04 z"
         id="path4679" />
    </g>
  </g>
</svg>
