<svg version="1.1" viewBox="0 0 20 20" xmlns="http://www.w3.org/2000/svg">
 <g fill="#8d5fd3" stroke-width=".34551">
  <path d="m1.3846 7.5566v0.7546h0.69103v-0.7546c0.40114-0.14304 0.69103-0.52311 0.69103-0.97297 0-0.44157-0.52587-1.2511-0.75218-1.5783l-0.28436-0.41185-0.28436 0.41151c-0.22631 0.32755-0.75218 1.1371-0.75218 1.5787 0 0.44986 0.28989 0.82992 0.69103 0.97297z"/>
  <path d="m17.969 7.5566v0.7546h0.69103v-0.7546c0.40114-0.14304 0.69103-0.52311 0.69103-0.97297 0-0.44157-0.52587-1.2511-0.75218-1.5783l-0.28436-0.41185-0.28436 0.41151c-0.22631 0.32755-0.75218 1.1371-0.75218 1.5787 0 0.44986 0.28988 0.82992 0.69103 0.97297z"/>
  <path d="m6.9128 9.6932h0.72592c0.16066-0.78743 0.85826-1.3821 1.6927-1.3821 0.2657 0 0.51482 0.065302 0.74009 0.1731 0.08776-0.12128 0.18727-0.23253 0.29783-0.33135-0.37799-0.34033-0.86482-0.53278-1.3834-0.53278-1.1433 0-2.0731 0.92978-2.0731 2.0731z"/>
  <path d="m13.132 9.6932c0-0.7622-0.61985-1.3821-1.3821-1.3821-0.45228 0-0.87311 0.22631-1.1295 0.5891 0.1966 0.22251 0.34206 0.49132 0.40356 0.79295z"/>
  <path d="m9.3314 9.0022c-0.44986 0-0.82992 0.28989-0.97297 0.69103h1.9456c-0.1427-0.40114-0.52276-0.69103-0.97262-0.69103z"/>
  <path d="m1.0391 13.839h17.967c0.43258 0 0.80746-0.28228 0.93461-0.69103h-19.836c0.12715 0.40874 0.50203 0.69103 0.93461 0.69103z"/>
  <rect x=".69358" y="9.0022" width="2.0731" height="3.4551"/>
  <rect x="17.278" y="9.0022" width="2.0731" height="3.4551"/>
  <path d="m8.6404 12.457h2.7641c1.2166 0 2.2258-0.90248 2.3941-2.0731h-7.5522c0.16827 1.1706 1.1775 2.0731 2.3941 2.0731z"/>
  <path d="m13.823 9.6932h0.69103v0.34551c0 0.97642-0.45331 1.8482-1.1595 2.4186h1.8506v-5.5282c0-0.32444-0.15514-0.63471-0.41462-0.82923l-0.55282-0.41462c-0.25983-0.19487-0.41462-0.5048-0.41462-0.82923v-1.3821h-1.3821v1.3821c0 0.32444-0.15479 0.63436-0.41427 0.82923l-0.55317 0.41462c-0.25948 0.19452-0.41462 0.50445-0.41462 0.82923v0.8161c0.2194-0.078432 0.45159-0.12508 0.69103-0.12508 1.1433 0 2.0731 0.92978 2.0731 2.0731z"/>
  <rect x="11.75" y="2.0919" width="2.7645" height=".69103"/>
  <path d="m6.2218 9.6932c0-1.0203 0.55731-1.9114 1.3821-2.3903v-0.40149c-0.11333 0.016239-0.22804 0.027641-0.34551 0.027641-0.39941 0-0.78708-0.097089-1.135-0.28228-0.27987 0.18312-0.60534 0.28228-0.93807 0.28228-0.11851 0-0.23357-0.014166-0.34551-0.03697v5.5652h1.8506c-0.70623-0.57044-1.1595-1.4422-1.1595-2.4186v-0.34551z"/>
  <path d="m3.8751 4.8284 0.28574 0.057701-0.013821 0.34828c0.00173 0.53866 0.46679 1.0037 1.0383 1.0037 0.31925 0 0.54902-0.14477 0.6855-0.26605l0.2004-0.17828 0.22251 0.1503c0.28539 0.19245 0.61881 0.29403 0.96467 0.29403 0.95258 0 1.7276-0.77499 1.7276-1.7276 0-0.26259-0.059428-0.51758-0.1769-0.75737l-0.14512-0.29645 0.28954-0.15859c0.4464-0.24428 0.72351-0.70658 0.72351-1.2062 0-0.7622-0.61985-1.3821-1.3821-1.3821-0.19902 0-0.39734 0.046299-0.58979 0.13786l-0.26017 0.12335-0.16861-0.23322c-0.32478-0.4502-0.84824-0.71901-1.4-0.71901-0.95258 0-1.7276 0.77499-1.7276 1.7276l0.00587 0.31649-0.28125 0.056664c-0.64127 0.12957-1.1067 0.69932-1.1067 1.3544 0 0.65544 0.4661 1.2252 1.1084 1.3544z"/>
  <path d="m18.66 17.986v-3.4551h-4.1462v3.4551zm-3.4551-2.7641h2.7641v0.69103h-2.7641zm0 1.3821h2.7641v0.69103h-2.7641z"/>
  <path d="m5.5308 17.986v-3.4551h-4.1462v3.4551zm-3.4551-2.4186c0.48856 0 0.747 0.2581 0.93531 0.44675 0.1693 0.1693 0.25257 0.24428 0.44675 0.24428 0.19418 0 0.27745-0.07498 0.44675-0.24428 0.1883-0.18865 0.44675-0.44675 0.93531-0.44675v0.69103c-0.19418 0-0.27745 0.07498-0.44675 0.24428-0.1883 0.18865-0.44675 0.44675-0.93531 0.44675s-0.747-0.2581-0.93531-0.44675c-0.1693-0.1693-0.25257-0.24428-0.44675-0.24428z"/>
  <path d="m19.351 14.49v4.1862h-5.5282v-4.1462h-0.69103v4.1462h-6.2192v-4.1462h-0.69103v4.1462h-5.5282v-4.1862c-0.25499-0.0539-0.49132-0.16239-0.69103-0.31995v5.8882h20.04v-5.8882c-0.19971 0.15756-0.43604 0.26639-0.69103 0.31995z"/>
  <path d="m12.441 17.986v-3.4551h-4.8372v3.4551zm-1.3821-2.0731h0.69103v0.69103h-0.69103zm-1.3821 0h0.69103v0.69103h-0.69103zm-1.3821 0h0.69103v0.69103h-0.69103z"/>
 </g>
</svg>
