<svg version="1.1" viewBox="0 0 20 20" xmlns="http://www.w3.org/2000/svg">
 <path d="m10.042 1.7941c-1.648 1.648-2.0968 4.0314-1.3658 6.0905l-8.2808 8.2808-0.37524 3.562 4.7063-0.80598 0.19687-2.1655 2.1655-0.19686 0.19688-2.1655 2.1655-0.19686 2.7684-2.7685c2.0593 0.73108 4.4426 0.28231 6.0905-1.3657 2.2833-2.2833 2.2832-5.9853-6e-6 -8.2686-2.2833-2.2833-5.9853-2.2833-8.2683 0zm4.331 1.5749c0.65235-0.65235 1.71-0.65235 2.3624 8.4e-6 0.65235 0.65235 0.65235 1.71 0 2.3624-0.65235 0.65235-1.71 0.65235-2.3624-5.6e-6 -0.65235-0.65235-0.65235-1.7101-3e-6 -2.3624z" color="#000000" fill="#fd5" overflow="visible" stroke-width=".27841"/>
</svg>
