<svg version="1.1" viewBox="0 0 20 20" xmlns="http://www.w3.org/2000/svg">
 <g transform="matrix(.66102 0 0 .66102 -.27798 -.51958)" style="fill:#aade87">
  <g style="fill:#aade87">
   <path d="m5 19.991 1.9292 8.6369c0.3096 1.3861 1.5453 2.3723 2.9724 2.3723h12.197c1.4271 0 2.6628-0.98618 2.9724-2.3723l1.9292-8.6369z" style="fill:#aade87"/>
  </g>
  <g style="fill:#aade87">
   <path d="m22.113 7.0818c0-0.73218-0.56854-1.3937-1.4766-1.9108 0.27454-1.0043 0.20648-1.872-0.3139-2.3897-0.52032-0.5177-1.3925-0.58545-2.402-0.31232-0.51965-0.90338-1.1846-1.469-1.9205-1.469s-1.4008 0.56561-1.9205 1.469c-1.0095-0.27313-1.8817-0.20538-2.402 0.31232-0.52038 0.5177-0.58844 1.3854-0.3139 2.3897-0.90802 0.51703-1.4766 1.1786-1.4766 1.9108s0.56854 1.3937 1.4766 1.9108c-0.27454 1.0043-0.20648 1.872 0.3139 2.3897 0.52032 0.5177 1.3926 0.58545 2.402 0.31232 0.51971 0.90338 1.1846 1.469 1.9205 1.469 0.73596 0 1.4009-0.56561 1.9205-1.469 1.0095 0.27313 1.8817 0.20538 2.402-0.31232 0.52038-0.5177 0.58844-1.3854 0.3139-2.3897 0.90802-0.51703 1.4766-1.1786 1.4766-1.9108zm-6.113 1.7421c-1.1046 0-2-0.89087-2-1.9898s0.89545-1.9898 2-1.9898 2 0.89087 2 1.9898-0.89545 1.9898-2 1.9898z" style="fill:#aade87"/>
  </g>
  <g style="fill:#aade87">
   <path d="m16 20.307c-0.27637 0-0.5-0.22363-0.5-0.5v-6.6436c0-0.27637 0.22363-0.5 0.5-0.5s0.5 0.22363 0.5 0.5v6.6436c0 0.27637-0.22363 0.5-0.5 0.5z" style="fill:#aade87"/>
  </g>
  <g style="fill:#aade87">
   <path d="m16 16.604s-2.7664-3.4862-7.1311-1.8349c0 0 1.4754 3.4862 7.1311 1.8349z" style="fill:#aade87"/>
  </g>
  <g style="fill:#aade87">
   <path d="m16 16.604s2.7664-3.4862 7.1311-1.8349c0 0-1.4754 3.4862-7.1311 1.8349z" style="fill:#aade87"/>
  </g>
 </g>
</svg>
