<svg version="1.1" viewBox="0 0 20 20" xmlns="http://www.w3.org/2000/svg">
 <g fill="#59f" stroke-width=".25655">
  <path d="m8.6313 4.9506c-0.9749 0-1.7702 0.79531-1.7702 1.7702 0 0.9749 0.79531 1.7702 1.7702 1.7702 0.9749 0 1.7702-0.79531 1.7702-1.7702 0-0.97489-0.76965-1.7702-1.7702-1.7702z"/>
  <path d="m10.273 9.158h-3.2839c-0.84662 0-1.5393 0.69269-1.5393 1.5393v1.4367h6.3881v-1.4367c0-0.84661-0.69269-1.5393-1.565-1.5393z"/>
  <path d="m8.6313 0.10177c-4.6692 0-8.4918 3.797-8.4918 8.4918 0 4.6692 3.797 8.4918 8.4918 8.4918 1.5137 0 3.0273-0.41048 4.3614-1.2058l0.30786-0.17959 3.8996 3.8483c0.25655 0.25655 0.59007 0.41048 0.9749 0.41048 0.35917 0 0.71834-0.15393 0.97489-0.41048 0.25655-0.25655 0.41048-0.59007 0.41048-0.9749 0-0.38482-0.15393-0.69268-0.41048-0.97489l-3.8226-3.7713 0.33352-0.48745c0.94924-1.411 1.4623-3.053 1.4623-4.7462 0-4.6949-3.797-8.4918-8.4918-8.4918zm0 14.649c-3.4121 0-6.1829-2.7708-6.1829-6.1829 0-3.4121 2.7708-6.1829 6.1829-6.1829 3.4121 0 6.1829 2.7708 6.1829 6.1829 0 3.4121-2.7708 6.1829-6.1829 6.1829z"/>
 </g>
</svg>
