<svg version="1.1" viewBox="0 0 20 20" xmlns="http://www.w3.org/2000/svg">
 <g fill="#f95">
  <g transform="matrix(.82401 0 0 .82401 14.704 -230.51)" stroke-width=".26458">
   <circle cx="-6.0077" cy="284.25" r="4.4979"/>
   <path d="m-7.7089 294.98-2.9289-5.1779h-0.80698a3.0145 3.0145 0 0 0-3.0295 2.9924v9.6679a1.6379 1.6379 0 0 0 1.6431 1.6272h6.2944v-7.1438a0.15064 0.15064 0 0 1 0.00265-0.0344zm-2.0029 0.37835h-1.5875a0.52917 0.52917 0 0 1 0-1.0583h1.5875a0.52917 0.52917 0 0 1 0 1.0583z"/>
   <path d="m-0.57047 289.8h-0.80433l-2.8205 5.2493-1.2409 2.159c-0.013229 0.0212-0.026458 0.0423-0.042333 0.0635v6.8157h6.2944a1.6379 1.6379 0 0 0 1.6431-1.6272v-9.6679a3.0145 3.0145 0 0 0-3.0295-2.9924zm-0.14552 5.8208h-1.5875a0.52917 0.52917 0 0 1 0-1.0583h1.5875a0.52917 0.52917 0 0 1 0 1.0583z"/>
   <path d="m-4.2773 292.26-1.0081 1.2091 0.48948 0.46831 0.013229 0.0132-0.31221 0.5424-0.023813 0.045-0.78846 1.3705-0.889-1.4632-0.34925-0.57679 0.015875-0.0132 0.39952-0.38629-1.0081-1.2091a0.53426 0.53426 0 0 1 0-0.67734l1.3229-1.5875a0.54999 0.54999 0 0 1 0.81492 0l1.3229 1.5875a0.53426 0.53426 0 0 1 0 0.67734z"/>
  </g>
  <polygon transform="matrix(.21802 0 0 .21802 -.71118 -.42457)" points="45.02 57.54 43.7 55.36 43.76 55.31"/>
  <polygon transform="matrix(.21802 0 0 .21802 -.71118 -.42457)" points="51.45 57.72 52.58 55.62 52.63 55.67"/>
 </g>
</svg>
