<svg version="1.1" viewBox="0 0 20 20" xmlns="http://www.w3.org/2000/svg">
 <g fill="#80ff80" stroke-width=".22135">
  <path d="m12.08 4.7052c0.50912-0.24349 0.9961-0.46484 1.5716-0.46484 0.26563 0 0.53125 0.02217 0.79688 0.088539-0.26563-0.59765-0.86328-0.99609-1.5716-0.99609-0.95182 0-1.7266 0.77474-1.7266 1.7266v0.02217c0.33203-0.11068 0.64193-0.2435 0.92969-0.37631z"/>
  <path d="m6.3029 4.2404c0.73047 0 1.2617 0.26563 1.7708 0.50911 0.24349 0.11068 0.46484 0.22135 0.73047 0.3099 0-0.95183-0.77474-1.7266-1.7266-1.7266-0.6862 0-1.2839 0.39844-1.5716 0.99609 0.26563-0.066427 0.53125-0.088539 0.79688-0.088539z"/>
  <path d="m13.431 12.785c0-1.793 1.4609-3.2318 3.2318-3.2318 0.15495 0 0.28776 0 0.42057 0.02217-0.42057-0.28776-0.92969-0.44271-1.4609-0.44271-1.4388 0-2.6341 1.1732-2.6341 2.6341 0 0.53125 0.15495 1.0404 0.44271 1.4609 0.02213-0.15495 0-0.28776 0-0.4427z"/>
  <path d="m18.522 8.5568-2.8776-2.8555v0.02217c-0.50912-0.53125-1.2174-0.84115-2.0143-0.84115-1.0182 0-1.8594 1.0182-3.6745 1.0182-1.8151 0-2.3906-1.0182-3.6745-1.0182-0.79688 0-1.5052 0.3099-2.0143 0.84115l-2.6563 2.6784c-0.26563 0.19921-0.50912 0.4427-0.70833 0.70833-0.55339 0.73047-0.88542 1.638-0.88542 2.6341 0 2.3685 1.9258 4.2943 4.2943 4.2943 1.8594 0 3.431-1.1732 4.0287-2.8333 0.39844 0.44271 0.97396 0.73047 1.638 0.73047 0.66406 0 1.2396-0.28776 1.638-0.73047 0.59766 1.6602 2.1693 2.8333 4.0287 2.8333 2.3685 0 4.2943-1.9258 4.2943-4.2943 0-1.2617-0.55339-2.3906-1.4167-3.1875zm-14.211 6.5742c-1.8594 0-3.3867-1.5052-3.3867-3.3867 0-1.8815 1.5273-3.3646 3.3867-3.3646s3.3867 1.5052 3.3867 3.3867c0 1.8815-1.5273 3.3646-3.3867 3.3646zm5.6667-2.3685c-0.55339 0-1.0182-0.46485-1.0182-1.0182 0-0.55338 0.46484-1.0182 1.0182-1.0182 0.55339 0 1.0182 0.46485 1.0182 1.0182 0 0.57552-0.46484 1.0182-1.0182 1.0182zm5.6667 2.3685c-1.8594 0-3.3867-1.5052-3.3867-3.3867 0-1.8815 1.5052-3.3867 3.3867-3.3867 1.8815 0 3.3867 1.5052 3.3867 3.3867 0 1.8815-1.5273 3.3867-3.3867 3.3867z"/>
  <path d="m2.0972 12.785c0-1.793 1.4609-3.2318 3.2318-3.2318 0.15495 0 0.28776 0 0.42057 0.02217-0.42057-0.28776-0.92969-0.44271-1.4609-0.44271-1.4388 0-2.6341 1.1732-2.6341 2.6341 0 0.53125 0.15495 1.0404 0.44271 1.4609 0.022135-0.15495 0-0.28776 0-0.4427z"/>
 </g>
</svg>
