<svg version="1.1" viewBox="0 0 20 20" xmlns="http://www.w3.org/2000/svg">
 <g fill="#80e5ff" stroke-width=".044025">
  <path d="m10.967 7.0349s3.9521-0.34075 5.4525 6.2683c0 0 0.88578 3.7478-0.23862 5.349 0 0-0.54503 1.2912-3.2706 1.2912h-6.2692c-1.0799 0-2.1216-0.4517-2.822-1.2736-0.49484-0.58157-0.87478-1.4018-0.82371-2.5389 0.10214-2.2739 1.5849-3.61 2.3188-4.1344a6.919 6.919 0 0 0 1.0923-0.96459c0.43012-0.47283 0.94257-1.1006 1.1539-1.6122 0.64717-1.5673 2.3602-2.3848 3.4066-2.3848z"/>
  <path d="m9.6977 4.9256a2.1629 2.1629 0 0 0-0.036101 0.59786 0.57849 0.57849 0 0 0 0.60534 0.53446c0.56-0.025974 1.4867-0.010999 2.2862 0.2778a0.58377 0.58377 0 0 0 0.74094-0.31698l0.0075-0.017168a0.57541 0.57541 0 0 0-0.10215-0.61063c-0.34604-0.37949-1.1675-0.95578-2.9497-0.91792a0.57585 0.57585 0 0 0-0.55207 0.45258z"/>
  <path d="m8.2787 1.2588a3.4489 3.4489 0 0 1 1.8984-0.56396 0.39138 0.39138 0 0 1 0.39182 0.39314v2.1643a0.39182 0.39182 0 0 1-0.31082 0.38302l-0.36321 0.076163a0.38654 0.38654 0 0 1-0.25314-0.031698c-0.32226-0.16025-1.1561-0.68767-1.5237-1.9842a0.39358 0.39358 0 0 1 0.16069-0.43673z"/>
  <path d="m11.618 0.76836-0.21484 2.3954a0.44025 0.44025 0 0 0 0.34648 0.46975 3.7707 3.7707 0 0 1 1.4594 0.67534 0.44025 0.44025 0 0 0 0.56484-0.036981c0.41956-0.40019 1.3067-1.1306 2.4971-1.4858a0.76427 0.76427 0 0 0 0.35836-1.2327c-0.64981-0.74842-1.9076-1.6144-4.2264-1.5281a0.81798 0.81798 0 0 0-0.78496 0.74314z"/>
  <path d="m6.4301 3.5094a7.7281 7.7281 0 0 1 2.1572 1.1006 0.50761 0.50761 0 0 1 0.20163 0.45786 3.9803 3.9803 0 0 0-0.0044028 0.72245 0.50805 0.50805 0 0 1-0.23069 0.46887 5.5361 5.5361 0 0 0-1.1077 0.94566 0.47899 0.47899 0 0 1-0.72289-0.0044094 0.47679 0.47679 0 0 1-0.023333-0.5939 2.192 2.192 0 0 1 0.66037-0.59346 0.37949 0.37949 0 0 0 0.18623-0.29233 0.38038 0.38038 0 0 0-0.18711-0.3654 4.5755 4.5755 0 0 0-1.2816-0.50673 0.67842 0.67842 0 0 1-0.53798-0.70132c0-0.015408 0-0.031259 0.00352-0.047547a0.6771 0.6771 0 0 1 0.88666-0.59038z"/>
 </g>
</svg>
