<svg version="1.1" viewBox="0 0 20 20" xmlns="http://www.w3.org/2000/svg">
 <path d="m8.4645 0.65535-5.6551 5.6551c-0.86514 0.86514-0.86514 2.2789 0 3.1441 0.86514 0.86514 2.2789 0.86514 3.1441 0l1.8569-1.8569v10.234c0 1.2239 0.99175 2.2156 2.2156 2.2156 1.2239 0 2.2156-0.99175 2.2156-2.2156v-10.255l1.878 1.878c0.86514 0.86514 2.2789 0.86514 3.1441 0 0.44312-0.44312 0.65413-0.99175 0.65413-1.5615s-0.21101-1.1395-0.65413-1.5615l-5.6762-5.6762c-0.42202-0.42202-0.97065-0.65413-1.5615-0.65413-0.59083 0-1.1606 0.23211-1.5615 0.65413z" fill="#f00" stroke-width=".21101"/>
</svg>
