<?xml version="1.0" encoding="UTF-8" standalone="no"?>
<svg
   xmlns:dc="http://purl.org/dc/elements/1.1/"
   xmlns:cc="http://creativecommons.org/ns#"
   xmlns:rdf="http://www.w3.org/1999/02/22-rdf-syntax-ns#"
   xmlns:svg="http://www.w3.org/2000/svg"
   xmlns="http://www.w3.org/2000/svg"
   xmlns:xlink="http://www.w3.org/1999/xlink"
   width="600"
   height="450"
   viewBox="0 0 600 450"
   version="1.1"
   id="svg8">
  <style
     id="styles">.region:hover { opacity: 1; }
.region { stroke: none; fill: rgba(255,255,0,0.15); opacity: 0; transition: opacity 0.25s; filter: url(#region-blur) }
.EDITOR_STYLES .region { stroke: none; fill: black; opacity: 0.25; filter: none }
</style>
  <defs
     id="defs" />
  <metadata
     id="metadata">
    <rdf:RDF>
      <cc:Work
         rdf:about="">
        <dc:format>image/svg+xml</dc:format>
        <dc:type
           rdf:resource="http://purl.org/dc/dcmitype/StillImage" />
        <dc:title></dc:title>
      </cc:Work>
    </rdf:RDF>
  </metadata>
  <filter
     id="region-blur"
     x="-50%"
     y="-50%"
     width="200%"
     height="200%">
    <feGaussianBlur
       stdDeviation="5"
       id="feGaussianBlur6" />
  </filter>
  <g
     id="worldmap"
     class="EDITOR_STYLES">
    <image
       xlink:href="..%5C..%5Cdist%5Cimg%5Cnoembed%5Cmap.jpg"
       y="0"
       x="0"
       id="mapimage"
       preserveAspectRatio="none"
       height="450"
       width="600" />
    <path
       id="region_desert"
       data-tooltip="&lt;&lt;lorecardkey 'region_desert'&gt;&gt;"
       data-tooltip-distance="0"
       d="m 433.05853,144.88796 c 55.66852,-23.17595 170.69544,-18.19376 168.86449,-23 v 302.65852 c 0,0 -64.85591,-26.7956 -82.80091,-79.5369 -12.07209,-35.48051 -60.67049,-6.4434 -75.82385,-30.81665 C 424.5546,284.04492 383.38242,174.39565 433.05853,144.88796 Z"
       class="region" />
    <path
       id="region_vale"
       data-tooltip="&lt;&lt;lorecardkey 'region_vale'&gt;&gt;"
       data-tooltip-distance="0"
       d="m 112,0 356.74115,-0.18969427 c 0,0 -13.73873,75.69879727 -43,93.74601027 C 355.56545,136.83796 252.042,122.163 178.54777,84.792864 146.52068,68.50782 112,0 112,0 Z"
       class="region" />
    <path
       id="region_sea"
       data-tooltip="&lt;&lt;lorecardkey 'region_sea'&gt;&gt;"
       data-tooltip-distance="0"
       d="m 1,247.67908 c 9.62646,-14.7959 25.635488,-22.16248 27.45976,-8.90816 18.300491,132.96299 82.23833,137.75025 67.473237,95.20909 -2.332519,-6.72045 -19.541627,-4.98971 -18.855659,-29.57963 0.488978,-17.52839 22.541591,0.7006 9.766277,-32.35432 -5.073703,-13.12773 4.152916,-56.67353 26.848105,-74.39176 14.78287,-11.54104 56.47925,5.11533 70.97486,13.22776 19.72466,11.03885 59.41426,90.76485 71.03881,107.64921 34.17868,49.64366 46.53644,-1.62426 60.46207,13.32798 12.44746,13.3651 98.47363,23.03573 77.88279,40.6253 -21.37915,18.26299 76.6056,70.29133 63.98447,77.51545 H 0 Z"
       class="region"
       style="stroke-width:0.962994" />
    <path
       id="location_fort"
       data-tooltip="&lt;&lt;lorecardkey 'location_fort'&gt;&gt;"
       data-tooltip-distance="0"
       d="m 173.31622,104.17947 c 18.66042,-18.660417 60.50903,-18.660417 79.16945,0 19.22726,19.22726 19.22726,62.34711 0,81.57437 -18.66042,18.66042 -60.50903,18.66042 -79.16945,0 -19.22726,-19.22726 -19.22726,-62.34711 0,-81.57437 z"
       class="region" />
    <path
       id="region_city"
       data-tooltip="&lt;&lt;lorecardkey 'region_city'&gt;&gt;"
       data-tooltip-distance="0"
       d="m 209.23275,217.87901 c 40.86762,-31.42493 82.31439,-35.31401 123.18202,-3.88908 33.06477,25.42496 117.28218,52.62241 44.90128,126.25379 -92.35914,93.95476 -205.9702,-80.80207 -168.0833,-122.36471 z"
       class="region"
       style="stroke-width:0.965697" />
    <path
       id="region_forest"
       data-tooltip="&lt;&lt;lorecardkey 'region_forest'&gt;&gt;"
       data-tooltip-distance="0"
       d="m 0.48155659,-0.03444 c 0,0 88.67165541,5.8448079 116.33974341,37.45901 17.96488,20.527092 53.03601,138.81884 4.68866,169.07701 C 89.055028,226.81349 146.68502,346.44602 96.667822,360.23393 9.7996469,384.18031 39.571465,313.93164 0.48155659,248.03273 Z"
       class="region" />
  </g>
</svg>
