<svg version="1.1" viewBox="0 0 20 20" xmlns="http://www.w3.org/2000/svg">
 <path class="fil1" d="m0.83495 10.722c0.64531-1.0076 1.444-1.6402 2.1917-2.7928 0.39501-0.52439 0.70507-0.56274 1.0575-0.21762l2.7819 2.574c0.49922 0.51239 0.7573 0.6559 1.1659 0.05436 2.4855-3.5517 6.7075-6.8136 8.5803-8.1491 0.80153-0.52839 0.93915 0.017157 1.0895 0.20467 0.52204 0.78976 1.4527 2.3554 1.6682 3.4437 0.10515 0.57943 0.2696 1.0739-0.3743 1.432-3.3595 1.7049-7.6979 6.6658-10.589 10.433-0.38582 0.49451-1.0356 0.2729-1.2598 0-1.7294-2.147-3.8255-4.1034-5.9415-5.498-0.69519-0.40911-0.8754-0.70883-0.37029-1.4847z" clip-rule="evenodd" fill="#008000" fill-rule="evenodd" image-rendering="optimizeQuality" shape-rendering="geometricPrecision" stroke="#fff" stroke-width="1.0112"/>
</svg>
