<svg version="1.1" viewBox="0 0 20 20" xmlns="http://www.w3.org/2000/svg">
 <path d="m9.9746 1.0393c-0.014471 0-0.029483 6.936e-4 -0.043899 8.588e-4 -0.20184 0.00501-0.40124 0.058181-0.57839 0.15574-0.20246 0.11144-0.37415 0.27929-0.48949 0.48045l-8.6725 15.119c-0.11042 0.19254-0.17012 0.41499-0.17012 0.6373 8.58e-6 0.22232 0.059683 0.44476 0.17012 0.63728 0.11043 0.19255 0.27187 0.3549 0.46315 0.4661 0.19128 0.1112 0.41236 0.17112 0.63326 0.1712h17.344c0.2209 0 0.44198-0.06002 0.63326-0.1712 0.19129-0.1112 0.35272-0.27355 0.46315-0.4661 0.11044-0.19251 0.17011-0.41496 0.17011-0.63728 1e-5 -0.22231-0.05969-0.44476-0.17011-0.6373l-8.6726-15.119c-0.21099-0.36798-0.61546-0.61618-1.0372-0.63618-0.014398-6.937e-4 -0.028334-8.588e-4 -0.042805-8.588e-4zm-0.036216 4.0214c0.35119-0.00501 0.70308 0.13222 0.95154 0.37111 0.24846 0.23888 0.39021 0.57658 0.38523 0.91452v5.2132c0.0049 0.33475-0.13436 0.66949-0.37864 0.9079-0.24428 0.23839-0.59044 0.37773-0.93837 0.37773s-0.693-0.13934-0.93728-0.37773c-0.24428-0.23841-0.38466-0.57314-0.37974-0.9079v-5.2132c-0.004839-0.33159 0.13303-0.66337 0.37315-0.90126 0.24012-0.2379 0.5795-0.37939 0.92411-0.38436zm0.019742 8.7398c0.78622 0 1.4246 0.6413 1.4246 1.4325 0 0.79122-0.63835 1.4325-1.4246 1.4325-0.78622 0-1.4235-0.6413-1.4235-1.4325 0-0.79122 0.63725-1.4325 1.4235-1.4325z" fill="#fff"/>
 <rect x="8.3592" y="5.4981" width="3.7961" height="11.609" fill="#fff"/>
 <path d="m9.9726 2.6262c-0.012671 0-0.025817 5.945e-4 -0.038439 7.597e-4 -0.17674 0.00439-0.35134 0.050946-0.50646 0.13637-0.17729 0.097586-0.32762 0.24456-0.42862 0.4207l-7.5941 13.239c-0.096689 0.1686-0.14897 0.36338-0.14896 0.55805 7.6e-6 0.19467 0.052261 0.38945 0.14896 0.55803 0.096701 0.1686 0.23806 0.31076 0.40555 0.40814 0.1675 0.09737 0.36108 0.14984 0.55451 0.14991h15.187c0.19343 0 0.38702-0.05255 0.55451-0.14991 0.1675-0.09737 0.30886-0.23953 0.40556-0.40814 0.0967-0.16857 0.14895-0.36336 0.14896-0.55803 7e-6 -0.19467-0.05227-0.38945-0.14896-0.55805l-7.5941-13.239c-0.18475-0.32222-0.53892-0.53956-0.90817-0.55707-0.012608-5.946e-4 -0.024809-7.597e-4 -0.037482-7.597e-4zm-0.031713 3.5213c0.30752-0.00439 0.61565 0.11578 0.83321 0.32496 0.21756 0.20917 0.34168 0.50488 0.33732 0.80079v4.5649c0.0043 0.29312-0.11765 0.58623-0.33156 0.79499-0.2139 0.20875-0.51702 0.33076-0.82168 0.33076-0.30467 0-0.60682-0.12201-0.82072-0.33076-0.2139-0.20876-0.33682-0.50187-0.33252-0.79499v-4.5649c-0.0042378-0.29035 0.11649-0.58088 0.32675-0.78918 0.21026-0.20831 0.50743-0.33221 0.80919-0.33656zm0.017288 7.653c0.68845 0 1.2474 0.56155 1.2474 1.2544 0 0.69282-0.55897 1.2544-1.2474 1.2544-0.68845 0-1.2465-0.56155-1.2465-1.2544 0-0.69282 0.558-1.2544 1.2465-1.2544z" fill="#806600"/>
</svg>
