<svg version="1.1" viewBox="0 0 20 20" xmlns="http://www.w3.org/2000/svg">
 <g fill="#fff">
  <rect x="1.4491" y="6.3447" width="16.716" height="8.1358"/>
  <path d="m9.9921 0.041116c-5.512 0-9.9799 4.4679-9.9799 9.9799 0 5.5117 4.4682 9.9799 9.9799 9.9799 5.5117 0 9.9799-4.4684 9.9799-9.9799 0-5.512-4.4682-9.9799-9.9799-9.9799zm6.5089 12.337h-13.018v-4.7145h13.018v4.7145z" stroke-width=".22332"/>
  <rect x="3.4832" y="7.6639" width="13.018" height="4.7145"/>
 </g>
 <path d="m9.9303 1.1136c-4.849 0-8.7796 3.9306-8.7796 8.7796 0 4.8488 3.9308 8.7796 8.7796 8.7796 4.8488 0 8.7795-3.9309 8.7795-8.7796 0-4.849-3.9307-8.7796-8.7795-8.7796zm5.726 10.853h-11.452v-4.1474h11.452v4.1474z" fill="#800000" stroke-width=".19646"/>
</svg>
