<svg version="1.1" viewBox="0 0 20 20" xmlns="http://www.w3.org/2000/svg">
 <g transform="matrix(.54374 0 0 .54374 1.4753 5.5193)" style="fill:#800000;stroke:#ffffff">
  <path d="m29.928 19.033c-0.17 0.13-0.35 0.25-0.55 0.38 0.06 1.87 0 3.37-0.05 4.33h2.8a1 1 0 0 1 0 1.94h-33.06a1 1 0 1 1 0-1.94h23.53a40.77 40.77 0 0 0 0.66-4.77 3.19 3.19 0 0 0-2.12-0.74 3.26 3.26 0 0 0-2.19 0.8 5.35 5.35 0 0 1-6.63 0 3.24 3.24 0 0 0-2.19-0.8 3.28 3.28 0 0 0-2.2 0.8 5.09 5.09 0 0 1-3.33 1.15 5.14 5.14 0 0 1-3.32-1.15 3.26 3.26 0 0 0-2.2-0.8 1 1 0 0 1-1-1 1 1 0 0 1 1-1 5.16 5.16 0 0 1 3.32 1.16 3.3 3.3 0 0 0 2.2 0.78 3.3 3.3 0 0 0 2.19-0.78 5.16 5.16 0 0 1 3.32-1.16 5.08 5.08 0 0 1 3.31 1.16 3.48 3.48 0 0 0 4.39 0 5.13 5.13 0 0 1 3.31-1.16 5 5 0 0 1 2.26 0.49v-2.57h-0.06a3.41 3.41 0 0 0-4.39 0 5.35 5.35 0 0 1-6.63 0 3.24 3.24 0 0 0-2.19-0.8 3.28 3.28 0 0 0-2.2 0.8 5.14 5.14 0 0 1-3.31 1.17 5.2 5.2 0 0 1-3.33-1.14 3.26 3.26 0 0 0-2.2-0.8 1 1 0 0 1 0-1.94 5.22 5.22 0 0 1 3.32 1.14 3.26 3.26 0 0 0 2.2 0.79 3.25 3.25 0 0 0 2.19-0.79 5.22 5.22 0 0 1 3.32-1.15 5.14 5.14 0 0 1 3.31 1.15 3.44 3.44 0 0 0 4.39 0 5.19 5.19 0 0 1 3.31-1.15 4.87 4.87 0 0 1 2.14 0.44 30.86 30.86 0 0 0-2.84-10.94c-3.33 1.84-2.44 6.23-2.4 6.43a1 1 0 0 1-0.74 1.16h-0.21a1 1 0 0 1-0.94-0.76c-0.44-2-0.35-5.65 2.28-7.83-3 0-4.9 2.89-5 3a1 1 0 0 1-0.81 0.45 0.94 0.94 0 0 1-0.53-0.16 1 1 0 0 1-0.29-1.34c1.08-1.69 3.74-4.23 7.15-3.92-2.07-2.12-5.51-1.42-5.68-1.38a1 1 0 0 1-1.16-0.75 1 1 0 0 1 0.74-1.15 8.62 8.62 0 0 1 7 1.48 8.59 8.59 0 0 1 4.68-5.39 1 1 0 0 1 1.29 0.48 1 1 0 0 1-0.47 1.29c-0.19 0.09-3.72 1.84-3.72 5.18a7.32 7.32 0 0 1 7.82-0.22 1 1 0 1 1-1 1.67c-0.15-0.09-3.4-1.92-6.11 0.46a27.21 27.21 0 0 1 6.29 13.11l0.22-0.16a5.22 5.22 0 0 1 3.32-1.15 1 1 0 0 1 0 1.94 3.28 3.28 0 0 0-2.2 0.8 7.23 7.23 0 0 1-1 0.62c0.11 0.82 0.21 1.62 0.28 2.37a4.89 4.89 0 0 1 2.9-0.87 1 1 0 0 1 1 1 1 1 0 0 1-1 1 3.28 3.28 0 0 0-2.19 0.74z" style="fill:#800000;stroke:#ffffff"/>
  <path d="m9.7684-3.4869a1 1 0 0 1-1 1h-1.58a3.67 3.67 0 0 1-0.26 0.67l1.13 1.13a1 1 0 0 1 0 1.37 1 1 0 0 1-0.68 0.29 0.94 0.94 0 0 1-0.69-0.29l-1.09-1.17a3.18 3.18 0 0 1-0.64 0.26v1.61a1 1 0 0 1-1.95 0v-1.61a3 3 0 0 1-0.64-0.26l-1.19 1.13a1 1 0 0 1-0.69 0.29 1 1 0 0 1-0.68-1.66l1.13-1.09a3 3 0 0 1-0.26-0.65h-1.61a1 1 0 0 1 0-1.95h1.61a3 3 0 0 1 0.26-0.64l-1.13-1.18a1 1 0 0 1 1.37-1.37l1.13 1.13a3.39 3.39 0 0 1 0.65-0.26v-1.61a1 1 0 0 1 1.95 0v1.61a3.67 3.67 0 0 1 0.69 0.26l1.09-1.13a1 1 0 0 1 1.37 0 1 1 0 0 1 0 1.37l-1.13 1.13a3 3 0 0 1 0.26 0.64h1.6a1 1 0 0 1 0.98 0.98z" style="fill:#800000;stroke:#ffffff"/>
 </g>
</svg>
