<svg version="1.1" viewBox="0 0 20 20" xmlns="http://www.w3.org/2000/svg">
 <path d="m1.1736 1.0942a2.7116 2.7116 0 0 0-0.27918 0.31513 0.16717 0.16717 0 0 0 0.17512 0.26413h0.00418a3.0952 3.0952 0 0 1 3.5654 1.8448l0.013374 0.032599a0.69628 0.69628 0 0 0 0.64529 0.42713h10.722a0.8484 0.8484 0 0 0 0.43256-0.78613c-0.035107-0.6152-0.18097-1.4356-0.64905-2.0951a1.8347 1.8347 0 0 0-1.5008-0.75646h-11.198c-0.71759-0.0016744-1.4168 0.25995-1.9305 0.75395z" style="fill:#800000;stroke-width:.58018;stroke:#ffffff"/>
 <rect x="6.9261" y="5.9838" width="7.9898" height="11.063" style="fill:#ffffff"/>
 <path d="m18.974 13.452c-0.61102-1.4469-2.2314-5.1142-4.1718-8.1639a1.003 1.003 0 0 0-0.84883-0.45973h-8.655a1.5434 1.5434 0 0 1-1.444-0.96125l-0.010449-0.025493c-0.41793-1.0064-1.5225-1.5823-2.5728-1.3374h-0.00961a1.184 1.184 0 0 0-0.91946 1.2538c0.015882 0.16717 0.041793 0.34688 0.075646 0.53328a2.6852 2.6852 0 0 0 0.34731 0.89438c0.4242 0.69711 1.3905 2.3221 2.4407 4.3415 0.94996 1.5493 2.9882 5.0528 3.0329 6.6677 0.016717 0.60558-0.17052 1.0653-0.57299 1.4051a1.212 1.212 0 0 1-0.77777 0.2888c-0.26915 0-0.59304-0.09028-0.96125-0.35775a0.4267 0.4267 0 1 1 0.50152-0.69043c0.43548 0.3193 0.60642 0.17469 0.67914 0.11326 0.14879-0.12538 0.28461-0.30133 0.27249-0.73598v-0.0072a1.0144 1.0144 0 0 0-1.0373-0.98201h-0.018808a1.7687 1.7687 0 0 0-1.3198 0.6269 2.215 2.215 0 0 0-0.30885 0.49441c-0.62189 1.3708 0.23738 2.9456 1.7231 3.2586a6.5528 6.5528 0 0 0 1.3558 0.12747h10.521s3.924 0.17469 3.2327-4.3548a8.1188 8.1188 0 0 0-0.55334-1.9292zm-6.5494 2.6932a0.75228 0.75228 0 1 1 0.75228-0.75228 0.75228 0.75228 0 0 1-0.75228 0.75228zm0.68206-5.5857c-0.09487 0.2027-0.20896 0.42295-0.34103 0.6524a3.6561 3.6561 0 0 0-0.50778 1.7908c0 0.07815 0 0.15756 0.0054 0.23739a0.43381 0.43381 0 0 1-0.80367 0.25327c-0.2144-0.34354-0.48438-1.0315-0.19685-2.0763a2.6488 2.6488 0 0 1 0.19726-0.49525c0.15046-0.29673 0.42629-0.93366 0.37614-1.5484a1.0754 1.0754 0 0 0-0.59888-0.89605 0.9984 0.9984 0 0 0-0.50695-0.092363 1.0561 1.0561 0 0 0-0.62272 0.27834 2.1009 2.1009 0 0 0-0.57508 0.85885c-0.12078 0.34146-0.60099 0.35483-0.74935 0.02424a1.8928 1.8928 0 0 1-0.13625-1.1803 2.0596 2.0596 0 0 1 1.7055-1.6153c0.42964-0.063525 0.96125-0.012542 1.556 0.31261 0.10783 0.058509 0.20896 0.12037 0.30217 0.18389 1.0732 0.73013 1.4448 2.1377 0.89605 3.3122z" style="fill:#800000;stroke-width:.58018;stroke:#ffffff"/>
</svg>
