<svg version="1.1" viewBox="0 0 20 20" xmlns="http://www.w3.org/2000/svg">
 <g fill="#ff2a2a" stroke-width=".22097">
  <path d="m18.816 18.574h-0.0044-17.678c-0.39487 0-0.75947-0.21058-0.9568-0.55242-0.19733-0.34184-0.19733-0.76301 0-1.1048l8.8388-15.309c0.19733-0.34184 0.56215-0.55242 0.9568-0.55242 0.39465 0 0.75947 0.21058 0.9568 0.55242l8.7937 15.231c0.12463 0.1792 0.19777 0.39664 0.19777 0.63087 0 0.61032-0.49475 1.1051-1.1048 1.1051zm-15.769-2.2097h13.851l-6.9254-11.995z"/>
  <path d="m9.6301 12.705h0.6839c0.10872 0 0.19799-0.08662 0.20108-0.19534l0.1412-4.828c0.0013-0.054358-0.01945-0.10695-0.05701-0.14584-0.03801-0.039112-0.08971-0.061208-0.14407-0.061208h-0.96586c-0.054579 0-0.10651 0.022097-0.14429 0.061208-0.037786 0.038891-0.058336 0.091702-0.056789 0.14584l0.14076 4.828c0.00309 0.10872 0.092144 0.19534 0.20108 0.19534z"/>
  <path d="m9.9722 13.118c-0.45299 0-0.7946 0.35444-0.7946 0.82466s0.34162 0.82444 0.7946 0.82444c0.4605 0 0.7946-0.3467 0.7946-0.82444 0-0.48547-0.32681-0.82466-0.7946-0.82466z"/>
 </g>
</svg>
