<svg version="1.1" viewBox="0 0 20 20" xmlns="http://www.w3.org/2000/svg">
 <path d="m10.107 0.11748c-5.4493 0-9.8668 4.4175-9.8668 9.8668 0 5.4493 4.4175 9.8668 9.8668 9.8668 5.4491 0 9.8667-4.4175 9.8667-9.8668 0-5.4492-4.4176-9.8668-9.8667-9.8668zm3.1508 5.3604c0.64167 0 1.1618 1.0089 1.1618 2.2532s-0.52012 2.2532-1.1618 2.2532c-0.64171 0-1.1618-1.0089-1.1618-2.2532 0-1.2443 0.52008-2.2532 1.1618-2.2532zm-6.3019 0c0.64167 0 1.1618 1.0089 1.1618 2.2532s-0.52012 2.2532-1.1618 2.2532c-0.64171 0-1.1618-1.0089-1.1618-2.2532 0-1.2443 0.5201-2.2532 1.1618-2.2532zm3.1509 8.3748c-1.8277 0-3.5018 0.65532-4.8022 1.7428 0.80982-1.8486 2.6547-3.1406 4.8022-3.1406 2.1475 0 3.9923 1.292 4.8022 3.1406-1.3004-1.0875-2.9745-1.7428-4.8022-1.7428z" fill="#ff0" stroke-width=".21995"/>
</svg>
