<svg version="1.1" viewBox="0 0 20 20" xmlns="http://www.w3.org/2000/svg">
 <path d="m14.546 6.7758h-3.724l4.0139-6.177c0.0669-0.1115 0.0669-0.223 0.0223-0.33449-0.0669-0.1115-0.2007-0.1784-0.3122-0.1784h-7.0244c-0.1561 0-0.28989 0.1115-0.33449 0.2676l-2.3415 10.035c-0.022299 0.0892 0 0.2007 0.066899 0.2899s0.1561 0.1338 0.2676 0.1338h2.899l-2.5422 8.9198c-0.0446 0.1561 0.022299 0.33449 0.1784 0.40139 0.0446 0.0223 0.089198 0.0223 0.1338 0.0223 0.1115 0 0.223-0.0446 0.2676-0.1561l8.6968-12.711c0.0669-0.1115 0.0669-0.2453 0.0223-0.33449-0.044599-0.1115-0.1561-0.1784-0.2899-0.1784z" fill="#00f" stroke-width=".223"/>
</svg>
