<svg version="1.1" viewBox="0 0 20 20" xmlns="http://www.w3.org/2000/svg">
 <path d="m7.2742-0.012342c-0.35768-0.010155-0.65565 0.27162-0.66594 0.6293-7.999e-4 0.016987-0.00147 0.03162-0.00297 0.048489l-0.95432-0.001633-3.666e-4 0.20138c-1.2195 0.013251-2.0272 0.15365-2.5627 0.56007-0.54623 0.41452-0.74807 1.0824-0.79848 2.0093-0.020902 0.35768-0.085379 0.70714-0.24468 0.99799-0.07949 0.14519-0.18275 0.27524-0.30576 0.37572-0.12262 0.10016-0.26718 0.17176-0.41609 0.20064-0.20885 0.040437-0.44011-0.0018996-0.63965-0.10513-0.20098-0.10379-0.37653-0.26783-0.51675-0.46087-0.28144-0.38747-0.42163-0.88391-0.57969-1.3889v-3.699e-4c-0.15857-0.50666-0.35244-1.0519-0.76365-1.4611-0.20664-0.20564-0.46585-0.3695-0.76108-0.44088-0.14861-0.035948-0.30457-0.046884-0.45791-0.029601-0.15334 0.017253-0.30423 0.06268-0.44273 0.1403-0.2015 0.11293-0.35902 0.2835-0.46901 0.47568-0.10956 0.19146-0.17133 0.40122-0.20027 0.61004-0.057733 0.41666 0.011041 0.81959 0.068862 1.1964 0.057689 0.37609 0.10476 0.74175 0.040349 1.0768-0.03209 0.16696-0.092239 0.32545-0.18249 0.45791-0.089736 0.13169-0.21255 0.23914-0.35019 0.29836-0.11714 0.050402-0.25316 0.069981-0.38869 0.059971-0.13612-0.010008-0.27413-0.048813-0.40682-0.10736-0.26604-0.11738-0.50897-0.31386-0.76034-0.5201-0.25176-0.20655-0.52027-0.42823-0.85066-0.57118-0.16554-0.071614-0.34563-0.12181-0.53416-0.13363-0.18913-0.011774-0.38465 0.015853-0.56526 0.096624-0.27281 0.12206-0.47168 0.3451-0.60783 0.58376-0.13515 0.23692-0.2123 0.48796-0.28356 0.7248-0.071202 0.23665-0.13769 0.46295-0.23839 0.66039-0.099951 0.19597-0.23868 0.3661-0.40904 0.46235-0.14479 0.081802-0.32216 0.11376-0.48641 0.087365-0.16429-0.026671-0.32304-0.11267-0.4346-0.23617s-0.18149-0.28992-0.19138-0.45605c-0.0099-0.16614 0.03973-0.33944 0.13586-0.47531a0.18959 0.18959 0 0 0-0.3091-0.21951c-0.14719 0.20804-0.22023 0.463-0.20508 0.7174 0.01516 0.25439 0.11754 0.49831 0.28836 0.68742 0.17083 0.18911 0.40329 0.31527 0.65484 0.35611h3.332e-4c0.2514 0.04054 0.51181-0.00574 0.73368-0.13104 0.25752-0.14548 0.43674-0.37859 0.56008-0.62042 0.12259-0.24035 0.19355-0.48936 0.26394-0.72332 0.070334-0.23376 0.14151-0.45635 0.24987-0.64632 0.1073-0.1881 0.25708-0.34663 0.43274-0.42533 0.11622-0.051963 0.2518-0.073264 0.3872-0.064784 0.13599 0.00853 0.2743 0.046148 0.40719 0.10365 0.26646 0.11528 0.51007 0.31045 0.76108 0.51639 0.2514 0.20625 0.51875 0.42864 0.8477 0.57377 0.1648 0.072718 0.34378 0.12424 0.53194 0.13808 0.18879 0.013984 0.38444-0.011041 0.566-0.089206 0.21378-0.091988 0.38809-0.24901 0.5138-0.43348 0.12518-0.18369 0.20159-0.39095 0.24172-0.59968 0.08002-0.41628 0.020566-0.82581-0.037743-1.206h-3.666e-4c-0.058267-0.37948-0.11503-0.74484-0.067747-1.0861 0.023569-0.17012 0.07316-0.33361 0.15362-0.4742 0.080049-0.13986 0.19315-0.25942 0.32538-0.33353 0.18072-0.10129 0.41357-0.12399 0.62634-0.072556 0.21475 0.051918 0.41738 0.17646 0.58265 0.34093 0.3325 0.33089 0.51408 0.81091 0.66891 1.3056 0.15537 0.49634 0.29967 1.037 0.63485 1.4985 0.16814 0.23147 0.38446 0.4383 0.64965 0.57525 0.26664 0.13769 0.57921 0.19997 0.88545 0.14067l3.666e-4 -3.666e-4c0.21782-0.042233 0.41706-0.14293 0.58377-0.27911 0.16631-0.13585 0.29837-0.30436 0.39832-0.48678 0.19952-0.3642 0.26793-0.77072 0.29058-1.1586v-7.999e-4l3.665e-4 -3.666e-4c0.047961-0.88368 0.22144-1.4033 0.64926-1.728 0.41882-0.31784 1.146-0.46916 2.3325-0.48308l-3.666e-4 0.21544 0.91212 0.00163c-0.10172 1.5886-0.22655 2.6538 0.26171 3.5578 0.28521 0.52803 0.84218 0.87332 1.4892 1.0095 0.49352 0.10385 1.0682 0.12796 1.779 0.10736-0.029294 2.4863-0.12291 4.9679-0.25874 7.4498-0.05373 0.98124-0.0895 1.3592-0.1999 1.631-0.1104 0.27186-0.39034 0.64509-1.0794 1.4922l-1.3782 1.6939c-0.79101 0.95902 0.65866 2.1386 1.4366 1.169l1.3782-1.6947c0.68909-0.84707 1.0976-1.3211 1.3585-1.9634 0.26095-0.64232 0.27948-1.2456 0.33315-2.2269l0.02414-0.44236h3.66e-4c0.07287-0.77413 1.37-0.76852 1.8749 0l0.27283 0.44419c0.52934 0.86138 0.72203 1.2126 0.77625 1.4685 0.05417 0.25593 0.0212 0.66667-0.11026 1.6832l-0.26282 2.033c-0.18779 1.2466 1.7006 1.4913 1.8364 0.23804l0.26319-2.0334c0.1316-1.0165 0.2302-1.6217 0.08553-2.3047-0.1447-0.68288-0.48122-1.1932-1.0106-2.0545l-0.70334-1.1438-0.28393-0.46235c-7.99e-4 0-0.0012-0.0038-3e-3 -0.0038-0.19073-0.31002-0.19163-0.31294-0.18027-0.74332l0.11809-4.4676 5.0229-0.3276c0.8465-0.042395 0.80827-1.3048-0.0393-1.2956-0.01502 4e-4 -0.04549 0.00237-0.04549 0.00237l-5.6103 0.34868-2.9903 0.18583c-1.0071 0.057072-1.7141 0.038084-2.1378-0.051093-0.42421-0.089266-0.51849-0.176-0.61597-0.35648-0.16792-0.31087-0.15537-1.3236-0.091856-2.9399l0.55231 0.00117 0.00147-0.79587-0.52306-7.9984e-4c0.018129-0.36276-0.26524-0.67028-0.62891-0.68038zm4.8523 1.0905c-0.91065 0-1.6514 0.7407-1.6514 1.6513 1.76e-4 0.91633 0.74095 1.6514 1.6514 1.6514 0.91633 0 1.6591-0.73502 1.6591-1.6514 0-0.91065-0.74279-1.6513-1.6591-1.6513z" color="#000000" color-rendering="auto" fill="#f00" fill-rule="evenodd" image-rendering="auto" shape-rendering="auto" solid-color="#000000" style="fill:#ff0000;isolation:auto;mix-blend-mode:normal;text-decoration-color:#000000;text-decoration-line:none;text-decoration-style:solid;text-indent:0;text-transform:none;white-space:normal"/>
 <path d="m-0.027282 4.4141s-1.5588-0.31175-1.1579 1.0689c0.40082 1.3806 2.0932 1.2915 2.9839 2.2713 0.89072 0.97979 2.1377 3.5629 0.93526 4.6317-1.2025 1.0689-2.4049 0.80165-1.8705 2.3604 0.53443 1.5588 1.0689 1.5142 1.0689 1.5142" fill="none" stroke="#f00" stroke-width=".43325" style="fill:none;stroke:#ff0000"/>
</svg>
