<svg version="1.1" viewBox="0 0 20 20" xmlns="http://www.w3.org/2000/svg">
 <g transform="matrix(.20675 0 0 .20675 -20.368 6.74)">
  <path d="m59.079 10.322c0.024-4.44-3.56-8.063-7.998-8.089-4.44-0.023-8.063 3.559-8.087 8.001-0.025 4.435 3.553 8.063 8 8.085 4.444 0.024 8.063-3.558 8.085-7.997z"/>
 </g>
 <g transform="translate(0,-291.71)" fill="#f00">
  <rect x="-2.3675" y="300.75" width="1.7678" height="1.6099"/>
  <rect x="-2.4307" y="305.55" width="1.7046" height="1.6415"/>
  <rect x="-2.4622" y="310.07" width="1.5152" height="1.5468"/>
  <rect x="-2.336" y="292.29" width="1.6099" height="1.8625"/>
 </g>
 <path d="m17.191 17.83h-3.3768l2.2149-2.5054c0.54465-0.49018 0.79881-1.2708 0.54465-2.0152-0.25417-0.78066-0.96221-1.2527-1.7429-1.2708v-0.0182l-6.681 0.34494c-0.68989-0.0545-1.4705 0.79881-1.5795 1.5432l-0.32679 1.4887-0.90774 2.9048h-2.5235c-0.47203 0-0.87143 0.39941-0.87143 0.87144 0 0.47202 0.39941 0.87143 0.87143 0.87143h3.0319c0.018155 0 0.03631-0.0181 0.054465-0.0181 0.39941 0.0181 0.7625-0.19971 0.88959-0.59911l0.90774-2.8685 0.39941-0.0182c0.53593-0.03455 1.0235-0.07095 1.87-0.1634l1.9789-0.23602-1.5795 2.1967c-0.32679 0.41757-0.1997 1.053 0.27232 1.4342 0.16339 0.12708 0.34494 0.1997 0.52649 0.23601 0.07262 0.0182 0.12708 0.0182 0.1997 0.0363h5.7732c0.58096 0 1.0711-0.47202 1.0711-1.0711v-0.0726c0.05447-0.58095-0.43572-1.0711-1.0167-1.0711z" stroke-width=".18155"/>
 <circle cx="3.9741" cy="14.34" r="2.0333" stroke-width=".18155"/>
</svg>
