<svg version="1.1" viewBox="0 0 20 20" xmlns="http://www.w3.org/2000/svg">
 <g transform="matrix(.20675 0 0 .20675 -20.368 6.74)">
  <path d="m59.079 10.322c0.024-4.44-3.56-8.063-7.998-8.089-4.44-0.023-8.063 3.559-8.087 8.001-0.025 4.435 3.553 8.063 8 8.085 4.444 0.024 8.063-3.558 8.085-7.997z"/>
 </g>
 <g transform="translate(0,-291.71)" fill="#f00">
  <rect x="-2.3675" y="300.75" width="1.7678" height="1.6099"/>
  <rect x="-2.4307" y="305.55" width="1.7046" height="1.6415"/>
  <rect x="-2.4622" y="310.07" width="1.5152" height="1.5468"/>
  <rect x="-2.336" y="292.29" width="1.6099" height="1.8625"/>
 </g>
 <rect x="-.20974" y="14.619" width="20.541" height="5.7409" fill="#6c5353"/>
 <g transform="translate(.011165 -296.56)">
  <g transform="matrix(.20675 0 0 .20675 -17.779 300.5)">
   <path d="m59.079 10.322c0.024-4.44-3.56-8.063-7.998-8.089-4.44-0.023-8.063 3.559-8.087 8.001-0.025 4.435 3.553 8.063 8 8.085 4.444 0.024 8.063-3.558 8.085-7.997z"/>
  </g>
  <g fill="#f00">
   <rect x="-2.3675" y="300.75" width="1.7678" height="1.6099"/>
   <rect x="-2.4307" y="305.55" width="1.7046" height="1.6415"/>
   <rect x="-2.4622" y="310.07" width="1.5152" height="1.5468"/>
   <rect x="-2.336" y="292.29" width="1.6099" height="1.8625"/>
  </g>
  <g stroke-width=".060791">
   <circle transform="scale(-1,1)" cx="-11.736" cy="298.57" r="1.6317"/>
   <path d="m3.4898 309.37c0.26815-2.0821 0.85758-4.8696 2.1513-6.7533 0.27666-0.40274 0.82736-0.50517 1.23-0.22839 0.4028 0.27654 0.50505 0.82725 0.22851 1.23-0.79472 1.1572-1.3983 2.9728-1.7505 5.2246 0.44681-0.0556 0.87806-0.0827 1.2957-0.0912 0.018055 0.0924 0.036596 0.18669 0.05611 0.28571 0.13581 0.68761 0.30067 1.5228 0.4245 2.545-0.76475-0.0113-1.5563 0.044-2.391 0.24419-0.77308 0.18542-1.5146-0.24693-1.7064-1.0464-0.12869-0.53709 0.0676-1.0758 0.46183-1.4101z"/>
   <path d="m11.453 309.01c0.33386-0.0124 0.64554 0.0924 0.89533 0.27733 0.12742-0.0215 0.27265-0.0439 0.43982-0.0673 0.50402-0.0708 1.3198-0.16396 2.3442-0.20602 1.6981-0.0697 4.2032-3e-3 6.4945 0.71247 0.5597 0.17465 0.87174 0.76991 0.69709 1.3296-0.14182 0.45442-0.56086 0.74561-1.013 0.74561-0.10474 0-0.21131-0.0156-0.3166-0.0485-3.3907-1.0582-7.4978-0.5335-8.4746-0.34012-0.24432 0.25034-0.58098 0.41137-0.95807 0.42584-0.74262 0.0284-1.4661-0.0325-2.2227-0.10474-0.12334-1.1704-0.30444-2.1414-0.45052-2.8863z"/>
   <circle transform="scale(-1,1)" cx="-1.5996" cy="308.46" r="1.6316"/>
   <path d="m6.8846 308.75c-0.093436-0.47794-0.16468-0.86943-0.18772-1.2042-0.11277-1.6321 1.2623-1.8983 2.579-1.5786 0.12596 0.0305 0.26414 0.0667 0.42231 0.1104l0.27563 0.0762-0.1417-0.24839c-0.27447-0.48067-0.48153-0.98986-0.61557-1.5133-0.013921-0.0544-0.027842-0.10876-0.041763-0.16316-0.14807-1.0361-0.10535-1.7787-0.092403-2.3398 0.12717-0.64852 0.32487-1.274 1.0854-1.383 0.80597-0.11557 1.5096 0.61563 1.3625 1.4157-0.43295 2.3541 0.80998 3.4916 1.8087 4.4058 0.29174 0.26712 0.60888 0.52074 0.71539 0.91922 0.09623 0.35982 0.01951 0.75351-0.20754 1.0491-0.42991 0.55952-1.139 0.5301-1.7452 0.33149-1.5214-0.49854-2.835-0.92888-3.5292-1.068-0.054773-0.011-0.10961-0.0219-0.16438-0.0329 0.00821 0.0553 0.016414 0.11052 0.02456 0.16584 0.040669 0.2752 0.10985 0.62542 0.17666 0.96414l0.00122 6e-3c0.010882 0.055 0.022067 0.11186 0.033496 0.16967 0.14535 0.73873 0.32937 1.711 0.45532 2.8849 0.051915 0.49119-0.22833 0.96493-0.7532 1.0196-0.7332 0.0761-0.91387-0.57423-0.98256-1.1478-0.12529-1.046-0.29307-1.897-0.43095-2.595-0.016474-0.0839-0.032402-0.16474-0.047903-0.24389-0.093436-0.47794 0.015502 0.0791 0 0-0.093436-0.47794 0.015502 0.0791 0 0-0.093436-0.47794 0.015502 0.0791 0 0-0.093436-0.47794 0.015502 0.0791 0 0-0.093436-0.47794 0.015502 0.0791 0 0z"/>
  </g>
 </g>
</svg>
