<svg version="1.1" viewBox="0 0 20 20" xmlns="http://www.w3.org/2000/svg">
 <defs>
  <clipPath id="clipPath856">
   <path d="m13.114 13.885h-1e-6c-0.33487 0.48277-0.99768 0.60272-1.4805 0.26794l-2.8752-1.9936-1.9876 1.3773-1.1309 0.78433c-0.66409 0.46059-1.5721-0.0147-1.5721-0.82286v-6.7601h2.087l0.61596 0.17407 1.8843 0.53373 0.91056-2.6303 1.4117 0.4878-0.88186 2.5519-0.4572 1.3276-0.0306 0.088-0.29842-0.0842-1.1439-0.32328-1.3945-0.39599v2.4792l0.12052-0.0823 1.5916-1.1038 0.27355-0.1913 0.60258 0.41703 1.2664 0.87804 2.2207 1.5399c0.48293 0.33489 0.6029 0.99787 0.26795 1.4808z" stroke-width=".16389"/>
  </clipPath>
  <clipPath id="clipPath884">
   <g transform="translate(0,-4.4943)">
    <ellipse transform="rotate(-45.574)" cx="-9.964" cy="15.125" rx="1.7944" ry="1.7943" stroke-width=".079766"/>
    <path d="m17.873 18.114-3.691-1.2268c-0.36216-0.1203-0.76518-0.0217-1.0305 0.25239l-1.5466 1.5964c-1.3667-0.15242-2.8169-0.89767-3.8424-1.3694-0.71756-0.40962-1.7116-0.34239-2.0369 0.27922-0.22469 0.42911-0.23367 1.0608 0.12454 1.6297l0.11194-0.7984c0.046122-0.32912 0.29492-0.59774 0.61938-0.66875 0.09218-0.0202 0.18675-0.0238 0.28091-0.0107 0.21121 0.0297 0.39806 0.13955 0.52641 0.30963 0.12837 0.17016 0.18269 0.37996 0.15298 0.59117l-0.24047 1.7165c0.073609 0.0405 0.14657 0.0795 0.21898 0.1171l1.7935-0.1506c0.21215-0.0178 0.41869 0.048 0.5814 0.18557s0.26218 0.33014 0.28005 0.54236c0.0077 0.0921-0.0014 0.18215-0.02383 0.26757 0.19434 0.0314 0.39793 0.0599 0.61315 0.0863 0.48598 0.0223 0.89074-0.10897 1.2039-0.31999 0.099-0.0491 0.1918-0.11457 0.27314-0.19843l1.9062-1.9679 3.0966 1.0289c0.17638 0.0586 0.35757 0.0654 0.52682 0.0283 0.33217-0.0727 0.61861-0.31372 0.73367-0.65988 0.17333-0.52238-0.10926-1.0868-0.63194-1.2604z" stroke-width=".079765"/>
    <path d="m5.8157 19.153s0.4988 0.76001 1.1017 1.0699c0.6029 0.3099 2.7604 1.0808 3.234 1.1548 0.47361 0.07401 1.0562-0.80523 1.0562-0.80523l-1.9174-1.9597-2.0975-1.0805-1.6419 0.64619" fill-rule="evenodd"/>
   </g>
  </clipPath>
 </defs>
 <path transform="translate(0 4.4943)" d="m4.5763 18.157-3.6441-3.8983 0.3178-2.5424 2.6586-0.40724s-0.24847 3.0607 0.47187 3.209 1.6153-0.17464 2.6323-0.72548c1.0169-0.55085 1.7585-1.25 1.7585-1.25l1.4619 0.38136 4.8517-3.1568 5.2331 2.8178-0.50848 4.9153-10.72 1.9492z" clip-path="url(#clipPath884)" fill-rule="evenodd"/>
 <path transform="translate(0 4.4943)" d="m10.953 14.364 0.51907-0.23305 2.0233-2.1504-0.072719-8.9994-10.007-2.4569-3.8716 3.7354 3.6918 11.665 3.2958 2.8164z" clip-path="url(#clipPath856)" fill-rule="evenodd"/>
 <g transform="matrix(.20675 0 0 .20675 -20.368 6.74)">
  <path d="m59.079 10.322c0.024-4.44-3.56-8.063-7.998-8.089-4.44-0.023-8.063 3.559-8.087 8.001-0.025 4.435 3.553 8.063 8 8.085 4.444 0.024 8.063-3.558 8.085-7.997z"/>
 </g>
 <g transform="translate(0,-291.71)" fill="#f00">
  <rect x="-2.3675" y="300.75" width="1.7678" height="1.6099"/>
  <rect x="-2.4307" y="305.55" width="1.7046" height="1.6415"/>
  <rect x="-2.4622" y="310.07" width="1.5152" height="1.5468"/>
  <rect x="-2.336" y="292.29" width="1.6099" height="1.8625"/>
 </g>
 <g transform="matrix(.20675 0 0 .20675 -20.224 1.96)">
  <path d="m59.079 10.322c0.024-4.44-3.56-8.063-7.998-8.089-4.44-0.023-8.063 3.559-8.087 8.001-0.025 4.435 3.553 8.063 8 8.085 4.444 0.024 8.063-3.558 8.085-7.997z"/>
 </g>
 <g transform="translate(.14383 -296.49)" fill="#f00">
  <rect x="-2.3675" y="300.75" width="1.7678" height="1.6099"/>
  <rect x="-2.4307" y="305.55" width="1.7046" height="1.6415"/>
  <rect x="-2.4622" y="310.07" width="1.5152" height="1.5468"/>
  <rect x="-2.336" y="292.29" width="1.6099" height="1.8625"/>
 </g>
 <g transform="translate(-37.7 -277.03)" fill="#f00">
  <rect x="-2.3675" y="300.75" width="1.7678" height="1.6099"/>
  <rect x="-2.4307" y="305.55" width="1.7046" height="1.6415"/>
  <rect x="-2.4622" y="310.07" width="1.5152" height="1.5468"/>
  <rect x="-2.336" y="292.29" width="1.6099" height="1.8625"/>
 </g>
 <circle cx="5.4102" cy="9.18" r="1.6738" stroke-width=".16389"/>
</svg>
