<svg version="1.1" viewBox="0 0 20 20" xmlns="http://www.w3.org/2000/svg">
 <g transform="matrix(.20675 0 0 .20675 -21.663 4.46)">
  <path d="m59.079 10.322c0.024-4.44-3.56-8.063-7.998-8.089-4.44-0.023-8.063 3.559-8.087 8.001-0.025 4.435 3.553 8.063 8 8.085 4.444 0.024 8.063-3.558 8.085-7.997z"/>
 </g>
 <g transform="translate(0,-291.71)" fill="#f00">
  <rect x="-2.3675" y="300.75" width="1.7678" height="1.6099"/>
  <rect x="-2.4307" y="305.55" width="1.7046" height="1.6415"/>
  <rect x="-2.4622" y="310.07" width="1.5152" height="1.5468"/>
  <rect x="-2.336" y="292.29" width="1.6099" height="1.8625"/>
 </g>
 <path d="m6.6633 10.91c-0.41737 0-0.82651-0.17074-1.1217-0.46592-0.29472-0.29249-0.46345-0.70207-0.46345-1.119 0-0.41694 0.16873-0.82698 0.46345-1.1217 0.29517-0.29516 0.7043-0.46345 1.1217-0.46345 0.41693 0 0.82429 0.16829 1.1217 0.46345 0.29205 0.29472 0.46301 0.70475 0.46301 1.1217 0 0.41691-0.17096 0.8265-0.46301 1.119-0.29739 0.29518-0.70475 0.46592-1.1217 0.46592zm-2.029 0.9654c0.29205-0.44608 0.89084-0.57073 1.3374-0.27869l2.0539 1.3456 0.30162-2.1187c0.05698-0.38442 0.28381-0.74638 0.64732-0.95383 0.62907-0.35951 1.4304-0.14114 1.7899 0.4877l0.07568 0.13245 2.4913 4.3594 0.0483 0.0841c0.2778 0.48637 0.19923 1.1168-0.22594 1.5186l-2.2761 2.151h3.3483c0.53335 0 0.96586 0.4323 0.96586 0.96563 0 0.53336-0.43251 0.96586-0.96586 0.96586h-5.7725c-0.20835 0-0.4196-0.0674-0.59612-0.20612-0.41871-0.32944-0.49083-0.93558-0.16183-1.3543l0.04474-0.0567 2.7587-3.5066-0.61437-1.0745-0.18854 0.48704-0.042959 0.11199c-0.023372 0.0603-0.053865 0.11865-0.090375 0.17495-0.29094 0.44365-0.88639 0.56787-1.3305 0.27714l-3.3198-2.1748c-0.44564-0.2925-0.57052-0.89108-0.27825-1.3372z" stroke-width=".2226"/>
</svg>
