<svg version="1.1" viewBox="0 0 20 20" xmlns="http://www.w3.org/2000/svg">
 <g transform="matrix(.20675 0 0 .20675 -20.368 6.74)">
  <path d="m59.079 10.322c0.024-4.44-3.56-8.063-7.998-8.089-4.44-0.023-8.063 3.559-8.087 8.001-0.025 4.435 3.553 8.063 8 8.085 4.444 0.024 8.063-3.558 8.085-7.997z"/>
 </g>
 <g transform="translate(0,-291.71)" fill="#f00">
  <rect x="-2.3675" y="300.75" width="1.7678" height="1.6099"/>
  <rect x="-2.4307" y="305.55" width="1.7046" height="1.6415"/>
  <rect x="-2.4622" y="310.07" width="1.5152" height="1.5468"/>
  <rect x="-2.336" y="292.29" width="1.6099" height="1.8625"/>
 </g>
 <rect x="-.20974" y="14.619" width="20.541" height="5.7409" fill="#6c5353"/>
 <g transform="translate(.14383 -296.49)">
  <g transform="matrix(.20675 0 0 .20675 -20.368 298.45)">
   <path d="m59.079 10.322c0.024-4.44-3.56-8.063-7.998-8.089-4.44-0.023-8.063 3.559-8.087 8.001-0.025 4.435 3.553 8.063 8 8.085 4.444 0.024 8.063-3.558 8.085-7.997z"/>
  </g>
  <g fill="#f00">
   <rect x="-2.3675" y="300.75" width="1.7678" height="1.6099"/>
   <rect x="-2.4307" y="305.55" width="1.7046" height="1.6415"/>
   <rect x="-2.4622" y="310.07" width="1.5152" height="1.5468"/>
   <rect x="-2.336" y="292.29" width="1.6099" height="1.8625"/>
  </g>
  <ellipse transform="rotate(-45.574)" cx="-216.04" cy="218.17" rx="1.7944" ry="1.7943" stroke-width=".079766"/>
  <path d="m17.22 309.78-3.691-1.2268c-0.36216-0.1203-0.76518-0.0217-1.0305 0.25239l-1.5466 1.5964c-1.3667-0.15242-2.8169-0.89767-3.8424-1.3694-0.71756-0.40962-1.7116-0.34239-2.0369 0.27922-0.22469 0.42911-0.23367 1.0608 0.12454 1.6297l0.11194-0.7984c0.046122-0.32912 0.29492-0.59774 0.61938-0.66875 0.09218-0.0202 0.18675-0.0238 0.28091-0.0107 0.21121 0.0297 0.39806 0.13955 0.52641 0.30963 0.12837 0.17016 0.18269 0.37996 0.15298 0.59117l-0.24047 1.7165c0.073609 0.0405 0.14657 0.0795 0.21898 0.1171l1.7935-0.1506c0.21215-0.0178 0.41869 0.048 0.5814 0.18557s0.26218 0.33014 0.28005 0.54236c0.00773 0.0921-0.00137 0.18215-0.023828 0.26757 0.19434 0.0314 0.39793 0.0599 0.61315 0.0863 0.48598 0.0223 0.89074-0.10897 1.2039-0.31999 0.099-0.0491 0.1918-0.11457 0.27314-0.19843l1.9062-1.9679 3.0966 1.0289c0.17638 0.0586 0.35757 0.0654 0.52682 0.0283 0.33217-0.0727 0.61861-0.31372 0.73367-0.65988 0.17333-0.52238-0.10926-1.0868-0.63194-1.2604z" stroke-width=".079765"/>
  <path d="m8.674 312.2-3.41e-5 -1.6e-4 -1.5322 0.12868-0.69827 0.0587 0.055561-0.39642 0.23196-1.6551c0.04886-0.34906-0.19442-0.67158-0.54352-0.7206-0.34904-0.0488-0.67141 0.19447-0.72043 0.54357l-0.13525 0.96427-0.26333 1.8785c-0.026778 0.19178 0.035393 0.38631 0.16852 0.52709 0.13309 0.14063 0.32386 0.21352 0.51695 0.19739l3.0267-0.25425c0.028619-2e-3 0.056673-7e-3 0.084023-0.0127 0.23244-0.0509 0.41333-0.22683 0.4765-0.44895 0.020493-0.072 0.02876-0.14877 0.022074-0.22782-0.029623-0.35099-0.33811-0.6118-0.68928-0.58222z" stroke-width=".079765"/>
 </g>
</svg>
