<svg version="1.1" viewBox="0 0 20 20" xmlns="http://www.w3.org/2000/svg">
 <g transform="translate(0 -291.71)">
  <g transform="matrix(.20675 0 0 .20675 -20.368 298.45)">
   <path d="m59.079 10.322c0.024-4.44-3.56-8.063-7.998-8.089-4.44-0.023-8.063 3.559-8.087 8.001-0.025 4.435 3.553 8.063 8 8.085 4.444 0.024 8.063-3.558 8.085-7.997z"/>
  </g>
  <g fill="#f00">
   <rect x="-2.3675" y="300.75" width="1.7678" height="1.6099"/>
   <rect x="-2.4307" y="305.55" width="1.7046" height="1.6415"/>
   <rect x="-2.4622" y="310.07" width="1.5152" height="1.5468"/>
   <rect x="-2.336" y="292.29" width="1.6099" height="1.8625"/>
  </g>
  <g fill="#1a1a1a">
   <g stroke-width=".057364">
    <circle transform="scale(-1,1)" cx="-4.8785" cy="303.75" r="1.5871"/>
    <circle transform="scale(-1,1)" cx="-1.6217" cy="310.1" r="1.5871"/>
    <path d="m13.681 308.3c0.33925 0.20978 0.7747 0.44119 1.3038 0.6516 0.24535 0.0975 0.49563 0.18368 0.74964 0.26089 0.10653 0.16722 0.21362 0.3497 0.32032 0.54726 0.18058 0.33437 0.52907 0.54209 0.90945 0.54209 0.16997 0 0.33925-0.0429 0.48972-0.12419 0.23227-0.1254 0.39604-0.32795 0.47916-0.55862 0.87727 0.0663 1.7926 0.0309 2.742-0.10933 0.56395-0.0831 1.0889 0.30649 1.1724 0.87061 0.08329 0.56418-0.3065 1.089-0.87067 1.1724-0.72761 0.10744-1.4484 0.16085-2.156 0.16085-1.6657 0-3.2575-0.29583-4.6865-0.87813-0.66755-0.27203-1.2256-0.57485-1.6723-0.86179 0.29078-0.5636 0.74602-1.2721 1.2191-1.6736z"/>
   </g>
   <path d="m3.7659 309.4c0.0475-0.0657 0.12626-0.15907 0.18448-0.213 0.10566-0.15367 0.26124-0.2746 0.45306-0.33414 0.95701-0.29703 1.0107-0.2993 1.405-0.38978 0.93482-0.15319 1.1613-0.17623 1.5031-0.17627 0.14066-0.24334 0.18844-0.68799 0.19343-0.90047 0.0076-0.32485-0.08318-0.62091-0.2177-0.84532-0.32112-0.12408-0.57422-0.35996-0.7248-0.65068-0.14972-0.19894-0.20921-0.45788-0.15224-0.70822 0.0048-0.0856 0.01738-0.17192 0.03895-0.25819 0.18425-0.73777 0.9324-1.1865 1.6693-1.0021 2.5798 0.64437 3.1706 1.2077 4.0901 2.5374 0.0561 0.0811 0.11289 0.16326 0.17238 0.24781-0.51031 0.42318-0.98839 1.016-1.4394 1.7654-0.164 0.27253-0.1597 0.29835-0.22854 0.26399-0.11685-0.0584-0.2473-0.10762-0.37132-0.14863-0.15259-0.20806-0.28103-0.39364-0.39794-0.56269-0.3112-0.45014-0.44629-0.63869-0.66738-0.78681-0.01681-0.0112-0.03482-0.0225-0.05335-0.0338 0.0033 0.0737 0.0042 0.14782 0.0025 0.22217-0.0089 0.38222-0.08341 0.7474-0.21689 1.0873 0.5928 0.0434 1.09 0.15001 1.5219 0.32606 0.04251 0.0174 0.30816 0.16733 0.32916 0.12838 0.07423-0.13733 0.14984-0.2738 0.22969-0.40803 0.43419-0.73031 0.90022-1.3033 1.3914-1.7128 0.21345-0.17806 0.43144-0.3256 0.65384-0.44119 0.40247-0.20915 0.81555-0.31527 1.2278-0.31527 1.2345 0 2.3642 0.93302 3.3579 2.7731 0.1289 0.23875 0.13257 0.5118 0.0343 0.74418-0.07348 0.17399-0.20393 0.32526-0.38262 0.42186-0.1254 0.0677-0.26646 0.10348-0.40792 0.10348-0.31705 0-0.60749-0.17312-0.75807-0.4518-0.07463-0.13824-0.14938-0.26892-0.22406-0.39277-0.57559-0.95357-1.1476-1.4731-1.6317-1.4731-0.01893 0-0.03763 8.1e-4 -0.05627 2e-3 -0.25573 0.0217-0.51484 0.17112-0.76226 0.3906-0.48725 0.43206-0.92907 1.1359-1.211 1.6758-0.13836 0.26508-0.23841 0.49069-0.28613 0.62475l-0.0023 8e-3c-0.01514 0.0595-0.03717 0.1184-0.06563 0.17502l-0.0068 0.0183c-0.0522 0.21575-0.16194 0.41199-0.3174 0.56739-0.22751 0.22757-0.52993 0.35285-0.85163 0.35285h-2.3e-4c-0.32176 0-0.6243-0.12534-0.8518-0.35273-0.25653-0.25659-0.75342-0.37608-1.5637-0.37608-0.78836 0-1.9061 0.11782-3.4169 0.36013-0.06367 0.0102-0.12844 0.0154-0.1924 0.0154-0.59401 6e-5 -1.0935-0.42644-1.1877-1.0141-0.051-0.31774-5.74e-4 -0.60284 0.18804-0.86356z" stroke-width=".057364"/>
  </g>
 </g>
</svg>
