<svg version="1.1" viewBox="0 0 20 20" xmlns="http://www.w3.org/2000/svg">
 <g transform="translate(0,-291.71)" fill="#f00">
  <rect x="-2.3675" y="300.75" width="1.7678" height="1.6099"/>
  <rect x="-2.4307" y="305.55" width="1.7046" height="1.6415"/>
  <rect x="-2.4622" y="310.07" width="1.5152" height="1.5468"/>
  <rect x="-2.336" y="292.29" width="1.6099" height="1.8625"/>
 </g>
 <circle transform="scale(-1,1)" cx="-12.949" cy="9.63" r="1.6738" stroke-width=".16389"/>
 <path d="m5.4575 19.55h1e-6c0.33487 0.48277 0.99768 0.60272 1.4805 0.26794l2.8752-1.9936 1.9876 1.3773 1.1309 0.78433c0.66409 0.46059 1.5721-0.0147 1.5721-0.82286v-6.7601h-2.087l-0.61596 0.17407-1.8843 0.53373-0.91056-2.6303-1.4117 0.4878 0.88186 2.5519 0.4572 1.3276 0.0306 0.088 0.29842-0.0842 1.1439-0.32328 1.3945-0.39599v2.4792l-0.12052-0.0823-1.5916-1.1038-0.27355-0.1913-0.60258 0.41703-1.2664 0.87804-2.2207 1.5399c-0.48293 0.33489-0.6029 0.99787-0.26795 1.4808z" stroke-width=".16389"/>
</svg>
