<svg version="1.1" viewBox="0 0 20 20" xmlns="http://www.w3.org/2000/svg">
 <g transform="matrix(.20675 0 0 .20675 -20.368 6.74)">
  <path d="m59.079 10.322c0.024-4.44-3.56-8.063-7.998-8.089-4.44-0.023-8.063 3.559-8.087 8.001-0.025 4.435 3.553 8.063 8 8.085 4.444 0.024 8.063-3.558 8.085-7.997z"/>
 </g>
 <g transform="translate(0,-291.71)" fill="#f00">
  <rect x="-2.3675" y="300.75" width="1.7678" height="1.6099"/>
  <rect x="-2.4307" y="305.55" width="1.7046" height="1.6415"/>
  <rect x="-2.4622" y="310.07" width="1.5152" height="1.5468"/>
  <rect x="-2.336" y="292.29" width="1.6099" height="1.8625"/>
 </g>
 <rect x="-.20974" y="14.619" width="20.541" height="5.7409" fill="#6c5353"/>
 <g transform="translate(.020193 -296.25)">
  <g fill="#f00">
   <rect x="-2.3675" y="300.75" width="1.7678" height="1.6099"/>
   <rect x="-2.4307" y="305.55" width="1.7046" height="1.6415"/>
   <rect x="-2.4622" y="310.07" width="1.5152" height="1.5468"/>
   <rect x="-2.336" y="292.29" width="1.6099" height="1.8625"/>
  </g>
  <g stroke-width=".26421">
   <path d="m1.9837 308.89c0 0.34347 0.10568 0.66052 0.29063 0.92472l1.321-2.6421c-0.8983 0.0793-1.6117 0.81904-1.6117 1.7173z"/>
   <path d="m17.149 307.2-2.7742 1.8759-2.5892-0.0528-0.26421 1.0832 2.325 0.1321c0.26421 0.0264 0.47557 0.13211 0.6341 0.31705 0.1321 0.15852 0.15852 0.36989 0.10568 0.58125-0.05284 0.18495-0.1321 0.31705-0.23779 0.42273 1.6381-0.0793 2.9327-1.9815 2.9327-1.9815 0.07926-0.0793 0.21136-0.0793 0.29063 0l1.6909 1.4267c0.50199 0.50199 1.1889 0.6341 1.5324 0.29063 0.34347-0.34347 0.23779-1.004-0.21136-1.506l-1.9287-1.823-0.8983-0.73978c-0.15852-0.1321-0.42273-0.15852-0.60768-0.0264z"/>
   <path d="m5.4184 310.4c0.052841 0.71335 0.66052 1.2946 1.3739 1.2946l2.827-0.0528c-0.026421-0.0264-0.026421-0.0264-0.052841-0.0529-0.1321-0.1321-0.18494-0.31704-0.15852-0.50199l0.079262-0.63409 0.18494-1.506-2.8798-0.0528c-0.7662 0-1.4003 0.6341-1.4003 1.4003 0 0.0264 0 0.0793 0.026421 0.10569z"/>
   <path d="m14.349 311.08c0.07926-0.31705-0.15852-0.60767-0.52841-0.60767l-2.5892-0.13211 0.60767-2.6421c0.05284-0.1321 0.07926-0.2642 0.10568-0.42273 0.02642-0.66051-0.55483-1.2682-1.2946-1.2946 0 0-1.5852 0.10568-2.3514 0.10568h-0.21136c-0.6341-0.0264-2.5364-0.44915-2.5364-0.44915h-0.052841c-0.52841 0-1.004 0.31705-1.2418 0.7662l-1.8759 3.7782-3.1705 0.10568c-0.52841 0-0.97756 0.29063-0.97756 0.7662 0 0.23779 0.18494 0.6341 1.1097 0.6341h3.8574-0.34347c0.36989 0 1.1097-0.15853 1.3475-0.42273l1.5324-2.3514c0.50199-0.39631 1.7966-0.44915 2.4043-0.44915h0.31705s0.10568 0.0264 0.15852 0.21137h1.3475l-0.21136 1.823-0.079262 0.63409c-0.026421 0.26421 0.26421 0.502 0.52841 0.502h0.92472l2.6421-0.0264c0.29063-0.0264 0.52841-0.2642 0.58125-0.52841z"/>
   <path d="m13.609 308.76c0.92472 0.1321 1.7966-0.50199 1.9551-1.4267 0.1321-0.92472-0.50199-1.7966-1.4267-1.9551-0.92472-0.13211-1.7966 0.50199-1.9551 1.4267 0 0.0793-0.02642 0.1321-0.02642 0.21137v0.23778c0.10568 0.7662 0.68694 1.4003 1.4531 1.506z"/>
  </g>
 </g>
</svg>
