<svg version="1.1" viewBox="0 0 20 20" xmlns="http://www.w3.org/2000/svg">
 <g transform="matrix(.20675 0 0 .20675 -20.368 6.74)">
  <path d="m59.079 10.322c0.024-4.44-3.56-8.063-7.998-8.089-4.44-0.023-8.063 3.559-8.087 8.001-0.025 4.435 3.553 8.063 8 8.085 4.444 0.024 8.063-3.558 8.085-7.997z"/>
 </g>
 <g transform="translate(0,-291.71)" fill="#f00">
  <rect x="-2.3675" y="300.75" width="1.7678" height="1.6099"/>
  <rect x="-2.4307" y="305.55" width="1.7046" height="1.6415"/>
  <rect x="-2.4622" y="310.07" width="1.5152" height="1.5468"/>
  <rect x="-2.336" y="292.29" width="1.6099" height="1.8625"/>
 </g>
 <rect x="-.20974" y="14.619" width="20.541" height="5.7409" fill="#6c5353"/>
 <g transform="translate(.13514 -296.29)">
  <g transform="matrix(.20675 0 0 .20675 -.23395 291.26)">
   <path d="m38.059 95.995c0 1.66 1.347 3.006 3.008 3.006h13.473c1.069 0 1.934-0.865 1.934-1.933 0-0.07-0.012-26.424-0.019-39.049 1.718-1.418 2.812-3.564 2.812-5.963v-22.62c0-4.271-3.461-7.733-7.732-7.733h-0.988c-4.271 0-7.732 3.462-7.732 7.733v22.618c0 2.402 1.095 4.549 2.812 5.967v34.965h-4.559c-1.663 0-3.009 1.346-3.009 3.009z"/>
  </g>
  <g transform="matrix(.20675 0 0 .20675 -.23395 291.26)">
   <path d="m59.079 10.322c0.024-4.44-3.56-8.063-7.998-8.089-4.44-0.023-8.063 3.559-8.087 8.001-0.025 4.435 3.553 8.063 8 8.085 4.444 0.024 8.063-3.558 8.085-7.997z"/>
  </g>
  <g fill="#f00">
   <rect x="-2.3675" y="300.75" width="1.7678" height="1.6099"/>
   <rect x="-2.4307" y="305.55" width="1.7046" height="1.6415"/>
   <rect x="-2.4622" y="310.07" width="1.5152" height="1.5468"/>
   <rect x="-2.336" y="292.29" width="1.6099" height="1.8625"/>
  </g>
 </g>
</svg>
